<?xml version="1.0" encoding="utf-8"?>
<svg version="1.1" id="Layer_1" xmlns="http://www.w3.org/2000/svg" xmlns:xlink="http://www.w3.org/1999/xlink" x="0px" y="0px"
	 viewBox="0 0 52.5 52.5" enable-background="new 0 0 52.5 52.5" xml:space="preserve">
<g>
	<path fill="white" fill-opacity="0.5" d="M35.7,17.2c0.3-0.3,0.5-0.7,0.7-1.1c0.2-0.4,0.3-0.9,0.3-1.4c0-0.5-0.1-1-0.3-1.4c-0.2-0.5-0.5-0.9-0.8-1.3
		c-0.4-0.4-0.9-0.7-1.4-0.9c-0.6-0.2-1.2-0.3-1.8-0.2c-0.5,0.1-0.9,0.2-1.3,0.4c-0.2,0.1-0.4,0.3-0.6,0.4L30.2,12
		c-0.1,0.1-0.1,0.1-0.2,0.1c-0.1,0.1-0.3,0.2-0.4,0.2c-0.1,0.1-0.3,0.1-0.4,0.2c-0.1,0-0.2,0.1-0.4,0.1c-0.1,0-0.2,0-0.3,0
		c-0.6,0.1-1.3-0.1-1.9-0.4c-0.2-0.1-0.4-0.2-0.6-0.4c0,0-0.1-0.1-0.1-0.1c0,0-0.1-0.1-0.1-0.1c0,0,0,0-0.1-0.1
		c-0.1-0.1-0.1-0.2-0.1-0.3c0,0,0,0,0-0.1l0-6.5c-0.5-0.6-1.1-1.1-1.7-1.6c-0.9-0.7-1.9-1.4-3-1.8c-0.9-0.4-1.8-0.7-2.7-1
		c-0.9-0.2-1.7-0.3-2.6-0.4c-0.9-0.1-1.8,0-2.7,0.1c-0.7,0.1-1.5,0.2-2.2,0.5C9.4,0.9,8.1,1.5,7,2.2C6.2,2.7,5.4,3.3,4.7,3.9
		C4,4.6,3.4,5.3,2.8,6c-0.5,0.7-1,1.4-1.3,2.2C1.1,9,0.8,9.8,0.6,10.6c-0.2,0.7-0.4,1.4-0.4,2.1C0,13.7,0,14.6,0,15.6
		c0,0.8,0.2,1.7,0.4,2.5c0.2,0.9,0.5,1.7,0.8,2.5C1.8,21.8,2.5,23,3.4,24c0.3,0.4,0.7,0.8,1,1.1c0.2,0.2,0.3,0.3,0.5,0.5H11
		c0.1-0.1,0.1-0.2,0.1-0.2c0-0.1,0.1-0.1,0.1-0.2c0-0.1,0.1-0.1,0.1-0.2c0.1-0.4,0.2-0.8,0.1-1.1c0-0.1,0-0.1,0-0.2
		c0-0.1-0.1-0.1-0.1-0.2c0-0.1-0.1-0.2-0.2-0.2c0,0-0.1-0.1-0.1-0.1l0,0c0,0,0-0.1-0.1-0.1c0,0,0,0,0,0l-0.1-0.1
		c-0.1-0.1-0.2-0.3-0.3-0.4c-0.2-0.3-0.4-0.7-0.5-1c-0.1-0.3-0.2-0.7-0.3-1c-0.1-0.6-0.1-1.1,0-1.7c0.1-0.5,0.3-1,0.5-1.5
		c0.3-0.5,0.6-0.9,1-1.3c0.4-0.4,0.9-0.7,1.4-0.9c0.6-0.2,1.2-0.4,1.8-0.4c0.7,0,1.3,0.1,1.9,0.3c0.7,0.2,1.3,0.6,1.8,1.1
		c0.5,0.5,1,1.1,1.3,1.8c0.2,0.4,0.3,0.7,0.3,1.1c0.1,0.4,0.1,0.8,0.1,1.3c0,0.4-0.1,0.8-0.2,1.1c-0.1,0.3-0.3,0.7-0.4,1
		c-0.1,0.2-0.2,0.3-0.3,0.5c0,0.1-0.1,0.1-0.1,0.2l0,0l0,0l0,0.1c0,0,0,0.1-0.1,0.1l-0.1,0.1c0,0-0.1,0.1-0.1,0.1
		c-0.1,0.1-0.1,0.1-0.1,0.2c0,0.1-0.1,0.1-0.1,0.2c0,0.1,0,0.1,0,0.2c-0.1,0.3-0.1,0.7,0.1,1.1c0,0.1,0,0.1,0.1,0.2
		c0,0.1,0.1,0.1,0.1,0.2c0,0.1,0.1,0.2,0.2,0.3h7.2l0-7.5c0,0,0,0,0-0.1c0-0.1,0-0.1,0.1-0.2c0-0.1,0.1-0.1,0.1-0.2
		c0,0,0.1-0.1,0.1-0.1l0.1,0c0.1-0.1,0.2-0.1,0.3-0.2c0.5-0.3,1-0.5,1.6-0.6c0.2,0,0.3,0,0.5,0c0,0,0.1,0,0.1,0c0.1,0,0.1,0,0.2,0
		c0.1,0,0.2,0,0.4,0.1c0.3,0.1,0.7,0.2,0.9,0.4c0.1,0.1,0.2,0.1,0.3,0.2c0,0,0.1,0.1,0.1,0.1l0,0l-0.1,0.1c0,0,0,0,0,0l0.1-0.1
		l0.2,0.2c0.1,0.1,0.2,0.2,0.4,0.2c0.2,0.1,0.5,0.3,0.8,0.4c0.7,0.2,1.4,0.3,2,0.1c0.4-0.1,0.7-0.2,1.1-0.4
		C35.1,17.7,35.4,17.5,35.7,17.2z"/>
	<g>
		<polygon points="41.6,29.7 41.6,29.7 41.6,29.6 41.6,29.6 		"/>
		<path fill="white" fill-opacity="0.5" d="M28.6,49.2c0.9,0.8,2,1.4,3,1.9c0.8,0.4,1.7,0.7,2.6,0.9c0.9,0.2,1.8,0.4,2.7,0.4c0.9,0.1,1.9,0,2.8-0.1
			c0.7-0.1,1.4-0.2,2.1-0.4c1.3-0.4,2.5-0.9,3.6-1.6c0.8-0.5,1.6-1.1,2.3-1.7c0.7-0.7,1.4-1.4,2-2.2c0.5-0.6,0.9-1.3,1.2-2
			c0.4-0.8,0.7-1.7,1-2.5c0.2-0.6,0.3-1.3,0.4-1.9c0.1-1,0.2-2,0.1-3c0-0.8-0.2-1.6-0.3-2.4c-0.2-0.9-0.5-1.7-0.8-2.6
			c-0.5-1.2-1.2-2.4-2.1-3.4c-0.3-0.4-0.6-0.8-1-1.1l-0.5-0.5h-6.1l-0.2,0.3c0,0.1-0.1,0.1-0.1,0.2c0,0.1-0.1,0.1-0.1,0.2
			c-0.1,0.4-0.2,0.8-0.1,1.1c0,0.1,0,0.1,0,0.2c0,0.1,0.1,0.1,0.1,0.2c0,0.1,0.1,0.2,0.2,0.3c0,0,0.1,0.1,0.1,0.1l0,0
			c0,0,0,0.1,0.1,0.1l0,0.1l0.1-0.1l0,0l0,0l0,0l0,0l0,0l0.1,0.1c0.2,0.2,0.3,0.4,0.5,0.7c0.3,0.5,0.5,1,0.6,1.5
			c0.1,0.7,0.1,1.5,0,2.2c-0.2,0.6-0.4,1.2-0.8,1.8c-0.3,0.4-0.7,0.8-1.1,1.1c-0.4,0.3-0.8,0.5-1.3,0.7c-0.5,0.2-1,0.3-1.5,0.3
			c-0.5,0-0.9,0-1.3-0.1c-0.5-0.1-1-0.3-1.4-0.6c-0.5-0.3-1-0.7-1.3-1.1c-0.4-0.5-0.7-1-0.9-1.6c-0.2-0.6-0.3-1.3-0.2-2
			c0-0.4,0.1-0.7,0.2-1c0.1-0.4,0.3-0.8,0.5-1.1c0.1-0.2,0.2-0.3,0.3-0.5c0-0.1,0.1-0.1,0.1-0.2l0.1,0c0,0,0,0,0,0l-0.1-0.1l0.1-0.1
			c0,0,0-0.1,0.1-0.1l0.1-0.1c0,0,0.1-0.1,0.1-0.1c0-0.1,0.1-0.1,0.1-0.2c0-0.1,0.1-0.1,0.1-0.2c0-0.1,0-0.1,0-0.2
			c0.1-0.3,0.1-0.7-0.1-1.1c0-0.1,0-0.1-0.1-0.2c0-0.1-0.1-0.2-0.1-0.2c0-0.1-0.1-0.2-0.1-0.2h-7.2l0,7.5c0,0,0,0,0,0.1
			c0,0.1-0.1,0.2-0.1,0.3c0,0,0,0.1-0.1,0.1c0,0-0.1,0.1-0.1,0.1c0,0,0,0-0.1,0c-0.1,0.1-0.3,0.2-0.4,0.3c-0.6,0.4-1.3,0.6-1.9,0.6
			c-0.1,0-0.2,0-0.3,0c-0.1,0-0.2,0-0.3,0c-0.4-0.1-0.7-0.2-1-0.4c-0.1-0.1-0.2-0.2-0.3-0.2c0,0-0.1-0.1-0.1-0.1h0l0,0l0,0
			c0,0-0.1-0.1-0.1-0.1L22,34.8c-0.2-0.2-0.4-0.3-0.6-0.4c-0.4-0.2-0.9-0.3-1.3-0.4c-0.3,0-0.7,0-1,0.1c-0.3,0.1-0.5,0.1-0.8,0.2
			c-0.5,0.2-1,0.5-1.3,0.9c-0.3,0.4-0.6,0.8-0.8,1.3C16,37,15.9,37.5,15.9,38c0,0.5,0.1,0.9,0.3,1.3c0.2,0.4,0.4,0.7,0.7,1
			c0.3,0.3,0.6,0.5,1,0.7c0.3,0.2,0.7,0.3,1,0.4c0.4,0.1,0.9,0.1,1.4,0c0.2,0,0.5-0.1,0.7-0.2c0.3-0.1,0.5-0.2,0.7-0.4
			c0.1-0.1,0.2-0.2,0.3-0.3l0.1-0.1l0,0l0,0c0,0,0,0,0,0l0.1-0.1c0.1,0,0.1-0.1,0.2-0.1c0.1-0.1,0.2-0.2,0.3-0.2
			c0.3-0.2,0.6-0.3,0.9-0.3c0.2,0,0.3,0,0.5,0h0.1c0.2,0,0.3,0,0.5,0c0.5,0.1,1,0.3,1.5,0.6c0.1,0.1,0.2,0.1,0.3,0.2l0.1,0
			c0,0,0.1,0.1,0.1,0.1c0,0.1,0.1,0.1,0.1,0.2c0,0.1,0,0.1,0.1,0.2c0,0,0,0,0,0.1l0,0v6.5C27.4,48.2,28,48.7,28.6,49.2z"/>
		<polygon points="22.3,34.9 22.3,34.9 22.3,34.9 22.3,34.9 		"/>
	</g>
	<g>
		<polygon points="40.7,30.2 40.7,30.2 40.7,30.2 		"/>
		<path fill="white" fill-opacity="0.5" d="M49.2,24c0.7-0.9,1.3-1.8,1.8-2.9c0.4-0.7,0.7-1.5,0.9-2.3c0.2-0.8,0.4-1.7,0.5-2.6c0.2-1.7,0.1-3.4-0.3-5
			c-0.3-1.3-0.8-2.6-1.5-3.8c-0.4-0.7-0.9-1.4-1.4-2.1c-0.6-0.7-1.3-1.4-2-2c-0.6-0.5-1.3-1-2-1.4c-0.8-0.4-1.5-0.8-2.3-1.1
			c-1-0.4-2-0.6-3.1-0.7C39.3,0.1,38.9,0,38.5,0c-0.2,0-0.4,0-0.6,0h-0.1c-0.5,0-0.9,0-1.4,0.1c-0.8,0.1-1.7,0.2-2.5,0.4
			c-0.9,0.2-1.7,0.6-2.5,0.9c-0.8,0.4-1.5,0.8-2.2,1.3c-0.6,0.4-1.1,0.9-1.6,1.4c-0.2,0.2-0.5,0.5-0.7,0.7V11
			c0.1,0.1,0.2,0.1,0.2,0.1c0.1,0,0.1,0.1,0.2,0.1c0.1,0,0.1,0.1,0.2,0.1c0.4,0.1,0.8,0.2,1.1,0.1c0.1,0,0.1,0,0.2,0
			c0.1,0,0.1-0.1,0.2-0.1c0.1,0,0.2-0.1,0.3-0.2c0,0,0.1-0.1,0.1-0.1l0,0c0,0,0.1,0,0.1-0.1l0.1-0.1c0.2-0.1,0.3-0.2,0.5-0.3
			c0.3-0.2,0.7-0.4,1-0.5c0.3-0.1,0.6-0.2,1-0.2c0.6-0.1,1.1-0.1,1.7,0c0.5,0.1,1,0.3,1.5,0.5c0.5,0.3,0.9,0.6,1.3,1
			c0.4,0.4,0.7,0.9,0.9,1.4c0.2,0.6,0.4,1.2,0.4,1.8c0,0.6-0.1,1.3-0.3,1.9c-0.2,0.7-0.6,1.3-1,1.8c-0.5,0.5-1.1,1-1.8,1.3
			c-0.4,0.1-0.7,0.3-1.1,0.3c-0.4,0.1-0.8,0.1-1.3,0.1c-0.4,0-0.7-0.1-1.1-0.2c-0.4-0.1-0.7-0.3-1-0.5c-0.2-0.1-0.3-0.2-0.5-0.3
			c-0.1,0-0.1-0.1-0.2-0.1l-0.1-0.1c0,0-0.1,0-0.1-0.1c0,0-0.1-0.1-0.1-0.1c0,0-0.1-0.1-0.1-0.1c-0.1-0.1-0.1-0.1-0.2-0.1
			c-0.1,0-0.1-0.1-0.2-0.1c-0.1,0-0.1,0-0.2,0C28.4,18,28,18,27.6,18.1c-0.1,0-0.1,0-0.2,0.1c-0.1,0-0.2,0.1-0.2,0.1
			c-0.1,0-0.2,0.1-0.2,0.1v7.2l7.5,0c0,0,0,0,0.1,0c0.1,0,0.2,0.1,0.3,0.1c0,0,0.1,0,0.1,0.1c0,0,0.1,0.1,0.1,0.1l0.1,0.1
			c0.1,0.1,0.2,0.3,0.3,0.4c0.4,0.6,0.6,1.3,0.6,1.9c0,0.1,0,0.2,0,0.3c0,0.1,0,0.2,0,0.3c-0.1,0.4-0.2,0.7-0.4,1
			c-0.1,0.1-0.2,0.2-0.2,0.3c0,0-0.1,0.1-0.1,0.1l0,0l0,0l-0.2,0.2c-0.1,0.1-0.2,0.2-0.2,0.3c-0.1,0.2-0.3,0.5-0.3,0.7
			c-0.2,0.7-0.3,1.4-0.1,2c0.1,0.4,0.2,0.7,0.4,1.1c0.2,0.4,0.5,0.7,0.8,0.9c0.3,0.3,0.7,0.5,1.1,0.7c0.4,0.2,0.9,0.3,1.4,0.3
			c0,0,0,0,0,0c0.5,0,1-0.1,1.4-0.3c0.5-0.2,0.9-0.5,1.3-0.8c0.4-0.4,0.7-0.9,0.9-1.4c0.2-0.6,0.3-1.2,0.2-1.8
			c-0.1-0.5-0.2-0.9-0.5-1.3c-0.1-0.2-0.3-0.4-0.4-0.6l-0.1-0.1l0,0l0,0l0,0l0,0l0-0.1l0,0l-0.1,0.1l-0.1-0.1
			c-0.1-0.1-0.1-0.1-0.1-0.2c-0.1-0.1-0.2-0.3-0.2-0.4c-0.1-0.1-0.1-0.3-0.2-0.4c0-0.1-0.1-0.2-0.1-0.4c0-0.1,0-0.2,0-0.3
			c-0.1-0.6,0.1-1.3,0.4-1.9c0.1-0.2,0.2-0.4,0.4-0.6c0,0,0.1-0.1,0.1-0.1c0,0,0.1-0.1,0.1-0.1c0,0,0.1,0,0.1-0.1
			c0.1-0.1,0.2-0.1,0.3-0.1c0,0,0,0,0.1,0l0,0h6.5C48.2,25.1,48.7,24.5,49.2,24z"/>
	</g>
</g>
<g id="XMLID_14_">
</g>
<g id="XMLID_15_">
</g>
<g id="XMLID_16_">
</g>
<g id="XMLID_17_">
</g>
<g id="XMLID_18_">
</g>
<g id="XMLID_19_">
</g>
</svg>
