<?xml version="1.0" encoding="UTF-8" standalone="no"?>
<!-- Created with Inkscape (http://www.inkscape.org/) -->

<svg
   xmlns:dc="http://purl.org/dc/elements/1.1/"
   xmlns:cc="http://creativecommons.org/ns#"
   xmlns:rdf="http://www.w3.org/1999/02/22-rdf-syntax-ns#"
   xmlns:svg="http://www.w3.org/2000/svg"
   xmlns="http://www.w3.org/2000/svg"
   xmlns:sodipodi="http://sodipodi.sourceforge.net/DTD/sodipodi-0.dtd"
   xmlns:inkscape="http://www.inkscape.org/namespaces/inkscape"
   width="97mm"
   height="129mm"
   viewBox="0 0 97 129"
   version="1.1"
   id="svg1244"
   inkscape:version="0.92.3 (2405546, 2018-03-11)"
   sodipodi:docname="16.svg">
  <defs
     id="defs1238">
    <rect
       height="29.360001"
       width="693.96997"
       y="311.89001"
       x="54.59"
       id="SVGID_1_" />
    <rect
       height="29.360001"
       width="693.96997"
       y="282.53"
       x="54.59"
       id="SVGID_3_" />
    <rect
       height="29.360001"
       width="693.96997"
       y="253.17999"
       x="54.59"
       id="SVGID_5_" />
    <rect
       height="0.94999999"
       width="693.96997"
       y="252.23"
       x="54.59"
       id="SVGID_7_" />
  </defs>
  <sodipodi:namedview
     id="base"
     pagecolor="#ffffff"
     bordercolor="#666666"
     borderopacity="1.0"
     inkscape:pageopacity="0.0"
     inkscape:pageshadow="2"
     inkscape:zoom="1.07"
     inkscape:cx="415.26424"
     inkscape:cy="112.07208"
     inkscape:document-units="mm"
     inkscape:current-layer="g7496"
     showgrid="false"
     inkscape:window-width="1853"
     inkscape:window-height="1025"
     inkscape:window-x="67"
     inkscape:window-y="27"
     inkscape:window-maximized="1" />
  <metadata
     id="metadata1241">
    <rdf:RDF>
      <cc:Work
         rdf:about="">
        <dc:format>image/svg+xml</dc:format>
        <dc:type
           rdf:resource="http://purl.org/dc/dcmitype/StillImage" />
        <dc:title></dc:title>
      </cc:Work>
    </rdf:RDF>
  </metadata>
  <g
     inkscape:label="Layer 1"
     inkscape:groupmode="layer"
     id="layer1"
     transform="translate(0,-168)">
    <g
       id="g7257"
       transform="matrix(0.26458333,0,0,0.26458333,-21.557762,167.58321)">
      <g
         id="g7496"
         transform="translate(-194.74048,129.92751)">
        <text
           id="text7446"
           class="st0 st1"
           transform="matrix(0.99537342,0,-0.26917025,1.0046481,0,0)"
           style="font-size:19.37702942px;font-family:ArialUnicodeMS;stroke-width:0.97038954"
           x="403.84045"
           y="-101.00141">Перед</text>
        <text
           id="text7448"
           class="st0 st2"
           transform="matrix(0.34046163,0.93534207,-1.0361204,0.09067985,0,0)"
           style="font-size:19.37808228px;font-family:ArialUnicodeMS;stroke-width:0.97044706"
           x="24.477875"
           y="-566.92694">Перед</text>
        <text
           id="text7450"
           class="st0 st1"
           transform="matrix(0.34046392,-0.93534835,0.85198416,0.59653317,0,0)"
           style="font-size:19.37804794px;font-family:ArialUnicodeMS;stroke-width:0.97044057"
           x="157.08244"
           y="296.53717">Перед</text>
        <text
           id="text7452"
           class="st0 st3"
           transform="matrix(0.81533077,0.57089642,-0.79678178,0.66858772,0,0)"
           style="font-size:19.37740898px;font-family:ArialUnicodeMS;stroke-width:0.97040373"
           x="358.93976"
           y="-58.588985">Перед</text>
        <text
           id="text7454"
           class="st0 st3"
           transform="matrix(0.81532616,-0.57089319,0.35572623,0.97742273,0,0)"
           style="font-size:19.3775177px;font-family:ArialUnicodeMS;stroke-width:0.97040921"
           x="451.14908"
           y="461.71738">Перед</text>
        <path
           id="path7462"
           d="m 427.43803,88.012432 5.01,-8.7 2.38,1.91 -7.39,6.79 m 63.84,-0.88 -7.19,-7.01 2.44,-1.84 4.75,8.85 m 23.32,-58.88 -9.12,4.2 -0.84,-2.94 9.96,-1.26 m -105.24,0.03 9.93,1.48 -0.9,2.92 -9.03,-4.4 m 49.85,-34.1400001 1.53,9.92 h -3.05 l 1.52,-9.92"
           class="st5"
           inkscape:connector-curvature="0"
           style="fill:none;stroke:#000000;stroke-width:0.50999999;stroke-miterlimit:10" />
        <path
           id="path7464"
           d="m 449.58803,60.322432 -22.15,27.69 m 43.43,-27.99 20.4,27.11 m -10.2,-49.26 33.52,-9.62 m -71.41,10.49 -33.81,-10.46 m 49.84,-4.69 V -5.8475681"
           class="st6"
           inkscape:connector-curvature="0"
           style="fill:none;stroke:#000000;stroke-width:0.50999999;stroke-linecap:round;stroke-linejoin:round;stroke-miterlimit:10" />
        <path
           id="path7466"
           d="m 427.43803,88.012432 5.01,-8.7 2.38,1.91 m 56.45,5.91 -7.19,-7.01 2.44,-1.84 m 28.07,-50.03 -9.12,4.2 -0.84,-2.94 m -95.28,-1.23 9.93,1.48 -0.9,2.92 m 40.82,-38.5400001 1.53,9.92 h -3.05"
           inkscape:connector-curvature="0" />
        <path
           id="path7468"
           d="m 392.60803,212.95243 -0.07,0.11 -0.07,0.31 0.07,0.33 0.2,0.3 0.29,0.23 0.34,0.11 0.34,-0.01 0.29,-0.14 0.13,-0.14 m 130.74,0.01 0.13,0.14 0.29,0.14 0.34,0.01 m 0,0 0.34,-0.11 0.29,-0.23 0.2,-0.3 0.07,-0.33 -0.07,-0.31 -0.07,-0.11 m -23.89,-43.66 0.01,0.08 0.13,0.18 0.25,0.14 0.33,0.08 0.37,0.01 0.35,-0.07 0.27,-0.13 0.15,-0.18 0.03,-0.11 m -182.87,-8 -0.09,0.17 -0.04,0.32 0.09,0.33 m 0,0 0.21,0.29 0.3,0.21 0.35,0.09 0.34,-0.04 0.28,-0.16 0.09,-0.1 m 272.91,0 0.09,0.1 0.28,0.16 0.34,0.04 0.35,-0.09 0.3,-0.21 0.22,-0.29 0.09,-0.33 -0.04,-0.32 -0.09,-0.17 m -182.88,8 0.02,0.11 0.15,0.18 0.27,0.13 m 0.01,0 0.35,0.07 0.37,-0.01 0.34,-0.08 0.25,-0.14 0.13,-0.18 0.01,-0.08 m -59.34,-43.11 -0.07,0.04 -0.13,0.18 -0.06,0.28 0.03,0.34 0.11,0.35 0.17,0.31 0.21,0.22 0.21,0.09 0.12,-0.01 m 203.48,0 0.12,0.01 0.21,-0.09 0.21,-0.22 m 0,0 0.17,-0.31 0.11,-0.35 0.03,-0.34 -0.06,-0.28 -0.13,-0.18 -0.07,-0.04 m -231.82,-83.569998 -0.1,0.06 -0.12,0.2 -0.04,0.3 m 0,0 0.04,0.35 0.12,0.35 0.18,0.29 0.21,0.2 0.21,0.07 0.08,-0.01 m 257.8,-0.01 0.08,0.01 0.21,-0.07 0.21,-0.2 0.18,-0.29 0.12,-0.35 0.04,-0.35 -0.04,-0.3 -0.12,-0.2 -0.1,-0.06 m 48.91,-5.64 0.17,-0.08 0.22,-0.23 0.12,-0.32 m 0,-0.01 v -0.36 l -0.12,-0.35 -0.23,-0.28 -0.3,-0.17 -0.32,-0.03 -0.13,0.03 m -284.03,-60.500004 -0.06,-0.06 -0.21,-0.07 -0.29,0.03 -0.32,0.13 -0.3,0.21 -0.24,0.26 -0.14,0.27 -0.02,0.23 0.05,0.11 m -70.03,59.390004 -0.13,-0.03 -0.32,0.03 -0.3,0.17 -0.23,0.28 -0.12,0.35 v 0.36 l 0.12,0.32 0.22,0.23 0.17,0.08 m 286.15,-61.180004 0.05,-0.11 -0.02,-0.23 -0.14,-0.27 m -0.01,0 -0.24,-0.26 -0.3,-0.21 -0.32,-0.13 -0.29,-0.03 -0.21,0.07 -0.06,0.06 m -69.56,-50.54 0.04,-0.07 v -0.22 l -0.12,-0.26 -0.22,-0.26 -0.29,-0.22 -0.32,-0.15 -0.3,-0.05 -0.23,0.05 -0.09,0.08 m -185.78,28.57 -0.18,-0.03 -0.32,0.06 -0.29,0.19 m 0,0 -0.21,0.29 -0.1,0.35 0.02,0.36 0.14,0.31 0.24,0.21 0.12,0.05 m 302.45,0.01 0.12,-0.05 0.24,-0.21 0.14,-0.31 0.02,-0.36 -0.1,-0.35 -0.21,-0.29 -0.29,-0.19 -0.32,-0.06 -0.18,0.03 m -193.64,-76.849998 -0.01,-0.13 -0.13,-0.29 -0.25,-0.23 -0.34,-0.13 -0.37,-0.01 -0.35,0.11 -0.27,0.21 -0.15,0.28 -0.02,0.18 m 89.77,0.01 -0.03,-0.18 -0.15,-0.28 -0.27,-0.21 m 0,-0.01 -0.35,-0.11 -0.37,0.01 -0.33,0.13 -0.25,0.23 -0.13,0.29 -0.01,0.13 m -78.14,48.249998 -0.09,-0.08 -0.23,-0.05 -0.3,0.05 m 0.01,0.01 -0.32,0.15 -0.29,0.22 -0.22,0.26 -0.12,0.26 v 0.22 l 0.04,0.07 m 188.34,121.420004 -0.02,-0.59 -0.22,-0.62 -0.27,-0.37 m -7.34,0.51 0.02,0.02 0.27,0.11 0.3,-0.02 m 0.86,-0.43 v 0 l 0.03,0.07 -0.12,0.1 -0.14,0.06 m -0.62,0.2 0.62,-0.2 m -9.44,-11.39 v 0 l 0.17,-0.06 m 0,0 0.39,-0.13 0.55,-0.18 0.63,-0.2 0.61,-0.2 0.5,-0.16 0.31,-0.1 0.08,-0.03 m -0.01,31.61 -0.04,-0.01 -0.26,-0.08 -0.46,-0.15 -0.59,-0.19 -0.63,-0.21 -0.57,-0.19 -0.43,-0.14 -0.22,-0.07 -0.02,-0.01 m 1.48,-22.02 0.08,0.19 0.16,0.05 0.25,-0.09 0.19,-0.11 m 0.01,0 0.18,-0.06 0.22,0.02 0.22,0.1 0.2,0.17 0.22,0.32 0.09,0.22 m -0.01,0 0.07,0.23 m 0.69,9.62 0.12,-0.61 -0.04,-0.49 -0.2,-0.43 -0.29,-0.29 -0.43,-0.21 m -1.31,-5.59 0.78,0.11 0.34,-0.08 0.29,-0.21 0.16,-0.3 0.07,-0.43 -0.08,-0.74 -0.1,-0.36 m 0.3,10.81 0.39,-1.19 m -0.39,1.19 -0.32,0.65 -0.21,0.23 -0.25,0.15 -0.17,0.03 -0.15,-0.04 m -0.2,-0.07 0.21,0.08 m -0.21,-0.08 -0.26,0.08 -0.17,0.28 -0.02,0.07 m -1.43,-16.29 0.2,1.48 0.17,2.4 -0.07,1.31 m -0.18,14.88 0.48,-4.41 -0.03,-2.09 -0.14,-0.86 -0.24,-0.73 -0.68,-1.05 m 0.48,0.15 0.11,0.03 m 0,0.01 0.13,0.01 0.18,0.01 0.22,0.01 0.34,0.04 0.48,0.09 0.27,0.08 m 0,-0.01 1.01,0.33 m -1.31,-5.57 -0.18,-0.06 m 0,0 -0.42,-0.14 -0.15,-0.05 m 0,-0.01 -0.21,-0.07 m -7.78,-0.79 0.19,-0.21 0.39,-0.26 0.37,-0.02 m -0.01,0 0.29,0.23 0.16,0.44 0.01,0.58 -0.14,0.64 -0.27,0.6 -0.36,0.46 -0.39,0.26 -0.36,0.02 -0.29,-0.23 -0.16,-0.44 -0.03,-0.28 m 1.3,-1.56 0.16,0.13 0.09,0.24 0.01,0.33 -0.08,0.36 -0.15,0.33 -0.2,0.26 -0.22,0.15 -0.2,0.01 m -79.92,146.879998 0.55,-0.19 0.52,-0.41 0.27,-0.37 m -2,-5.54 v 0 l -0.05,0.05 -0.13,-0.08 -0.1,-0.12 m -0.39,-0.53 0.39,0.53 m -0.47,-1.13 -0.01,0.03 -0.02,0.29 0.11,0.28 m -19.76,0.55 v -0.05 -0.27 -0.49 -0.62 -0.66 -0.6 -0.45 -0.23 -0.02 m 28.06,-9.13 v 0 l 0.1,0.14 m 0,0 0.24,0.33 0.34,0.47 0.39,0.53 0.38,0.52 0.31,0.42 0.19,0.27 0.05,0.07 m -18,6.72 0.62,-0.08 0.46,-0.2 0.35,-0.32 0.19,-0.37 0.07,-0.47 m 4.9,-2.96 0.14,0.78 0.18,0.3 0.29,0.21 0.33,0.06 0.42,-0.07 0.68,-0.31 0.32,-0.21 m 0.4,-2.1 -0.16,0.14 v 0.17 l 0.16,0.21 0.16,0.15 m 0.01,-0.01 0.11,0.15 0.05,0.21 -0.02,0.24 -0.1,0.24 -0.24,0.31 -0.18,0.15 m 0,0.01 -0.19,0.14 m -10.2,3.63 h 1.25 m -1.25,0 -0.71,-0.1 -0.29,-0.13 -0.22,-0.19 -0.08,-0.15 -0.01,-0.16 m 0.02,-0.22 -0.01,0.22 m 0.01,-0.22 -0.15,-0.22 -0.32,-0.08 -0.08,0.01 m 15.04,-6.4 -1.35,0.64 -2.23,0.91 -1.27,0.34 m -14.2,4.43 4.34,-0.9 1.97,-0.68 0.77,-0.4 0.62,-0.45 0.79,-0.97 m 0.02,0.49 v 0.12 m 0,0 0.03,0.12 0.05,0.18 0.05,0.21 0.07,0.33 0.06,0.48 0.01,0.28 m 0.01,0.01 v 1.06 m 4.9,-2.96 v -0.19 m 0,0 0.01,-0.44 v -0.16 m 0,0 v -0.23 m -1.65,-6.9 -0.07,0.19 -0.2,0.16 -0.31,0.11 -0.36,0.04 -0.36,-0.04 -0.31,-0.11 -0.21,-0.16 -0.07,-0.19 m 1.89,-0.74 0.26,0.11 0.37,0.29 0.13,0.34 m -0.01,0 -0.13,0.34 -0.37,0.29 -0.55,0.19 -0.65,0.07 -0.65,-0.07 -0.55,-0.19 -0.37,-0.29 -0.13,-0.34 0.13,-0.34 0.37,-0.29 0.26,-0.11 m -164.4,-29.89 0.36,0.47 0.55,0.37 0.43,0.14 m 4.64,-3.62 v 0 l -0.07,-0.03 0.04,-0.15 0.08,-0.13 m 0.39,-0.53 -0.39,0.53 m 0.94,-0.79 h -0.03 l -0.29,0.07 -0.23,0.19 m -6.63,-18.63 0.04,-0.01 0.26,-0.08 0.46,-0.15 0.59,-0.19 0.63,-0.21 0.57,-0.19 0.43,-0.14 0.22,-0.07 0.02,-0.01 m 17.36,23.87 v 0 l -0.11,0.15 m 0.01,-0.01 -0.24,0.33 -0.34,0.47 -0.39,0.53 -0.38,0.52 -0.31,0.42 -0.19,0.27 -0.05,0.07 m -12.33,-16.22 0.39,1.19 m 0.11,-2.72 -0.21,0.06 m 0.09,2.65 0.26,0.56 0.33,0.37 0.41,0.23 0.41,0.07 0.47,-0.08 m -2.26,-2.33 -0.12,-0.71 0.04,-0.31 0.11,-0.27 0.12,-0.12 0.15,-0.05 m 0.2,-0.07 0.17,-0.21 -0.02,-0.32 -0.03,-0.07 m -1.18,-3.84 2.2,3.85 1.26,1.67 0.62,0.61 0.62,0.45 1.17,0.45 m 6.03,9.13 -1.03,-1.08 -1.56,-1.84 -0.71,-1.1 m -1.44,-0.08 -0.7,0.37 -0.23,0.27 -0.11,0.34 0.05,0.33 0.2,0.38 0.5,0.55 0.3,0.24 m 2.11,-0.27 -0.18,-0.11 -0.16,0.05 -0.15,0.22 -0.09,0.2 m 0.01,0.01 -0.11,0.16 -0.18,0.11 -0.23,0.05 -0.26,-0.02 -0.37,-0.13 -0.2,-0.13 m -0.01,-0.01 -0.19,-0.14 m -1.77,-7.34 -0.11,0.04 m 0,0 -0.11,0.07 -0.15,0.1 -0.18,0.12 -0.29,0.17 -0.44,0.21 -0.27,0.1 m 0,-0.02 -1.01,0.33 m 4.33,3.75 0.18,-0.06 m 0,0 0.42,-0.13 0.15,-0.04 m 0,-0.01 0.22,-0.07 m 6.05,-3.7 -0.2,-0.01 -0.22,-0.15 -0.2,-0.26 -0.15,-0.33 -0.08,-0.36 0.01,-0.33 0.09,-0.24 0.16,-0.13 m 1.3,1.58 -0.03,0.28 -0.16,0.44 -0.29,0.23 m 0.01,0 -0.36,-0.02 -0.39,-0.26 -0.35,-0.46 -0.27,-0.6 -0.14,-0.64 0.01,-0.58 0.16,-0.44 0.29,-0.23 0.36,0.02 0.39,0.26 0.19,0.21 m -22.39,-165.600002 -0.33,0.48 -0.19,0.64 v 0.46 m 6.24,3.89 -0.01,-0.03 -0.16,-0.25 -0.25,-0.16 m -0.94,-0.15 v 0 l 0.01,-0.07 0.16,-0.01 0.15,0.04 m 0.63,0.2 -0.62,-0.2 m 0.94,14.760004 v 0 l -0.17,-0.06 m 0,0 -0.39,-0.13 -0.55,-0.18 -0.63,-0.2 -0.61,-0.2 -0.5,-0.16 -0.31,-0.1 -0.08,-0.03 m 18.58,-25.560004 0.03,0.04 0.16,0.22 0.29,0.39 0.36,0.5 0.39,0.54 0.35,0.49 0.27,0.37 0.14,0.19 0.01,0.02 m -12.71,14.22 -0.57,-0.55 -0.32,-0.14 h -0.36 l -0.3,0.15 -0.3,0.31 -0.36,0.64 -0.13,0.35 m 5.08,-8.18 -0.45,0.43 -0.25,0.43 -0.09,0.46 0.06,0.41 0.22,0.42 m -3.68,7.98 0.05,-0.21 -0.1,-0.14 -0.26,-0.07 -0.22,-0.02 m 0.01,0 -0.18,-0.05 -0.16,-0.14 -0.12,-0.21 -0.06,-0.26 0.01,-0.39 0.06,-0.23 m -0.01,0 0.07,-0.23 m -0.07,5.02 0.71,-1.32 1.27,-2.05 0.83,-1.02 m 3.37,-9.55 -1.01,0.73 m 1.01,-0.73 0.64,-0.33 0.31,-0.06 0.29,0.02 0.15,0.08 0.1,0.12 m 0.12,0.18 -0.12,-0.18 m 0.12,0.18 0.25,0.09 0.3,-0.12 0.06,-0.05 m 3.29,-2.3 -2.98,3.29 -1.2,1.71 -0.39,0.78 -0.23,0.73 -0.07,1.25 m -0.3,-0.41 -0.07,-0.09 m -0.01,0 -0.1,-0.08 -0.14,-0.12 -0.17,-0.14 -0.25,-0.23 -0.33,-0.36 -0.17,-0.22 m 0,0.01 -0.62,-0.86 m -2.23,5.27 0.11,0.16 m 0.01,0 0.26,0.36 0.09,0.13 m -0.01,0 0.13,0.18 m 5.39,4.62 -0.05,-0.2 0.07,-0.25 0.18,-0.27 0.27,-0.24 0.32,-0.18 0.31,-0.09 0.26,0.01 0.17,0.11 m -1.09,1.71 -0.27,0.06 -0.47,-0.02 -0.31,-0.2 m 0,0 -0.1,-0.35 0.13,-0.45 0.33,-0.48 0.49,-0.44 0.57,-0.33 0.56,-0.17 0.47,0.02 0.31,0.2 0.1,0.35 -0.13,0.45 -0.14,0.24 m 229.79,-14.88 0.12,0.14 0.31,0.58 0.1,0.65 -0.02,0.19 m -19.38,-1.48 -0.94,-0.95 m 14.5,5.9 -0.28,0.19 -0.13,0.24 m 1.04,-0.64 -0.62,0.2 m 0.62,-0.2 0.28,-0.04 0.04,0.05 -0.02,0.04 m -1.25,14.720004 0.04,-0.01 0.26,-0.09 0.46,-0.15 m 0.01,0 0.59,-0.19 0.63,-0.21 0.57,-0.19 0.43,-0.14 0.22,-0.07 0.02,-0.01 m -18.57,-25.560004 v 0 l -0.11,0.14 -0.24,0.33 -0.34,0.47 -0.39,0.53 -0.38,0.52 -0.31,0.42 -0.19,0.27 -0.05,0.07 m 15.15,15.21 0.08,0.47 -0.01,0.15 m 0,0.01 -0.07,0.28 -0.14,0.22 -0.17,0.12 -0.15,0.03 m -0.01,0 -0.17,0.01 -0.34,0.08 -0.07,0.15 0.04,0.14 m -5.89,-6.73 -0.54,-1.36 -0.95,-1.44 -2.65,-2.98 m 10.97,10.64 0.07,0.22 m -4.65,-6.26 0.23,-0.48 0.04,-0.45 -0.13,-0.46 -0.25,-0.38 -0.41,-0.37 m 5.1,8.18 -0.4,-0.86 -0.27,-0.33 -0.34,-0.23 -0.32,-0.05 -0.35,0.09 -0.48,0.37 -0.2,0.25 m -5.95,-8.22 0.02,0.02 0.34,0.13 0.24,-0.11 m 0,0 0.1,-0.17 m 0.01,0 0.09,-0.12 0.15,-0.08 0.19,-0.03 0.32,0.04 0.46,0.19 0.27,0.17 m 1.02,0.75 -1.01,-0.73 m 3.47,9.57 0.79,0.99 0.82,1.33 0.92,1.66 0.15,0.28 m -3,-4.84 0.14,-0.19 0.22,-0.32 0.12,-0.17 m 0,0.01 0.12,-0.16 m -2.22,-5.28 -0.62,0.86 m -0.01,0 -0.43,0.5 -0.24,0.22 -0.24,0.21 -0.15,0.12 -0.1,0.09 m -0.12,0.14 0.11,-0.14 m -2.4,9.32 0.05,0.02 0.52,0.06 m 0,-0.01 0.38,-0.13 0.19,-0.3 -0.04,-0.42 -0.25,-0.48 -0.43,-0.46 -0.54,-0.38 -0.57,-0.24 -0.52,-0.06 -0.38,0.13 -0.19,0.3 0.04,0.42 0.22,0.43 m 1.96,0.52 0.05,-0.11 -0.02,-0.23 -0.14,-0.27 -0.24,-0.26 -0.3,-0.21 -0.32,-0.13 -0.29,-0.03 -0.21,0.07 -0.06,0.06 m 15.17,164.010002 -0.1,0.16 -0.46,0.47 -0.59,0.29 -0.18,0.05 m -4.58,-18.9 0.61,-1.18 m -1.12,15.62 -0.26,-0.21 -0.27,-0.05 m 0.91,0.79 -0.39,-0.53 m 0.39,0.53 0.12,0.26 -0.04,0.06 -0.04,-0.01 m -14.37,3.35 0.03,0.04 0.16,0.22 0.28,0.39 m 0,0 0.37,0.5 0.39,0.54 0.36,0.49 0.27,0.37 0.14,0.19 0.01,0.02 m 18.56,-25.58 v 0 l -0.17,-0.06 -0.39,-0.13 -0.55,-0.18 -0.63,-0.2 -0.61,-0.2 -0.5,-0.16 -0.31,-0.1 -0.08,-0.03 m -5.27,12.75 0.53,0.08 0.44,-0.1 0.4,-0.27 0.29,-0.36 0.23,-0.51 m -0.25,-3.29 -0.01,0.03 -0.02,0.36 0.18,0.19 m 0,0.01 0.19,0.05 m -0.09,2.65 0.39,-1.19 m -0.3,-1.46 0.14,0.05 0.12,0.12 0.09,0.17 0.06,0.31 -0.04,0.5 -0.08,0.31 m -6.6,8.58 0.7,-0.65 0.23,-0.36 0.11,-0.39 -0.04,-0.32 -0.2,-0.31 -0.5,-0.35 -0.3,-0.12 m 2.51,-5.5 1.13,-0.94 1.08,-1.35 2.01,-3.44 m -6.73,13.73 -0.18,0.13 m 0,0 -0.42,0.22 -0.15,0.04 m 0,0 -0.29,0.02 -0.26,-0.07 -0.17,-0.12 -0.08,-0.13 m 0.01,-0.01 -0.06,-0.16 -0.18,-0.29 -0.16,-0.02 -0.12,0.09 m 0.63,-2.01 -0.7,1.05 -1.01,1.19 -1.29,1.39 -0.22,0.23 m 3.67,-4.34 0.22,0.07 0.37,0.11 0.2,0.06 m 0,0 0.19,0.06 m 4.33,-3.74 -1.01,-0.33 m 0,0 -0.61,-0.26 -0.29,-0.16 -0.27,-0.17 -0.16,-0.1 -0.11,-0.07 m -0.17,-0.06 0.17,0.06 m -9.61,0.6 v 0.05 l 0.1,0.51 m 0,0 0.24,0.32 0.34,0.08 0.39,-0.16 0.38,-0.39 0.31,-0.55 0.19,-0.63 0.05,-0.62 -0.1,-0.51 -0.24,-0.32 -0.34,-0.08 -0.39,0.16 -0.35,0.35 m 0.13,2.02 0.12,0.01 0.21,-0.09 0.21,-0.22 0.17,-0.31 0.11,-0.35 0.03,-0.34 -0.06,-0.28 -0.13,-0.18 -0.07,-0.04 m -151.31,65.11 -0.18,-0.04 -0.59,-0.29 -0.46,-0.47 -0.1,-0.16 m 16.55,-10.19 1.32,0.22 m -15.2,3.75 0.12,-0.32 -0.04,-0.27 m -0.47,1.12 0.39,-0.53 m -0.39,0.53 -0.21,0.2 -0.07,-0.02 -0.01,-0.04 m -7.62,-12.64 -0.03,0.04 -0.16,0.22 -0.29,0.39 m 0.01,0 -0.37,0.5 -0.39,0.54 -0.36,0.49 -0.27,0.37 -0.14,0.19 -0.01,0.02 m 30.07,9.76 v 0 -0.18 -0.41 -0.58 -0.66 -0.64 -0.52 -0.33 -0.09 m -21,-3.27 0.83,0.46 0.41,0.11 0.4,-0.01 0.29,-0.14 0.23,-0.28 0.17,-0.58 0.02,-0.32 m 4.9,2.95 0.09,0.52 0.23,0.39 0.38,0.3 0.43,0.16 0.55,0.06 m -8.93,-3.62 -0.18,-0.13 m -0.01,-0.01 -0.34,-0.34 -0.08,-0.13 m 0,0.01 -0.1,-0.27 -0.01,-0.26 0.07,-0.2 0.1,-0.11 m -0.01,-0.01 0.13,-0.11 0.22,-0.27 -0.03,-0.16 -0.12,-0.09 m 8.74,2 1.24,0.78 1.61,0.61 3.89,0.85 m -3.13,0.22 h -0.03 l -0.35,0.09 -0.13,0.23 m 0,0 0.01,0.2 m 0,0 v 0.15 l -0.08,0.15 -0.14,0.14 -0.28,0.15 -0.49,0.12 -0.32,0.02 m -1.24,0 h 1.25 m -8.44,-5.71 -1.21,-0.34 -1.45,-0.59 -1.73,-0.8 -0.28,-0.14 m 5.26,2.15 v 0.23 l 0.01,0.38 v 0.21 m 0,0.01 v 0.2 m 4.9,2.96 v -1.06 m 0,0 0.05,-0.66 0.06,-0.32 0.08,-0.31 0.05,-0.18 0.03,-0.13 m 0.01,-0.19 -0.01,0.18 m -3.53,-8.21 0.02,0.11 0.15,0.18 0.27,0.13 0.35,0.07 0.37,-0.01 0.34,-0.08 0.25,-0.14 0.13,-0.18 0.01,-0.08 m -1.89,-0.74 -0.05,0.02 -0.45,0.26 m 0,-0.01 -0.23,0.33 0.02,0.35 0.28,0.32 0.49,0.24 0.62,0.12 0.66,-0.01 0.6,-0.14 0.45,-0.26 0.23,-0.33 -0.02,-0.35 -0.28,-0.32 -0.43,-0.22 m -108.68,-123.039998 -0.01,-0.19 0.1,-0.65 0.31,-0.58 0.12,-0.14 m 14.8,12.6 0.2,1.32 m -8.89,-13.5 0.62,0.2 m -0.62,-0.2 -0.25,-0.14 -0.01,-0.07 0.04,-0.02 m 0.84,0.43 0.34,0.01 0.25,-0.12 m 5,19.07 v 0 l 0.17,-0.06 0.39,-0.12 0.55,-0.18 0.63,-0.2 0.61,-0.2 0.5,-0.16 0.31,-0.1 0.08,-0.03 m -0.01,-29.5 -0.04,-0.01 -0.26,-0.08 -0.46,-0.15 m 0,-0.01 -0.59,-0.19 -0.63,-0.21 -0.57,-0.19 -0.43,-0.14 -0.22,-0.07 -0.02,-0.01 m -0.84,19.2 0.39,1.19 m 1.28,0.94 -0.18,0.07 m -0.65,-4.25 -0.47,0.25 -0.3,0.34 -0.17,0.45 -0.02,0.46 0.11,0.54 m 3.37,-1.67 -0.36,1.42 -0.08,1.72 0.39,3.97 m -1.18,-2.92 -0.01,-0.03 -0.2,-0.31 -0.26,-0.05 m -0.18,0.08 -0.14,0.04 -0.17,-0.03 -0.17,-0.09 -0.23,-0.22 -0.26,-0.43 -0.12,-0.3 m 0.3,-10.8 -0.18,0.93 0.02,0.43 0.14,0.38 0.22,0.23 0.34,0.13 0.61,-0.01 0.31,-0.08 m -1.46,-2.01 0.07,-0.22 m 0,0.01 0.21,-0.43 0.1,-0.12 m 0,0 0.22,-0.18 0.25,-0.1 h 0.21 l 0.14,0.06 m 0,0 0.14,0.09 0.32,0.13 0.14,-0.08 0.05,-0.14 m 0.67,2.15 -0.06,-1.4 0.12,-1.56 0.23,-1.89 0.04,-0.31 m -0.42,5.67 -0.22,0.08 -0.36,0.13 -0.2,0.07 m 0,-0.01 -0.19,0.06 m -1.31,5.57 1.01,-0.33 m 0,0 0.65,-0.15 0.32,-0.04 0.32,-0.02 0.19,-0.01 0.14,-0.01 m 0.11,-0.03 -0.11,0.03 m 6.71,-5.9 -0.1,0.06 -0.12,0.2 -0.04,0.3 0.04,0.35 0.12,0.35 0.18,0.29 0.21,0.2 0.21,0.07 0.08,-0.01 m 0.13,-2.04 -0.03,-0.04 -0.38,-0.35 m 0,0 -0.38,-0.12 -0.32,0.13 -0.22,0.36 -0.08,0.54 0.08,0.63 0.22,0.63 0.32,0.53 0.38,0.35 0.38,0.12 0.32,-0.13 0.22,-0.36 0.08,-0.48 m 213.05,-16.77 0.15,0.28 0.08,0.54 -0.08,0.63 -0.22,0.63 -0.32,0.53 -0.38,0.35 -0.22,0.1 m -3.28,-16.19 v -0.06 l -0.13,-0.45 -0.33,-0.48 -0.49,-0.44 -0.57,-0.33 -0.56,-0.17 -0.47,0.02 -0.05,0.02 m -11.02,16.54 -0.11,-0.7 -0.14,-0.7 -0.18,-0.69 -0.2,-0.68 -0.23,-0.67 -0.26,-0.66 -0.29,-0.65 -0.32,-0.63 m 4.39,-3.23 0.29,0.16 0.48,0.11 0.47,-0.05 0.37,-0.19 0.33,-0.34 m 2.63,8.05 -0.53,-0.07 -0.44,0.1 -0.4,0.27 -0.29,0.36 -0.12,0.26 m 4.3,-7.72 -0.38,0.75 -0.07,0.41 0.04,0.44 0.16,0.35 0.28,0.33 0.57,0.37 0.3,0.12 m -9.63,2.64 0.09,-0.57 -0.11,-0.57 -0.27,-0.45 -0.33,-0.3 m -10.28,-8.22 0.01,-0.02 0.14,-0.19 m 0,0 0.27,-0.37 0.36,-0.49 0.39,-0.54 0.36,-0.5 0.29,-0.39 0.16,-0.22 0.03,-0.04 m 5.4,25.57 0.12,0.04 0.35,0.11 0.52,0.17 0.62,0.2 0.62,0.2 0.52,0.17 0.35,0.11 0.12,0.04 m 4.62,-21.92 0.1,-0.08 0.07,-0.01 0.03,0.05 -0.03,0.16 -0.15,0.32 -0.15,0.22 m -0.01,0 -0.62,0.86 m 5.14,1.25 0.11,-0.16 m 0.01,0 0.22,-0.29 0.06,-0.07 m -0.01,0 0.05,-0.07 m 1.17,3.57 -0.09,-0.02 -0.24,-0.07 -0.18,-0.06 m 0,0 -0.19,-0.06 m -3.43,4.03 1.01,0.33 m 0,0 0.5,0.22 0.14,0.11 0.04,0.09 -0.05,0.03 -0.13,-0.01 m -3.4,0.39 0.06,-0.17 m -4.68,-1.46 0.3,-0.92 m -0.3,0.92 -0.29,0.73 -0.15,0.29 -0.16,0.23 -0.07,0.08 -0.04,0.02 -0.01,-0.01 m -1.75,-5.37 0.01,-0.02 0.08,0.01 0.12,0.04 0.25,0.1 0.46,0.25 0.44,0.29 m 0.8,0.56 -0.79,-0.57 m 2.93,-3.95 -0.15,-0.1 m -12.66,93.869998 0.06,-0.02 0.39,-0.26 0.35,-0.46 0.27,-0.6 0.14,-0.64 -0.01,-0.58 -0.16,-0.44 -0.03,-0.05 m -12.18,11.17 -0.22,0.23 -0.49,0.24 -0.62,0.12 -0.66,-0.01 -0.6,-0.14 -0.45,-0.26 -0.16,-0.18 m 6.53,-9.64 -0.83,-0.13 -0.41,0.06 -0.4,0.18 -0.29,0.26 -0.23,0.37 -0.17,0.65 -0.02,0.33 m 0.01,0.73 v -0.09 l -0.01,-0.26 v -0.19 m 0,0 v -0.2 m -4.9,-2.01 v 1.06 m 0,0 -0.05,0.55 -0.06,0.17 -0.08,0.07 -0.05,-0.04 -0.03,-0.12 m 0.27,-1.69 -0.09,-0.52 -0.23,-0.39 -0.38,-0.3 -0.43,-0.16 -0.28,-0.03 m 0.82,-4.94 0.57,-0.09 0.51,-0.28 0.34,-0.4 0.18,-0.4 m 4.95,0.77 -0.06,0.33 0.05,0.49 0.2,0.43 0.29,0.29 0.42,0.21 m -9.92,-1.62 0.63,-0.32 0.62,-0.35 0.6,-0.38 0.58,-0.4 0.57,-0.43 0.55,-0.45 0.53,-0.48 0.5,-0.5 m -15.27,4.19 v 0.13 0.37 0.55 0.65 0.65 0.55 0.37 0.13 m 19.41,-17.499998 0.02,0.01 0.22,0.07 m 0,0 0.43,0.14 0.57,0.19 0.63,0.21 0.59,0.19 0.46,0.15 0.26,0.09 0.04,0.01 m -0.35,14.039998 0.1,0.07 0.03,0.06 -0.04,0.04 -0.16,0.02 -0.35,-0.05 -0.25,-0.07 m 0,0 -1.01,-0.33 m 0.4,5.29 0.18,0.06 m 0.01,0 0.34,0.12 0.08,0.03 m 0,0 0.08,0.03 m -6.43,-10.47 0.03,0.01 0.02,0.08 0.01,0.13 -0.02,0.27 -0.09,0.51 -0.14,0.51 m -0.31,0.92 0.3,-0.92 m 4.65,1.57 0.05,-0.17 m -7.7,5.58 0.18,0.01 m -0.05,-4.91 h 0.97 m -0.97,0 -0.78,-0.05 -0.33,-0.06 -0.27,-0.08 -0.1,-0.05 -0.03,-0.04 0.01,-0.01 m -95.28,8.44 -0.28,-0.14 -0.38,-0.39 -0.31,-0.55 -0.19,-0.64 -0.05,-0.62 0.1,-0.51 0.12,-0.21 m 12.16,11.18 0.04,0.05 0.37,0.29 0.55,0.19 0.65,0.07 0.65,-0.07 0.55,-0.19 0.37,-0.29 0.03,-0.05 m 1.82,-17.72 -0.46,-0.27 -2.15,-1.89 m -3.4,11.96 -0.14,-0.83 -0.18,-0.38 -0.29,-0.33 -0.33,-0.19 -0.43,-0.1 -0.67,0.04 -0.32,0.08 m 0.41,-5.28 0.47,-0.25 0.3,-0.34 0.17,-0.45 0.02,-0.46 -0.06,-0.28 m -2,7.3 0.08,-0.03 0.24,-0.09 0.18,-0.06 m 0,0 0.19,-0.06 m 0.41,-5.28 -1.01,0.33 m 0,-0.01 -0.54,0.12 -0.18,-0.01 -0.09,-0.05 0.02,-0.06 0.11,-0.07 m 8.82,6.4 -0.03,0.12 -0.05,0.05 -0.05,-0.03 -0.07,-0.14 -0.06,-0.35 -0.01,-0.26 m -0.01,0 v -1.06 m -4.9,2.01 v 0.19 m 0,0 -0.01,0.36 v 0.09 m 0,0 v 0.08 m 3.4,-12.66 0.5,0.5 0.52,0.48 0.55,0.45 0.57,0.43 0.58,0.4 0.6,0.38 0.62,0.35 0.63,0.32 m -1.66,5.22 -0.33,0.04 -0.46,0.2 -0.35,0.32 -0.19,0.37 -0.07,0.47 m -5.66,-19.829998 -0.12,0.04 -0.35,0.11 -0.52,0.17 -0.62,0.2 -0.62,0.2 -0.52,0.17 -0.35,0.11 -0.12,0.04 m 2.87,11.759998 0.05,0.17 m 4.65,-1.57 0.3,0.92 m -0.3,-0.92 -0.2,-0.76 -0.05,-0.33 -0.01,-0.28 0.01,-0.11 0.02,-0.04 0.01,0.01 m 0.02,0.01 0.01,0.01 m 0.49,2.42 0.26,0.51 0.42,0.4 0.48,0.2 0.44,0.05 m 13.16,0.61 v 0.02 0.23 m 0,0.01 v 0.45 0.6 0.66 0.62 0.48 0.28 0.05 m -10.69,-4.28 v 0.03 l -0.07,0.04 -0.12,0.05 -0.27,0.07 -0.51,0.07 -0.53,0.02 m -0.97,-0.01 h 0.97 m -0.05,4.91 0.18,-0.01 m 46.84,-150.050002 0.32,-0.05 0.53,0.09 0.58,0.27 0.53,0.4 0.4,0.47 0.22,0.47 0.03,0.24 m -16.42,-1.89 -0.06,-0.02 -0.47,-0.02 -0.56,0.17 -0.57,0.33 -0.49,0.44 -0.33,0.48 -0.13,0.45 v 0.06 m 8.06,3.95 0.6,0.59 0.37,0.2 0.43,0.09 0.38,-0.04 0.4,-0.17 0.52,-0.42 0.21,-0.25 m -6.9,3.31 -0.04,-0.11 0.01,-0.07 0.06,-0.01 0.14,0.07 0.25,0.24 0.16,0.21 m 0,0.01 0.62,0.86 m 2.79,-4.51 -0.11,-0.16 m -0.01,0 -0.21,-0.3 -0.05,-0.08 m 0.01,0.01 -0.05,-0.07 m -2.67,7.06 0.24,-0.23 0.26,-0.43 0.09,-0.46 -0.06,-0.41 -0.22,-0.42 m 1.4,7.160004 2.82,-0.27 2.85,0.26 m -1.85,-1.680004 -0.51,-0.26 -0.57,-0.07 -0.51,0.12 -0.39,0.22 m 5.23,-5.48 -0.23,0.48 -0.04,0.45 0.13,0.46 0.25,0.38 0.21,0.19 m -1.73,5.180004 -0.7,-0.11 -0.71,-0.08 -0.71,-0.05 -0.71,-0.02 -0.71,0.02 -0.71,0.05 -0.7,0.08 -0.7,0.11 m -9.17,5.57 -0.01,-0.02 -0.14,-0.19 m 0,0 -0.27,-0.37 -0.35,-0.49 -0.39,-0.54 -0.37,-0.5 -0.29,-0.39 -0.16,-0.22 -0.03,-0.04 m 26,2.76 0.08,-0.11 0.22,-0.3 0.33,-0.45 0.38,-0.53 0.38,-0.53 0.32,-0.45 0.22,-0.3 0.08,-0.11 m -12.12,-15.050004 -0.05,0.08 -0.14,0.21 -0.11,0.16 m -0.01,0 -0.12,0.16 m 2.78,4.51 0.62,-0.86 m 0.01,0 0.37,-0.41 0.15,-0.1 0.1,-0.01 0.02,0.06 -0.05,0.12 m -0.7,3.34 -0.14,-0.11 m -2.84,4.01 -0.79,-0.57 m 0.79,0.57 0.6,0.500004 0.23,0.24 0.17,0.22 0.05,0.1 v 0.05 h -0.01 m 0.01,-0.01 h -0.02 m -5.61,0 v 0 h -0.02 m 0,0 -0.02,-0.02 0.03,-0.07 0.07,-0.11 0.18,-0.21 0.38,-0.360004 0.42,-0.33 m 0.78,-0.57 -0.79,0.57 m -2.84,-4.01 -0.14,0.11 m 49.53,-70.43 -0.56,-0.17 -0.66,0.02 -0.43,0.14 m -1.79,7.14 0.02,-0.01 0.19,-0.23 0.07,-0.29 m -0.14,-0.94 v 0 l 0.07,-0.01 0.06,0.15 0.01,0.15 m 0.01,0.65 v -0.66 m -13.75,5.47 v 0 -0.18 m 0,0 v -0.41 -0.58 -0.66 -0.64 -0.52 -0.33 -0.09 m 30.06,9.77 -0.03,0.04 -0.16,0.22 -0.29,0.39 -0.36,0.5 -0.39,0.54 -0.36,0.49 -0.27,0.37 -0.14,0.19 -0.01,0.02 m -9.55,-7.38 -0.54,-0.3 -0.48,-0.11 -0.47,0.06 -0.37,0.19 -0.34,0.34 m 3.21,0.55 -1.01,-0.74 m 1.51,2.27 0.14,-0.17 m -0.14,0.17 -0.01,0.27 0.21,0.25 0.07,0.04 m -0.77,-2.09 0.51,0.5 0.16,0.27 0.07,0.28 -0.02,0.17 -0.09,0.13 m -9.54,-2.4 0.35,-0.71 0.03,-0.35 -0.11,-0.34 -0.23,-0.24 -0.38,-0.2 -0.73,-0.15 -0.38,-0.02 m -4.8,1.48 1.47,0.27 2.34,0.58 1.22,0.47 m 14.09,4.77 -4.05,-1.82 -2,-0.61 -0.86,-0.13 h -0.76 l -1.21,0.32 m -7.02,-3.86 0.21,-0.02 0.1,-0.13 -0.01,-0.27 -0.05,-0.22 m 0.01,0.01 v -0.19 l 0.08,-0.2 0.16,-0.18 0.22,-0.14 0.37,-0.11 0.24,-0.02 m 0,0.01 h 0.24 m 5.74,4.91 0.07,-0.1 m 0,0 0.05,-0.12 0.07,-0.17 0.08,-0.2 0.14,-0.31 0.23,-0.43 0.16,-0.23 m 0,-0.01 0.62,-0.86 m -5.7,-0.48 -0.11,0.16 m -0.01,0 -0.27,0.35 -0.1,0.12 m 0.01,0.01 -0.14,0.18 m -3.15,7.16 -0.14,-0.24 -0.13,-0.45 0.1,-0.35 m -0.01,-0.01 0.31,-0.2 0.47,-0.02 0.56,0.17 0.57,0.33 0.49,0.44 0.33,0.48 0.13,0.45 -0.1,0.35 -0.31,0.2 -0.47,0.02 -0.27,-0.06 m -1.09,-1.72 0.17,-0.11 0.26,-0.01 0.31,0.09 0.32,0.18 0.27,0.24 0.18,0.27 0.07,0.25 -0.05,0.2 m -121.54,103.300004 -0.04,0.05 -0.16,0.44 -0.01,0.58 0.14,0.64 0.27,0.6 0.35,0.46 0.39,0.26 0.05,0.02 m 3.28,-16.18 0.05,-0.32 0.25,-0.48 0.43,-0.46 0.54,-0.38 0.57,-0.24 0.52,-0.06 0.23,0.05 m 11.05,16.57 0.62,-2.77 1.13,-2.62 m -12.43,0.47 0.75,-0.39 0.3,-0.29 0.22,-0.38 0.08,-0.38 -0.03,-0.44 -0.24,-0.63 -0.18,-0.27 m 4.29,7.71 -0.14,-0.3 -0.33,-0.37 -0.41,-0.23 -0.41,-0.07 -0.47,0.08 m -1.64,0.77 -0.04,-0.02 0.01,-0.06 0.11,-0.11 0.31,-0.17 0.25,-0.09 m -0.01,0 1.01,-0.33 m -3.43,-4.03 -0.18,0.06 m 0,0 -0.35,0.1 -0.09,0.02 m 0.01,0.01 -0.08,0.02 m 1.15,-3.57 0.05,0.07 0.16,0.2 0.11,0.15 m 0.01,0 0.12,0.16 m 5.14,-1.24 -0.62,-0.86 m 0,0 -0.28,-0.47 -0.05,-0.17 0.02,-0.1 0.06,0.01 0.1,0.08 m 7.13,5.06 -0.32,0.63 -0.29,0.65 -0.26,0.66 -0.23,0.67 -0.2,0.68 -0.17,0.69 -0.14,0.7 -0.11,0.7 m -4.64,-8.93 0.38,0.37 0.42,0.18 0.48,0.02 0.44,-0.12 0.25,-0.14 m 5.1,19.05 -0.02,0.01 -0.22,0.07 m 0,0 -0.43,0.14 -0.57,0.19 -0.63,0.21 -0.59,0.19 -0.46,0.15 -0.26,0.08 -0.04,0.01 m 0.77,-11.51 v 0 0.02 m -0.01,0 -0.02,0.01 -0.06,-0.05 -0.08,-0.1 -0.15,-0.23 -0.23,-0.47 -0.18,-0.5 m -0.3,-0.92 0.3,0.92 m -4.69,1.46 0.06,0.17 m 4.94,-4.43 -0.41,0.4 -0.25,0.52 -0.04,0.52 0.09,0.44 m 10.9,-10.11 -0.08,-0.1 -0.22,-0.3 -0.32,-0.45 -0.38,-0.53 -0.38,-0.53 -0.32,-0.45 -0.22,-0.3 -0.08,-0.11 m -10.29,6.39 -0.15,0.1 m 2.94,3.94 -0.79,0.57 m 0.79,-0.57 0.66,-0.42 0.3,-0.15 0.26,-0.1 0.11,-0.02 0.05,0.01 v 0.02 m -0.01,0 -0.01,0.02 m 20.47,-120.790004 0.17,-0.07 0.65,-0.11 0.65,0.11 0.18,0.07 m -7.41,17.97 -1.19,0.6 m 10.09,-12.63 v 0.66 m 0,-0.66 0.05,-0.28 0.06,-0.03 0.03,0.03 m -0.14,0.94 0.09,0.32 0.19,0.2 m -16.59,10.65 v 0 l 0.11,0.15 0.24,0.33 0.34,0.47 0.39,0.53 0.38,0.52 0.31,0.42 0.19,0.27 0.05,0.07 m 28.05,-9.12 v -0.05 -0.28 -0.49 m 0,0.01 v -0.62 -0.67 -0.6 -0.45 -0.23 -0.02 m -16.3,5.3 -0.38,-0.37 -0.42,-0.18 -0.48,-0.02 -0.44,0.12 -0.48,0.27 m 9.36,-2.3 -0.95,0.11 -0.4,0.15 -0.32,0.25 -0.15,0.28 -0.02,0.36 0.2,0.57 0.17,0.27 m -5.26,3 -1.46,0.1 -1.66,0.46 -3.65,1.6 m 13.5,-7.15 h 0.23 m 0,0 0.47,0.07 0.14,0.06 m 0.01,-0.01 0.24,0.16 0.17,0.2 0.06,0.2 -0.01,0.15 m -0.01,0.01 -0.04,0.16 -0.02,0.35 0.12,0.11 h 0.15 m -12.61,3.66 0.03,-0.02 0.23,-0.28 -0.04,-0.26 m 0,0 -0.13,-0.15 m 0.01,0 -0.08,-0.12 -0.03,-0.17 0.03,-0.19 0.13,-0.29 0.32,-0.38 0.25,-0.2 m 1.02,-0.74 -1.01,0.74 m 10.17,-0.35 1.18,-0.44 1.52,-0.37 1.87,-0.36 0.31,-0.05 m -5.52,1.34 -0.14,-0.19 -0.23,-0.3 -0.13,-0.17 m 0,0 -0.12,-0.17 m -5.7,0.48 0.62,0.86 m 0,0 0.35,0.57 0.14,0.3 0.12,0.3 0.07,0.17 0.05,0.13 m 0.1,0.15 -0.1,-0.15 m 7.68,4.56 -0.09,-0.08 -0.23,-0.05 -0.3,0.05 -0.32,0.15 -0.29,0.22 -0.22,0.26 -0.12,0.26 v 0.22 l 0.04,0.07 m 1.97,-0.49 0.03,-0.04 0.22,-0.47 m 0,-0.01 v -0.4 l -0.22,-0.27 -0.41,-0.1 -0.53,0.09 -0.58,0.27 -0.53,0.4 -0.4,0.47 -0.22,0.47 v 0.4 l 0.22,0.27 0.41,0.09 0.48,-0.08 m 64.11,-13.14 h -55.75 m 0,1.89 h 55.75 m -78.25,276.750002 -16.52,22.74 m 1.53,1.11 16.53,-22.75 m 76.71,-9.29 h -55.75 m 0,1.89 h 55.75 m 39.02,29.04 -16.52,-22.74 m -1.54,1.11 16.53,22.75 m -167.95,-72.55 45.1,32.77 m 1.11,-1.53 -45.1,-32.77 m 144.47,-17.37 v 46.68 m 1.89,0 v -46.68 m -181.34,39.79 16.52,-22.74 m -1.52,-1.12 -16.53,22.75 m 110.11,-52.14 h 55.75 m 0,-1.89 h -55.75 m 147.81,32.4 16.52,22.74 m 1.53,-1.11 -16.53,-22.75 m -164.45,30.75 v -46.68 m -1.89,0 v 46.68 m 102.37,4.99 45.1,-32.77 m -1.11,-1.53 -45.1,32.77 m -114.31,-60.99 -44.39,14.42 m 0.58,1.8 44.39,-14.42 m 159.68,12.62 -44.4,-14.42 m -0.58,1.79 44.39,14.42 m -220.83,-12.24 -17.23,-53.019998 m -1.79,0.59 17.23,53.019998 m 170.68,-23.099998 17.23,-53.02 m -1.8,-0.58 -17.23,53.02 m -115.02,-52.44 17.23,53.02 m 1.79,-0.58 -17.23,-53.02 m 201.56,23.09 -17.23,53.019998 m 1.8,0.59 17.23,-53.019998 m -267.02,-18.89 44.39,-14.42 m -0.58,-1.81 -44.39,14.42 m 213.98,-12.62 44.39,14.42 m 0.58,-1.79 -44.39,-14.42 m 92.71,6.97 -26.73,8.69 m 0.57,1.8 26.74,-8.69 m -191.93,-55.3 -45.1,32.77 m 1.11,1.52 45.1,-32.77 m 150.56,48.98 -17.23,-53.02 m -1.79,0.59 17.23,53.02 m -215.12,-20.33 -27.44,-37.760004 m -1.53,1.11 27.44,37.760004 m 138.98,0.89 -45.1,-32.77 m -1.12,1.54 45.1,32.77 m -208.6,27.89 -26.73,-8.69 m -0.59,1.8 26.74,8.69 m 257.88,-70.990004 -27.44,37.760004 m 1.53,1.11 27.44,-37.760004 m -228.66,3.370004 -17.23,53.02 m 1.8,0.59 17.23,-53.02 m 128.33,-17.850004 27.44,-37.76 m -1.53,-1.12 -27.44,37.76 m 48.67,-38.05 45.1,32.77 m 1.11,-1.53 -45.1,-32.77 m -208.71,32.21 26.73,8.69 m 0.59,-1.8 -26.74,-8.69 m 275.14,10.48 26.73,-8.69 m -0.58,-1.79 -26.74,8.69 m -225.38,-4.8 45.1,-32.77 m -1.11,-1.53 -45.1,32.77 m 59.59,-51.09 v -28.109998 m -1.89,0 v 28.119998 m 87.88,-28.119998 v 28.109998 m 1.89,0.01 v -28.119998 m -81.56,49.369998 27.44,37.76 m 1.53,-1.11 -27.44,-37.76 m 184.37,125.140004 0.83,-0.36 0.78,-0.63 0.52,-0.71 0.27,-0.71 0.02,-0.22 m -0.49,-1.56 -0.11,-0.12 -0.69,-0.46 -0.88,-0.28 -0.99,-0.04 -0.86,0.2 m -2.26,0.94 -0.53,-0.34 -1.02,-0.85 -0.68,-0.74 m 0.7,8.78 0.16,-0.23 1.04,-1.28 0.04,-0.04 m 2.55,-6.27 -2.49,0.81 m -0.76,5.71 4.86,-1.58 m -12.65,-5.97 v 0.02 l -0.11,0.27 -0.09,0.11 m -0.78,-9.62 -0.07,0.46 -0.04,0.46 -0.01,0.46 0.02,0.46 0.05,0.46 0.07,0.46 0.1,0.45 0.13,0.45 m 4.94,-1.59 -0.16,-0.44 -0.18,-0.43 -0.21,-0.42 -0.24,-0.4 -0.26,-0.39 -0.28,-0.37 -0.3,-0.35 -0.33,-0.33 m 0,31.61 0.33,-0.33 0.3,-0.35 0.28,-0.37 0.26,-0.39 0.24,-0.4 0.21,-0.42 0.18,-0.43 0.16,-0.44 m -4.94,-1.59 -0.13,0.45 -0.1,0.45 -0.07,0.46 -0.05,0.46 -0.02,0.46 0.01,0.46 0.04,0.46 0.07,0.46 m 8.32,-17.79 -3.13,-9.63 m -4.94,1.6 1.24,3.81 m -0.69,2.14 v 0 l -0.28,0.3 -0.13,0.09 m 1.53,10.68 -1.67,5.14 m 4.94,1.6 3.41,-10.49 m -12.93,-3 4.81,1.56 m 0.47,-5.31 -3.67,-1.19 m -4.48,2.95 v 0 l 0.82,0.85 1.04,0.7 1.02,0.42 m 1.59,-4.91 -0.17,-0.07 -1.32,-0.24 -1.22,0.04 -0.77,0.18 m -83.68,147.879998 0.6,0.68 0.84,0.55 0.84,0.28 0.76,0.04 0.21,-0.05 m 1.33,-0.96 0.08,-0.14 0.23,-0.79 -0.01,-0.92 -0.27,-0.95 -0.46,-0.76 m -1.58,-1.87 0.16,-0.61 0.49,-1.23 0.49,-0.88 m -8.13,3.38 0.27,0.08 1.54,0.6 0.05,0.02 m 6.74,0.49 -1.54,-2.12 m -5.66,1.04 3,4.13 m 1.78,-13.87 h -0.02 l -0.29,-0.02 -0.14,-0.05 m -19.15,8.81 0.42,0.21 0.43,0.18 0.44,0.15 0.45,0.13 0.45,0.1 0.46,0.07 0.46,0.04 0.46,0.01 m 0,-5.19 -0.46,0.01 -0.46,0.04 -0.46,0.07 -0.45,0.1 -0.45,0.13 -0.44,0.15 -0.43,0.18 -0.42,0.21 m 19.15,-5.38 v 0 l -0.37,-0.18 -0.12,-0.09 m 9.4,-3.46 -0.46,0.08 -0.45,0.11 -0.45,0.13 -0.44,0.16 -0.43,0.19 -0.41,0.21 -0.4,0.24 -0.38,0.26 m 3.05,4.19 0.37,-0.28 0.35,-0.31 0.33,-0.33 0.31,-0.35 0.29,-0.37 0.26,-0.38 0.24,-0.4 0.21,-0.41 m -10.55,8.79 8.2,-5.96 m -3.06,-4.2 -3.24,2.35 m -12.43,4.5 h -5.4 m 0,5.19 h 11.03 m -1.14,-13.22 v 5.05 m 5.2,-1.19 v -3.86 m -4.19,-3.35 v 0 l -0.55,1.04 -0.35,1.2 -0.08,1.1 m 5.15,0.01 0.01,-0.18 -0.18,-1.33 -0.42,-1.15 -0.41,-0.67 m -166.49,-33.9 -0.46,0.78 -0.26,0.96 v 0.89 l 0.2,0.74 0.11,0.19 m 1.31,0.97 0.16,0.04 0.83,-0.03 0.87,-0.29 0.83,-0.55 0.58,-0.67 m -1.51,-8.54 0.01,0.28 -0.09,1.65 -0.01,0.06 m 2.87,4.46 0.63,-0.03 1.33,0.09 0.98,0.2 m -4.19,1.84 1.54,-2.12 m -2.74,-5.06 -3,4.13 m 13.74,-2.6 -0.01,-0.02 -0.07,-0.28 0.01,-0.15 m -14.3,-15.49 -0.07,0.46 -0.04,0.46 -0.01,0.46 0.02,0.46 0.05,0.46 0.07,0.46 0.1,0.45 0.13,0.45 m 4.95,-1.59 -0.16,-0.44 -0.18,-0.43 -0.21,-0.42 -0.24,-0.4 -0.26,-0.39 -0.28,-0.37 -0.3,-0.35 -0.33,-0.33 m 3.63,8.27 -1.67,-5.14 m -4.95,1.61 3.41,10.49 m 10.62,1.33 v 0 l 0.05,-0.41 0.05,-0.14 m 6.2,7.87 -0.21,-0.41 -0.24,-0.4 -0.26,-0.38 -0.29,-0.37 -0.31,-0.35 -0.33,-0.33 -0.35,-0.31 -0.37,-0.29 m -3.06,4.22 0.38,0.26 0.4,0.24 0.41,0.21 0.43,0.19 0.44,0.16 0.44,0.13 0.45,0.1 0.46,0.08 m -11.6,-7.33 8.2,5.95 m 3.05,-4.2 -3.24,-2.35 m 0.91,-8.64 -4.81,1.56 m 2.74,4.57 3.67,-1.19 m 1.89,-5.02 v 0 l -1.16,-0.2 -1.25,0.04 -1.07,0.26 m 1.59,4.91 0.18,-0.04 1.2,-0.58 0.96,-0.75 0.51,-0.6 m -19.2,-168.830002 -0.89,-0.2 -1,0.05 -0.84,0.27 -0.64,0.42 -0.14,0.17 m -0.52,1.54 0.01,0.16 0.28,0.78 0.54,0.74 0.78,0.62 0.82,0.34 m 2.39,0.57 0.22,0.59 0.33,1.29 0.12,0.99 m 4.6,-7.51 -0.27,0.1 -1.6,0.42 -0.05,0.01 m -5.74,3.57 2.49,0.81 m 3.97,-4.18 -4.86,-1.58 m 6.72,12.27 0.02,-0.02 0.25,-0.15 0.14,-0.04 m -5.03,8.250004 0.33,-0.33 0.3,-0.35 0.28,-0.37 0.26,-0.39 0.24,-0.4 0.21,-0.42 0.18,-0.430004 0.16,-0.44 m -4.95,-1.6 -0.13,0.45 -0.1,0.45 -0.07,0.46 -0.05,0.46 -0.02,0.46 0.01,0.460004 0.04,0.46 0.07,0.46 m 8.25,-7.190004 v 0 l 0.41,-0.07 0.15,0.01 m 9.77,-18.3 -0.46,0.08 -0.45,0.11 -0.44,0.13 -0.44,0.16 -0.43,0.19 -0.41,0.21 -0.4,0.24 -0.38,0.26 m 3.05,4.2 0.37,-0.29 0.35,-0.31 0.33,-0.33 0.31,-0.35 0.29,-0.37 0.26,-0.38 0.24,-0.4 0.21,-0.41 m -17.19,9.52 -3.13,9.64 m 4.94,1.6 1.24,-3.8 m 7.41,-10.95 4.37,-3.17 m -3.06,-4.21 -8.93,6.49 m 8.7,10.03 -2.97,-4.09 m -3.5,4.01 2.27,3.12 m 5.36,0.25 v 0 l -0.17,-1.17 -0.42,-1.18 -0.58,-0.94 m -4.18,3.04 0.1,0.15 0.93,0.96 1.01,0.68 0.73,0.31 m 230.18,-11.78 0.92,-0.43 0.75,-0.64 0.49,-0.72 0.25,-0.71 0.01,-0.15 m -0.5,-1.55 -0.21,-0.22 -0.72,-0.43 -0.9,-0.24 -1,0.01 -0.69,0.16 m -1.46,8.35 0.07,-0.75 0.3,-1.32 0.29,-0.8 m -3.34,-4.13 -0.54,-0.12 -1.39,-0.41 m 1.2,0.75 v 0 h -0.12 l -0.11,-0.04 m 4.21,4.21 2.49,-0.81 m -1.6,-4.94 -4.86,1.58 m -2.18,10.49 0.02,0.01 0.28,0.13 0.18,0.14 m 2.5,4.83 0.16,0.44 0.18,0.430004 0.21,0.42 0.23,0.4 0.26,0.39 0.28,0.37 0.3,0.35 0.33,0.33 m 3.24,-1.06 0.07,-0.46 0.04,-0.46 0.01,-0.460004 -0.02,-0.46 -0.05,-0.46 -0.07,-0.46 -0.1,-0.45 -0.13,-0.45 m -14.9,-20.54 -0.38,-0.26 -0.4,-0.24 -0.41,-0.21 -0.44,-0.19 -0.44,-0.16 -0.45,-0.13 -0.45,-0.11 -0.46,-0.08 m -1.99,2.76 0.22,0.41 0.24,0.4 0.26,0.38 0.29,0.37 0.31,0.35 0.33,0.33 0.35,0.31 0.37,0.29 m 17.95,16.3 -3.13,-9.64 m -3.06,7.38 1.26,3.87 m -7.15,-10.61 0.01,0.07 0.02,0.14 0.02,0.2 0.02,0.26 0.01,0.31 v 0.33 m 3.45,4.1 0.42,0.03 0.19,0.06 m -10.02,-12.81 4.4,3.2 m 7.58,-0.92 -8.92,-6.49 m 3.16,12.47 -2.93,4.04 m 4.2,3.06 2.26,-3.11 m -5.04,5.23 v 0 l 1.06,-0.52 0.99,-0.77 0.71,-0.84 m -4.17,-3.04 -0.12,0.14 -0.63,1.18 -0.34,1.17 -0.06,0.78 m 11.25,163.640002 0.7,0.74 0.84,0.52 0.84,0.25 0.75,0.02 0.15,-0.04 m 1.31,-0.96 0.14,-0.26 0.19,-0.82 -0.05,-0.93 -0.31,-0.95 -0.36,-0.61 m -2.58,-3.52 -0.05,-0.55 -0.04,-1.44 m -5.74,6.7 0.74,-0.16 1.35,-0.12 0.86,0.03 m 2.45,-5.09 v 0 l -0.04,-0.11 v -0.11 m -2.7,5.3 1.54,2.12 m 4.21,-3.06 -3,-4.13 m -10.66,1.16 v 0.02 l -0.04,0.3 -0.08,0.22 m -3.82,3.88 -0.37,0.29 -0.35,0.31 -0.33,0.33 -0.31,0.35 -0.29,0.37 -0.26,0.38 -0.24,0.4 -0.22,0.41 m 2.01,2.74 0.46,-0.08 0.45,-0.1 0.45,-0.13 0.44,-0.16 0.43,-0.19 0.41,-0.21 0.4,-0.24 0.38,-0.26 m 14.9,-20.52 0.13,-0.45 0.1,-0.45 0.07,-0.46 0.05,-0.46 0.02,-0.46 -0.01,-0.46 -0.04,-0.46 -0.07,-0.46 m -3.23,-1.07 -0.33,0.33 -0.3,0.35 -0.28,0.37 -0.26,0.39 -0.23,0.4 -0.21,0.42 -0.18,0.43 -0.16,0.44 m -9.2,12.87 0.1,0.41 v 0.2 m 9.09,-13.49 -1.68,5.17 m 3.22,6.93 3.41,-10.49 m -14.91,20.52 8.2,-5.95 m -7.97,-0.65 -3.29,2.39 m 7.08,-9.45 -4.75,-1.54 m -1.6,4.94 3.66,1.19 m -6.54,-3.18 v 0 l 0.82,0.85 1.04,0.7 1.02,0.42 m 1.6,-4.91 -0.17,-0.07 -1.32,-0.24 -1.22,0.04 -0.76,0.18 m -152.15,61.28 -0.49,0.89 -0.23,0.96 0.02,0.87 0.22,0.72 0.09,0.13 m 1.31,0.96 0.3,0.06 0.84,-0.07 0.87,-0.34 0.81,-0.59 0.47,-0.54 m -3.75,-7.63 0.38,0.65 0.53,1.25 0.23,0.82 m 5.14,1.37 0.51,-0.22 1.36,-0.48 m -1.4,0.1 v 0 l 0.1,-0.07 0.11,-0.03 m -5.89,-0.94 -1.54,2.12 m 4.21,3.05 3,-4.13 m -4.4,-9.77 -0.02,0.01 -0.3,0.06 -0.23,-0.01 m -4.87,-2.44 -0.38,-0.26 -0.4,-0.24 -0.41,-0.21 -0.43,-0.19 -0.44,-0.16 -0.45,-0.13 -0.45,-0.11 -0.46,-0.08 m -2,2.76 0.21,0.41 0.24,0.4 0.26,0.38 0.29,0.37 0.31,0.35 0.33,0.33 0.35,0.31 0.37,0.28 m 24.13,7.83 0.46,-0.01 0.46,-0.04 0.46,-0.07 0.45,-0.1 0.45,-0.13 0.44,-0.15 0.43,-0.18 0.42,-0.21 m 0,-3.41 -0.42,-0.21 -0.43,-0.18 -0.44,-0.15 -0.45,-0.13 -0.45,-0.1 -0.46,-0.07 -0.46,-0.04 -0.46,-0.01 m -15.09,-4.77 -0.36,0.22 -0.19,0.06 m -8.48,1.84 8.2,5.96 m -1.86,-7.77 -3.29,-2.39 m 12.02,4.39 -0.05,-0.05 -0.1,-0.1 -0.14,-0.15 -0.17,-0.2 -0.19,-0.24 -0.19,-0.27 m 9.89,3.47 h -5.44 m -5.59,5.19 h 11.03 m -9.89,-8.23 v -4.99 m -5.2,0 v 3.85 m 1,-7.2 v 0 l -0.56,1.04 -0.35,1.2 -0.08,1.1 m 5.17,0.01 0.01,-0.18 -0.18,-1.33 -0.42,-1.15 -0.41,-0.67 m -105.28,-125.759998 -1,-0.2 -0.99,0.08 -0.82,0.29 -0.61,0.43 -0.1,0.12 m -0.5,1.55 0.04,0.3 0.33,0.78 0.59,0.73 0.81,0.58 0.65,0.28 m 4.15,1.31 0.37,0.42 0.88,1.15 m 0.7,-8.8 -0.5,0.57 -1.02,0.89 -0.71,0.48 m 1,5.55 v 0 l 0.1,0.07 0.06,0.09 m -0.93,-5.87 -2.49,-0.81 m -1.61,4.94 4.86,1.58 m 7.93,-7.2 -0.01,-0.01 -0.15,-0.27 -0.06,-0.23 m -4.13,18.37 0.16,0.44 0.18,0.43 0.21,0.42 0.24,0.4 0.26,0.39 0.28,0.37 0.3,0.35 0.33,0.33 m 3.23,-1.06 0.07,-0.46 0.04,-0.46 0.01,-0.46 -0.02,-0.46 -0.05,-0.46 -0.07,-0.46 -0.1,-0.45 -0.13,-0.45 m 0,-0.01 -1.68,-5.17 m -6.67,-3.72 3.41,10.49 m 4.94,-23.76 0.13,-0.45 0.1,-0.45 0.07,-0.46 0.05,-0.46 0.02,-0.46 -0.01,-0.46 -0.04,-0.46 -0.07,-0.46 m -3.23,-1.06 -0.33,0.33 -0.3,0.35 -0.28,0.37 -0.26,0.39 -0.24,0.4 -0.21,0.42 -0.18,0.43 -0.16,0.44 m 4.81,7.92 -0.32,-0.27 -0.12,-0.16 m 0.11,6.89 0.03,-0.06 0.06,-0.12 0.1,-0.18 0.14,-0.22 0.17,-0.26 0.2,-0.27 m -5.18,-13.28 -3.13,9.63 m 6.82,-4.16 1.26,-3.87 m -0.24,11.83 4.81,-1.56 m -1.61,-4.94 -3.66,1.19 m 7.16,-1.28 v 0 l -1.17,-0.2 -1.25,0.04 -1.07,0.26 m 1.59,4.91 0.18,-0.04 1.2,-0.58 0.96,-0.75 0.51,-0.6 m 205.64,-24.11 -0.01,-0.16 m 3.2,9.71 0.17,0.07 1.32,0.23 1.22,-0.04 0.77,-0.18 m 0.99,-3.02 -0.82,-0.84 -1.04,-0.7 -1.02,-0.42 m -2.56,-7.92 0.12,-0.14 0.63,-1.18 0.34,-1.17 0.07,-0.79 m -2.59,-1.88 -1.05,0.51 -0.99,0.77 -0.71,0.84 m 3.13,9.75 -0.13,-0.19 -0.55,-1.08 -0.14,-0.46 m -0.02,-0.01 -0.07,-0.2 -0.24,-1.21 -0.01,-0.29 m -5.59,10.59 0.44,-0.41 1.38,-1.03 1.48,-0.78 0.96,-0.35 m -3.39,-10.44 -0.79,0.24 -1.66,0.28 -1.73,0.01 -0.78,-0.09 m 2.14,1.53 -0.13,-0.08 m 2.85,8.75 v -0.01 l 0.06,-0.12 m -15.36,-12.34 0.21,0.41 0.24,0.4 0.26,0.38 0.29,0.37 0.31,0.35 0.33,0.33 0.35,0.31 0.37,0.29 m 3.06,-4.22 -0.38,-0.26 -0.4,-0.24 -0.41,-0.21 -0.43,-0.19 -0.44,-0.16 -0.45,-0.13 -0.45,-0.11 -0.46,-0.08 m 5.67,21.9 -0.13,0.45 -0.1,0.45 -0.07,0.46 -0.05,0.46 -0.02,0.46 0.01,0.46 0.04,0.46 0.07,0.46 m 3.23,1.06 0.33,-0.33 0.3,-0.35 0.28,-0.37 0.26,-0.39 0.24,-0.4 0.21,-0.42 0.18,-0.43 0.16,-0.44 m 5.53,-22.79 -2.97,4.09 m 4.9,2.09 2.27,-3.12 m -3.79,11.27 4.75,1.54 m 1.6,-4.94 -3.66,-1.19 m -8.63,13.06 2.68,-8.25 m -5.42,-0.14 -2.2,6.79 m 4.76,-15.43 -7.02,-5.1 m -3.05,4.21 5.77,4.19 m -15.77,89.259998 0.15,-0.06 m 3.64,1.16 0.17,0.07 1.32,0.23 1.22,-0.04 0.77,-0.18 m 0.98,-3.03 -0.81,-0.84 -1.04,-0.7 -1.02,-0.42 m -13.48,9.8 -0.01,0.18 0.18,1.32 0.42,1.15 0.41,0.68 m 3.18,0.01 0.55,-1.04 0.35,-1.2 0.08,-1.1 m 0.03,-3.81 0.14,-0.18 0.86,-0.86 0.4,-0.28 m -0.01,-0.02 0.17,-0.13 1.08,-0.6 0.27,-0.1 m 0.84,-5.23 -0.47,-0.68 -0.78,-1.49 -0.54,-1.64 -0.15,-0.77 m -10.7,7.76 0.53,0.29 1.4,1 1.2,1.17 0.63,0.81 m -0.08,-0.23 v 4.99 m 5.2,0 v -3.85 m -6.39,-4.18 h 0.01 l 0.14,0.02 m 7.26,-5.28 0.04,-0.15 m -16.15,0.22 -0.46,0.01 -0.46,0.04 -0.46,0.07 -0.45,0.1 -0.45,0.13 -0.44,0.15 -0.43,0.18 -0.42,0.21 m 0,3.4 0.42,0.21 0.43,0.18 0.44,0.15 0.45,0.13 0.45,0.1 0.46,0.07 0.46,0.04 0.46,0.01 m 15.84,-18.389998 -0.33,0.33 -0.3,0.35 -0.28,0.37 -0.26,0.39 -0.23,0.4 -0.21,0.42 -0.18,0.43 -0.16,0.44 m 4.93,1.6 0.13,-0.45 0.1,-0.45 0.08,-0.46 0.05,-0.46 0.02,-0.46 -0.01,-0.46 -0.04,-0.46 -0.07,-0.46 m 4.32,15.549998 -4.81,-1.56 m -0.47,5.3 3.67,1.19 m -5.65,-8.57 2.68,-8.249998 m -4.94,-1.61 -2.21,6.789998 m -11.67,8.49 h 8.67 m -1.53,-5.19 h -7.14 m -86.28,3.42 -0.18,0.04 -1.2,0.58 -0.96,0.75 -0.52,0.6 m 0.97,3.04 1.16,0.2 1.25,-0.04 1.07,-0.26 m 6.6,0.95 0.1,0.12 m 0.03,3.82 -0.01,0.18 0.18,1.32 0.42,1.15 0.41,0.67 m 3.18,0.01 0.55,-1.03 0.35,-1.2 0.08,-1.1 m -6.56,-5.13 0.18,0.12 0.91,0.84 0.18,0.23 m -2.97,-2.1 0.22,0.08 1.08,0.56 0.39,0.29 m -0.43,-10.69 -0.11,0.59 -0.52,1.64 -0.74,1.5 -0.57,0.85 m 8.88,6.46 0.5,-0.66 1.18,-1.2 1.39,-1.03 0.69,-0.39 m -9.93,-5.39 v 0.01 l 0.03,0.13 m -2.48,1.91 -4.81,1.56 m 1.61,4.95 3.66,-1.19 m 8.24,6.06 v -5.05 m -5.2,1.19 v 3.86 m 6.24,-8.01 0.16,-0.01 m -5.19,-15.289998 -0.16,-0.44 -0.18,-0.43 -0.21,-0.42 -0.23,-0.4 -0.26,-0.39 -0.28,-0.37 -0.31,-0.35 -0.32,-0.33 m -3.24,1.06 -0.07,0.46 -0.04,0.46 -0.01,0.46 0.02,0.46 0.04,0.46 0.08,0.46 0.1,0.45 0.13,0.45 m 0,0.02 2.68,8.249998 m 4.46,-3.07 -2.21,-6.789998 m 17.46,10.979998 -0.42,-0.21 -0.43,-0.18 -0.44,-0.15 -0.45,-0.13 -0.45,-0.1 -0.46,-0.07 -0.46,-0.04 -0.46,-0.01 m 0,5.19 0.46,-0.01 0.46,-0.04 0.46,-0.07 0.45,-0.1 0.45,-0.13 0.44,-0.15 0.43,-0.18 0.42,-0.21 m -12.24,0.89 h 8.67 m 0,-5.19 h -7.13 m 36.84,-139.630002 -0.15,-0.04 m 10.22,-0.04 0.12,-0.14 0.63,-1.18 0.34,-1.17 0.07,-0.79 m -2.58,-1.88 -1.05,0.51 -0.99,0.77 -0.71,0.84 m -8.32,0.01 -0.1,-0.15 -0.93,-0.96 -1.01,-0.68 -0.73,-0.3 m -2.58,1.85 0.16,1.15 0.42,1.18 0.58,0.94 m 8.33,0.3 h -0.22 l -1.23,-0.14 -0.28,-0.08 m 3.64,-0.04 -0.22,0.06 -1.2,0.19 -0.48,-0.01 m 6.61,8.39 -0.26,-0.55 -0.55,-1.63 -0.28,-1.65 -0.03,-1.02 m -10.98,0 -0.02,0.83 -0.25,1.66 -0.53,1.65 -0.33,0.72 m -1.72,-8.67 2.97,4.09 m 3.5,-4.02 -2.27,-3.12 m -0.34,10.15 -0.12,0.1 m 9.2,0 v 0 l -0.11,-0.1 m -16.48,10.790004 0.46,-0.08 0.45,-0.11 0.45,-0.13 0.44,-0.16 0.43,-0.19 0.41,-0.21 0.4,-0.24 0.39,-0.26 m -3.07,-4.2 -0.37,0.28 -0.35,0.31 -0.33,0.33 -0.31,0.35 -0.29,0.36 -0.27,0.38 -0.24,0.4 -0.21,0.41 m 22.58,1.38 0.38,0.26 0.4,0.24 0.41,0.21 0.43,0.19 0.44,0.16 0.45,0.13 0.45,0.11 0.46,0.08 m 2,-2.75 -0.21,-0.41 -0.24,-0.4 -0.26,-0.38 -0.29,-0.36 -0.31,-0.35 -0.33,-0.33 -0.35,-0.31 -0.37,-0.28 m -6.22,-8.280004 2.93,-4.04 m -4.2,-3.05 -2.26,3.11 m 9.75,12.250004 -7.02,-5.100004 m -1.81,5.110004 5.77,4.19 m -13.19,-9.300004 -7.02,5.100004 m 3.06,4.2 5.77,-4.19 m 49.32,-72.290004 -0.08,-0.9 -0.35,-0.93 -0.52,-0.72 -0.59,-0.48 -0.2,-0.08 m -1.65,-0.03 -0.15,0.06 -0.65,0.51 -0.54,0.75 -0.35,0.93 -0.07,0.88 m 6.24,6.03 -0.17,-0.23 -0.89,-1.39 -0.03,-0.05 m -4.95,-1.91 -0.49,0.4 -1.12,0.71 -0.91,0.42 m 2.29,-3.97 v 2.62 m 5.2,2.49 v -5.11 m -9.59,10.18 0.02,0.01 0.22,0.19 0.08,0.12 m 0.01,-0.02 v 0 l 0.2,0.36 0.04,0.15 m -9.64,-2.72 0.42,0.21 0.43,0.18 0.44,0.15 0.45,0.13 0.45,0.1 0.46,0.07 0.46,0.04 0.46,0.02 m 0,-5.2 -0.46,0.01 -0.46,0.04 -0.46,0.07 -0.45,0.1 -0.45,0.13 -0.44,0.15 -0.43,0.18 -0.42,0.21 m 30.06,9.77 -0.21,-0.41 -0.24,-0.4 -0.26,-0.38 -0.29,-0.37 -0.31,-0.35 -0.33,-0.33 -0.35,-0.31 -0.37,-0.29 m -3.06,4.22 0.38,0.26 0.4,0.24 0.41,0.21 0.43,0.19 0.44,0.16 0.45,0.13 0.45,0.11 0.46,0.08 m -7.79,-4.55 4.37,3.17 m 3.05,-4.21 -8.92,-6.48 m -5.07,-1.35 h -10.13 m 0,5.19 h 4 m 4.35,7.53 2.97,-4.09 m -4.91,-2.09 -2.27,3.12 m 1.43,5.18 v 0 l 1.06,-0.52 0.99,-0.77 0.71,-0.84 m -4.17,-3.04 -0.12,0.14 -0.63,1.18 -0.34,1.17 -0.07,0.79 m -116.44,102.600004 -0.18,0.04 -1.2,0.58 -0.96,0.75 -0.52,0.6 m 0.98,3.04 1.15,0.2 1.25,-0.04 1.07,-0.26 m 2.12,-6.25 -0.09,0.13 m 3.13,-9.73 -0.1,-0.15 -0.93,-0.96 -1.01,-0.68 -0.73,-0.31 m -2.58,1.85 0.16,1.16 0.43,1.18 0.58,0.94 m 2.22,3.1 -0.01,0.23 -0.19,1.2 -0.16,0.46 m 0.02,0.01 -0.06,0.21 -0.52,1.12 -0.16,0.24 m 2.39,4.72 0.78,0.27 1.5,0.75 1.41,1.01 0.58,0.53 m 4.09,-12.56 -0.6,0.07 -1.72,0.02 -1.66,-0.24 -0.98,-0.28 m 0.04,10.5 0.06,0.14 m -8,1.34 4.81,-1.56 m -2.74,-4.58 -3.67,1.19 m 9.7,-6.89 -2.94,-4.04 m -4.2,3.05 2.26,3.11 m 7.62,-0.37 v 0 l -0.13,0.07 m 5.17,19.01 0.07,-0.46 0.04,-0.46 0.01,-0.46 -0.02,-0.46 -0.05,-0.46 -0.07,-0.46 -0.1,-0.45 -0.13,-0.45 m -4.94,1.59 0.16,0.44 0.18,0.43 0.21,0.42 0.24,0.4 0.26,0.39 0.28,0.37 0.31,0.35 0.33,0.33 m -4.65,-11.38 2.68,8.25 m 4.94,-1.6 -2.2,-6.79 m 7.51,-9.53 0.37,-0.29 0.35,-0.31 0.33,-0.33 0.31,-0.35 0.29,-0.37 0.26,-0.38 0.24,-0.4 0.22,-0.41 m -2.01,-2.74 -0.46,0.08 -0.45,0.11 -0.45,0.13 -0.44,0.16 -0.43,0.19 -0.41,0.21 -0.4,0.24 -0.38,0.26 m 0,0 -7.02,5.1 m 4.3,3.3 5.77,-4.2 m 18.12,-113.450004 -0.13,-1.02 -0.38,-0.91 -0.53,-0.69 -0.6,-0.45 -0.14,-0.06 m -1.62,0 -0.27,0.13 -0.64,0.55 -0.51,0.79 -0.3,0.95 -0.06,0.71 m 7.49,3.97 -0.69,-0.3 -1.16,-0.69 -0.67,-0.53 m -4.96,1.9 -0.28,0.48 -0.82,1.19 m 1.08,-0.91 v 0 l -0.04,0.11 -0.07,0.09 m 5.31,-2.69 v -2.62 m -5.2,0 v 5.11 m 9.3,5.31 0.01,-0.02 0.21,-0.22 0.19,-0.13 m -18.74,1.75 -0.37,0.29 -0.35,0.31 -0.33,0.33 -0.31,0.35 -0.29,0.37 -0.26,0.38 -0.24,0.4 -0.21,0.41 m 1.99,2.74 0.46,-0.08 0.45,-0.11 0.45,-0.13 0.44,-0.16 0.43,-0.19 0.41,-0.21 0.4,-0.24 0.38,-0.26 m 21.07,-6.84 0.46,-0.02 0.46,-0.04 0.46,-0.07 0.45,-0.1 0.45,-0.13 0.44,-0.15 0.43,-0.18 0.42,-0.21 m 0,-3.4 -0.42,-0.21 -0.43,-0.18 -0.44,-0.15 -0.45,-0.13 -0.45,-0.1 -0.46,-0.07 -0.46,-0.04 -0.46,-0.01 m -6.06,7.03 0.16,-0.39 0.12,-0.16 m 5.78,-6.48 h -10.13 m 6.06,5.19 h 4.07 m -21.07,6.85 4.4,-3.2 m 1.47,-7.49 -8.92,6.48 m 12.84,0.85 2.93,4.04 m 4.2,-3.06 -2.26,-3.11 m 3.42,6.41 v 0 l -0.17,-1.17 -0.42,-1.18 -0.58,-0.94 m -4.18,3.04 0.1,0.16 0.93,0.96 1.01,0.68 0.72,0.3"
           class="st7"
           inkscape:connector-curvature="0"
           style="fill:none;stroke:#000000;stroke-width:0.70899999;stroke-linecap:round;stroke-linejoin:round;stroke-miterlimit:10" />
        <path
           id="path7470"
           d="m 411.48803,305.26243 0.01,-0.06 -0.07,-0.18 -0.19,-0.19 -0.29,-0.18 -0.34,-0.13 m -0.01,-0.01 -0.34,-0.07 -0.29,0.01 -0.19,0.08 -0.06,0.08 m -16.34,48.17 -0.34,-0.13 -0.29,-0.18 -0.2,-0.19 -0.07,-0.18 0.07,-0.14 0.2,-0.08 0.29,-0.01 0.34,0.07 0.34,0.13 0.29,0.18 0.19,0.19 0.07,0.18 -0.07,0.14 -0.19,0.08 -0.29,0.01 -0.34,-0.07 m 132.25,-0.84 0.34,-0.07 0.29,0.01 0.2,0.08 0.07,0.14 -0.07,0.18 -0.2,0.19 -0.29,0.18 -0.34,0.13 -0.34,0.07 -0.29,-0.01 -0.19,-0.08 -0.07,-0.14 0.07,-0.18 0.19,-0.19 0.29,-0.18 0.34,-0.13 m -16.34,-47.33 -0.06,-0.08 -0.2,-0.08 -0.29,-0.01 -0.34,0.07 -0.34,0.13 -0.29,0.18 -0.19,0.19 -0.07,0.18 0.01,0.06 m -150.05,-14.92 h -0.04 l -0.21,0.1 m 0,0 -0.17,0.23 -0.11,0.32 -0.03,0.37 0.06,0.36 0.13,0.29 0.19,0.18 0.18,0.05 m 146.92,-38.71 -0.03,-0.18 -0.15,-0.29 -0.27,-0.21 m 0,-0.01 -0.35,-0.11 -0.37,0.01 -0.33,0.13 -0.25,0.23 -0.13,0.29 -0.01,0.13 m -181.02,98.43 0.21,-0.07 0.3,0.01 0.35,0.08 0.34,0.14 0.28,0.18 0.17,0.19 0.04,0.18 -0.09,0.13 -0.21,0.07 -0.3,-0.01 -0.35,-0.08 -0.34,-0.14 -0.28,-0.18 -0.17,-0.19 -0.04,-0.18 0.09,-0.13 m 18.92,-46.68 0.01,-0.03 -0.04,-0.18 -0.17,-0.19 -0.28,-0.18 -0.34,-0.14 -0.35,-0.08 -0.3,-0.01 -0.21,0.07 -0.08,0.1 m 241.75,-0.01 -0.08,-0.1 -0.21,-0.07 -0.3,0.01 -0.35,0.08 -0.34,0.14 -0.28,0.18 -0.17,0.19 -0.04,0.18 0.01,0.03 m 17.29,47.53 -0.09,-0.13 0.04,-0.18 0.17,-0.19 0.28,-0.18 0.34,-0.14 0.35,-0.08 0.3,-0.01 0.21,0.07 0.09,0.13 -0.04,0.18 -0.17,0.19 -0.28,0.18 -0.34,0.14 -0.35,0.08 -0.3,0.01 -0.21,-0.07 m -179.41,-99.26 -0.01,-0.13 -0.13,-0.29 -0.25,-0.23 -0.33,-0.13 -0.37,-0.01 -0.35,0.11 -0.27,0.21 -0.15,0.29 -0.02,0.18 m 146.91,38.7 0.18,-0.05 0.19,-0.18 0.13,-0.29 0.06,-0.36 -0.03,-0.37 -0.11,-0.32 -0.17,-0.23 -0.21,-0.1 h -0.04 m -158.45,-36.01 0.01,-0.01 0.03,-0.13 -0.06,-0.23 -0.13,-0.29 -0.19,-0.31 -0.21,-0.29 -0.21,-0.21 m -0.01,-0.01 -0.17,-0.11 h -0.1 m 114.9,0.01 h -0.1 l -0.17,0.11 -0.21,0.21 -0.21,0.29 -0.19,0.31 -0.13,0.29 -0.06,0.23 0.03,0.13 0.01,0.01 m -193.64,36.02 -0.28,0.05 -0.3,0.18 -0.21,0.29 -0.09,0.36 0.04,0.37 0.17,0.32 0.28,0.23 0.34,0.1 h 0.06 m 203.34,-46.21 0.34,-0.07 0.29,-0.2 0.2,-0.31 0.07,-0.36 -0.07,-0.36 -0.2,-0.31 -0.29,-0.21 -0.34,-0.07 m -132.25,0 -0.34,0.07 -0.29,0.21 -0.2,0.31 -0.07,0.36 0.07,0.36 0.2,0.31 0.29,0.2 0.34,0.07 m 203.34,46.2 h 0.06 l 0.34,-0.1 0.28,-0.23 0.17,-0.32 0.04,-0.37 -0.09,-0.36 m 0.01,0.01 -0.21,-0.29 -0.3,-0.18 -0.28,-0.05 m -220.81,-36.02 0.04,-0.11 -0.04,-0.21 -0.12,-0.29 -0.18,-0.31 -0.21,-0.29 -0.21,-0.23 -0.18,-0.13 -0.12,-0.01 v 0 m 169.2,0 v 0 l -0.12,0.01 -0.18,0.13 -0.21,0.23 -0.21,0.29 -0.18,0.31 -0.12,0.29 -0.04,0.21 0.04,0.11 m 93.69,98.53 0.01,0.01 0.12,-0.01 0.23,-0.08 0.3,-0.14 0.32,-0.18 0.29,-0.19 0.22,-0.18 0.12,-0.13 m 0.01,0 0.01,-0.06 m -286.59,-69.7 -0.11,0.18 -0.02,0.29 0.1,0.31 0.21,0.29 0.02,0.02 m -71.42,68.61 0.01,0.06 0.12,0.13 0.22,0.18 0.29,0.19 0.32,0.18 0.3,0.14 0.23,0.08 0.12,0.01 0.01,-0.01 m 284.76,-69.57 0.02,-0.02 0.21,-0.29 0.1,-0.31 -0.02,-0.29 -0.11,-0.18 m -72.45,1.3 v 0 l 0.23,0.13 0.29,0.01 0.32,-0.11 m -0.01,0 0.3,-0.21 0.23,-0.29 0.12,-0.31 v -0.29 l -0.12,-0.23 m -188.33,69.7 0.02,0.07 0.14,0.14 0.24,0.18 0.3,0.19 0.32,0.18 0.29,0.13 0.21,0.07 0.1,-0.01 v -0.01 m 300.24,0.02 v 0 l 0.11,0.01 0.21,-0.07 m 0,0 0.29,-0.13 0.32,-0.18 0.3,-0.19 0.24,-0.18 0.14,-0.14 0.02,-0.07 m -196.63,0.47 0.01,0.08 0.13,0.18 0.25,0.14 0.34,0.08 0.37,0.01 0.35,-0.07 m -0.01,0 0.27,-0.13 0.15,-0.18 0.02,-0.11 m 86,0 0.02,0.11 0.15,0.18 0.27,0.13 0.35,0.07 0.37,-0.01 0.34,-0.08 0.25,-0.14 0.13,-0.18 0.01,-0.08 m -81.48,-70.18 -0.12,0.23 v 0.29 l 0.12,0.31 0.23,0.29 0.3,0.21 0.32,0.11 0.29,-0.01 0.22,-0.13 v 0 m 166.91,4.57 -0.48,-0.5 m -1.84,-1.94 1.84,1.93 m 16.15,16.99 -4.75,-5 m -13.24,-13.92 0.65,0.6 m 0,0 0.55,0.4 m -0.5,-5.23 h -0.02 l -0.27,0.11 -0.35,0.31 -0.39,0.47 -0.37,0.55 -0.29,0.55 -0.16,0.47 -0.01,0.31 0.02,0.04 m 14.38,15.35 -0.63,-0.66 m 5.38,5.65 -0.96,-1.28 m 2.38,2.56 v 0 l 0.23,-0.01 0.41,-0.14 0.53,-0.26 0.57,-0.33 0.53,-0.35 0.4,-0.32 0.22,-0.24 0.03,-0.08 m -7.5,-4.63 0.39,0.72 m 1.81,3.09 -1.82,-3.09 m -12.23,-12.41 -1.78,-1.16 m 1.78,1.16 0.14,0.09 m 12.27,6.83 -0.48,-0.83 m 0,0 -0.3,-0.46 -0.3,-0.35 -0.24,-0.18 -0.16,-0.05 m -5.45,-5.3 1.01,0.66 m 0.7,0.5 -0.28,-0.22 -0.42,-0.29 m 5.92,6.52 0.3,0.72 0.04,0.35 -0.07,0.35 -0.11,0.18 -0.17,0.13 -0.09,0.04 m 0,0 -0.26,0.11 -0.28,0.22 -0.15,0.2 m -7.76,-9.36 0.13,-0.19 0.18,-0.14 0.22,-0.07 0.34,-0.01 0.48,0.15 0.27,0.15 m -1.8,0.45 0.18,-0.33 m 7.77,9.35 -0.23,0.66 -0.01,0.27 m -9.11,-9.12 0.62,-0.11 0.43,-0.29 0.36,-0.42 m 1.72,6.46 -0.03,-0.03 m 0.03,0.03 0.63,0.67 0.92,0.97 1.32,1.39 1.34,1.41 m 2.23,0.58 -0.38,-0.98 -0.09,-0.54 m -9.88,-7.6 -2.17,-2.28 m 4.13,4.34 -0.16,-0.17 m -3.16,-4.37 1.31,0.71 0.53,0.19 0.29,0.04 m 2.2,4.66 0.91,0.96 m 2.62,-0.57 0.51,-0.01 m 0,0.01 0.48,-0.11 0.35,-0.15 0.15,-0.09 m 0,-0.01 0.16,-0.12 0.17,-0.12 0.15,-0.11 0.21,-0.14 0.26,-0.13 0.19,-0.04 m 0.31,-0.01 h -0.3 m -5.76,-0.59 0.21,-0.02 0.32,-0.15 0.24,-0.27 m 0,-0.01 0.12,-0.35 -0.01,-0.37 -0.15,-0.34 -0.26,-0.25 -0.33,-0.13 -0.14,-0.01 m -1.34,1.9 0.03,0.05 0.46,0.45 0.59,0.23 0.63,-0.02 0.57,-0.28 0.43,-0.49 m 0.01,0.01 0.22,-0.62 -0.02,-0.66 -0.26,-0.6 -0.46,-0.45 -0.59,-0.23 -0.63,0.02 -0.57,0.27 -0.4,0.43 m 1.04,3.16 -0.12,-0.04 m -92.04,-11.89 -0.17,-0.07 -0.65,-0.11 -0.65,0.11 -0.18,0.08 m 9.24,12.3 -1.18,0.22 m -3.3,-5.97 v 0 m 9.44,1.58 0.06,0.05 0.31,0.41 0.19,0.58 0.05,0.66 -0.1,0.64 -0.24,0.52 -0.27,0.28 m -21.43,1.59 -0.15,-0.03 m -3.29,-0.53 3.3,0.54 m 10.78,-7.01 0.14,0.54 0.18,0.27 0.14,0.13 m 2.98,5.21 0.19,-0.2 m -1.68,-0.73 h 1.01 m 0.48,0.93 -0.23,0.23 -0.1,0.09 0.02,-0.01 m -1.18,-1.24 -0.47,0.08 -0.3,0.2 -0.17,0.32 -0.02,0.32 m -6.18,-4.84 0.02,-0.01 0.19,-0.23 0.07,-0.29 m -0.14,-0.95 v 0 l 0.07,-0.01 0.06,0.15 0.01,0.15 m 0.01,0 v 0.66 m 4.9,-0.77 v -0.12 m 0,0 0.01,-0.18 v -0.02 m 3.62,6.27 -0.36,0.33 -0.33,0.36 -0.3,0.38 -0.27,0.41 -0.13,0.23 m 0.72,-2.44 0.54,0.1 0.18,0.13 0.09,0.19 -0.02,0.15 -0.11,0.16 m 1.01,0.74 -1.93,0.49 m -6.61,-0.73 -0.26,-0.46 -0.42,-0.35 -0.48,-0.18 -0.44,-0.05 m -13.16,0.16 v -0.05 -0.28 -0.49 m 0,0.02 v -0.62 -0.66 -0.6 -0.47 -0.23 -0.02 m 8.01,4.86 2.77,0.67 2.37,0.97 1.8,1.39 1.11,1.41 m -5.97,-5.03 0.37,-0.01 m 0,0.01 0.2,-0.11 0.05,-0.15 -0.02,-0.09 m 0,-0.01 v -0.12 l 0.07,-0.12 0.12,-0.11 0.27,-0.14 0.52,-0.13 0.53,-0.04 m 0.96,-0.01 h -0.97 m 8.15,13.01 -0.46,-0.02 -0.35,-0.14 -0.12,-0.26 0.12,-0.33 0.35,-0.35 0.52,-0.32 0.62,-0.24 0.62,-0.12 0.52,0.01 0.35,0.15 0.12,0.25 -0.12,0.33 -0.35,0.35 -0.05,0.04 m -1.97,0.09 -0.01,-0.06 0.07,-0.18 0.19,-0.19 0.29,-0.18 0.34,-0.13 0.34,-0.07 0.29,0.01 0.2,0.08 0.06,0.08 m -2.3,-11.18 -0.05,-0.15 m -4.5,1.39 -0.3,-0.83 m 0.3,0.83 0.2,0.72 0.05,0.35 0.01,0.35 -0.01,0.18 -0.02,0.13 -0.01,0.04 m -0.02,0 -0.02,0.11 0.05,0.2 m -145.53,-10.82 -0.41,0.38 m 1.71,-2.12 0.02,-0.04 -0.01,-0.31 -0.16,-0.47 -0.29,-0.55 m 0,0 -0.36,-0.55 -0.39,-0.47 -0.35,-0.31 -0.27,-0.11 h -0.01 m -5.7,5.89 0.42,-0.18 0.15,-0.02 m 0,-0.01 0.29,0.03 0.26,0.13 0.17,0.19 0.08,0.19 m -0.01,-0.01 0.06,0.24 0.18,0.57 0.16,0.26 h 0.01 m -1.95,-1.27 0.18,-0.12 m -6.92,14.2 -0.61,0.97 m 7.35,-15.05 -0.7,0.54 -0.23,0.27 -0.11,0.26 0.05,0.19 0.03,0.02 m -7.09,14.87 0.7,-1.11 m 3.01,-9.82 -0.53,0.08 -0.44,0.2 -0.4,0.32 -0.29,0.37 -0.23,0.47 m 10.14,-0.19 -0.93,0.22 m 0.74,-5.42 0.71,-0.74 1.59,-1.61 m -0.82,0.59 0.79,-0.59 m -2.84,1.93 -0.05,0.03 -0.55,0.33 -0.04,0.02 m 0.47,5.46 -2.91,0.85 -1.36,0.61 -1.23,0.79 -1.13,1.01 -1.08,1.24 -2.02,2.89 m -5.37,3.13 0.08,-0.1 0.21,-0.07 0.3,0.01 0.35,0.08 0.34,0.14 0.28,0.18 0.17,0.19 0.04,0.18 -0.01,0.03 m -1.96,-0.07 -0.13,-0.1 -0.31,-0.35 -0.08,-0.32 0.17,-0.24 0.39,-0.12 0.55,0.01 0.63,0.15 0.61,0.25 0.5,0.33 0.31,0.35 0.08,0.32 -0.17,0.24 m -0.01,0 -0.39,0.12 -0.38,0.01 m 4.38,-7.21 0.21,-0.67 0.02,-0.62 -0.18,-0.43 m 0,0 -0.19,-0.18 m 0,0 -0.14,-0.12 -0.12,-0.18 -0.09,-0.21 -0.06,-0.33 0.04,-0.48 0.08,-0.28 m 0.38,-1.07 -0.39,1.06 m 2.27,-2.49 h 1.01 m 0.01,0 0.61,0.1 0.29,0.13 0.27,0.19 0.16,0.15 0.12,0.16 m 0.16,0.2 -0.17,-0.2 m 0.17,0.2 0.44,0.23 0.55,0.09 0.17,-0.01 m 8.11,-3.53 -0.18,-0.34 -0.34,-0.33 -0.39,-0.08 -0.38,0.17 -0.31,0.41 -0.19,0.58 -0.05,0.66 0.1,0.64 0.24,0.52 0.34,0.33 0.39,0.08 0.38,-0.18 0.31,-0.41 0.08,-0.17 m -0.83,-1.88 h -0.04 l -0.21,0.1 -0.17,0.23 -0.11,0.32 -0.03,0.37 0.06,0.36 0.13,0.29 0.19,0.18 0.18,0.05 m -22.5,11.87 0.05,0.11 0.25,0.25 0.43,0.33 0.54,0.35 0.57,0.32 0.52,0.24 m 0.01,0 0.38,0.12 h 0.17 m 1.99,-9.52 -0.02,-0.09 0.02,-0.33 0.08,-0.25 m 11.62,-12.08 -0.14,-0.17 -0.31,-0.55 m 0,0 -0.1,-0.55 0.13,-0.47 0.33,-0.31 0.49,-0.11 0.51,0.09 m -0.46,1.79 -0.11,-0.13 -0.17,-0.31 m -0.01,0 -0.05,-0.31 0.07,-0.26 0.06,-0.08 m -7.42,16.92 0.22,-0.23 m 7.57,-4.44 0.11,-0.03 m 1.89,-0.42 -1.88,0.43 m 231.73,9.69 v 0.01 l -0.13,0.19 -0.33,0.29 -0.49,0.34 -0.57,0.34 -0.56,0.29 -0.47,0.19 -0.31,0.07 -0.07,-0.02 m -2.07,-10.19 0.07,0.17 0.04,0.32 -0.03,0.19 m -6.2,-9.17 0.09,0.04 0.12,0.11 m -6.15,-4 0.02,-0.02 0.21,-0.29 0.1,-0.31 -0.02,-0.29 -0.11,-0.18 m 0.25,1.37 0.35,-0.5 0.19,-0.56 -0.04,-0.51 -0.25,-0.38 -0.43,-0.2 -0.54,0.02 -0.18,0.05 m -4.03,11.98 0.05,0.01 m 1.88,0.43 2.93,0.67 m 0,-0.01 0.67,0.18 m -6.17,-8.81 0.62,0.62 m -1.91,-2.34 -0.03,-0.2 0.1,-0.41 m 0,0 0.24,-0.53 0.34,-0.56 0.39,-0.51 0.38,-0.38 0.31,-0.2 0.11,-0.02 m -0.55,4.53 0.69,0.61 m 6.68,2.14 0.08,-0.14 -0.04,-0.22 -0.2,-0.28 -0.5,-0.44 -0.3,-0.2 m -2.11,1.28 0.17,-0.08 0.16,-0.27 0.15,-0.43 0.09,-0.31 m -0.01,0.01 0.11,-0.23 0.19,-0.17 0.23,-0.1 0.26,-0.02 0.37,0.09 0.2,0.11 m 0,0 0.19,0.12 m 6.22,6.66 -0.26,-0.52 -0.33,-0.39 -0.41,-0.3 -0.41,-0.16 -0.47,-0.06 m 3.67,10.87 -0.5,-0.8 m -0.01,0 -0.35,-0.54 m -12.94,-15.6 2.08,2.14 m 1.19,-0.07 -0.12,-0.06 -0.61,-0.38 -0.02,-0.01 m -1.93,-1.26 -0.52,-0.37 m 0,-0.01 v 0 m 2.38,7.47 -0.51,-0.12 m -0.17,-0.03 0.17,0.04 m 16.17,11.29 0.28,-0.24 0.22,-0.34 -0.02,-0.29 -0.26,-0.19 -0.46,-0.07 -0.59,0.07 -0.63,0.19 -0.57,0.29 -0.43,0.34 -0.22,0.34 0.02,0.29 0.26,0.19 0.46,0.07 0.17,-0.01 m 1.57,-1.21 -0.01,-0.03 -0.15,-0.11 -0.26,-0.04 -0.33,0.04 -0.35,0.11 -0.32,0.16 -0.24,0.19 -0.12,0.19 v 0.13 m -3.74,-10.14 -0.39,-1.06 m 0.39,1.06 0.12,0.66 -0.04,0.32 -0.11,0.31 -0.12,0.18 -0.15,0.13 m -0.2,0.22 0.21,-0.21 m -0.21,0.21 -0.17,0.45 0.02,0.54 0.19,0.64 m -5.61,-4.7 0.19,0.01 0.56,-0.09 0.42,-0.22 m 0,0 0.18,-0.21 m 0,0 0.11,-0.15 0.15,-0.15 0.18,-0.14 0.29,-0.15 0.44,-0.12 0.27,-0.02 m 0,0 h 1.01 m 2.83,9.52 -2.2,-3.22 -1.26,-1.51 -0.62,-0.61 -0.62,-0.51 -1.3,-0.81 -1.45,-0.62 -3.04,-0.86 m -3.4,-3.67 0.13,0.03 0.2,0.15 0.15,0.27 0.08,0.35 -0.01,0.37 -0.09,0.34 -0.16,0.25 -0.2,0.13 -0.09,0.01 m -0.84,-1.9 0.02,-0.05 0.29,-0.45 m -0.01,-0.01 0.37,-0.23 0.39,0.02 0.36,0.27 0.27,0.49 0.14,0.62 -0.01,0.66 -0.16,0.6 -0.29,0.45 -0.37,0.23 -0.39,-0.02 -0.36,-0.28 -0.25,-0.43 m -145.97,-10.64 0.56,-0.17 0.66,0.02 0.44,0.15 m -8.53,12.44 -0.63,-0.12 m -5.05,-4.18 -0.2,0.19 -0.27,0.49 -0.14,0.62 0.01,0.66 0.16,0.6 0.29,0.45 0.14,0.12 m 20.67,1.72 -0.91,0.18 m 5.12,-0.86 -4.21,0.68 m -4.97,-6.38 0.09,0.32 0.19,0.2 m -5.36,-0.68 0.16,-0.41 0.02,-0.2 m -0.01,-0.33 v 0 l 0.01,0.09 v 0.11 m 0,0 v 0.12 m 4.9,0.78 v -0.66 m 0,0 0.05,-0.28 0.06,-0.03 0.03,0.03 m -8.17,6.59 -0.14,-0.14 -0.36,-0.33 m 2.63,0.17 -0.05,-0.39 -0.2,-0.3 -0.29,-0.16 -0.41,-0.05 m 7.44,0.19 -0.57,0.08 -0.51,0.25 -0.34,0.35 -0.18,0.36 m 14.76,-0.88 v 0 -0.18 -0.41 -0.58 -0.66 -0.64 -0.52 -0.33 -0.09 m -16.23,9.78 0.82,-1.23 1.65,-1.64 2.08,-1.13 1.99,-0.61 m -12.11,-0.87 0.03,0.01 -0.1,-0.09 -0.22,-0.22 m 0.01,0 -0.2,-0.21 m 0,0 -0.1,-0.15 -0.03,-0.15 0.04,-0.14 0.16,-0.15 0.35,-0.12 0.25,-0.02 m 0,0 h 1.01 m -0.58,2 -2.58,-0.62 m 11.57,-1.19 h -0.97 m 0.97,0 0.78,0.09 0.33,0.11 0.27,0.17 0.1,0.12 0.03,0.13 -0.01,0.05 m 0,0 -0.02,0.14 0.07,0.14 0.12,0.06 m 0,0 0.4,0.03 m -10.02,11.41 v -0.13 l -0.12,-0.19 m 0,0 -0.24,-0.19 -0.32,-0.16 -0.35,-0.11 -0.33,-0.04 -0.26,0.04 -0.14,0.11 -0.01,0.03 m 1.57,1.2 0.17,0.01 0.46,-0.07 0.26,-0.19 0.02,-0.29 -0.22,-0.34 m 0,0 -0.43,-0.34 -0.57,-0.29 -0.63,-0.19 -0.59,-0.07 -0.46,0.07 -0.26,0.19 -0.02,0.29 0.22,0.34 0.28,0.24 m 6.81,-8.41 0.02,-0.04 0.03,-0.21 -0.02,-0.07 m 0.01,0 -0.03,-0.1 -0.02,-0.16 -0.01,-0.19 0.02,-0.33 0.09,-0.53 0.14,-0.47 m 0.31,-0.82 -0.3,0.83 m -86.42,-9.07 -1.77,1.86 m 0,0 -0.89,0.93 m 1.96,-7.02 0.16,0.04 0.32,0.23 0.38,0.41 0.38,0.53 0.32,0.56 0.22,0.51 0.08,0.39 -0.03,0.15 m -2.33,2.4 0.9,-0.7 0.29,-0.29 m -13.77,14.49 -0.1,0.11 m -4.12,4.32 4.11,-4.32 m -5.52,5.61 -0.07,0.01 -0.31,-0.07 -0.47,-0.19 -0.56,-0.29 -0.57,-0.34 m 0,0 -0.49,-0.34 -0.33,-0.29 -0.13,-0.19 v -0.01 m 5.3,-0.85 -0.96,1.27 m 14.66,-16.54 0.21,-0.13 m 0.01,0 1.93,-1.25 m -8.28,1.56 1.01,-0.66 m -1.01,0.66 -0.47,0.32 -0.23,0.18 m -6.87,14.59 1.77,-3.01 m 0.01,-0.01 0.28,-0.52 m 0.07,-5.87 -0.49,0.83 m 1.48,-1.87 -0.21,0.08 -0.27,0.25 -0.27,0.35 -0.23,0.36 m 8.23,-5.91 -0.17,-0.32 m -1.62,-0.11 0.65,-0.28 0.32,-0.03 0.32,0.08 0.19,0.14 0.14,0.2 m -7.72,9.45 -0.26,-0.34 -0.3,-0.21 -0.17,-0.07 m 0,0 -0.18,-0.1 -0.14,-0.16 -0.08,-0.19 -0.04,-0.33 0.11,-0.53 0.23,-0.47 m 1.01,3.16 -0.18,-0.76 m 7.89,-9.13 0.37,0.45 0.42,0.29 0.46,0.11 h 0.17 m -3.26,5.76 -0.18,0.18 m -5.09,5.37 1.89,-1.99 1.55,-1.64 1.07,-1.13 0.58,-0.61 m -5.69,3.1 -0.03,0.38 -0.41,1.19 -0.15,0.32 m 8.69,-7.5 -0.13,0.14 m 3.75,-3.95 -1.82,1.92 m -0.77,-1.53 v 0 l 0.64,-0.16 1.27,-0.65 m -10.28,4.82 h -0.3 m 0.3,0 0.3,0.09 0.19,0.11 0.24,0.17 0.17,0.12 0.17,0.13 0.07,0.05 m 0.01,0 0.23,0.14 0.36,0.14 0.27,0.06 m 0.01,0 0.61,0.03 m 3.54,-0.4 -1.05,1.11 m 0.63,-2.34 h -0.06 l -0.34,-0.1 -0.28,-0.23 -0.17,-0.32 -0.04,-0.37 0.09,-0.36 0.21,-0.29 0.3,-0.18 0.28,-0.05 m 0.43,3.13 -0.12,0.04 m 1.05,-1.27 -0.29,0.34 -0.55,0.33 -0.63,0.08 -0.61,-0.18 -0.5,-0.41 -0.31,-0.58 -0.08,-0.66 0.17,-0.64 0.39,-0.52 0.55,-0.33 0.63,-0.08 0.61,0.17 0.5,0.41 0.12,0.17 m 213.43,-35.79 -0.33,-0.21 m 1.25,0.64 0.13,0.01 0.57,-0.11 0.56,-0.31 0.43,-0.42 m -22.45,-7.49 -0.14,-0.12 -0.29,-0.45 -0.02,-0.05 m 0,-1.89 0.25,-0.43 0.2,-0.19 m 2.38,3.67 -1.27,-0.17 m 1.27,0.17 h 2.87 m -0.01,0 0.47,-0.04 m 17.4,7.21 -0.29,-0.11 m -6.33,-8.07 -0.53,-0.32 -0.44,-0.24 -0.4,-0.18 -0.29,-0.1 -0.23,-0.04 m 4.38,8.55 0.53,0.47 m -0.53,-0.47 -0.88,-1.04 -0.16,-0.26 m -3.72,-7.25 0.38,0.16 0.39,0.17 0.4,0.18 0.41,0.19 0.42,0.2 0.42,0.21 0.43,0.21 0.43,0.22 m 9.7,6.1 0.1,-0.26 0.08,-0.39 -0.08,-0.2 -0.22,0.02 -0.33,0.23 -0.38,0.41 -0.38,0.53 -0.32,0.56 -0.22,0.51 -0.08,0.39 0.08,0.2 0.22,-0.02 0.32,-0.23 0.18,-0.18 m -4.22,-0.96 1.02,0.54 0.39,0.15 m -16.32,-7.72 -0.21,0.22 -0.86,0.37 -0.26,0.05 m 21.18,5.58 v 0 l -0.12,0.01 -0.18,0.13 -0.21,0.23 -0.21,0.29 -0.18,0.31 -0.12,0.29 -0.04,0.21 0.04,0.11 m -6.06,-2.17 0.21,0.14 m 0.01,0.01 1.93,1.25 m -5.47,-7.37 1.01,0.66 m 0,0 0.5,0.47 0.14,0.28 0.04,0.32 -0.05,0.22 -0.13,0.21 m -0.2,0.29 0.19,-0.3 m -0.19,0.3 -0.17,0.58 0.03,0.59 0.23,0.56 0.12,0.19 m 0,0 v 0 l 0.55,0.61 1.25,0.99 m -10.78,-4.64 v 0 m -4.75,0.65 3.48,1.04 1.8,0.59 0.81,0.29 0.75,0.29 1.42,0.61 1.42,0.68 2.7,1.43 m 0,0.01 0.43,0.24 m 1.66,0.9 -1.65,-0.91 m 1.29,0.69 0.14,0.1 0.22,0.13 m -0.4,-0.3 0.04,0.07 m 0.01,-0.08 -0.05,0.01 m 0.17,0.02 -0.07,-0.02 -0.05,-0.01 m 0.3,0.08 -0.1,-0.03 -0.08,-0.02 m 0.38,0.13 -0.2,-0.07 m 0.58,0.23 -0.38,-0.16 m 0.72,0.32 -0.33,-0.16 m 0.55,0.28 -0.23,-0.12 m -0.09,-0.06 0.32,0.18 m 2.98,-0.29 -2.77,-0.98 -2.14,-0.73 -1.48,-0.46 -0.48,-0.12 -0.29,-0.04 -0.11,0.04 0.07,0.11 0.66,0.46 0.8,0.48 1.08,0.61 1.35,0.75 m 2.97,-0.3 -0.13,-0.07 m -0.05,-0.04 0.05,0.04 m -0.05,-0.04 v 0 m 0.02,-0.02 h -0.02 l -0.01,0.01 m 0.03,-0.01 0.23,0.05 m 0.56,0.17 -0.29,-0.1 -0.27,-0.08 m 0.56,0.18 v 0 m 0.25,0.08 -0.25,-0.09 m 0.25,0.09 -2.44,-0.87 m 0,0 -1.23,-0.44 m 0,0 -3.71,-1.37 -1.6,-0.64 -1.32,-0.58 -1.04,-0.53 -0.83,-0.51 -1.21,-0.95 m 0,0.01 -0.32,-0.29 m -0.63,-0.56 0.62,0.57 m -0.57,-0.52 -0.05,-0.05 m 0.06,0.1 -0.01,-0.05 m -1.45,-0.54 1.64,1.49 m -0.01,-0.01 0.17,0.18 m -3.69,-0.35 1.95,0.51 1.35,0.25 0.51,-0.1 -0.12,-0.31 m -3.69,-0.35 -0.11,-0.03 m -4.52,-1.28 4.52,1.29 m -4.52,-1.29 0.3,0.09 m 0.38,0.12 -0.38,-0.12 m 0.78,0.27 -0.4,-0.15 m 0.59,0.24 -0.19,-0.08 m 0.34,0.15 -0.07,-0.04 -0.08,-0.04 m 0.23,0.14 -0.03,-0.03 -0.05,-0.03 m 0.09,0.09 -0.01,-0.03 m -0.13,0.03 h 0.13 m -0.63,-0.12 0.29,0.08 0.21,0.04 m -0.5,-0.12 1.73,0.49 m 0,0 0.57,0.16 m 5.19,-0.48 h 0.74 m 0,0 h 0.09 m 1.41,-0.09 v 0 l -0.59,0.08 -0.81,0.02 m 1.4,-0.1 0.63,-0.19 0.63,-0.38 0.43,-0.46 m -0.01,-0.01 0.17,-0.31 m 0,0 0.09,-0.21 0.09,-0.21 0.09,-0.18 0.12,-0.19 0.17,-0.14 0.1,-0.02 m 0.38,0.01 h -0.39 m -5.8,-1.16 0.34,0.07 0.29,0.21 0.2,0.31 0.07,0.36 -0.07,0.36 -0.2,0.31 -0.29,0.2 -0.34,0.07 m 0.59,1.61 v 0 l 0.09,-0.02 v -0.01 m -0.06,-0.1 0.44,0.17 m -1.84,-0.66 0.02,0.02 m -0.58,-2.9 0.2,-0.26 0.52,-0.37 0.62,-0.13 0.62,0.13 0.52,0.37 0.35,0.55 0.12,0.65 -0.12,0.65 -0.35,0.55 -0.52,0.37 -0.62,0.13 m 0,0 -0.62,-0.13 -0.52,-0.37 -0.2,-0.26 m -31.04,2.34 -1.32,-0.29 m -2.59,-0.56 2.6,0.57 m -2.6,-0.57 v 0 m 23.72,6.85 0.48,0.18 m -24.2,-7.03 1.61,0.17 m -3.57,-4.3 v 0.13 0.37 0.55 0.65 0.65 0.55 0.37 0.13 m 13.75,-0.6 -0.09,-0.32 -0.23,-0.24 -0.38,-0.18 -0.43,-0.1 -0.55,-0.04 m -8.5,2.38 h 2.38 m 0,0 h 0.27 m 5.84,-2.38 h -1.25 m -1.29,1.25 -0.01,-0.31 m 0,0 v -0.21 l 0.08,-0.21 0.14,-0.18 0.28,-0.19 0.49,-0.14 0.32,-0.02 m 10.18,3.2 -0.83,-0.45 -0.41,-0.15 -0.4,-0.07 -0.29,0.03 -0.23,0.13 -0.17,0.33 -0.02,0.19 m -10.14,-0.91 0.53,-0.19 0.35,-0.38 0.13,-0.46 m 16.64,7.98 -0.5,-0.21 m 3.19,0.19 -0.03,0.03 -0.36,0.31 -0.27,0.11 -0.14,-0.11 0.01,-0.31 0.16,-0.47 0.29,-0.55 m 0.02,0 0.36,-0.55 0.39,-0.47 0.35,-0.31 0.27,-0.11 0.14,0.11 -0.01,0.31 -0.15,0.43 m -8.88,-4.45 0.18,0.12 m 0.01,0 0.34,0.31 0.08,0.13 m 0,0 0.1,0.28 0.01,0.3 -0.07,0.26 -0.1,0.17 m 0.01,0 -0.13,0.19 -0.22,0.55 0.03,0.38 0.22,0.37 0.42,0.38 m 6.66,2.39 -0.03,-0.05 0.01,-0.17 0.09,-0.26 0.16,-0.31 m -0.01,0 0.2,-0.31 0.22,-0.26 0.2,-0.17 0.15,-0.06 0.04,0.01 m -16.11,-1.83 -0.84,-0.56 -1.24,-0.53 -1.61,-0.51 -3.89,-0.95 m 2.63,-0.77 v 0 l -0.73,0.08 -1.56,0.02 m 12.44,1.58 v -0.22 l -0.01,-0.3 v -0.14 m 0,0 v -0.12 m -4.9,-2.31 v 0.66 m 0,0 -0.05,0.47 -0.06,0.28 -0.08,0.32 -0.05,0.22 -0.03,0.21 m -0.01,0.29 0.01,-0.3 m 5.12,3.71 0.16,0.03 1.71,0.46 1.45,0.48 1.73,0.61 2.04,0.75 m -0.88,-0.52 0.85,0.47 m -3.02,-1.86 -0.05,-0.03 -0.66,-0.45 -0.05,-0.04 m -4.87,1.59 -0.03,-0.18 -0.15,-0.29 -0.27,-0.21 -0.35,-0.11 -0.37,0.01 -0.33,0.13 -0.25,0.23 -0.13,0.29 -0.01,0.13 m 1.89,1.2 0.05,-0.03 0.45,-0.41 m 0,0 0.23,-0.53 -0.02,-0.57 -0.27,-0.51 -0.49,-0.39 -0.62,-0.2 -0.66,0.02 -0.6,0.23 -0.45,0.41 -0.23,0.53 0.02,0.56 0.27,0.51 0.43,0.36 m -72.84,-7.2 -2.26,0.49 m 0,0 -0.74,0.16 m 4.97,-4.78 v 0.02 0.23 0.45 0.6 0.66 0.62 0.49 0.28 0.05 m -3.57,0.9 0.63,-0.03 m 0,0.01 0.98,-0.15 m -24.22,7.04 0.79,-0.29 m 13.33,-8.96 -0.62,0.05 -0.46,0.12 -0.35,0.2 -0.19,0.23 -0.07,0.29 m -14.79,8.13 0.01,-0.01 0.03,-0.13 -0.06,-0.23 m 0,0 -0.13,-0.29 -0.19,-0.31 -0.21,-0.29 -0.21,-0.21 -0.17,-0.11 h -0.1 m 26,-5.06 h -1.99 m -5.26,-2.38 h -1.25 m 1.25,0 0.71,0.12 0.29,0.16 0.22,0.24 0.08,0.2 0.01,0.22 m -0.01,0.36 0.01,-0.35 m -12.36,5.67 0.4,-0.38 0.22,-0.42 v -0.38 l -0.16,-0.42 -0.17,-0.26 m 0,0 -0.11,-0.22 -0.05,-0.26 0.02,-0.26 0.1,-0.26 0.24,-0.3 0.18,-0.14 m 11.68,-2.02 0.15,0.46 0.32,0.32 0.5,0.19 m -12.65,1.04 0.19,-0.12 m -7.84,6.03 0.24,0.24 0.31,0.2 0.19,-0.02 0.05,-0.23 -0.1,-0.41 m 0,-0.01 -0.24,-0.53 -0.34,-0.57 -0.39,-0.51 -0.38,-0.39 -0.31,-0.2 -0.19,0.02 -0.05,0.23 0.1,0.41 0.07,0.17 m 3.71,1.63 0.82,-0.37 m 0.55,-0.33 0.06,-0.03 m 6.1,-5.33 -0.14,-0.45 -0.18,-0.15 -0.29,-0.07 -0.33,0.03 -0.43,0.13 -0.67,0.33 -0.32,0.19 m 16.04,-0.34 -4.34,1.04 -1.97,0.59 -0.77,0.29 -0.62,0.29 -0.79,0.55 m 7.56,-3.24 -1.79,-0.02 -0.6,-0.05 -0.26,-0.05 m -16.84,6.69 2.73,-0.98 2.23,-0.73 1.74,-0.46 0.06,-0.01 m -3.24,-0.15 -0.15,0.12 -0.73,0.5 -0.02,0.01 m -2.04,1.3 -0.55,0.33 m 0,0 v 0 m 11.89,-5.65 v -0.2 m 0,0 -0.03,-0.2 -0.05,-0.22 -0.05,-0.22 -0.07,-0.3 -0.06,-0.37 -0.01,-0.18 m -0.01,0 v -0.66 m -4.9,2.31 v 0.12 m 0,0 -0.01,0.31 v 0.13 m 0,0 v 0.21 m 1.65,4.27 0.07,-0.31 0.2,-0.26 0.31,-0.17 0.36,-0.06 0.36,0.06 0.31,0.17 0.21,0.26 0.07,0.31 m -1.89,1.2 -0.26,-0.18 -0.37,-0.47 -0.13,-0.55 m 0.01,0 0.13,-0.55 0.37,-0.47 0.55,-0.31 0.65,-0.11 0.65,0.11 0.55,0.31 0.37,0.47 0.13,0.55 -0.13,0.55 -0.37,0.47 -0.26,0.18 m 49.11,-0.18 -0.46,-0.29 m -15.16,-1.32 v 0.03 l 0.1,0.55 0.3,0.55 0.47,0.47 0.56,0.31 0.57,0.11 0.14,-0.01 m 16.87,-2 -0.03,0.35 -0.22,0.56 -0.41,0.51 -0.53,0.39 -0.58,0.2 -0.36,0.01 m -1.54,-0.77 0.05,0.13 0.16,0.16 m -0.01,0 0.07,0.05 m 0.52,-0.99 0.61,0.54 0.22,0.15 m -14.44,-0.35 0.36,-0.34 m -0.83,0.69 0.47,-0.35 m 12.3,-1.74 0.12,0.14 m 0,0.01 1.19,1.25 m -12.15,-1.16 -1.1,1.16 m 1.1,-1.16 0.08,-0.1 m 0.65,-1.76 -0.14,-0.73 -0.16,-0.51 m 10.2,-0.03 -0.18,0.54 -0.13,0.56 -0.02,0.19 m -6.55,-6.65 h 0.44 0.44 0.44 0.44 0.44 0.44 0.44 0.44 m -7.19,8.4 0.55,-0.99 0.1,-0.48 v -0.29 m 9.57,0.01 v 0 l 0.05,0.61 0.49,0.99 m 6.1,-4.64 v 0 m -20.62,-0.32 h 2.87 m -0.01,0 0.52,-0.04 m 2.04,-0.63 -0.4,0.22 -1.29,0.37 -0.34,0.05 m 2.03,-0.64 0.53,-0.49 m 0.65,-1.89 0.03,-0.04 0.38,-0.16 0.42,-0.04 m 3.55,0 0.6,0.1 0.23,0.13 v 0 m 0.65,1.9 0.35,0.37 0.28,0.19 m 1.66,0.54 -1.07,-0.27 -0.59,-0.27 m 1.66,0.54 0.73,0.06 m 2.93,0 h -2.94 m -20.09,-1.16 0.25,0.43 0.35,0.28 0.39,0.02 0.36,-0.23 0.29,-0.45 0.02,-0.05 m 0,-1.89 -0.25,-0.43 -0.35,-0.27 -0.39,-0.02 -0.37,0.23 -0.29,0.45 -0.02,0.05 m 4.63,3.04 -1.33,-0.17 m 20.9,0.62 v 0 l 0.41,-0.02 0.42,-0.06 m 0,0 0.17,-0.04 0.05,-0.01 m -0.87,-0.49 -1.33,0.17 m 4.61,-1.16 -0.12,0.26 -0.32,0.37 -0.38,0.13 m -0.84,-2.65 0.12,-0.26 0.33,-0.37 0.38,-0.13 0.38,0.13 0.32,0.37 0.12,0.26 m -0.82,2.64 -0.38,-0.13 -0.33,-0.37 -0.12,-0.26 m -21.03,2.14 3.54,1.04 1.4,0.59 0.44,0.29 0.25,0.29 0.01,0.61 -0.52,0.68 -1.93,1.43 m 0.01,0.01 -0.37,0.24 m -1.42,0.9 1.42,-0.91 m -0.88,0.69 -0.29,0.1 -0.25,0.13 m 0.92,-0.3 -0.39,0.07 m 0.61,-0.08 -0.21,0.01 m 0.41,0.02 -0.1,-0.02 -0.11,-0.01 m 0.37,0.08 -0.07,-0.03 -0.08,-0.02 m 0.24,0.13 -0.09,-0.07 m 0.11,0.23 -0.02,-0.16 m -0.08,0.32 0.11,-0.16 m -0.26,0.28 0.15,-0.12 m 0.13,-0.06 -0.28,0.18 m 11.74,-0.29 -1.64,-0.98 -1.47,-0.73 -1.34,-0.46 -0.64,-0.12 -0.62,-0.04 -0.61,0.04 -0.62,0.11 -1.3,0.46 -0.95,0.48 -1.06,0.61 -1.21,0.75 m 11.65,-0.22 -0.01,0.05 m 0.06,-0.13 -0.05,0.08 m 0.05,-0.08 0.11,-0.07 m 0.13,-0.04 -0.14,0.04 m 0.14,-0.04 0.04,-0.01 m 0.21,-0.01 h -0.11 l -0.11,0.01 m 0.22,-0.01 0.41,0.05 m 0.52,0.17 -0.23,-0.1 -0.28,-0.08 m 0.51,0.18 v 0 m 0.15,0.08 -0.15,-0.09 m 0.15,0.09 -1.37,-0.87 m 0,0 -0.68,-0.44 m -0.01,0 -1.78,-1.37 -0.43,-0.64 0.05,-0.58 0.6,-0.53 1.1,-0.51 3.14,-0.95 m 0.01,0.01 1.12,-0.29 m 2.21,-0.56 -2.21,0.57 m 1.99,-0.52 0.22,-0.05 m -1.05,0.13 0.43,-0.02 0.4,-0.06 m -0.83,0.08 -0.28,-0.03 -0.12,-0.03 m -0.12,-0.07 0.05,0.04 0.07,0.03 m -0.12,-0.07 -0.04,-0.06 v -0.02 m 0.1,-0.16 -0.08,0.08 -0.03,0.08 m 0.36,-0.29 -0.25,0.13 m 0.57,-0.24 -0.32,0.11 m 0.39,-0.12 -0.06,0.02 m 0.06,-0.02 -5.8,1.49 m -0.01,-0.01 -0.81,0.18 m -9.32,-0.35 2.53,0.51 2.48,0.25 2.39,-0.1 1.92,-0.31 m -9.32,-0.35 -0.13,-0.03 m -5.02,-1.28 5.02,1.29 m -5.02,-1.29 0.3,0.09 m 0.27,0.12 -0.27,-0.12 m 0.43,0.27 -0.16,-0.15 m 0.17,0.24 v -0.08 m -0.08,0.15 0.05,-0.04 0.03,-0.04 m -0.24,0.14 0.09,-0.03 0.07,-0.03 m -0.36,0.09 0.2,-0.03 m -0.63,0.03 h 0.43 m -1.17,-0.12 0.37,0.08 0.37,0.04 m -0.74,-0.12 1.92,0.49 m 0.01,0 0.63,0.16 m 51.5,56.19 v 0 m 0.06,-0.39 -0.05,0.22 m 0,0 v 0.13 0.04 m -0.33,0.89 0.23,0.23 0.49,0.24 m 0,0 0.62,0.12 0.66,-0.01 0.6,-0.14 0.45,-0.26 0.16,-0.17 m -1.37,-0.71 -0.04,-1.28 m 0.07,-3.64 -0.07,0.56 m 0,3.09 v -3.09 m -3.33,-3.46 0.67,0.88 0.33,0.6 m -2.62,-10.43 -1.1,-1.16 m 1.1,1.16 0.09,0.09 m -3.05,-1.53 h 0.02 m 0.35,-4.14 0.06,0.08 0.07,0.26 -0.05,0.31 -0.17,0.31 -0.26,0.26 -0.31,0.17 -0.31,0.06 -0.27,-0.06 -0.12,-0.09 m 2.07,2.13 0.43,0.6 m 0,0 0.35,0.4 m -1.34,0.3 -0.49,-0.59 m -0.33,-4.85 0.51,-0.09 0.49,0.11 0.33,0.31 0.13,0.47 -0.1,0.55 -0.31,0.55 -0.47,0.47 -0.56,0.31 -0.57,0.11 -0.49,-0.11 -0.33,-0.31 -0.13,-0.47 0.1,-0.55 m 0.01,0.01 0.02,-0.05 m 4.73,5.07 0.63,0.42 m -0.61,0.29 -0.38,-0.51 m 0,0 -0.34,-0.5 m -1.28,-1.94 1.28,1.93 m -1.05,-1.35 -0.07,-0.28 -0.16,-0.3 m 0.19,0.87 0.04,-0.29 m -0.13,0.41 0.1,-0.12 m -0.26,0.2 0.08,-0.03 0.07,-0.05 m -0.35,0.09 0.1,0.01 0.1,-0.01 m -0.41,-0.05 0.21,0.05 m -0.58,-0.25 0.37,0.2 m -0.67,-0.47 0.29,0.26 m -0.47,-0.49 0.19,0.24 m 0.05,0.14 -0.25,-0.38 m 1.74,2.73 -0.45,-0.74 -1.04,-1.61 m -2.46,7.77 3.89,0.85 1.61,0.61 1.24,0.79 0.87,1.01 0.56,1.24 0.51,2.89 m 0,0 0.07,0.97 m 0.14,1.89 -0.14,-1.9 m 0.15,1.73 v 0.18 m 0.24,-0.72 -0.18,0.25 -0.07,0.29 m 0.25,-0.54 v 0 m 0,0 0.2,-0.11 0.12,-0.02 m 0.21,0.02 -0.11,-0.02 h -0.1 m 0.21,0.02 0.14,0.05 0.06,0.03 m 0.29,0.26 -0.14,-0.15 -0.15,-0.11 m 0.46,0.57 -0.17,-0.31 m 0.25,0.62 -0.08,-0.31 m 0.08,0.36 -0.01,-0.06 m 0.01,0.06 -0.36,-5 m 0,0.01 v -0.66 m 0.05,-0.22 -0.04,0.22 m 7.95,-4.9 -2.39,0.43 m -126.95,-39.87 0.53,-0.29 m -1.42,0.71 -0.47,-0.03 -0.57,-0.23 -0.52,-0.41 m 0.01,-0.01 -0.14,-0.17 m 22.89,-9.98 -0.12,-0.26 -0.32,-0.37 m -0.01,3.14 0.32,-0.37 0.12,-0.26 m -1.55,1 -1.27,0.17 m -3.57,-0.06 0.64,0.06 m 2.93,0 h -2.94 m -13.67,6.66 -0.84,-0.22 -0.46,-0.25 m 2.32,-0.83 -1.02,1.3 m -7.9,-1.11 0.04,-0.01 0.15,0.06 0.2,0.17 0.22,0.26 0.2,0.31 0.16,0.31 0.09,0.26 0.01,0.17 -0.03,0.05 m 5.68,-1.93 -1.78,1.16 m 1.78,-1.16 0.14,-0.1 m 2.53,-5.45 1.01,-0.66 m 1.89,-0.88 -0.26,0.05 -0.33,0.12 -0.41,0.2 -0.41,0.23 -0.47,0.29 m -6.88,8.05 0.81,-0.35 m 0.01,0 0.59,-0.34 m -5.25,-0.61 -0.15,-0.43 -0.01,-0.31 0.14,-0.11 0.27,0.11 0.35,0.31 0.39,0.47 0.37,0.55 0.29,0.55 0.16,0.47 0.01,0.31 -0.14,0.11 -0.27,-0.11 -0.36,-0.31 -0.03,-0.03 m 20.23,-7.39 -0.73,-0.27 -0.33,-0.27 m -10.79,2.06 -0.2,-0.32 m 0.5,-1.49 0.43,-0.22 0.43,-0.21 0.42,-0.21 0.42,-0.2 0.41,-0.19 0.4,-0.18 0.39,-0.17 0.38,-0.16 m -3.78,3.03 -0.12,-0.2 -0.06,-0.22 0.01,-0.22 0.11,-0.3 0.31,-0.37 0.25,-0.18 m -0.52,3.69 0.34,-0.73 0.04,-0.6 -0.16,-0.55 m 3.58,-3.35 h -0.39 m 0.39,0 0.23,0.12 0.11,0.16 0.12,0.24 0.09,0.2 0.1,0.22 m 0.21,0.36 -0.2,-0.35 m 0.2,0.35 0.45,0.46 0.54,0.32 0.59,0.19 m 2.3,0.11 h -0.61 m -9.94,4.62 1.3,-0.99 0.49,-0.48 0.23,-0.29 m 7.77,-2.86 -0.87,-0.02 -0.44,-0.05 -0.24,-0.05 m 3.38,-3.42 -0.14,0.01 -0.33,0.13 -0.26,0.25 -0.15,0.34 -0.01,0.37 0.12,0.35 0.24,0.27 0.32,0.15 0.21,0.02 m 1.34,-1.89 -0.4,-0.43 -0.57,-0.27 -0.63,-0.02 -0.59,0.23 -0.46,0.45 -0.26,0.6 -0.02,0.66 0.22,0.62 0.43,0.49 0.57,0.28 0.63,0.02 0.59,-0.23 0.46,-0.45 0.03,-0.05 m -2.41,1.64 0.19,-0.03 m 0,0.01 0.26,-0.15 m -0.73,0.65 -1.3,1.04 -0.93,0.59 -0.54,0.29 -0.6,0.29 -1.41,0.61 -1.74,0.68 -3.89,1.43 m 0.01,0.01 -0.66,0.24 m -2.54,0.9 2.53,-0.91 m -1.83,0.69 -0.32,0.1 -0.37,0.13 m 0.97,-0.3 -0.28,0.07 m 0.36,-0.08 -0.08,0.01 m 0.08,0.02 0.01,-0.02 -0.01,-0.01 m -0.08,0.08 0.05,-0.03 0.03,-0.02 m -0.23,0.13 0.14,-0.07 m 3.06,0.22 1.75,-0.98 1.23,-0.73 0.65,-0.46 0.08,-0.12 -0.09,-0.04 -0.27,0.04 -0.46,0.11 -1.47,0.46 -1.39,0.48 -1.73,0.61 -2.1,0.75 m 4.53,-0.21 0.15,-0.1 0.09,-0.08 m -0.24,0.18 v 0 m -0.15,0.08 0.15,-0.09 m -0.15,0.09 1.59,-0.87 m 0,0 0.8,-0.44 m 0.01,0 2.61,-1.37 1.34,-0.64 1.35,-0.58 1.41,-0.53 1.51,-0.51 3.16,-0.95 m -0.01,0.01 1.01,-0.29 m 1.57,-0.44 -1.57,0.45 m 1.38,-0.44 0.17,-0.02 0.05,-0.01 m -0.22,0.03 -0.02,-0.03 0.03,-0.03 m 0.11,-0.07 -0.07,0.04 -0.05,0.03 m 0.12,-0.07 0.12,-0.06 0.06,-0.02 m 0.39,-0.16 -0.21,0.08 -0.18,0.08 m 0.77,-0.29 -0.39,0.13 m 0.74,-0.24 -0.35,0.11 m 0.41,-0.12 -0.06,0.02 m 0.06,-0.02 -5.22,1.49 m 0,-0.01 -0.67,0.18 m -2.07,-0.35 -0.39,0.51 0.18,0.25 0.97,-0.1 1.3,-0.31 m -2.06,-0.35 0.03,-0.03 m 1.41,-1.28 -1.41,1.29 m 1.41,-1.29 -0.12,0.09 m -1.33,0.52 h 0.13 m -0.08,-0.12 -0.06,0.08 0.02,0.04 m 0.04,-0.12 -0.54,0.49 m -0.01,0 -0.18,0.16 m 25.14,57.08 -0.03,0.04 -0.37,0.29 -0.55,0.19 -0.65,0.07 -0.65,-0.07 -0.55,-0.19 -0.37,-0.29 -0.04,-0.05 m 1.42,-1.96 -0.04,1.27 m 0.04,-1.27 v -3.01 m 0,-0.01 -0.06,-0.52 m 2.73,-2.09 0.54,-0.77 0.48,-0.5 m 4.47,-10.44 -0.41,0.62 m -3.04,1.45 0.14,-0.13 m 0.01,0 1.19,-1.25 m -1.81,1.67 0.47,-0.29 m 3.49,-6.52 -0.28,-0.07 -0.53,0.02 -0.4,0.23 -0.22,0.41 v 0.53 l 0.22,0.56 0.41,0.51 0.53,0.39 0.58,0.2 0.53,-0.02 0.4,-0.23 0.22,-0.41 m 0.01,0 v -0.53 l -0.09,-0.29 m -2.03,3.75 0.26,-0.2 0.27,-0.29 m 0.01,0 0.07,-0.09 m -2.11,0.66 0.58,-0.7 0.2,-0.29 m 0.7,-3.43 -0.12,0.23 v 0.29 l 0.12,0.31 0.23,0.29 0.3,0.21 0.32,0.11 0.29,-0.01 0.22,-0.13 v 0 m -7.25,18.66 0.5,-3.22 0.6,-1.51 0.42,-0.61 0.52,-0.51 1.34,-0.81 1.76,-0.62 4.1,-0.86 m -3.13,-7.45 -1.32,2.13 m 1.01,-2.1 0.11,-0.06 m -0.31,0.14 0.2,-0.08 m -0.2,0.08 -0.21,0.04 m -0.16,-0.03 0.16,0.02 m -0.16,-0.02 -0.03,-0.01 m -0.14,-0.09 0.06,0.05 0.08,0.04 m -0.14,-0.09 -0.11,-0.28 m 0.13,-0.49 -0.1,0.25 -0.03,0.25 m 0.13,-0.5 v 0 m 0.11,-0.19 -0.11,0.19 m 0.11,-0.19 -1.23,1.86 m 0,0 -0.62,0.93 m -0.01,0.01 -0.21,0.26 m -12.9,5.22 3.08,0.55 m 5.33,5.66 -0.09,-1.2 m 0.09,1.2 -0.01,0.11 m -0.3,4.32 0.31,-4.32 m -0.31,4.32 0.05,-0.27 m 0.14,-0.31 -0.14,0.31 m 0.39,-0.59 -0.25,0.28 m 0.43,-0.39 -0.18,0.11 m 0.38,-0.17 -0.1,0.02 -0.1,0.04 m 0.41,-0.05 -0.1,-0.01 h -0.1 m 0.36,0.07 -0.17,-0.07 m 0.39,0.3 -0.21,-0.23 m 0.31,0.77 -0.02,-0.29 -0.09,-0.25 m 0.11,0.54 0.12,-1.66 m 0,0.01 0.05,-0.54 m -7.3,2.46 -17.23,47.42 m 1.77,0.65 17.23,-47.42 m 75.89,-14.93 h -55.75 m 0,1.89 h 55.75 m 39.14,59.82 -17.23,-47.42 m -1.77,0.64 17.23,47.42 m -167.28,-60.46 h 44.27 m 0,-1.89 h -44.27 m 145.03,-36.81 v 28.14 m 1.89,-0.01 v -28.13 m -181.22,99.16 17.23,-47.42 m -1.78,-0.65 -17.23,47.42 m 110.24,-106.01 h 55.75 m 0,-1.89 h -55.75 m 146.98,61.13 17.23,47.42 m 1.77,-0.64 -17.23,-47.42 m -163.87,-22.97 v -28.13 m -1.89,0 v 28.14 m 102.65,10.56 h 44.27 m 0,-1.89 h -44.27 m -115.21,-37.6 -44.79,29.11 m 1.03,1.58 44.79,-29.11 m 158.65,27.52 -44.79,-29.11 m -1.03,1.59 44.79,29.11 m -222.71,6.91 h -15.72 m 0,1.89 h 15.69 m 171.96,-46.2 h 15.71 m -0.01,-1.89 h -15.72 m -116.53,1.89 h 15.71 m -0.01,-1.89 h -15.71 m 203.35,46.2 h -15.72 m 0.01,1.89 h 15.71 m -265.58,-8.8 44.79,-29.11 m -1.03,-1.58 -44.79,29.11 m 212.97,-27.53 44.79,29.11 m 1.03,-1.59 -44.79,-29.11 m 94.3,99.16 -27.76,-47.23 m -1.63,0.96 27.76,47.22 m -258.71,-98.25 -26.24,27.59 m 2.99,-0.41 25.57,-26.89 m -72.03,49.78 -27.76,47.23 m 1.63,0.96 27.76,-47.22 m 257.2,-23.44 -26.22,-27.57 m -2.36,0.26 25.55,26.87 m -96.64,-26.87 27.2,28.6 m 1.37,-1.29 -27.2,-28.6 m -159.51,99.26 27.76,-47.22 m -1.63,-0.97 -27.76,47.23 m 274.12,-46.27 27.76,47.22 m 1.62,-0.95 -27.76,-47.23 m -168.87,1.03 v 46.68 m 1.89,0 v -46.68 m 87.88,46.68 v -46.68 m -1.89,0 v 46.68 m -78.22,-68.88 27.2,-28.6 m -1.36,-1.31 -27.2,28.6 m 172.38,10.22 0.18,0.35 0.66,0.63 0.21,0.1 m -3.36,-10.93 -0.14,-0.11 -1.3,-0.63 -1.3,-0.34 -0.7,-0.05 m -1.81,2.78 0.56,0.93 0.92,1.02 0.61,0.46 m 14.1,3.35 -0.08,-0.13 -0.09,-0.12 -0.09,-0.12 -0.1,-0.11 -0.11,-0.11 -0.11,-0.1 -0.12,-0.09 -0.12,-0.09 m 2.83,14.49 0.8,1.02 1.03,0.89 0.52,0.31 m 2.89,-1.68 -0.11,-1.17 -0.39,-1.34 -0.52,-1.02 m 0.01,0 -6.25,-10.62 m -0.82,-0.87 -10.1,-6.57 m 7.96,6.15 h -3.13 m 0,5.2 h 2.02 m -4.59,-1.57 0.11,0.23 m 2.46,-3.84 -0.86,0.11 -0.82,0.38 -0.62,0.57 -0.3,0.52 m 0.14,2.27 0.05,0.1 0.62,0.65 0.33,0.17 m 0.06,0.03 v 0 m 0.01,0 0.47,0.24 0.91,0.13 m -91.78,-9.15 -0.04,-0.59 -0.29,-0.99 -0.48,-0.79 -0.58,-0.55 -0.4,-0.21 m -1.64,-0.01 -0.67,0.45 -0.56,0.7 -0.39,0.9 -0.15,1.01 0.01,0.07 m 6.53,3.41 -0.18,-0.12 -0.9,-0.7 -0.22,-0.21 m 2.29,1.59 -0.54,-0.28 -0.44,-0.29 m 6.16,5.74 0.95,-0.05 1.19,-0.33 0.98,-0.51 0.16,-0.13 m -0.02,-3.09 -0.56,-0.38 -1.1,-0.45 -1.22,-0.21 -0.39,0.02 m -12.47,-1.56 -0.49,0.4 -1.12,0.71 -0.91,0.42 m 8.69,-0.01 -0.18,-0.02 -0.46,-0.21 -0.1,-0.11 m 2.66,5.54 h 4.39 m 0,-5.2 h -6.29 m -6.42,-3.96 v 2.62 m 5.2,-0.24 v -2.39 m 1.89,11.31 0.02,-0.1 0.41,-0.95 m -20.98,-1.99 0.42,0.21 0.43,0.18 0.44,0.15 0.45,0.13 0.45,0.1 0.46,0.07 0.46,0.04 0.47,0.01 m -0.01,-5.19 -0.47,0.01 -0.46,0.04 -0.46,0.07 -0.45,0.1 -0.45,0.13 -0.44,0.15 -0.43,0.18 -0.42,0.21 m 13.71,-0.89 h -10.13 m 0,5.2 h 6.52 m 12.52,10.66 0.11,-0.54 0.02,-1.29 -0.25,-1.3 -0.16,-0.38 m -4.82,1.75 0.39,0.95 0.75,1.09 0.86,0.84 0.03,0.02 m 2.82,-4.66 -2.8,-7.72 m -4.27,3.48 2.18,6.02 m -166.74,-10.3 0.18,0.27 0.68,0.62 0.9,0.39 0.75,0.07 m 0,-5.13 -0.37,-0.01 -0.9,0.25 -0.73,0.48 -0.52,0.64 -0.28,0.72 -0.04,0.74 0.2,0.72 0.12,0.24 m 19.3,-6.83 0.69,-0.86 0.34,-0.62 m -1.82,-2.78 -1.07,0.13 -1.3,0.42 -1.06,0.59 m -9.47,6.13 h -3.09 m 0,5.2 h 0.15 m 12.39,-11.34 -9.49,6.17 m 10.22,-0.45 2.11,-1.37 m -15.01,18.76 0.43,-0.34 0.84,-0.98 0.65,-1.16 0.12,-0.39 m -4.83,-1.75 -0.3,0.98 -0.12,1.32 0.12,1.2 0.01,0.04 m 5.15,-1.78 1.56,-4.28 m -2.89,-7.27 -3.55,9.78 m 12.01,-7.14 h 4.39 m 0,-5.2 h -6.29 m 9.56,1.06 -0.56,-0.38 -1.1,-0.45 -1.22,-0.21 -0.39,0.02 m 0,5.13 0.95,-0.05 1.19,-0.33 0.98,-0.51 0.16,-0.13 m -0.01,-3.09 -0.56,-0.38 -1.1,-0.45 -1.22,-0.21 -0.39,0.02 m -18.57,11.88 -0.15,0.23 -0.57,1.35 -0.28,1.33 -0.02,0.6 m 2.89,1.71 0.42,-0.29 m 1.68,-11.73 -3.99,6.79 m 4.46,-6.75 -0.01,0.04 -0.14,0.53 m 0.01,0 -0.14,0.53 -0.24,0.7 m 3.64,-7.19 -0.06,0.07 -0.35,0.15 h -0.13 m 5.81,-5.75 -5.24,5.51 m 8.26,-7.01 -0.59,0.08 -1.02,0.38 -0.97,0.63 -0.42,0.44 m -8.56,10.88 0.31,0.04 m -2.66,-1.76 0.27,0.56 m 2.4,-3.98 -0.17,0.02 m 223.98,0.01 -0.95,0.05 -1.19,0.33 -0.98,0.51 -0.16,0.13 m 0.01,3.09 0.56,0.38 1.1,0.45 1.22,0.21 0.22,-0.01 m 16.47,11.7 0.41,0.24 m 2.88,-1.68 -0.11,-1.16 -0.39,-1.34 -0.52,-1.01 m 0.02,-0.02 -4,-6.8 m 0.04,1.82 -0.1,-0.27 -0.29,-0.99 m 0.01,0 -0.05,-0.17 -0.06,-0.33 m -2.61,-5.17 h -0.04 l -0.36,-0.12 -0.13,-0.11 m -0.02,-0.02 -5.24,-5.51 m -0.03,0.03 -0.53,-0.53 -1,-0.61 -0.99,-0.33 -0.47,-0.05 m 11.25,12.44 0.91,-0.13 0.81,-0.4 0.61,-0.58 0.38,-0.69 0.13,-0.74 -0.1,-0.74 -0.35,-0.72 -0.64,-0.64 -0.88,-0.43 -0.87,-0.11 m -12.56,-6.14 -0.14,-0.11 -1.31,-0.63 -1.3,-0.34 -0.71,-0.05 m -1.8,2.78 0.56,0.93 0.46,0.51 m 16.79,3.04 h -3.09 m 2.94,5.2 h 0.15 m -3.05,-5.17 -9.49,-6.17 m -2.84,4.35 1.98,1.29 m 16.09,16.37 0.12,-0.55 0.02,-1.29 -0.25,-1.3 -0.16,-0.38 m -4.83,1.75 0.39,0.94 0.75,1.09 0.86,0.84 0.04,0.02 m -3.6,-7.08 1.53,4.2 m 4.89,-1.77 -3.55,-9.78 m -12.86,2.64 h 4.37 m 1.92,-5.2 h -6.29 m -3.27,4.15 0.56,0.38 1.1,0.45 1.22,0.21 0.39,-0.02 m 0,-5.13 -0.95,0.05 -1.19,0.33 -0.98,0.51 -0.16,0.13 m -143.02,-5.02 0.02,-0.3 -0.22,-1.03 -0.44,-0.85 -0.56,-0.61 -0.54,-0.34 m -1.65,0 -0.54,0.33 -0.59,0.66 -0.43,0.87 -0.2,1 0.02,0.28 m -0.04,2.35 -0.07,0.07 -0.86,0.7 -0.43,0.28 m 0.01,0 -0.18,0.12 -0.79,0.43 m -5.18,0.04 -0.95,0.05 -1.19,0.33 -0.98,0.51 -0.16,0.13 m 0.02,3.09 0.56,0.38 1.1,0.45 1.22,0.21 0.39,-0.02 m 15,-5.17 -0.69,-0.3 -1.16,-0.69 -0.67,-0.53 m -5.22,0.94 -0.4,0.4 -0.41,0.16 -0.14,0.01 m -1.83,5.26 v 0 0 m 8.22,-6.6 v -2.62 m -5.2,0.01 v 2.38 m -2.83,7.11 0.41,0.53 0.51,1.16 0.03,0.11 m 16.97,-2.13 0.46,-0.01 0.46,-0.04 0.46,-0.07 0.45,-0.1 0.45,-0.13 0.44,-0.15 0.43,-0.18 0.42,-0.21 m 0,-3.41 -0.42,-0.21 -0.43,-0.18 -0.44,-0.15 -0.45,-0.13 -0.45,-0.1 -0.46,-0.07 -0.46,-0.04 -0.46,-0.01 m -22.6,5.19 h 4.37 m 1.92,-5.2 h -6.29 m 22.6,0 h -10.13 m 3.58,5.2 h 6.55 m -16,11.78 0.45,-0.35 0.84,-0.98 0.65,-1.16 0.12,-0.39 m -4.82,-1.75 -0.31,0.98 -0.12,1.32 0.12,1.2 0.01,0.04 m 3.07,-11.27 -2.8,7.72 m 4.88,1.77 2.18,-6.01 m -92.77,-4.13 0.18,-0.28 m -1.08,1.11 0.09,-0.04 0.3,-0.25 m 6.06,-6.5 0.04,-0.04 m 0.01,0 0.02,-0.02 m 0.08,-0.06 0.83,-0.71 0.84,-1.05 0.34,-0.62 m -1.8,-2.78 -1.08,0.13 -1.3,0.42 -1.06,0.59 m -10.12,6.55 -0.12,0.09 -0.12,0.09 -0.11,0.1 -0.11,0.11 -0.1,0.11 -0.09,0.12 -0.09,0.12 -0.08,0.13 m -6.24,10.63 -0.15,0.23 -0.57,1.35 -0.28,1.33 -0.02,0.6 m 2.89,1.71 0.96,-0.67 0.98,-0.99 0.38,-0.57 m 0.01,0 0.03,-0.04 m 0,0 v 0 m 12.93,-21.01 -10.1,6.57 m -0.83,0.85 -6.25,10.62 m 12.35,-11.9 h -3.13 m 1.11,5.2 h 2.02 m 2.62,-3.54 -0.27,-0.51 -0.66,-0.63 -0.89,-0.4 -0.79,-0.08 m -0.01,5.13 0.32,0.02 0.91,-0.24 0.18,-0.11 m 0.06,-0.05 0.18,-0.11 m 0,0 0.32,-0.21 0.53,-0.63 0.11,-0.21 m 211.93,-38.24 0.22,0.18 1.01,0.49 0.95,0.22 h 0.09 m -17.5,-12.44 -0.95,0.04 -1.19,0.33 -0.98,0.51 -0.16,0.13 m 0.01,3.1 0.56,0.38 1.1,0.45 0.7,0.12 m 12.43,-4.68 -0.16,-0.1 -0.17,-0.08 -0.17,-0.07 -0.18,-0.06 -0.18,-0.05 -0.18,-0.03 -0.19,-0.02 -0.19,-0.01 m 0.01,0.01 h -10.11 m 24.06,9.68 -0.56,-0.94 -0.91,-1.02 -0.97,-0.73 m -2.15,4.7 0.78,0.38 1.3,0.34 0.7,0.05 m -16.08,-8.1 -0.01,-0.08 m 15.47,2.7 -10.1,-6.57 m -1.42,-0.41 h -3.86 m -2.62,3.54 0.06,0.17 0.43,0.57 m 2.13,-4.25 -0.54,0.01 -0.88,0.3 -0.7,0.52 -0.47,0.66 -0.04,0.13 m 1.06,3.06 0.32,0.21 0.57,0.15 m -0.01,0.01 0.02,0.01 m 0,-0.01 0.06,0.02 m 0,0 0.03,0.01 m -16.23,-1.57 0.07,-0.11 0.15,-0.74 -0.09,-0.75 -0.34,-0.72 -0.62,-0.65 -0.87,-0.44 -0.92,-0.13 m -0.01,0 h -3.86 m -12.49,0 -0.47,0.01 -0.46,0.04 -0.46,0.07 -0.45,0.1 -0.45,0.13 -0.44,0.15 -0.43,0.18 -0.42,0.21 m 0.01,3.4 0.2,0.1 0.2,0.1 0.2,0.09 0.2,0.08 0.21,0.08 0.21,0.07 0.21,0.07 0.21,0.06 m 14.42,-4.94 h -12.49 m 26.45,9.68 -0.56,-0.93 -0.91,-1.02 -0.97,-0.73 m -1.11,5.14 1.03,0.27 0.7,0.05 m -0.62,-5.48 -9.49,-6.17 m 4.55,9.16 2.11,1.37 m -11.29,-5.27 v 3.09 m 5.2,0 v -2.38 m -0.7,4.6 0.26,-0.41 0.35,-0.93 0.07,-0.88 m -5.15,0 0.05,0.8 0.33,0.95 0.51,0.74 0.59,0.5 0.27,0.12 m 1.64,0.03 0.06,-0.02 0.66,-0.48 0.36,-0.41 m -93.63,-11.36 -0.54,0.01 -0.88,0.3 -0.7,0.52 -0.47,0.66 -0.23,0.73 0.01,0.75 0.19,0.55 m 6.48,-3.55 h -3.86 m 19.92,0.89 -0.42,-0.21 -0.43,-0.18 -0.44,-0.15 -0.45,-0.13 -0.45,-0.1 -0.46,-0.07 -0.46,-0.04 -0.46,-0.01 m 1.93,4.94 0.21,-0.06 0.21,-0.07 0.21,-0.07 0.21,-0.08 0.21,-0.08 0.2,-0.09 0.2,-0.1 0.2,-0.1 m -5.91,0.9 h 0.34 m 1.99,-5.19 h -12.49 m -2.03,0.81 -9.49,6.17 m 2.83,4.36 1.98,-1.29 m -5.44,2.42 1.08,-0.13 0.63,-0.2 m -1.08,-5.15 -0.15,0.09 -1.11,0.94 -0.84,1.05 -0.33,0.62 m 16.55,-0.53 v -3.12 m -5.2,0.73 v 2.39 m 0,0 0.04,0.59 0.29,0.99 0.48,0.79 0.58,0.55 0.38,0.2 m 1.65,0.01 0.67,-0.45 0.56,-0.71 0.39,-0.9 0.15,-1.01 -0.01,-0.06 m 33.26,-1.76 -0.45,0.48 -0.58,1.03 -0.3,1.01 -0.04,0.55 m 2.09,1.98 0.58,-0.07 1.02,-0.38 0.97,-0.63 0.27,-0.29 m 8.93,-0.16 0.37,0.4 0.99,0.66 1,0.38 0.64,0.09 m 2.09,-1.99 -0.08,-0.75 -0.37,-1.04 -0.62,-0.98 -0.31,-0.3 m 0.02,-0.02 -1.12,-1.17 m -14.03,0.01 -1.1,1.16 m 8.12,-7.37 h -10.11 m 20.22,0 h -10.11 m -13.37,4.14 0.56,0.38 1.1,0.45 0.55,0.1 m 0,-0.01 0.15,0.03 m 0.91,-5.06 -0.95,0.04 -1.19,0.33 -0.98,0.51 -0.16,0.13 m 26.75,0.01 -0.56,-0.38 -1.1,-0.45 -1.22,-0.21 -0.39,0.02 m 0.01,5.13 0.32,-0.02 m 0.78,-0.07 1.03,-0.29 0.98,-0.51 0.16,-0.13 m 27.98,55.27 -0.01,0.18 0.18,1.33 0.42,1.15 0.41,0.67 m 3.18,0.03 v 0 l 0.55,-1.04 0.01,-0.02 m -4.76,-6.72 v 4.42 m -0.62,-5.25 0.18,0.18 0.82,1.2 0.08,0.18 m -4.75,-9.95 -0.49,0.42 m 0.7,-0.65 -0.02,0.03 -0.2,0.21 m -1.23,-1.76 1.6,1.68 m 3.93,-3.41 -1.76,-1.86 m 17.73,6.82 -0.56,-0.38 -1.1,-0.45 -1.22,-0.21 -0.39,0.02 m -19.58,-5.31 0.09,0.76 0.37,1.04 0.62,0.98 0.3,0.29 m 3.74,-3.55 -0.02,-0.03 -0.96,-0.78 -1.01,-0.49 -0.95,-0.22 h -0.08 m -115.02,-26.46 0.29,-0.02 1.01,-0.3 0.54,-0.3 m 16.43,-6.72 0.16,-0.01 0.21,-0.06 m 0,0.01 0.97,-0.27 0.98,-0.51 0.15,-0.12 m 0,-3.11 -0.56,-0.38 -1.1,-0.45 -1.22,-0.21 -0.39,0.02 m -10.1,-0.03 -0.19,0.01 -0.19,0.02 -0.18,0.03 -0.18,0.05 -0.18,0.06 -0.17,0.07 -0.17,0.08 -0.16,0.1 m 11.53,-0.42 h -10.11 m -1.41,0.41 -10.1,6.57 m -0.63,5.49 1.08,-0.13 1.3,-0.42 0.38,-0.21 m -2.13,-4.72 -0.16,0.09 -1.11,0.94 -0.84,1.05 -0.33,0.62 m 17.09,-4.5 h 0.1 m 0.62,-5.19 h -3.86 m 6.37,1.37 -0.18,-0.27 -0.68,-0.62 -0.9,-0.39 -0.75,-0.06 m 0.6,5.07 0.03,-0.01 m 0,0.01 0.08,-0.02 m 0,-0.01 0.56,-0.16 0.18,-0.12 m 1.19,-3.14 -0.01,-0.03 -0.13,-0.24 m -0.35,2.87 0.37,-0.45 0.1,-0.26 m 18.54,58.15 0.14,0.38 0.41,0.67 m 3.18,0.02 v 0 l 0.55,-1.04 0.35,-1.2 0.08,-1.1 m 0.03,0 v -4.44 m 4.76,-8.79 -0.05,-0.03 -0.39,-0.38 m -0.02,0.01 -0.2,-0.26 m -4.26,9.67 0.03,-0.05 m -15.84,-4.81 0.56,0.38 1.1,0.45 1.22,0.21 0.39,-0.02 m 0,-5.13 -0.95,0.05 -1.19,0.33 -0.98,0.51 -0.16,0.13 m 19.99,-1.64 1.51,-1.59 m -3.76,-3.59 -1.76,1.86 m 6.8,-0.63 0.1,-0.67 v -0.08 m -2.11,-1.99 -0.81,0.14 -1.02,0.43 -0.94,0.68 -0.23,0.27 m 3.71,3.55 0.41,-0.43 0.6,-1.02 0.29,-0.87"
           class="st7"
           inkscape:connector-curvature="0"
           style="fill:none;stroke:#000000;stroke-width:0.70899999;stroke-linecap:round;stroke-linejoin:round;stroke-miterlimit:10" />
        <path
           id="path7472"
           d="m 526.21803,247.62243 v 0 m -56.35,0 v 0 m -70.67,0 v 0"
           class="st7"
           inkscape:connector-curvature="0"
           style="fill:none;stroke:#000000;stroke-width:0.70899999;stroke-linecap:round;stroke-linejoin:round;stroke-miterlimit:10" />
      </g>
    </g>
  </g>
  <style
     id="style6508"
     type="text/css">
	.st0{font-family:'ArialUnicodeMS';}
	.st1{font-size:19.9584px;}
	.st2{font-size:20.1158px;}
	.st3{font-size:20.1547px;}
	.st4{fill:none;stroke:#000000;stroke-width:0.51;stroke-miterlimit:10;}
	.st5{fill:none;stroke:#000000;stroke-width:0.51;stroke-linecap:round;stroke-linejoin:round;stroke-miterlimit:10;}
	.st6{fill:none;stroke:#000000;stroke-width:0.709;stroke-linecap:round;stroke-linejoin:round;stroke-miterlimit:10;}
	
		.st7{fill:none;stroke:#000000;stroke-width:0.51;stroke-linecap:round;stroke-linejoin:round;stroke-miterlimit:10;stroke-dasharray:18,3.6,3.6,3.6,3.6,3.6;stroke-dashoffset:13;}
	
		.st8{fill:none;stroke:#000000;stroke-width:0.51;stroke-linecap:round;stroke-linejoin:round;stroke-miterlimit:10;stroke-dasharray:18,3.6,3.6,3.6,3.6,3.6;}
	
		.st9{fill:none;stroke:#000000;stroke-width:0.51;stroke-linecap:round;stroke-linejoin:round;stroke-miterlimit:10;stroke-dasharray:18,3.6,3.6,3.6,3.6,3.6;stroke-dashoffset:11;}
	
		.st10{fill:none;stroke:#000000;stroke-width:0.51;stroke-linecap:round;stroke-linejoin:round;stroke-miterlimit:10;stroke-dasharray:18,3.6,3.6,3.6,3.6,3.6;stroke-dashoffset:8;}
	
		.st11{fill:none;stroke:#000000;stroke-width:0.51;stroke-linecap:round;stroke-linejoin:round;stroke-miterlimit:10;stroke-dasharray:18,3.6,3.6,3.6,3.6,3.6;stroke-dashoffset:6;}
	
		.st12{fill:none;stroke:#000000;stroke-width:0.51;stroke-linecap:round;stroke-linejoin:round;stroke-miterlimit:10;stroke-dasharray:18,3.6,3.6,3.6,3.6,3.6;stroke-dashoffset:2;}
	
		.st13{fill:none;stroke:#000000;stroke-width:0.51;stroke-linecap:round;stroke-linejoin:round;stroke-miterlimit:10;stroke-dasharray:18,3.6,3.6,3.6,3.6,3.6;stroke-dashoffset:14;}
	
		.st14{fill:none;stroke:#000000;stroke-width:0.51;stroke-linecap:round;stroke-linejoin:round;stroke-miterlimit:10;stroke-dasharray:18,3.6,3.6,3.6,3.6,3.6;stroke-dashoffset:9;}
</style>
  <style
     id="style6716"
     type="text/css">
	.st0{fill:none;stroke:#000000;stroke-width:0.709;stroke-linecap:round;stroke-linejoin:round;stroke-miterlimit:10;}
</style>
  <style
     id="style6737"
     type="text/css">
	.st0{fill:none;stroke:#000000;stroke-width:0.709;stroke-linecap:round;stroke-linejoin:round;stroke-miterlimit:10;}
</style>
  <style
     id="style6777"
     type="text/css">
	.st0{fill:none;stroke:#000000;stroke-width:0.709;stroke-linecap:round;stroke-linejoin:round;stroke-miterlimit:10;}
</style>
  <style
     id="style6817"
     type="text/css">
	.st0{fill:none;stroke:#000000;stroke-width:0.51;stroke-miterlimit:10;}
	.st1{fill:none;stroke:#000000;stroke-width:0.51;stroke-linecap:round;stroke-linejoin:round;stroke-miterlimit:10;}
	.st2{fill:none;stroke:#000000;stroke-width:0.709;stroke-linecap:round;stroke-linejoin:round;stroke-miterlimit:10;}
</style>
  <style
     id="style6863"
     type="text/css">
	.st0{fill:none;stroke:#000000;stroke-width:0.709;stroke-linecap:round;stroke-linejoin:round;stroke-miterlimit:10;}
</style>
  <style
     id="style6893"
     type="text/css">
	.st0{font-family:'ArialUnicodeMS';}
	.st1{font-size:20.1547px;}
	.st2{fill:none;stroke:#000000;stroke-width:0.709;stroke-miterlimit:10;}
	.st3{fill:none;stroke:#000000;stroke-width:0.51;stroke-miterlimit:10;}
	.st4{fill:none;stroke:#000000;stroke-width:0.51;stroke-linecap:round;stroke-linejoin:round;stroke-miterlimit:10;}
	.st5{fill:none;stroke:#000000;stroke-width:0.709;stroke-linecap:round;stroke-linejoin:round;stroke-miterlimit:10;}
</style>
  <style
     id="style7035"
     type="text/css">
	.st0{fill:none;stroke:#000000;stroke-width:0.709;stroke-linecap:round;stroke-linejoin:round;stroke-miterlimit:10;}
	
		.st1{fill:none;stroke:#000000;stroke-width:0.51;stroke-linecap:round;stroke-linejoin:round;stroke-miterlimit:10;stroke-dasharray:18,3.6,3.6,3.6,3.6,3.6;stroke-dashoffset:11;}
	
		.st2{fill:none;stroke:#000000;stroke-width:0.51;stroke-linecap:round;stroke-linejoin:round;stroke-miterlimit:10;stroke-dasharray:18,3.6,3.6,3.6,3.6,3.6;}
	
		.st3{fill:none;stroke:#000000;stroke-width:0.51;stroke-linecap:round;stroke-linejoin:round;stroke-miterlimit:10;stroke-dasharray:18,3.6,3.6,3.6,3.6,3.6;stroke-dashoffset:9;}
	
		.st4{fill:none;stroke:#000000;stroke-width:0.51;stroke-linecap:round;stroke-linejoin:round;stroke-miterlimit:10;stroke-dasharray:18,3.6,3.6,3.6,3.6,3.6;stroke-dashoffset:16;}
	
		.st5{fill:none;stroke:#000000;stroke-width:0.51;stroke-linecap:round;stroke-linejoin:round;stroke-miterlimit:10;stroke-dasharray:18,3.6,3.6,3.6,3.6,3.6;stroke-dashoffset:13;}
	
		.st6{fill:none;stroke:#000000;stroke-width:0.51;stroke-linecap:round;stroke-linejoin:round;stroke-miterlimit:10;stroke-dasharray:18,3.6,3.6,3.6,3.6,3.6;stroke-dashoffset:12;}
	
		.st7{fill:none;stroke:#000000;stroke-width:0.51;stroke-linecap:round;stroke-linejoin:round;stroke-miterlimit:10;stroke-dasharray:18,3.6,3.6,3.6,3.6,3.6;stroke-dashoffset:3;}
	
		.st8{fill:none;stroke:#000000;stroke-width:0.51;stroke-linecap:round;stroke-linejoin:round;stroke-miterlimit:10;stroke-dasharray:18,3.6,3.6,3.6,3.6,3.6;stroke-dashoffset:8;}
</style>
  <style
     id="style7129"
     type="text/css">
	.st0{fill:none;stroke:#000000;stroke-width:0.709;stroke-linecap:round;stroke-linejoin:round;stroke-miterlimit:10;}
	
		.st1{fill:none;stroke:#000000;stroke-width:0.51;stroke-linecap:round;stroke-linejoin:round;stroke-miterlimit:10;stroke-dasharray:18,3.6,3.6,3.6,3.6,3.6;stroke-dashoffset:11;}
	
		.st2{fill:none;stroke:#000000;stroke-width:0.51;stroke-linecap:round;stroke-linejoin:round;stroke-miterlimit:10;stroke-dasharray:18,3.6,3.6,3.6,3.6,3.6;}
</style>
  <style
     id="style7172"
     type="text/css">
	.st0{font-family:'ArialUnicodeMS';}
	.st1{font-size:28.2167px;}
	.st2{font-size:16.5644px;}
	.st3{fill:none;stroke:#000000;stroke-width:0.51;stroke-miterlimit:10;}
	.st4{fill:none;stroke:#000000;stroke-width:0.51;stroke-linecap:round;stroke-linejoin:round;stroke-miterlimit:10;}
	.st5{fill:none;stroke:#000000;stroke-width:0.709;stroke-linecap:round;stroke-linejoin:round;stroke-miterlimit:10;}
	
		.st6{fill:none;stroke:#000000;stroke-width:0.51;stroke-linecap:round;stroke-linejoin:round;stroke-miterlimit:10;stroke-dasharray:18,3.6,3.6,3.6,3.6,3.6;}
	
		.st7{fill:none;stroke:#000000;stroke-width:0.51;stroke-linecap:round;stroke-linejoin:round;stroke-miterlimit:10;stroke-dasharray:18,3.6,3.6,3.6,3.6,3.6;stroke-dashoffset:6;}
	
		.st8{fill:none;stroke:#000000;stroke-width:0.51;stroke-linecap:round;stroke-linejoin:round;stroke-miterlimit:10;stroke-dasharray:18,3.6,3.6,3.6,3.6,3.6;stroke-dashoffset:4;}
	
		.st9{fill:none;stroke:#000000;stroke-width:0.51;stroke-linecap:round;stroke-linejoin:round;stroke-miterlimit:10;stroke-dasharray:18,3.6,3.6,3.6,3.6,3.6;stroke-dashoffset:7;}
</style>
  <style
     id="style7278"
     type="text/css">
	.st0{font-family:'ArialUnicodeMS';}
	.st1{font-size:28.2167px;}
	.st2{font-size:16.5644px;}
	.st3{fill:none;stroke:#000000;stroke-width:0.51;stroke-miterlimit:10;}
	.st4{fill:none;stroke:#000000;stroke-width:0.51;stroke-linecap:round;stroke-linejoin:round;stroke-miterlimit:10;}
	.st5{fill:none;stroke:#000000;stroke-width:0.709;stroke-linecap:round;stroke-linejoin:round;stroke-miterlimit:10;}
	
		.st6{fill:none;stroke:#000000;stroke-width:0.51;stroke-linecap:round;stroke-linejoin:round;stroke-miterlimit:10;stroke-dasharray:18,3.6,3.6,3.6,3.6,3.6;}
	
		.st7{fill:none;stroke:#000000;stroke-width:0.51;stroke-linecap:round;stroke-linejoin:round;stroke-miterlimit:10;stroke-dasharray:18,3.6,3.6,3.6,3.6,3.6;stroke-dashoffset:6;}
	
		.st8{fill:none;stroke:#000000;stroke-width:0.51;stroke-linecap:round;stroke-linejoin:round;stroke-miterlimit:10;stroke-dasharray:18,3.6,3.6,3.6,3.6,3.6;stroke-dashoffset:4;}
	
		.st9{fill:none;stroke:#000000;stroke-width:0.51;stroke-linecap:round;stroke-linejoin:round;stroke-miterlimit:10;stroke-dasharray:18,3.6,3.6,3.6,3.6,3.6;stroke-dashoffset:7;}
</style>
  <style
     id="style7365"
     type="text/css">
	.st0{font-family:'ArialUnicodeMS';}
	.st1{font-size:20.1547px;}
	.st2{fill:none;stroke:#000000;stroke-width:0.51;stroke-miterlimit:10;}
	.st3{fill:none;stroke:#000000;stroke-width:0.51;stroke-linecap:round;stroke-linejoin:round;stroke-miterlimit:10;}
	.st4{fill-rule:evenodd;clip-rule:evenodd;}
	.st5{fill:none;stroke:#000000;stroke-width:0.709;stroke-linecap:round;stroke-linejoin:round;stroke-miterlimit:10;}
</style>
  <style
     id="style7444"
     type="text/css">
	.st0{font-family:'ArialUnicodeMS';}
	.st1{font-size:19.9683px;}
	.st2{font-size:19.9682px;}
	.st3{font-size:19.9684px;}
	.st4{font-size:10.3528px;}
	.st5{fill:none;stroke:#000000;stroke-width:0.51;stroke-miterlimit:10;}
	.st6{fill:none;stroke:#000000;stroke-width:0.51;stroke-linecap:round;stroke-linejoin:round;stroke-miterlimit:10;}
	.st7{fill:none;stroke:#000000;stroke-width:0.709;stroke-linecap:round;stroke-linejoin:round;stroke-miterlimit:10;}
</style>
</svg>
