<?xml version="1.0" encoding="UTF-8" standalone="no"?>
<!-- Created with Inkscape (http://www.inkscape.org/) -->

<svg
   xmlns:dc="http://purl.org/dc/elements/1.1/"
   xmlns:cc="http://creativecommons.org/ns#"
   xmlns:rdf="http://www.w3.org/1999/02/22-rdf-syntax-ns#"
   xmlns:svg="http://www.w3.org/2000/svg"
   xmlns="http://www.w3.org/2000/svg"
   xmlns:sodipodi="http://sodipodi.sourceforge.net/DTD/sodipodi-0.dtd"
   xmlns:inkscape="http://www.inkscape.org/namespaces/inkscape"
   width="110mm"
   height="105mm"
   viewBox="0 0 110 105"
   version="1.1"
   id="svg1244"
   inkscape:version="0.92.3 (2405546, 2018-03-11)"
   sodipodi:docname="5.svg">
  <defs
     id="defs1238" />
  <sodipodi:namedview
     id="base"
     pagecolor="#ffffff"
     bordercolor="#666666"
     borderopacity="1.0"
     inkscape:pageopacity="0.0"
     inkscape:pageshadow="2"
     inkscape:zoom="1.33"
     inkscape:cx="429.77444"
     inkscape:cy="216.67547"
     inkscape:document-units="mm"
     inkscape:current-layer="layer1"
     showgrid="false"
     inkscape:window-width="1853"
     inkscape:window-height="1025"
     inkscape:window-x="67"
     inkscape:window-y="27"
     inkscape:window-maximized="1" />
  <metadata
     id="metadata1241">
    <rdf:RDF>
      <cc:Work
         rdf:about="">
        <dc:format>image/svg+xml</dc:format>
        <dc:type
           rdf:resource="http://purl.org/dc/dcmitype/StillImage" />
        <dc:title></dc:title>
      </cc:Work>
    </rdf:RDF>
  </metadata>
  <g
     inkscape:label="Layer 1"
     inkscape:groupmode="layer"
     id="layer1"
     transform="translate(0,-192)">
    <g
       id="g6756"
       transform="matrix(0.26458333,0,0,0.26458333,-48.563266,158.31037)">
      <path
         id="path6739"
         d="m 340.31,454.33 -0.12,0.02 -0.56,-0.13 -0.7,-0.41 -0.74,-0.62 -0.65,-0.74 -0.48,-0.75 -0.23,-0.64 0.01,-0.32 m 6.04,-33.91 -0.22,-0.03 -0.58,0.14 -0.75,0.37 -0.81,0.55 -0.75,0.63 -0.57,0.63 -0.3,0.52 -0.03,0.23 m 23.51,9.59 0.17,1.05 0.23,1.04 0.29,1.02 0.35,1 0.41,0.98 0.47,0.95 0.53,0.92 0.58,0.89 m -17.36,0.79 0.54,-0.7 0.26,-0.71 0.02,-0.77 -0.18,-0.67 -0.41,-0.7 m 13.86,-20.66 0.16,-0.02 0.5,0.1 0.76,0.25 0.89,0.36 0.9,0.41 0.76,0.4 0.51,0.33 0.18,0.21 m 8.93,33.09 0.13,-0.11 0.29,-0.44 0.39,-0.71 0.42,-0.87 0.39,-0.9 0.3,-0.79 0.16,-0.57 0.01,-0.25 m -20.54,-2.2 -0.82,-0.24 -0.86,0.03 -0.71,0.27 -0.5,0.38 m -2.14,2.18 v 0 l 0.05,-0.06 0.17,-0.21 0.42,-0.47 0.51,-0.51 m 0.98,-0.93 -0.98,0.94 m -6.61,-4.25 1.26,-1.21 m -1.26,1.21 -0.69,0.63 -0.24,0.2 -0.07,0.07 m 0.69,-8.03 0.05,0.07 0.39,0.5 0.27,0.36 m 0.01,0 1.09,1.43 m 3.01,-8.12 -0.2,-0.26 m 0.01,0 -0.35,-0.55 -0.08,-0.17 m 0,0 -0.08,-0.28 0.01,-0.18 0.08,-0.04 0.1,0.06 m 0.51,1.42 0.99,0.95 0.58,0.28 0.65,0.08 0.55,-0.15 0.56,-0.39 0.68,-0.89 0.25,-0.51 m 5.13,6.89 -0.24,0.9 0.04,0.77 0.31,0.71 0.47,0.52 0.71,0.44 m -5.79,-11.87 v 0 l -0.07,0.19 -0.09,0.29 -0.18,0.5 -0.14,0.32 m 0,0.01 -0.14,0.32 m 5.12,6.9 0.74,-1.71 m 0,0.01 0.47,-0.93 0.22,-0.34 0.19,-0.23 0.07,-0.06 v 0.04 m 3.05,7.85 0.02,0.01 -0.09,-0.01 -0.19,-0.03 -0.38,-0.09 -0.67,-0.23 -0.44,-0.18 m -1.7,-0.77 1.7,0.77 m -5.08,6 -1.32,-0.6 m 1.32,0.6 1.04,0.47 v 0 m 178.58,-88.32 0.77,0.02 0.84,0.34 0.79,0.59 0.61,0.76 0.35,0.82 0.05,0.59 m -11.63,25.02 -0.25,-0.06 m 6.74,8.7 0.14,0.05 0.57,-0.02 m 0,0 0.78,-0.24 0.86,-0.43 0.82,-0.55 0.65,-0.59 0.38,-0.53 0.08,-0.3 m -11.02,-6.09 -0.2,-0.04 -2.08,-0.1 m 5.35,-12.93 -0.42,0.64 -0.19,0.67 v 0.13 m -3.92,-7.98 v 0 l 0.04,0.02 -0.04,0.14 -0.25,0.38 -0.38,0.44 m -0.77,0.84 0.77,-0.84 m 6.15,4.49 -0.99,1.08 m 0.99,-1.08 0.44,-0.47 m -9.02,-2.62 h 0.62 l 0.62,-0.23 0.41,-0.33 m 3.17,16.15 0.17,0.27 m 0,0.01 0.26,0.59 0.04,0.19 m 0,0 -0.01,0.33 -0.12,0.24 -0.19,0.09 -0.19,-0.02 m -10.67,-4.92 -0.17,-1.05 -0.23,-1.04 -0.29,-1.02 -0.35,-1 -0.41,-0.98 -0.47,-0.95 -0.53,-0.92 -0.58,-0.89 m 13.74,11.07 -0.86,-1.02 -0.51,-0.31 -0.58,-0.11 -0.51,0.13 -0.52,0.38 -0.66,0.88 -0.25,0.5 m -4.72,-7.09 0.24,-0.9 -0.04,-0.77 -0.31,-0.71 -0.47,-0.52 -0.71,-0.44 m -14.91,-11.8 0.28,-0.5 0.27,-0.38 0.13,-0.04 -0.04,0.31 -0.19,0.61 -0.32,0.82 -0.4,0.91 -0.42,0.85 -0.37,0.67 -0.27,0.38 -0.13,0.04 0.03,-0.31 0.19,-0.61 m 0.02,0 0.06,-0.17 m 14.27,31.37 0.58,0.18 0.45,0.08 0.11,-0.09 -0.25,-0.23 -0.56,-0.35 -0.8,-0.41 -0.91,-0.4 -0.88,-0.34 -0.72,-0.23 -0.45,-0.08 -0.11,0.09 0.25,0.23 0.56,0.35 0.12,0.07 m -10.3,-32.74 0.01,0.01 -0.02,0.17 -0.11,0.34 -0.18,0.46 -0.22,0.5 -0.23,0.48 -0.21,0.37 -0.15,0.21 -0.06,0.04 m 14.19,31.05 v -0.03 l -0.14,-0.13 -0.31,-0.19 -0.44,-0.23 -0.5,-0.22 -0.49,-0.19 -0.4,-0.12 -0.25,-0.04 -0.06,0.02 m 10.05,-9.79 0.1,-0.23 m 0.01,-0.01 0.14,-0.32 m -4.73,-7.09 -0.74,1.7 m -0.01,0 -0.52,0.95 -0.29,0.37 -0.29,0.28 -0.16,0.1 -0.1,0.01 m -0.07,0.03 0.08,-0.02 m -0.08,0.02 -0.02,0.07 m -3.08,-7.93 0.08,0.05 m 0,0 0.06,-0.06 m 0,0 0.07,-0.07 0.18,-0.04 0.26,-0.01 0.46,0.06 0.73,0.2 0.45,0.18 m 1.7,0.78 -1.7,-0.77 m -243.07,-54.76 0.25,-0.29 0.69,-0.42 0.91,-0.25 0.99,-0.04 0.93,0.18 0.72,0.37 0.27,0.27 m -19.68,34.41 -0.02,0.12 0.11,0.57 0.38,0.72 0.59,0.76 0.71,0.68 0.73,0.5 0.63,0.25 h 0.32 m 11.22,-8.31 -1.68,1.1 m 7.7,-0.37 -0.61,-0.2 -0.92,-0.25 -0.93,-0.18 -0.94,-0.12 -0.94,-0.06 -0.94,0.01 -0.94,0.07 -0.93,0.14 m 7.28,-17.3 0.06,1.55 m -0.06,-1.55 0.08,-0.8 0.12,-0.25 0.18,-0.1 0.14,0.06 0.13,0.18 m -0.59,2.46 0.16,0.74 0.36,0.52 0.57,0.35 0.64,0.14 0.23,-0.01 m -4.45,11.54 -0.63,-0.62 -0.63,-0.3 -0.68,-0.03 -0.6,0.2 -0.62,0.45 m 26.55,-8.67 -0.05,-0.03 -0.11,-0.2 m 0,0 -0.12,-0.38 -0.11,-0.5 -0.08,-0.55 -0.04,-0.51 0.01,-0.39 0.05,-0.21 0.04,-0.03 m -27.37,14.21 h 0.02 l -0.2,0.01 m -0.01,0 -0.27,0.01 m 0,0.01 -0.18,-0.03 -0.11,-0.12 -0.03,-0.19 0.1,-0.35 0.35,-0.54 0.3,-0.32 m 1.25,-1.22 -1.26,1.21 m 14.27,-6.3 0.33,-0.05 m 0,0 0.72,-0.03 0.23,0.03 m 0,-0.01 0.41,0.1 0.32,0.15 0.18,0.15 0.05,0.11 m -0.01,-0.01 0.01,0.1 0.11,0.02 m -2.35,-0.56 -1.36,0.42 -0.55,0.37 -0.42,0.52 -0.16,0.55 0.04,0.67 0.41,1 0.3,0.45 m 15.63,-7.62 v 0.04 l -0.01,0.7 -0.09,0.38 -0.16,0.01 -0.2,-0.37 m -0.01,0 -0.22,-0.69 -0.2,-0.91 -0.14,-0.98 -0.07,-0.91 0.01,-0.7 0.09,-0.38 0.16,-0.01 0.2,0.37 0.21,0.66 m -8.17,22.99 0.04,-0.05 0.42,-0.58 0.12,-0.42 m 0,0 -0.2,-0.21 -0.48,0.04 -0.7,0.28 -0.8,0.48 -0.79,0.61 -0.65,0.64 -0.42,0.58 -0.12,0.42 0.2,0.21 0.48,-0.04 0.64,-0.25 m 1.89,-2.19 -0.08,-0.05 -0.27,0.02 -0.39,0.16 -0.45,0.27 -0.44,0.34 -0.36,0.36 -0.23,0.32 -0.07,0.24 0.03,0.07 m -2.6,-12.23 -0.04,-0.04 m 0,0 -0.11,-0.05 -0.21,-0.12 -0.27,-0.19 -0.31,-0.25 -0.42,-0.42 -0.22,-0.27 m -0.01,0.01 -0.21,-0.27 m -8.1,1.41 1.09,1.43 m -0.01,0 0.64,0.86 0.17,0.23 m 128.04,-49.17 -0.06,-0.08 -0.6,-0.43 -0.86,-0.26 -0.99,-0.05 -0.96,0.16 -0.8,0.36 -0.49,0.48 m -20.02,26.38 -0.19,-0.22 -0.22,-0.57 -0.21,-0.83 -0.17,-0.97 -0.1,-0.96 -0.02,-0.8 0.06,-0.52 0.08,-0.15 m 14.29,6.36 -0.01,-0.01 -0.44,-0.52 -1.6,-1.34 m 34.6,2.02 0.01,0.1 -0.1,0.44 -0.25,0.71 -0.36,0.88 -0.41,0.9 -0.41,0.79 -0.34,0.56 -0.21,0.26 -0.02,0.01 m -29.33,-2.65 -0.07,-0.21 -1.05,-1.94 m 17.06,0.14 -1.04,0.16 -1.03,0.22 -1.01,0.28 -0.99,0.35 -0.97,0.41 -0.94,0.47 -0.91,0.52 -0.87,0.58 m 4.05,-14.51 0.15,0.72 0.36,0.61 m -9.78,-0.51 0.11,-0.03 0.66,-0.39 0.49,-0.55 0.26,-0.58 0.08,-0.7 m -0.24,-2.6 v 0 l 0.03,0.02 0.06,0.18 0.07,0.48 0.02,0.38 m 0.05,1.55 -0.06,-1.55 m 7.7,1.77 0.04,1.2 m -0.04,-1.2 -0.02,-0.88 v -0.28 -0.02 m 2.35,12.63 -1.7,-0.77 m 1.7,0.77 0.91,0.52 0.32,0.28 0.21,0.26 0.04,0.14 -0.06,0.08 m -0.1,0.04 0.1,-0.05 m -0.1,0.05 h 0.03 m -3.05,-2.09 -0.89,-0.25 -0.76,0.04 -0.7,0.3 -0.51,0.47 -0.43,0.71 m -8.59,1.08 0.37,-1.37 -0.02,-0.65 -0.23,-0.6 -0.39,-0.39 -0.6,-0.27 -1.09,-0.11 -0.56,0.05 m -0.76,16.86 0.01,-0.01 0.17,0.01 0.34,0.09 0.46,0.17 0.51,0.21 0.48,0.23 0.37,0.21 0.21,0.16 0.04,0.07 m 7.93,-11.99 0.01,-0.05 0.03,-0.16 0.05,-0.24 0.11,-0.44 0.24,-0.72 0.18,-0.45 m -0.01,0.01 0.74,-1.7 m -8.59,1.08 -0.14,0.31 m 0,0 -0.31,0.65 -0.1,0.2 m 0,0 -0.19,0.35 -0.11,0.23 m -3.28,-4.07 -0.09,-0.13 0.04,-0.18 0.16,-0.2 0.28,-0.19 0.51,-0.19 0.34,-0.07 m 0,0 0.35,-0.05 m -0.85,17.1 -0.49,-0.28 -0.38,-0.29 -0.04,-0.15 m 0,0 0.31,0.01 0.62,0.17 0.83,0.3 0.91,0.39 0.86,0.41 0.67,0.38 0.38,0.29 0.04,0.15 -0.32,-0.01 -0.62,-0.17 -0.19,-0.06 m 97.1,146.14 0.08,0.04 0.44,0.46 0.36,0.76 0.22,0.95 0.05,0.99 -0.13,0.88 -0.29,0.64 -0.18,0.18 m -27.14,21.64 0.07,0.12 0.47,0.42 0.77,0.35 0.95,0.22 0.98,0.05 0.87,-0.12 0.62,-0.27 0.17,-0.16 m 12.17,-43.14 -0.07,-0.1 -0.38,-0.29 -0.67,-0.38 -0.86,-0.41 -0.91,-0.39 -0.83,-0.3 -0.62,-0.17 -0.32,-0.01 -0.01,0.01 m -14.56,15.39 1.04,-0.16 1.03,-0.22 1.01,-0.28 0.99,-0.35 0.97,-0.41 0.94,-0.47 0.91,-0.52 0.87,-0.58 m 5.3,13.83 -0.84,0.22 -0.65,0.38 -0.53,0.56 -0.32,0.61 -0.19,0.76 m 4.49,-13.69 -0.39,1.38 -0.01,0.66 0.19,0.62 0.34,0.42 0.53,0.31 0.98,0.17 0.51,-0.03 m 1.27,-0.59 0.03,0.07 -0.07,0.15 -0.19,0.14 -0.42,0.15 -0.3,0.05 m 0,0 -0.32,0.04 m -9.51,-6.15 0.1,-0.05 m 0,0 h 0.09 l 0.06,0.11 0.03,0.2 -0.03,0.4 -0.18,0.69 -0.17,0.44 m 0,0.01 -0.74,1.7 m 8.2,-0.89 0.13,-0.31 m -11.89,12.38 -0.04,-0.78 -0.33,-0.74 -0.53,-0.54 -0.57,-0.33 m 1.73,-7.52 0.89,0.25 0.76,-0.04 0.7,-0.3 0.51,-0.47 0.43,-0.71 m -21.91,-1.55 h 0.02 l 0.12,-0.14 0.19,-0.31 0.23,-0.44 0.23,-0.5 0.2,-0.49 0.14,-0.4 0.06,-0.25 -0.01,-0.06 m 24.46,16.94 0.01,-0.06 m -7.46,-0.25 0.16,-1.31 m -0.16,1.31 -0.19,0.98 -0.12,0.35 -0.13,0.21 -0.06,0.01 -0.03,-0.1 v -0.07 m -3.08,-6.13 0.27,0.12 0.73,0.33 m 1.32,0.59 -1.32,-0.59 m 1.34,-7.69 1.7,0.77 m -1.7,-0.77 -0.96,-0.5 -0.38,-0.24 -0.31,-0.21 -0.13,-0.09 -0.04,-0.02 m -15.3,-1.08 -0.19,0.57 -0.1,0.44 0.06,0.11 m 0,0 0.22,-0.25 0.34,-0.56 0.41,-0.79 0.42,-0.9 0.36,-0.87 0.25,-0.71 0.1,-0.44 -0.06,-0.11 -0.22,0.25 -0.34,0.56 -0.08,0.11 m 138.33,-5.23 0.01,0.17 -0.16,0.28 -0.32,0.32 -0.43,0.32 -0.48,0.26 -0.46,0.17 -0.36,0.05 -0.21,-0.08 -0.02,-0.02 m -396.08,-55.25 -0.08,0.05 -0.27,-0.01 -0.37,-0.18 -0.41,-0.31 -0.39,-0.4 m 0,0 -0.3,-0.42 -0.18,-0.38 -0.02,-0.29 0.06,-0.1 m 78.35,102.68 -0.13,0.06 -0.3,-0.05 -0.38,-0.21 -0.41,-0.33 -0.37,-0.41 -0.28,-0.42 m 0,0 -0.14,-0.37 0.01,-0.26 0.04,-0.06 m 321.58,-42.9 h 0.08 l 0.25,0.15 0.23,0.34 0.17,0.48 0.08,0.55 -0.02,0.53 -0.11,0.43 m 0,-0.01 -0.19,0.27 -0.16,0.07 m -249.51,-32.83 -1.04,1.09 -1.03,1.62 -0.67,1.65 -0.05,0.24 m 3.43,3.54 1.06,-0.27 1.7,-0.79 1.56,-1.11 0.38,-0.4 m 6.01,-26.75 -0.3,-0.05 m -3.57,-4.73 -1.14,-1.31 -1.53,-1.2 -1.59,-0.85 m -3.97,3.01 0.21,1.27 0.65,1.81 0.98,1.69 0.23,0.26 m 5.3,6.88 0.16,1.33 0.06,2.61 -0.29,2.59 -0.49,2.07 m 7.77,-15.37 -0.25,0.04 -1.72,0.02 -0.56,-0.11 m 5.27,-0.86 -0.32,0.17 -1.63,0.59 -0.79,0.12 m -1.31,19.87 1.49,-0.44 3,-0.59 3.07,-0.24 h 0.62 m 5.55,-22.21 0.64,-1.88 0.29,-1.96 -0.04,-1.6 m -4.62,-2.01 -1.11,0.95 -1.26,1.53 -0.98,1.74 -0.04,0.13 m 11.53,29.8 1.9,0.67 1.96,0.31 1.57,-0.02 m 2.07,-4.6 -0.95,-1.14 -1.52,-1.28 -1.74,-1 -0.1,-0.04 m -27.71,-0.75 -6.17,5.93 m 5.4,5.62 7.24,-6.95 m -11.31,-19.9 5.53,7.28 m 4.29,-7.24 -3.61,-4.76 m 15.22,9.28 3.53,-8.1 m -7.15,-3.12 -2.57,5.9 m 17.32,16.81 -8.08,-3.64 m -5.78,5.95 10.66,4.8 m 169.18,-85.35 0.06,-0.05 1.07,-1.47 0.68,-1.52 0.32,-1.46 v -0.17 m -3.38,-3.09 -0.29,0.03 -1.49,0.49 -1.45,0.84 -1.23,1.1 m 0.36,18.11 -0.05,-0.41 -0.12,-2.58 0.16,-2.52 0.31,-1.83 m -1.82,19.78 0.92,1.34 1.38,1.36 1.48,1.01 0.11,0.05 m 4.23,-2.59 -0.06,-1.19 -0.43,-1.85 -0.78,-1.77 -0.26,-0.37 m -10.83,-20.57 -1.31,0.35 -2.68,0.44 -2.72,0.11 m 3.54,19.4 0.29,-0.15 1.46,-0.51 0.67,-0.07 m 4.88,-10.15 -0.23,-0.48 -0.09,-0.92 v -0.02 m 2.06,-2.99 5.25,-5.68 m -5.73,-5.29 -5.66,6.13 m -2.88,2.24 -0.19,-0.02 -0.13,-0.05 m 14.34,18.2 -6.73,-11.05 m -2.92,10.19 2.99,4.91 m -16.66,-17.74 0.99,1.35 0.99,1.88 0.75,2.11 0.44,2.2 0.03,0.66 m -15.32,-15.18 0.96,1.15 1.52,1.28 1.74,1 0.1,0.04 m 3.18,-7.11 -1.9,-0.67 -1.96,-0.31 -1.58,0.02 m 13.58,35.11 1.12,-0.95 1.26,-1.53 0.98,-1.74 0.04,-0.12 m -7.13,-3.11 -0.64,1.88 -0.29,1.96 0.04,1.61 m 4.4,-13.53 -3.52,8.08 m 7.15,3.11 3.07,-7.04 m -17.81,-15.67 8.04,3.62 m 8.7,-4.62 -13.54,-6.1 m -229.53,-39.03 -0.07,-1.14 -0.47,-1.74 -0.73,-1.46 -0.42,-0.55 m -4.68,0.18 -0.52,0.85 -0.58,1.6 -0.27,1.75 0.05,0.8 m -10.85,24.65 -1.04,1.09 -1.03,1.62 -0.67,1.65 -0.05,0.24 m 3.43,3.54 1.07,-0.28 1.7,-0.79 1.56,-1.11 0.38,-0.4 m 5.85,-19.39 -0.1,0.31 -1.14,2.85 -0.98,2 m 15.02,-5.89 -0.57,-0.22 -1.98,-1.05 -1.72,-1.32 -1.17,-1.22 m -7.3,6.36 0.01,0.06 -0.21,0.96 -0.56,0.85 -0.01,0.01 m 0.62,10.17 0.67,-0.16 1.02,-0.08 m 14.6,-6.55 0.19,-0.24 0.34,-0.28 m -9.09,-10.81 -0.26,-6.86 m -7.78,0.29 0.47,12.53 m 8.82,-1.86 h 0.02 -0.02 m 6.07,9.1 0.01,-0.02 0.68,-1.2 0.55,-0.62 m -1.8,4.57 0.05,-0.87 0.38,-1.5 0.16,-0.34 m -20.81,10.45 5.84,-5.61 m -0.78,-10.05 -10.46,10.04 m 33,-15.88 -12.88,1.93 m 7.7,6.73 6.33,-0.95 m 4.32,-7.12 -1.35,-0.43 -1.95,-0.27 -1.99,0.08 -0.18,0.04 m 1.15,7.69 1.87,-0.43 1.81,-0.79 1.37,-0.91 m -7.91,18 -0.21,-1.24 -0.65,-1.81 -0.98,-1.69 -0.23,-0.26 m -6.15,4.67 1.14,1.31 1.53,1.21 1.6,0.85 h 0.01 m -9.84,-10.63 5.53,7.28 m 6.21,-4.71 -3.73,-4.91 m 121.68,-41.95 -0.06,-1.14 -0.47,-1.73 -0.73,-1.46 -0.42,-0.55 m -4.69,0.17 -0.52,0.85 -0.58,1.6 -0.27,1.75 0.04,0.8 m 0.29,7.22 -0.67,1.02 -1.55,1.9 -1.84,1.73 -1.27,0.94 m 17.42,1.84 -0.45,-0.47 -1.9,-2.3 -1.61,-2.43 -0.43,-0.77 m -22.42,5.56 -1.88,0.43 -1.81,0.79 -1.39,0.92 m 0.78,4.97 1.32,0.43 1.95,0.27 1.99,-0.09 0.19,-0.04 m 19.53,2.63 -0.02,0.01 m -10.37,0.25 0.1,0.28 m 10.3,-0.51 1.01,-0.5 1.96,-0.68 1.93,-0.4 0.71,-0.05 m 7.95,3.59 1.9,0.67 1.96,0.31 1.56,-0.02 m 2.09,-4.59 -0.96,-1.14 -1.52,-1.28 -1.74,-1 -0.1,-0.04 m -13.57,-6.14 -0.61,-0.43 -0.14,-0.22 m -9.82,-0.51 -0.2,0.1 -0.19,0.03 m 1.48,-12.28 0.27,7.38 m 7.86,1.57 -0.34,-9.25 m 4.03,23.23 8.04,3.62 m 3.2,-7.11 -13.54,-6.1 m -8.9,20.6 3.53,-8.1 m -8.1,-0.93 -2.58,5.92 m 5.02,-18.54 -12.88,1.93 m 1.15,7.71 6.31,-0.94 m 4.14,17.29 1.11,-0.95 1.26,-1.53 0.98,-1.74 0.04,-0.13 m -7.12,-3.1 -0.64,1.88 -0.29,1.96 0.04,1.6 m 96.26,154.79 0.68,-0.05 1.85,-0.54 1.58,-0.81 0.78,-0.6 m -0.55,-4.82 -0.32,-0.17 -1.69,-0.54 -1.83,-0.22 -1.38,0.11 m -22.1,22.08 -0.12,0.89 0.12,1.92 0.44,1.72 0.33,0.72 m 4.83,0.6 0.36,-0.42 0.9,-1.57 0.61,-1.76 0.16,-1.15 m 1.13,-8.7 0.56,-0.79 1.7,-1.99 1.92,-1.77 1.51,-1.12 m 2.53,-7.96 -0.26,-0.2 -1.09,-1.17 -0.38,-0.63 m -0.02,0.03 -0.13,-0.2 -0.67,-1.55 -0.12,-0.51 m -10.15,0 0.02,-0.01 m -7.07,9.58 0.8,0.96 1.65,2.43 1.3,2.59 0.3,0.75 m 15.73,-22.54 0.64,-1.88 0.29,-1.96 -0.04,-1.61 m -4.63,-1.99 -1.11,0.94 -1.26,1.53 -0.98,1.74 -0.04,0.13 m -3.52,8.04 -0.61,0.46 -1.49,0.83 m 7.47,12.53 1.98,-0.23 m -0.01,0.01 9.4,-1.08 m -0.88,-7.75 -5.3,0.61 m -7.04,-13.43 -3.52,8.08 m 7.54,2.22 3.13,-7.18 m -9.23,32.79 1.44,-11.58 m -7.98,1.02 -0.02,0.16 m 0,0 -1.17,9.44 m -1.36,-23.92 -8.08,-3.64 m -3.2,7.11 10.74,4.84 m -15.04,-8.3 0.95,1.13 1.52,1.28 1.74,1 0.1,0.04 m 3.18,-7.09 -1.9,-0.67 -1.96,-0.31 -1.58,0.02 m 51.82,-118.9 -75.65,-34.1 m -1.17,2.59 75.65,34.1 m -51.08,117.33 -75.65,-34.1 m -1.16,2.59 75.65,34.1 m -86.16,-66.93 33.04,-75.84 m -2.6,-1.13 -33.04,75.84 m 122.15,55.02 33.04,-75.84 m -2.6,-1.13 -33.04,75.84 m 108.51,6.26 -51.2,-84.14 m -2.43,1.48 51.2,84.14 m -297.55,-120.29 48.1,63.36 m 2.26,-1.71 -48.1,-63.36 m -100.79,66.74 69.93,-67.17 m -1.96,-2.05 -69.94,67.17 m 111.39,-84.35 81.27,-12.18 m -0.42,-2.81 -81.27,12.18 m -32.61,189.85 69.94,-67.17 m -1.97,-2.05 -69.94,67.17 m 321.59,-42.9 -92.19,10.59 m 0.33,2.81 92.19,-10.59"
         class="st0"
         inkscape:connector-curvature="0"
         style="fill:none;stroke:#000000;stroke-width:0.70899999;stroke-linecap:round;stroke-linejoin:round;stroke-miterlimit:10" />
      <path
         id="path6741"
         d="m 341.11,206.47 0.58,-0.49 1.02,-0.5 m 16.57,13.06 -1.11,0.45 -1.32,0.39 -1.38,0.28 m -0.13,0.03 h 0.01 l 0.11,-0.02 m 16.88,-1.87 0.31,-0.11 0.46,-0.56 0.31,-0.96 0.12,-1.24 -0.08,-1.36 -0.27,-1.32 -0.19,-0.56 m -4.46,-1.6 0.01,-0.06 0.04,-0.08 0.05,-0.07 0.01,-0.01 0.15,-0.12 0.23,-0.09 m -14.86,9.89 -0.14,-0.01 -0.14,-0.02 -0.14,-0.02 -0.13,-0.03 -0.13,-0.04 -0.13,-0.05 -0.12,-0.05 -0.04,-0.02 m -7.16,-12.17 0.73,0.79 0.4,1.1 0.01,1.29 -0.38,1.31 -0.72,1.16 -0.97,0.88 -1.11,0.48 -1.1,0.03 -0.57,-0.19 m 13.14,5.67 1.06,-0.27 m 4.65,-9.6 -0.83,0.39 -0.91,0.89 -0.55,1.19 -0.12,1.35 0.32,1.33 0.72,1.16 1.04,0.83 1.22,0.41 1.25,-0.07 0.17,-0.05 m 156.95,-24.93 -1.05,0.15 -1.25,-0.27 -1.11,-0.72 -0.17,-0.17 m 11.01,-1.3 -0.12,0.04 -0.16,0.04 -0.16,0.03 -0.16,0.02 m -0.01,0 -1.14,0.16 -0.39,0.02 m 3.13,-0.78 v 0 l 0.12,-0.09 0.11,-0.09 0.11,-0.1 0.1,-0.1 0.1,-0.11 m 8.67,-5.6 v 0 l 0.78,-0.81 0.41,-1.11 v -1.27 l -0.42,-1.28 -0.33,-0.57 m -6.83,8.05 -0.53,0.76 -0.81,0.95 -0.93,0.89 m -0.01,0 0.86,-0.94 m -3.6,2.1 0.6,-0.08 m -17.98,-5.83 0.58,0.17 0.56,0.63 0.47,1.02 0.33,1.27 0.14,1.37 -0.06,1.29 -0.26,1.06 -0.42,0.7 -0.46,0.24 m 23.5,-19.99 -0.27,0.53 -0.02,0.92 0.39,1.06 0.75,1.06 1.01,0.93 1.15,0.68 1.15,0.35 1,-0.02 0.73,-0.39 0.07,-0.07 m -247.39,7.39 -0.11,0.26 -0.72,1.16 -0.98,0.88 -1.1,0.48 -1.1,0.02 -0.57,-0.19 m -2.53,-3.79 -0.57,0.01 -1.52,-0.09 -1.68,-0.26 -1.77,-0.42 -1.8,-0.56 m 0,0.01 -0.14,-0.01 -0.14,-0.02 -0.14,-0.02 -0.13,-0.03 -0.13,-0.04 -0.13,-0.05 -0.12,-0.05 -0.04,-0.02 m -1.01,-1.14 0.07,0.19 0.09,0.17 0.1,0.16 0.11,0.15 0.12,0.13 0.13,0.12 0.14,0.1 0.1,0.06 m -9.11,-13.76 -0.93,-0.08 -1.02,0.37 -0.98,0.77 -0.82,1.08 -0.55,1.25 -0.22,1.27 0.14,1.13 0.48,0.84 0.42,0.32 m 7.81,-2.08 h 0.51 l 0.49,-0.04 0.46,-0.08 0.44,-0.11 0.41,-0.15 0.1,-0.04 m 0.11,1.85 v 0 l -0.24,0.12 -0.25,0.1 -0.26,0.09 -0.27,0.08 -0.28,0.06 -0.29,0.05 -0.3,0.04 m 1.76,-2.88 -1.56,0.07 m 5.07,10.03 2.16,0.45 0.39,0.07 m 15.84,2.62 -0.15,-0.27 -0.06,-0.71 0.05,-1.07 0.15,-1.29 0.23,-1.36 0.28,-1.25 0.3,-0.99 0.28,-0.61 0.2,-0.15 m -23.31,-7.83 -0.19,0.06 -1.26,0.45 -0.72,0.23 m 0.94,0.85 1.31,-0.07 m 7.79,-0.44 0.46,0.39 1,0.8 1.24,0.92 2.41,1.67 1.65,1.08 1.28,0.81 m -15.53,0.24 0.01,0.11 0.14,0.98 0.26,1 0.38,0.99 0.49,0.94 m -1.75,-12.67 v 0.04 l 0.32,1.1 0.76,0.93 1.11,0.65 1.32,0.28 1.37,-0.12 1.24,-0.5 0.97,-0.83 0.57,-1.05 0.11,-0.94 m 126.03,35.94 -0.14,-0.02 m -11.56,-1.72 0.01,0.28 0.32,1.33 0.72,1.16 1.04,0.84 1.22,0.41 1.26,-0.07 0.17,-0.05 m 5.52,-2.29 -1.47,0.02 -1.39,-0.11 -1.27,-0.23 -1.11,-0.35 -0.4,-0.17 m 22.94,-8.66 0.58,0.17 0.56,0.63 0.47,1.01 0.33,1.27 0.14,1.37 -0.06,1.3 -0.26,1.06 -0.42,0.7 -0.46,0.24 m -16.88,1.86 0.36,-0.03 m 7.3,-7.89 -2.86,-0.76 -1.78,-1.28 m -22.49,6.93 -0.15,-0.27 -0.06,-0.71 0.05,-1.07 0.15,-1.29 0.23,-1.35 0.28,-1.25 0.3,-0.99 0.28,-0.6 0.2,-0.15 m 14.55,10.3 0.36,0.06 1.99,0.24 m 4.27,-10.58 1.01,0.58 1.89,0.83 2.23,0.79 m -12.9,-1.5 -1.23,1.07 -1.09,0.6 -3.1,0.55 m -0.91,-1.66 1.81,-0.47 1.63,-0.49 1.48,-0.51 0.54,-0.22 0.79,-0.37 m 7.63,-3.09 -0.03,0.58 -0.43,1.09 -0.85,0.91 -1.17,0.61 -1.35,0.24 -1.35,-0.16 -1.2,-0.54 -0.88,-0.86 -0.46,-1.06 -0.05,-0.38 m 65.85,4.89 -0.05,0.67 0.1,0.69 m 11.42,-0.29 0.5,0.33 0.32,0.24 m 8.79,-3.98 0.08,0.2 0.48,1.1 0.59,1.22 0.63,1.19 0.11,0.2 m -16.63,10.64 h 0.02 l 0.11,-0.02 m -17.12,1.92 0.31,-0.11 0.46,-0.56 0.31,-0.96 0.12,-1.24 -0.08,-1.36 -0.27,-1.32 -0.43,-1.11 -0.54,-0.76 m 17.84,5.37 -0.12,0.04 -0.16,0.04 -0.16,0.03 -0.16,0.02 m 8.02,-2.44 -1.04,0.14 -1.25,-0.27 -1.11,-0.72 -0.83,-1.08 -0.45,-1.3 -0.01,-1.36 0.43,-1.26 0.81,-0.99 m -141.96,8.67 0.17,-0.2 0.7,-0.58 0.64,-0.24 m -2.16,4.01 -0.07,-0.18 m 5.8,-3.07 -0.65,-0.3 m 0,0 -1.06,-0.32 m 3.71,1.7 0.04,-0.1 0.03,-0.16 -0.01,-0.12 -0.04,-0.11 -0.09,-0.12 -0.14,-0.1 -1.19,-0.44 -1.25,-0.23 m 35.22,10.64 0.07,-0.06 0.3,-0.52 0.17,-0.8 0.01,-0.96 -0.15,-0.98 -0.29,-0.84 -0.39,-0.58 m -0.01,-0.01 -0.25,-0.18 m -34.03,-5.41 2,1.08 m -0.36,-1.03 v 0 l 0.21,0.14 0.15,0.14 0.1,0.17 0.05,0.15 0.02,0.16 -0.02,0.21 -0.02,0.12 m 5.96,6 0.27,0.05 m 1.25,-3.7 -0.12,0.4 -0.13,0.42 -0.14,0.44 -0.15,0.46 -0.16,0.47 -0.17,0.49 -0.18,0.5 -0.19,0.51 m -0.01,0.01 0.22,0.04 2.29,0.39 m -2.51,-0.43 -0.04,0.19 -0.04,0.2 -0.05,0.19 -0.05,0.19 -0.05,0.18 -0.05,0.17 -0.05,0.15 -0.05,0.14 m 2.73,0.9 -2.32,-0.45 m 0.2,0.1 0.99,0.41 0.58,0.18 0.65,0.15 0.55,0.08 0.56,0.02 0.68,-0.06 0.25,-0.06 m -1.98,-2.25 -0.06,0.29 -0.05,0.3 -0.04,0.29 -0.03,0.28 -0.02,0.25 v 0.21 l 0.01,0.16 0.03,0.1 m 2.29,0.32 -1.46,-0.18 -0.83,-0.13 m 1.18,-5.83 -0.13,0.41 -0.13,0.44 -0.13,0.46 -0.13,0.49 -0.13,0.51 -0.13,0.53 -0.12,0.55 -0.12,0.57 m 0,-0.02 h 0.02 l 0.69,0.12 1.98,0.32 m -2.1,6.01 -0.66,-0.65 -0.61,-0.76 -0.54,-0.83 -0.46,-0.88 -0.36,-0.9 -0.24,-0.89 m 0,-0.01 -0.2,-0.1 m 0.01,0 -0.35,-0.3 -0.08,-0.14 m 0,0 -0.08,-0.34 0.01,-0.42 0.08,-0.4 0.1,-0.31 m 0.01,0 0.12,-0.37 0.07,-1.09 -0.24,-0.76 -0.47,-0.68 -0.7,-0.63 m 12.88,0.58 -0.5,-0.13 m -20.39,-1.86 0.03,0.02 0.31,0.29 0.17,0.44 -0.01,0.52 -0.18,0.52 m 0.01,-0.01 -0.32,0.44 -0.42,0.3 -0.45,0.11 -0.39,-0.09 m 4.27,-3.51 0.53,0.09 m -5,0.16 0.45,-0.27 0.81,-0.19 0.75,0.18 0.57,0.53 0.3,0.79 -0.01,0.93 -0.32,0.94 m -0.01,0.01 -0.58,0.8 -0.75,0.53 -0.81,0.19 -0.74,-0.18 -0.57,-0.53 -0.3,-0.79 -0.04,-0.39 m 19.73,1.13 -0.77,0.4 -0.73,0.59 -0.47,0.64 -0.3,0.78 -0.07,0.5 m 0,0 -0.03,0.4 -0.04,0.4 -0.06,0.35 -0.09,0.28 -0.18,0.25 -0.14,0.07 m -0.01,0 -0.14,0.04 m 0,0 -0.22,0.82 -0.24,0.8 -0.25,0.77 -0.24,0.7 -0.23,0.62 -0.22,0.51 m 0,-0.01 0.16,0.04 0.16,0.03 0.16,0.03 0.16,0.02 0.16,0.01 h 0.16 l 0.16,-0.01 0.16,-0.01 m 8.59,-8.17 -0.07,0.02 -0.42,0.28 -0.28,0.44 m -0.01,0 -0.1,0.53 0.1,0.54 0.28,0.47 0.42,0.33 0.5,0.14 0.43,-0.05 m 0.99,-3.27 -0.51,-0.35 -0.9,-0.25 -0.9,0.14 -0.76,0.5 -0.51,0.79 m 0,-0.01 -0.18,0.96 0.17,0.98 0.5,0.85 0.76,0.6 0.9,0.25 0.9,-0.14 0.76,-0.5 0.51,-0.79 0.11,-0.33 m -4.48,-4.05 -0.01,0.02 0.14,0.05 m 0,0.01 0.07,0.02 m 0.01,0 -0.54,-0.05 m -0.41,0.08 -0.33,0.08 m -8.86,-0.81 1.28,0.05 1,0.13 m 0,0.01 1.08,0.25 0.36,0.11 1.39,0.54 1.19,0.59 m -0.02,-0.01 0.24,-0.1 0.86,-0.29 m 1.81,-0.55 0.41,-0.08 m -0.01,0 v 0 m 0,0 0.04,-0.09 m -16.85,-2.77 0.02,0.04 m 0.92,0.34 -0.92,-0.34 m 0.92,0.34 1.82,0.92 0.73,0.4 0.9,0.57 0.08,0.06 m 0,0 0.84,-0.06 1.36,-0.05 h 0.55 m -7.97,-3.45 2.47,0.5 2.1,0.44 0.98,0.22 0.71,0.17 0.47,0.13 0.19,0.08 -0.35,0.05 -1.17,-0.07 -1.61,-0.15 -2.06,-0.21 m 0,0.01 -0.68,-0.07 m -1,-0.11 1.01,0.11 m -0.28,0.12 0.06,-0.02 m -0.31,0 0.25,0.01 m -0.54,-0.03 0.29,0.03 m 0.22,0.02 -0.51,-0.05 m 17.37,2.82 -1.82,-0.48 -1.72,-0.41 -1.69,-0.36 -0.86,-0.16 -0.89,-0.15 -0.92,-0.15 -0.98,-0.14 -2.18,-0.28 -1.67,-0.19 -1.91,-0.21 -2.21,-0.23 m 17.14,2.8 -0.2,-0.03 -0.1,-0.01 m 0.3,0.04 v 0 m 0.87,0 -0.74,-0.2 m 0,0 -1.79,-0.54 -0.25,-0.15 0.42,-0.03 1.19,0.1 1.92,0.23 5.17,0.69 m 0,-0.01 0.63,0.09 m 0.26,-0.09 -5.87,-0.81 m -0.01,0.01 -1.29,-0.18 m -13.43,-2.29 3.4,0.65 3.48,0.62 3.57,0.57 2.99,0.44 m -13.44,-2.28 -0.17,-0.03 m -6.59,-1.33 6.59,1.32 m -5.78,-1.1 0.05,-0.01 m -0.21,-0.01 0.09,0.01 h 0.07 m -0.43,-0.04 0.14,0.02 0.12,0.01 m -0.57,-0.08 0.31,0.05 m -0.94,-0.15 0.63,0.1 m -1.64,-0.29 0.49,0.1 0.52,0.09 m -1.01,-0.19 2.52,0.51 m 0.01,0 0.82,0.16 m 196.42,-26.51 -0.02,-0.44 -0.28,-0.93 -0.57,-0.82 -0.09,-0.08 m -23.92,4.8 1.2,-0.46 m 12.17,-6.43 0.15,-0.1 m -5.16,11.35 0.81,-0.17 0.8,-0.33 0.62,-0.42 0.41,-0.41 m 0.98,-4.83 -3.8,2.55 -4.24,1.66 m 0.71,0.97 0.99,-0.4 0.98,-0.42 0.97,-0.45 0.95,-0.47 0.94,-0.49 0.92,-0.51 0.9,-0.53 0.88,-0.54 m -0.41,2.55 -0.57,0.33 -0.58,0.32 -0.58,0.31 -0.59,0.3 -0.6,0.29 -0.6,0.29 -0.6,0.28 -0.61,0.27 m -15.78,-1.28 8.73,-3.22 m -1.66,2.17 0.91,-1.19 0.76,-0.99 m 19.35,-10.96 -5.83,3.97 m 0,0 v 0.05 l -0.01,0.1 v 0.04 l 0.01,0.03 0.02,0.03 0.06,0.05 0.16,0.07 0.32,0.09 1.04,0.19 m -1.75,-0.55 -3.02,1.93 -3.13,1.78 -3.26,1.57 -2.76,1.15 m 13.38,-5.27 -0.58,-0.25 -0.33,-0.24 -0.17,-0.22 -0.08,-0.17 -0.03,-0.09 -0.02,-0.09 -0.01,-0.09 m -12.17,6.42 v 0 l -0.64,0.89 -0.63,1.04 -0.39,0.57 m 2.76,-0.1 2.59,-1.29 2.69,-1.33 2.51,-1.22 2.46,-1.22 m 0,-0.01 0.38,-0.58 1.07,-1.32 m -1.45,1.9 -0.56,1.33 m 0,0 -0.06,0.69 0.13,0.49 0.12,0.2 m 0,0 0.14,0.24 0.09,0.29 0.03,0.3 -0.04,0.48 -0.25,0.68 -0.38,0.55 m -0.76,0.91 0.77,-0.91 m -0.77,0.91 0.24,0.8 0.23,0.83 0.21,0.83 0.18,0.81 0.14,0.75 0.1,0.68 m 0,0 0.21,0.02 0.2,0.01 0.19,-0.01 0.18,-0.02 0.17,-0.04 0.16,-0.05 0.15,-0.07 0.14,-0.08 m -22.24,-4.26 2.12,-0.5 m -5.43,3.1 0.18,-0.66 0.32,-0.46 0.4,-0.09 0.42,0.3 0.37,0.64 0.27,0.88 0.13,0.99 -0.04,0.94 -0.19,0.76 -0.32,0.46 -0.4,0.09 -0.42,-0.3 -0.37,-0.64 -0.04,-0.09 m 23.84,-0.92 -0.07,0.16 -0.08,0.15 -0.09,0.13 -0.09,0.11 -0.1,0.1 -0.1,0.08 -0.1,0.06 -0.1,0.04 m 0.73,-0.83 -0.64,-0.4 -0.67,-0.49 -0.66,-0.56 -0.64,-0.61 -0.6,-0.65 -0.53,-0.66 m -1.32,0.14 1.32,-0.15 m -1.32,0.15 -1.09,-0.04 -0.49,-0.16 -0.45,-0.3 -0.21,-0.24 -0.13,-0.27 -0.03,-0.12 m 0.01,0.01 -0.11,-0.35 -0.3,-0.4 -0.3,-0.22 m -0.01,0 -1.14,-0.4 -0.5,-0.07 m -2.76,0.11 1.76,-0.13 1,0.02 m -2.76,0.11 -1.21,0.13 m -4.93,0.55 4.94,-0.55 m 24.56,-12.06 0.43,0.35 0.47,0.23 0.44,0.07 0.34,-0.1 0.19,-0.25 0.01,-0.37 -0.17,-0.43 -0.32,-0.42 -0.43,-0.35 -0.47,-0.23 -0.44,-0.07 -0.34,0.1 -0.19,0.25 -0.01,0.37 0.17,0.43 0.32,0.42 m -34.08,15.61 0.09,0.01 0.23,0.17 0.21,0.35 0.15,0.49 0.07,0.55 -0.02,0.52 -0.11,0.42 -0.18,0.26 -0.13,0.05 m 33.21,-18.06 0.77,0.63 0.84,0.41 0.79,0.12 0.61,-0.18 0.35,-0.45 0.02,-0.66 -0.3,-0.77 -0.58,-0.76 -0.77,-0.63 -0.84,-0.41 -0.79,-0.12 -0.61,0.18 -0.35,0.45 -0.03,0.66 0.3,0.77 0.59,0.76 m -4.41,-0.15 1.43,-1.3 m -1.43,1.3 -0.15,0.15 m -239.11,12.82 -0.19,0.81 -0.48,0.87 -0.7,0.65 -0.47,0.24 m -29.95,-20.27 -0.34,0.1 -0.73,0.45 -0.63,0.73 -0.44,0.89 -0.18,0.92 0.11,0.81 0.04,0.11 m 5.18,-3.9 8.24,1.83 m -8.24,-1.83 1.78,0.66 m 6.46,1.18 0.1,0.02 m -2.89,0.78 1.53,-0.43 1.27,-0.36 m 2.78,12.63 -0.08,-0.04 m -0.05,-0.02 0.05,0.03 m -4.74,-11.38 -0.76,-0.43 m -3.67,-1.98 3.66,1.98 m 23.8,6.27 0.98,0.4 m 3.77,1.51 -3.77,-1.51 m 2.5,1.09 -0.72,-0.28 -2.44,-0.9 -0.71,-0.16 h -0.13 l -0.12,0.03 -0.07,0.04 -0.05,0.06 -0.04,0.1 -0.01,0.19 0.03,0.17 m -21.72,-2.16 0.98,0.53 m 0,0 0.54,0.21 0.41,-0.02 0.03,-0.04 m 1.33,5.17 -0.73,-0.87 -0.62,-0.92 -0.48,-0.93 -0.33,-0.92 -0.17,-0.88 v -0.81 m -1.59,-2.48 0.32,-0.26 0.34,-0.35 0.17,-0.23 m -0.2,2.8 -0.7,-0.56 -0.21,-0.36 -0.07,-0.43 0.08,-0.27 0.18,-0.24 0.1,-0.09 m 0.82,-0.85 0.22,-0.58 -0.02,-0.18 m 28.89,12.35 -0.04,-0.03 -0.04,-0.22 0.01,-0.39 0.05,-0.51 0.09,-0.55 0.11,-0.5 0.12,-0.38 0.11,-0.2 0.05,-0.02 m -18.38,-2.04 -0.76,0.6 -0.91,0.56 -1.04,0.51 -1.13,0.44 -1.18,0.35 -1.19,0.25 m 0.11,0.57 -0.02,-0.05 -0.02,-0.05 -0.01,-0.06 -0.01,-0.07 -0.01,-0.08 -0.01,-0.08 -0.01,-0.09 -0.01,-0.1 m 8.03,-2.39 -1.83,-0.3 m -2.54,-1.84 0.16,0.54 0.36,0.44 0.57,0.39 0.64,0.26 0.81,0.2 m 15.88,-0.62 -1.28,-0.42 m 0.01,0 -1.02,-0.22 m -0.03,-0.01 0.02,0.01 m 4.65,6.14 -0.22,0.68 -0.2,0.36 -0.14,-0.02 -0.07,-0.39 0.01,-0.71 0.09,-0.91 0.16,-0.98 0.2,-0.9 0.22,-0.68 0.2,-0.36 0.14,0.02 0.07,0.39 -0.01,0.71 v 0.02 m -30.58,-10.48 0.73,0.54 0.2,0.32 m 15.12,6.28 -0.11,0.48 m -2.21,1.06 -0.63,-0.36 -0.61,-0.38 -0.59,-0.39 -0.57,-0.4 -0.54,-0.4 -0.52,-0.41 -0.5,-0.42 -0.47,-0.43 m 6.64,2.12 -0.08,0.3 -0.18,0.28 -0.26,0.22 -0.46,0.21 -0.75,0.09 -0.48,-0.05 m -3.78,-5.35 0.59,0.6 0.64,0.58 0.69,0.57 0.73,0.55 0.78,0.53 0.82,0.51 0.86,0.49 0.89,0.47 m 0.1,-0.47 -1.89,-0.68 -1.74,-1.04 -2.32,-2.6 m 7.96,3.18 -1.04,0.16 -0.6,0.39 -0.37,0.58 m -6.18,-9.6 0.39,0.74 0.51,0.74 0.56,0.67 0.68,0.65 0.79,0.62 1.97,1.2 2.51,1.24 2.66,1.17 3.09,1.27 m -1.92,0.56 -1.53,-0.25 -0.99,-0.11 -0.52,-0.02 m 3.93,0.52 0.01,-0.11 0.07,-0.24 0.08,-0.12 0.08,-0.09 0.1,-0.07 0.16,-0.06 0.15,-0.03 0.38,0.01 m -20.49,0.18 0.01,0.24 m 1.27,4.03 0.2,0.15 0.21,0.13 0.22,0.12 0.23,0.11 0.24,0.1 0.25,0.08 0.26,0.07 0.26,0.05 m 0.01,0 0.67,-0.63 0.67,-0.71 0.66,-0.77 0.62,-0.81 0.56,-0.82 0.48,-0.8 m -0.06,-1.05 0.06,1.05 m -0.06,-1.05 0.08,-0.72 0.12,-0.41 0.18,-0.45 0.13,-0.31 0.13,-0.29 m 0.15,-0.5 -0.14,0.49 m 0.14,-0.49 0.02,-0.73 m -5.69,-7.94 -0.01,0.46 0.2,0.42 0.38,0.32 0.51,0.17 h 0.55 l 0.52,-0.17 0.4,-0.32 0.22,-0.42 0.01,-0.46 -0.2,-0.42 -0.38,-0.32 -0.51,-0.17 h -0.55 l -0.52,0.17 -0.4,0.32 -0.22,0.42 m -1.11,-0.18 -0.02,0.82 0.36,0.76 0.69,0.58 0.91,0.32 h 1 l 0.93,-0.32 0.72,-0.58 0.4,-0.76 0.02,-0.82 -0.36,-0.76 -0.69,-0.58 -0.91,-0.32 h -0.99 l -0.93,0.31 -0.72,0.58 -0.41,0.77 m 141.96,28.49 0.21,0.03 m 8.5,1 -8.49,-1 m 0,0 -0.03,0.04 -0.07,0.06 -0.03,0.03 -0.01,0.03 v 0.03 l 0.04,0.07 0.14,0.15 0.31,0.28 1.06,0.83 m 10.1,0.31 0.08,0.04 0.41,0.44 0.34,0.75 0.22,0.94 m -0.01,0.01 0.06,0.99 -0.1,0.88 -0.25,0.65 -0.2,0.23 m -5.82,-5.77 2.25,0.01 m -34.84,-1.44 2.01,-0.1 m -6,0.29 3.99,-0.19 m 1.9,0.91 0.08,-0.07 0.32,-0.37 0.04,-0.1 v -0.06 l -0.02,-0.05 -0.04,-0.04 -0.12,-0.06 -0.19,-0.05 -0.35,-0.04 -0.7,-0.03 -0.94,-0.03 m 15.31,10.92 0.16,0.04 0.16,0.03 0.16,0.03 0.16,0.02 0.16,0.01 h 0.16 l 0.16,-0.01 0.16,-0.01 m -24.49,-5.24 -0.09,-0.23 -0.02,-0.59 0.06,-0.84 0.14,-0.97 0.19,-0.95 0.22,-0.79 0.21,-0.5 0.13,-0.14 m 5.5,-0.46 -1.77,-0.15 -0.64,0.01 m 36.58,1.24 -4.82,0.54 m 0,0 -0.8,0.09 m -9.65,8.16 -0.07,0.16 -0.08,0.15 -0.08,0.13 -0.09,0.11 -0.09,0.1 -0.1,0.08 -0.1,0.06 -0.1,0.04 m 4.87,-5.09 -0.33,0.75 -0.51,0.77 -0.66,0.76 -0.79,0.72 -0.9,0.67 -0.97,0.58 m 4.16,-4.25 1.32,-0.15 m -3.04,-0.69 0.15,0.44 0.42,0.31 0.58,0.12 0.58,-0.02 m 2.76,-2.85 -0.02,0.45 0.14,0.44 0.12,0.22 m 0.2,-1.68 -0.44,0.57 m 0.23,1.11 0.1,0.27 -0.01,0.27 -0.1,0.25 -0.3,0.32 -0.65,0.33 -0.71,0.15 m -3.24,-4 0.49,0.39 0.53,0.37 0.56,0.34 0.6,0.32 0.63,0.29 0.67,0.26 0.7,0.24 0.73,0.21 m -1.68,1.58 -0.43,-0.16 -0.42,-0.16 -0.41,-0.18 -0.39,-0.18 -0.38,-0.2 -0.37,-0.2 -0.35,-0.21 -0.34,-0.22 m -10.01,1.4 0.9,0.07 0.66,-0.08 0.49,-0.23 0.26,-0.32 0.08,-0.45 m 3.2,6.23 -0.02,-0.05 -0.02,-0.05 -0.02,-0.06 -0.01,-0.07 -0.01,-0.08 -0.01,-0.08 -0.01,-0.09 -0.01,-0.1 m 0.02,0.01 -1.2,-0.65 -1.14,-0.73 -1.03,-0.79 -0.89,-0.83 -0.72,-0.83 -0.52,-0.81 m 0,-0.01 -1.83,-0.3 m 18.26,-5 -3.82,-0.63 -2.82,-0.79 m 5.2,3.56 0.35,-0.16 1.48,-0.28 0.46,-0.06 m -0.01,0.01 -0.55,-0.56 -0.27,-0.39 -0.1,-0.28 -0.01,-0.17 0.01,-0.09 0.03,-0.08 0.04,-0.07 v 0 m -19.74,2.85 -0.13,0.44 m 0,0 0.85,-0.18 0.82,-0.21 0.78,-0.25 0.73,-0.28 0.69,-0.32 0.64,-0.35 0.59,-0.38 0.53,-0.41 m -4.01,4.08 -1.01,-0.35 -0.38,-0.3 -0.25,-0.4 -0.05,-0.32 0.07,-0.32 m 5.78,-0.07 -0.44,0.28 -0.46,0.26 -0.49,0.25 -0.51,0.23 -0.53,0.21 -0.56,0.2 -0.58,0.18 -0.6,0.16 m -1.48,-2.15 0.02,-0.68 -0.23,-0.52 -0.48,-0.36 -0.22,-0.1 m -3.46,-1.71 5.94,-0.46 2.42,-0.38 1.31,-0.39 m -9.67,1.23 v 0 l 0.02,0.01 0.21,0.1 0.14,0.12 0.05,0.08 0.03,0.09 0.01,0.1 -0.01,0.16 -0.18,0.43 m 3.19,0.62 v 0 l -0.97,-0.26 -1.55,-0.27 m 8.9,0.87 v 0 l 0.03,0.35 0.06,0.47 0.07,0.58 0.02,0.3 m 0.05,1.05 -0.06,-1.05 m 0.06,1.05 0.26,0.92 0.39,0.97 0.5,0.99 0.59,0.98 0.67,0.93 0.72,0.86 m 2.11,-0.13 -0.26,0.07 -0.26,0.06 -0.27,0.04 -0.27,0.03 -0.27,0.01 -0.27,-0.01 -0.27,-0.02 -0.26,-0.04 m 2.13,-0.14 0.62,-0.76 0.56,-0.83 0.48,-0.88 0.38,-0.9 0.27,-0.89 0.15,-0.85 m -0.06,-0.81 0.04,0.82 m -0.04,-0.82 -0.02,-0.79 v -0.46 l -0.01,-0.47 m -4.86,-10.03 0.55,-0.07 0.54,0.11 0.44,0.27 0.28,0.39 0.08,0.45 -0.14,0.45 -0.33,0.37 -0.48,0.24 -0.55,0.07 -0.54,-0.1 -0.44,-0.27 -0.28,-0.39 -0.08,-0.45 0.14,-0.45 0.33,-0.37 0.48,-0.25 m -0.37,-0.88 0.99,-0.13 0.96,0.19 0.79,0.48 0.51,0.7 0.14,0.81 -0.25,0.8 -0.6,0.67 -0.86,0.43 -0.98,0.13 -0.96,-0.19 -0.79,-0.48 -0.51,-0.7 -0.14,-0.81 0.25,-0.8 0.6,-0.67 0.85,-0.43 m 66.86,6.17 0.21,0.79 m 22.67,0.17 0.18,0.38 0.46,0.88 0.44,0.77 0.36,0.54 0.22,0.22 0.05,-0.12 -0.13,-0.45 -0.21,-0.54 m -26.04,11.57 0.89,-0.11 0.76,-0.11 0.7,-0.12 0.51,-0.11 0.43,-0.11 m -13.45,-3.33 v -0.11 l -0.04,-0.16 -0.06,-0.1 -0.09,-0.07 -0.16,-0.05 -0.2,-0.01 -1.52,0.36 -1.49,0.57 m 28.04,-6.9 -0.42,0.76 -0.1,0.86 0.18,0.75 0.38,0.75 m 10.44,-6.02 0.21,0.46 0.25,0.49 0.24,0.43 0.2,0.3 0.12,0.12 h 0.02 m -35.82,7.55 -0.18,0.02 m -2.71,0.3 2.7,-0.3 m 14.54,5.81 -0.84,-0.03 -0.83,-0.16 -0.79,-0.28 -0.73,-0.39 -0.64,-0.49 -0.53,-0.58 m -1.71,0.2 1.7,-0.19 m -17.88,1.91 0.04,-0.01 0.2,-0.17 0.14,-0.36 0.06,-0.49 -0.03,-0.55 -0.12,-0.52 -0.19,-0.42 -0.23,-0.25 -0.18,-0.05 m 14.6,-0.77 0.07,0.61 m 1.82,1.26 -0.96,-0.07 -0.39,-0.19 -0.31,-0.33 -0.13,-0.31 -0.04,-0.36 m 7.57,0.27 -0.67,0.12 -0.69,0.12 -0.7,0.12 -0.71,0.12 -0.73,0.12 -0.74,0.12 -0.74,0.12 -0.75,0.12 m -1.83,-1.22 1.04,-0.16 1.03,-0.16 1.01,-0.17 0.99,-0.17 0.97,-0.17 0.94,-0.17 0.91,-0.17 0.88,-0.17 m -23,4.41 0.25,0.5 0.41,0.44 0.41,0.07 0.36,-0.31 0.25,-0.65 0.1,-0.89 -0.06,-0.99 -0.22,-0.94 -0.34,-0.75 -0.41,-0.44 -0.41,-0.07 -0.36,0.31 -0.25,0.65 -0.05,0.25 m 6.2,-2.78 -0.85,0.14 m 0,0 -1.32,0.38 m 11.45,1.39 -0.41,-0.86 -0.67,-0.67 -0.94,-0.47 m 9.75,0.71 -1.8,0.74 -2.06,0.49 -3.87,0.06 m 12.55,-6.73 0.05,-0.46 0.36,-0.34 m 0,0.01 0.79,-0.34 0.36,-0.11 1.81,-0.4 1.99,-0.31 m 0,0 0.19,-0.22 1.01,-0.83 1.78,-1.02 m -9.66,5.49 1.31,-0.41 m -3.64,1.74 -0.73,0.9 -0.35,0.86 -0.08,0.89 m -0.01,-0.01 0.1,0.57 m 0,0 0.09,0.34 0.06,0.32 0.03,0.27 -0.03,0.31 -0.18,0.27 -0.17,0.09 m 0,0 -0.74,0.23 m -0.01,0 0.17,0.64 0.18,0.57 0.19,0.49 0.19,0.38 0.18,0.27 0.17,0.14 m 3.27,-8.86 -0.11,0.04 m 1.86,-0.53 -0.37,-0.07 -1.21,-0.17 -0.31,0.04 -0.04,0.04 -0.03,0.06 v 0.06 l 0.01,0.07 0.03,0.1 0.08,0.19 0.09,0.15 m -0.11,0.06 -1.26,0.59 -0.61,0.4 -0.36,0.3 m 2.23,-1.29 -0.04,-0.11 -0.08,-0.25 -0.03,-0.14 -0.01,-0.11 v -0.09 l 0.03,-0.1 0.04,-0.07 0.13,-0.09 m -18.57,3.31 v 0 l 0.3,-0.01 0.22,0.04 0.19,0.08 0.12,0.1 0.09,0.13 0.08,0.19 0.03,0.12 m -0.01,-0.01 2.95,-0.04 0.98,0.14 0.44,0.13 m 0,0 1.9,-0.77 1.87,-0.68 1.87,-0.5 2.71,-0.22 1.5,0.11 1.06,0.14 m 8.48,2.06 -0.22,0.05 -0.51,-0.05 -0.46,-0.26 -0.34,-0.42 -0.18,-0.52 0.02,-0.55 0.21,-0.49 0.37,-0.35 0.26,-0.11 m -2.93,-1.15 -0.61,-0.04 m 0,0 -0.44,0.08 m 6.68,3.23 -0.37,0.82 -0.67,0.63 -0.86,0.29 -0.91,-0.09 -0.83,-0.46 -0.62,-0.76 -0.32,-0.94 0.04,-0.98 0.38,-0.87 0.67,-0.63 0.86,-0.29 0.91,0.09 0.83,0.46 0.04,0.04 m -25.78,2.26 3.1,-1.11 2.91,-0.98 1.59,-0.5 1.39,-0.39 1.29,-0.32 1.14,-0.22 2.02,-0.22 1.86,0.01 1.61,0.16 1.67,0.27 m -0.02,0 0.51,0.09 m 1.93,0.37 -1.93,-0.37 m 1.58,0.19 0.11,0.11 0.24,0.07 m -0.29,-0.34 -0.06,0.16 m 0.2,-0.26 -0.14,0.1 m 0.37,-0.21 -0.13,0.05 -0.11,0.05 m 0.54,-0.2 -0.16,0.04 -0.14,0.05 m 0.61,-0.16 -0.31,0.07 m 0.87,-0.14 -0.55,0.07 m 0.99,-0.07 h -0.44 m 0.72,0.03 -0.28,-0.03 m -0.1,-0.04 0.38,0.07 m 0.74,-3.77 -0.93,0.26 -2.5,0.82 -0.87,0.35 -0.6,0.32 -0.34,0.29 -0.08,0.26 0.56,0.47 0.86,0.3 1.22,0.3 1.57,0.32 m -9.81,-5.98 0.17,0.64 m -0.17,-0.55 v -0.09 m -0.35,0.46 0.26,-0.2 0.1,-0.17 m -0.36,0.37 -0.3,0.15 -0.18,0.07 m -0.31,0.08 0.16,-0.04 0.15,-0.05 m -0.31,0.09 -0.21,0.04 -0.08,0.01 m -0.45,0.01 0.21,0.01 0.23,-0.01 m -0.69,-0.08 0.26,0.07 m -0.38,-0.19 0.12,0.12 m -0.13,-0.14 0.01,0.02 m -0.01,-0.02 0.08,0.3 m -7.5,7 3.52,-1.41 2.66,-1.3 1.44,-1.13 0.17,-0.34 m -7.79,4.18 -0.2,0.07 m -7.93,2.91 7.93,-2.9 m -7.93,2.9 0.52,-0.18 m 0.61,-0.17 -0.62,0.18 m 1.24,-0.31 -0.62,0.13 m 0.89,-0.16 -0.27,0.03 m 0.46,-0.02 -0.08,-0.01 h -0.11 m 0.26,0.06 -0.02,-0.03 -0.05,-0.02 m 0.02,0.14 0.05,-0.09 m -0.36,0.3 0.32,-0.21 m -1.26,0.61 0.52,-0.21 0.42,-0.2 m -0.94,0.41 3.04,-1.11 m 0,0 1,-0.36 m 129.68,-56.74 0.04,-0.02 0.43,-0.13 0.48,0.07 0.46,0.26 0.36,0.42 0.21,0.51 m 0,-0.01 0.03,0.52 -0.16,0.45 -0.28,0.29 m -399.74,-12.78 -0.17,-0.13 -0.18,-0.36 -0.02,-0.47 0.14,-0.51 0.27,-0.48 0.37,-0.37 0.41,-0.21 0.39,-0.01 0.14,0.05 m 75.69,37.58 0.27,-0.09 0.37,0.03 0.06,0.03 m 319.67,-24.14 -0.15,-0.19 -0.08,-0.03 0.02,0.16 0.06,0.17 m -245.28,61.38 -1.6,-0.42 -1.55,-0.08 -0.86,0.13 m -2.12,3.95 0.49,0.98 1,1.26 1.3,1.08 0.71,0.37 m 31.82,5.34 1.05,-0.12 1.83,-0.59 1.56,-0.85 0.51,-0.4 m -0.54,-4.85 -0.52,-0.26 m -23.03,8.64 0.25,0.11 0.26,0.1 0.27,0.08 0.27,0.06 0.27,0.04 0.28,0.02 h 0.28 l 0.28,-0.02 m -0.01,-0.01 16.99,-1.89 m -30,-3.82 10.86,5.34 m -8.02,-12.58 -0.12,-0.03 m -0.01,-0.01 -0.14,-0.04 m 0,0 -1.12,-0.31 -1.47,-0.06 -1.27,0.23 -0.32,0.14 m -1.72,3.5 0.16,0.55 0.69,1.2 1.02,1.1 1.3,0.88 0.18,0.07 m 14.18,5.43 6.97,-2.17 m -2.32,-7.43 -1.48,0.46 m 6.24,0.65 -0.74,-0.65 -1.11,-0.51 -1.29,-0.2 -0.13,0.02 m 0.82,7.63 0.4,-0.1 1.22,-0.7 0.91,-0.92 0.57,-1.03 0.19,-0.83 m 149.13,-22.23 0.33,0.32 1.07,0.55 1.26,0.26 1.34,-0.09 0.51,-0.18 m 17.64,-8.84 1.12,-0.91 0.89,-1.18 0.52,-1.21 0.19,-1.09 m -20.34,13.28 7.43,-2.31 m 0,0 0.13,-0.04 0.13,-0.05 0.13,-0.05 0.13,-0.06 0.12,-0.06 0.12,-0.07 0.12,-0.07 0.12,-0.07 m -0.01,0 9.21,-6.09 m -7.8,4.67 9.34,-11.01 m -5.95,-5.04 -3.79,4.47 m -24.97,14.64 0.61,0.29 1.76,0.49 1.87,0.16 1,-0.11 m -3.29,-7.08 -0.44,0.14 -1.56,0.85 -0.49,0.39 m 5.79,5.75 16.51,-1.84 m 11.38,-20.89 -0.83,0.22 -1.47,0.73 m 3.83,6.8 0.63,-0.74 0.85,-1.59 0.47,-1.57 0.08,-0.83 m -253.93,14.74 0.29,0.17 1.57,0.47 1.48,0.09 1.29,-0.21 0.42,-0.17 m -27.49,-20.24 -0.07,-0.02 -1.55,-0.08 -0.86,0.13 m -2.13,3.96 0.48,0.97 1,1.26 1.3,1.08 0.71,0.37 m 12.69,6.91 10.86,5.34 m -23.58,-12.2 12.59,6.79 m 20.77,-4.24 -4.35,-0.72 m -12.76,5.79 15.84,2.62 m 6.31,-5.44 -1.17,-0.84 -1.13,-0.54 m -4.01,6.81 1.94,0.16 1.97,-0.2 1.57,-0.44 m -19.55,-12.22 -0.27,-4.91 m -7.78,0.43 0.47,8.65 m -0.27,-10.58 -0.16,0.86 0.01,1.06 m 7.69,-0.41 -0.08,-0.96 -0.49,-1.41 -0.73,-1.13 -0.85,-0.8 -0.41,-0.23 m -3.1,0.15 -0.01,0.01 -0.86,0.83 -0.68,1.12 -0.33,0.92 m 121.01,36.73 0.07,0.34 0.29,0.74 0.52,0.71 0.96,0.73 1.16,0.44 1.31,0.12 1.31,-0.25 m -5.55,-4.01 -0.11,0.73 0.03,0.46 m 29.33,-1.26 1.05,-0.12 1.83,-0.59 1.56,-0.85 0.51,-0.41 m -0.55,-4.84 -0.62,-0.3 -1.76,-0.49 -0.11,-0.01 m -18.62,9.55 0.03,-0.01 0.17,-0.02 m -7.18,2.2 6.96,-2.17 m -21.18,-10.8 -1.08,0.11 -1.58,0.44 m -0.8,4.96 1.15,0.83 1.78,0.85 1.92,0.53 0.17,0.01 m 19.84,3.03 16.51,-1.84 m -30.51,-8.1 -4.56,-0.76 m -1.27,7.69 15.83,2.62 m -1.38,-13.75 0.28,5.07 m 7.84,0.63 -0.33,-6.12 m -5.68,-4.35 -0.36,0.23 -0.81,0.94 -0.61,1.23 -0.31,1.42 0.03,0.94 m 7.68,-0.41 -0.08,-0.98 -0.49,-1.41 -0.73,-1.12 -0.85,-0.8 -0.4,-0.22 m 60.6,9.86 -0.02,0.43 0.21,0.91 m 5.52,-4.83 -0.07,-0.06 -1.02,-0.5 -1.01,-0.18 -0.35,0.01 -0.68,0.13 -0.68,0.3 -0.72,0.58 -0.18,0.25 m 5.42,15.16 0.09,-0.01 0.09,-0.01 0.09,-0.02 0.09,-0.02 0.09,-0.02 0.09,-0.02 0.09,-0.02 0.09,-0.03 m 10.57,-5.27 3.13,-1.58 m -31.41,8.9 16.99,-1.89 m -22.24,1.01 0.61,0.3 1.76,0.49 1.87,0.16 1,-0.11 m -3.59,-6.99 -0.14,0.05 -1.56,0.85 -0.5,0.4 m 23.52,3.68 7.43,-2.31 m 2.43,-6.38 -0.96,-0.73 -1.16,-0.44 -0.55,-0.05 m 0.22,7.56 0.81,-0.27 1.13,-0.78 0.81,-0.97 0.47,-1.04 0.07,-0.51 m 18.38,-13.02 -74.98,8.35 m 0.31,2.82 74.98,-8.35 m -52.56,13.43 -74.98,8.35 m 0.31,2.81 74.98,-8.35 m -87.88,7.86 31.23,-9.71 m -0.81,-2.71 -31.26,9.72 m 120.39,-10.61 30.06,-9.34 m -9.08,-0.15 -21.82,6.78 m 105.74,-55.04 -48.59,32.14 m 0.03,3.38 50.13,-33.16 m -297.59,41.61 47.01,23.11 m 1.25,-2.54 -46.09,-22.66 m -104.32,-52.3 69.29,37.39 m 1.34,-2.49 -69.29,-37.39 m 109.3,53.32 81.3,13.47 m 0.47,-2.79 -81.3,-13.47 m -32.8,-12.66 -0.58,-0.31 m 69.3,37.39 -37.53,-20.25 m 287.69,-41.53 -87.82,44.35 m 40.35,-17.2 29.62,-14.96 m -74,37.37 4.86,-2.45"
         class="st0"
         inkscape:connector-curvature="0"
         style="fill:none;stroke:#000000;stroke-width:0.70899999;stroke-linecap:round;stroke-linejoin:round;stroke-miterlimit:10" />
      <path
         id="path6743"
         d="m 472.44,190.22 v 0 m -0.35,0.46 v 0"
         class="st0"
         inkscape:connector-curvature="0"
         style="fill:none;stroke:#000000;stroke-width:0.70899999;stroke-linecap:round;stroke-linejoin:round;stroke-miterlimit:10" />
    </g>
  </g>
  <style
     id="style6508"
     type="text/css">
	.st0{font-family:'ArialUnicodeMS';}
	.st1{font-size:19.9584px;}
	.st2{font-size:20.1158px;}
	.st3{font-size:20.1547px;}
	.st4{fill:none;stroke:#000000;stroke-width:0.51;stroke-miterlimit:10;}
	.st5{fill:none;stroke:#000000;stroke-width:0.51;stroke-linecap:round;stroke-linejoin:round;stroke-miterlimit:10;}
	.st6{fill:none;stroke:#000000;stroke-width:0.709;stroke-linecap:round;stroke-linejoin:round;stroke-miterlimit:10;}
	
		.st7{fill:none;stroke:#000000;stroke-width:0.51;stroke-linecap:round;stroke-linejoin:round;stroke-miterlimit:10;stroke-dasharray:18,3.6,3.6,3.6,3.6,3.6;stroke-dashoffset:13;}
	
		.st8{fill:none;stroke:#000000;stroke-width:0.51;stroke-linecap:round;stroke-linejoin:round;stroke-miterlimit:10;stroke-dasharray:18,3.6,3.6,3.6,3.6,3.6;}
	
		.st9{fill:none;stroke:#000000;stroke-width:0.51;stroke-linecap:round;stroke-linejoin:round;stroke-miterlimit:10;stroke-dasharray:18,3.6,3.6,3.6,3.6,3.6;stroke-dashoffset:11;}
	
		.st10{fill:none;stroke:#000000;stroke-width:0.51;stroke-linecap:round;stroke-linejoin:round;stroke-miterlimit:10;stroke-dasharray:18,3.6,3.6,3.6,3.6,3.6;stroke-dashoffset:8;}
	
		.st11{fill:none;stroke:#000000;stroke-width:0.51;stroke-linecap:round;stroke-linejoin:round;stroke-miterlimit:10;stroke-dasharray:18,3.6,3.6,3.6,3.6,3.6;stroke-dashoffset:6;}
	
		.st12{fill:none;stroke:#000000;stroke-width:0.51;stroke-linecap:round;stroke-linejoin:round;stroke-miterlimit:10;stroke-dasharray:18,3.6,3.6,3.6,3.6,3.6;stroke-dashoffset:2;}
	
		.st13{fill:none;stroke:#000000;stroke-width:0.51;stroke-linecap:round;stroke-linejoin:round;stroke-miterlimit:10;stroke-dasharray:18,3.6,3.6,3.6,3.6,3.6;stroke-dashoffset:14;}
	
		.st14{fill:none;stroke:#000000;stroke-width:0.51;stroke-linecap:round;stroke-linejoin:round;stroke-miterlimit:10;stroke-dasharray:18,3.6,3.6,3.6,3.6,3.6;stroke-dashoffset:9;}
</style>
  <style
     id="style6716"
     type="text/css">
	.st0{fill:none;stroke:#000000;stroke-width:0.709;stroke-linecap:round;stroke-linejoin:round;stroke-miterlimit:10;}
</style>
  <style
     id="style6737"
     type="text/css">
	.st0{fill:none;stroke:#000000;stroke-width:0.709;stroke-linecap:round;stroke-linejoin:round;stroke-miterlimit:10;}
</style>
</svg>
