<?xml version="1.0" encoding="UTF-8" standalone="no"?>
<!-- Created with Inkscape (http://www.inkscape.org/) -->

<svg
   xmlns:dc="http://purl.org/dc/elements/1.1/"
   xmlns:cc="http://creativecommons.org/ns#"
   xmlns:rdf="http://www.w3.org/1999/02/22-rdf-syntax-ns#"
   xmlns:svg="http://www.w3.org/2000/svg"
   xmlns="http://www.w3.org/2000/svg"
   xmlns:sodipodi="http://sodipodi.sourceforge.net/DTD/sodipodi-0.dtd"
   xmlns:inkscape="http://www.inkscape.org/namespaces/inkscape"
   width="115mm"
   height="23mm"
   viewBox="0 0 115 23"
   version="1.1"
   id="svg1244"
   inkscape:version="0.92.3 (2405546, 2018-03-11)"
   sodipodi:docname="19_2.svg">
  <defs
     id="defs1238">
    <rect
       height="29.360001"
       width="693.96997"
       y="311.89001"
       x="54.59"
       id="SVGID_1_" />
    <rect
       height="29.360001"
       width="693.96997"
       y="282.53"
       x="54.59"
       id="SVGID_3_" />
    <rect
       height="29.360001"
       width="693.96997"
       y="253.17999"
       x="54.59"
       id="SVGID_5_" />
    <rect
       height="0.94999999"
       width="693.96997"
       y="252.23"
       x="54.59"
       id="SVGID_7_" />
  </defs>
  <sodipodi:namedview
     id="base"
     pagecolor="#ffffff"
     bordercolor="#666666"
     borderopacity="1.0"
     inkscape:pageopacity="0.0"
     inkscape:pageshadow="2"
     inkscape:zoom="1.07"
     inkscape:cx="377.88107"
     inkscape:cy="230.13546"
     inkscape:document-units="mm"
     inkscape:current-layer="g8766"
     showgrid="false"
     inkscape:window-width="1853"
     inkscape:window-height="1025"
     inkscape:window-x="67"
     inkscape:window-y="27"
     inkscape:window-maximized="1" />
  <metadata
     id="metadata1241">
    <rdf:RDF>
      <cc:Work
         rdf:about="">
        <dc:format>image/svg+xml</dc:format>
        <dc:type
           rdf:resource="http://purl.org/dc/dcmitype/StillImage" />
        <dc:title></dc:title>
      </cc:Work>
    </rdf:RDF>
  </metadata>
  <g
     inkscape:label="Layer 1"
     inkscape:groupmode="layer"
     id="layer1"
     transform="translate(0,-274)">
    <g
       id="g7257"
       transform="matrix(0.26458333,0,0,0.26458333,-21.557762,167.58321)">
      <g
         id="g7496"
         transform="translate(-194.74048,129.92751)">
        <g
           id="g7539"
           transform="translate(40.901645,40.582209)">
          <path
             id="path7525"
             d="m 709.31636,3.7589688 v 0 m 141.12,1.44 v 0"
             class="st2"
             inkscape:connector-curvature="0"
             style="fill:none;stroke:#000000;stroke-width:0.70899999;stroke-linecap:round;stroke-linejoin:round;stroke-miterlimit:10" />
          <g
             id="g7613"
             transform="translate(51.788472,71.106254)">
            <g
               id="g8766"
               transform="translate(128.36037,-148.39276)">
              <path
                 id="path7646"
                 d="m 281.57574,342.79566 -0.14252,-0.27317 v -0.34443 l 0.14252,-0.36818 0.27317,-0.34443 0.3563,-0.24942 m 0.0119,-0.0119 0.38006,-0.13064 0.34443,0.0119 0.26129,0.1544 v 0 m 111.45239,34.64478 0.0119,0.0119 0.0356,0.1544 -0.0713,0.27317 -0.15439,0.34442 -0.22566,0.36819 -0.2613,0.34443 -0.24941,0.24941 -0.20191,0.13065 h -0.11876 m -51.5693,-46.88982 0.24941,0.0831 0.21379,0.23754 0.14252,0.36818 0.0475,0.42756 -0.0475,0.42757 -0.14252,0.36818 -0.21379,0.23754 -0.24941,0.0831 m -163.78181,8.13565 0.0475,-0.0356 0.28504,-0.13065 0.35631,0.0119 0.38006,0.1544 0.34443,0.27317 0.24941,0.34443 0.11877,0.36818 -0.0238,0.34443 -0.13065,0.21378 m 24.15752,-9.66776 -0.24941,-0.0831 -0.21379,-0.23754 -0.14252,-0.36818 -0.0475,-0.42756 0.0475,-0.42757 0.14252,-0.36818 0.21379,-0.23754 0.24941,-0.0831 m 82.11656,4.09751 -2.18534,0.55822 m -1.3302,0.34442 1.3302,-0.34442 m -22.19784,-0.0831 0.74825,0.19003 m -3.0286,-0.772 2.28035,0.58197 m -4.62009,-5.33271 -0.16628,0.14252 -0.34443,0.53446 -0.19003,0.71261 -0.0119,0.78387 0.16627,0.73637 0.32068,0.57009 0.23754,0.22566 m 3.90748,1.24707 -0.60572,-0.0356 m 28.45694,-4.91702 v 0 l 0.39194,0.43944 0.26129,0.65323 0.095,0.77199 -0.095,0.772 -0.26129,0.65323 -0.38006,0.43944 m -3.91936,1.22332 h -2.29224 m -15.33301,-2.83857 0.53445,0.0594 0.3088,0.14252 0.0356,0.0831 m 10.416,-0.28504 h 1.19957 m -2.07845,0.28504 0.095,-0.13065 0.29692,-0.11876 0.48695,-0.0475 m 2.13784,1.50836 0.14252,-0.36819 m 0,0 0.0594,-0.24941 -0.0237,-0.24941 -0.10689,-0.21379 -0.23754,-0.22566 -0.4632,-0.16627 -0.30879,-0.0238 m 0.90264,2.7198 -0.16628,-0.22566 0.0356,-0.45132 0.16628,-0.54634 m -15.5468,0.0475 -0.1544,-0.41569 m 1.06891,-1.1283 -0.67698,0.14252 -0.26129,0.19003 -0.16627,0.28505 -0.0356,0.23753 0.0594,0.2613 m 1.08079,-1.11643 h 1.19957 m -6.31849,2.83857 h 1.91217 m 2.29224,-1.29458 0.14252,0.54634 0.0238,0.38006 -0.1544,0.22566 m 16.08126,1.3302 1.27083,-0.38006 m -1.85279,-0.92639 v 0 l 0.43944,0.095 1.25895,0.0238 m -19.96499,0.57009 2.17346,0.64135 m -1.41334,-1.21144 1.4846,-0.0238 0.39194,-0.0594 0.13064,-0.0594 m 6.02157,1.10455 0.71261,-0.53446 0.43944,-0.17815 0.51071,-0.0831 0.45132,0.0356 0.47507,0.1544 0.62948,0.38005 0.24941,0.22566 m -3.95499,1.86467 0.0238,0.22566 -0.13064,0.65323 -0.3088,0.45132 -0.0713,0.0713 m 0.53445,-2.60103 -0.0713,0.33255 -0.0238,0.35631 0.0119,0.30879 0.0356,0.20191 m 0.3563,-1.73402 -0.24941,0.38006 -0.0594,0.1544 m 0.43945,-0.66511 -0.13065,0.14253 m 3.72933,0 -0.14252,-0.14253 m 0.49883,1.86467 0.0356,-0.26129 0.0119,-0.3088 -0.0238,-0.32067 -0.0713,-0.3088 -0.16627,-0.35631 -0.13065,-0.16627 m 0.87889,3.15924 -0.19003,-0.19003 -0.27317,-0.45132 -0.10689,-0.49883 0.0238,-0.3088 m -10.93858,4.90514 0.0713,-0.095 0.0831,-0.30879 -0.0594,-0.36819 m 0,0 -0.20191,-0.36818 -0.3088,-0.3088 -0.36818,-0.2019 -0.36818,-0.0713 -0.32068,0.0713 -0.14252,0.10689 m 0.8195,2.37537 0.60572,0.10689 0.58197,-0.13065 0.39193,-0.36818 0.1544,-0.55821 -0.11877,-0.65323 m 0,0 -0.3563,-0.65322 -0.55821,-0.55822 -0.66511,-0.36818 -0.67698,-0.13064 -0.58196,0.13064 -0.39194,0.36818 -0.1544,0.55822 0.11877,0.65322 0.0238,0.0594 m 19.86998,0.71261 -0.14252,-0.27316 v -0.34443 l 0.14252,-0.36819 0.27317,-0.34442 0.3563,-0.24942 0.38006,-0.13064 0.34443,0.0119 0.26129,0.1544 v 0 m -0.80763,2.37537 -0.34442,0.0831 -0.62948,-0.0238 -0.47507,-0.27317 -0.26129,-0.48695 m 0,0 v -0.62948 l 0.26129,-0.6651 0.48695,-0.60572 0.62947,-0.45132 0.67698,-0.23754 0.62948,0.0238 0.47507,0.27317 0.26129,0.48695 v 0.62948 l -0.10689,0.34442 m -5.70089,0.0238 -0.67698,-0.40381 -1.7459,-0.86701 -1.5915,-0.54633 -0.76011,-0.14253 -0.73637,-0.0475 -0.72449,0.0475 -0.73636,0.13065 -1.54399,0.54633 -1.1283,0.55822 -1.16394,0.67698 m -58.82605,1.15205 0.93827,-0.34443 m -5.51086,-2.49414 -0.0356,0.23754 0.11877,0.48695 0.28504,0.62947 0.40382,0.66511 0.46319,0.60572 0.45132,0.46319 0.36819,0.23754 0.13064,0.0238 m 3.24238,-1.68651 -1.18768,0.64135 -0.45132,0.17815 m 0.95015,0.29692 -0.14253,0.0594 m 0.83138,-0.40381 -0.26129,0.1544 -0.41569,0.19003 m 2.96922,-2.60103 -2.29224,1.4846 m 2.54165,-1.66275 -0.24941,0.17815 m 27.94623,-6.55603 v -0.0238 -0.27316 -0.53446 -0.0594 m 0,-2.24473 v -0.5107 -0.33255 -0.0475 m -4.24003,4.5132 1.91217,-0.2019 m -6.11658,0.2019 -0.72449,-0.0475 m 4.9289,0.0475 h -4.20441 m -17.58962,-0.10689 -0.27317,0.23754 -0.21378,0.33255 -0.10689,0.38006 0.0238,0.26129 0.13065,0.24941 m 0.23753,0.35631 -0.22566,-0.35631 m 13.2902,-4.9764 -0.0594,-0.0475 -0.6176,-0.19003 -0.62947,-0.0475 m 0.0119,0 h -0.45132 -0.45132 -0.43944 -0.42757 -0.42756 -0.41569 -0.40382 -0.39193 m 6.22347,3.11174 -0.58197,-0.58197 m -14.00281,3.08798 0.27317,0.68886 0.11877,0.70073 -0.0713,0.66511 -0.0713,0.22566 m 14.33536,-4.78637 0.45132,0.24941 1.57962,0.43944 0.43944,0.0594 m -16.80574,4.03813 v 0 l -0.43945,0.72449 -1.2827,1.17581 m 5.77215,-5.89092 h 1.33021 m 0.40381,-0.0713 -0.39193,0.0713 m 14.70354,1.15206 -5.15455,1.23519 -2.33974,0.70073 -0.9264,0.34443 -0.73636,0.34443 -1.04516,0.72449 -0.65323,0.80763 -0.57009,1.69839 m 12.30442,-6.04532 -0.87889,0.19003 m 3.56306,-0.772 -2.68417,0.58197 m 2.68417,-0.58197 -0.48695,0.095 -0.42757,0.0475 m 0,0 h -0.41569 m 0,0 -0.14252,-0.0356 m 0,0 -0.0475,-0.0238 -0.0119,-0.0356 m 0.0119,-0.0119 0.0119,-0.0475 0.0356,-0.0475 m 0,0 0.14252,-0.095 m 0,0 0.41569,-0.17815 m 0,0 0.47507,-0.1544 m 0.43945,-0.10689 -0.43945,0.10689 m 0.43945,-0.10689 -7.00734,1.53211 m -0.17816,0.0356 0.17816,-0.0356 m -0.17816,0.0356 -3.28989,0.60572 -2.81481,0.29692 -2.13783,-0.11877 -0.21379,-0.0594 m -4.62009,-2.29223 2.39912,1.37772 m -3.27801,-0.64135 -0.38006,-0.0238 -0.28504,-0.0713 m 0,0.0119 -0.13065,-0.0594 m 0,0 1.16393,0.67698 m 0.59384,0.33255 -0.58196,-0.34443 m -4.58447,5.77215 4.02626,-1.62713 1.49648,-0.76012 0.92639,-0.68886 0.32068,-0.62947 -0.20191,-0.60572 -1.41334,-1.1283 m -6.55602,5.96218 1.40146,-0.52258 m -4.19253,1.55587 2.80294,-1.03329 m -2.80294,1.03329 0.28505,-0.095 m 0,0 v 0 m 0,0 0.39194,-0.11877 0.40381,-0.095 m 0.4632,-0.0475 -0.47508,0.0475 m 0.47508,-0.0475 h 0.095 l 0.0831,0.0119 m 0.0237,0.0119 -0.0237,-0.0119 m 0.0237,0.0119 0.0594,0.0475 m -0.0119,0.0831 0.0119,-0.0831 m -0.0119,0.0831 -0.095,0.095 m 0,0 -0.0831,0.0594 m 0.095,0.0594 3.24238,-1.16393 2.64854,-0.86701 2.06657,-0.54634 0.81951,-0.14252 0.67698,-0.0475 0.5107,0.0356 m 2.2566,2.36349 0.26129,0.0831 m 0,0 0.1069,0.11877 0.0238,0.1544 m 0,0 0.16628,-1.08079 m 0.0475,-0.27317 -0.0475,0.28504 m -5.04767,-7.20925 -0.0594,0.095 -0.10689,0.095 m 0.1544,-0.34443 0.0119,0.1544 m -0.13064,-0.28504 0.13064,0.13064 m -0.16627,-0.15439 0.0356,0.0238 m -0.0356,-0.0238 0.65322,0.2019 m -2.19721,0.45132 -0.095,-0.0475 -0.0238,-0.0119 m 0.78387,0.14252 v 0 l -0.36818,-0.0119 -0.29692,-0.0713 m 0.6651,0.0831 0.32067,-0.0356 0.16628,-0.0356 m 0.22566,-0.0713 -0.11877,0.0475 -0.11877,0.0356 m 0.23754,-0.0831 0.13065,-0.0594 0.0475,-0.0356 m -3.99062,-1.66276 0.23754,0.3088 0.62947,0.43945 0.73637,0.1544 m 1.59149,-3.14737 -0.23753,-0.3088 -0.62948,-0.43944 -0.73636,-0.1544 -0.73637,0.1544 -0.62947,0.43944 -0.23754,0.3088 m 1.61526,3.13549 0.73636,-0.1544 0.62947,-0.43944 0.23754,-0.3088 m -42.37661,10.62978 h -0.0119 l -0.32067,-0.13064 -0.41569,-0.36819 -0.4632,-0.55821 -0.42757,-0.65323 m 0,0 -0.34443,-0.65322 -0.19003,-0.55821 -0.0119,-0.36819 0.0237,-0.0475 m 15.98625,-7.10235 0.45132,-0.38006 0.49882,-0.28505 0.57009,-0.21378 0.52259,-0.11877 0.57008,-0.0475 m 7.94562,3.63432 1.19956,-0.34443 m -15.65369,6.29473 0.95015,-0.52258 m 17.06703,-6.43725 -2.36349,0.67698 m -17.55399,7.31614 1.88842,-1.03329 m 16.53258,-6.75793 h -2.29223 m -7.70808,-2.83857 h 1.19956 m 1.4371,1.1283 -0.0713,-0.24941 -0.11877,-0.24941 -0.16627,-0.21379 -0.28505,-0.22566 -0.47507,-0.16627 -0.3088,-0.0238 m 1.54399,1.49648 -0.11877,-0.36818 m 2.09033,1.5915 -0.85514,-0.22566 -0.72448,-0.45132 -0.40382,-0.54634 m -6.12845,2.47039 0.0475,0.68885 -0.17816,0.70074 -0.36818,0.6651 -0.16628,0.22566 m 0.66511,-2.28035 -0.14252,-0.35631 m 0.16627,-1.78153 -0.33255,0.55822 -0.0594,0.33255 0.0238,0.38006 0.0713,0.26129 0.11877,0.24941 m 0.91452,-2.55352 -0.73637,0.78387 m 14.85794,0.79575 -1.49648,0.20191 m 4.38256,-4.20441 -0.14252,-0.3088 -0.38006,-0.43944 -0.45132,-0.1544 -0.45132,0.1544 -0.38006,0.43944 -0.26129,0.65323 -0.095,0.77199 0.095,0.772 0.26129,0.65323 0.38006,0.43944 0.45132,0.1544 m -0.0119,0 0.45132,-0.1544 0.38006,-0.43944 0.14252,-0.3088 m -19.94123,8.2069 3.09986,-1.62713 1.59149,-0.76011 1.60338,-0.68886 1.67464,-0.62947 1.7934,-0.60572 3.75309,-1.12831 m -3.21863,-0.91451 v 0 l 0.9739,0.095 1.7459,0.0238 m -11.48492,3.40865 v 0 l -0.6176,0.72449 -0.41569,0.42757 m 18.46851,-8.76512 -0.24941,0.0831 -0.21379,0.23754 -0.14252,0.36818 -0.0475,0.42757 0.0475,0.42756 0.14252,0.36819 0.21379,0.23753 0.24941,0.0831 m -25.78465,8.13565 0.0475,-0.0356 0.28504,-0.13065 0.35631,0.0119 0.38006,0.1544 0.34443,0.27317 0.24941,0.34443 0.11877,0.36818 -0.0238,0.34443 -0.13065,0.21378 m -2.42288,-0.70073 -0.11876,-0.4632 0.0475,-0.60572 0.29692,-0.45132 0.51071,-0.23754 0.64135,0.0237 0.67698,0.27317 0.6176,0.48695 0.45132,0.62948 0.22566,0.6651 -0.0475,0.60572 -0.29692,0.4632 -0.51071,0.23753 -0.64135,-0.0238 -0.21378,-0.0594 m 4.19253,-1.57962 -0.76012,0.64135 -0.29692,0.17816 m 1.19956,-0.96203 -0.14252,0.13065 m -63.07797,35.73745 v 0 l -0.14252,-0.0119 -0.21378,-0.1544 -0.24942,-0.27317 -0.24941,-0.34443 -0.21379,-0.36818 -0.14252,-0.34443 -0.0475,-0.24941 m -0.0119,-0.0119 0.0475,-0.13065 m 308.09744,0 0.0475,0.13065 -0.0475,0.24941 -0.14252,0.34443 -0.21378,0.36818 -0.24941,0.34443 -0.24942,0.27317 -0.21378,0.1544 -0.14252,0.0119 v 0 m -59.66931,-34.96546 -0.13065,-0.21378 -0.0238,-0.34443 0.11876,-0.36818 0.24942,-0.34443 0.34443,-0.27317 0.38006,-0.1544 0.3563,-0.0119 0.28505,0.13065 0.0356,0.0356 m -215.3507,36.52129 h -0.11876 l -0.20191,-0.13065 m 0,0 -0.24941,-0.24941 -0.24942,-0.34443 -0.22566,-0.36818 -0.1544,-0.34443 -0.0713,-0.27317 0.0356,-0.1544 0.0119,-0.0119 m 185.83712,-33.44522 -0.68886,-0.40381 m 1.62713,0.8195 -0.93827,-0.41569 m 4.72699,-2.06657 0.0238,0.0475 -0.0119,0.36818 -0.19003,0.55822 -0.33256,0.65322 -0.43944,0.65323 -0.4632,0.55821 -0.42756,0.36819 -0.32068,0.13064 h -0.0119 m -5.36833,-3.05235 2.11408,1.37771 m -2.11408,-1.37771 -0.16628,-0.10689 m -25.33333,-5.62963 -0.22566,-0.0475 -0.0713,-0.0119 m 1.22332,0.14252 v 0 l -0.41569,-0.0119 -0.51071,-0.0713 m -2.62478,-4.06188 v -0.3088 -0.43944 -0.1544 m 0,4.03813 v -0.1544 -0.43945 -0.30879 m 2.33974,1.1758 1.91217,0.20191 m -0.0119,0.0119 h 4.31129 m 1.00954,-0.0713 -0.99766,0.0713 m 17.67276,1.73402 0.23753,-0.38006 m -0.0119,0 0.11877,-0.23753 0.0356,-0.26129 -0.0475,-0.2613 -0.19003,-0.3563 -0.41569,-0.43944 -0.29692,-0.22566 m -7.77934,-3.47992 h -0.39194 -0.40381 -0.41569 -0.42757 -0.42756 -0.43945 -0.45132 -0.45132 m 0,0 -0.92639,0.11877 -0.39194,0.15439 v 0 m 12.83888,7.60119 -0.14252,-0.86701 0.11877,-0.71261 0.26129,-0.65323 m -14.00281,-3.11173 -0.38006,0.43944 -0.3088,0.22566 m -1.98343,0.64135 1.31833,-0.32067 0.67698,-0.32068 m 16.40193,6.76981 -1.35396,-1.17581 -0.42757,-0.57009 -0.16627,-0.34443 m -5.36834,-3.96687 -0.27317,-0.0475 m 1.57962,0.0475 h -1.30645 m 5.92655,-1.37771 -0.47508,0.5107 -0.68885,0.33255 -0.74824,0.0238 -0.70074,-0.27316 -0.54633,-0.53446 -0.0356,-0.0594 m 0,-2.24473 0.47507,-0.5107 0.67698,-0.33255 0.74824,-0.0237 0.70074,0.27316 0.54633,0.53446 0.0356,0.0594 m -4.60822,3.62244 0.65323,-0.2019 m 0.32068,1.35396 -1.65089,1.23519 -0.34443,0.70073 0.0713,0.34443 0.2613,0.34443 1.03328,0.72449 1.66276,0.80763 4.27567,1.69839 m -4.9764,-6.04532 -0.32068,0.19003 m 1.33021,-0.772 -1.00953,0.58197 m 1.00953,-0.58197 -0.22566,0.095 -0.28505,0.0475 m 0,0 h -0.41569 m 0.0119,0 -0.24941,-0.0356 m 0,0 -0.13065,-0.0238 -0.11877,-0.0356 m 0.0119,-0.0119 -0.10689,-0.0475 -0.095,-0.0475 m -0.0119,0 -0.13065,-0.095 m 0,0 -0.10689,-0.17815 m 0,0 0.0475,-0.1544 m 0.14252,-0.10689 -0.13065,0.10689 m 0.13065,-0.10689 -2.39912,1.37771 m -2.24473,0.84326 -1.60337,0.24941 -2.47039,-0.11876 -2.36349,-0.36819 m -1.09267,-0.21378 1.08079,0.21378 m -9.16893,-1.98343 8.10001,1.75777 m -8.10001,-1.75777 0.095,0.0238 m -0.0119,0 0.48695,0.13064 m 0.0119,0 0.4632,0.1544 m 0,0 0.20191,0.095 0.16627,0.095 m 0.095,0.095 -0.0594,-0.0594 -0.0356,-0.0356 m 0.095,0.095 0.0119,0.0475 -0.0238,0.0356 m -0.28504,0.0594 0.22566,-0.0356 0.0594,-0.0356 m -0.28504,0.0713 -0.43945,-0.0237 -0.48695,-0.0713 m 0,0.0119 -0.29692,-0.0594 m 0.0119,0 3.08798,0.67698 m 1.55587,0.33255 -1.56775,-0.34442 m 11.88873,5.77215 -0.60572,-1.62713 -0.6651,-0.76012 -1.03329,-0.68886 -1.47273,-0.62947 -1.91217,-0.60572 -4.6201,-1.1283 m 10.39225,5.96218 -0.0831,-0.52258 m 0.24942,1.55586 -0.16628,-1.03328 m 0.16628,1.03328 v -0.095 m 0,0 v 0 m 0,0 0.0594,-0.11876 0.13065,-0.095 m 0.21378,-0.0356 -0.20191,0.0356 m 2.44664,-2.3635 0.11876,-0.0356 0.52259,-0.0475 0.65322,0.0475 0.78388,0.13065 2.03094,0.54633 1.72214,0.55822 2.04282,0.72448 2.42288,0.89077 m 0,0 0.57009,0.21378 m 0,-0.0119 -0.34443,-0.14252 m 0,0.0119 -0.36818,-0.19003 m 0,0 -0.24942,-0.19003 m -0.0119,-0.0119 -0.0356,-0.0831 m 0,0 0.0119,-0.0356 0.0356,-0.0238 m 0.0119,-0.0119 0.0594,-0.0238 0.095,-0.0119 m 0,0.0119 0.21378,0.0119 m 0,-0.0119 0.48695,0.0831 m 0,0 0.43945,0.11877 0.46319,0.1544 m 0,0 -2.90983,-1.0808 m -0.74824,-0.27316 0.76012,0.28504 m 36.75886,1.93593 0.19003,-0.0475 0.38006,-0.27317 0.45132,-0.48695 m 0,0 0.45132,-0.62947 0.39194,-0.66511 0.26129,-0.60572 0.095,-0.45132 -0.0356,-0.17815 m -18.6229,-8.1594 0.64135,0.0594 0.57009,0.14252 0.55821,0.23754 0.43944,0.27317 0.40381,0.34443 m -12.06688,2.16158 0.67698,0.19003 m -2.73167,-0.77199 2.05469,0.58196 m 17.86279,7.41116 -1.95968,-1.08079 m -0.52258,-0.27317 0.5107,0.28504 m -9.21644,-8.01687 -0.43944,0.54633 -0.62947,0.38006 -0.80763,0.22566 m 1.87654,-1.15205 0.14252,-0.41569 m 1.4371,-1.1283 -0.68885,0.14252 -0.29692,0.19003 -0.24942,0.28504 -0.13064,0.23754 -0.0713,0.26129 m 1.4371,-1.11642 h 1.19957 m -10.00031,2.83856 h 1.91217 m -5.32083,-4.2044 0.10689,0.0119 0.23754,0.1544 0.19003,0.29692 0.10689,0.40381 0.0119,0.43944 -0.095,0.41569 -0.17815,0.32068 -0.23754,0.17815 -0.1544,0.0238 m -0.9739,-2.24472 0.29692,-0.51071 0.42757,-0.33255 0.4632,-0.0238 0.43944,0.27317 0.33255,0.53446 0.19003,0.71261 0.0119,0.78387 -0.16628,0.74824 -0.32067,0.57009 -0.41569,0.33255 -0.4632,0.0238 -0.42757,-0.27316 -0.34443,-0.53446 -0.0238,-0.0594 m 4.39444,1.95968 -0.59385,-0.0356 m 13.95531,-0.9739 -0.73637,-0.78388 m 0.90264,2.5654 0.11877,-0.23753 0.0831,-0.26129 0.0356,-0.26129 -0.0356,-0.35631 -0.17815,-0.43944 -0.17816,-0.22566 m 0,2.16158 0.1544,-0.38006 m 0.48695,2.61291 -0.5107,-0.86701 -0.19003,-0.71261 0.0475,-0.65323 m 9.0264,5.01204 -0.14252,-0.1069 -0.32067,-0.0713 -0.38006,0.0713 -0.36818,0.20191 -0.3088,0.3088 -0.20191,0.36818 -0.0594,0.36818 0.0831,0.3088 0.0713,0.095 m -3.55118,-0.86701 0.14252,0.13065 m 0.43944,0.40381 -0.43944,-0.40381 m 5.83153,0.0356 0.0238,-0.0594 0.11877,-0.65323 -0.1544,-0.55821 -0.39194,-0.36818 -0.58197,-0.13065 -0.67698,0.13065 -0.6651,0.36818 -0.55821,0.55821 -0.36818,0.65323 -0.11877,0.65322 0.1544,0.55822 0.39193,0.36818 0.58197,0.13064 0.60572,-0.10689 m -20.3213,-7.98124 4.13315,1.23519 2.12595,0.70073 0.96203,0.34443 0.89076,0.34443 1.68652,0.72449 1.68651,0.80763 3.20675,1.69839 m -0.84326,-1.84092 -0.27317,-0.28504 -0.5107,-0.57009 -0.27317,-0.34443 m -11.74621,-3.3849 1.95969,-0.0238 0.76011,-0.0594 0.35631,-0.0594 m -88.1025,6.30661 v 0 l 0.26129,-0.1544 0.34443,-0.0119 0.38006,0.13064 0.35631,0.24942 0.27316,0.34443 0.14253,0.36818 v 0.34443 l -0.14253,0.27316 m -51.24862,28.27879 0.13065,-0.26129 0.41569,-0.41569 0.62947,-0.38006 0.73637,-0.28504 0.73636,-0.14252 0.62947,0.0119 0.38006,0.14252 m -5.20206,12.50632 -0.27317,0.32068 -0.17815,0.19003 m 4.45382,7.47054 h -0.22566 -0.28504 -0.10689 -0.0119 v 0 m -3.55118,-7.76746 0.17815,-0.19003 0.67698,-0.8195 m 3.61057,8.77699 h 0.70073 m -0.70073,0 h -0.1069 m 9.41835,0 h 0.5107 0.22566 m -122.14155,0 h -0.39194 -0.14252 m -0.0119,0 h -0.48695 -0.34443 -0.16628 -0.0119 m 2.20909,0 h -0.52258 m -10.166594,-19.02672 0.0119,0.0119 0.14252,-0.0119 0.27317,-0.095 0.35631,-0.16628 0.38006,-0.21378 0.34442,-0.22566 0.2613,-0.21378 0.14252,-0.1544 0.0119,-0.0713 m 14.347334,20.16686 h 1.36584 1.17581 0.87889 0.5107 0.10689 m -13.11204,-15.81997 v -0.0475 h 0.0119 l 0.0119,0.0119 m 7.83872,15.8556 h 1.21144 m -16.413814,-19.25238 -0.3563,0.28505 -0.26129,0.28504 m 0.0119,0 0.0119,0.14253 0.26129,-0.0119 0.48695,-0.16628 0.62947,-0.3088 0.67698,-0.39193 0.62948,-0.41569 0.47507,-0.38006 0.26129,-0.28505 v -0.14252 l -0.26129,0.0119 -0.48695,0.17815 -0.13064,0.0594 m 10.986094,20.39256 v 0 h -0.20191 -0.71261 -1.18769 m -0.83138,-14.32349 0.83138,0.32068 0.83138,0.28504 0.84326,0.24942 0.85513,0.21378 0.86701,0.17815 0.86701,0.14253 0.87889,0.095 0.87889,0.0594 m 2.09032,-0.16628 -1.50836,0.0119 -1.50836,-0.095 -1.49648,-0.20191 -1.48461,-0.3088 -1.46085,-0.41568 -1.42522,-0.52259 -1.3896,-0.61759 -1.34208,-0.72449 m 7.68432,15.81997 h -0.85513 -0.78387 -0.36818 -0.0594 -0.0238 m 12.92201,-14.5729 -0.0356,-0.0356 -0.42756,-0.36818 -0.3088,-0.13065 m 0,0 -0.16628,0.13065 0.0119,0.36818 0.19003,0.55821 0.33255,0.65323 0.43945,0.65322 0.46319,0.55822 0.41569,0.36818 0.32068,0.13064 0.16627,-0.13064 -0.0119,-0.36818 -0.17816,-0.51071 m -11.8531,12.69636 h -0.19003 m 10.45164,-14.33536 -0.0356,0.0594 0.0119,0.2019 0.10689,0.3088 0.19003,0.36818 0.23754,0.36819 0.26129,0.30879 0.23754,0.20191 0.17815,0.0713 0.0475,-0.0119 m -10.62979,5.72464 0.21379,-0.27316 0.23753,-0.28505 0.2613,-0.29692 0.28504,-0.3088 0.3088,-0.3088 0.32067,-0.32067 0.34443,-0.33255 0.35631,-0.33255 m -7.67245,3.40865 -0.59384,-0.54633 -0.60572,-0.58197 -0.6176,-0.6176 -0.62947,-0.65322 -0.62947,-0.67698 -0.64135,-0.71261 -0.641354,-0.73637 -0.64135,-0.76012 m 4.762614,10.7248 0.24942,0.0475 1.03328,0.20191 1.16394,0.10689 m 3.61056,-2.2566 h -0.0713 l -0.40382,-0.11877 -0.33255,-0.27317 -0.2019,-0.38006 -0.0475,-0.42757 0.10689,-0.42756 m -0.0119,0.0119 0.24942,-0.34443 0.3563,-0.21378 0.33255,-0.0594 m 1.61526,2.23284 -0.34443,0.40382 -0.65323,0.39193 -0.74824,0.095 -0.72449,-0.21378 -0.59384,-0.48695 -0.36818,-0.68886 -0.095,-0.78387 0.20191,-0.76012 m 0.0119,0.0238 0.4632,-0.6176 0.65323,-0.39193 0.74824,-0.095 0.72449,0.2019 0.59384,0.48696 0.14252,0.2019 m 118.10343,-10.62978 0.67698,0.13064 0.66511,0.36819 0.55821,0.55821 0.3563,0.65323 0.11877,0.53445 m -27.25738,7.6962 -0.16627,0.16628 -0.32068,0.58197 -0.16627,0.73636 0.0119,0.78387 0.19003,0.71262 0.34443,0.53445 m 0.0119,0.0119 0.095,0.095 m 13.95531,1.54399 h -0.59385 -0.19003 -0.0119 m 5.19018,0 h -0.0475 -0.0475 -0.0356 -0.0475 -0.0475 -0.0356 -0.0475 -0.0356 m 0,0 h -0.54633 -0.14252 m 6.03344,0 h -0.0119 -0.24941 -1.00954 -2.17346 m 0,0 h -1.56774 m 3.57493,-12.94577 -0.0475,-0.0119 -0.17815,-0.0238 -0.13065,0.0119 m 13.48023,11.62744 v 0 -0.21379 -0.48695 -0.68886 -0.78387 -0.76012 m 0,0.0119 v -0.6176 -0.39193 -0.10689 m -14.20471,-7.55368 0.28504,0.0713 0.38006,0.0594 m -4.18089,12.80325 h -0.52258 -0.59385 -0.61759 -0.58197 -0.49883 -0.3563 -0.19003 -0.0238 m 5.52274,-14.07407 -0.0356,-0.11877 -0.0119,-0.0238 v 0 m -11.37802,5.66526 -0.40382,0.33255 -1.16393,0.85513 -1.23519,0.772 m -0.29692,0.26129 1.22331,-0.772 1.16394,-0.85513 1.10454,-0.93827 1.03329,-1.00954 0.96202,-1.09267 0.89077,-1.16393 0.8195,-1.22331 0.4632,-0.78388 m 0.0119,1.36584 v 0.27317 m 2.24472,-7.05485 0.0356,0.13064 0.17815,0.21379 0.32068,0.1544 m -0.0119,0 0.41569,0.0831 0.43945,-0.0119 0.40381,-0.095 0.29692,-0.16628 0.1544,-0.21378 0.0119,-0.095 m -2.24473,-0.89077 -0.0594,0.0237 -0.53446,0.3088 -0.27317,0.39194 0.0237,0.41569 0.33256,0.38006 0.58196,0.28504 m -0.0119,-0.0119 0.73636,0.14252 0.78387,-0.0119 0.71261,-0.16627 0.53446,-0.3088 0.27317,-0.39194 -0.0238,-0.41569 -0.32068,-0.38005 -0.5107,-0.2613 m 176.38314,7.62494 0.1069,-0.54633 0.36818,-0.65323 0.55821,-0.55821 0.6651,-0.36818 0.67698,-0.13065 m 11.16444,15.10736 h -0.27317 m -8.02875,0 h 0.9739 m 3.70558,0 h -0.0356 -0.0356 -0.0356 -0.0356 -0.0356 -0.0356 -0.0356 -0.0356 m 0.0238,0 h -0.85514 -0.29692 -0.0238 m 0,0 h -0.0238 -0.17815 -0.36818 -0.60572 -1.09267 m 7.10236,0 h -0.0356 -0.21379 -0.38006 -0.5107 -0.59384 -0.6176 -0.58197 m 0,0 h -0.46319 m -7.57744,-7.99312 0.0356,-0.11877 m 17.62525,-12.28066 -0.23753,-0.095 -0.45132,-0.14253 -0.22566,0.0119 0.0475,0.17816 0.29693,0.3088 0.5107,0.39193 0.64135,0.41569 0.67698,0.38006 0.6176,0.28504 m 0.0119,-0.0238 0.45132,0.14253 0.22566,-0.0119 -0.0475,-0.16628 -0.29692,-0.3088 -0.28505,-0.22566 m -2.07845,-0.90264 0.0238,0.095 0.16627,0.16628 0.28505,0.21378 0.3563,0.22566 0.38006,0.21378 0.34443,0.1544 m 0,0 0.24941,0.0831 0.11877,-0.0119 v -0.0119 m -25.92717,14.53727 0.1544,0.0356 0.23754,0.17816 0.17815,0.32067 0.095,0.41569 -0.0119,0.43944 -0.10689,0.39194 -0.19003,0.29692 m -0.0119,0 -0.23754,0.1544 -0.10689,0.0119 m -0.98578,-2.24472 0.0238,-0.0594 0.34443,-0.53446 0.42756,-0.27317 0.4632,0.0238 0.41569,0.33255 0.32067,0.58197 0.16628,0.73636 -0.0119,0.78387 -0.19003,0.71262 -0.34442,0.53445 m 0,0.0119 -0.42757,0.27317 -0.4632,-0.0238 -0.42757,-0.33255 -0.29692,-0.51071 m -257.8346,-13.81278 0.2019,0.35631 0.0594,0.0713 m -0.34443,-0.20191 0.32067,0.19003 0.0356,0.0119 v 0 m 0.21379,0.16628 1.02141,0.60572 m -1.2352,-0.772 0.21379,0.16628 m 5.20206,2.19722 -1.1283,-0.28505 -1.23519,-0.41569 -1.18769,-0.52258 -1.14018,-0.6176 -1.08079,-0.72448 m 17.51836,3.12361 0.17815,0.5107 0.0119,0.36819 -0.16628,0.13064 -0.32067,-0.13064 -0.42757,-0.36819 -0.4632,-0.55821 -0.42757,-0.65323 -0.34442,-0.65322 -0.19003,-0.55821 -0.0119,-0.36819 0.16628,-0.13064 m 0,0 0.32067,0.13064 0.42757,0.36819 0.0356,0.0356 m 0.84325,2.12595 -0.0475,0.0119 -0.17816,-0.0713 -0.23753,-0.2019 -0.26129,-0.3088 -0.23754,-0.36818 -0.19003,-0.36819 -0.10689,-0.3088 -0.0119,-0.2019 0.0356,-0.0594 m -19.73933,9.21644 -0.65323,-0.24942 -0.74824,0.0238 -0.67698,0.33255 -0.47507,0.51071 m 18.76543,-8.36131 -0.11877,-0.54633 -0.36818,-0.65323 -0.55822,-0.55821 -0.6651,-0.36818 -0.67698,-0.13065 m -11.28314,15.10736 h 0.13064 m 0,0 h 0.45132 m 7.8506,0 h -0.9739 m -3.70558,0 h 0.0356 0.0356 0.0356 0.0356 0.0356 0.0356 0.0356 0.0356 m -0.0238,0 h 0.85514 0.29692 0.0238 m 0,0 h 0.0238 0.17815 0.36818 0.60572 1.09267 m -4.1569,0 h 0.4632 m -3.39678,0 h 0.0356 0.21378 0.38006 0.51071 0.59384 0.6176 0.58196 m -9.4896,-20.15502 -0.0238,0.095 -0.16627,0.16627 -0.28505,0.21379 -0.3563,0.22566 -0.38006,0.21378 -0.34443,0.1544 m 0,0 -0.24941,0.0831 -0.11877,-0.0119 v -0.0119 m 19.48991,11.14049 -0.0237,-0.0475 -0.0238,-0.0594 m -17.64901,-12.39944 0.23754,-0.095 0.45132,-0.14252 0.22566,0.0119 -0.0475,0.17815 -0.29692,0.3088 -0.5107,0.39194 -0.64135,0.41569 -0.67698,0.38006 -0.64135,0.26129 m 0,0 -0.45132,0.14252 -0.22566,-0.0119 0.0475,-0.16628 0.29692,-0.3088 0.28505,-0.22566 m 27.07922,14.76293 -0.0238,-0.0594 -0.34443,-0.53446 -0.43944,-0.27316 -0.4632,0.0238 -0.42757,0.33255 -0.32067,0.58197 -0.16628,0.73636 0.0119,0.78387 0.19003,0.71261 0.34443,0.53446 m 0.0237,0.0119 0.42757,0.27317 0.4632,-0.0238 0.42756,-0.33255 0.29692,-0.51071 m -0.99765,-2.2566 -0.1544,0.0356 -0.23754,0.17815 -0.17815,0.32068 -0.095,0.41569 0.0119,0.43944 0.10689,0.39194 0.19003,0.29692 m 0.0119,0 0.23754,0.1544 0.10689,0.0119 m 164.45878,-12.86263 -0.67698,0.13064 -0.6651,0.36818 -0.55821,0.55822 -0.35631,0.65322 -0.11877,0.53446 m 27.24551,7.6962 0.16627,0.16628 0.32068,0.58196 0.16627,0.73637 -0.0119,0.78387 -0.19003,0.71261 -0.33256,0.53446 m -14.06219,1.65088 h 0.59384 0.19003 0.0119 m -4.85763,0 h 0.54633 0.14252 m -1.02141,0 h 0.0475 0.0475 0.0356 0.0475 0.0475 0.0475 0.0356 0.0475 m -1.92405,0 h 1.56774 m -5.01203,0 h 0.0119 0.24941 1.00954 2.17346 m 2.58915,0 h 0.52258 0.59385 0.61759 0.58197 0.48695 0.35631 0.19003 0.0238 m -21.09296,-1.34208 v 0 -0.21379 -0.48695 -0.68886 -0.78387 -0.76012 m 0,0.0119 v -0.61759 -0.39194 -0.10689 m 27.01984,-3.17112 0.40381,0.33255 1.16393,0.85513 1.22332,0.772 m -15.60619,-6.34224 -0.28504,0.0713 -0.38006,0.0594 m 16.58009,6.47289 -1.22332,-0.772 -1.16393,-0.85513 -1.10455,-0.93827 -1.03328,-1.00954 -0.96203,-1.09267 -0.89076,-1.16393 -0.8195,-1.22332 -0.4632,-0.78387 m -0.0119,1.30646 v 0.33255 m -2.24472,-7.05485 -0.0238,0.13064 -0.17815,0.21379 -0.32068,0.15439 m -0.0119,0 -0.41569,0.0831 -0.43945,-0.0119 -0.39193,-0.095 -0.29692,-0.16627 -0.1544,-0.21378 -0.0119,-0.095 m 2.24473,-0.89077 0.0594,0.0238 0.53446,0.3088 0.27317,0.39194 -0.0238,0.41569 -0.33255,0.38006 -0.58197,0.28504 m 0.0119,-0.0119 -0.73636,0.14252 -0.78388,-0.0119 -0.71261,-0.16627 -0.53446,-0.3088 -0.27316,-0.39194 0.0237,-0.41569 0.33255,-0.38006 0.51071,-0.26129 m 118.26986,20.4757 h 0.39194 0.14252 m -0.67698,0 v 0 h 0.0238 0.0119 0.0119 0.0238 0.0237 0.0238 0.0238 m 0.53446,0 h 0.48695 0.34443 0.16628 0.0119 m -2.20909,0 h 0.52258 m 2.96921,-15.81997 v -0.0475 h -0.0119 l -0.0119,0.0119 m 7.36365,-3.39678 0.3563,0.28505 0.26129,0.28504 m 0,0 -0.0119,0.14252 -0.26129,-0.0119 -0.48695,-0.16627 -0.62948,-0.3088 -0.67698,-0.39194 -0.62947,-0.41569 -0.47508,-0.38006 -0.26129,-0.28504 v -0.14252 l 0.26129,0.0119 0.48696,0.17815 0.13064,0.0594 m -10.98622,20.39255 v 0 h 0.20191 0.71261 1.18768 m -8.11189,-12.94577 1.50836,0.0119 1.50836,-0.095 1.49649,-0.20191 1.4846,-0.3088 1.46086,-0.41569 1.42522,-0.52258 1.38959,-0.61759 1.34209,-0.72449 m -2.6723,1.49648 -0.83138,0.32068 -0.83137,0.28504 -0.85514,0.24941 -0.85513,0.21379 -0.86701,0.17815 -0.86701,0.14252 -0.87889,0.095 -0.87889,0.0594 m 1.66276,12.7795 h -1.21144 m -0.0119,0 h -1.36584 -1.16393 -0.87889 -0.5107 -0.1069 m -5.02391,-14.33536 0.0356,0.0594 -0.0119,0.2019 -0.10689,0.3088 -0.19003,0.36818 -0.23754,0.36818 -0.26129,0.3088 -0.23754,0.20191 -0.17815,0.0713 -0.0475,-0.0119 m 26.56852,-6.5679 -0.0119,0.0119 -0.14253,-0.0119 -0.27316,-0.095 -0.35631,-0.16628 -0.38006,-0.21378 -0.34443,-0.22566 -0.26129,-0.21378 -0.14252,-0.1544 -0.0119,-0.0713 m -12.94564,20.16689 h 0.85514 0.78387 0.36818 0.0594 0.0238 m -12.92202,-14.57289 0.0356,-0.0356 0.42757,-0.36819 0.3088,-0.13064 m 0,0 0.16627,0.13064 -0.0119,0.36819 -0.19003,0.55821 -0.33255,0.65322 -0.43945,0.65323 -0.4632,0.55821 -0.41569,0.36819 -0.32067,0.13064 -0.16628,-0.13064 0.0119,-0.36819 0.17815,-0.5107 m 11.8531,12.69636 h 0.19003 m -1.05704,-6.73418 -0.21378,-0.27317 -0.23754,-0.28504 -0.26129,-0.29692 -0.28504,-0.3088 -0.3088,-0.3088 -0.32068,-0.32068 -0.34443,-0.33255 -0.3563,-0.33255 m 7.67245,3.40866 0.59384,-0.54634 0.60572,-0.58196 0.61759,-0.6176 0.62948,-0.65323 0.62947,-0.67698 0.64135,-0.71261 0.64135,-0.73636 0.64135,-0.76012 m -4.76262,10.7248 -0.24941,0.0475 -1.03329,0.2019 -1.16393,0.10689 m -3.61056,-2.2566 h 0.0713 l 0.40381,-0.11877 0.33255,-0.27316 0.20191,-0.38006 0.0475,-0.42757 -0.10689,-0.42757 m 0,0.0119 -0.26129,-0.34443 -0.35631,-0.21378 -0.33255,-0.0594 m -1.60338,2.23285 0.33256,0.40381 0.65322,0.39194 0.74824,0.095 0.72449,-0.21378 0.59384,-0.48696 0.36819,-0.68885 0.095,-0.78388 -0.2019,-0.76011 m 0,0.0238 -0.4632,-0.6176 -0.65323,-0.39194 -0.74824,-0.095 -0.72449,0.20191 -0.59384,0.48695 -0.14252,0.20191 m -101.38082,-14.69167 -0.13065,-0.26129 -0.41569,-0.41569 -0.62947,-0.38006 -0.73637,-0.28504 -0.73636,-0.14253 -0.62947,0.0119 -0.38006,0.14253 m 1.02141,20.49944 h 0.40381 0.28504 0.10689 0.0119 v 0 m 2.66042,-8.95514 0.3088,0.43944 0.70073,0.85513 0.17815,0.19003 m -4.76262,7.47054 h -0.70073 m 5.16643,-7.76746 -0.17815,-0.19003 -0.70074,-0.85513 -0.1544,-0.22566 m -3.43241,9.03828 h 0.1069 m -6.54415,0 h -0.52258 -1.05704 m 88.09062,-15.58243 0.0594,-0.0356 m -0.0594,0.0356 0.0475,-0.0356 m 0.27316,-0.42756 -0.2019,0.3563 -0.0594,0.0713 m 0.34443,-0.2019 -0.32067,0.19002 -0.0356,0.0119 v 0 m 0,0 -0.21379,0.16628 m 0,0 -1.02141,0.60572 m -4.1569,1.5915 1.11643,-0.27317 1.23519,-0.41569 1.18769,-0.52258 1.14017,-0.6176 1.0808,-0.72448 m -17.15018,3.36114 0.0475,0.0119 0.17815,-0.0713 0.23754,-0.2019 0.26129,-0.3088 0.23754,-0.36818 0.19003,-0.36818 0.10689,-0.3088 0.0119,-0.20191 -0.0356,-0.0594 m -1.61526,1.62713 -0.17815,0.5107 -0.0119,0.36819 0.16628,0.13064 0.32067,-0.13064 0.42757,-0.36819 0.4632,-0.55821 0.42757,-0.65323 0.34442,-0.65322 0.19003,-0.55821 0.0119,-0.36819 -0.16628,-0.13064 m 0,0 -0.32067,0.13064 -0.41569,0.36819 -0.0356,0.0356 m 20.13127,9.46585 0.65322,-0.24942 0.74824,0.0238 0.67698,0.33256 0.47508,0.5107 m -197.40518,-15.09548 0.0356,0.13065 0.17815,0.21378 0.32068,0.1544 m -0.0119,0 0.41569,0.0831 0.43945,-0.0119 0.40381,-0.095 0.29692,-0.16628 0.1544,-0.21378 0.0119,-0.095 m -0.53446,-56.83074 0.32067,0.15439 0.17816,0.21379 0.0119,0.22566 -0.1544,0.21378 -0.29692,0.16628 -0.40381,0.095 -0.43944,0.0119 -0.41569,-0.0831 -0.32068,-0.1544 -0.17815,-0.21379 -0.0119,-0.22566 0.1544,-0.21378 0.29692,-0.16627 0.40381,-0.095 0.43945,-0.0119 0.41569,0.0831 m -69.59848,71.92623 h -0.0475 l -0.24941,0.11876 -0.20191,0.27317 -0.11877,0.38006 -0.0356,0.43944 0.0713,0.41569 m 0,0 0.1544,0.34443 0.22566,0.21379 0.21379,0.0594 m 173.94839,-73.16142 -0.41569,0.0831 -0.43945,-0.0119 -0.39193,-0.095 -0.29692,-0.16628 -0.1544,-0.21378 0.0119,-0.22566 0.17816,-0.21378 0.32067,-0.1544 0.41569,-0.0831 0.43945,0.0119 0.40381,0.095 0.29692,0.16627 0.1544,0.21379 -0.0119,0.22566 -0.17815,0.21378 -0.33255,0.1544 m -1.71027,55.82121 0.0119,0.095 0.1544,0.21378 0.29692,0.16628 0.39193,0.095 0.43945,0.0119 0.41569,-0.0831 0.32067,-0.1544 0.17816,-0.21378 0.0238,-0.13065 m 91.89121,-0.57009 0.0238,0.095 0.16627,0.16628 0.28505,0.21378 0.3563,0.22566 0.38006,0.21379 0.34443,0.15439 m 0,0 0.24941,0.0831 0.11877,-0.0119 v -0.0119 m 31.5568,-57.38895 0.34443,0.1544 0.38006,0.21378 0.35631,0.22566 0.28504,0.21379 0.16628,0.16627 0.0238,0.095 -0.11877,0.0119 -0.24941,-0.0831 -0.34443,-0.1544 -0.38006,-0.21378 -0.35631,-0.22566 -0.28504,-0.21378 -0.16628,-0.16628 -0.0237,-0.095 0.11877,-0.0119 0.24941,0.0831 m -57.48397,74.17095 0.21379,-0.0594 0.22566,-0.21379 0.15439,-0.34442 0.0713,-0.41569 -0.0356,-0.43945 -0.13065,-0.38006 -0.20191,-0.27316 -0.24941,-0.11877 h -0.0475 m 91.2855,-70.91669 v 0.0831 l -0.14253,-0.0119 -0.27316,-0.095 -0.35631,-0.16628 -0.38006,-0.21378 -0.34443,-0.22566 -0.26129,-0.21379 -0.14252,-0.1544 v -0.0831 l 0.14252,0.0119 0.27317,0.095 0.3563,0.16628 0.38006,0.21378 0.34443,0.22566 0.26129,0.21379 0.14253,0.1544 m -35.02484,55.25112 0.0119,0.0713 0.14252,0.1544 0.2613,0.21378 0.34442,0.22566 0.38006,0.21378 0.35631,0.16628 0.27317,0.095 0.14252,0.0119 0.0119,-0.0119 m -15.33302,-56.51007 0.0119,-0.0356 -0.0475,-0.21378 -0.20191,-0.22566 -0.33255,-0.21379 -0.40381,-0.16627 -0.41569,-0.095 -0.35631,-0.0119 -0.24941,0.0831 m -0.0238,-0.0119 -0.10689,0.11877 m 1.06892,74.05218 h 0.0713 l 0.40381,-0.11877 m 0,0 0.33255,-0.27317 0.20191,-0.38006 0.0475,-0.42756 -0.10689,-0.42757 -0.26129,-0.34443 -0.35631,-0.21378 -0.33255,-0.0594 m -342.350304,-14.53727 0.0119,0.0119 0.14252,-0.0119 0.27317,-0.095 0.35631,-0.16628 0.38006,-0.21378 0.34442,-0.22566 0.2613,-0.21379 0.14252,-0.15439 0.0119,-0.0713 m -33.11266,-56.24878 -0.142522,0.1544 -0.261291,0.21378 -0.344429,0.22566 -0.380059,0.21379 -0.356306,0.16627 -0.273167,0.095 -0.142522,0.0119 v -0.0831 l 0.142522,-0.1544 0.261291,-0.21378 0.344428,-0.22566 0.38006,-0.21379 0.356305,-0.16627 0.273168,-0.095 0.142522,-0.0119 v 0.0831 m 47.590554,71.92622 -0.33255,0.0594 -0.35631,0.21379 -0.24941,0.34442 -0.10689,0.42757 0.0475,0.42757 0.20191,0.38006 0.33255,0.27316 0.40381,0.11877 h 0.0713 m -16.888894,-73.16141 -0.24941,0.0831 -0.11877,-0.0119 0.0237,-0.095 0.16628,-0.16628 0.28504,-0.21378 0.35631,-0.22566 0.38006,-0.21379 0.34443,-0.1544 0.24941,-0.0831 0.11877,0.0119 -0.0238,0.095 -0.16627,0.16628 -0.28505,0.21378 -0.3563,0.22566 -0.38006,0.21379 -0.34443,0.1544 m 32.720734,56.37942 v 0 l 0.13065,0.0119 0.24941,-0.0831 0.34443,-0.1544 0.38006,-0.21378 0.3563,-0.22566 0.28505,-0.21379 0.16627,-0.16627 0.0238,-0.095 m -16.72261,-56.13001 -0.10689,-0.11877 -0.24942,-0.0831 -0.3563,0.0119 -0.41569,0.095 -0.40382,0.16628 -0.33255,0.21378 -0.2019,0.22566 -0.0475,0.21378 0.0119,0.0356 m 243.60613,0.0119 0.0119,-0.0713 -0.0831,-0.21378 -0.23754,-0.22566 -0.34443,-0.21378 -0.40381,-0.1544 -0.40381,-0.0831 -0.34443,0.0119 -0.22566,0.095 -0.0713,0.095 m -154.96918,-0.0119 -0.0713,-0.095 -0.23754,-0.095 -0.34443,-0.0119 -0.40381,0.0831 m 0,0 -0.40381,0.1544 -0.34443,0.21378 -0.23754,0.22566 -0.0831,0.21378 0.0119,0.0713 m 88.31628,28.11251 32.30504,33.96781 m 1.63901,-1.544 -32.30505,-33.9678 m 111.43998,34.63293 -53.19643,-34.57352 m -1.22331,1.88842 53.19642,34.57352 m -69.51522,-46.90169 h -34.64478 m 52.57883,0 h -15.68932 m 0,2.24472 h 15.68932 m -52.57883,0 h 34.64478 m -145.84776,8.12377 -32.30504,33.9678 m 1.62713,1.55587 32.30504,-33.9678 m 39.85872,-11.92436 h -15.68932 m 52.56695,0 h -34.64478 m 0.0119,2.24472 h 34.64478 m -52.59071,0 h 15.68932 m 41.3077,-4.18065 -1.1283,0.0594 -1.41335,0.39194 -1.16393,0.60572 -0.19003,0.1544 m 0.0119,3.66994 0.6651,0.45132 1.29458,0.53446 0.6651,0.11877 m 0.0119,0 0.17815,0.0356 m 25.07204,0.0831 0.38006,-0.0238 m 0,0 0.74824,-0.0356 1.41335,-0.39194 1.16393,-0.60571 0.19003,-0.1544 m -0.0119,-3.66995 -0.6651,-0.45132 -1.30646,-0.53446 -1.44897,-0.24941 -0.4632,0.0238 m 0,-0.0475 h -11.99562 m 9.32333,6.17596 h 0.38006 m -9.70339,-6.17596 h -12.0075 m 1.91217,6.17596 h 0.33256 m 4.58446,6.84107 2.47039,-2.60103 m -1.09267,-7.81497 -5.85529,6.15221 m 12.39943,1.69839 2.43476,2.5654 m 4.47757,-4.25192 -5.85529,-6.15221 m -13.42084,6.17597 -0.54634,0.57009 -0.68886,1.22331 -0.3563,1.19956 -0.0475,0.65323 m 2.49414,2.36349 0.68886,-0.0831 1.21144,-0.45132 1.15205,-0.74824 0.49883,-0.53446 m 10.42788,0 0.42756,0.47508 1.17581,0.78387 1.18769,0.45132 0.77199,0.10689 m 2.48227,-2.36349 -0.095,-0.89077 -0.43944,-1.23519 -0.73637,-1.16393 -0.36818,-0.35631 m -64.8595,2.60104 0.0119,0.2019 0.34443,1.17581 0.57009,0.93827 0.68886,0.65323 0.45132,0.23754 m 1.95968,0.0119 0.79575,-0.53446 0.6651,-0.84326 0.4632,-1.06892 0.17815,-1.19956 -0.0119,-0.0713 m 0.0238,0 v -0.86706 m -16.75824,-1.71027 -0.17816,0.10689 -1.31833,1.11643 -0.99765,1.24707 -0.39194,0.73636 m 2.13784,3.28989 1.2827,-0.1544 0.74824,-0.23754 m 4.75074,-10.04781 -6.04532,3.91936 m 32.75636,-7.22113 -0.49883,-0.24941 -0.5107,-0.21379 -0.52258,-0.17815 -0.53446,-0.1544 -0.53446,-0.11877 -0.54633,-0.0831 -0.54634,-0.0475 -0.55821,-0.0119 m 2.30411,5.86717 0.24941,-0.0713 0.24942,-0.0831 0.24941,-0.0831 0.24941,-0.095 0.23754,-0.095 0.23754,-0.10689 0.23753,-0.11877 0.23754,-0.11877 m -4.24003,-5.10704 h -13.70589 m -2.24473,0 h -3.45616 m -3.06423,4.37068 0.0119,0.0356 0.61759,0.8195 0.93827,0.62947 1.1283,0.29693 h 0.0831 m 0.27317,-6.10471 -0.64135,0.0119 -1.04516,0.35631 -0.83138,0.61759 -0.55821,0.78388 -0.0475,0.1544 m -38.21972,6.34224 -0.19003,0.10689 -1.31833,1.11642 -0.99765,1.24707 -0.39194,0.73637 m 2.14971,3.28988 1.2827,-0.1544 0.85514,-0.27316 m 16.877,-14.38287 h -4.58446 m 0,0 -0.22566,0.0119 -0.22566,0.0238 -0.21378,0.0356 -0.21379,0.0594 -0.21378,0.0713 -0.20191,0.0831 -0.2019,0.095 -0.19003,0.11877 m 0,0 -11.99563,7.80309 m 25.67776,-8.30192 h -12.0075 m 9.33521,6.17596 h 0.39193 m -13.14767,-3.95499 -6.22347,6.54415 m 4.46569,4.25191 2.16159,-2.26848 m 18.89607,-9.4896 -0.6651,-0.45132 -1.30645,-0.53446 -1.44898,-0.24942 -0.4632,0.0238 m 0.95015,6.04532 0.19003,-0.0119 0.24942,-0.0713 m 0,0 1.15205,-0.32067 1.16393,-0.60572 0.17815,-0.14253 m -24.63259,9.85779 0.34443,-0.0238 1.19956,-0.3563 0.64135,-0.36819 m 0.93827,-0.65322 0.42757,-0.40382 m -4.41819,-4.2044 -0.6651,0.76012 -0.64135,1.22331 -0.3088,1.18769 -0.0238,0.48695 m -46.75918,29.69213 42.82794,-27.83934 m -53.19643,34.57352 5.2852,-3.43241 m -0.34443,-2.45851 -6.16408,4.0025 m 53.19642,-34.56164 -43.54054,28.29066 m 291.92117,4.71511 5.29708,3.44429 m -53.19643,-34.57352 42.82794,27.82747 m 1.9478,-1.41335 -43.55242,-28.30254 m 53.19642,34.57352 -6.15221,-3.99062 m -20.79637,3.32551 -32.30504,-33.9678 m -1.62712,1.544 32.30504,33.9678 M 204.25742,341.32293 151.061,375.89645 m 1.22331,1.87654 53.19643,-34.57352 m 121.80901,-0.772 0.30879,-0.48695 0.41569,-1.10454 0.0475,-0.58197 m -6.06907,-0.4632 0.0594,0.95015 0.39194,1.1283 0.60572,0.87889 0.70073,0.59384 0.32068,0.14252 m 1.93593,0.0356 0.0713,-0.0238 0.78387,-0.57009 0.42757,-0.48695 m 10.11908,0.87889 1.22331,0.32068 0.83138,0.0594 m 2.14971,-3.28989 -0.6651,-1.10455 -1.09267,-1.21144 -1.15206,-0.86701 m -16.74636,1.67464 v 0.87888 m 16.77012,-2.57727 -6.06908,-3.94312 m -22.45912,-4.3588 -0.54634,0.0119 -0.54634,0.0475 -0.54633,0.0831 -0.53446,0.11876 -0.53446,0.1544 -0.52258,0.17816 -0.5107,0.21378 -0.49883,0.24941 m 0,4.05001 0.23754,0.11877 0.23753,0.11877 0.23754,0.10689 0.23754,0.095 0.24941,0.095 0.24941,0.0831 0.24942,0.0831 0.24941,0.0713 m 16.01,-5.87904 h -13.71776 m 19.41865,0 h -3.46804 m 6.57978,1.97155 -0.23754,-0.49882 -0.73637,-0.772 -1.03328,-0.52258 -1.09267,-0.1544 m -0.0119,6.14033 1.02141,-0.13064 0.9739,-0.45132 0.73637,-0.67698 0.30879,-0.53446 m 36.94889,10.03594 1.27083,0.33255 0.83138,0.0594 m 2.16159,-3.28989 -0.66511,-1.11642 -1.08079,-1.21144 -1.15206,-0.86701 m -13.68213,-8.3138 h -4.58447 m 6.2591,0.49883 -0.19003,-0.11877 -0.2019,-0.095 -0.20191,-0.0831 -0.21378,-0.0713 -0.21379,-0.0594 -0.21378,-0.0356 -0.22566,-0.0238 -0.22566,-0.0119 m 13.69401,8.30192 -12.0075,-7.80309 m -1.67463,-0.49883 h -11.99562 m 1.90029,6.17596 h 0.33255 m -6.11657,-1.25894 0.6651,0.45132 1.30645,0.53446 0.83138,0.14252 m 1.06892,-6.00969 -1.1283,0.0594 -1.41335,0.39194 -1.16393,0.60572 -0.19003,0.1544 m 25.55899,7.51804 -6.22347,-6.54414 m -0.39194,8.55133 2.13784,2.24473 m 6.08094,-0.59384 -0.10689,-0.89077 -0.43944,-1.23519 -0.73637,-1.16393 -0.3563,-0.34443 m -3.5393,4.96452 0.26129,0.21379 1.19956,0.58196 1.1283,0.26129 h 0.10689 m -134.2441,33.05328 32.30504,-33.9678 m -1.62713,-1.55587 -32.30504,33.9678 m -12.06688,-3.93124 -0.80763,-0.89076 -0.84325,-0.64135 m -3.57494,1.30645 -0.17815,0.64135 -0.13064,1.49648 0.17815,1.55587 0.34443,1.02141 m -0.0475,0.0356 0.53446,1.48461 m 0.13064,-0.64135 -0.19003,1.03328 -0.60572,1.87655 -0.87888,1.68651 -0.78388,1.00953 m 0.64135,-0.77199 -0.73636,0.95015 -1.22332,1.06891 m 18.10033,6.7223 v 0 m -23.33802,-1.57962 0.51071,0.42757 1.21144,0.65322 1.40146,0.40382 1.22332,0.0831 m -103.98186,0.0119 h 1.18769 m -5.57025,-15.87936 -0.0713,-0.0356 -0.19003,-0.16627 -0.10689,-0.14252 -0.0119,-0.0237 m -0.427564,12.63697 0.130644,0.23753 0.0119,0.17816 m 0.0238,0.0237 0.0475,0.47507 0.10689,0.4632 0.16628,0.45132 0.22566,0.42757 0.27316,0.40381 0.32068,0.3563 0.3563,0.32068 0.39194,0.27317 m 11.02172,-13.23082 -0.0119,0.0119 -0.0594,0.0475 -0.11877,0.0713 -0.3088,0.10689 h -0.13064 m 2.06657,7.11424 v 0 l 0.095,-0.21378 0.2613,-0.22566 m -14.44226,-9.91718 -0.605724,-1.03328 m -5.80778,3.40865 6.02157,10.23785 m 13.848414,3.62244 0.0238,-0.0594 0.0237,-0.0594 0.0238,-0.0594 0.0238,-0.0594 0.0119,-0.0594 0.0119,-0.0594 0.0119,-0.0594 0.0119,-0.0594 m -21.212064,-18.14783 0.0713,1.52024 0.38006,1.61525 0.68886,1.52024 0.0713,0.10689 m 5.78403,-3.40866 -0.95015,-1.34208 -1.19957,-1.1283 -1.2827,-0.83138 -0.13064,-0.0594 m 18.135954,16.14064 0.11877,-1.40147 m -0.46319,5.42772 0.15439,-1.78153 m 4.32318,-12.85075 -1.40147,0.10689 -1.56774,0.41569 -1.48461,0.72449 -0.19003,0.14252 m 3.64619,5.60588 1.21144,-0.9264 1.06892,-1.22331 0.77199,-1.29458 0.095,-0.26129 m -5.81966,5.47523 2.68417,-1.7459 m -3.66995,-5.65338 -0.90264,0.58196 m -1.29458,8.10002 0.24942,-0.3088 0.91452,-0.95015 0.57009,-0.53446 m 0.0119,-0.0119 0.42757,-0.40381 m -6.29473,0.52258 h -0.0119 l -0.10689,-0.0119 -0.21379,-0.0475 -0.24941,-0.11877 -0.10689,-0.10689 m -0.0119,0.0119 -0.10689,-0.095 -1.48461,-1.35396 -1.57962,-1.60338 -1.639,-1.81715 -0.10689,-0.11877 m 0,-0.0119 -0.55822,-0.67698 m 7.16175,5.9503 h -1.00954 m -1.14017,6.73418 h 2.14971 m 3.31364,-4.65573 -0.19003,-0.42757 -0.74824,-0.8195 -1.03329,-0.58197 -1.18769,-0.23753 -0.15439,0.0119 m -0.0238,6.71042 0.0475,0.0119 1.15205,-0.19003 0.99766,-0.49883 0.76012,-0.72449 0.47507,-0.84325 m 117.74713,-12.86264 -0.71262,0.0594 -1.22331,0.32068 -1.21144,0.64135 -1.00953,0.86701 m 4.822,4.60822 0.49883,-0.51071 0.72449,-1.23519 0.39193,-1.22331 0.10689,-1.11643 -0.0238,-0.17815 m -22.87482,6.16409 -0.26129,-0.0238 -1.53212,0.22566 -1.31833,0.49882 -1.05704,0.67698 -0.17815,0.17816 m 0,3.57493 0.51071,0.42757 1.21144,0.65322 1.40146,0.40382 1.22332,0.0831 m 0.92639,-6.61541 v 0 m 21.49711,-0.84326 -0.79575,-0.90264 -0.48695,-0.91452 -0.0475,-0.15439 m -4.75074,-3.78872 -0.1544,0.1544 m -6.78168,12.94577 -0.0356,-0.0238 m 14.54914,-6.53227 -0.0238,-0.0119 -0.0238,-0.0119 m -23.87247,6.71042 h 8.80075 m -7.6962,-6.73417 h -1.11643 m 17.24519,-6.24723 -0.48695,0.0238 -0.76012,-0.14252 m 9.96468,13.10017 0.6176,-0.0238 0.6176,-0.0594 0.61759,-0.10689 0.60572,-0.1544 0.59385,-0.19003 0.58196,-0.23754 0.55821,-0.27317 0.54634,-0.3088 m -0.0119,-4.02625 -0.54633,-0.3088 -0.55822,-0.27316 -0.58196,-0.22567 -0.59384,-0.19002 -0.60572,-0.1544 -0.6176,-0.1069 -0.6176,-0.0594 -0.61759,-0.0238 m -16.55634,6.59166 0.0238,0.0119 0.0238,0.0119 0.0238,0.0119 0.0238,0.0119 0.0238,0.0119 0.0238,0.0119 0.0237,0.0119 0.0238,0.0119 m 14.47789,-6.57978 -1.24707,-0.6176 -2.28036,-1.38959 -2.05469,-1.61525 -1.79341,-1.81716 -1.44897,-1.88842 -0.22566,-0.34443 m 0.0594,0.0594 v 0 l -0.0713,-0.14252 -0.0119,-0.0475 v 0 m 10.97421,7.68433 h -2.12595 m -4.83388,6.73417 h 6.95983 m -10.97445,-14.38287 v -1.18769 m -6.73417,0 v 3.04048 m 1.50836,-7.47055 -0.70074,1.0808 -0.53446,1.36584 -0.26129,1.49648 0.0238,0.48695 m 6.65103,0 -0.0594,-1.16393 -0.39194,-1.47273 -0.61759,-1.23519 -0.42757,-0.54634 m 191.40737,19.95312 0.8195,-0.0475 1.05704,-0.40382 0.84326,-0.65322 0.58196,-0.83138 0.29692,-0.91452 v -0.95015 l -0.27318,-0.86701 -0.20191,-0.36818 -0.74824,-0.83138 -0.54634,-0.3088 m 0,0.58196 v -0.0237 0 m -17.53023,-7.19737 -0.0238,0.21378 0.13065,1.18769 0.43944,1.25895 0.73637,1.18768 0.39193,0.39194 m 4.82201,-4.58447 -0.36819,-0.41569 -1.18768,-0.8195 -1.21144,-0.48695 -1.11642,-0.19003 -0.2613,-0.0119 m 11.19988,15.11923 h 2.14971 m 1.82903,-5.65338 -0.0119,-0.29692 0.095,-1.19956 0.10689,-0.54634 m -10.84356,-5.16643 -0.34443,-0.36818 m -4.88139,4.64385 0.58197,0.60572 m 12.17377,-7.36365 -0.20191,0.14252 -1.90029,1.03329 -1.91218,0.72448 -1.88842,0.40382 -1.76965,0.0831 -0.32067,-0.0238 m 8.78887,9.7984 0.095,-0.38006 0.0356,-0.0475 m -2.04281,3.61057 0.39193,-0.27317 0.35631,-0.32068 0.32067,-0.3563 0.27317,-0.40382 0.22566,-0.42756 0.16628,-0.45132 0.10689,-0.4632 0.0475,-0.47507 m -12.88639,-5.89092 0.0238,0.52258 -0.1544,0.93827 -0.13064,0.24941 m 12.03125,-7.17362 v 0 l 0.17815,-0.22566 0.0594,-0.0594 m -11.94805,6.7223 v 0 l -0.46319,0.89077 -0.48695,0.49883 m 17.70838,-13.94343 -1.2827,0.79575 -1.22331,1.11642 -0.99766,1.34209 -0.0594,0.11877 m 5.78403,3.39678 0.71261,-1.48461 0.40381,-1.5915 0.10689,-1.53211 -0.0119,-0.14253 m -8.24253,3.81247 -1.02141,0.89077 -2.88608,2.24472 -2.99296,1.99531 -3.07611,1.73403 -2.35161,1.11642 m 13.34958,3.20675 6.02156,-10.23785 m -5.80778,-3.40865 -1.66276,2.82669 m -11.9006,7.62494 -0.0594,0.0356 -0.1544,0.0475 -0.0713,0.0119 h -0.0238 v 0 m -2.00719,6.7223 h 8.80075 m -6.75793,-6.73418 h -2.04282 m -4.34693,5.14268 0.51071,0.42756 1.21143,0.65323 1.40147,0.40381 1.22332,0.0831 m 0,-6.68666 -0.26129,-0.0238 -1.53212,0.22566 -1.31833,0.49882 -1.05704,0.67698 -0.16627,0.16628 m -245.68459,5.14268 0.26129,0.0238 1.53212,-0.22566 1.31833,-0.49883 1.05704,-0.67698 0.17815,-0.16628 m -0.0119,-3.57493 -0.49882,-0.42757 -1.21144,-0.64135 -1.40147,-0.40381 -1.22332,-0.0831 m -12.62509,-9.34708 -0.0238,-0.0356 -0.0238,-0.0831 m -0.24941,-0.53446 -0.21379,-0.64135 -0.83138,-1.40147 -0.99765,-1.10455 -0.83138,-0.62947 m 15.91498,13.77715 0.0356,-0.28505 m -12.827,-9.1808 -0.20191,-0.55822 m 15.68933,1.62713 -1.40147,0.1069 -0.54634,0.14252 m 0.96203,6.74605 1.21144,-0.92639 1.08079,-1.22332 0.772,-1.29458 0.095,-0.23753 m -5.23769,5.04766 2.07845,-1.35396 M 133.95804,390.22 h 0.26129 m -2.64854,-0.0356 h 0.22566 m -2.07845,-0.57008 0.43945,0.24941 0.26129,0.0713 m -1.85279,-4.57259 -0.1544,0.38006 m 0.0594,-0.22566 -0.1544,0.38006 -0.15439,0.95015 0.14252,0.95015 0.4632,0.92639 0.79574,0.79575 1.06892,0.53446 1.14018,0.16627 m -1.81716,-6.22347 -0.19003,0.0831 -0.80763,0.68886 -0.48695,0.74824 m 1.50836,-0.95015 v 0.0356 m 15.16675,-9.4896 -0.71262,0.0594 -1.22331,0.32067 -1.21144,0.64135 -1.02141,0.86701 m 4.84576,4.59635 0.48695,-0.49883 0.72449,-1.2352 0.39193,-1.22331 0.10689,-1.11643 -0.0238,-0.16627 M 131.8083,390.22 h 2.14971 m -4.16878,-7.6962 0.14253,0.86701 0.0475,1.16393 v 0.0119 m 11.11674,-7.32802 -0.9264,0.0238 -1.90029,-0.2019 -1.93593,-0.53446 -1.92405,-0.86701 -1.33021,-0.80763 m 12.18565,7.39928 0.59385,-0.61759 m -4.88139,-4.64385 -0.35631,0.36818 m -8.46819,9.24019 0.14252,0.33255 v 0.0831 m 0.0238,0.0356 0.0475,0.47508 0.10689,0.46319 0.16628,0.45132 0.22566,0.42757 0.27317,0.40381 0.32067,0.35631 0.35631,0.32067 0.39193,0.27317 m 11.05735,-7.96937 -0.0594,-0.17815 v -0.92639 m 0.87919,2.33974 -0.22566,-0.19003 -0.54634,-0.772 -0.0713,-0.22566 m -11.63932,-6.55602 -1.639,-2.79106 m -5.80778,3.40865 6.02156,10.23785 m -7.22112,-15.00046 0.0713,1.50836 0.38006,1.61525 0.68885,1.52024 0.0713,0.10689 m 5.78403,-3.39678 -0.95015,-1.34209 -1.19956,-1.1283 -1.2827,-0.83138 -0.13064,-0.0594 m 17.45897,13.89592 h -0.0119 l -0.0594,-0.0119 -0.10689,-0.0238 -0.13065,-0.0594 m 0,0.0119 -1.27082,-0.58197 -3.09986,-1.65088 -3.0286,-1.91217 -2.9217,-2.16159 -2.01907,-1.71027 m 14.64416,8.10002 h -2.04282 m -6.68667,6.73417 h 8.72949 m 4.33505,-5.14267 -0.49882,-0.42757 -1.21144,-0.64135 -1.40147,-0.40381 -1.22332,-0.0831 m 0,6.67479 0.26129,0.0238 1.53212,-0.22566 1.31833,-0.49883 1.05704,-0.67698 0.17815,-0.16628 m 161.58459,-11.29488 -0.0238,0.22566 0.13065,1.18768 0.43944,1.25895 0.73637,1.18768 0.39193,0.39194 m 4.82201,-4.58447 -0.36819,-0.41569 -1.18768,-0.8195 -1.21144,-0.48695 -1.11642,-0.19003 -0.2613,-0.0119 m 19.59681,8.49195 v 0 l -0.0356,-0.0238 m 0.96203,6.62728 0.26129,0.0238 1.53211,-0.22566 1.31833,-0.49882 1.05704,-0.67698 0.19003,-0.17816 m -0.0119,-3.56305 -0.51071,-0.42757 -1.21144,-0.64135 -1.40147,-0.40381 -1.22331,-0.0831 m -21.09329,-2.74356 -0.19003,0.47508 -0.65323,0.98578 -0.57009,0.53446 m 6.33036,-5.594 -0.17815,-0.17816 m -7.52992,6.5204 -0.0238,0.0119 -0.0237,0.0119 m 23.93186,-0.0594 h -1.11643 m -7.68432,6.73417 h 8.80075 m -9.38272,-0.14252 -0.0356,0.0356 m -6.4135,-13.06454 -0.39193,0.1544 -1.00954,0.0475 m 7.6487,12.96953 0.0237,-0.0119 0.0238,-0.0119 0.0238,-0.0119 0.0238,-0.0119 0.0238,-0.0119 0.0238,-0.0119 0.0238,-0.0119 0.0238,-0.0119 m -16.56821,-6.63917 -0.6176,0.0238 -0.6176,0.0594 -0.61759,0.1069 -0.60572,0.15439 -0.59385,0.19003 -0.58196,0.22566 -0.55821,0.27317 -0.54634,0.3088 m 0.0119,4.05001 0.54633,0.3088 0.55822,0.27316 0.58196,0.23754 0.59384,0.19003 0.60572,0.1544 0.6176,0.10689 0.6176,0.0594 0.61759,0.0238 m 10.97422,-14.4185 -0.0356,0.0831 -0.0594,0.095 m -10.89142,14.22847 h 6.95983 m -4.822,-6.73418 h -2.13783 m 10.95045,-7.56555 -0.72448,1.05704 -1.63901,1.93592 -1.91217,1.7459 -2.14971,1.53211 -2.23285,1.2352 -0.39194,0.17815 m 15.81997,-5.91467 v -3.04048 m -6.73417,0 v 1.18769 m 1.50836,-5.61775 -0.70074,1.08079 -0.53446,1.36584 -0.24941,1.49648 0.0238,0.48695 m 6.65104,0 -0.0594,-1.16393 -0.39194,-1.47273 -0.6176,-1.23519 -0.41569,-0.54634 m 112.55691,19.98875 h 1.21144 m 5.01203,-3.19488 0.0238,-0.22566 0.11877,-0.19003 m -0.42757,-12.62509 -0.0356,0.0594 -0.17815,0.19003 -0.16628,0.10689 m -1.25895,15.87935 0.39194,-0.27316 0.3563,-0.32068 0.32068,-0.3563 0.27317,-0.40382 0.22566,-0.42756 0.16627,-0.45132 0.10689,-0.4632 0.0475,-0.47508 m -12.25691,-9.82215 h -0.0713 l -0.24942,-0.0594 -0.17815,-0.0831 -0.095,-0.0594 -0.0475,-0.0356 -0.0119,-0.0119 0.0119,0.0119 m -1.76965,6.91232 0.0475,0.0237 0.26129,0.32068 0.0356,0.11877 v -0.0119 m 18.25472,-14.76293 -1.2827,0.79575 -1.22332,1.11642 -0.99765,1.34209 -0.0594,0.10689 m 5.79591,3.39678 0.71261,-1.48461 0.40381,-1.5915 0.10689,-1.53211 -0.0119,-0.14252 m -21.22394,18.15971 0.0119,0.0594 0.0119,0.0594 0.0119,0.0594 0.0119,0.0594 0.0238,0.0594 0.0238,0.0594 0.0238,0.0594 0.0356,0.0594 m 0.91452,-13.15956 -0.90264,-0.58196 m -3.66995,5.6415 2.68417,1.7459 m 14.82231,2.7198 6.02157,-10.23785 m -5.80779,-3.40866 -0.60571,1.03329 m -13.76528,13.99093 0.1544,1.78153 m -0.47507,-5.42772 0.11877,1.40147 m -6.29474,-7.30427 0.66511,1.24707 1.02141,1.25895 1.25894,1.05704 0.20191,0.11877 m 3.65807,-5.594 -1.33021,-0.72449 -1.55586,-0.48695 -1.49649,-0.17815 -0.26129,0.0119 m 4.70323,7.83872 v 0 m 0,0 0.0356,0.0356 1.1283,1.0808 0.90264,0.96202 0.10689,0.13065 m 10.27348,-7.6487 -0.66511,0.78387 m 0.0119,0 -0.19003,0.22567 m 0,0 -0.29692,0.34442 -1.62713,1.76965 -1.56774,1.544 -1.15206,1.00953 m 0.0119,-0.0119 -0.095,0.0831 -0.2019,0.11877 -0.17816,0.0594 -0.14252,0.0238 h -0.0713 v 0 m -0.98578,6.73417 h 2.14971 m -1.14018,-6.73417 h -1.00953 m -3.3849,4.48945 0.16627,0.45132 0.68886,0.85513 0.99766,0.62947 1.16393,0.29693 0.3563,-0.0238 m 0,-6.6748 -0.99765,0.1069 -1.03329,0.45132 -0.80762,0.68885 -0.53446,0.84326 -0.0356,0.13065 m -101.27393,-9.94093 0.24941,-0.62947 0.26129,-1.60338 -0.0594,-1.48461 -0.23754,-1.0214 m -3.58681,-1.29458 -0.55821,0.38006 -1.06892,1.06891 -0.0594,0.0831 m -14.4185,12.05501 -0.48695,0.21378 m 19.47804,-6.31848 0.52258,-1.4371 m -14.98872,14.4185 v 0 m 16.59197,-8.17127 -0.47508,-0.72449 -0.55821,-0.86701 -0.76012,-1.81716 -0.4632,-1.99531 m 3.78872,6.8767 -0.5107,-0.40382 -1.29458,-1.35396 -0.34443,-0.52258 m 7.37553,3.83622 -0.51071,-0.42756 -1.21144,-0.64135 -1.40147,-0.40382 -1.22331,-0.0831 m 0,6.67479 0.26129,0.0237 1.53211,-0.22566 1.31833,-0.49882 1.05704,-0.67698 0.17816,-0.16628 m 56.86637,-5.14268 -0.26129,-0.0237 -1.53212,0.22566 -1.31833,0.49883 -1.05704,0.67698 -0.16627,0.16628 m -0.0119,3.57493 0.51071,0.42757 1.21143,0.65322 1.40147,0.40382 1.22332,0.0831 m 12.3163,-15.55868 v 0 m 0.3563,-0.58197 -0.0238,0.0713 -0.0238,0.0475 m 3.17112,-4.41819 -0.54633,0.36819 -1.06892,1.06891 -0.86701,1.30646 -0.39194,1.00953 m -13.06453,9.72714 0.0475,0.19003 v 0.0831 m 12.9814,-10.01219 -0.2019,0.55822 m -14.51352,8.07626 2.07845,1.35396 m -5.22581,-5.04766 0.6651,1.23519 1.02141,1.25894 1.25895,1.05704 0.21378,0.11877 m 0.92639,-6.75793 -0.17815,-0.0594 -1.49648,-0.17815 -0.26129,0.0119 m 16.46132,15.09548 h 0.26129 m 5.52273,-4.58446 -0.36818,-0.64135 m -0.91452,4.62009 0.39194,-0.28504 0.11877,-0.13065 m -2.61291,1.00953 0.0831,0.0119 0.38006,-0.0713 M 221.7995,370.63502 v -56.32003 m -2.24473,-0.0119 v 56.32004 m -67.88809,17.35208 h 52.57883 m 0,-2.24472 h -52.57883 m 154.2922,0 h -66.21346 m 0,2.24472 h 66.21346 m 17.9578,-73.67212 v 56.32004 m 2.24473,0.0119 v -56.32004 m 93.81526,56.87825 33.10079,-56.32004 m -1.92405,-1.14018 -33.10079,56.32004 m -76.59383,17.92217 h 52.57883 m 0,-2.24472 h -52.57883 m 141.94028,-71.99749 -33.10079,56.32004 m 1.93592,1.14018 33.10079,-56.32004 m -68.33941,54.57414 19.89373,-54.75229 m -2.11408,-0.772 -19.71558,54.26535 m 20.77262,17.54211 h -20.46382 m 1.93593,2.24472 h 18.52789 M 95.417936,370.06491 62.31715,313.74487 m -1.947804,1.1283 33.10079,56.32004 m 36.877634,14.53727 h -20.46382 m 0,2.24473 h 18.51601 m -35.773084,-73.10204 33.100794,56.32004 m 1.93593,-1.1283 -33.100794,-56.32004 m 14.264104,0.95015 19.89373,54.75229 m 1.92405,-1.25894 -19.71558,-54.26534 m 228.58192,29.8109 -9.38272,25.84403 m 12.70824,-34.98921 -1.78153,4.89326 m 9.2877,-25.55898 -5.46335,15.03609 m 2.411,-0.0594 5.16643,-14.21659 m -9.92905,27.32864 2.47038,-6.79356 m -12.76761,35.11985 9.50148,-26.1647 M 200.82501,328.9235 195.37354,313.92303 m 9.2877,25.55899 -1.76965,-4.86951 m 12.69635,34.96545 -9.38271,-25.84403 m -2.23285,0.43945 9.50148,26.1647 m -12.75574,-35.11985 2.47039,6.79356 m -9.92905,-27.31676 5.16643,14.21659"
                 class="st4"
                 inkscape:connector-curvature="0"
                 style="fill:none;stroke:#000000;stroke-width:0.84206891;stroke-linecap:round;stroke-linejoin:round;stroke-miterlimit:10" />
              <path
                 id="path7648"
                 d="m 551.65,230.53 v 0 m 0.67,0.12 v 0 m -12.06,-0.12 v 0 m 89.54,0 v 0 m 1.02,0.12 v 0"
                 class="st4"
                 inkscape:connector-curvature="0"
                 style="fill:none;stroke:#000000;stroke-width:0.70899999;stroke-linecap:round;stroke-linejoin:round;stroke-miterlimit:10" />
            </g>
          </g>
        </g>
      </g>
    </g>
  </g>
  <style
     id="style6508"
     type="text/css">
	.st0{font-family:'ArialUnicodeMS';}
	.st1{font-size:19.9584px;}
	.st2{font-size:20.1158px;}
	.st3{font-size:20.1547px;}
	.st4{fill:none;stroke:#000000;stroke-width:0.51;stroke-miterlimit:10;}
	.st5{fill:none;stroke:#000000;stroke-width:0.51;stroke-linecap:round;stroke-linejoin:round;stroke-miterlimit:10;}
	.st6{fill:none;stroke:#000000;stroke-width:0.709;stroke-linecap:round;stroke-linejoin:round;stroke-miterlimit:10;}
	
		.st7{fill:none;stroke:#000000;stroke-width:0.51;stroke-linecap:round;stroke-linejoin:round;stroke-miterlimit:10;stroke-dasharray:18,3.6,3.6,3.6,3.6,3.6;stroke-dashoffset:13;}
	
		.st8{fill:none;stroke:#000000;stroke-width:0.51;stroke-linecap:round;stroke-linejoin:round;stroke-miterlimit:10;stroke-dasharray:18,3.6,3.6,3.6,3.6,3.6;}
	
		.st9{fill:none;stroke:#000000;stroke-width:0.51;stroke-linecap:round;stroke-linejoin:round;stroke-miterlimit:10;stroke-dasharray:18,3.6,3.6,3.6,3.6,3.6;stroke-dashoffset:11;}
	
		.st10{fill:none;stroke:#000000;stroke-width:0.51;stroke-linecap:round;stroke-linejoin:round;stroke-miterlimit:10;stroke-dasharray:18,3.6,3.6,3.6,3.6,3.6;stroke-dashoffset:8;}
	
		.st11{fill:none;stroke:#000000;stroke-width:0.51;stroke-linecap:round;stroke-linejoin:round;stroke-miterlimit:10;stroke-dasharray:18,3.6,3.6,3.6,3.6,3.6;stroke-dashoffset:6;}
	
		.st12{fill:none;stroke:#000000;stroke-width:0.51;stroke-linecap:round;stroke-linejoin:round;stroke-miterlimit:10;stroke-dasharray:18,3.6,3.6,3.6,3.6,3.6;stroke-dashoffset:2;}
	
		.st13{fill:none;stroke:#000000;stroke-width:0.51;stroke-linecap:round;stroke-linejoin:round;stroke-miterlimit:10;stroke-dasharray:18,3.6,3.6,3.6,3.6,3.6;stroke-dashoffset:14;}
	
		.st14{fill:none;stroke:#000000;stroke-width:0.51;stroke-linecap:round;stroke-linejoin:round;stroke-miterlimit:10;stroke-dasharray:18,3.6,3.6,3.6,3.6,3.6;stroke-dashoffset:9;}
</style>
  <style
     id="style6716"
     type="text/css">
	.st0{fill:none;stroke:#000000;stroke-width:0.709;stroke-linecap:round;stroke-linejoin:round;stroke-miterlimit:10;}
</style>
  <style
     id="style6737"
     type="text/css">
	.st0{fill:none;stroke:#000000;stroke-width:0.709;stroke-linecap:round;stroke-linejoin:round;stroke-miterlimit:10;}
</style>
  <style
     id="style6777"
     type="text/css">
	.st0{fill:none;stroke:#000000;stroke-width:0.709;stroke-linecap:round;stroke-linejoin:round;stroke-miterlimit:10;}
</style>
  <style
     id="style6817"
     type="text/css">
	.st0{fill:none;stroke:#000000;stroke-width:0.51;stroke-miterlimit:10;}
	.st1{fill:none;stroke:#000000;stroke-width:0.51;stroke-linecap:round;stroke-linejoin:round;stroke-miterlimit:10;}
	.st2{fill:none;stroke:#000000;stroke-width:0.709;stroke-linecap:round;stroke-linejoin:round;stroke-miterlimit:10;}
</style>
  <style
     id="style6863"
     type="text/css">
	.st0{fill:none;stroke:#000000;stroke-width:0.709;stroke-linecap:round;stroke-linejoin:round;stroke-miterlimit:10;}
</style>
  <style
     id="style6893"
     type="text/css">
	.st0{font-family:'ArialUnicodeMS';}
	.st1{font-size:20.1547px;}
	.st2{fill:none;stroke:#000000;stroke-width:0.709;stroke-miterlimit:10;}
	.st3{fill:none;stroke:#000000;stroke-width:0.51;stroke-miterlimit:10;}
	.st4{fill:none;stroke:#000000;stroke-width:0.51;stroke-linecap:round;stroke-linejoin:round;stroke-miterlimit:10;}
	.st5{fill:none;stroke:#000000;stroke-width:0.709;stroke-linecap:round;stroke-linejoin:round;stroke-miterlimit:10;}
</style>
  <style
     id="style7035"
     type="text/css">
	.st0{fill:none;stroke:#000000;stroke-width:0.709;stroke-linecap:round;stroke-linejoin:round;stroke-miterlimit:10;}
	
		.st1{fill:none;stroke:#000000;stroke-width:0.51;stroke-linecap:round;stroke-linejoin:round;stroke-miterlimit:10;stroke-dasharray:18,3.6,3.6,3.6,3.6,3.6;stroke-dashoffset:11;}
	
		.st2{fill:none;stroke:#000000;stroke-width:0.51;stroke-linecap:round;stroke-linejoin:round;stroke-miterlimit:10;stroke-dasharray:18,3.6,3.6,3.6,3.6,3.6;}
	
		.st3{fill:none;stroke:#000000;stroke-width:0.51;stroke-linecap:round;stroke-linejoin:round;stroke-miterlimit:10;stroke-dasharray:18,3.6,3.6,3.6,3.6,3.6;stroke-dashoffset:9;}
	
		.st4{fill:none;stroke:#000000;stroke-width:0.51;stroke-linecap:round;stroke-linejoin:round;stroke-miterlimit:10;stroke-dasharray:18,3.6,3.6,3.6,3.6,3.6;stroke-dashoffset:16;}
	
		.st5{fill:none;stroke:#000000;stroke-width:0.51;stroke-linecap:round;stroke-linejoin:round;stroke-miterlimit:10;stroke-dasharray:18,3.6,3.6,3.6,3.6,3.6;stroke-dashoffset:13;}
	
		.st6{fill:none;stroke:#000000;stroke-width:0.51;stroke-linecap:round;stroke-linejoin:round;stroke-miterlimit:10;stroke-dasharray:18,3.6,3.6,3.6,3.6,3.6;stroke-dashoffset:12;}
	
		.st7{fill:none;stroke:#000000;stroke-width:0.51;stroke-linecap:round;stroke-linejoin:round;stroke-miterlimit:10;stroke-dasharray:18,3.6,3.6,3.6,3.6,3.6;stroke-dashoffset:3;}
	
		.st8{fill:none;stroke:#000000;stroke-width:0.51;stroke-linecap:round;stroke-linejoin:round;stroke-miterlimit:10;stroke-dasharray:18,3.6,3.6,3.6,3.6,3.6;stroke-dashoffset:8;}
</style>
  <style
     id="style7129"
     type="text/css">
	.st0{fill:none;stroke:#000000;stroke-width:0.709;stroke-linecap:round;stroke-linejoin:round;stroke-miterlimit:10;}
	
		.st1{fill:none;stroke:#000000;stroke-width:0.51;stroke-linecap:round;stroke-linejoin:round;stroke-miterlimit:10;stroke-dasharray:18,3.6,3.6,3.6,3.6,3.6;stroke-dashoffset:11;}
	
		.st2{fill:none;stroke:#000000;stroke-width:0.51;stroke-linecap:round;stroke-linejoin:round;stroke-miterlimit:10;stroke-dasharray:18,3.6,3.6,3.6,3.6,3.6;}
</style>
  <style
     id="style7172"
     type="text/css">
	.st0{font-family:'ArialUnicodeMS';}
	.st1{font-size:28.2167px;}
	.st2{font-size:16.5644px;}
	.st3{fill:none;stroke:#000000;stroke-width:0.51;stroke-miterlimit:10;}
	.st4{fill:none;stroke:#000000;stroke-width:0.51;stroke-linecap:round;stroke-linejoin:round;stroke-miterlimit:10;}
	.st5{fill:none;stroke:#000000;stroke-width:0.709;stroke-linecap:round;stroke-linejoin:round;stroke-miterlimit:10;}
	
		.st6{fill:none;stroke:#000000;stroke-width:0.51;stroke-linecap:round;stroke-linejoin:round;stroke-miterlimit:10;stroke-dasharray:18,3.6,3.6,3.6,3.6,3.6;}
	
		.st7{fill:none;stroke:#000000;stroke-width:0.51;stroke-linecap:round;stroke-linejoin:round;stroke-miterlimit:10;stroke-dasharray:18,3.6,3.6,3.6,3.6,3.6;stroke-dashoffset:6;}
	
		.st8{fill:none;stroke:#000000;stroke-width:0.51;stroke-linecap:round;stroke-linejoin:round;stroke-miterlimit:10;stroke-dasharray:18,3.6,3.6,3.6,3.6,3.6;stroke-dashoffset:4;}
	
		.st9{fill:none;stroke:#000000;stroke-width:0.51;stroke-linecap:round;stroke-linejoin:round;stroke-miterlimit:10;stroke-dasharray:18,3.6,3.6,3.6,3.6,3.6;stroke-dashoffset:7;}
</style>
  <style
     id="style7278"
     type="text/css">
	.st0{font-family:'ArialUnicodeMS';}
	.st1{font-size:28.2167px;}
	.st2{font-size:16.5644px;}
	.st3{fill:none;stroke:#000000;stroke-width:0.51;stroke-miterlimit:10;}
	.st4{fill:none;stroke:#000000;stroke-width:0.51;stroke-linecap:round;stroke-linejoin:round;stroke-miterlimit:10;}
	.st5{fill:none;stroke:#000000;stroke-width:0.709;stroke-linecap:round;stroke-linejoin:round;stroke-miterlimit:10;}
	
		.st6{fill:none;stroke:#000000;stroke-width:0.51;stroke-linecap:round;stroke-linejoin:round;stroke-miterlimit:10;stroke-dasharray:18,3.6,3.6,3.6,3.6,3.6;}
	
		.st7{fill:none;stroke:#000000;stroke-width:0.51;stroke-linecap:round;stroke-linejoin:round;stroke-miterlimit:10;stroke-dasharray:18,3.6,3.6,3.6,3.6,3.6;stroke-dashoffset:6;}
	
		.st8{fill:none;stroke:#000000;stroke-width:0.51;stroke-linecap:round;stroke-linejoin:round;stroke-miterlimit:10;stroke-dasharray:18,3.6,3.6,3.6,3.6,3.6;stroke-dashoffset:4;}
	
		.st9{fill:none;stroke:#000000;stroke-width:0.51;stroke-linecap:round;stroke-linejoin:round;stroke-miterlimit:10;stroke-dasharray:18,3.6,3.6,3.6,3.6,3.6;stroke-dashoffset:7;}
</style>
  <style
     id="style7365"
     type="text/css">
	.st0{font-family:'ArialUnicodeMS';}
	.st1{font-size:20.1547px;}
	.st2{fill:none;stroke:#000000;stroke-width:0.51;stroke-miterlimit:10;}
	.st3{fill:none;stroke:#000000;stroke-width:0.51;stroke-linecap:round;stroke-linejoin:round;stroke-miterlimit:10;}
	.st4{fill-rule:evenodd;clip-rule:evenodd;}
	.st5{fill:none;stroke:#000000;stroke-width:0.709;stroke-linecap:round;stroke-linejoin:round;stroke-miterlimit:10;}
</style>
  <style
     id="style7444"
     type="text/css">
	.st0{font-family:'ArialUnicodeMS';}
	.st1{font-size:19.9683px;}
	.st2{font-size:19.9682px;}
	.st3{font-size:19.9684px;}
	.st4{font-size:10.3528px;}
	.st5{fill:none;stroke:#000000;stroke-width:0.51;stroke-miterlimit:10;}
	.st6{fill:none;stroke:#000000;stroke-width:0.51;stroke-linecap:round;stroke-linejoin:round;stroke-miterlimit:10;}
	.st7{fill:none;stroke:#000000;stroke-width:0.709;stroke-linecap:round;stroke-linejoin:round;stroke-miterlimit:10;}
</style>
  <style
     id="style7517"
     type="text/css">
	.st0{font-family:'ArialUnicodeMS';}
	.st1{font-size:20.1547px;}
	.st2{fill:none;stroke:#000000;stroke-width:0.709;stroke-linecap:round;stroke-linejoin:round;stroke-miterlimit:10;}
</style>
  <style
     id="style7579"
     type="text/css">
	.st0{font-family:'ArialUnicodeMS';}
	.st1{font-size:16.5644px;}
	.st2{font-size:20.1547px;}
	.st3{fill:none;stroke:#000000;stroke-width:0.51;stroke-miterlimit:10;}
	.st4{fill:none;stroke:#000000;stroke-width:0.51;stroke-linecap:round;stroke-linejoin:round;stroke-miterlimit:10;}
	.st5{fill:none;stroke:#000000;stroke-width:0.709;stroke-linecap:round;stroke-linejoin:round;stroke-miterlimit:10;}
	
		.st6{fill:none;stroke:#000000;stroke-width:0.51;stroke-linecap:round;stroke-linejoin:round;stroke-miterlimit:10;stroke-dasharray:18,3.6,3.6,3.6,3.6,3.6;stroke-dashoffset:-1;}
</style>
  <style
     id="style7634"
     type="text/css">
	.st0{font-family:'ArialUnicodeMS';}
	.st1{font-size:20.1547px;}
	.st2{fill:none;stroke:#000000;stroke-width:0.51;stroke-miterlimit:10;}
	.st3{fill:none;stroke:#000000;stroke-width:0.51;stroke-linecap:round;stroke-linejoin:round;stroke-miterlimit:10;}
	.st4{fill:none;stroke:#000000;stroke-width:0.709;stroke-linecap:round;stroke-linejoin:round;stroke-miterlimit:10;}
	
		.st5{fill:none;stroke:#000000;stroke-width:0.51;stroke-linecap:round;stroke-linejoin:round;stroke-miterlimit:10;stroke-dasharray:18,3.6,3.6,3.6,3.6,3.6;}
	
		.st6{fill:none;stroke:#000000;stroke-width:0.51;stroke-linecap:round;stroke-linejoin:round;stroke-miterlimit:10;stroke-dasharray:18,3.6,3.6,3.6,3.6,3.6;stroke-dashoffset:15;}
	
		.st7{fill:none;stroke:#000000;stroke-width:0.51;stroke-linecap:round;stroke-linejoin:round;stroke-miterlimit:10;stroke-dasharray:18,3.6,3.6,3.6,3.6,3.6;stroke-dashoffset:4;}
	
		.st8{fill:none;stroke:#000000;stroke-width:0.51;stroke-linecap:round;stroke-linejoin:round;stroke-miterlimit:10;stroke-dasharray:18,3.6,3.6,3.6,3.6,3.6;stroke-dashoffset:14;}
	
		.st9{fill:none;stroke:#000000;stroke-width:0.51;stroke-linecap:round;stroke-linejoin:round;stroke-miterlimit:10;stroke-dasharray:18,3.6,3.6,3.6,3.6,3.6;stroke-dashoffset:9;}
	
		.st10{fill:none;stroke:#000000;stroke-width:0.51;stroke-linecap:round;stroke-linejoin:round;stroke-miterlimit:10;stroke-dasharray:18,3.6,3.6,3.6,3.6,3.6;stroke-dashoffset:13;}
	
		.st11{fill:none;stroke:#000000;stroke-width:0.51;stroke-linecap:round;stroke-linejoin:round;stroke-miterlimit:10;stroke-dasharray:18,3.6,3.6,3.6,3.6,3.6;stroke-dashoffset:8;}
	
		.st12{fill:none;stroke:#000000;stroke-width:0.51;stroke-linecap:round;stroke-linejoin:round;stroke-miterlimit:10;stroke-dasharray:18,3.6,3.6,3.6,3.6,3.6;stroke-dashoffset:16;}
	
		.st13{fill:none;stroke:#000000;stroke-width:0.51;stroke-linecap:round;stroke-linejoin:round;stroke-miterlimit:10;stroke-dasharray:18,3.6,3.6,3.6,3.6,3.6;stroke-dashoffset:10;}
	
		.st14{fill:none;stroke:#000000;stroke-width:0.51;stroke-linecap:round;stroke-linejoin:round;stroke-miterlimit:10;stroke-dasharray:18,3.6,3.6,3.6,3.6,3.6;stroke-dashoffset:12;}
</style>
</svg>
