<?xml version="1.0" encoding="UTF-8" standalone="no"?>
<!-- Created with Inkscape (http://www.inkscape.org/) -->

<svg
   xmlns:dc="http://purl.org/dc/elements/1.1/"
   xmlns:cc="http://creativecommons.org/ns#"
   xmlns:rdf="http://www.w3.org/1999/02/22-rdf-syntax-ns#"
   xmlns:svg="http://www.w3.org/2000/svg"
   xmlns="http://www.w3.org/2000/svg"
   xmlns:sodipodi="http://sodipodi.sourceforge.net/DTD/sodipodi-0.dtd"
   xmlns:inkscape="http://www.inkscape.org/namespaces/inkscape"
   width="205mm"
   height="150mm"
   viewBox="0 0 205 150"
   version="1.1"
   id="svg8"
   inkscape:version="0.92.3 (2405546, 2018-03-11)"
   sodipodi:docname="2.svg">
  <defs
     id="defs2" />
  <sodipodi:namedview
     id="base"
     pagecolor="#ffffff"
     bordercolor="#666666"
     borderopacity="1.0"
     inkscape:pageopacity="0.0"
     inkscape:pageshadow="2"
     inkscape:zoom="1.0074671"
     inkscape:cx="341.04709"
     inkscape:cy="242.37175"
     inkscape:document-units="mm"
     inkscape:current-layer="g1083"
     showgrid="false"
     inkscape:window-width="1853"
     inkscape:window-height="1025"
     inkscape:window-x="67"
     inkscape:window-y="27"
     inkscape:window-maximized="1" />
  <metadata
     id="metadata5">
    <rdf:RDF>
      <cc:Work
         rdf:about="">
        <dc:format>image/svg+xml</dc:format>
        <dc:type
           rdf:resource="http://purl.org/dc/dcmitype/StillImage" />
        <dc:title></dc:title>
      </cc:Work>
    </rdf:RDF>
  </metadata>
  <g
     inkscape:label="Layer 1"
     inkscape:groupmode="layer"
     id="layer1"
     transform="translate(0,-147)">
    <g
       id="g1083"
       transform="matrix(0.26458333,0,0,0.26458333,9.8010231,-1.9034887)">
      <g
         id="g6599"
         transform="translate(-44.743796,557.80607)">
        <text
           id="text6510"
           class="st0 st1"
           transform="matrix(0.9659,0,-0.2614,0.9754,74.7036,35.7055)"
           style="font-size:19.95840073px;font-family:ArialUnicodeMS">Левое</text>
        <text
           id="text6512"
           class="st0 st2"
           transform="matrix(0.9659,0,-0.2593,0.9678,644.6382,27.6069)"
           style="font-size:20.11580086px;font-family:ArialUnicodeMS">Правое</text>
        <text
           id="text6514"
           class="st0 st3"
           transform="matrix(1.044,0,-0.2588,0.9659,242.0838,552.0939)"
           style="font-size:20.15469933px;font-family:ArialUnicodeMS;fill:none;stroke:#000000;stroke-width:0.50999999;stroke-miterlimit:10">Короткий конец смотрит наверх</text>
        <path
           id="path6516"
           d="m 167.17,241.41 -0.5,0.16 -0.44,0.25 -0.32,0.39 -0.17,0.47 v 0.5 l 0.17,0.47 0.32,0.39 0.44,0.25 0.5,0.16 -9.92,-1.53 9.92,-1.51 m 455.27,-2.94 0.5,-0.16 0.44,-0.25 0.32,-0.39 0.17,-0.47 v -0.5 l -0.17,-0.47 -0.32,-0.39 -0.44,-0.25 -0.5,-0.16 9.92,1.53 -9.92,1.51 m -81.2,-56.36 0.5,-0.16 0.44,-0.25 0.32,-0.39 0.17,-0.47 v -0.5 l -0.17,-0.47 -0.32,-0.39 -0.44,-0.25 -0.5,-0.16 9.92,1.53 -9.92,1.51 m -303.97,-3.91 -0.5,0.16 -0.44,0.25 -0.32,0.39 -0.17,0.47 v 0.5 l 0.17,0.47 0.32,0.39 0.44,0.25 0.5,0.16 -9.92,-1.53 9.92,-1.51 m 31.83,-66.8 -0.5,0.16 -0.44,0.25 -0.32,0.39 -0.17,0.47 v 0.5 l 0.17,0.47 0.32,0.39 0.44,0.25 0.5,0.16 -9.92,-1.53 9.92,-1.51 m 272.15,0.84 0.5,-0.16 0.44,-0.25 0.32,-0.39 0.17,-0.47 v -0.5 l -0.17,-0.47 -0.32,-0.39 -0.44,-0.25 -0.5,-0.16 9.92,1.53 -9.92,1.51"
           class="st4"
           inkscape:connector-curvature="0"
           style="fill:none;stroke:#000000;stroke-width:0.50999999;stroke-linecap:round;stroke-linejoin:round;stroke-miterlimit:10" />
        <path
           id="path6518"
           d="m 157.25,242.93 h 142.59 m 332.52,-5.99 H 499.95 m 51.22,-56.35 H 468 m -240.65,-0.87 h 95.45 m -63.63,-66.79 h 40.11 m 251.9,-2.22 H 499.9 m 72.36,434.44 31.26,-39.48 m -48.98,39.48 h 17.72 m -349.32,0 -41.14,-29.93 m 58.86,29.93 h -17.72"
           class="st5"
           inkscape:connector-curvature="0"
           style="fill:none;stroke:#000000;stroke-width:0.50999999;stroke-linecap:round;stroke-linejoin:round;stroke-miterlimit:10" />
        <path
           id="path6520"
           d="m 167.17,241.41 -0.5,0.16 -0.44,0.25 -0.32,0.39 -0.17,0.47 v 0.5 l 0.17,0.47 0.32,0.39 0.44,0.25 0.5,0.16 -9.92,-1.53 9.92,-1.51 m 455.27,-2.94 0.5,-0.16 0.44,-0.25 0.32,-0.39 0.17,-0.47 v -0.5 l -0.17,-0.47 -0.32,-0.39 -0.44,-0.25 -0.5,-0.16 9.92,1.53 -9.92,1.51 m -81.2,-56.36 0.5,-0.16 0.44,-0.25 0.32,-0.39 0.17,-0.47 v -0.5 l -0.17,-0.47 -0.32,-0.39 -0.44,-0.25 -0.5,-0.16 9.92,1.53 -9.92,1.51 m -303.97,-3.91 -0.5,0.16 -0.44,0.25 -0.32,0.39 -0.17,0.47 v 0.5 l 0.17,0.47 0.32,0.39 0.44,0.25 0.5,0.16 -9.92,-1.53 9.92,-1.51 m 31.83,-66.8 -0.5,0.16 -0.44,0.25 -0.32,0.39 -0.17,0.47 v 0.5 l 0.17,0.47 0.32,0.39 0.44,0.25 0.5,0.16 -9.92,-1.53 9.92,-1.51 m 272.15,0.84 0.5,-0.16 0.44,-0.25 0.32,-0.38 0.17,-0.47 v -0.5 l -0.17,-0.47 -0.32,-0.39 -0.44,-0.25 -0.5,-0.16 9.92,1.53 -9.92,1.5 m 62.89,392.63 -0.21,-0.13 -0.23,-0.07 -0.24,-0.02 -0.24,0.04 -0.22,0.1 -0.19,0.15 -0.15,0.19 -0.1,0.22 -0.05,0.24 0.01,0.24 0.07,0.23 0.13,0.21 0.17,0.17 0.21,0.13 0.23,0.07 0.24,0.02 0.24,-0.04 0.22,-0.1 0.19,-0.15 0.15,-0.19 0.1,-0.22 0.05,-0.24 -0.01,-0.24 -0.07,-0.23 -0.12,-0.21 -0.18,-0.17 -0.63,0.8 m -422.53,8.95 -0.12,0.21 -0.07,0.24 -0.01,0.24 0.05,0.24 0.11,0.22 0.16,0.19 0.2,0.14 0.23,0.09 0.24,0.03 0.24,-0.02 0.23,-0.08 0.21,-0.14 0.17,-0.18 0.12,-0.21 0.07,-0.24 0.01,-0.24 -0.05,-0.24 -0.11,-0.22 -0.16,-0.19 -0.2,-0.14 -0.23,-0.09 -0.24,-0.03 -0.24,0.02 -0.23,0.08 -0.21,0.14 -0.17,0.18 0.82,0.6"
           inkscape:connector-curvature="0" />
        <path
           id="path6522"
           d="m 23.63,157.42 -0.48,-0.35 -0.43,-0.52 -0.34,-0.64 -0.21,-0.7 -0.07,-0.69 0.01,-0.21 m 3.27,4.01 -1.75,-0.9 m -2.47,-8.73 0.1,-0.04 0.78,-0.13 0.83,0.1 0.86,0.33 m 16.08,17.53 -0.29,-0.2 -0.54,-0.54 -0.46,-0.69 -0.35,-0.79 -0.22,-0.83 -0.07,-0.81 m 0,0 0.09,-0.73 0.05,-0.17 m 33.07,20.03 -0.47,-0.35 -0.43,-0.52 -0.34,-0.64 -0.21,-0.7 -0.07,-0.69 0.01,-0.21 m 3.26,4.01 -1.75,-0.9 m -47.37,-32.79 70.03,35.89 m 0.01,0.01 0.31,0.17 0.3,0.2 0.3,0.22 0.3,0.25 0.29,0.27 0.28,0.29 0.28,0.32 0.27,0.33 m 30.21,45.64 -0.85,3.91 m -2.82,-7.78 -0.33,-0.42 -0.34,-0.64 -0.21,-0.7 -0.07,-0.69 m 0.01,0 v -0.06 m 6.23,15.76 -0.07,-0.03 -0.64,-0.43 -0.6,-0.63 -0.51,-0.79 -0.39,-0.9 -0.25,-0.94 -0.08,-0.92 0.08,-0.84 m 5.86,12.07 0.07,-0.03 0.54,-0.3 0.47,-0.43 0.39,-0.56 0.31,-0.67 0.22,-0.77 m -37.24,-58.85 20.8,27.26 m 9.42,18.38 0.18,-0.56 m 6.85,13.78 1.78,-8.18 m -6.16,-12.17 -1.59,-1.02 -1.58,-1.14 -1.56,-1.26 -1.54,-1.36 -1.51,-1.47 -1.47,-1.57 -1.44,-1.67 -1.4,-1.76 m 12.09,11.25 0.62,0.4 0.61,0.46 0.6,0.52 0.59,0.57 0.57,0.62 0.55,0.67 0.53,0.71 0.5,0.75 m 1.58,7.46 0.13,-0.85 0.03,-0.91 -0.07,-0.95 -0.16,-0.98 -0.26,-0.98 -0.34,-0.97 -0.43,-0.93 -0.5,-0.87 m -2.31,16.43 1.78,-8.18 m -1.59,-7.44 0.5,0.87 0.42,0.93 0.34,0.97 0.26,0.98 0.16,0.98 0.07,0.95 -0.03,0.91 -0.13,0.85 m -6.15,-12.17 0.62,0.4 0.61,0.46 0.6,0.52 0.59,0.57 0.57,0.62 0.55,0.67 0.53,0.71 0.5,0.75 m -16.65,-15.94 1.4,1.76 1.44,1.67 1.48,1.57 1.51,1.47 1.54,1.36 1.56,1.25 1.58,1.14 1.59,1.02 m -32.89,-38.51 20.8,27.26 m -23.13,-29.31 0.31,0.17 0.3,0.2 0.3,0.22 0.3,0.25 0.29,0.27 0.28,0.29 0.28,0.31 0.27,0.33 m -72.36,-37.93 70.03,35.9 m -70.17,-23.18 -0.86,-0.55 -0.83,-0.74 -0.76,-0.92 -0.68,-1.06 -0.57,-1.17 -0.44,-1.23 -0.3,-1.25 -0.15,-1.23 0.01,-1.17 0.17,-1.07 0.32,-0.93 0.46,-0.77 0.59,-0.57 0.69,-0.36 0.78,-0.13 0.83,0.1 0.86,0.33 m -0.12,12.72 68.78,35.26 m 0.01,0 19.72,25.86 m 9.13,16.55 -0.91,-2.25 -0.98,-2.21 -1.05,-2.17 -1.12,-2.12 -1.18,-2.06 -1.24,-1.99 -1.3,-1.92 -1.35,-1.84 m 17.42,25.76 -1.2,-0.46 -1.2,-0.7 -1.17,-0.92 -1.13,-1.12 -1.06,-1.3 -0.96,-1.45 -0.85,-1.58 -0.72,-1.67 m 12.1,6.41 -0.22,0.77 -0.31,0.67 -0.4,0.56 -0.47,0.43 -0.54,0.3 -0.59,0.16 -0.63,0.02 -0.66,-0.12 m -7.82,-22.32 0.08,-0.61 0.22,-0.47 0.35,-0.29 0.43,-0.08 0.48,0.14 0.47,0.35 0.43,0.52 0.34,0.64 0.21,0.7 0.07,0.69 -0.08,0.61 -0.22,0.47 -0.35,0.29 -0.43,0.08 -0.48,-0.14 -0.47,-0.35 -0.43,-0.52 -0.34,-0.64 -0.21,-0.7 -0.07,-0.69 m 8.55,14.33 -0.25,0.7 -0.39,0.51 -0.51,0.29 -0.6,0.04 -0.64,-0.2 -0.64,-0.43 -0.6,-0.63 -0.51,-0.79 -0.39,-0.9 -0.25,-0.94 -0.08,-0.92 0.08,-0.84 m 0.85,-3.91 -0.85,3.91 m 0.85,-3.91 0.25,-0.7 0.39,-0.51 0.51,-0.29 0.6,-0.05 0.64,0.2 0.64,0.43 0.6,0.63 0.51,0.79 0.39,0.9 0.25,0.94 0.08,0.92 -0.09,0.84 m 0.01,0.01 -0.85,3.91 m -92.35,-77.95 0.09,-0.73 0.24,-0.6 0.37,-0.42 0.47,-0.21 0.54,0.02 0.57,0.24 0.56,0.44 0.5,0.62 0.41,0.75 0.29,0.82 0.15,0.83 -0.01,0.78 -0.16,0.67 -0.31,0.51 -0.42,0.32 -0.51,0.1 -0.56,-0.13 -0.57,-0.35 -0.54,-0.54 -0.46,-0.69 -0.35,-0.79 -0.22,-0.83 -0.08,-0.81 m -14.25,-5.19 -0.48,-0.35 -0.43,-0.52 -0.33,-0.64 -0.21,-0.7 -0.07,-0.69 0.08,-0.61 0.22,-0.47 0.35,-0.29 0.43,-0.08 0.48,0.14 m 2.34,1.21 -2.33,-1.2 m 2.33,1.2 0.47,0.35 0.43,0.52 0.34,0.64 0.21,0.7 0.07,0.69 -0.08,0.61 -0.22,0.47 -0.35,0.29 -0.43,0.08 -0.48,-0.14 m -0.01,-0.02 -2.33,-1.19 m 47.46,24.32 -0.47,-0.35 -0.43,-0.52 -0.34,-0.64 -0.21,-0.7 -0.07,-0.69 0.08,-0.61 0.22,-0.47 0.35,-0.29 0.43,-0.08 0.48,0.14 m 2.33,1.21 -2.33,-1.2 m 2.33,1.2 0.47,0.35 0.43,0.52 0.34,0.64 0.21,0.7 0.07,0.69 -0.08,0.61 -0.22,0.47 -0.35,0.29 -0.43,0.08 -0.48,-0.14 m 0,-0.01 -2.33,-1.2 m 64.9,-128.43 -0.01,0.21 0.07,0.69 0.21,0.7 0.34,0.64 0.43,0.52 0.47,0.35 m 1.75,0.88 -1.75,-0.9 m 0.09,-8.45 -0.86,-0.33 -0.83,-0.1 -0.77,0.12 -0.1,0.04 m 16.86,13.01 -0.08,0.35 -0.05,0.76 0.11,0.82 0.26,0.83 0.38,0.77 0.48,0.66 0.55,0.49 0.15,0.1 m 29.76,12.16 -0.01,0.21 0.07,0.69 0.21,0.7 0.34,0.64 0.43,0.52 0.48,0.35 m 1.74,0.89 -1.75,-0.9 m -47.37,-32.78 70.03,35.89 m 1.88,1.5 -0.22,-0.24 -0.23,-0.22 -0.23,-0.21 -0.23,-0.2 -0.24,-0.18 -0.24,-0.17 -0.24,-0.15 -0.24,-0.13 m 27.93,41.32 v 0.06 l 0.07,0.69 0.21,0.7 0.33,0.64 0.33,0.42 m 3.99,2.42 0.85,-3.91 M 228.51,109.8 207.37,86.15 m 30.99,44.75 -0.09,0.84 0.08,0.92 0.25,0.94 0.39,0.9 0.51,0.79 0.6,0.63 0.64,0.43 0.07,0.04 m 3.41,6.57 0.07,-0.03 0.54,-0.3 0.47,-0.43 0.39,-0.56 0.31,-0.67 0.22,-0.77 m -6.83,-13.77 -0.18,0.56 m 1.72,-7.61 -1.6,-0.79 -1.6,-0.91 -1.59,-1.03 -1.57,-1.15 -1.56,-1.26 -1.53,-1.37 -1.51,-1.48 -1.47,-1.58 m 19.5,22.22 -1.78,8.18 m 0.19,-15.62 -0.6,-0.89 -0.63,-0.83 -0.66,-0.77 -0.69,-0.7 -0.71,-0.63 -0.72,-0.55 -0.73,-0.47 -0.74,-0.38 m 7.07,12.66 0.13,-0.85 0.03,-0.91 -0.07,-0.95 -0.16,-0.98 -0.26,-0.98 -0.34,-0.97 -0.42,-0.93 -0.5,-0.87 m -13.56,0.93 -0.48,-0.14 -0.43,0.08 -0.35,0.29 -0.22,0.47 -0.08,0.61 0.07,0.69 0.21,0.7 0.34,0.64 0.43,0.52 0.47,0.35 0.48,0.14 0.43,-0.08 0.35,-0.29 0.23,-0.47 0.08,-0.61 -0.07,-0.69 -0.21,-0.7 -0.34,-0.64 -0.43,-0.52 -0.48,-0.35 m 13.02,7.31 -1.78,8.18 m 0.19,-15.62 0.5,0.87 0.43,0.93 0.34,0.97 0.26,0.98 0.16,0.98 0.07,0.95 -0.03,0.91 -0.13,0.85 m -1.6,-7.44 -0.6,-0.89 -0.63,-0.83 -0.66,-0.77 -0.69,-0.7 -0.71,-0.63 -0.72,-0.55 -0.73,-0.46 -0.74,-0.38 m -12.43,-9.58 1.47,1.58 1.51,1.48 1.53,1.37 1.56,1.26 1.57,1.15 1.59,1.03 1.6,0.91 1.6,0.79 M 226.37,110.6 205.23,86.95 m 0,0 -0.22,-0.24 -0.23,-0.23 -0.23,-0.21 -0.23,-0.2 -0.24,-0.18 -0.24,-0.16 -0.24,-0.15 -0.24,-0.13 m -70.03,-35.89 70.03,35.9 m -70.03,-35.9 -0.86,-0.33 -0.83,-0.1 -0.78,0.13 -0.69,0.35 -0.59,0.57 -0.46,0.77 -0.32,0.93 -0.17,1.07 -0.01,1.17 0.15,1.23 0.3,1.25 0.44,1.23 0.57,1.17 0.68,1.06 0.76,0.92 0.82,0.74 0.86,0.55 m -0.01,0.01 69.05,35.39 m 20.25,22.66 -20.25,-22.65 m 30.29,38.21 -1.05,-2.17 -1.11,-2.12 -1.18,-2.06 -1.24,-2 -1.29,-1.93 -1.35,-1.85 -1.39,-1.76 -1.43,-1.67 m 10.04,15.56 0.74,1.45 0.84,1.36 0.92,1.24 0.99,1.11 1.04,0.95 1.07,0.78 1.08,0.6 1.08,0.41 m 3.8,-2.78 -0.22,0.77 -0.31,0.67 -0.4,0.56 -0.47,0.43 -0.54,0.3 -0.59,0.16 -0.63,0.02 -0.66,-0.12 m 1.58,-11.89 0.09,-0.84 -0.08,-0.92 -0.25,-0.94 -0.39,-0.89 -0.51,-0.79 -0.6,-0.63 -0.64,-0.43 -0.64,-0.2 -0.6,0.04 -0.51,0.29 -0.39,0.51 -0.25,0.7 m 3.92,8 0.85,-3.91 m -5.63,-0.2 -0.09,0.84 0.08,0.92 0.25,0.94 0.39,0.89 0.51,0.79 0.6,0.63 0.64,0.43 0.64,0.2 0.6,-0.04 0.51,-0.29 0.39,-0.51 0.25,-0.7 m -4.77,-4.1 0.85,-3.91 m -101.5,-68.57 0.48,0.14 0.43,-0.08 0.35,-0.29 0.22,-0.47 0.08,-0.61 -0.07,-0.69 -0.21,-0.7 -0.34,-0.64 -0.43,-0.52 -0.47,-0.35 m -0.04,4.21 -2.33,-1.2 m 0.04,-4.2 -0.48,-0.14 -0.43,0.08 -0.35,0.29 -0.23,0.47 -0.08,0.61 0.07,0.69 0.21,0.7 0.33,0.64 0.43,0.52 0.47,0.35 m 2.4,-3.01 -2.33,-1.2 m 16.33,7.61 -0.57,-0.18 -0.53,0.04 -0.45,0.26 -0.34,0.47 -0.2,0.64 -0.05,0.76 0.11,0.82 0.26,0.83 0.38,0.77 0.48,0.66 0.55,0.49 0.57,0.29 0.55,0.07 0.49,-0.15 0.4,-0.37 0.27,-0.56 0.12,-0.7 -0.03,-0.8 -0.18,-0.83 -0.32,-0.81 -0.44,-0.72 -0.52,-0.58 -0.55,-0.4 m 33.41,22.11 0.48,0.14 0.43,-0.08 0.35,-0.29 0.23,-0.47 0.08,-0.61 -0.07,-0.69 -0.21,-0.7 -0.33,-0.64 -0.43,-0.52 -0.47,-0.35 m -0.06,4.21 -2.33,-1.2 m 0.04,-4.19 -0.48,-0.15 -0.43,0.08 -0.35,0.29 -0.22,0.47 -0.08,0.61 0.07,0.69 0.21,0.7 0.34,0.64 0.43,0.52 0.47,0.35 m 2.37,-3.01 -2.33,-1.2 m 11.27,107.79 -0.23,0.66 -0.37,0.48 -0.4,0.24 m -1.13,-0.58 -0.23,0.66 -0.37,0.48 -0.48,0.27 -0.56,0.04 -0.6,-0.19 -0.6,-0.41 -0.07,-0.06 m -2.62,-8.96 0.05,-0.22 m 2.25,9.24 -0.35,-0.03 -0.37,-0.11 -0.37,-0.19 v 0 m 4.63,-1.93 -0.23,0.66 -0.37,0.48 -0.4,0.24 m 5.42,-6.96 0.4,-0.24 m 0,0 0.1,-0.1 0.1,-0.11 0.09,-0.13 0.08,-0.14 0.07,-0.15 0.06,-0.16 0.05,-0.17 0.04,-0.18 m -7.55,7.76 -0.09,0.31 -0.12,0.28 -0.15,0.25 -0.17,0.21 -0.19,0.17 -0.22,0.12 -0.23,0.08 -0.25,0.03 m -2.23,-9.23 0.05,-0.18 0.05,-0.17 0.06,-0.16 0.07,-0.15 0.08,-0.14 0.09,-0.13 0.1,-0.11 0.1,-0.1 m 0,0 0.48,-0.27 0.56,-0.04 0.61,0.19 0.6,0.41 0.56,0.6 0.48,0.75 0.37,0.85 0.23,0.89 m 0.01,-0.01 0.03,0.22 0.02,0.22 0.01,0.21 0.01,0.21 -0.01,0.2 -0.01,0.2 -0.03,0.19 -0.03,0.19 m 7.57,-7.75 0.06,-0.34 0.02,-0.36 -0.01,-0.38 -0.04,-0.39 -0.07,-0.4 -0.1,-0.4 -0.13,-0.39 -0.16,-0.38 m 0,-0.01 -0.25,-0.49 -0.29,-0.45 -0.32,-0.4 -0.35,-0.34 -0.36,-0.27 -0.37,-0.19 -0.37,-0.11 -0.35,-0.03 m 0,-0.01 -0.25,0.03 -0.16,0.05 m -4.06,13.01 -0.31,1.44 m 0,0.01 -0.54,2.47 m 2.14,-0.81 -0.31,1.42 m 3.6,-7.57 -1.47,6.76 m 3.61,-7.57 0.31,-1.44 m 0,0 0.53,-2.46 m -1.84,-0.54 -0.29,1.34 m -6.8,0.9 0.08,-0.03 0.56,-0.04 0.6,0.19 0.6,0.41 0.56,0.6 0.48,0.75 0.37,0.85 0.23,0.89 0.08,0.87 -0.08,0.79 m 1.48,-6.72 -1.45,6.69 m -3.06,-10.57 -1.22,5.6 m 4.36,-7.78 0.09,-0.03 0.56,-0.04 0.6,0.19 0.6,0.41 0.56,0.6 0.48,0.75 0.37,0.85 0.23,0.89 0.08,0.87 -0.08,0.79 m -6.63,-3.1 0.23,-0.66 0.37,-0.48 0.48,-0.27 0.56,-0.04 0.6,0.19 0.6,0.41 0.56,0.6 0.48,0.75 0.37,0.85 0.23,0.89 0.08,0.87 -0.08,0.79 m -41.31,39.16 -0.57,-0.67 -0.49,-0.68 -0.27,-0.51 -0.01,-0.27 0.25,0.02 0.48,0.3 m 0.24,0.39 -0.33,-0.21 -0.2,-0.04 -0.04,0.13 0.11,0.28 0.26,0.4 0.37,0.48 0.44,0.49 0.46,0.45 0.42,0.35 0.33,0.21 0.2,0.04 0.04,-0.13 -0.12,-0.28 -0.26,-0.41 -0.37,-0.48 -0.44,-0.49 -0.46,-0.45 -0.41,-0.34 m -129.62,-63.79 -2.13,0.8 m 110.16,99.83 2.13,-0.8 m 1.58,-200.03 -2.13,0.8 m 111.32,94.48 2.13,-0.8 m -55.34,45.14 2.13,-0.8 m 4.7,-9.31 0.01,-0.04 0.07,-0.1 0.04,-0.04 m -11.49,0.74 -0.06,0.15 m 11.39,-0.57 0.05,-0.15 m -8.67,9.51 2.13,-0.8 m -4.88,-8 -0.01,0.04 -0.07,0.1 -0.04,0.04 m 25.24,-13.54 1.56,-1.5 1.26,-1.33 0.86,-1.02 0.4,-0.55 0.24,-0.38 0.13,-0.26 0.04,-0.09 0.03,-0.08 0.02,-0.08 0.01,-0.08 -0.02,-0.18 -0.26,-0.55 -0.49,-0.7 -0.62,-0.74 -0.16,-0.16 m -0.02,0 -0.53,-0.55 -0.66,-0.58 -0.45,-0.3 -0.28,-0.1 -0.17,-0.01 -0.25,0.05 -0.38,0.15 -0.56,0.3 -1.12,0.74 -1.55,1.21 -1.8,1.57 m -11.4,20.13 1.37,-0.51 m -7.09,-3.58 -2.13,0.8 m 10.43,0.85 13.59,-12.47 m -4.79,-5.22 -10.18,9.34 m -3.33,-0.8 -2.13,0.8 m -34.71,36.86 -1.56,1.5 -1.26,1.33 -0.86,1.02 -0.4,0.54 -0.24,0.38 -0.13,0.26 -0.04,0.09 -0.02,0.08 -0.01,0.08 -0.01,0.08 0.03,0.18 0.26,0.55 0.49,0.7 0.62,0.74 0.16,0.16 m -0.01,0.01 0.53,0.54 0.66,0.58 0.45,0.3 0.28,0.1 0.17,0.01 0.25,-0.05 0.38,-0.15 0.56,-0.3 1.12,-0.74 1.55,-1.21 1.8,-1.57 m 25.13,-32.65 -29.91,27.44 m 4.8,5.22 27.43,-25.16"
           class="st6"
           inkscape:connector-curvature="0"
           style="fill:none;stroke:#000000;stroke-width:0.70899999;stroke-linecap:round;stroke-linejoin:round;stroke-miterlimit:10;stroke-dasharray:18, 3.6, 3.6, 3.6, 3.6, 3.6;stroke-dashoffset:3" />
        <line
           id="line6524"
           y2="233.27"
           x2="134.88"
           y1="214.75"
           x1="155.06"
           class="st7"
           style="fill:none;stroke:#000000;stroke-width:0.50999999;stroke-linecap:round;stroke-linejoin:round;stroke-miterlimit:10;stroke-dasharray:18, 3.6, 3.6, 3.6, 3.6, 3.6;stroke-dashoffset:13" />
        <line
           id="line6526"
           y2="242.27"
           x2="125.07"
           y1="239.02"
           x1="128.61"
           class="st8"
           style="fill:none;stroke:#000000;stroke-width:0.50999999;stroke-linecap:round;stroke-linejoin:round;stroke-miterlimit:10;stroke-dasharray:18, 3.6, 3.6, 3.6, 3.6, 3.6;stroke-dashoffset:15" />
        <line
           id="line6528"
           y2="126.89"
           x2="240.10001"
           y1="169.69"
           x1="193.46001"
           class="st7"
           style="fill:none;stroke:#000000;stroke-width:0.50999999;stroke-linecap:round;stroke-linejoin:round;stroke-miterlimit:10;stroke-dasharray:18, 3.6, 3.6, 3.6, 3.6, 3.6;stroke-dashoffset:13" />
        <path
           id="path6530"
           d="m 48.83,349.44 -0.47,-0.35 -0.43,-0.52 -0.34,-0.64 -0.21,-0.7 -0.07,-0.69 0.01,-0.21 m 3.26,4 -1.75,-0.9 m -2.47,-8.72 0.1,-0.04 0.78,-0.13 0.83,0.1 0.86,0.33 m 16.08,17.52 -0.29,-0.2 -0.54,-0.54 -0.46,-0.69 -0.35,-0.79 -0.22,-0.83 -0.07,-0.81 m 0,0 0.09,-0.73 0.05,-0.17 m 33.07,20.03 -0.47,-0.35 -0.43,-0.52 -0.33,-0.64 -0.21,-0.7 -0.07,-0.69 0.01,-0.21 m 3.25,4.01 -1.75,-0.9 m -47.37,-32.78 70.03,35.9 m 0.01,-0.01 0.31,0.17 0.3,0.2 0.3,0.22 0.3,0.25 0.29,0.27 0.28,0.29 0.28,0.31 0.27,0.33 m 26.54,41.78 -0.33,-0.42 -0.33,-0.64 -0.21,-0.7 -0.07,-0.69 m 0,0.01 v -0.06 m 9.63,22.34 0.07,-0.03 0.54,-0.3 0.47,-0.43 0.4,-0.56 0.31,-0.67 0.22,-0.77 m -37.25,-58.85 20.8,27.26 m 16.45,31.6 1.78,-8.18 m -6.16,-12.17 -1.59,-1.02 -1.58,-1.14 -1.56,-1.26 -1.54,-1.36 -1.51,-1.47 -1.47,-1.57 -1.44,-1.67 -1.4,-1.76 m 12.09,11.25 0.62,0.4 0.61,0.46 0.6,0.52 0.59,0.57 0.57,0.62 0.55,0.67 0.53,0.71 0.5,0.75 m 1.58,7.46 0.13,-0.85 0.03,-0.91 -0.07,-0.95 -0.16,-0.98 -0.26,-0.98 -0.34,-0.97 -0.42,-0.93 -0.5,-0.87 m -2.32,16.43 1.78,-8.18 m -1.59,-7.44 0.49,0.87 0.43,0.93 0.34,0.97 0.26,0.98 0.16,0.98 0.07,0.95 -0.03,0.91 -0.13,0.85 m -6.15,-12.17 0.62,0.41 0.61,0.46 0.6,0.52 0.59,0.57 0.57,0.62 0.55,0.67 0.53,0.71 0.5,0.75 m -16.65,-15.95 1.4,1.76 1.44,1.67 1.48,1.57 1.51,1.47 1.54,1.36 1.56,1.26 1.58,1.14 1.59,1.02 m -32.89,-38.52 20.8,27.26 m -23.13,-29.31 0.31,0.17 0.3,0.2 0.3,0.22 0.3,0.25 0.29,0.27 0.28,0.29 0.28,0.32 0.27,0.33 m -72.36,-37.94 70.03,35.89 m -70.17,-23.17 -0.86,-0.55 -0.82,-0.75 -0.76,-0.92 -0.68,-1.06 -0.57,-1.17 -0.44,-1.23 -0.3,-1.25 -0.15,-1.24 0.01,-1.17 0.17,-1.07 0.32,-0.93 0.46,-0.77 0.59,-0.57 0.7,-0.35 0.78,-0.13 0.83,0.1 0.86,0.33 m -0.14,12.73 68.78,35.26 m 0.01,0 19.72,25.86 m 8.68,15.41 -0.46,-1.11 -0.98,-2.21 -1.05,-2.17 -1.12,-2.12 -1.18,-2.06 -1.24,-1.99 -1.3,-1.92 -1.35,-1.84 m 17.42,25.76 -1.2,-0.46 -1.2,-0.7 -1.17,-0.92 -1.13,-1.12 -0.59,-0.7 m 9.1,1.11 -0.22,0.77 -0.31,0.67 -0.4,0.56 -0.46,0.42 -0.53,0.3 -0.59,0.16 -0.63,0.02 -0.66,-0.12 m -7.84,-22.31 0.08,-0.61 0.22,-0.47 0.35,-0.29 0.43,-0.08 0.48,0.14 0.47,0.35 0.43,0.52 0.34,0.64 0.21,0.7 0.07,0.69 -0.08,0.61 -0.23,0.47 -0.35,0.29 -0.43,0.08 -0.48,-0.14 -0.47,-0.35 -0.43,-0.52 -0.34,-0.64 -0.21,-0.7 -0.06,-0.69 m 8.55,14.33 -0.25,0.7 -0.39,0.51 -0.51,0.29 -0.6,0.04 -0.64,-0.2 -0.36,-0.22 m -1.18,-9.14 -0.16,0.74 m 0.16,-0.74 0.25,-0.7 0.39,-0.51 0.51,-0.29 0.6,-0.04 0.64,0.2 0.64,0.43 0.6,0.63 0.51,0.79 0.39,0.89 0.25,0.94 0.08,0.92 -0.08,0.84 m 0,0.01 -0.85,3.91 m -92.35,-77.95 0.09,-0.73 0.24,-0.6 0.37,-0.42 0.47,-0.21 0.54,0.02 0.57,0.24 0.56,0.45 0.5,0.62 0.41,0.75 0.29,0.82 0.15,0.83 -0.01,0.78 -0.16,0.67 -0.3,0.51 -0.42,0.32 -0.51,0.1 -0.56,-0.13 -0.57,-0.35 -0.54,-0.54 -0.46,-0.69 -0.35,-0.79 -0.22,-0.83 -0.09,-0.82 m -14.25,-5.19 -0.48,-0.35 -0.43,-0.52 -0.34,-0.64 -0.21,-0.7 -0.07,-0.69 0.08,-0.61 0.23,-0.47 0.35,-0.29 0.43,-0.08 0.48,0.14 m 2.34,1.21 -2.33,-1.2 m 2.33,1.2 0.47,0.35 0.43,0.52 0.34,0.64 0.21,0.7 0.07,0.69 -0.08,0.61 -0.23,0.47 -0.35,0.29 -0.43,0.08 -0.48,-0.14 m 0,-0.01 -2.33,-1.2 m 47.46,24.32 -0.47,-0.35 -0.43,-0.52 -0.34,-0.64 -0.21,-0.7 -0.07,-0.69 0.08,-0.61 0.22,-0.47 0.35,-0.29 0.43,-0.08 0.48,0.14 m 2.33,1.21 -2.33,-1.2 m 2.33,1.2 0.48,0.35 0.43,0.52 0.33,0.64 0.21,0.7 0.07,0.69 -0.08,0.61 -0.22,0.47 -0.35,0.29 -0.43,0.08 -0.48,-0.14 m 0,-0.01 -2.33,-1.2 m -40.97,-35.19 -0.86,-0.33 -0.83,-0.1 -0.78,0.13 -0.1,0.04 m 2.57,0.26 70.03,35.9 m 1.88,1.49 -0.22,-0.24 -0.23,-0.23 -0.23,-0.21 -0.23,-0.2 -0.24,-0.18 -0.24,-0.17 -0.24,-0.15 -0.24,-0.13 m 23,25.16 -21.14,-23.65 m 36.86,56.82 0.07,-0.03 0.54,-0.3 0.47,-0.43 0.39,-0.56 0.31,-0.67 0.22,-0.76 m -5.29,-20.84 -1.6,-0.79 -1.6,-0.91 -1.59,-1.03 -1.57,-1.15 -1.56,-1.26 -1.53,-1.37 -1.51,-1.48 -1.47,-1.58 m 19.5,22.22 -1.78,8.18 m 0.19,-15.62 -0.6,-0.89 -0.63,-0.83 -0.66,-0.77 -0.69,-0.7 -0.71,-0.63 -0.72,-0.55 -0.73,-0.46 -0.74,-0.38 m 7.07,12.65 0.13,-0.85 0.03,-0.91 -0.07,-0.95 -0.16,-0.98 -0.26,-0.98 -0.34,-0.97 -0.42,-0.93 -0.5,-0.87 m -0.54,8.24 -1.78,8.18 m 0.19,-15.62 0.5,0.87 0.42,0.93 0.34,0.97 0.26,0.98 0.16,0.98 0.07,0.95 -0.03,0.91 -0.13,0.85 m -1.59,-7.44 -0.6,-0.89 -0.63,-0.83 -0.66,-0.77 -0.69,-0.7 -0.71,-0.63 -0.72,-0.55 -0.73,-0.46 -0.74,-0.38 m -12.43,-9.57 1.47,1.58 1.51,1.48 1.53,1.37 1.56,1.26 1.57,1.15 1.59,1.03 1.6,0.91 1.6,0.79 m -12.43,-9.57 -21.14,-23.65 m 0,0 -0.22,-0.24 -0.23,-0.23 -0.23,-0.21 -0.23,-0.2 -0.24,-0.18 -0.24,-0.17 -0.24,-0.15 -0.24,-0.13 m -70.03,-35.89 70.03,35.9 m -70.03,-35.9 -0.86,-0.33 -0.83,-0.1 -0.78,0.13 -0.69,0.36 -0.38,0.33 m 114.3,91.07 -0.22,0.77 -0.31,0.67 -0.39,0.56 -0.47,0.43 -0.54,0.3 -0.59,0.16 -0.06,0.01 m 0.34,-12.01 0.09,-0.84 -0.01,-0.26 m -0.27,1.97 0.19,-0.87 m -10.12,3.18 0.05,-0.23 m 2.25,9.25 -0.35,-0.03 -0.37,-0.11 -0.37,-0.19 v 0 m 2.49,-1.13 -0.09,0.31 -0.12,0.28 -0.15,0.25 -0.17,0.21 -0.19,0.17 -0.22,0.12 -0.23,0.08 -0.25,0.03 m -2.23,-9.23 0.04,-0.18 0.05,-0.17 0.06,-0.16 0.07,-0.15 0.08,-0.14 0.09,-0.13 0.1,-0.11 0.1,-0.1 m 0.01,0 0.48,-0.27 0.56,-0.04 0.6,0.19 0.61,0.41 0.56,0.6 0.48,0.75 0.37,0.85 0.23,0.89 m 0.01,-0.01 0.03,0.22 0.02,0.22 0.01,0.21 v 0.21 0.21 l -0.01,0.2 -0.03,0.19 -0.03,0.19 m 0.01,0 -0.31,1.44 m 0,0 -0.54,2.47 m 6.57,-12.21 -0.29,1.34 m -3.21,-6.6 0.08,-0.03 0.56,-0.04 0.6,0.19 0.6,0.41 0.56,0.6 0.48,0.75 0.37,0.85 0.23,0.89 0.08,0.87 -0.08,0.79 m -6.19,-4.04 0.18,-0.19 0.48,-0.27 0.56,-0.04 0.6,0.19 0.6,0.41 0.56,0.6 0.48,0.75 0.37,0.84 0.23,0.89 0.06,0.44 m -41.38,40.38 -0.57,-0.67 -0.49,-0.68 -0.27,-0.51 -0.01,-0.27 0.25,0.02 0.48,0.3 m 0.24,0.39 -0.33,-0.21 -0.2,-0.05 -0.04,0.13 0.11,0.28 0.26,0.41 0.37,0.48 0.44,0.49 0.46,0.45 0.42,0.35 0.33,0.21 0.2,0.04 0.04,-0.13 -0.12,-0.28 -0.26,-0.41 -0.37,-0.48 -0.44,-0.49 -0.46,-0.45 -0.41,-0.34 m 67.87,-54.17 0.43,0.89 0.58,0.88 m -1.01,-1.77 -0.1,-0.47 -0.14,-1.45 m 2.79,5.26 0.44,-0.1 0.59,-0.15 m -2.57,-1.32 0.09,0.12 0.67,0.75 0.77,0.71 m -2.78,-5.27 0.01,-0.28 0.02,-0.28 0.1,-0.77 0.16,-0.79 m 4.35,-1.37 -0.44,0.1 -0.59,0.15 m 0,0.01 -0.09,0.03 -0.68,0.19 -0.78,0.23 m -1.77,0.66 1.77,-0.67 m -0.74,0.42 -0.09,0.02 -0.52,0.14 -0.42,0.1 m 3.65,3.72 0.01,0.23 -0.08,0.53 -0.23,0.38 -0.35,0.18 -0.41,-0.05 -0.43,-0.27 -0.38,-0.46 -0.28,-0.58 -0.15,-0.62 0.01,-0.58 0.16,-0.47 0.29,-0.28 0.39,-0.06 0.43,0.16 0.41,0.37 0.09,0.12 m -0.08,3.09 -0.21,0.05 -0.45,-0.08 -0.46,-0.29 -0.42,-0.47 -0.33,-0.6 -0.21,-0.67 -0.07,-0.66 m 0,0.01 0.08,-0.58 0.23,-0.44 0.34,-0.25 m 1.98,5.69 0.09,-0.03 0.68,-0.19 0.78,-0.23 m -2.5,-7.38 -0.82,0.24 -0.73,0.21 m 4.05,6.92 1.77,-0.67 m 0,0.01 0.12,-0.55 0.17,-1.57 m 0,0 -0.01,-0.54 -0.23,-1.38 m -1.82,4.7 -0.11,-0.47 -0.13,-1.45 m 0,0 0.03,-0.56 0.26,-1.56 m -4.25,0.09 0.07,0.66 0.21,0.66 0.33,0.6 0.42,0.47 0.46,0.29 0.45,0.08 0.39,-0.15 0.29,-0.35 0.16,-0.52 0.01,-0.63 -0.14,-0.67 -0.28,-0.64 -0.38,-0.54 -0.44,-0.38 -0.46,-0.18 -0.42,0.04 -0.34,0.25 -0.22,0.44 -0.11,0.57 m -1.17,-0.6 0.03,-0.45 0.07,-0.41 0.11,-0.38 0.15,-0.33 0.19,-0.29 0.22,-0.23 0.26,-0.17 0.28,-0.11 m -1.31,2.37 0.02,0.47 0.06,0.48 0.1,0.49 0.14,0.49 0.18,0.48 0.22,0.46 0.25,0.43 0.28,0.4 m 0,-0.01 0.3,0.36 0.32,0.31 0.33,0.26 0.33,0.2 0.34,0.14 0.33,0.08 0.32,0.02 0.3,-0.05 m 0,0 0.28,-0.11 0.25,-0.17 0.23,-0.23 0.19,-0.29 0.15,-0.33 0.11,-0.38 0.07,-0.42 0.03,-0.45 m 0,0 -0.02,-0.47 -0.06,-0.48 -0.1,-0.49 -0.14,-0.49 -0.18,-0.48 -0.22,-0.46 -0.25,-0.43 -0.28,-0.4 m 0,0.02 -0.3,-0.36 -0.32,-0.31 -0.33,-0.26 -0.33,-0.2 -0.34,-0.14 -0.33,-0.08 -0.32,-0.02 -0.3,0.05 m 4.11,2.88 1.77,-0.67 m 0,0.01 -0.27,-0.59 -0.16,-0.3 -0.17,-0.29 -0.4,-0.59 m -0.01,0 -0.09,-0.12 -0.67,-0.75 -0.77,-0.7 m -1.78,0.67 1.77,-0.67 m -0.76,2.44 -0.09,-0.12 -0.51,-0.81 -0.41,-0.84 m 2.55,3.33 -0.55,-0.49 -0.26,-0.26 -0.25,-0.26 -0.47,-0.56 m -73.99,31 0.02,-0.24 -0.07,-0.6 -0.21,-0.6 -0.33,-0.52 -0.22,-0.23 m -12.57,5.88 0.01,-0.73 m 0,0 v -0.36 m 0.75,2.09 -0.3,-0.39 m 0,0 -0.46,-0.61 m 0,0 -1.11,0.42 m 1.87,0.86 -0.94,0.36 m 0.22,-2.69 v 0 l -0.03,0.15 -0.01,0.16 m 0.01,0.01 0.01,0.17 0.02,0.18 0.04,0.18 0.05,0.18 0.07,0.17 0.08,0.17 0.09,0.16 0.1,0.14 m -0.01,-0.01 0.11,0.13 0.11,0.11 0.08,0.06 m 11.95,-3.32 0.34,-0.25 0.23,-0.44 0.08,-0.58 m 0,-0.01 -0.07,-0.66 -0.21,-0.66 -0.33,-0.6 -0.42,-0.47 -0.46,-0.29 -0.45,-0.07 -0.21,0.05 m -10.44,6.3 -0.01,1.47 m -0.01,0 -0.94,0.26 m 0,-0.01 -0.92,-1.21 m 0,0 0.01,-1.47 m 0,0 0.94,-0.26 m 0,0.01 0.92,1.21 m 2.25,3.37 0.05,-0.02 0.49,-0.33 0.37,-0.53 0.24,-0.7 0.09,-0.83 m 0,-0.01 -0.07,-0.91 -0.22,-0.93 -0.36,-0.91 -0.47,-0.83 -0.56,-0.7 -0.62,-0.53 -0.64,-0.33 -0.62,-0.11 -0.52,0.09 m 1.25,7.7 0.04,0.01 0.62,0.11 0.57,-0.12 0.49,-0.33 0.37,-0.53 0.24,-0.7 0.09,-0.83 m 0,0.01 -0.07,-0.91 -0.22,-0.93 -0.36,-0.91 -0.47,-0.83 -0.56,-0.7 -0.62,-0.53 -0.64,-0.33 -0.62,-0.11 -0.57,0.11 -0.49,0.33 -0.33,0.45 m 2.27,4.19 -0.07,-0.66 -0.22,-0.66 -0.35,-0.59 -0.43,-0.44 -0.46,-0.24 -0.44,-0.01 -0.36,0.22 -0.24,0.43 -0.09,0.58 0.07,0.66 0.22,0.66 0.35,0.59 0.43,0.44 0.46,0.24 0.44,0.01 0.36,-0.22 0.24,-0.43 0.09,-0.58 m 190.46,-139.71 0.01,-0.01 0.17,0.04 0.28,0.19 0.36,0.32 0.38,0.4 0.34,0.41 0.25,0.37 0.13,0.26 -0.01,0.11 m -91.92,83.68 -0.36,-0.32 -0.38,-0.4 -0.34,-0.41 -0.25,-0.37 -0.13,-0.26 0.02,-0.12 0.16,0.04 0.28,0.19 0.36,0.32 0.38,0.4 0.34,0.41 0.25,0.37 0.13,0.26 -0.02,0.12 -0.17,-0.04 -0.27,-0.19 m -155.29,-43.36 -2.13,0.8 m 110.16,99.82 2.13,-0.8 M 50.62,339.1 l -2.13,0.8 m 111.33,94.48 2.13,-0.8 m -12.5,-7.88 -0.06,0.15 m 2.77,8.79 0.69,-0.26 m -3.44,-8.54 -0.01,0.04 -0.07,0.1 -0.04,0.04 m 25.24,-13.54 1.56,-1.5 1.26,-1.33 0.86,-1.02 0.4,-0.54 0.24,-0.38 0.13,-0.26 0.04,-0.09 0.03,-0.08 0.02,-0.08 0.01,-0.08 -0.02,-0.18 -0.26,-0.55 -0.49,-0.7 -0.62,-0.74 -0.16,-0.16 m -0.02,-0.01 -0.53,-0.55 -0.66,-0.58 -0.45,-0.3 -0.28,-0.1 -0.17,-0.01 -0.25,0.05 -0.38,0.15 -0.56,0.3 -1.12,0.74 -1.55,1.21 -1.8,1.57 m -18.56,16.58 -0.69,0.26 m 15.36,-3.67 8.66,-7.95 m -4.79,-5.22 -6.81,6.24 m -6.7,2.3 -2.13,0.8 m -34.71,36.86 -1.56,1.5 -1.26,1.33 -0.86,1.02 -0.4,0.54 -0.24,0.38 -0.13,0.26 -0.04,0.09 -0.03,0.08 -0.01,0.08 -0.01,0.08 0.03,0.18 0.26,0.55 0.49,0.7 0.62,0.74 0.16,0.16 m 0,0.02 0.53,0.55 0.66,0.58 0.45,0.3 0.28,0.1 0.17,0.01 0.25,-0.05 0.38,-0.15 0.56,-0.3 1.12,-0.74 1.56,-1.21 1.8,-1.57 m 25.12,-32.67 -29.91,27.44 m 4.8,5.22 27.43,-25.16 m 39.82,-26.55 0.24,-0.08 0.52,-0.38 0.39,-0.51 0.27,-0.62 0.14,-0.74 v -0.83 l -0.15,-0.86 -0.29,-0.84 -0.41,-0.78 -0.53,-0.69 -0.63,-0.56 -0.63,-0.35 -0.64,-0.16 -0.63,0.01 -0.38,0.13 m 1.99,7.57 0.73,-0.28 m -2.74,-7.29 -1.67,0.63 m -74.41,30.95 -0.23,-0.2 m 1.01,2.68 0.04,-0.3 m -2.17,-2.7 -8.46,3.19 m 1.5,3.97 8.46,-3.19 m -12.54,-1.86 -0.41,0.15 m 2.85,7.56 0.41,-0.15 m -4.13,-6.6 -0.39,0.94 -0.18,1 0.04,1.02 0.25,0.98 0.46,0.91 0.64,0.79 0.79,0.64 0.91,0.45 M 291.66,298.3 200.2,382.21 m 1.91,2.09 91.46,-83.91"
           class="st6"
           inkscape:connector-curvature="0"
           style="fill:none;stroke:#000000;stroke-width:0.70899999;stroke-linecap:round;stroke-linejoin:round;stroke-miterlimit:10;stroke-dasharray:18, 3.6, 3.6, 3.6, 3.6, 3.6;stroke-dashoffset:3" />
        <line
           id="line6532"
           y2="383.25"
           x2="201.14999"
           y1="404.87"
           x1="177.59"
           class="st9"
           style="fill:none;stroke:#000000;stroke-width:0.50999999;stroke-linecap:round;stroke-linejoin:round;stroke-miterlimit:10;stroke-dasharray:18, 3.6, 3.6, 3.6, 3.6, 3.6;stroke-dashoffset:11" />
        <line
           id="line6534"
           y2="404.39999"
           x2="187.27"
           y1="407.54001"
           x1="178.92999"
           class="st8"
           style="fill:none;stroke:#000000;stroke-width:0.50999999;stroke-linecap:round;stroke-linejoin:round;stroke-miterlimit:10;stroke-dasharray:18, 3.6, 3.6, 3.6, 3.6, 3.6;stroke-dashoffset:15" />
        <line
           id="line6536"
           y2="432.28"
           x2="113.26"
           y1="419.35001"
           x1="147.59"
           class="st10"
           style="fill:none;stroke:#000000;stroke-width:0.50999999;stroke-linecap:round;stroke-linejoin:round;stroke-miterlimit:10;stroke-dasharray:18, 3.6, 3.6, 3.6, 3.6, 3.6;stroke-dashoffset:8" />
        <path
           id="path6538"
           d="m 763.27,143.55 2.57,-1.44 m 0,0 0.64,-0.52 0.51,-0.74 0.3,-0.85 0.05,-0.84 -0.01,-0.11 m 1.36,-5.32 -0.55,-0.2 -1,-0.11 -1.07,0.18 -1.09,0.47 m -17.68,19.12 0.69,-0.33 0.66,-0.56 0.56,-0.74 0.41,-0.86 0.22,-0.9 0.02,-0.86 m 0,0 -0.18,-0.71 m -39,24.76 2.57,-1.44 m 0,0.01 0.64,-0.52 0.51,-0.74 0.3,-0.85 0.05,-0.84 -0.01,-0.11 m 50.24,-34.43 -77.61,43.45 m 0,0.01 -0.34,0.2 -0.33,0.23 -0.33,0.25 -0.32,0.27 -0.31,0.3 -0.3,0.32 -0.29,0.34 -0.28,0.35 m -30.82,47.43 1.33,3.6 m -8.26,9.91 0.32,0.7 0.42,0.59 0.51,0.48 0.54,0.33 m 3.39,-6.21 0.35,-0.09 0.78,-0.4 0.73,-0.65 0.62,-0.84 0.46,-0.96 0.26,-1.01 0.04,-0.97 -0.18,-0.86 m 1.98,-7.3 0.14,-0.09 0.58,-0.54 0.45,-0.72 0.26,-0.81 0.04,-0.79 m 0.01,0.01 -0.01,-0.11 m -4.76,6.73 -0.15,-0.32 m -6.78,13.83 -2.78,-7.55 m 40.53,-53.4 -21.57,28.7 m 0,0.01 -1.45,1.86 -1.51,1.78 -1.56,1.69 -1.61,1.6 -1.65,1.5 -1.69,1.4 -1.72,1.29 -1.74,1.18 m -0.01,0 -0.68,0.47 -0.66,0.52 -0.65,0.57 -0.63,0.62 -0.6,0.67 -0.57,0.71 -0.54,0.75 -0.51,0.78 m 0,0.01 -0.49,0.9 -0.41,0.94 -0.31,0.97 -0.21,0.97 -0.1,0.95 0.01,0.92 0.12,0.86 0.22,0.79 m 16.39,-11.66 -0.19,-0.66 -0.4,-0.44 -0.55,-0.16 -0.62,0.14 -0.62,0.42 -0.53,0.64 -0.37,0.78 -0.15,0.81 0.08,0.73 0.3,0.56 0.48,0.3 0.6,0.01 0.63,-0.28 0.58,-0.54 0.45,-0.72 0.26,-0.81 0.05,-0.78 m -7.05,22.27 1.34,-0.6 1.32,-0.82 1.27,-1.03 1.2,-1.22 1.1,-1.38 0.98,-1.51 0.84,-1.61 0.69,-1.68 m 9.07,-16.97 -1.39,1.93 -1.33,2 -1.26,2.06 -1.18,2.11 -1.1,2.16 -1.02,2.2 -0.94,2.23 -0.85,2.26 m 29.53,-44.17 -20.46,27.22 m 96.69,-69.9 -76.23,42.68 m 76.23,-42.68 1.06,-0.73 0.99,-0.97 0.87,-1.16 0.71,-1.3 0.53,-1.38 0.32,-1.4 0.09,-1.36 -0.13,-1.26 -0.36,-1.11 -0.56,-0.91 -0.74,-0.67 -0.89,-0.4 -1,-0.11 -1.07,0.18 -1.09,0.47 m -0.02,0.02 -77.61,43.45 m 0,0.01 -0.34,0.2 -0.33,0.23 -0.33,0.25 -0.32,0.27 -0.31,0.3 -0.3,0.32 -0.29,0.34 -0.28,0.35 m 0,-0.01 -21.57,28.7 m -12.94,12.31 1.74,-1.18 1.72,-1.29 1.69,-1.4 1.65,-1.5 1.61,-1.6 1.56,-1.69 1.51,-1.78 1.45,-1.86 m -12.93,12.3 -0.68,0.47 -0.66,0.52 -0.65,0.57 -0.62,0.62 -0.6,0.67 -0.57,0.71 -0.54,0.75 -0.51,0.78 m -1.18,7.31 -0.22,-0.79 -0.12,-0.86 -0.01,-0.92 0.1,-0.95 0.21,-0.97 0.31,-0.97 0.41,-0.94 0.49,-0.9 m 1.6,14.85 -2.78,-7.55 m 7.43,9.69 -0.75,0.2 -0.73,0.06 -0.69,-0.08 -0.64,-0.21 -0.58,-0.35 -0.51,-0.48 -0.42,-0.59 -0.32,-0.7 m 3.1,-5.35 0.39,0.68 0.56,0.44 0.7,0.16 0.77,-0.12 0.78,-0.4 0.73,-0.65 0.62,-0.84 0.46,-0.96 0.26,-1.01 0.04,-0.97 -0.18,-0.86 m -6.45,0.92 1.33,3.6 m 3.81,-8.15 -0.39,-0.68 -0.56,-0.44 -0.7,-0.16 -0.77,0.12 -0.78,0.4 -0.73,0.65 -0.62,0.84 -0.46,0.96 -0.26,1.01 -0.04,0.98 0.18,0.86 m 5.13,-4.54 1.33,3.6 m 94.48,-81.87 -0.19,-0.74 -0.38,-0.56 -0.53,-0.33 -0.64,-0.07 -0.7,0.2 -0.68,0.45 -0.61,0.66 -0.49,0.81 -0.32,0.89 -0.12,0.89 0.09,0.81 0.29,0.66 0.46,0.45 0.6,0.2 0.68,-0.07 0.7,-0.33 0.66,-0.56 0.56,-0.74 0.41,-0.86 0.22,-0.9 -0.01,-0.86 m 15.98,-6.84 0.64,-0.52 0.51,-0.74 0.3,-0.86 0.05,-0.84 -0.21,-0.69 -0.44,-0.44 -0.6,-0.12 -0.67,0.21 m -2.16,5.45 2.59,-1.45 m -3.02,-2.54 -0.64,0.52 -0.51,0.74 -0.3,0.85 -0.05,0.84 0.21,0.69 0.44,0.44 0.6,0.12 0.67,-0.21 m -0.42,-3.99 2.59,-1.45 m -52.17,33.44 0.64,-0.52 0.51,-0.74 0.3,-0.85 0.05,-0.84 -0.21,-0.69 -0.44,-0.44 -0.6,-0.12 -0.67,0.21 m -2.17,5.44 2.58,-1.45 m -3,-2.54 -0.64,0.52 -0.51,0.74 -0.3,0.85 -0.05,0.84 0.21,0.69 0.44,0.44 0.6,0.12 0.67,-0.21 m -0.42,-3.99 2.58,-1.45 M 661.3,50.05 l 2.57,-1.44 m 1.48,-3.06 0.01,0.11 -0.05,0.84 -0.3,0.85 -0.51,0.74 -0.64,0.52 m -0.85,-8.04 1.09,-0.47 1.07,-0.18 1,0.11 0.55,0.2 m -19.01,14.5 0.15,0.52 0.03,0.84 -0.17,0.9 -0.36,0.88 -0.52,0.78 -0.64,0.61 -0.69,0.39 -0.17,0.06 m -36.63,19.78 2.57,-1.44 m 1.48,-3.05 0.01,0.11 -0.05,0.84 -0.3,0.85 -0.51,0.74 -0.64,0.52 M 663.01,40.57 585.4,84.02 m -2.03,1.68 0.23,-0.26 0.24,-0.25 0.25,-0.23 0.25,-0.22 0.26,-0.2 0.26,-0.19 0.26,-0.17 0.27,-0.16 m -28.55,42.97 0.01,0.69 -0.21,0.81 -0.41,0.75 -0.56,0.59 -0.29,0.2 m -3.79,2.36 -1.33,-3.6 m -6.92,13.51 0.32,0.7 0.42,0.59 0.51,0.48 0.54,0.33 m 6.46,-12.01 0.18,0.86 -0.04,0.98 -0.26,1.01 -0.47,0.96 -0.62,0.84 -0.73,0.65 -0.78,0.4 -0.35,0.09 m 12.56,-27.17 22.29,-25.31 m -33.25,42.76 0.15,0.32 m -9.71,5.97 2.78,7.55 m 17.74,-31.29 -1.56,1.7 -1.61,1.61 -1.65,1.51 -1.68,1.41 -1.71,1.3 -1.74,1.19 -1.76,1.08 -1.78,0.96 m -5.85,5.69 0.61,-0.92 0.65,-0.88 0.7,-0.82 0.73,-0.76 0.76,-0.69 0.79,-0.62 0.8,-0.54 0.82,-0.46 m -5.86,5.69 -0.49,0.9 -0.41,0.94 -0.31,0.96 -0.21,0.97 -0.1,0.95 0.01,0.92 0.12,0.86 0.22,0.79 m 17.57,2.06 -0.73,1.48 -0.84,1.41 -0.95,1.31 -1.04,1.19 -1.11,1.05 -1.16,0.89 -1.2,0.72 -1.21,0.53 m 18.44,-24.72 -1.51,1.78 -1.45,1.86 -1.39,1.94 -1.32,2 -1.25,2.06 -1.18,2.12 -1.1,2.17 -1.01,2.21 m 10.21,-16.14 21.35,-24.24 m 76.53,-42.85 -76.53,42.85 m 75.25,-54.94 1.09,-0.47 1.07,-0.18 1,0.11 0.89,0.4 0.74,0.67 0.56,0.91 0.36,1.11 0.14,1.26 -0.09,1.36 -0.32,1.4 -0.53,1.38 -0.71,1.3 -0.87,1.15 -0.99,0.97 -1.06,0.73 m -1.28,-12.1 -77.62,43.45 m -2.02,1.68 0.23,-0.26 0.24,-0.25 0.25,-0.23 0.25,-0.22 0.26,-0.2 0.26,-0.19 0.26,-0.17 0.27,-0.16 m -24.31,26.99 22.29,-25.31 m -35.78,36.07 1.77,-0.96 1.76,-1.08 1.74,-1.19 1.71,-1.3 1.68,-1.41 1.65,-1.51 1.61,-1.61 1.56,-1.7 m -19.34,16.45 0.61,-0.92 0.65,-0.88 0.7,-0.82 0.73,-0.76 0.76,-0.69 0.79,-0.62 0.81,-0.54 0.82,-0.46 m -7.05,12.98 -0.22,-0.79 -0.12,-0.86 -0.01,-0.92 0.1,-0.95 0.21,-0.97 0.31,-0.96 0.41,-0.94 0.49,-0.9 m -1.17,7.29 2.78,7.55 m 4.65,2.15 -0.75,0.2 -0.73,0.06 -0.69,-0.08 -0.64,-0.22 -0.58,-0.35 -0.51,-0.48 -0.42,-0.59 -0.32,-0.7 m 11.58,-16.23 0.63,-0.21 0.57,0.09 0.44,0.37 0.25,0.61 0.02,0.76 -0.21,0.81 -0.41,0.75 -0.56,0.59 -0.63,0.35 -0.61,0.06 -0.52,-0.24 -0.35,-0.5 -0.14,-0.7 0.1,-0.8 0.32,-0.8 0.49,-0.68 0.61,-0.46 m -9.81,7.28 -0.18,-0.86 0.04,-0.98 0.26,-1.01 0.46,-0.96 0.62,-0.84 0.73,-0.65 0.78,-0.4 0.77,-0.12 0.7,0.16 0.56,0.44 0.39,0.68 m 1.34,3.59 -1.33,-3.6 m 1.33,3.6 0.18,0.86 -0.04,0.98 -0.26,1.01 -0.46,0.96 -0.62,0.84 -0.73,0.65 -0.78,0.4 -0.77,0.12 -0.7,-0.16 -0.56,-0.44 -0.39,-0.68 m -0.01,0.01 -1.33,-3.6 m 116.17,-83.28 -0.67,0.21 -0.6,-0.12 -0.44,-0.44 -0.21,-0.69 0.05,-0.84 0.3,-0.85 0.51,-0.74 0.64,-0.52 m -0.01,0 2.58,-1.45 m 0.01,0 0.67,-0.21 0.6,0.12 0.44,0.44 0.21,0.69 -0.05,0.84 -0.3,0.85 -0.51,0.74 -0.64,0.52 m -2.58,1.45 2.58,-1.45 m -18.6,5.42 0.7,-0.26 h 0.66 l 0.57,0.27 0.42,0.51 0.24,0.7 0.03,0.84 -0.17,0.9 -0.36,0.88 -0.53,0.78 -0.64,0.61 -0.69,0.39 -0.69,0.13 -0.62,-0.14 -0.5,-0.39 -0.33,-0.61 -0.14,-0.78 0.07,-0.88 0.27,-0.9 0.45,-0.84 0.59,-0.7 0.67,-0.51 m -36.58,25.47 -0.67,0.21 -0.6,-0.12 -0.44,-0.44 -0.21,-0.69 0.05,-0.84 0.3,-0.85 0.51,-0.74 0.64,-0.52 m 0,0 2.59,-1.45 m -0.01,0.01 0.67,-0.21 0.6,0.12 0.44,0.44 0.21,0.69 -0.05,0.84 -0.3,0.85 -0.51,0.74 -0.64,0.52 m -2.58,1.44 2.58,-1.45 m -24.75,100.37 -0.53,-0.41 -0.36,-0.64 m 4.78,1.73 -0.58,0.28 -0.73,0.12 -0.66,-0.15 -0.53,-0.41 -0.36,-0.64 m 3.73,0.69 -0.13,0.04 -0.41,0.07 m -2.78,-1.07 -0.53,-0.41 -0.36,-0.64 m -5.66,-6.78 0.07,0.16 0.08,0.15 0.09,0.14 0.1,0.13 0.1,0.12 0.11,0.11 0.12,0.1 0.13,0.08 m -0.01,0.01 0.1,0.05 m 10.22,-1.24 0.18,0.49 m -1.96,8.6 h -0.29 l -0.28,-0.05 -0.26,-0.09 -0.24,-0.13 -0.21,-0.18 -0.19,-0.22 -0.16,-0.25 -0.13,-0.29 m -1.32,-3.59 -0.06,-0.17 -0.05,-0.18 -0.03,-0.19 -0.02,-0.2 -0.01,-0.2 v -0.21 l 0.01,-0.21 0.02,-0.21 m -0.01,0 0.19,-0.88 0.35,-0.86 0.49,-0.78 0.6,-0.64 0.66,-0.47 0.68,-0.26 0.65,-0.04 0.58,0.19 m 0.01,0.02 0.13,0.08 0.12,0.1 0.11,0.11 0.1,0.12 0.1,0.13 0.09,0.14 0.08,0.15 0.07,0.16 m -8.89,-8.87 -0.16,-0.02 h -0.29 m 0,0 -0.4,0.08 -0.41,0.16 -0.41,0.23 -0.39,0.31 -0.37,0.37 -0.34,0.42 -0.3,0.47 -0.25,0.5 m 0,0 -0.15,0.39 -0.12,0.39 -0.08,0.39 -0.05,0.39 -0.01,0.38 0.02,0.36 0.06,0.34 0.09,0.32 m 1.48,-0.33 -0.17,-0.81 0.04,-0.92 0.25,-0.95 0.44,-0.91 0.59,-0.79 0.69,-0.61 0.74,-0.38 0.73,-0.12 0.66,0.15 v 0 m 0.22,12.44 -0.17,-0.81 0.04,-0.92 0.25,-0.95 0.43,-0.91 0.59,-0.79 0.69,-0.61 0.74,-0.38 0.73,-0.12 0.66,0.15 v 0 m -1.38,-5.12 1.99,5.42 m -6.84,-1.14 -0.17,-0.81 0.04,-0.92 0.25,-0.95 0.43,-0.91 0.59,-0.79 0.69,-0.61 0.74,-0.38 0.73,-0.12 0.66,0.15 0.53,0.41 0.36,0.64 m 0.67,14.99 -0.84,-2.27 m 0,0 -0.49,-1.33 m -4.19,-7.1 2.27,6.17 m -4.19,-7.09 0.45,1.24 m -1.92,-0.92 0.84,2.27 m 0,0 0.49,1.33 m 1.92,0.92 2.3,6.24 m 1.44,-0.38 0.48,1.31 m 37.67,27.62 -0.35,0.37 -0.68,0.61 -0.58,0.4 -0.39,0.13 -0.14,-0.16 0.13,-0.42 0.39,-0.62 0.58,-0.73 0.68,-0.72 m -31.99,-33.99 0.01,0.01 0.01,0.01 m 31.97,34.14 -0.51,0.54 -0.43,0.55 -0.29,0.47 -0.1,0.32 0.1,0.12 0.29,-0.1 0.44,-0.3 0.51,-0.46 0.51,-0.54 0.43,-0.55 0.29,-0.47 0.1,-0.32 -0.1,-0.12 -0.29,0.1 -0.43,0.3 -0.52,0.46 m 143.83,-71.21 -1.92,-0.92 m -119.78,109.1 1.92,0.92 m 17.82,-202.6 -1.92,-0.92 m -121.6,104.17 1.92,0.92 m 41.39,34.02 1.92,0.92 m -0.48,-1.31 1.92,0.92 m -8.85,-9.53 0.11,0.11 0.08,0.18 m 1.08,1.54 1.3,0.63 m 9.29,-1.1 -0.1,-0.11 -0.08,-0.18 m -20.1,-18.64 -2.02,-1.77 -1.65,-1.26 -1.11,-0.66 -0.39,-0.15 -0.32,-0.06 -0.53,0.07 -0.53,0.28 -0.6,0.49 -0.6,0.59 m 0,-0.01 -0.03,0.03 -0.58,0.67 -0.45,0.64 -0.25,0.57 -0.03,0.55 0.09,0.33 0.18,0.39 0.74,1.08 1.36,1.55 1.88,1.86 m 23.85,11.92 -1.92,-0.92 m -2.27,-6.17 -1.92,-0.92 m -2.86,0.28 -10.04,-9.37 m -4.84,5.17 13.26,12.39 m 36.36,33.95 2.02,1.77 1.65,1.25 1.11,0.66 0.39,0.15 0.32,0.06 0.53,-0.07 0.53,-0.28 0.6,-0.49 0.6,-0.59 m -0.01,0.02 0.03,-0.03 0.58,-0.67 0.45,-0.64 0.25,-0.57 0.03,-0.55 -0.09,-0.33 -0.18,-0.39 -0.74,-1.08 -1.36,-1.55 -1.88,-1.86 m -32.32,-20.49 27.49,25.68 m 4.83,-5.18 -29.33,-27.4"
           class="st6"
           inkscape:connector-curvature="0"
           style="fill:none;stroke:#000000;stroke-width:0.70899999;stroke-linecap:round;stroke-linejoin:round;stroke-miterlimit:10;stroke-dasharray:18, 3.6, 3.6, 3.6, 3.6, 3.6;stroke-dashoffset:3" />
        <line
           id="line6540"
           y2="223.17999"
           x2="647.57001"
           y1="170.34"
           x1="591.01001"
           class="st11"
           style="fill:none;stroke:#000000;stroke-width:0.50999999;stroke-linecap:round;stroke-linejoin:round;stroke-miterlimit:10;stroke-dasharray:18, 3.6, 3.6, 3.6, 3.6, 3.6;stroke-dashoffset:6" />
        <line
           id="line6542"
           y2="129.25"
           x2="548.60999"
           y1="162.85001"
           x1="584.58002"
           class="st12"
           style="fill:none;stroke:#000000;stroke-width:0.50999999;stroke-linecap:round;stroke-linejoin:round;stroke-miterlimit:10;stroke-dasharray:18, 3.6, 3.6, 3.6, 3.6, 3.6;stroke-dashoffset:2" />
        <path
           id="path6544"
           d="m 733.79,327.81 2.57,-1.44 m 0,0 0.64,-0.52 0.51,-0.74 0.3,-0.85 0.05,-0.84 -0.01,-0.11 m 1.36,-5.33 -0.55,-0.2 -1,-0.11 -1.07,0.18 -1.09,0.47 m -17.68,19.12 0.69,-0.32 0.66,-0.56 0.56,-0.74 0.41,-0.86 0.22,-0.9 0.02,-0.86 m 0,0 -0.18,-0.71 m -39.01,24.76 2.57,-1.44 m 0,0 0.64,-0.52 0.51,-0.74 0.3,-0.85 0.05,-0.84 -0.02,-0.11 m 50.26,-34.42 -77.61,43.46 m 0,-0.01 -0.34,0.2 -0.33,0.23 -0.33,0.25 -0.32,0.27 -0.31,0.3 -0.3,0.32 -0.29,0.34 -0.28,0.35 m -37.75,60.95 0.32,0.7 0.42,0.59 0.5,0.48 0.54,0.33 m 4.43,-6.64 0.07,-0.05 m 3.94,-12.6 0.14,-0.09 0.58,-0.54 0.45,-0.72 0.26,-0.81 0.04,-0.79 m 0.01,0.01 -0.01,-0.11 m -11.69,20.24 -2.78,-7.55 m 40.53,-53.4 -21.57,28.7 m -0.01,0.01 -1.45,1.86 -1.51,1.78 -1.56,1.69 -1.61,1.6 -1.65,1.5 -1.69,1.4 -1.72,1.3 -1.74,1.18 m 0,-0.01 -0.68,0.47 -0.66,0.52 -0.65,0.57 -0.63,0.62 -0.6,0.67 -0.57,0.71 -0.54,0.75 -0.51,0.78 m 0,0.01 -0.49,0.9 -0.41,0.94 -0.31,0.96 -0.21,0.97 -0.1,0.95 0.01,0.92 0.12,0.86 0.22,0.79 m 16.39,-11.66 -0.19,-0.66 -0.4,-0.44 -0.55,-0.16 -0.62,0.14 -0.62,0.42 -0.53,0.64 -0.36,0.78 -0.15,0.81 0.08,0.73 0.3,0.56 0.48,0.31 0.6,0.01 0.63,-0.28 0.58,-0.54 0.45,-0.72 0.26,-0.81 0.04,-0.79 m 1.43,13.12 0.26,-0.69 m -8.74,9.85 1.34,-0.6 1.32,-0.82 1.27,-1.03 0.67,-0.64 m 13.21,-23.73 -1.39,1.93 -1.33,2 -1.26,2.06 -1.18,2.11 -1.1,2.16 -1.02,2.2 -0.94,2.24 -0.85,2.26 m 29.53,-44.18 -20.46,27.22 m 96.69,-69.9 -76.23,42.68 m 76.23,-42.68 1.06,-0.73 0.99,-0.97 0.87,-1.16 0.71,-1.3 0.53,-1.38 0.32,-1.4 0.09,-1.36 -0.13,-1.26 -0.36,-1.11 -0.56,-0.91 -0.74,-0.67 -0.89,-0.4 -1,-0.11 -1.07,0.19 -1.09,0.47 m -0.02,0.01 -77.61,43.46 m 0,0 -0.34,0.2 -0.33,0.23 -0.33,0.25 -0.32,0.27 -0.31,0.3 -0.3,0.32 -0.29,0.34 -0.28,0.35 m 0,-0.01 -21.57,28.7 m -12.94,12.31 1.74,-1.18 1.72,-1.3 1.69,-1.4 1.65,-1.5 1.61,-1.6 1.56,-1.69 1.51,-1.78 1.45,-1.86 m -12.93,12.31 -0.68,0.47 -0.66,0.52 -0.65,0.58 -0.62,0.62 -0.6,0.67 -0.57,0.71 -0.54,0.75 -0.51,0.78 m -1.19,7.29 -0.22,-0.79 -0.12,-0.86 -0.01,-0.92 0.1,-0.95 0.21,-0.97 0.31,-0.96 0.41,-0.94 0.49,-0.9 m 1.61,14.84 -2.78,-7.55 m 7.43,9.7 -0.75,0.2 -0.73,0.06 -0.69,-0.08 -0.64,-0.22 -0.58,-0.35 -0.51,-0.48 -0.42,-0.59 -0.32,-0.7 m 3.1,-5.35 0.39,0.68 0.56,0.44 0.7,0.16 0.77,-0.12 0.17,-0.06 m -3.92,-4.7 1.33,3.6 m 3.82,-8.15 -0.39,-0.68 -0.56,-0.44 -0.7,-0.16 -0.77,0.12 -0.78,0.4 -0.73,0.65 -0.62,0.84 -0.46,0.96 -0.26,1.01 -0.04,0.98 0.18,0.86 m 5.13,-4.54 0.39,1.07 m 95.42,-79.35 -0.19,-0.74 -0.38,-0.56 -0.53,-0.33 -0.64,-0.07 -0.69,0.2 -0.68,0.45 -0.61,0.66 -0.49,0.81 -0.32,0.89 -0.12,0.89 0.09,0.81 0.29,0.66 0.46,0.45 0.6,0.2 0.68,-0.07 0.7,-0.33 0.66,-0.56 0.56,-0.74 0.41,-0.86 0.22,-0.9 -0.02,-0.86 m 15.98,-6.83 0.64,-0.52 0.51,-0.74 0.3,-0.85 0.05,-0.84 -0.21,-0.69 -0.44,-0.44 -0.6,-0.12 -0.67,0.21 m -2.17,5.44 2.59,-1.45 m -3.01,-2.54 -0.64,0.52 -0.51,0.74 -0.3,0.85 -0.05,0.84 0.21,0.69 0.44,0.44 0.6,0.12 0.67,-0.21 m -0.42,-3.99 2.59,-1.45 m -52.18,33.44 0.64,-0.52 0.51,-0.74 0.3,-0.85 0.05,-0.84 -0.21,-0.69 -0.44,-0.44 -0.6,-0.12 -0.67,0.21 m -2.16,5.43 2.59,-1.45 m -3.02,-2.54 -0.64,0.52 -0.51,0.74 -0.3,0.85 -0.05,0.84 0.21,0.69 0.44,0.44 0.6,0.12 0.67,-0.21 m -0.42,-3.99 2.58,-1.45 m 46.41,-36.25 1.09,-0.47 1.07,-0.18 1,0.11 0.55,0.2 m -3.71,0.34 -77.62,43.46 m -2.02,1.66 0.23,-0.26 0.24,-0.24 0.25,-0.23 0.25,-0.22 0.26,-0.2 0.26,-0.19 0.26,-0.17 0.27,-0.16 m -42.06,58.28 0.32,0.7 0.42,0.59 0.51,0.48 0.54,0.33 m 15.96,-33.39 22.29,-25.31 m -42.81,49.04 2.78,7.55 m 17.74,-31.28 -1.56,1.7 -1.61,1.61 -1.65,1.51 -1.68,1.41 -1.71,1.3 -1.74,1.19 -1.76,1.08 -1.77,0.96 m -5.87,5.68 0.61,-0.93 0.65,-0.88 0.7,-0.82 0.73,-0.76 0.76,-0.69 0.79,-0.62 0.8,-0.54 0.82,-0.46 m -5.86,5.7 -0.49,0.9 -0.41,0.94 -0.31,0.96 -0.21,0.97 -0.1,0.95 0.01,0.92 0.12,0.86 0.22,0.79 m 124.37,-93.25 1.09,-0.47 1.07,-0.18 1,0.11 0.89,0.4 0.54,0.43 m -4.59,-0.29 -77.61,43.46 m -2.03,1.67 0.23,-0.26 0.24,-0.24 0.25,-0.23 0.25,-0.22 0.26,-0.2 0.26,-0.19 0.26,-0.17 0.27,-0.16 m -24.31,26.98 22.29,-25.31 m -35.78,36.07 1.77,-0.96 1.76,-1.08 1.74,-1.19 1.72,-1.3 1.68,-1.41 1.65,-1.51 1.61,-1.61 1.56,-1.7 m -19.35,16.44 0.61,-0.92 0.66,-0.88 0.7,-0.82 0.73,-0.76 0.76,-0.69 0.79,-0.62 0.8,-0.54 0.82,-0.46 m -7.04,12.99 -0.22,-0.79 -0.12,-0.86 -0.01,-0.92 0.1,-0.95 0.21,-0.97 0.31,-0.96 0.41,-0.94 0.49,-0.9 m -1.17,7.29 2.78,7.55 m 2.43,2.32 -0.61,-0.21 -0.58,-0.35 -0.51,-0.48 -0.42,-0.59 -0.32,-0.7 m 1.79,-8.96 -0.18,-0.86 -0.01,-0.17 m 0.32,1.39 -0.13,-0.36 m 119.49,-85.37 -0.11,0.13 -0.55,0.47 m -51.93,28.84 -0.11,0.13 -0.55,0.47 m -56.82,66.67 -0.13,0.04 -0.4,0.07 m 1.76,-9.09 0.18,0.49 m -1.95,8.6 h -0.29 l -0.28,-0.05 -0.26,-0.09 -0.24,-0.13 -0.22,-0.18 -0.19,-0.22 -0.16,-0.25 -0.13,-0.29 m -1.31,-3.59 -0.06,-0.17 -0.05,-0.18 -0.03,-0.19 -0.02,-0.2 -0.01,-0.2 v -0.21 l 0.01,-0.21 0.02,-0.21 m -0.01,0 0.19,-0.88 0.35,-0.85 0.49,-0.78 0.6,-0.64 0.66,-0.47 0.68,-0.26 0.65,-0.03 0.58,0.19 m 0.01,0 0.13,0.08 0.12,0.1 0.11,0.11 0.11,0.12 0.1,0.13 0.09,0.14 0.08,0.15 0.07,0.16 m -10.98,-3.71 -0.17,-0.81 0.04,-0.92 0.25,-0.95 0.44,-0.91 0.59,-0.79 0.69,-0.61 0.74,-0.38 0.73,-0.12 0.66,0.15 v 0 m -2.23,5.11 0.05,-0.59 0.25,-0.95 0.43,-0.91 0.59,-0.79 0.69,-0.61 0.74,-0.38 0.73,-0.12 0.66,0.15 0.32,0.2 m 1.23,15.84 -0.84,-2.27 m 0.01,0 -0.49,-1.33 m -6.11,-8.01 0.46,1.24 m 43.21,38.38 -0.35,0.37 -0.68,0.61 -0.58,0.4 -0.39,0.13 -0.14,-0.16 0.13,-0.42 0.39,-0.62 0.58,-0.73 0.68,-0.72 m -31.99,-33.99 0.01,0.01 0.01,0.01 m 31.97,34.14 -0.51,0.54 -0.43,0.55 -0.29,0.47 -0.1,0.32 0.1,0.12 0.29,-0.1 0.44,-0.3 0.51,-0.46 0.51,-0.54 0.43,-0.55 0.29,-0.47 0.1,-0.32 -0.1,-0.12 -0.29,0.1 -0.43,0.3 -0.52,0.46 m -70.27,-62.78 -0.07,-0.47 -0.05,-0.25 -0.07,-0.25 -0.18,-0.54 m -0.42,3.62 0.26,-0.55 0.53,-1.56 m -3.45,4.49 0.12,-0.03 0.69,-0.21 0.59,-0.26 m 0,0.01 0.36,-0.46 0.9,-1.43 m 0.41,-3.63 -0.05,-0.12 -0.35,-0.79 -0.45,-0.83 m -4.09,8.02 0.97,-0.1 0.9,-0.16 m 1.24,-3.16 -0.39,0.56 -0.48,0.39 -0.51,0.16 -0.45,-0.1 -0.33,-0.34 -0.16,-0.52 0.04,-0.64 0.23,-0.65 0.39,-0.56 0.48,-0.39 0.51,-0.16 0.45,0.1 0.33,0.34 0.16,0.53 -0.04,0.63 -0.23,0.65 m 0.07,-2.4 0.35,0.28 0.24,0.53 0.04,0.68 -0.17,0.74 -0.36,0.7 -0.49,0.56 -0.57,0.34 -0.56,0.09 -0.32,-0.09 m 2.75,-6.02 -1.59,-0.76 m 0,-0.01 -0.97,0.1 -0.9,0.16 m 0,0.01 -0.11,0.03 -0.69,0.21 -0.6,0.25 m 4.86,0.01 -0.63,0.27 -0.77,0.22 m 0,0 -0.12,0.03 -0.83,0.14 -0.92,0.1 m -3.64,3.23 0.16,-0.55 0.63,-1.56 m 2.06,0.99 0.14,-0.27 0.12,-0.28 0.29,-0.77 0.24,-0.79 m 0,-0.01 -1.59,-0.77 m -1.26,1.9 0.3,-0.54 0.96,-1.35 m -0.46,4.77 0.36,-0.46 0.9,-1.43 m 1.02,0.57 -0.27,0.73 -0.07,0.72 0.15,0.62 0.34,0.43 0.48,0.18 0.56,-0.09 0.57,-0.35 0.49,-0.56 0.36,-0.7 0.17,-0.74 -0.04,-0.68 -0.25,-0.53 -0.42,-0.31 -0.53,-0.05 -0.57,0.22 -0.54,0.46 -0.43,0.65 m -1.02,-0.57 0.25,-0.44 0.28,-0.41 0.32,-0.38 0.34,-0.33 0.36,-0.29 0.37,-0.23 0.37,-0.18 0.37,-0.12 m -2.66,2.38 -0.21,0.46 -0.17,0.48 -0.12,0.48 -0.08,0.48 -0.03,0.47 0.02,0.45 0.07,0.42 0.12,0.39 m -0.01,0 0.16,0.35 0.2,0.3 0.24,0.25 0.28,0.19 0.31,0.13 0.33,0.07 0.35,0.01 0.37,-0.05 m 0.01,-0.01 0.37,-0.12 0.37,-0.18 0.37,-0.23 0.36,-0.29 0.34,-0.33 0.31,-0.38 0.28,-0.41 0.25,-0.44 m 0.01,0 0.21,-0.46 0.17,-0.48 0.13,-0.48 0.08,-0.48 0.03,-0.47 -0.02,-0.45 -0.07,-0.42 -0.12,-0.39 m 0,0 -0.16,-0.35 -0.2,-0.3 -0.24,-0.25 -0.28,-0.19 -0.31,-0.13 -0.33,-0.07 -0.35,-0.01 -0.37,0.05 m -3.93,4.28 -1.59,-0.77 m 0,0 0.13,0.71 0.25,0.8 m 0,0 0.04,0.12 0.36,0.79 0.45,0.83 m 1.59,0.77 -1.59,-0.76 m 1.21,-0.75 0.04,0.11 0.21,0.72 0.12,0.68 m -1.22,-3.25 0.47,0.88 0.38,0.86 m 78.19,32.94 -0.14,0.16 -0.36,0.56 -0.2,0.64 -0.02,0.14 m 12.61,3.66 -0.13,0.77 m 0,0 -0.13,0.77 m 0,0 -0.57,0.46 m -0.01,-0.01 -0.42,0.34 m 1,-0.79 1,0.48 m -0.87,-1.25 0.02,-0.17 v -0.17 l -0.02,-0.16 -0.03,-0.15 -0.02,-0.05 m -1.11,2.15 0.05,-0.01 0.14,-0.05 0.14,-0.07 0.13,-0.09 m -0.01,-0.01 0.13,-0.11 0.12,-0.13 0.11,-0.14 0.1,-0.15 0.09,-0.17 0.07,-0.17 0.05,-0.17 0.04,-0.17 m -10.02,-6.55 -0.45,-0.09 -0.57,0.15 -0.56,0.4 -0.47,0.6 -0.32,0.71 -0.12,0.73 0.09,0.66 0.29,0.49 0.27,0.19 m 11.95,1.9 0.04,0.03 m 0,0 1,0.48 m 0,0 -0.26,1.54 m 0,0 -1.15,0.91 m 0,0 -0.89,-0.63 m 0,0 0.26,-1.54 m 0,0 1.15,-0.91 m 0,0 0.89,0.63 m -0.99,-3.49 -0.53,-0.16 -0.78,0.04 -0.81,0.32 -0.78,0.57 -0.7,0.79 -0.56,0.94 -0.38,1.03 -0.17,1.03 0.05,0.97 0.26,0.83 0.46,0.63 0.45,0.31 m 4.88,-5.92 -0.33,-0.62 -0.54,-0.51 -0.69,-0.24 -0.78,0.04 -0.81,0.32 -0.78,0.57 -0.7,0.79 -0.56,0.94 -0.38,1.03 -0.17,1.04 0.05,0.97 0.26,0.83 0.46,0.63 0.62,0.38 0.74,0.1 0.67,-0.13 m 2.84,-3.32 0.01,-0.71 -0.21,-0.57 -0.4,-0.35 -0.53,-0.07 -0.58,0.22 -0.54,0.48 -0.42,0.66 -0.23,0.74 -0.01,0.71 0.21,0.57 0.4,0.35 0.53,0.07 0.58,-0.22 0.54,-0.48 0.42,-0.66 0.23,-0.74 m -93.84,-51.41 0.38,-0.35 0.38,-0.41 0.31,-0.4 0.2,-0.34 0.06,-0.22 -0.09,-0.07 -0.23,0.09 -0.33,0.24 -0.38,0.35 -0.38,0.4 -0.31,0.4 -0.2,0.34 -0.06,0.22 0.09,0.07 0.23,-0.09 0.33,-0.23 m -88.81,-85.94 -0.07,-0.02 -0.23,0.09 -0.33,0.24 -0.38,0.35 -0.38,0.4 -0.31,0.4 -0.2,0.34 -0.06,0.22 0.02,0.05 m 251.62,26.97 -1.92,-0.92 m -119.78,109.1 1.92,0.92 m 115.94,-110.95 -1.92,-0.92 m -121.6,104.18 1.92,0.92 m 7.28,-0.12 0.74,0.36 m 3.01,-8.17 -0.1,-0.11 -0.08,-0.18 m -20.1,-18.65 -2.02,-1.78 -1.65,-1.25 -1.11,-0.66 -0.39,-0.15 -0.32,-0.06 -0.53,0.07 -0.53,0.28 -0.6,0.49 -0.6,0.59 m 0,0 -0.03,0.03 -0.58,0.67 -0.45,0.64 -0.25,0.57 -0.03,0.55 0.09,0.33 0.18,0.39 0.74,1.08 1.36,1.55 1.88,1.86 m 23.85,11.91 -0.74,-0.36 m -3.45,-6.73 -1.92,-0.92 m -6.57,-3.18 -6.34,-5.92 m -4.83,5.18 7.48,6.99 m 42.13,39.36 2.02,1.78 1.65,1.26 1.11,0.66 0.39,0.15 0.32,0.06 0.53,-0.07 0.53,-0.28 0.6,-0.49 0.6,-0.59 m 0,-0.01 0.03,-0.03 0.58,-0.67 0.45,-0.64 0.25,-0.57 0.03,-0.55 -0.09,-0.32 -0.18,-0.39 -0.74,-1.08 -1.36,-1.55 -1.88,-1.86 m -32.33,-20.49 27.49,25.68 m 4.84,-5.18 -29.33,-27.4 m -47.51,-30.88 -0.23,0.5 -0.27,0.96 -0.06,0.98 0.17,0.94 0.35,0.71 0.51,0.55 0.43,0.23 m 3.38,-6.98 -0.67,-0.22 h -0.76 l -0.75,0.22 -0.74,0.44 -0.68,0.64 -0.55,0.77 -0.14,0.25 m 5.28,-1.64 -0.99,-0.47 m -3.36,7.03 0.9,0.43 m 79.17,34.58 -0.02,0.2 m 0.88,-1.84 -0.15,0.14 m -0.1,3.23 7.3,3.5 m 1.83,-3.83 -7.3,-3.5 m 6.68,10.04 0.36,0.18 m 3.5,-7.29 -0.36,-0.17 m 1.6,3.79 0.04,-0.3 0.02,-0.3 v -0.31 l -0.02,-0.3 -0.04,-0.3 -0.06,-0.3 -0.08,-0.3 -0.09,-0.29 m -2.93,6.11 0.59,-0.25 0.55,-0.32 0.5,-0.39 0.45,-0.46 0.38,-0.51 0.31,-0.56 0.23,-0.6 0.15,-0.62 m -92.86,-52.76 -90.11,-84.17 m -1.94,2.07 90.11,84.17"
           class="st6"
           inkscape:connector-curvature="0"
           style="fill:none;stroke:#000000;stroke-width:0.70899999;stroke-linecap:round;stroke-linejoin:round;stroke-miterlimit:10;stroke-dasharray:18, 3.6, 3.6, 3.6, 3.6, 3.6;stroke-dashoffset:3" />
        <line
           id="line6546"
           y2="375.07999"
           x2="580.59998"
           y1="392.01001"
           x1="598.71997"
           class="st13"
           style="fill:none;stroke:#000000;stroke-width:0.50999999;stroke-linecap:round;stroke-linejoin:round;stroke-miterlimit:10;stroke-dasharray:18, 3.6, 3.6, 3.6, 3.6, 3.6;stroke-dashoffset:14" />
        <line
           id="line6548"
           y2="421.54999"
           x2="660.42999"
           y1="406.07001"
           x1="628.15997"
           class="st14"
           style="fill:none;stroke:#000000;stroke-width:0.50999999;stroke-linecap:round;stroke-linejoin:round;stroke-miterlimit:10;stroke-dasharray:18, 3.6, 3.6, 3.6, 3.6, 3.6;stroke-dashoffset:9" />
        <line
           id="line6550"
           y2="396.98999"
           x2="609.23999"
           y1="399.23999"
           x1="613.90997"
           class="st8"
           style="fill:none;stroke:#000000;stroke-width:0.50999999;stroke-linecap:round;stroke-linejoin:round;stroke-miterlimit:10;stroke-dasharray:18, 3.6, 3.6, 3.6, 3.6, 3.6;stroke-dashoffset:15" />
        <line
           id="line6552"
           y2="384.95001"
           x2="584.14001"
           y1="391.95999"
           x1="598.75"
           class="st8"
           style="fill:none;stroke:#000000;stroke-width:0.50999999;stroke-linecap:round;stroke-linejoin:round;stroke-miterlimit:10;stroke-dasharray:18, 3.6, 3.6, 3.6, 3.6, 3.6;stroke-dashoffset:15" />
        <path
           id="path6554"
           d="m 164.63,489.59 v 0.02 0.04 0.08 0.1 0.13 0.16 0.19 0.22 m -2.83,-0.94 v 0.02 0.04 0.08 0.1 0.13 0.16 0.19 0.22 m 0,-0.94 h 2.83 m 0,0.95 v 18.4 m -2.83,-18.4 v 18.4 m 2.83,4.15 v -0.29 -0.77 -0.9 -1.03 -1.15 m -2.83,-0.01 v 1.15 1.03 0.9 0.77 0.64 0.51 0.37 0.23 m 2.83,25.31 v 0.15 0.02 m -2.83,-0.17 v 0.15 0.02 m 2.83,-0.17 v -0.24 -0.38 -0.52 -0.64 -0.75 -0.84 -0.92 -0.97 m -2.83,0.01 v 0.97 0.92 0.84 0.75 0.64 0.52 0.38 0.24 m 2.83,-23.74 v 0.02 0.49 0.55 m -2.83,-2.64 v 0.1 0.17 0.24 0.3 0.37 0.43 0.49 0.55 m 2.83,17.41 v -10.07 m -2.83,10.07 v -10.07 m 2.83,0 v -1.01 -1.03 -1.02 -0.99 -0.94 -0.88 -0.79 -0.69 m -2.83,0.01 v 0.69 0.79 0.88 0.94 0.99 1.02 1.03 1.01 m 5.67,-34.35 v -0.14 -0.12 -0.1 -0.08 -0.07 -0.05 -0.03 -0.01 m 2.83,0.6 v -0.14 -0.12 -0.1 -0.08 -0.07 -0.05 -0.03 -0.01 m 0,0 h -2.83 m 0,14.8 v -14.2 m 2.83,14.2 v -14.2 m -2.83,14.2 v 0.91 0.78 0.65 0.52 0.38 0.24 0.06 m 2.83,0 v -0.06 -0.24 -0.38 -0.52 -0.65 -0.78 -0.91 m -2.83,29.05 v -0.01 -0.16 m 2.83,0.17 v -0.01 -0.16 m -2.83,-5.25 v 0.97 0.92 0.84 0.75 0.64 0.52 0.38 0.24 m 2.83,-0.01 v -0.24 -0.38 -0.52 -0.64 -0.75 -0.84 -0.92 -0.97 m -2.83,-17.41 v -0.65 -0.56 -0.48 -0.39 -0.29 -0.2 -0.1 -0.01 m 2.83,2.68 v -0.65 -0.56 -0.48 -0.39 -0.29 -0.2 -0.1 -0.01 m -2.83,10.02 v 10.07 m 2.83,-10.07 v 10.07 m 0,-10.07 v -1.01 -1.03 -1.02 -0.99 -0.94 -0.88 -0.79 -0.69 m -2.83,0.01 v 0.69 0.79 0.88 0.94 0.99 1.02 1.03 1.01 m 0,15.49 v 0.17 0.53 0.41 0.27 0.13 0.01 m -2.84,-21.87 v 0.04 0.18 0.33 0.46 0.57 0.65 0.71 0.09 m 26.49,-9.5 -0.13,-0.15 -0.18,-0.16 -0.1,-0.03 -0.02,0.1 0.06,0.23 0.14,0.33 0.21,0.41 0.26,0.45 0.29,0.46 0.29,0.43 0.28,0.37 0.24,0.27 0.18,0.16 0.1,0.03 m 0,0.01 0.02,-0.1 -0.06,-0.23 -0.07,-0.18 m 0.08,-0.05 0.18,0.35 0.2,0.53 -0.01,0.23 m -19.94,5.28 -0.14,-0.29 m -2.35,0 H 173 m -2.69,1.05 0.1,-0.52 0.24,-0.52 m 6.03,6.43 v 0.36 0.31 0.16 0.02 m -4.1,1.71 H 173 m 0,0 0.17,-0.37 m -13.71,-2.11 v -0.02 -0.16 -0.31 -0.44 -0.52 -0.57 m 0,0 v -0.57 -0.52 -0.43 -0.31 -0.16 -0.02 m 1.8,5.23 v -0.36 -0.61 -0.7 -0.76 -0.79 m 0,0 v -0.79 -0.76 -0.7 -0.61 -0.5 -0.37 -0.23 -0.08 m 49.09,-17.61 -0.01,-0.12 -0.09,-0.24 -0.16,-0.33 -0.21,-0.38 -0.25,-0.4 -0.25,-0.36 -0.23,-0.3 -0.18,-0.19 -0.12,-0.07 -0.04,0.06 0.05,0.18 0.13,0.29 0.19,0.36 0.23,0.39 0.25,0.39 0.24,0.33 0.21,0.25 0.15,0.13 0.09,0.01 m -107.49,63.93 -0.02,0.06 0.05,0.18 0.13,0.29 0.19,0.36 0.23,0.4 0.25,0.39 0.24,0.34 0.21,0.25 0.15,0.13 0.07,0.02 m 57.44,-24.25 h 2.83 m 2.84,-6.58 h 2.83 m 0,-25.51 h -2.83 m -41.92,37.21 -1.31,0.85 -1.16,0.81 -0.94,0.7 -0.7,0.57 -0.56,0.5 -0.44,0.46 -0.22,0.3 -0.06,0.12 -0.04,0.11 -0.01,0.22 0.09,0.3 0.16,0.39 0.22,0.44 0.26,0.47 0.29,0.48 0.18,0.28 m -0.03,0.02 0.13,0.21 0.32,0.47 0.31,0.43 0.28,0.35 0.45,0.4 0.2,0.08 0.21,0.02 0.12,-0.01 0.14,-0.03 0.37,-0.1 0.51,-0.18 0.69,-0.29 1.2,-0.58 1.47,-0.8 1.61,-0.96 m 32.51,-18.05 -0.04,-0.33 -0.13,-0.31 -0.2,-0.26 -0.26,-0.2 -0.31,-0.13 -0.33,-0.04 -0.33,0.04 -0.31,0.13 m 4.74,2.94 h 2.84 m 3.48,-9.87 -0.14,0.09 -0.13,0.11 -0.11,0.13 -0.09,0.14 -0.07,0.15 -0.05,0.16 -0.03,0.16 -0.01,0.17 m -9.16,-3.34 0.14,-0.09 0.13,-0.11 0.11,-0.13 0.09,-0.14 0.07,-0.15 0.05,-0.16 0.03,-0.16 0.01,-0.17 m -0.59,1.08 -35.65,22.31 m 3.76,6.01 30.54,-19.11 m 7.62,-18.95 h -2.84 m 6.27,12.03 16.75,-10.48 m -3.75,-6.01 -11.64,7.28 m 15.39,-1.27 1.31,-0.85 1.16,-0.81 0.94,-0.71 0.7,-0.57 0.56,-0.5 0.44,-0.46 0.22,-0.3 0.06,-0.12 0.04,-0.11 v -0.23 l -0.09,-0.3 -0.16,-0.39 -0.16,-0.32 m -2.23,-3.19 -0.02,-0.02 -0.2,-0.08 -0.21,-0.02 -0.12,0.01 -0.15,0.03 -0.37,0.1 -0.51,0.18 -0.69,0.29 -1.2,0.58 -1.47,0.8 -1.61,0.96 m -10.73,6.74 -0.16,-0.28 m -2.35,0 -0.35,0.6 m 2.7,8.4 0.24,-0.42 m 0.3,-0.18 h 2.03 m 0,0 0.22,-0.02 0.21,-0.06 0.19,-0.1 0.17,-0.14 0.14,-0.17 0.1,-0.19 0.06,-0.21 0.02,-0.22 m -15.42,-6.83 -0.29,0.19 -0.27,0.21 -0.26,0.23 -0.24,0.25 -0.22,0.26 -0.2,0.28 -0.18,0.29 -0.16,0.3 m 0.02,4.05 0.16,0.3 0.18,0.29 0.2,0.28 0.22,0.26 0.24,0.25 0.21,0.19 m 1.13,-7.63 h -0.54 m -40.76,35.28 -17.65,11.04 m 105.99,-66.32 -18.01,11.27 m 1.51,2.4 18.01,-11.27 M 104.36,564.25 122,553.21"
           class="st6"
           inkscape:connector-curvature="0"
           style="fill:none;stroke:#000000;stroke-width:0.70899999;stroke-linecap:round;stroke-linejoin:round;stroke-miterlimit:10;stroke-dasharray:18, 3.6, 3.6, 3.6, 3.6, 3.6;stroke-dashoffset:3" />
        <path
           id="path6556"
           d="m 627.88,483.99 v 0.02 0.05 0.08 0.11 0.13 0.16 0.19 0.22 m -2.83,-0.96 v 0.02 0.05 0.08 0.11 0.13 0.16 0.19 0.22 m 0,-0.96 h 2.83 m 0,0.95 v 18.4 m -2.83,-18.4 v 18.4 m 2.83,5.6 v -0.23 -0.37 -0.51 -0.64 -0.77 -0.9 -1.03 -1.15 m -2.83,0 v 1.15 1.03 0.9 0.77 0.29 m 2.83,26.77 v 0.16 0.01 m -2.83,-0.17 v 0.16 0.01 m 2.83,-0.17 v -0.24 -0.38 -0.52 -0.64 -0.75 -0.84 -0.92 -0.96 m -2.83,0 v 0.97 0.92 0.84 0.75 0.64 0.52 0.38 0.24 m 2.83,-25.32 v 0.1 0.17 0.23 0.3 0.37 0.43 0.49 0.55 m -2.83,-1.06 v 0.02 0.49 0.55 M 627.88,529 V 518.92 M 625.05,529 v -10.08 m 2.83,0.01 v -1.01 -1.03 -1.02 -0.99 -0.94 -0.88 -0.79 -0.68 m -2.83,0 v 0.68 0.79 0.88 0.94 0.99 1.02 1.03 1.01 m -5.67,-34.34 v -0.14 -0.12 -0.1 -0.09 -0.07 -0.05 -0.02 -0.01 m 2.83,0.6 v -0.14 -0.12 -0.1 -0.09 -0.07 -0.05 -0.02 -0.01 m 0,0 h -2.83 m 0,14.8 v -14.2 m 2.83,14.2 v -14.2 m -2.83,14.2 v 0.91 0.78 0.65 0.52 0.38 0.24 0.06 m 2.83,0 v -0.06 -0.24 -0.38 -0.52 -0.65 -0.78 -0.91 m -2.83,29.05 v 0 -0.17 m 2.83,0.17 v 0 -0.17 m -2.83,-5.25 v 0.97 0.92 0.84 0.75 0.64 0.52 0.38 0.24 m 2.83,-0.01 v -0.24 -0.38 -0.52 -0.64 -0.75 -0.84 -0.92 -0.97 M 619.38,505 v -0.65 -0.56 -0.48 -0.39 -0.29 -0.2 -0.1 -0.01 m 2.83,2.68 v -0.65 -0.56 -0.48 -0.39 -0.29 -0.2 -0.1 -0.01 m -2.83,10.02 v 10.07 m 2.83,-10.07 v 10.07 m 0,-10.07 v -1.01 -1.03 -1.02 -0.99 -0.94 -0.88 -0.79 -0.68 m -2.83,0 v 0.69 0.79 0.88 0.94 0.99 1.02 1.03 1.01 m 2.83,17.01 v -0.02 -0.2 -0.39 -0.56 -0.34 m 2.84,-17.33 v -0.32 -0.8 -0.71 -0.57 -0.4 -0.21 -0.03 m -28.45,-3.27 0.21,-0.55 0.15,-0.3 m 0.1,0.06 v 0 l -0.12,0.32 m 0,0 -0.02,0.17 0.08,0.02 0.18,-0.14 0.25,-0.29 0.3,-0.4 0.32,-0.48 0.31,-0.51 0.27,-0.49 0.2,-0.42 0.12,-0.31 0.02,-0.17 -0.08,-0.02 -0.18,0.14 -0.16,0.18 m 18,8.75 0.13,-0.15 m 2.53,0.2 -0.18,-0.2 m -2.61,8.39 0.01,0.04 0.24,0.28 m 0.2,0 h -0.19 m 2.46,-8.4 -0.11,-0.32 m 0,0.01 h -2.35 m -0.05,0.19 0.05,-0.2 m -3.68,7.15 v 0 -0.1 -0.28 -0.45 -0.03 m 15.42,-5.97 v 0 0.13 0.31 0.48 0.62 0.74 0.82 0.87 0.87 0.83 0.76 0.64 0.18 m 1.8,-5.23 v 0.08 0.27 0.43 0.56 0.62 0.63 0.57 0.46 0.3 0.12 0 m 56.61,40.26 0.02,0.06 -0.06,0.22 -0.16,0.34 -0.23,0.42 -0.27,0.44 -0.28,0.4 -0.25,0.31 -0.18,0.17 -0.08,0.02 m -106.01,-66.31 0.01,-0.15 0.11,-0.29 0.2,-0.39 0.26,-0.44 0.28,-0.43 0.27,-0.36 0.22,-0.24 0.14,-0.1 0.04,0.07 -0.07,0.22 -0.16,0.35 -0.23,0.42 -0.28,0.44 -0.28,0.4 -0.25,0.31 -0.18,0.17 -0.08,0.02 m 45.72,42.1 h 2.83 m -8.5,-6.58 h 2.83 m 0,-25.51 h -2.83 m 41,43.22 1.87,1.11 1.63,0.87 1.22,0.56 0.63,0.24 0.43,0.13 0.28,0.06 0.1,0.01 h 0.08 l 0.07,-0.01 0.22,-0.08 0.41,-0.39 0.52,-0.65 0.53,-0.79 0.12,-0.2 m 0,0 0.39,-0.64 0.42,-0.79 0.21,-0.52 0.03,-0.2 m 0.01,-0.01 0.02,-0.11 -0.03,-0.17 -0.11,-0.23 -0.24,-0.33 -0.44,-0.46 -1.02,-0.89 -1.58,-1.18 -2,-1.33 m -34.36,-13.14 -0.31,-0.13 -0.33,-0.04 -0.33,0.04 -0.31,0.13 -0.26,0.2 -0.2,0.26 -0.13,0.31 -0.04,0.33 m -5.67,1.85 h 2.84 m -5.67,-8.76 -0.01,-0.17 -0.03,-0.16 -0.05,-0.16 -0.07,-0.15 -0.09,-0.14 -0.11,-0.13 -0.12,-0.11 -0.14,-0.09 m 9.12,-3.34 0.01,0.17 0.03,0.16 0.05,0.16 0.07,0.15 0.09,0.14 0.11,0.13 0.13,0.11 0.14,0.09 m -11.04,-6.92 0.31,0.12 0.33,0.04 0.33,-0.05 0.31,-0.13 0.26,-0.2 0.2,-0.26 0.13,-0.31 0.04,-0.33 m 5.67,-1.73 h -2.84 m 7.63,18.95 30.54,19.11 m 3.76,-6.01 -35.66,-22.31 m -22.69,-14.2 -1.87,-1.11 -1.63,-0.87 -1.22,-0.56 -0.63,-0.24 -0.43,-0.13 -0.28,-0.06 -0.1,-0.01 h -0.08 l -0.07,0.01 -0.22,0.08 -0.06,0.06 m -2.58,4.13 -0.02,0.11 0.03,0.18 0.11,0.23 0.24,0.33 0.44,0.46 1.02,0.89 1.58,1.18 2,1.33 m 15.41,1.27 -11.64,-7.28 m -3.76,6.01 16.75,10.48 m 0.6,-9.45 -0.09,-0.15 m -5.18,7.95 h 2.03 m -3.14,-1.11 0.02,0.22 0.06,0.21 0.1,0.19 0.14,0.17 0.17,0.14 0.19,0.1 0.21,0.06 0.22,0.02 m 14.31,-7.94 h -0.54 m 1.14,7.64 0.21,-0.19 0.24,-0.25 0.22,-0.27 0.2,-0.28 0.18,-0.29 0.16,-0.3 m -0.01,-4.04 -0.16,-0.3 -0.18,-0.29 -0.2,-0.28 -0.22,-0.26 -0.24,-0.25 -0.25,-0.23 -0.27,-0.21 -0.28,-0.19 m -29.57,-8.74 -18.01,-11.27 m 105.99,66.32 -17.63,-11.03 m -1.53,2.39 17.65,11.04 m -105.98,-66.32 18.01,11.27"
           class="st6"
           inkscape:connector-curvature="0"
           style="fill:none;stroke:#000000;stroke-width:0.70899999;stroke-linecap:round;stroke-linejoin:round;stroke-miterlimit:10;stroke-dasharray:18, 3.6, 3.6, 3.6, 3.6, 3.6;stroke-dashoffset:3" />
        <path
           id="path6558"
           d="m 327.05,140.95 -0.9,0.96 -0.99,0.87 -1.08,0.76 -1.15,0.64 -1.21,0.52 -1.26,0.39 -1.29,0.26 -1.31,0.12 -1.32,-0.01 -1.31,-0.15 m 27.24,-15.9 -2.19,1.04 -2.13,1.16 -2.06,1.28 -1.98,1.4 -1.9,1.51 -1.81,1.62 -1.72,1.72 -1.62,1.81 m 15.41,-11.54 30.96,-13.6 m 104.9,0 h -104.9 m 104.9,-14.17 0.96,0.07 0.95,0.2 0.91,0.32 0.86,0.45 0.79,0.56 0.71,0.66 0.61,0.75 0.5,0.83 0.38,0.89 0.26,0.93 0.13,0.96 v 0.97 l -0.13,0.96 -0.26,0.91 -0.38,0.89 -0.5,0.83 -0.61,0.75 -0.71,0.66 -0.79,0.56 -0.86,0.45 -0.91,0.32 -0.95,0.2 -0.96,0.07 m 0,-14.19 H 371.94 m -2.85,0.6 0.34,-0.14 0.35,-0.12 0.35,-0.1 0.36,-0.08 0.36,-0.07 0.36,-0.05 0.36,-0.03 0.37,-0.01 m -35.17,14.79 32.32,-14.2 m -51.25,17.76 2.43,0.04 2.43,-0.1 2.42,-0.24 2.4,-0.38 2.37,-0.52 2.34,-0.65 2.3,-0.78 2.25,-0.91 m -27.3,6.2 0.91,-0.65 0.97,-0.56 1.01,-0.48 1.05,-0.39 1.08,-0.29 1.1,-0.2 1.11,-0.1 h 1.12 m -10.88,10.01 -0.18,-1.01 -0.03,-1.02 0.12,-1.02 0.26,-0.99 0.4,-0.94 0.54,-0.88 0.66,-0.79 0.76,-0.68 m -2.53,7.33 2.55,10.07 m 5.72,5.26 -1,-0.24 -0.95,-0.38 -0.89,-0.51 -0.8,-0.64 -0.7,-0.75 -0.59,-0.84 -0.46,-0.92 -0.32,-0.97 m 17.22,-10.79 0.54,0.06 0.51,0.19 0.45,0.3 0.37,0.39 0.27,0.47 0.16,0.52 0.03,0.54 -0.09,0.54 -0.21,0.5 -0.33,0.44 -0.41,0.35 -0.49,0.24 -0.53,0.13 h -0.54 l -0.53,-0.13 -0.49,-0.24 -0.42,-0.35 -0.32,-0.44 -0.21,-0.5 -0.09,-0.54 0.03,-0.54 0.16,-0.52 0.27,-0.47 0.37,-0.39 0.45,-0.3 0.51,-0.19 0.54,-0.06 m -13.69,1.97 -0.11,-0.68 0.02,-0.69 0.15,-0.68 0.27,-0.64 0.38,-0.58 0.48,-0.5 0.57,-0.4 0.63,-0.29 0.67,-0.17 0.69,-0.04 0.69,0.08 0.66,0.21 0.61,0.33 0.54,0.43 0.45,0.53 0.35,0.6 0.23,0.65 m 1.22,4.8 -1.22,-4.81 m 1.22,4.81 0.11,0.68 -0.02,0.69 -0.15,0.68 -0.27,0.64 -0.38,0.58 -0.48,0.5 -0.57,0.4 -0.63,0.29 -0.67,0.17 -0.69,0.04 -0.69,-0.08 -0.66,-0.21 -0.61,-0.33 -0.54,-0.43 -0.45,-0.53 -0.35,-0.6 -0.23,-0.65 m 0,0.01 -1.22,-4.81 m 161.74,-20.19 -0.56,-0.07 -0.53,-0.2 -0.46,-0.32 -0.37,-0.42 -0.26,-0.5 -0.14,-0.55 v -0.56 l 0.14,-0.55 0.26,-0.5 0.37,-0.42 0.46,-0.32 0.53,-0.2 0.56,-0.07 m 0,0.01 h 3.54 m 0.01,0 0.56,0.07 0.53,0.2 0.46,0.32 0.37,0.42 0.26,0.5 0.14,0.55 v 0.56 l -0.14,0.55 -0.26,0.5 -0.37,0.42 -0.46,0.32 -0.53,0.2 -0.56,0.07 m -3.55,-0.01 h 3.54 m -24.8,-5.53 0.64,0.07 0.62,0.19 0.56,0.31 0.49,0.42 0.4,0.51 0.28,0.58 0.16,0.62 0.03,0.65 -0.1,0.64 -0.22,0.6 -0.34,0.55 -0.44,0.47 -0.53,0.37 -0.59,0.25 -0.63,0.13 h -0.65 l -0.63,-0.13 -0.59,-0.25 -0.53,-0.37 -0.44,-0.47 -0.34,-0.55 -0.22,-0.6 -0.1,-0.64 0.03,-0.65 0.16,-0.62 0.28,-0.58 0.39,-0.51 0.49,-0.42 0.56,-0.31 0.62,-0.19 0.64,-0.07 m -50.83,5.53 -0.56,-0.07 -0.53,-0.2 -0.46,-0.32 -0.37,-0.42 -0.26,-0.5 -0.14,-0.55 v -0.56 l 0.14,-0.55 0.26,-0.5 0.37,-0.42 0.46,-0.32 0.53,-0.2 0.56,-0.07 m 0,0.01 h 3.54 m 0.01,0 0.56,0.07 0.53,0.2 0.46,0.32 0.37,0.42 0.26,0.5 0.14,0.55 v 0.56 l -0.14,0.55 -0.26,0.5 -0.37,0.42 -0.46,0.32 -0.53,0.2 -0.56,0.07 m -3.55,-0.01 h 3.54"
           class="st6"
           inkscape:connector-curvature="0"
           style="fill:none;stroke:#000000;stroke-width:0.70899999;stroke-linecap:round;stroke-linejoin:round;stroke-miterlimit:10;stroke-dasharray:18, 3.6, 3.6, 3.6, 3.6, 3.6;stroke-dashoffset:3" />
        <path
           id="path6560"
           d="m 472.17,234.21 -0.56,0.07 -0.53,0.2 -0.46,0.32 -0.37,0.42 -0.26,0.5 -0.14,0.55 v 0.56 l 0.14,0.55 0.26,0.5 0.37,0.42 0.46,0.32 0.53,0.2 0.56,0.07 m -145.71,20.56 -0.06,-0.54 -0.19,-0.51 -0.3,-0.45 -0.39,-0.37 -0.47,-0.27 -0.52,-0.16 -0.54,-0.03 -0.53,0.1 -0.5,0.21 -0.43,0.32 -0.35,0.42 -0.24,0.48 -0.12,0.53 v 0.54 l 0.12,0.53 0.24,0.49 0.35,0.42 0.43,0.32 0.5,0.21 0.53,0.1 0.54,-0.03 0.52,-0.16 0.47,-0.27 0.39,-0.37 0.3,-0.45 0.19,-0.51 0.06,-0.55 m -12.19,20.28 1.32,0.15 1.33,0.01 1.32,-0.13 1.3,-0.26 1.26,-0.4 1.22,-0.53 1.16,-0.65 1.08,-0.77 1,-0.88 0.9,-0.97 0.79,-1.06 m 14.05,-13.15 -2.07,1.27 -1.99,1.39 -1.91,1.5 -1.82,1.61 -1.73,1.71 -1.62,1.8 -1.52,1.89 -1.41,1.98 M 371.22,243.64 341,261.09 M 475.71,243.64 H 371.22 m 104.49,0 0.96,-0.07 0.95,-0.2 0.91,-0.32 0.86,-0.45 0.79,-0.56 0.71,-0.66 0.61,-0.75 0.5,-0.83 0.38,-0.89 0.26,-0.93 0.13,-0.96 v -0.97 l -0.13,-0.96 -0.26,-0.93 -0.38,-0.89 -0.5,-0.83 -0.61,-0.75 -0.71,-0.66 -0.79,-0.56 -0.86,-0.45 -0.91,-0.32 -0.95,-0.2 -0.96,-0.07 m 0,0.04 H 369.32 m 0,0 -0.46,0.02 -0.46,0.05 -0.46,0.07 -0.45,0.11 -0.44,0.14 -0.43,0.16 -0.42,0.19 -0.41,0.22 m -0.01,-0.01 -31.86,18.4 m -18.43,5.59 2.42,-0.23 2.4,-0.37 2.38,-0.51 2.34,-0.64 2.3,-0.77 2.25,-0.9 2.2,-1.03 2.14,-1.15 m -18.43,5.6 -0.94,0.1 -0.93,0.17 -0.92,0.23 -0.89,0.3 -0.87,0.37 -0.84,0.43 -0.81,0.49 -0.77,0.55 m -2.52,7.35 -0.18,-1.01 -0.03,-1.03 0.12,-1.02 0.26,-0.99 0.4,-0.94 0.54,-0.88 0.66,-0.79 0.76,-0.69 m 0.02,17.42 L 306,264.4 m 8.27,15.33 -1,-0.24 -0.95,-0.38 -0.89,-0.52 -0.8,-0.64 -0.7,-0.75 -0.59,-0.84 -0.46,-0.92 -0.32,-0.97 m 4.75,-4 0.23,0.65 0.35,0.6 0.45,0.53 0.54,0.43 0.61,0.33 0.66,0.21 0.69,0.08 0.69,-0.04 0.67,-0.17 0.63,-0.29 0.57,-0.4 0.48,-0.5 0.38,-0.58 0.27,-0.64 0.15,-0.68 0.02,-0.69 -0.11,-0.68 m -8.5,-2.97 1.22,4.81 m 6.07,-6.65 -0.23,-0.65 -0.35,-0.6 -0.45,-0.53 -0.54,-0.43 -0.61,-0.33 -0.66,-0.21 -0.69,-0.08 -0.69,0.04 -0.67,0.17 -0.63,0.29 -0.57,0.4 -0.48,0.5 -0.38,0.58 -0.27,0.64 -0.15,0.68 -0.02,0.69 0.11,0.68 m 7.28,-1.84 1.22,4.81 m 133.5,-32.08 -0.07,-0.64 -0.19,-0.62 -0.31,-0.56 -0.42,-0.49 -0.51,-0.39 -0.58,-0.28 -0.62,-0.16 -0.64,-0.03 -0.64,0.1 -0.61,0.22 -0.55,0.34 -0.47,0.44 -0.37,0.53 -0.25,0.59 -0.13,0.63 v 0.64 l 0.13,0.63 0.25,0.59 0.37,0.53 0.47,0.44 0.55,0.34 0.61,0.22 0.64,0.1 0.64,-0.03 0.62,-0.16 0.58,-0.28 0.51,-0.39 0.42,-0.49 0.31,-0.56 0.19,-0.62 0.07,-0.64 m 21.61,2.34 0.56,-0.07 0.53,-0.2 0.46,-0.32 0.37,-0.42 0.26,-0.5 0.14,-0.55 v -0.56 l -0.14,-0.55 -0.26,-0.5 -0.37,-0.42 -0.46,-0.32 -0.53,-0.2 -0.56,-0.07 m -3.54,4.68 h 3.54 m -3.54,-4.68 h 3.54 m -72.09,4.68 0.56,-0.07 0.53,-0.2 0.46,-0.32 0.37,-0.42 0.26,-0.5 0.14,-0.55 v -0.56 l -0.14,-0.55 -0.26,-0.5 -0.37,-0.42 -0.46,-0.32 -0.53,-0.2 -0.56,-0.07 m -3.54,4.68 h 3.54 m -3.54,-4.68 -0.56,0.07 -0.53,0.2 -0.46,0.32 -0.37,0.42 -0.26,0.5 -0.14,0.55 v 0.56 l 0.14,0.55 0.26,0.5 0.37,0.42 0.46,0.32 0.53,0.2 0.56,0.07 m 0,-4.68 h 3.54"
           class="st6"
           inkscape:connector-curvature="0"
           style="fill:none;stroke:#000000;stroke-width:0.70899999;stroke-linecap:round;stroke-linejoin:round;stroke-miterlimit:10;stroke-dasharray:18, 3.6, 3.6, 3.6, 3.6, 3.6;stroke-dashoffset:3" />
        <path
           id="path6562"
           d="m 390.86,184.49 0.04,0.06 v 0 m -0.68,-1.14 0.22,0.35 0.2,0.32 0.17,0.28 0.14,0.23 0.11,0.18 0.07,0.13 0.04,0.07 v 0.01 l -0.04,-0.05 -0.07,-0.1 -0.11,-0.16 -0.14,-0.21 -0.02,-0.03 m 11.23,1.62 -0.01,-0.02 -0.04,-0.07 -0.08,-0.13 -0.11,-0.18 -0.14,-0.23 m -12.38,-3.5 0.12,0.19 0.12,0.19 0.12,0.19 0.12,0.19 0.12,0.19 0.12,0.18 0.12,0.18 0.11,0.17 m 11.43,2.02 -0.14,-0.23 -0.16,-0.26 -0.18,-0.28 -0.2,-0.31 -0.21,-0.32 -0.22,-0.34 -0.22,-0.35 -0.22,-0.35 m 0.53,6.12 -0.01,-0.01 -0.04,-0.07 -0.07,-0.12 -0.11,-0.17 -0.14,-0.22 -0.17,-0.26 -0.19,-0.3 -0.21,-0.34 -0.23,-0.36 -0.25,-0.39 -0.26,-0.4 -0.26,-0.4 m -8.29,-12.82 -0.26,-0.4 -0.26,-0.4 -0.25,-0.38 -0.23,-0.35 -0.21,-0.33 -0.19,-0.29 -0.17,-0.25 -0.14,-0.2 -0.1,-0.15 -0.07,-0.1 -0.04,-0.04 v 0 m -3.71,4.74 -0.01,-0.02 -0.08,-0.13 -0.04,-0.07 v -0.01 l 0.04,0.05 0.08,0.1 0.11,0.16 0.14,0.21 m 0.01,0.01 0.14,0.21 0.16,0.24 0.18,0.27 0.2,0.3 0.21,0.32 0.22,0.33 0.22,0.34 0.23,0.35 m 10.82,1.08 -0.12,-0.19 -0.12,-0.19 -0.12,-0.19 -0.12,-0.19 -0.12,-0.18 -0.12,-0.18 -0.11,-0.17 -0.11,-0.17 m -0.02,-0.01 -0.22,-0.34 -0.2,-0.3 -0.17,-0.26 -0.14,-0.21 -0.11,-0.16 -0.07,-0.1 -0.04,-0.05 v 0 m -8.47,-2.62 v 0 l 0.04,0.05 0.07,0.1 0.1,0.15 0.14,0.2 0.17,0.25 0.19,0.29 0.21,0.32 0.23,0.36 0.25,0.38 0.26,0.4 0.26,0.4 m -0.92,-1.43 -0.26,-0.4 -0.26,-0.39 -0.25,-0.38 -0.23,-0.36 -0.21,-0.32 -0.19,-0.29 -0.17,-0.25 -0.14,-0.2 -0.1,-0.15 -0.07,-0.1 -0.04,-0.04 v 0.01 l 0.04,0.07 0.07,0.12 0.11,0.17 0.14,0.22 0.17,0.26 0.19,0.3 0.18,0.29 m 59.39,4.5 v -0.04 0.05 0.15 0.24 0.32 0.39 0.44 0.48 0.5 0.5 0.48 0.44 0.38 0.31 0.08 m -83.62,-4.29 v 0.09 0.31 0.38 0.44 0.48 0.5 0.5 0.48 0.44 0.39 0.32 0.24 0.01 m 28.88,-2.48 0.26,0.41 0.26,0.4 0.25,0.39 0.23,0.37 0.21,0.34 0.19,0.3 0.17,0.27 0.14,0.22 0.1,0.17 0.07,0.12 0.04,0.07 v 0.01 m -0.03,0.01 2.78,4.29 m 0,0 0.26,0.4 0.26,0.39 0.25,0.38 0.23,0.36 0.21,0.32 0.19,0.29 0.17,0.25 0.14,0.2 0.1,0.15 0.07,0.1 0.03,0.04 v -0.01 l -0.04,-0.07 -0.07,-0.12 -0.11,-0.17 -0.14,-0.22 -0.17,-0.27 -0.19,-0.3 -0.21,-0.34 -0.23,-0.36 -0.25,-0.39 -0.26,-0.4 -0.26,-0.4 m 3.8,-4.59 -1.7,-2.63 m -0.01,0 -0.99,-1.54 m -7,-5.58 4.62,7.13 m -7,-5.58 0.93,1.43 m -2.38,1.54 1.7,2.63 m 0,-0.01 0.99,1.54 m 2.39,-1.54 4.67,7.21 m 1.4,-3.06 0.98,1.51 m 47.69,-7.56 v 0.09 0.15 0.2 0.25 0.29 0.32 0.33 0.34 0.34 0.32 0.3 0.27 0.22 0.17 0.12 0.06 0 -0.06 -0.12 -0.18 -0.23 -0.27 -0.3 -0.33 -0.34 -0.34 -0.33 -0.31 -0.29 -0.25 -0.2 -0.15 -0.07 -0.03 0.03 m -61.61,-3.39 v 0 l 0.01,0.02 0.02,0.04 0.03,0.06 0.03,0.1 0.03,0.14 0.02,0.18 -0.01,0.2 -0.05,0.22 -0.09,0.22 -0.14,0.2 -0.18,0.18 -0.23,0.15 -0.24,0.09 -0.23,0.04 h -0.1 m 18.23,8.86 -0.01,-0.02 -0.03,-0.06 -0.03,-0.1 -0.03,-0.14 -0.02,-0.18 0.01,-0.2 0.05,-0.22 0.09,-0.22 0.14,-0.2 0.18,-0.18 0.23,-0.15 0.24,-0.09 0.23,-0.04 h 0.1 m -6.23,-7.08 v 0 l -0.22,-0.02 -0.19,-0.05 -0.17,-0.07 -0.14,-0.08 -0.11,-0.08 -0.07,-0.07 -0.03,-0.03 m -6,7.5 h 0.01 l 0.21,0.02 0.19,0.05 0.17,0.07 0.14,0.08 0.11,0.08 0.07,0.06 0.05,0.05 0.03,0.03 0.02,0.02 v 0 m 0.33,0.5 2.38,-1.54 m 6.1,4.14 2.35,-1.52 m -0.43,-0.71 0.03,0.05 m -3.38,5.25 2.38,-1.54 m -12.15,-18.75 -2.38,1.54 m 0.92,1.43 -2.38,1.54 m 10.84,1.08 -2.34,1.52 m 46.18,6.45 1.35,-0.02 1.26,-0.05 1.11,-0.08 0.92,-0.1 0.72,-0.1 0.46,-0.08 0.35,-0.08 0.26,-0.07 0.14,-0.05 0.06,-0.02 0.06,-0.02 0.1,-0.05 0.09,-0.06 0.08,-0.08 0.05,-0.1 0.04,-0.27 v -0.05 m 0.01,-4.83 -0.01,-0.04 -0.02,-0.04 -0.01,-0.02 -0.02,-0.02 -0.01,-0.01 -0.01,-0.01 -0.01,-0.01 -0.09,-0.06 -0.19,-0.09 -0.26,-0.09 -0.26,-0.07 -0.35,-0.08 -0.46,-0.08 -0.72,-0.1 -0.92,-0.09 -1.11,-0.08 -1.26,-0.05 -1.35,-0.02 m -69.47,0.12 -1.32,0.02 -1.24,0.05 -1.1,0.08 -0.92,0.09 -0.73,0.1 -0.47,0.08 -0.36,0.08 -0.27,0.07 -0.15,0.05 -0.12,0.04 -0.05,0.02 -0.05,0.02 -0.09,0.05 -0.14,0.15 -0.06,0.22 -0.01,0.14 m 0.02,4.71 0.01,0.12 0.02,0.11 0.04,0.05 0.02,0.01 0.02,0.02 0.02,0.02 0.09,0.05 0.11,0.05 0.19,0.07 0.29,0.09 0.41,0.1 0.57,0.1 0.74,0.1 0.93,0.09 1.1,0.07 1.23,0.05 1.3,0.01 m 13.76,-7.11 -13.79,0.02 m 0.02,7.09 20.01,-0.04 m 13.15,-0.02 36.28,-0.07 m -0.01,-7.08 -42.5,0.08"
           class="st6"
           inkscape:connector-curvature="0"
           style="fill:none;stroke:#000000;stroke-width:0.70899999;stroke-linecap:round;stroke-linejoin:round;stroke-miterlimit:10;stroke-dasharray:18, 3.6, 3.6, 3.6, 3.6, 3.6;stroke-dashoffset:3" />
      </g>
    </g>
  </g>
  <style
     id="style815"
     type="text/css">
	.st0{font-family:'Akrobat-Regular';}
	.st1{font-size:17.9892px;}
	.st2{font-size:19.4642px;}
	.st3{font-size:17.9904px;}
	.st4{font-size:13.6276px;}
	.st5{font-size:13.6234px;}
	.st6{font-size:13.6249px;}
	.st7{font-size:13.6244px;}
	.st8{font-size:13.6273px;}
	.st9{font-size:13.6272px;}
	.st10{fill:none;stroke:#000000;stroke-width:0.51;stroke-miterlimit:10;}
	.st11{fill:none;stroke:#000000;stroke-width:0.51;stroke-linecap:round;stroke-linejoin:round;stroke-miterlimit:10;}
	.st12{fill:none;stroke:#000000;stroke-width:1.417;stroke-linecap:round;stroke-linejoin:round;stroke-miterlimit:10;}
	
		.st13{fill:none;stroke:#000000;stroke-width:0.51;stroke-linecap:round;stroke-linejoin:round;stroke-miterlimit:10;stroke-dasharray:18,3.6,3.6,3.6,3.6,3.6;stroke-dashoffset:8;}
	
		.st14{fill:none;stroke:#000000;stroke-width:0.51;stroke-linecap:round;stroke-linejoin:round;stroke-miterlimit:10;stroke-dasharray:18,3.6,3.6,3.6,3.6,3.6;stroke-dashoffset:7;}
	
		.st15{fill:none;stroke:#000000;stroke-width:0.51;stroke-linecap:round;stroke-linejoin:round;stroke-miterlimit:10;stroke-dasharray:18,3.6,3.6,3.6,3.6,3.6;stroke-dashoffset:3;}
	
		.st16{fill:none;stroke:#000000;stroke-width:0.51;stroke-linecap:round;stroke-linejoin:round;stroke-miterlimit:10;stroke-dasharray:18,3.6,3.6,3.6,3.6,3.6;}
	
		.st17{fill:none;stroke:#000000;stroke-width:0.51;stroke-linecap:round;stroke-linejoin:round;stroke-miterlimit:10;stroke-dasharray:18,3.6,3.6,3.6,3.6,3.6;stroke-dashoffset:11;}
	
		.st18{fill:none;stroke:#000000;stroke-width:0.51;stroke-linecap:round;stroke-linejoin:round;stroke-miterlimit:10;stroke-dasharray:18,3.6,3.6,3.6,3.6,3.6;stroke-dashoffset:1;}
	
		.st19{fill:none;stroke:#000000;stroke-width:0.51;stroke-linecap:round;stroke-linejoin:round;stroke-miterlimit:10;stroke-dasharray:18,3.6,3.6,3.6,3.6,3.6;stroke-dashoffset:-2;}
	
		.st20{fill:none;stroke:#000000;stroke-width:0.51;stroke-linecap:round;stroke-linejoin:round;stroke-miterlimit:10;stroke-dasharray:18,3.6,3.6,3.6,3.6,3.6;stroke-dashoffset:4;}
	
		.st21{fill:none;stroke:#000000;stroke-width:0.51;stroke-linecap:round;stroke-linejoin:round;stroke-miterlimit:10;stroke-dasharray:18,3.6,3.6,3.6,3.6,3.6;stroke-dashoffset:14;}
	
		.st22{fill:none;stroke:#000000;stroke-width:0.51;stroke-linecap:round;stroke-linejoin:round;stroke-miterlimit:10;stroke-dasharray:18,3.6,3.6,3.6,3.6,3.6;stroke-dashoffset:2;}
	
		.st23{fill:none;stroke:#000000;stroke-width:0.51;stroke-linecap:round;stroke-linejoin:round;stroke-miterlimit:10;stroke-dasharray:18,3.6,3.6,3.6,3.6,3.6;stroke-dashoffset:10;}
	
		.st24{fill:none;stroke:#000000;stroke-width:0.51;stroke-linecap:round;stroke-linejoin:round;stroke-miterlimit:10;stroke-dasharray:18,3.6,3.6,3.6,3.6,3.6;stroke-dashoffset:9;}
	
		.st25{fill:none;stroke:#000000;stroke-width:0.51;stroke-linecap:round;stroke-linejoin:round;stroke-miterlimit:10;stroke-dasharray:18,3.6,3.6,3.6,3.6,3.6;stroke-dashoffset:6;}
	
		.st26{fill:none;stroke:#000000;stroke-width:0.51;stroke-linecap:round;stroke-linejoin:round;stroke-miterlimit:10;stroke-dasharray:18,3.6,3.6,3.6,3.6,3.6;stroke-dashoffset:16;}
	
		.st27{fill:none;stroke:#000000;stroke-width:0.51;stroke-linecap:round;stroke-linejoin:round;stroke-miterlimit:10;stroke-dasharray:18,3.6,3.6,3.6,3.6,3.6;stroke-dashoffset:5;}
	
		.st28{fill:none;stroke:#000000;stroke-width:0.51;stroke-linecap:round;stroke-linejoin:round;stroke-miterlimit:10;stroke-dasharray:18,3.6,3.6,3.6,3.6,3.6;stroke-dashoffset:12;}
</style>
  <style
     id="style6411"
     type="text/css">
	.st0{font-family:'ArialUnicodeMS';}
	.st1{font-size:19.9584px;}
	.st2{font-size:20.1158px;}
	.st3{fill:none;stroke:#000000;stroke-width:0.51;stroke-miterlimit:10;}
	.st4{fill:none;stroke:#000000;stroke-width:0.51;stroke-linecap:round;stroke-linejoin:round;stroke-miterlimit:10;}
	.st5{fill:none;stroke:#000000;stroke-width:0.709;stroke-linecap:round;stroke-linejoin:round;stroke-miterlimit:10;}
	
		.st6{fill:none;stroke:#000000;stroke-width:0.51;stroke-linecap:round;stroke-linejoin:round;stroke-miterlimit:10;stroke-dasharray:18,3.6,3.6,3.6,3.6,3.6;stroke-dashoffset:3;}
	
		.st7{fill:none;stroke:#000000;stroke-width:0.51;stroke-linecap:round;stroke-linejoin:round;stroke-miterlimit:10;stroke-dasharray:18,3.6,3.6,3.6,3.6,3.6;stroke-dashoffset:-1;}
	
		.st8{fill:none;stroke:#000000;stroke-width:0.51;stroke-linecap:round;stroke-linejoin:round;stroke-miterlimit:10;stroke-dasharray:18,3.6,3.6,3.6,3.6,3.6;stroke-dashoffset:15;}
	
		.st9{fill:none;stroke:#000000;stroke-width:0.51;stroke-linecap:round;stroke-linejoin:round;stroke-miterlimit:10;stroke-dasharray:18,3.6,3.6,3.6,3.6,3.6;}
	
		.st10{fill:none;stroke:#000000;stroke-width:0.51;stroke-linecap:round;stroke-linejoin:round;stroke-miterlimit:10;stroke-dasharray:18,3.6,3.6,3.6,3.6,3.6;stroke-dashoffset:6;}
	
		.st11{fill:none;stroke:#000000;stroke-width:0.51;stroke-linecap:round;stroke-linejoin:round;stroke-miterlimit:10;stroke-dasharray:18,3.6,3.6,3.6,3.6,3.6;stroke-dashoffset:10;}
	
		.st12{fill:none;stroke:#000000;stroke-width:0.51;stroke-linecap:round;stroke-linejoin:round;stroke-miterlimit:10;stroke-dasharray:18,3.6,3.6,3.6,3.6,3.6;stroke-dashoffset:16;}
	
		.st13{fill:none;stroke:#000000;stroke-width:0.51;stroke-linecap:round;stroke-linejoin:round;stroke-miterlimit:10;stroke-dasharray:18,3.6,3.6,3.6,3.6,3.6;stroke-dashoffset:8;}
</style>
</svg>
