<?xml version="1.0" encoding="UTF-8" standalone="no"?>
<!-- Created with Inkscape (http://www.inkscape.org/) -->

<svg
   xmlns:dc="http://purl.org/dc/elements/1.1/"
   xmlns:cc="http://creativecommons.org/ns#"
   xmlns:rdf="http://www.w3.org/1999/02/22-rdf-syntax-ns#"
   xmlns:svg="http://www.w3.org/2000/svg"
   xmlns="http://www.w3.org/2000/svg"
   xmlns:sodipodi="http://sodipodi.sourceforge.net/DTD/sodipodi-0.dtd"
   xmlns:inkscape="http://www.inkscape.org/namespaces/inkscape"
   width="75mm"
   height="88mm"
   viewBox="0 0 75 88"
   version="1.1"
   id="svg1244"
   inkscape:version="0.92.3 (2405546, 2018-03-11)"
   sodipodi:docname="18.svg">
  <defs
     id="defs1238">
    <rect
       height="29.360001"
       width="693.96997"
       y="311.89001"
       x="54.59"
       id="SVGID_1_" />
    <rect
       height="29.360001"
       width="693.96997"
       y="282.53"
       x="54.59"
       id="SVGID_3_" />
    <rect
       height="29.360001"
       width="693.96997"
       y="253.17999"
       x="54.59"
       id="SVGID_5_" />
    <rect
       height="0.94999999"
       width="693.96997"
       y="252.23"
       x="54.59"
       id="SVGID_7_" />
  </defs>
  <sodipodi:namedview
     id="base"
     pagecolor="#ffffff"
     bordercolor="#666666"
     borderopacity="1.0"
     inkscape:pageopacity="0.0"
     inkscape:pageshadow="2"
     inkscape:zoom="1.07"
     inkscape:cx="415.26424"
     inkscape:cy="112.07208"
     inkscape:document-units="mm"
     inkscape:current-layer="g7613"
     showgrid="false"
     inkscape:window-width="1853"
     inkscape:window-height="1025"
     inkscape:window-x="67"
     inkscape:window-y="27"
     inkscape:window-maximized="1" />
  <metadata
     id="metadata1241">
    <rdf:RDF>
      <cc:Work
         rdf:about="">
        <dc:format>image/svg+xml</dc:format>
        <dc:type
           rdf:resource="http://purl.org/dc/dcmitype/StillImage" />
        <dc:title></dc:title>
      </cc:Work>
    </rdf:RDF>
  </metadata>
  <g
     inkscape:label="Layer 1"
     inkscape:groupmode="layer"
     id="layer1"
     transform="translate(0,-209)">
    <g
       id="g7257"
       transform="matrix(0.26458333,0,0,0.26458333,-21.557762,167.58321)">
      <g
         id="g7496"
         transform="translate(-194.74048,129.92751)">
        <g
           id="g7539"
           transform="translate(40.901645,40.582209)">
          <path
             id="path7525"
             d="m 709.31636,3.7589688 v 0 m 141.12,1.44 v 0"
             class="st2"
             inkscape:connector-curvature="0"
             style="fill:none;stroke:#000000;stroke-width:0.70899999;stroke-linecap:round;stroke-linejoin:round;stroke-miterlimit:10" />
          <g
             id="g7613"
             transform="translate(51.788472,71.106254)">
            <polyline
               id="polyline7587"
               points="351.66,365.17 351.24,364.87 350.77,364.67 350.27,364.64 349.79,364.78 349.38,365.08 349.11,365.5   348.99,365.99 349.05,366.49 349.21,366.99 344.53,358.11 351.66,365.17 "
               class="st3"
               style="fill:none;stroke:#000000;stroke-width:0.50999999;stroke-miterlimit:10"
               transform="translate(49.532711,-221.49533)" />
            <line
               id="line7589"
               y2="136.61465"
               x2="394.06271"
               y1="186.02466"
               x1="430.70273"
               class="st4"
               style="fill:none;stroke:#000000;stroke-width:0.50999999;stroke-linecap:round;stroke-linejoin:round;stroke-miterlimit:10" />
            <polyline
               id="polyline7591"
               points="351.66,365.17 351.24,364.87 350.77,364.67 350.27,364.64 349.79,364.78 349.38,365.08 349.11,365.5   348.99,365.99 349.05,366.49 349.21,366.99 344.53,358.11 351.66,365.17 "
               transform="translate(49.532711,-221.49533)" />
            <path
               id="path7593"
               d="m 306.22271,28.64467 -27.24,16.91 m 28.67,-15.3 -28.89,17.94 m 35.95,24.39 8.46,15.34 m 7.94,-49.38 4.39,-22.18 m -19.45,54.24 9.32,16.91 m 3.65,-49.38 4.51,-22.78 m 21.33,27.9 -23.76,-4.71 m -16.06,-3.18 -16.72,-18.8 m 56.88,28.92 -37.82,-7.49 m 5.41,22.58 25.94,11.18 m -43.41,14.8 9.4,-13.98 m -8.5,-43.93 -9.75,-10.97 m 6.78,68.15 10.31,-15.33 m 10.44,-11.71 25.9,11.16 m -68.96,-7.03 24.12,-7.85 m -24.78,5.82 24.82,-8.07 m 1.87,1.32 13.91,-9 m 5.54,6.23 -5.54,-6.23 m -5.99,23.37 11.53,-17.14 m -19.45,2.77 7.92,14.37 m 9.11,-9.72 5.11,-7.6 m 0,0 -11.73,-13.19 m 11.64,0.14 -13.98,-2.77 m 4.42,8.17 -11.81,-13.28 m -2.55,22.56 14.35,-9.29 m -14.39,11.54 8.5,15.43 m 2.49,0.11 6.74,-10.02 m 2.58,26.92 -0.27,0.06 -0.27,0.06 -0.27,0.05 -0.27,0.05 -0.28,0.05 -0.27,0.05 -0.28,0.05 -0.28,0.05 m -17.86,-1.37 -0.26,-0.09 -0.26,-0.09 -0.26,-0.09 -0.26,-0.09 -0.26,-0.09 -0.26,-0.1 -0.26,-0.1 -0.26,-0.1 m -22.3,-22.89 -0.09,-0.25 -0.09,-0.25 -0.08,-0.25 -0.08,-0.25 -0.08,-0.25 -0.08,-0.25 -0.08,-0.25 -0.08,-0.26 m -1.52,-12.71 0.02,-0.33 0.02,-0.33 0.02,-0.33 0.03,-0.33 0.03,-0.33 0.03,-0.33 0.03,-0.33 0.04,-0.33 m 17.48,-27.88 0.23,-0.14 0.23,-0.14 0.23,-0.14 0.23,-0.14 0.23,-0.14 0.23,-0.14 0.24,-0.14 0.24,-0.13 m 35.21,-1.21 0.25,0.12 0.25,0.12 0.25,0.12 0.25,0.12 0.25,0.13 0.24,0.13 0.24,0.13 0.24,0.13 m 19.36,26.9 0.05,0.28 0.05,0.28 0.04,0.28 0.04,0.28 0.04,0.28 0.04,0.28 0.04,0.28 0.03,0.28 m -5.29,24.45 -0.14,0.23 -0.14,0.23 -0.14,0.23 -0.15,0.23 -0.15,0.23 -0.15,0.23 -0.15,0.22 -0.15,0.22 m -68.27,-44.52 0.09,0.06 0.09,0.06 0.08,0.05 0.08,0.05 0.07,0.04 0.06,0.04 0.05,0.03 0.04,0.02 m -3.1,1.47 0.31,0.11 0.52,-0.16 0.57,-0.41 0.58,-0.61 0.55,-0.75 m 23.23,-18.2200003 0.03,0.1 0.03,0.1 0.03,0.1 0.03,0.09 0.03,0.08 0.02,0.07 0.02,0.06 0.01,0.04 m -3.32,-0.87 0.17,0.28 0.5,0.22 0.7,0.05 0.84,-0.09 0.9,-0.22 m 55.64,49.8900003 -0.11,-0.02 -0.1,-0.02 -0.1,-0.02 -0.09,-0.02 -0.08,-0.02 -0.07,-0.01 -0.06,-0.01 -0.04,-0.01 m 2.41,-2.46 -0.33,0.01 -0.44,0.33 -0.4,0.58 -0.34,0.77 -0.26,0.89 m -15.58,25.07 -0.07,-0.08 -0.07,-0.08 -0.06,-0.08 -0.06,-0.07 -0.05,-0.07 -0.05,-0.06 -0.04,-0.05 -0.03,-0.04 m 3.44,-0.32 -0.25,-0.2 -0.55,-0.03 -0.68,0.19 -0.75,0.38 -0.77,0.52 m -28.06,9.16 v -0.11 -0.11 -0.1 -0.09 -0.08 -0.07 -0.06 -0.04 m 2.85,1.94 -0.06,-0.32 -0.4,-0.37 -0.64,-0.29 -0.82,-0.2 -0.93,-0.1 m -27.39,-11 0.07,-0.08 0.07,-0.08 0.07,-0.07 0.06,-0.07 0.06,-0.06 0.05,-0.05 0.04,-0.04 0.03,-0.03 m 0.91,3.29 0.16,-0.29 -0.06,-0.54 -0.31,-0.63 -0.5,-0.68 -0.64,-0.67 m -13.91,-26.03 0.11,-0.02 0.11,-0.01 0.1,-0.01 0.09,-0.01 0.08,-0.01 0.07,-0.01 0.06,-0.01 0.04,-0.01 m -1.43,3.11 0.3,-0.12 0.3,-0.46 0.17,-0.68 0.05,-0.84 -0.06,-0.93 m 58.81,-46.1200003 -0.04,0.1000003 -0.04,0.1 -0.04,0.09 -0.04,0.09 -0.03,0.08 -0.03,0.07 -0.02,0.05 -0.02,0.04 m -1.98,-2.8000003 -0.05,0.32 0.24,0.49 0.5,0.49 0.7,0.47 0.84,0.41 m 21.98,19.7100003 -0.1,0.05 -0.09,0.05 -0.09,0.05 -0.08,0.04 -0.07,0.04 -0.06,0.03 -0.05,0.03 -0.04,0.02 m 0.26,-3.42 -0.25,0.21 -0.12,0.53 0.07,0.7 0.24,0.81 0.38,0.85 m -64.84,55.38 -0.11,-0.08 -0.12,-0.06 -0.13,-0.03 h -0.13 l -0.07,0.01 m 41.11,-77.0200003 -0.06,0.03 -0.13,0.05 -0.13,0.02 -0.14,-0.01 -0.13,-0.04 m -56.22,51.7200003 -0.03,-0.14 -0.06,-0.12 -0.08,-0.11 -0.1,-0.08 -0.06,-0.03 m 73.23,23.31 -0.1,0.1 -0.08,0.11 -0.05,0.12 -0.02,0.13 v 0.07 m 7.54,-56.76 0.08,0.12 0.1,0.1 0.11,0.07 0.12,0.04 0.07,0.01 m -54.59,-17.2900003 0.13,-0.06 0.11,-0.08 0.09,-0.1 0.07,-0.12 0.02,-0.06 m 60.28,46.8100003 -0.02,0.14 0.01,0.14 0.04,0.13 0.07,0.11 0.04,0.05 m -41.87,37.82 -0.14,0.01 -0.13,0.04 -0.12,0.06 -0.1,0.09 -0.04,0.05 m -40.64,-64.6 0.06,-0.12 0.04,-0.13 0.01,-0.13 -0.02,-0.13 -0.02,-0.06 m 68.98,60.93 v 0.03 m -4.8,3.07 v 0 l 0.03,0.01 m -27.98,6.730003 -0.02,0.02 m -5.65,-0.74 v 0 l 0.02,0.03 m 53.17,-71.700003 h 0.03 m 2.18,5.27 v 0 l 0.01,-0.03 m -88.68,-10.2 -0.01,-0.03 m 3.47,-4.52 v 0 l -0.03,0.01 m 23.99,-15.9099999 0.01,-0.03 m 5.56,-1.22999996 v 0 l -0.03,-0.02 m 57.5,60.64999986 0.02,0.02 m -1.71,5.44 v 0 l 0.03,-0.02 m -27.24,-62.8499999 0.02,-0.02 m 5.06,2.6399996 v 0 l -0.01,-0.03 m -59.11,79.7400003 -0.03,0.01 m -3.84,-4.21 v 0 0.03 m -11.5,-26.38 -0.03,-0.01 m -0.25,-5.7 v 0 l -0.02,0.03 m 28.56,42.46 -0.01,0.1 0.01,0.1 0.03,0.09 0.04,0.07 m 56,-75.73 0.04,-0.09 0.02,-0.09 v -0.09 l -0.01,-0.08 m 3.54,61.56 0.1,0.02 0.1,0.01 0.09,-0.01 0.08,-0.02 m -33.12,-75.8499999 -0.03,-0.09 -0.04,-0.09 -0.05,-0.07 -0.06,-0.06 m 42.28,44.8999999 0.09,-0.04 0.08,-0.06 0.06,-0.07 0.05,-0.07 m -93.59,-10.64 -0.1,0.01 -0.09,0.03 -0.08,0.04 -0.07,0.05 m 57.05,59.940003 0.06,0.08 0.07,0.07 0.08,0.05 0.08,0.03 m -37.53,-86.470003 -0.08,-0.06 -0.09,-0.04 -0.09,-0.02 h -0.08 m -17.23,58.86 -0.07,0.07 -0.05,0.08 -0.04,0.08 -0.02,0.08 m -14.98,-33.94 0.58,-0.91 2.46,-3.55 3.38,-4.18 m 0.83,-0.14 -0.14,-0.08 -0.14,-0.06 -0.14,-0.03 h -0.13 l -0.11,0.04 -0.09,0.07 -0.06,0.09 -0.02,0.11 m 112.96,17.04 -0.23,1.05 -1.1,4.18 -1.75,5.08 m -93.04,-53.14999986 1.03,-0.33 4.17,-1.14 5.28,-1.03000004 m 0.72,0.43 -0.05,-0.15 -0.07,-0.14 -0.09,-0.11 -0.1,-0.08 -0.11,-0.04 h -0.11 l -0.1,0.03 -0.09,0.07 m 29.48,-8.9500001 1,0.41 3.93,1.8100001 4.7,2.6 m 0.27,0.79 0.06,-0.15 0.03,-0.15 v -0.14 l -0.03,-0.13 -0.05,-0.1 -0.08,-0.07 -0.1,-0.04 -0.11,-0.01 m -68.51,82.3999999 -0.14,-1.07 -0.4,-4.3 -0.1,-5.38 m 0.55,-0.64 -0.16,0.02 -0.15,0.05 -0.12,0.07 -0.1,0.09 -0.06,0.1 -0.02,0.11 0.01,0.11 0.05,0.1 m 30.52,39.62 -0.8,-0.73 -3.07,-3.04 -3.53,-4.059997 m 0.02,-0.83 -0.11,0.12 -0.08,0.13 -0.05,0.13 -0.02,0.13 0.02,0.11 0.05,0.1 0.08,0.07 0.1,0.05 m 82.49,-13.670003 -0.85,0.66 -3.53,2.5 -4.61,2.77 m -0.83,-0.16 0.1,0.13 0.12,0.1 0.12,0.07 0.12,0.04 h 0.12 l 0.1,-0.03 0.09,-0.07 0.06,-0.1 m 0.86,-83.6000003 0.5,0.96 1.85,3.9100003 1.93,5.02 m -0.3,0.78 0.14,-0.08 0.12,-0.1 0.09,-0.11 0.06,-0.11 0.02,-0.11 -0.01,-0.11 -0.05,-0.1 -0.08,-0.08 m -29.78,92.23 -1.08,-0.05 -4.31,-0.36 -5.31,-0.84 m 36,-87.71 -0.08,-0.08 -0.05,-0.09 m -89.35,9.6 -0.02,0.11 -0.05,0.09 m 60.09,-29.4899999 -0.11,-0.01 -0.1,-0.04 m -62.28,64.7899999 0.05,0.1 0.01,0.1 m 20.83,28.54 0.11,0.04 0.08,0.07 m 6.07,-89.8699999 -0.09,0.07 -0.1,0.03 m 60.35,82.6599999 0.06,-0.1 0.08,-0.07 m -32.08,15.76 0.11,-0.03 h 0.1 m 46.17,-48.02 -0.01,-0.11 0.02,-0.1 m -108.63,7.48 -0.07,-0.04 m 106.53,-40.49 0.08,0.01 m -31.06,-37.31 0.02,-0.01 m -86.02,84.25 -0.02,-0.01 m 115.98,32.370003 v 0.02 m 8.71,-88.950003 0.02,0.01 m -52.03,108.57 -0.02,0.02 m -45.77,-12.8 h -0.02 m 11.75,-119.82 0.01,-0.02 m -33.98,33.29 -0.01,-0.02 m 131.88,36.82 0.01,0.02 m 3.46,9.49 -0.5,0.81 -0.46,1.09 -0.35,1.18 -0.2,1.12 -0.05,0.64 m -93.32,-92.18 0.96,0.03 1.17,-0.15 1.2,-0.29 1.07,-0.38 0.58,-0.28 m 13.84,146.5 -0.89,-0.35 -1.15,-0.26 -1.23,-0.14 -1.14,-0.01 -0.64,0.06 m 74.58,-107.9 0.14,0.95 0.35,1.13 0.49,1.13 0.57,0.99 0.38,0.52 m -130.75,-10.6400003 0.75,-0.59 0.8,-0.87 0.73,-0.99 0.57,-0.98 0.27,-0.59 m 9.16,98.9500003 -0.45,-0.84 -0.71,-0.94 -0.85,-0.89 -0.87,-0.74 -0.53,-0.36 m -20,-41.46 0.19,-0.94 0.06,-1.18 -0.08,-1.23 -0.19,-1.12 -0.17,-0.62 m 119.21,54.71 -0.91,0.3 -1.05,0.54 -1.03,0.68 -0.88,0.73 -0.45,0.46 m -12.22,-130.6 0.71,0.64 0.99,0.64 1.11,0.55 1.07,0.39 0.62,0.16 m 8.11,16.5800001 0.81,0.14 3.19,0.6 10.73,2.67 m -14.73,-3.41 -0.08,-0.08 -0.09,-0.06 -0.1,-0.04 -0.06,-0.01 m -62.68,110.8199999 -0.81,0.15 -3.21,0.53 -10.99,1.15 m 15.38,-1.76 -0.06,0.01 h -0.1 l -0.1,-0.02 -0.1,-0.05 m -18.4,1.95 4.91,-0.31 4.83,-0.47 4.74,-0.63 4.64,-0.79 m 84.61,-72.23 0.53,0.63 2.06,2.51 6.5,8.94 m -9.21,-12.43 0.04,0.05 0.05,0.09 0.03,0.1 0.01,0.11 m -127.32,0.75 -0.29,-0.77 -1.08,-3.07 -3.05,-10.62 m 4.42,14.83 -0.02,-0.06 -0.02,-0.1 0.01,-0.11 0.03,-0.11 m 63.34,-53.78 0.71,-0.41 2.83,-1.59 9.93,-4.85 m -13.84,6.91 0.05,-0.03 0.1,-0.03 0.11,-0.01 0.11,0.01 m 16.61,-8.13 -4.51,1.97 -4.38,2.09 -4.23,2.21 -4.09,2.33 m -67.87,35.55 1.15,4.79 1.3,4.67 1.44,4.55 1.58,4.43 m 137.87,13.52 -2.72,-4.1 -2.82,-3.95 -2.91,-3.79 -3,-3.62 m -118.83,44.77 -0.71,-0.41 -2.8,-1.65 -9.16,-6.18 m 12.91,8.53 -0.05,-0.03 -0.08,-0.07 -0.06,-0.09 -0.05,-0.1 m -15.34,-10.32 3.96,2.92 4,2.74 4.03,2.56 4.06,2.38 m 114.29,-78.2499999 -4.72,-1.39 -4.7,-1.21 -4.67,-1.03 -4.63,-0.85 m -82.33,0.52 0.28,-0.77 1.14,-3.04 4.5,-10.1000001 m -6.16,14.2000001 0.02,-0.06 0.05,-0.09 0.07,-0.08 0.09,-0.06 m 64.32,109.8899999 -0.53,0.63 -2.12,2.47 -7.68,7.95 m 10.65,-11.24 -0.04,0.05 -0.08,0.07 -0.1,0.05 -0.11,0.03 m -12.82,13.31 3.57,-3.39 3.4,-3.46 3.22,-3.53 3.05,-3.59 m 33.29,-27.97 v 0.82 l -0.04,3.25 -0.77,11.030003 m 0.94,-15.450003 v 0.06 l -0.02,0.1 -0.04,0.1 -0.06,0.09 m -90.52,-98.17 -2.19,4.41 -2.01,4.4100001 -1.82,4.42 -1.64,4.41 m 96.91,98.9699999 0.55,-4.889997 0.38,-4.840003 0.2,-4.77 0.03,-4.71 m 0.93,-81.8999999 0.06,0.1 0.05,0.04 m 1.35,1.87 v -0.02 m -130.04,74.4299999 v -0.02 m 0.64,2.21 0.03,0.06 0.02,0.12 m 128.98,20.990003 -0.02,0.01 m 1.6,-1.66 0.04,-0.06 0.09,-0.08 m -131.18,-73.600003 0.02,-0.01 m -0.95,2.1 -0.01,0.07 -0.06,0.1 m 148.45,24.3 -0.01,0.02 m 0.16,-2.3 -0.01,-0.07 0.02,-0.12 m -114.51,67.93 -0.01,-0.02 m 1.91,1.29 0.06,0.02 0.09,0.08 m 49.72,-141.98 0.02,0.01 m -2.24,-0.55 h -0.07 l -0.11,-0.04 m -48.88,9.43 h 0.02 m -2.07,1.01 -0.05,0.04 -0.11,0.04 m 52.93,139.89 -0.02,-0.01 m 2.29,-0.24 0.07,-0.02 h 0.12 m 17.76,-141.03 1.12,0.24 4.46,1.12 9.28,3.25 8.16,4.0600001 m -115.75,13.4999996 0.43,-1.0699996 1.87,-4.2 4.81,-8.58 5.41,-7.3300001 m 38.6,139.03 -1.14,0.16 -4.57,0.48 -9.83,0.12 -9.06,-1.02 m 73.94,-11.54 -0.77,0.85 -3.2,3.3 -7.45,6.42 -7.59,5.04 m -39.12,-149.62 1.01,-0.54 4.13,-2.01 9.2,-3.48 8.86,-2.14 m -59.79,131.3 -0.97,-0.61 -3.81,-2.569997 -7.61,-6.230003 -6.28,-6.6 m 140.55,-64.51 0.71,0.91 2.7,3.72 5.03,8.45 3.64,8.35 m -154.15,12.55 -0.36,-1.09 -1.26,-4.42 -1.83,-9.66 -0.57,-9.1 m 149.14,40.93 -0.04,1.15 -0.33,4.58 -1.58,9.71 -2.58,8.740003 m -50.14,-125.820003 0.01,0.01 m -55.61,8.27 h 0.02 m 51.28,153.52 -0.02,-0.01 m -55.06,-11.22 -0.01,-0.02 m -33.48,-100.18 0.01,-0.01 m 140.78,-20.9699999 v 0.02 m -142.28,77.1499999 v -0.02 m 139.47,28.46 -0.02,0.01 m 20.64,-52.31 -0.01,0.02 m -24.21,56.22 0.01,-0.02 m -92.39,-133.11 -0.01,0.02 m 56.09,-4.69 -0.02,0.01 m 45.98,32.4700001 -0.02,-0.01 m 14.36,54.4299999 -0.01,-0.02 m -156.33,-42.59 v 0.02 m -5.15,56.02 0.02,0.02 m 86.36,61.02 0.02,-0.01 m -54.31,-14.79 h 0.02 m 46.29,-150.89 v 0.04 0 m 54.07,18.8 -0.02,0.03 v 0 m -124.75,107.66 v 0 l -0.04,0.02 m 17.24,-106.19 v 0 l -0.03,-0.03 m 27.17,142.37 v 0 l -0.01,0.04 m -55.05,-92.43 v 0 l -0.04,-0.01 m 164.8,-2.27 v 0 l 0.04,-0.01 m -52.52,93.89 v 0 l 0.02,0.04 m 43.31,-37.43 v 0 l 0.04,0.02 m -156.55,-35.32 v 0 h -0.04 m 0.77,2.54 v 0 l 0.03,0.03 m 15.22,-57.5199999 v 0 l -0.03,-0.02 m -1.04,2.44 v 0 0.04 m 48.63,-34.3300001 0.01,0.04 v 0 m 10.87,164.43 v 0 l -0.01,0.04 m 2.65,-0.32 v 0 l 0.04,-0.02 m 43.36,-157.96 -0.02,0.03 v 0 m -97.36,132.95 v 0 l -0.03,0.03 m 2.23,1.45 v 0 l 0.04,0.01 m 138.5,-36.02 v 0 l 0.04,0.01 m -33.86,46.17 v 0 l 0.02,0.03 m 1.82,-1.94 v 0 l 0.02,-0.04 m 28.18,-101.33 v 0 l 0.04,-0.02 m -1.6,-2.12 v 0 l -0.04,-0.02 m -18.93,17.56 -0.01,1.07 -0.23,4.27 -1.36,8.37 -2.6,8.23 m 14.05,-27.25 0.65,0.94 2.45,3.85 4.12,8.04 3.14,8.63 m -21.53,24.16 -0.7,0.82 -2.92,3.12 -6.43,5.54 -7.29,4.63 m 28.3,-11.86 -0.11,1.14 -0.6,4.52 -2.01,8.81 -3.14,8.630003 m -32.02,4.669997 -1.06,0.18 -4.25,0.52 -8.48,0.11 -8.56,-1.14 m 29.29,9.11 -0.81,0.8 -3.37,3.08 -7.2,5.45 -7.96,4.59 m 10.83,-41.27 0.93,-0.66 0.89,-0.5 0.79,-0.29 0.61,-0.03 0.36,0.27 0.06,0.25 m -41.99,25.23 -0.92,-0.54 -3.59,-2.34 -6.57,-5.369997 -5.83,-6.370003 m 16.59,25.8 -1.14,0.09 -4.56,0.19 -9.02,-0.45 -9.05,-1.6 m 34.82,-24.64 1.14,0.09 1.01,0.19 0.79,0.28 0.48,0.37 0.1,0.43 -0.11,0.23 m -48.39,-7.66 -0.36,-1.01 -1.25,-4.09 -1.58,-8.33 -0.37,-8.62 m -3.87,30.41 -0.93,-0.66 -3.62,-2.78 -6.62,-6.15 -5.91,-7.04 m 42.53,3.5 0.81,0.8 0.65,0.79 0.42,0.73 0.13,0.6 -0.2,0.4 -0.23,0.1 m -32.14,-36.97 0.38,-1 1.68,-3.94 4.15,-7.4 5.26,-6.84 m -22.54,20.8 -0.29,-1.1 -0.98,-4.46 -1.12,-8.97 v -9.19 m 30.33,30.02 0.11,1.14 -0.01,1.02 -0.14,0.83 -0.28,0.54 -0.41,0.18 -0.25,-0.07 m -0.86,-48.99 0.93,-0.53 3.82,-1.9400003 7.93,-3.0099996 8.43,-1.86 m -30.64,1.47 0.49,-1.03 2.11,-4.05 4.91,-7.59 5.91,-7.0400001 m 77.47,44.92 -0.49,-1.03 -0.34,-0.97 -0.15,-0.82 0.08,-0.61 0.33,-0.31 0.25,-0.02 m -73.22,1.34 -0.65,0.94 -0.67,0.78 -0.64,0.54 -0.56,0.24 -0.43,-0.13 -0.14,-0.21 m 25.95,-20.1000003 -1.1,0.3 -1.01,0.1700003 h -0.84 l -0.58,-0.1800003 -0.25,-0.37 0.03,-0.26 m 58.53,49.4700003 0.29,-1.11 0.36,-0.96 0.42,-0.73 0.45,-0.41 0.45,-0.02 0.21,0.15 m -52.08,-64.0299999 1.05,0.19 4.17,0.97 8.01,2.7999998 7.65,3.9900002 m 3.29,10.9899999 -1.04,-0.48 -0.88,-0.5200003 -0.64,-0.54 -0.33,-0.52 0.05,-0.44 0.18,-0.18 m 22.08,-18.3599997 1.1,0.3 4.35,1.3800001 8.33,3.5099998 7.96,4.5900002 m -25.86,0.62 0.68,0.83 2.57,3.42 4.34,7.2899999 3.29,7.98 m -53.87,-38.44 1.04,-0.48 4.22,-1.74 8.64,-2.66 9.05,-1.6 m -70.16,11.05 1.59,-1.15 4.52,-3.28 6.24,-4.53 3.52,-2.57 m 86.41,0.03 1.41,1.03 4.57,3.32 6.15,4.47 3.45,2.5 m -138.3,100.85 -0.97,-3 -2.1,-6.44 -1.21,-3.72 -1.86,-5.71 m 171.17,0.32 -0.54,1.64 -1.76,5.42 -2.32,7.15 -1.29,3.97 m -69.7,50.93 -3.15,-0.01 h -6.78 -3.91 l -6,0.01 m -74.2,-114.16 2.19,-6 2.62,-5.83 3.03,-5.6199999 3.43,-5.39 3.81,-5.1300002 4.17,-4.8399999 4.51,-4.52 4.82,-4.19 5.11,-3.83 5.38,-3.45 5.61,-3.05 5.82,-2.64 5.99,-2.21 6.13,-1.77 6.25,-1.33 6.33,-0.87 6.37,-0.42 6.39,0.05 6.37,0.51 6.31,0.96 6.23,1.42 6.11,1.86 5.96,2.3 5.78,2.72 5.57,3.13 5.33,3.53 5.06,3.9 4.76,4.26 4.44,4.5900001 4.1,4.8999998 3.74,5.1800002 3.35,5.4399996 2.95,5.6600003 2.54,5.86 2.1,6.03 1.66,6.17 1.22,6.27 0.76,6.34 0.3,6.38 -0.16,6.39 -0.62,6.36 -1.08,6.29 -1.53,6.2 -1.97,6.07 -2.41,5.92 -2.83,5.73 -3.23,5.510003 -3.62,5.259997 -3.99,4.98 -4.34,4.68 -4.67,4.36 -4.97,4.01 -5.25,3.64 -5.5,3.25 -5.72,2.85 -5.91,2.43 -6.07,2 -6.2,1.55 -6.29,1.1 -6.35,0.64 -6.38,0.18 -6.38,-0.28 -6.34,-0.74 -6.28,-1.19 -6.17,-1.64 -6.04,-2.08 -5.87,-2.51 -5.68,-2.93 -5.45,-3.33 -5.19,-3.72 -4.91,-4.08 -4.6,-4.43 -4.27,-4.75 -3.92,-5.04 -3.54,-5.309997 -3.15,-5.550003 -2.74,-5.77 -2.32,-5.95 -1.89,-6.1 -1.44,-6.22 -0.99,-6.31 -0.53,-6.36 -0.07,-6.39 0.39,-6.38 0.85,-6.33 1.31,-6.25 1.71,-6.13 m -2.15,55.37 -1.84,-6.45 -1.35,-6.57 -0.87,-6.65 -0.37,-6.69 0.12,-6.7 0.62,-6.68 1.11,-6.61 1.6,-6.51 2.07,-6.38 2.54,-6.21 2.99,-6.0000003 3.42,-5.7599996 3.84,-5.4900002 4.24,-5.1999998 4.61,-4.8700001 4.95,-4.52 5.27,-4.14 m 53.32,164.11 -6.7,-0.25 -6.66,-0.74 -6.59,-1.23 -6.48,-1.72 -6.34,-2.19 -6.16,-2.65 -5.95,-3.1 -5.7,-3.53 -5.42,-3.94 -5.12,-4.33 -4.78,-4.7 -4.42,-5.04 -4.04,-5.35 -3.63,-5.629997 -3.21,-5.890003 -2.76,-6.11 -2.3,-6.3 m 172.53,0.02 -2.31,6.3 -2.76,6.11 -3.21,5.890003 -3.63,5.629997 -4.04,5.35 -4.42,5.04 -4.78,4.7 -5.12,4.33 -5.42,3.94 -5.7,3.53 -5.95,3.1 -6.16,2.65 -6.34,2.19 -6.48,1.72 -6.59,1.23 -6.66,0.74 -6.7,0.25 m -53.32,-164.12 5.57,-3.74 5.83,-3.32 6.06,-2.88 6.25,-2.42 6.41,-1.95 6.54,-1.47 6.63,-0.99 6.68,-0.5 h 6.7 l 6.69,0.5 6.63,0.99 6.54,1.48 6.41,1.95 6.25,2.42 6.06,2.88 5.83,3.32 5.57,3.74 m -0.01,-0.01 5.27,4.14 4.95,4.52 4.61,4.8700001 4.23,5.1999998 3.84,5.5000002 3.42,5.7599996 2.99,6.0000003 2.54,6.2 2.07,6.38 1.6,6.51 1.11,6.61 0.62,6.68 0.12,6.7 -0.37,6.69 -0.86,6.65 -1.35,6.57 -1.83,6.45 m -96.91,65.86 v 0 -0.27 -0.59 -0.86 -1.02 -1.07 m 74.42,-159.81 v 0 l -0.16,0.22 -0.35,0.48 -0.5,0.69 -0.6,0.83 -0.63,0.87 m 24.47,105.75 v 0 l -0.26,-0.08 -0.56,-0.18 -0.81,-0.26 -0.97,-0.32 -1.02,-0.33 m -174.99,-19.04 v 0 l 0.26,-0.08 0.56,-0.18 0.82,-0.27 0.97,-0.32 1.02,-0.33 m 42.37,-99.95 v 0 l 0.16,0.22 0.35,0.48 0.5,0.69 0.6,0.83 0.63,0.87 m -17.2,12.49 -0.63,-0.87 -0.6,-0.83 -0.5,-0.69 -0.35,-0.48 -0.15,-0.21 -0.01,-0.01 m 74.42,159.81 v 1.07 1.02 0.86 0.59 0.26 0.01 m 33.72,-173.02 0.63,-0.87 0.6,-0.83 0.5,-0.69 0.35,-0.48 0.15,-0.21 0.01,-0.01 m 42.37,99.95 1.02,0.33 0.97,0.32 0.81,0.27 0.56,0.18 0.25,0.08 h 0.01 m -174.97,19.04 -1.02,0.33 -0.97,0.32 -0.81,0.26 -0.56,0.18 -0.25,0.08 h -0.01 m 149.08,50.17 v 0.04 0.23 0.41 0.52 m 0,0 v 0.55 0.5 0.38 0.19 0.02 m 2.37,-4.55 h 0.01 l 0.17,0.05 0.35,0.11 0.47,0.15 0.52,0.17 0.5,0.16 0.4,0.13 0.23,0.08 0.05,0.02 m -78.5,-218.93 -0.08,-0.03 -0.7,-0.03 -0.84,0.25 -0.85,0.49 -0.73,0.66 -0.5,0.72 -0.19,0.68 v 0.09 m 24.61,-2.83 0.47,-0.08 0.8,0.14 0.86,0.4 0.79,0.6 0.6,0.71 0.32,0.71 0.04,0.35 m -18.5,23.43 4.23,-0.41 4.27,0.4 m -6.42,-17.5 0.9,0.89 0.55,0.3 0.65,0.14 0.58,-0.06 0.61,-0.25 0.79,-0.64 0.31,-0.38 m -9.03,9.69 0.36,-0.34 0.38,-0.64 0.14,-0.7 -0.1,-0.61 -0.33,-0.63 m -1.86,-2 0.01,-0.07 0.09,-0.01 0.21,0.11 0.38,0.37 0.24,0.31 m 0.01,-0.01 0.94,1.29 m 4.17,-6.76 -0.17,-0.23 m -0.01,0 -0.31,-0.44 -0.07,-0.11 m 0,-0.01 -0.07,-0.1 m 5.63,-0.02 -0.08,0.11 -0.21,0.32 -0.17,0.23 m 0.01,0.01 -0.18,0.24 m 4.17,6.76 0.94,-1.29 m -0.01,0 0.55,-0.62 0.22,-0.15 0.15,-0.01 0.02,0.09 -0.07,0.18 m -3.92,12.52 -1.05,-0.16 -1.06,-0.12 -1.06,-0.07 -1.06,-0.02 -1.06,0.02 -1.06,0.07 -1.06,0.12 -1.05,0.16 m 10.58,-10.72 -0.35,0.72 -0.06,0.68 0.2,0.69 0.38,0.57 0.31,0.28 m -24.83,16.13 -0.02,-0.03 -0.2,-0.28 m -0.01,0 -0.4,-0.55 -0.53,-0.73 -0.59,-0.8 -0.55,-0.75 -0.43,-0.59 -0.24,-0.33 -0.04,-0.05 m 16.79,-4.25 v 0 h -0.03 m 0.01,0.01 -0.03,-0.03 0.05,-0.11 0.11,-0.16 0.26,-0.32 0.56,-0.54 0.62,-0.49 m 1.18,-0.86 -1.18,0.86 m -4.26,-6.01 -0.21,0.17 m 8.62,4.98 -0.76,-0.39 -0.86,-0.11 -0.77,0.18 -0.58,0.33 m 19.47,10.85 0.12,-0.16 0.32,-0.45 0.49,-0.67 0.57,-0.79 0.57,-0.79 0.49,-0.67 0.33,-0.45 0.11,-0.16 m -13.85,-11.71 -0.21,-0.17 m -4.27,6.02 -1.18,-0.86 m 1.18,0.86 0.9,0.74 0.35,0.36 0.26,0.33 0.08,0.14 0.01,0.07 h -0.02 m 0,0.01 -0.03,-0.01 m -131.51,73.79 -0.05,0.07 -0.24,0.66 -0.02,0.88 0.2,0.96 0.4,0.9 0.53,0.7 0.58,0.39 0.09,0.03 m 4.92,-24.2999999 0.07,-0.47 0.38,-0.72 0.65,-0.7 0.82,-0.57 0.86,-0.36 0.77,-0.09 0.34,0.07 m 16.57,24.8599999 0.92,-4.15 1.7,-3.94 m -18.63,0.71 1.12,-0.58 0.45,-0.43 0.33,-0.57 0.12,-0.57 -0.05,-0.65 -0.36,-0.95 -0.26,-0.41 m 6.43,11.56 -0.21,-0.45 -0.49,-0.56 -0.62,-0.35 -0.61,-0.1 -0.7,0.11 m -2.48,1.17 -0.07,-0.04 0.01,-0.09 0.17,-0.17 0.47,-0.25 0.37,-0.14 m 0,0.02 1.52,-0.49 m -5.14,-6.06 -0.27,0.09 m -0.01,0 -0.52,0.16 -0.13,0.04 m 0,-0.01 -0.12,0.04 m 1.73,-5.3600003 0.08,0.11 0.24,0.3 0.17,0.2300003 m 0,0 0.18,0.24 m 7.72,-1.8700003 -0.94,-1.29 m 0,0 -0.42,-0.71 -0.07,-0.26 0.04,-0.15 0.09,0.01 0.15,0.12 m 10.68,7.6000003 -0.48,0.95 -0.44,0.97 -0.4,0.99 -0.35,1.01 -0.31,1.02 -0.26,1.03 -0.22,1.04 -0.17,1.05 m -6.9,-13.3800003 0.57,0.55 0.62,0.27 0.72,0.03 0.66,-0.18 0.36,-0.2 m 7.68,28.5800003 -0.03,0.01 -0.33,0.11 m -0.01,-0.01 -0.65,0.21 -0.86,0.28 -0.95,0.31 -0.89,0.29 -0.69,0.22 -0.39,0.13 -0.07,0.02 m 1.18,-17.26 v -0.01 0.04 m 0,-0.01 -0.04,0.02 -0.09,-0.08 -0.12,-0.15 -0.22,-0.35 -0.34,-0.7 -0.28,-0.75 m -0.45,-1.38 0.45,1.38 m -7.03,2.2 0.1,0.25 m 7.4,-6.65 -0.61,0.61 -0.37,0.78 -0.07,0.78 0.13,0.65 m 16.35,-15.1699999 -0.11,-0.16 -0.32,-0.45 -0.49,-0.67 -0.57,-0.79 -0.57,-0.79 -0.49,-0.67 -0.32,-0.45 -0.11,-0.16 m -15.45,9.5699996 -0.23,0.15 m 4.41,5.9100003 -1.18,0.86 m 1.18,-0.86 0.99,-0.63 0.45,-0.22 0.4,-0.14 0.16,-0.03 0.07,0.02 v 0.02 m -0.02,-0.01 -0.01,0.02 m 218.75,-13.9499999 v -0.08 l -0.19,-0.68 -0.5,-0.72 -0.73,-0.66 -0.85,-0.49 -0.84,-0.25 -0.7,0.03 -0.09,0.03 m 10.3,22.5299999 0.22,0.43 0.11,0.8 -0.11,0.94 -0.33,0.94 -0.49,0.79 -0.57,0.53 -0.32,0.14 m -28.01,-10.35 1.69,3.9 0.94,4.18 m 14.67,-11.53 -0.57,1.13 -0.11,0.61 0.07,0.66 0.23,0.53 0.43,0.5 0.85,0.55 0.46,0.18 m -12.01,-5.5700003 0.44,0.24 0.73,0.17 0.71,-0.08 0.55,-0.28 0.5,-0.51 m 1.31,-2.4 0.07,-0.01 0.04,0.08 -0.04,0.24 -0.23,0.47 -0.22,0.33 m 0,0 -0.94,1.29 m 7.73,1.8700003 0.17,-0.23 m 0,0 0.33,-0.4300003 0.08,-0.1 m 0,-0.01 0.08,-0.1 m 1.75,5.3500003 -0.13,-0.04 -0.37,-0.11 -0.28,-0.09 m 0,0.02 -0.29,-0.09 m -5.14,6.05 1.52,0.49 m 0,0 0.76,0.33 0.21,0.17 0.06,0.14 -0.08,0.05 -0.19,-0.01 m -13.12,0.12 -0.17,-1.05 -0.22,-1.04 -0.26,-1.03 -0.31,-1.02 -0.35,-1.01 -0.39,-0.99 -0.44,-0.97 -0.48,-0.95 m 13.46,6.77 -0.79,-0.11 -0.66,0.15 -0.6,0.4 -0.43,0.54 -0.17,0.38 m -23,-18.6299999 0.02,-0.03 0.2,-0.28 m 0,0 0.4,-0.55 0.53,-0.73 0.58,-0.8 0.55,-0.75 0.43,-0.59 0.24,-0.33 0.04,-0.05 m 9.21,14.6399999 v 0 l -0.01,-0.02 m 0,-0.01 0.02,-0.04 0.12,0.01 0.19,0.05 0.38,0.15 0.69,0.37 0.66,0.44 m 1.17,0.87 -1.18,-0.86 m 4.41,-5.9100003 -0.23,-0.15 m -2.08,9.7400003 0.14,-0.85 -0.16,-0.85 -0.4,-0.67 -0.49,-0.45 m -4.31,21.88 0.18,0.06 0.53,0.17 0.79,0.26 0.93,0.3 0.93,0.3 0.79,0.26 0.53,0.17 0.18,0.06 m 6.85,-16.81 0.1,-0.25 m -7.04,-2.2 0.45,-1.38 m -0.45,1.38 -0.43,1.09 -0.23,0.44 -0.24,0.35 -0.11,0.12 -0.06,0.03 -0.01,-0.02 m 0,0 v -0.03 m -168.77,139.87 0.05,0.07 0.55,0.43 0.83,0.29 0.98,0.1 0.98,-0.1 0.83,-0.29 0.55,-0.43 0.05,-0.07 m -21.58,-12.18 -0.43,-0.22 -0.56,-0.58 -0.46,-0.83 -0.29,-0.95 -0.07,-0.93 0.15,-0.76 0.17,-0.3 m 28.75,-8.09 -3.66,-2.16 -3.22,-2.83 m -5.09,17.94 -0.2,-1.25 -0.27,-0.56 -0.44,-0.49 -0.5,-0.29 -0.64,-0.15 -1.01,0.05 -0.47,0.12 m 12.97,-2.54 -0.49,0.06 -0.69,0.3 -0.52,0.48 -0.28,0.55 -0.11,0.7 m 0.34,2.71 -0.05,0.05 -0.08,-0.04 -0.11,-0.21 -0.09,-0.52 -0.02,-0.39 m 0.01,0 v -1.6 m -7.35,3.02 v 0.29 m 0,0 -0.01,0.54 -0.01,0.13 m 0,0.01 v 0.12 m -4.56,-3.29 0.13,-0.05 0.36,-0.13 0.27,-0.09 m 0,0 0.29,-0.09 m 0.6,-7.93 -1.52,0.49 m 0,0 -0.81,0.18 -0.27,-0.01 -0.13,-0.08 0.04,-0.09 0.16,-0.11 m 10.54,-7.8 0.76,0.75 0.79,0.71 0.82,0.68 0.85,0.64 0.87,0.61 0.9,0.57 0.92,0.53 0.95,0.49 m -14.87,2.44 0.71,-0.37 0.45,-0.51 0.25,-0.68 0.03,-0.69 -0.08,-0.41 m 29.54,1.55 v 0.03 0.35 m 0,0 v 0.68 0.91 0.99 0.93 0.73 0.41 0.07 m -16.06,-6.44 v 0 l 0.02,0.01 m 0,0 0.01,0.04 -0.1,0.06 -0.18,0.07 -0.4,0.1 -0.77,0.11 -0.79,0.03 m -1.47,0 h 1.46 m -0.09,7.37 0.27,-0.01 m -4.04,-9.11 0.39,0.77 0.63,0.59 0.72,0.31 0.66,0.08 m -9.37,-20.23 -0.18,0.06 -0.53,0.17 -0.79,0.26 -0.93,0.3 -0.93,0.3 -0.79,0.26 -0.53,0.17 -0.18,0.06 m 4.33,17.62 0.07,0.26 m 6.98,-2.36 0.45,1.39 m -0.45,-1.39 -0.29,-1.13 -0.07,-0.49 -0.01,-0.42 0.02,-0.16 0.04,-0.06 0.02,0.01 m -0.01,-0.01 0.02,0.02 m 207.12,96.55 0.08,-0.03 0.58,-0.39 0.53,-0.7 0.4,-0.9 0.21,-0.96 -0.02,-0.88 -0.24,-0.66 -0.05,-0.07 m -18.26,16.77 -0.34,0.34 -0.73,0.36 -0.93,0.18 -0.99,-0.02 -0.91,-0.22 -0.68,-0.38 -0.24,-0.26 m 1.21,-29.85 -3.19,2.82 -3.69,2.19 m 15.5,10.38 -1.25,-0.19 -0.62,0.08 -0.61,0.27 -0.43,0.38 -0.34,0.56 -0.26,0.98 -0.03,0.49 m 1.59,-13.13 -0.09,0.49 0.07,0.74 0.3,0.65 0.43,0.44 0.64,0.32 m 2.68,0.51 0.03,0.07 -0.07,0.06 -0.23,0.03 -0.52,-0.07 -0.38,-0.11 m 0,0 -1.52,-0.49 m 0.61,7.92 0.28,0.09 m -0.01,0 0.51,0.18 0.12,0.05 m 0.01,-0.01 0.12,0.04 m -4.55,3.33 -0.01,-0.14 -0.01,-0.38 v -0.29 m 0,0 v -0.3 m -7.35,-3.02 v 1.59 m 0,0 -0.08,0.82 -0.09,0.25 -0.12,0.1 -0.07,-0.06 -0.05,-0.18 m -4.17,-12.44 0.95,-0.49 0.92,-0.53 0.9,-0.57 0.88,-0.61 0.85,-0.64 0.82,-0.68 0.79,-0.72 0.76,-0.75 m -2.29,14.91 -0.14,-0.79 -0.35,-0.58 -0.57,-0.45 -0.65,-0.24 -0.41,-0.05 m 10.61,-27.63 0.03,0.01 0.33,0.11 m 0.01,0 0.65,0.21 0.86,0.28 0.95,0.31 0.89,0.29 0.69,0.23 0.39,0.13 0.07,0.02 m -11.1,13.27 v 0 l 0.02,-0.02 m -0.01,0 0.04,0.01 0.03,0.11 0.01,0.19 -0.03,0.41 -0.14,0.77 -0.22,0.77 m -0.44,1.39 0.45,-1.38 m 6.98,2.35 0.07,-0.26 m -9.9,1.03 0.85,-0.13 0.76,-0.42 0.51,-0.59 0.28,-0.61 m -22.14,2.67 v 0.19 0.55 0.83 0.98 0.98 0.83 0.55 0.19 m 18.1,1.34 0.27,0.01 m -0.09,-7.37 h 1.46 m -1.46,0 -1.17,-0.07 -0.49,-0.09 -0.41,-0.12 -0.15,-0.07 -0.05,-0.05 0.02,-0.01 m 0.01,0 0.03,-0.01 m -159.65,-169.95 -0.1,1.32 -0.07,1.32 -0.03,1.32 0.01,1.32 0.05,1.32 0.09,1.32 0.13,1.31 0.17,1.31 m 40.58,-50.8200003 -1.32,0.12 -1.31,0.17 -1.31,0.2 -1.3,0.24 -1.29,0.28 -1.28,0.32 -1.27,0.36 -1.26,0.39 m -22.79,67.7300003 0.77,1.08 0.8,1.05 0.83,1.03 0.86,1 0.89,0.98 0.92,0.95 0.94,0.92 0.97,0.89 m 72.9,-44.49 -0.35,-1.27 -0.39,-1.26 -0.43,-1.25 -0.46,-1.24 -0.5,-1.22 -0.54,-1.21 -0.57,-1.19 -0.61,-1.17 m 3.11,34.84 0.18,-0.57 0.17,-0.58 0.17,-0.58 0.16,-0.58 0.15,-0.58 0.14,-0.58 0.13,-0.59 0.13,-0.59 m -3.36,9.99 0.3,-0.65 0.29,-0.66 0.28,-0.66 0.27,-0.67 0.26,-0.67 0.25,-0.67 0.24,-0.68 0.23,-0.68 m -73.75,-45.54 -0.93,0.94 -0.9,0.97 -0.87,0.99 -0.84,1.02 -0.81,1.04 -0.78,1.07 -0.74,1.09 -0.71,1.11 m 26.07,66.54 1.28,0.33 1.29,0.29 1.3,0.25 1.3,0.22 1.31,0.18 1.31,0.14 1.32,0.1 1.32,0.06 m 27.25,-80.95 -1.09,-0.75 -1.11,-0.72 -1.13,-0.68 -1.15,-0.65 -1.17,-0.62 -1.19,-0.5800003 -1.2,-0.55 -1.22,-0.51 m 2,81.9800003 1.19,-0.57 1.17,-0.6 1.16,-0.64 1.14,-0.67 1.12,-0.7 1.1,-0.74 1.07,-0.77 1.05,-0.8 m -41.56,-77.4400003 -0.51,0.17 -1.02,0.23 -0.79,0.07 m -27.86,48.3200003 0.07,0.53 0.04,1.04 -0.07,0.79 m 83.42,-29.9 -0.25,-0.47 -0.4,-0.97 -0.21,-0.77 m -39.79,67.94 0.54,0.02 1.04,0.14 0.77,0.2 m -38.95,-68.43 -0.28,0.46 -0.64,0.83 -0.56,0.56 m 55.96,-19.8300003 -0.5,-0.2 -0.93,-0.48 -0.65,-0.45 m -44.15,75.8700003 0.4,0.36 0.7,0.77 0.46,0.65 m 71.83,-25.99 0.11,-0.52 0.32,-1 0.33,-0.72 m -16.82,28.19 0.42,-0.33 0.88,-0.56 0.72,-0.34 m 9.96,-12.79 0.17,-0.63 0.35,-0.9 0.2,-0.4 m -12.76,-54.44 -0.59,-0.28 -0.83,-0.5 -0.36,-0.26 m -8.95,77.95 0.54,-0.37 0.85,-0.46 0.41,-0.18 m -20.25,-85.3499999 -0.63,0.1599996 -0.96,0.15 -0.45,0.03 m -10.16,87.1300003 0.65,0.06 0.95,0.19 0.43,0.12 m -18.26,-76.32 -0.38,0.53 -0.64,0.73 -0.32,0.31 m -13.03,25.52 0.05,0.65 -0.02,0.97 -0.05,0.44 m 88.28,-5.23 -0.27,-0.59 -0.31,-0.92 -0.11,-0.43 m -81.16,35.11 0.45,0.46 0.61,0.76 0.25,0.37 m -2.41,-46.28 -0.01,-0.03 m 22.58,-20.2200003 0.01,-0.03 m 60.41,47.4200003 0.02,0.02 m -14.3,26.73 v 0.03 m -28.14,11.28 -0.02,0.02 m -28.81,-9.45 h -0.03 m -15.99,-25.74 -0.02,-0.02 m 57.18,-51.2600003 0.03,-0.01 m 23.83,18.7200003 0.03,0.01 m -66.72,-9.99 0.2,-0.01 -0.02,-0.01 m 72.33,24.97 -0.1,0.17 0.02,-0.01 m -4.65,29.75 -0.18,0.07 0.02,0.01 m -82.3,-28.45 0.15,-0.13 h -0.02 m 5.66,29.86 0.03,-0.2 -0.02,0.01 m 37.15,-66.8900003 0.16,0.12 v -0.02 m 16.5,85.5000003 -0.19,-0.06 0.01,0.02 m -30.1,0.57 -0.1,-0.17 v 0.02 m 42.36,-76.12 0.04,0.19 0.01,-0.02 m 20.17,34.16 -0.05,-0.07 -0.1,-0.22 -0.12,-0.42 -0.08,-0.52 -0.02,-0.31 m 0.01,0 -0.01,-0.23 0.03,-0.53 0.07,-0.41 0.08,-0.22 0.01,-0.01 m -39.63,-44.3499999 -0.07,0.03 -0.23,0.06 -0.44,0.05 -0.53,-0.01 -0.31,-0.04 m 0.01,0.01 -0.22,-0.03 -0.52,-0.12 -0.39,-0.14 -0.21,-0.11 -0.01,-0.01 m -29.46,6.0799996 -0.03,0.07 -0.14,0.2 -0.31,0.32 -0.41,0.33 -0.26,0.17 m 0,-0.01 -0.19,0.12 -0.48,0.24 -0.39,0.1400003 -0.23,0.05 h -0.01 m -18.65,23.6 0.02,0.08 0.02,0.24 -0.03,0.44 -0.1,0.52 -0.09,0.29 m 0,0 -0.07,0.22 -0.21,0.49 -0.21,0.36 -0.15,0.18 -0.01,0.01 m 0.89,30.06 0.07,0.05 0.17,0.17 0.26,0.36 0.26,0.46 0.12,0.28 m -0.02,0 0.09,0.21 0.16,0.51 0.07,0.41 0.01,0.24 v 0.01 m 19.99,22.46 0.08,-0.01 0.24,0.02 0.43,0.11 0.5,0.19 0.27,0.14 m -0.01,0 0.2,0.1 0.45,0.29 0.32,0.27 0.16,0.18 0.01,0.01 m 29.75,4.360003 0.06,-0.06 0.2,-0.14 0.4,-0.19 0.5,-0.17 0.3,-0.07 m -0.01,0 0.22,-0.05 0.53,-0.07 h 0.42 l 0.23,0.04 0.01,0.01 m 25.59,-15.800003 0.01,-0.08 0.06,-0.23 0.18,-0.4 0.27,-0.45 0.19,-0.25 m 0,0 0.14,-0.18 0.36,-0.39 0.32,-0.27 0.2,-0.12 0.01,-0.01 m -1.84,-59.43 -0.08,-0.02 -0.22,-0.1 -0.36,-0.25 -0.4,-0.35 -0.21,-0.23 m 0.01,0.01 -0.15,-0.17 -0.32,-0.43 -0.21,-0.36 -0.08,-0.22 v -0.01 m -62.11,67.98 -0.73,0.18 -6.19,1.35 m 48.04,-78.5500003 0.62,-0.42 5.36,-3.3799996 m -63.12,55.0799999 -0.68,-0.33 -5.61,-2.95 m 79.27,27.13 0.05,0.75 0.25,6.33 m 7.72,-63.5 0.75,0.08 6.28,0.85 m -61.19,-18.6300003 0.21,-0.72 1.93,-6.0399996 m 58.28,54.1299999 0.52,0.54 4.26,4.69 m -47.2,32.83 -0.45,0.61 -3.88,5.010003 m -36.24,-70.800003 -0.31,-0.69 -2.4,-5.87 m 3.66,59.64 -0.02,-2.41 0.13,-5.17 0.01,-0.1 m -0.01,0 0.1,-1.73 m -11.99,-22.65 1.53,-1.85 3.42,-3.88 0.07,-0.07 m 0.01,-0.01 1.18,-1.26 m 35.19,56.120003 -1.56,-1.83 -3.23,-4.050003 -0.06,-0.08 m 0,0.01 -1.04,-1.39 m 39.51,1.31 -2.37,-0.4 -5.08,-1.02 -0.09,-0.02 m 0,0 -1.69,-0.39 m 31.11,-24.39 -2.08,1.22 -4.54,2.48 -0.09,0.04 m 0,0 -1.54,0.78 m -77.06,-53.45 2.37,-0.43 5.12,-0.77 0.1,-0.01 m -0.01,-0.01 1.72,-0.21 m 53.88,-9.8900003 0.84,2.25 1.65,4.9100003 0.03,0.09 m 0,0 0.5,1.66 m -36.67,-14.7499999 2.09,1.19 4.42,2.7 0.08,0.05 m 0,0 1.45,0.9499996 m 47.64,27.0500003 -0.81,2.27 -1.89,4.82 -0.04,0.09 m 0.01,-0.01 -0.68,1.59 m -1.53,-22.07 -1.82,-0.19 -3.33,-0.24 m -31.32,82.52 1.08,-1.49 1.88,-2.769997 m -31.19,-93.9100029 -0.5,1.76 -0.82,3.2399996 m -25.75,55.9300003 1.65,0.8 3.05,1.37 m 82.48,19.49 -0.13,-1.83 -0.34,-3.32 m 14.87,-27.27 -1.28,-1.32 -2.4,-2.33 m -35.55,-50.2499999 -1.52,1.03 -2.71,1.96 m -37.24,90.3599999 1.78,-0.45 3.22,-0.91 m -23.43,-62.72 0.75,1.68 1.46,3.01 m 75.07,56.47 -0.01,0.04 -0.16,0.36 -0.01,0.02 m -0.01,0.01 -0.38,0.51 -0.65,0.63 -0.82,0.59 -0.9,0.48 -0.89,0.32 -0.72,0.12 -0.22,-0.02 m -28,6.770003 -0.04,0.03 -0.36,0.169997 -0.02,0.01 m 0,0 -0.62,0.15 -0.9,0.06 -1.01,-0.08 -1,-0.21 -0.88,-0.319997 -0.62,-0.37 -0.15,-0.15 m 53.17,-71.690003 0.04,0.02 0.33,0.22 0.02,0.02 m -0.01,0 0.44,0.46 0.5,0.75 0.44,0.91 0.32,0.97 0.16,0.93 -0.01,0.73 -0.06,0.21 m -88.66,-10.22 v -0.04 l 0.03,-0.4 0.01,-0.02 m -0.01,0 0.18,-0.61 0.4,-0.81 0.57,-0.84 0.68,-0.76 0.72,-0.6 0.63,-0.36 0.21,-0.06 m 24.01,-15.9399999 0.02,-0.04 0.28,-0.29 0.02,-0.01 m 0.01,0 0.54,-0.35 0.83,-0.37 0.98,-0.27 1.01,-0.14 h 0.94 l 0.71,0.13 0.2,0.09 m 57.51,60.6699999 0.02,0.04 0.11,0.38 v 0.03 m -0.01,0 0.04,0.64 -0.1,0.9 -0.25,0.98 -0.38,0.95 -0.47,0.81 -0.47,0.55 -0.18,0.12 m -27.2,-62.8499999 0.04,-0.01 0.39,-0.04 h 0.03 m 0,0 0.63,0.08 0.87,0.25 0.92,0.42 0.87,0.5399996 0.72,0.61 0.46,0.56 0.09,0.2 m -59.11,79.7300003 h -0.04 l -0.38,-0.1 -0.02,-0.01 m -0.02,-0.01 -0.57,-0.29 -0.73,-0.54 -0.73,-0.71 -0.63,-0.8 -0.47,-0.82 -0.24,-0.68 -0.02,-0.22 m -11.52,-26.39 -0.03,-0.03 -0.23,-0.32 -0.01,-0.02 m -0.01,-0.01 -0.25,-0.59 -0.22,-0.88 -0.1,-1.01 0.04,-1.02 0.17,-0.93 0.26,-0.68 0.12,-0.18 m 91.81,-30.88 0.01,0.04 0.11,0.53 -0.01,0.2 0.01,-0.01 m -64.97,-16.6199999 0.04,-0.01 0.55,-0.02 0.19,0.05 -0.01,-0.01 m -27.66,61.1099999 v -0.04 l 0.08,-0.54 0.08,-0.18 -0.01,0.01 m 62.05,-64.2399999 0.03,0.02 0.43,0.34 0.12,0.16 v -0.01 m -60.46,29.0199999 0.03,-0.03 0.41,-0.36 0.18,-0.09 h -0.01 m 98.76,24.79 -0.01,0.04 -0.26,0.48 -0.14,0.14 h 0.01 m -13.91,31.86 -0.03,0.02 -0.51,0.2 -0.2,0.02 0.01,0.01 m -31.13,15.47 -0.04,-0.01 -0.52,-0.17 -0.17,-0.11 v 0.01 m -33.78,-8.16 -0.03,-0.03 -0.29,-0.46 -0.06,-0.19 -0.01,0.01 m 30.09,15.31 v 0 l 0.3,-0.18 0.58,-0.22 0.89,-0.2 1.09,-0.12 1.1,-0.01 0.93,0.1 0.11,0.03 m 31.98,-13.48 v 0 l 0.11,-0.33 0.31,-0.54 0.55,-0.73 0.76,-0.79 0.83,-0.71 0.78,-0.52 0.1,-0.05 m 15.83,-30.88 v 0 l -0.13,-0.32 -0.12,-0.61 -0.04,-0.91 0.07,-1.1 0.18,-1.08 0.26,-0.9 0.05,-0.1 m -107.88,-32.36 v 0 l 0.01,0.35 -0.1,0.62 -0.27,0.87 -0.44,1.01 -0.54,0.95 -0.55,0.76 -0.08,0.08 m 102.14,-6.11 v 0 l -0.31,-0.17 -0.48,-0.39 -0.62,-0.67 -0.65,-0.88 -0.56,-0.95 -0.38,-0.86 -0.03,-0.11 m -67.21,-20.3700001 v 0 l -0.21,0.27 -0.47,0.4100002 -0.77,0.49 -0.98,0.49 -1.03,0.39 -0.91,0.23 -0.12,0.01 m 44.05,-2.8700002 v 0 l -0.34,0.07 -0.62,0.01 -0.91,-0.12 -1.07,-0.26 -1.03,-0.36 -0.84,-0.41 -0.09,-0.07 m -70.88,66.6500001 v 0 l 0.23,0.26 0.32,0.54 0.35,0.84 0.31,1.05 0.2,1.08 0.06,0.93 -0.01,0.11 m 18.82,29.16 v 0 l 0.35,0.05 0.59,0.21 0.81,0.420003 0.91,0.61 0.85,0.7 0.65,0.68 0.07,0.1 m 10.97,-4.630003 1.53,2.29 m 0.01,0 0.01,0.02 3.15,4.36 3.51,4.43 3.38,3.93 m 44.47,-91.130015 -0.66,-2.68 m 0,0 -0.01,-0.02 -1.47,-5.1700003 -1.78,-5.3599998 -1.83,-4.86 m 9.65,79.6600001 2.52,-1.11 m 0,0 0.02,-0.01 4.84,-2.34 4.98,-2.68 4.46,-2.65 m -50.13,-67.3600001 -2.23,-1.63 m 0.01,0 -0.02,-0.01 -4.45,-3.02 -4.81,-2.97 -4.54,-2.55 m 58.6,54.8400001 1.21,-2.47 m 0.01,-0.01 0.01,-0.02 2.2,-4.9 2.09,-5.25 1.72,-4.9 m -101.17,7.05 -1.99,1.91 m 0,0 -0.02,0.02 -3.74,3.85 -3.76,4.22 -3.3,4.03 m 70.16,46.140015 2.65,0.77 m -0.01,-0.01 0.02,0.01 5.21,1.32 5.54,1.14 5.12,0.84 m -56.41,-90.670015 -2.75,0.18 m 0,0 h -0.02 l -5.35,0.55 -5.59,0.82 -5.1,0.96 m 1.41,56.68 -0.3,2.74 m 0.01,0 v 0.02 l -0.39,5.36 -0.16,5.65 0.06,5.19 m 73.17,-89.1500001 0.31,-0.17 0.13,-0.07 m -87.19,52.0700001 -0.3,-0.18 -0.13,-0.08 m 113.28,-21.38 0.34,0.07 0.15,0.03 m -65.99,-36.6300001 0.12,-0.33 0.05,-0.14 m 65.93,76.9000001 0.22,0.27 0.09,0.12 m -25.51,30.560015 -0.01,0.35 v 0.15 m -74.04,-12.420015 -0.35,0.05 -0.15,0.02 m 35.36,19.370015 -0.23,0.26 -0.1,0.11 m -35.64,-94.800015 -0.11,-0.33 -0.05,-0.14 m 74.26,-13.9000001 v 0 l 0.13,-0.02 0.29,0.03 0.33,0.09 0.33,0.14 0.35,0.2 0.31,0.23 0.28,0.26 0.09,0.11 m 24.05,29.4800001 v 0 l 0.11,0.07 0.2,0.21 0.19,0.28 0.16,0.32 0.14,0.38 0.09,0.37 0.04,0.38 -0.01,0.14 m -0.5,38.06 v 0 l 0.04,0.12 0.02,0.29 -0.04,0.34 -0.08,0.35 -0.14,0.38 -0.17,0.34 -0.21,0.32 -0.1,0.11 m -100.17,-59.09 v 0 l 0.01,-0.13 0.08,-0.28 0.15,-0.31 0.2,-0.3 0.26,-0.31 0.28,-0.26 0.31,-0.23 0.12,-0.07 m 34.4,97.180015 v 0 l -0.12,0.06 -0.28,0.07 -0.34,0.02 -0.36,-0.02 -0.4,-0.07 -0.37,-0.11 -0.35,-0.15 -0.12,-0.08 m -32.69,-19.460015 v 0 l -0.13,-0.03 -0.26,-0.13 -0.28,-0.2 -0.26,-0.25 -0.26,-0.31 -0.21,-0.32 -0.17,-0.34 -0.04,-0.14 m 35.44,-94.2900001 v 0.01 l 0.09,-0.11 0.24,-0.17 0.31,-0.14 0.34,-0.1 0.4,-0.07 0.38,-0.02 0.38,0.02 0.14,0.03 m 38.44,108.9100151 v -0.01 l -0.05,0.13 -0.17,0.24 -0.25,0.24 -0.29,0.21 -0.35,0.2 -0.35,0.15 -0.37,0.11 -0.14,0.02 m -86.72,-51.270015 h 0.01 l -0.09,-0.11 -0.12,-0.27 -0.08,-0.33 -0.04,-0.36 v -0.4 l 0.05,-0.38 0.09,-0.37 0.05,-0.13 m 118.6,-5.05 v 0 l 0.13,0.12 0.04,0.07 m -118.29,-7.44 v 0 l -0.09,-0.16 -0.02,-0.08 m 4.75,41.08 v 0 l -0.17,-0.07 -0.06,-0.05 m 104.11,6.49 v 0 l 0.03,0.18 -0.01,0.08 m -46.44,-93.4100001 v 0 l 0.14,-0.1099999 0.07,-0.03 m -27.86,115.220015 v 0 l -0.17,0.05 -0.08,0.01 m -11.51,-103.4700151 v 0 l 0.04,-0.18 0.04,-0.07 m 77.02,4.9799998 v 0 l 0.18,0.01 0.08,0.02 m -24.57,101.1600153 v 0 l -0.1,0.15 -0.06,0.05 m -80.63,-68.280015 0.02,0.05 0.14,0.62 0.08,0.96 -0.03,1.21 -0.13,1.13 -0.2,0.97 -0.22,0.66 -0.04,0.07 m 8.56,37.74 0.05,0.03 0.51,0.39 0.68,0.68 0.76,0.94 0.63,0.94 0.47,0.87 0.26,0.65 0.02,0.08 m 108.48,-5.88 v -0.06 l 0.08,-0.63 0.25,-0.93 0.44,-1.12 0.5,-1.01 0.52,-0.84 0.43,-0.55 0.06,-0.05 m -100.68,-75.4400001 -0.02,0.06 -0.29,0.57 -0.56,0.79 -0.79,0.91 -0.82,0.78 -0.77,0.61 -0.59,0.37 -0.07,0.03 m 45.25,-19.7099999 -0.05,0.03 -0.59,0.25 -0.93,0.25 -1.19,0.18 -1.13,0.07 -0.99,-0.03 -0.69,-0.1 -0.07,-0.02 m -14.99,124.890015 0.06,-0.01 0.64,-0.03 0.96,0.09 1.18,0.24 1.09,0.32 0.92,0.37 0.61,0.33 0.06,0.05 m 79.33,-74.260015 -0.04,-0.04 -0.35,-0.54 -0.4,-0.88 -0.39,-1.14 -0.27,-1.1 -0.14,-0.98 -0.02,-0.7 0.01,-0.08 m -39.07,77.850015 0.03,-0.05 0.47,-0.44 0.79,-0.55 1.06,-0.58 1.04,-0.45 0.94,-0.31 0.68,-0.14 h 0.08 m 13.05,-107.8700151 -0.06,-0.01 -0.61,-0.19 -0.87,-0.41 -1.03,-0.63 -0.91,-0.67 -0.74,-0.66 -0.46,-0.52 -0.04,-0.07 m 0.06,0.12 -0.3,-0.38 -0.9,-1.12 m -99.12,49.5800001 -0.18,0.44 -0.52,1.34 m 12.53,40.54 0.15,0.46 0.47,1.36 m 45.31,-103.14 -0.47,-0.1 -1.41,-0.28 m 35.93,122.210015 0.48,-0.07 1.42,-0.22 m 28.83,-31.100015 0.32,-0.36 0.95,-1.08 m -75.73,37.130015 0.41,0.25 1.23,0.74 m -31.58,-108.1300151 -0.42,0.22 -1.26,0.6999998 m 109.44,26.7200003 0.02,-0.48 0.03,-1.44 m -128.36,24.78 3.25,1.88 6.27,3.4 0.05,0.02 m 85.29,-71.2 -3.25,1.8799999 -6.08,3.73 -0.05,0.03 m -73.51,16.2400001 1.28,3.53 2.61,6.63 0.02,0.05 m 111.05,0.27 -3.63,-0.64 -7.05,-1.05 -0.06,-0.01 m -55.75,96.030015 2.38,-2.83 4.44,-5.58 0.03,-0.05 m -48.1,-10.93 3.63,-0.64 6.99,-1.420015 0.06,-0.01 m 100.89,-27.46 -2.37,-2.83 -4.73,-5.34 -0.04,-0.04 m -19.12,45.530015 v -3.76 l -0.19,-7.130015 v -0.06 m -54.88,-108.29 -1.28,3.52 -2.26,6.7599999 -0.02,0.06 m 6.9,116.7100151 -1.32,1.46 -0.57,0.61 m 7.02,-128.110015 0.74,-1.82 0.33,-0.77 m 66.72,90.39 1.21,1.55 0.5,0.66 m -108.3,-69.6700003 -0.6,-1.8699998 -0.24,-0.8 m 77.93,102.5200151 -0.07,1.96 -0.04,0.83 m -80.32,-20.370015 -1.95,0.27 -0.82,0.1 m 87.71,-93.6300001 1.74,-0.92 0.74,-0.38 m -100.72,52.8100001 -1.66,-1.05 -0.7,-0.45 m 127.38,-15.33 1.92,0.41 0.81,0.19 m -80.67,-45.55 0.1,0.02 0.31,0.11 v -0.01 m 54.42,118.990015 -0.1,0.02 h -0.33 v 0.01 m -84.79,-7.91 -0.04,-0.1 -0.06,-0.32 -0.01,0.01 m 111.63,-28.890015 -0.07,0.08 -0.25,0.21 0.01,0.01 m -3.43,-45.68 v 0.1 l -0.06,0.32 h 0.01 m -114.78,-11.03 0.09,-0.05 0.31,-0.11 -0.01,-0.01 m -12.39,44.1 0.03,-0.1 0.16,-0.28 h -0.01 m 60.05,61.190015 -0.09,-0.05 -0.25,-0.21 v 0.01 m 34.89,-126.240015 0.07,0.08 0.16,0.2799999 0.01,-0.01 m -96.54,55.7900001 -0.3,0.1 -0.32,0.27 -0.33,0.5 m 53,68.540015 0.03,0.78 m 0.01,0.01 0.05,0.31 0.21,0.36 0.44,0.41 m -52.03,-71.460015 -0.76,0.16 m 105.32,-52.6800001 0.06,-0.31 -0.07,-0.41 -0.27,-0.53 m -86.56,11.27 -0.29,-0.11 h -0.42 l -0.57,0.18 m 1.99,0.29 -0.69,-0.37 m 41.89,-20.0799999 -0.29,-0.72 m -0.02,0 -0.15,-0.27 -0.32,-0.27 -0.55,-0.23 m -45.32,108.21 -0.48,0.62 m 85.04,20.300015 0.24,0.21 0.39,0.15 0.6,0.03 m 33.51,-80.600015 0.24,-0.2 0.21,-0.36 0.13,-0.58 m -1.24,1.57 0.66,-0.41 m -3.56,46.31 0.77,0.11 m -25.16,-83.0400001 0.24,-0.74 m -92.06,97.2600001 -0.16,0.27 -0.08,0.41 0.07,0.6 m 84.66,18.430015 0.52,0.58 m 31.99,-33.780015 0.31,0.01 0.4,-0.14 0.48,-0.36 m -2.6,0 0.12,0.18 0.4,0.2 h 0.1 m -109.84,-72.7200001 -0.06,-0.21 -0.31,-0.33 -0.1,-0.04 m -4.77,85.9300001 -0.21,0.02 -0.38,0.25 -0.05,0.09 m 46.6,-106 0.09,-0.2 -0.03,-0.45 -0.05,-0.09 m -8.04,131.500015 -0.15,0.15 -0.13,0.43 0.02,0.1 m -50.59,-69.430015 -0.18,-0.12 -0.45,-0.05 -0.1,0.03 m 130.9,-14.66 0.21,0.05 0.44,-0.11 0.08,-0.06 m -27.78,-36.4600001 0.2,-0.09 0.27,-0.36 0.02,-0.1 m -7.56,115.5400151 -0.02,0.22 0.18,0.42 0.08,0.07 m -84.67,-18.440015 0.22,0.85 0.52,1.86 m 3.36,-91.1900001 -0.8,0.36 -1.75,0.83 m 118.98,24.9400001 0.08,-0.87 0.15,-1.93 m -134.81,20.16 -0.38,0.79 -0.8,1.76 m 101.66,61.830015 0.87,-0.07 1.93,-0.18 m 2.71,-118.9500151 -0.49,-0.72 -1.12,-1.5799999 m -50.65,127.530015 0.71,0.51 1.59,1.1 m 3.98,-137.160015 -0.84,-0.23 -1.87,-0.49 m 75.11,95.58 0.62,-0.61 1.36,-1.38 m -124.1,-38.8 -0.98,-3.05 -1.67,-5.99 -1.51,-6.72 m 27.02,-18.5300001 1.21,-2.97 2.57,-5.67 3.16,-6.1199999 m 32.61,3.19 2.84,-1.49 5.61,-2.68 6.36,-2.66 m -1.77,124.770015 -2.16,2.38 -4.36,4.44 -5.06,4.67 m 44.79,-35.900015 -0.12,3.21 -0.48,6.2 -0.88,6.830015 m 11.23,-56.270015 1.96,2.54 3.62,5.06 3.72,5.8 m -93.38,48.380015 -3.18,0.43 -6.19,0.6 -6.88,0.32 m -13.55,-29.810015 -2.71,-1.71 -5.13,-3.52 -5.48,-4.18 m 108.93,-60.8500003 3.13,0.68 6.03,1.55 6.58,2.0500003 m -81.21,-26.15 1.75,0.21 5.2,0.82 m -51.67,76.54 0.51,-1.69 1.72,-4.98 m 66.4,64.170015 -1.57,-0.8 -4.61,-2.55 m 50.93,-12.97 -1.72,0.4 -5.17,1.01 m -14.13,-120.190015 1.21,1.29 3.46,3.98 m -73.18,113.570015 -0.69,-1.62 -1.89,-4.92 m 115.91,-34.790015 -1.06,1.41 -3.32,4.1 m -124.56,-52.34 1.48,-0.96 4.52,-2.71 m 114.63,3.59 0.1,1.76 0.09,5.27 m -130.12,28.09 -0.01,-0.02 -0.16,-0.27 -0.18,-0.53 -0.03,-0.17 m 16.51,-43.8400003 v -0.02 l 0.05,-0.3099998 0.2,-0.52 0.09,-0.15 m 40.82,-22.9699999 0.01,-0.01 0.24,-0.2 0.49,-0.27 0.16,-0.06 m 76.98,92.65 v 0.02 l 0.06,0.31 -0.01,0.56 -0.03,0.17 m -118.73,20.33 -0.02,-0.01 -0.3,-0.11 -0.48,-0.29 -0.13,-0.11 m 88.71,-104.88 h 0.02 0.31 l 0.55,0.11 0.16,0.06 m -0.59,120.450015 -0.01,0.02 -0.15,0.27 -0.37,0.42 -0.14,0.11 m 30.98,-85.060015 0.01,0.01 0.24,0.2 0.35,0.44 0.09,0.15 m -77.89,91.890015 -0.02,0.01 -0.29,0.11 -0.55,0.08 h -0.17 m 31.58,-135.780015 0.29,-0.08 0.66,-0.04 0.95,0.11 1.04,0.28 0.96,0.4 0.76,0.46 0.39,0.35 m -91.09,82.74 -0.21,-0.21 -0.36,-0.56 -0.38,-0.88 -0.28,-1.04 -0.13,-1.03 0.02,-0.89 0.11,-0.51 m 117.19,37.520015 -0.07,0.29 -0.3,0.59 -0.57,0.77 -0.76,0.76 -0.83,0.63 -0.78,0.43 -0.49,0.16 m 12.54,-92.570015 0.27,0.12 0.53,0.4 0.65,0.69 0.62,0.88 0.47,0.92 0.29,0.85 0.07,0.51 m -54.95,104.210015 -0.24,0.17 -0.61,0.26 -0.93,0.22 -1.07,0.1 -1.04,-0.05 -0.88,-0.17 -0.48,-0.19 m -40.55,-13.14 -0.29,-0.02 -0.63,-0.19 -0.85,-0.43 -0.89,-0.62 -0.76,-0.7 -0.56,-0.7 -0.24,-0.46 m 16,-116.700015 0.17,-0.24 0.49,-0.45 0.8,-0.53 0.98,-0.46 0.99,-0.31 0.88,-0.14 0.52,0.02 m -38.81,35.37 -0.03,-0.29 0.08,-0.66 0.27,-0.91 0.46,-0.98 0.56,-0.87 0.59,-0.67 0.41,-0.32 m 129.52,41.54 0.13,0.27 0.15,0.65 0.05,0.95 -0.09,1.07 -0.23,1.01 -0.32,0.83 -0.27,0.44 m -9.59,-57.6800001 -2.81,-0.84 -0.5,-0.13 m -95.53,109.7400151 2.93,-0.17 0.51,-0.05 m 110.96,-59.930015 -1.61,-2.45 -0.3,-0.42 m -141.72,-28.35 0.68,2.85 0.14,0.49 m 84.09,-47.99 -2.69,1.16 -0.46,0.22 m -83.77,94.27 2.35,1.75 0.42,0.29 m 33.57,-90.82 -1.32,2.62 -0.21,0.47 m 46.31,136.900015 2.13,-2.01 0.36,-0.37 m 42.69,-21.38 0.34,-2.91 0.04,-0.51 m -46.01,27.02 -0.05,-0.01 -0.22,-0.12 0.01,0.01 m 49.76,-118.8600151 0.01,0.05 v 0.25 l 0.01,-0.01 m -130.11,67.1700001 0.01,-0.05 0.08,-0.24 -0.01,0.01 m 36.66,-88.03 h 0.05 l 0.25,0.04 -0.01,-0.01 m 50.18,-6.59 0.04,0.03 0.17,0.19 v -0.02 m 38.35,122.760015 -0.04,0.02 -0.25,0.05 0.01,0.01 m -123.19,-79.010015 0.04,-0.03 0.22,-0.13 h -0.01 m 142.77,32.1 -0.02,0.04 -0.16,0.2 h 0.02 m -114.24,59.090015 -0.02,-0.04 -0.09,-0.23 v 0.01 m -10.45,-7.88 0.69,1.68 2.03,4.52 m -25.94,-51.510015 -0.55,1.73 -1.35,4.77 m 120.68,43.590015 1.78,-0.38 4.81,-1.21 m 14.71,-91.690015 -0.07,-1.82 -0.36,-4.9400003 m 6.76,57.2800003 1.11,-1.44 2.9,-4.02 m -139.08,-51.5000003 -1.54,0.9700003 -4.1,2.78 m 64.43,110.970015 1.61,0.85 4.46,2.16 m 26.57,-145.920015 -1.22,-1.35 -3.45,-3.56 m -46.17,2.37 -1.8,-0.25 -4.93,-0.51 m 87.11,23.2199999 0.17,0.86 0.47,2.6 m -96.87,-20.8199999 0.88,-0.02 2.64,-0.01 m -37.32,91.78 0.14,-0.87 0.45,-2.6 m 129.05,26.860015 -0.82,0.32 -2.48,0.92 m -93.06,15.36 -0.46,-0.75 -1.33,-2.28 m 116.14,-62.390015 -0.42,0.77 -1.31,2.29 m -61.42,71.590015 -0.83,-0.28 -2.49,-0.89 m 3.91,-148.630015 0.69,0.55 2.03,1.69 m -87.59,46.31 0.66,-0.58 2.01,-1.71 m 125.8,-21.9300001 0.03,0.02 0.3,0.24 0.3,0.3 0.28,0.35 0.23,0.37 0.16,0.37 0.05,0.19 m -129.39,76.6200001 -0.02,-0.02 -0.2,-0.33 -0.18,-0.38 -0.14,-0.43 -0.09,-0.42 -0.03,-0.4 0.02,-0.2 m 131.25,21.700015 -0.01,0.03 -0.19,0.34 -0.24,0.34 -0.3,0.33 -0.32,0.29 -0.33,0.22 -0.18,0.08 m -130.4,-73.280015 v -0.03 l 0.06,-0.39 0.11,-0.4 0.17,-0.42 0.21,-0.38 0.24,-0.33 0.15,-0.14 m 147.58,24.28 0.01,0.03 0.08,0.38 0.03,0.42 -0.02,0.45 -0.06,0.43 -0.11,0.39 -0.09,0.18 m -112.44,66.720015 -0.03,-0.01 -0.37,-0.12 -0.38,-0.18 -0.38,-0.24 -0.34,-0.27 -0.28,-0.29 -0.11,-0.17 m 49.54,-141.130015 0.03,-0.01 0.39,-0.01 0.42,0.04 0.44,0.09 0.41,0.14 0.36,0.18 0.16,0.12 m -53.32,9.85 0.02,-0.03 0.29,-0.26 0.35,-0.24 0.4,-0.21 0.4,-0.16 0.39,-0.1 0.2,-0.01 m 52.99,140.730015 -0.03,0.02 -0.36,0.14 -0.41,0.11 -0.45,0.06 -0.43,0.01 -0.4,-0.04 -0.19,-0.06 m 52.06,-116.0200153 v 0 l 0.17,0.05 0.02,0.01 m -140.29,57.3800003 v 0 l -0.14,-0.11 -0.02,-0.02 m 46.11,-87.37 v 0 l 0.08,-0.15 0.02,-0.02 m 80.79,128.160015 v 0 l -0.03,0.17 -0.01,0.03 m -98.71,3.76 v 0 l -0.17,0.01 -0.03,-0.01 m 50.3,15.99 v 0 l -0.13,0.12 -0.02,0.01 m 20.45,-150.180015 v 0 l 0.16,-0.07 h 0.03 m -91.63,37.57 v 0 l -0.04,-0.17 v -0.03 m 144.28,46.25 v 0 l 0.09,0.15 0.01,0.02 m -19.76,-67.0600001 v 0 l 0.03,0.15 v -0.01 m -35.81,133.6800151 v 0 l -0.14,-0.05 0.01,0.01 m 59.06,-84.210015 v 0 l -0.08,0.13 0.01,-0.01 m -152.06,40.72 v 0 l 0.03,-0.15 -0.01,0.01 m 26.54,-99.18 v 0 h 0.15 l -0.01,-0.01 m 111.3,111.340015 v 0 l -0.14,0.05 h 0.01 m -142.67,-66.550015 v 0 l 0.12,-0.1 h -0.01 m 43.39,93.260015 v 0 l -0.08,-0.13 v 0.01 m 40.77,-152.060015 v 0 l 0.12,0.1 v -0.01 m -86.59,100.57 0.06,0.05 0.35,0.48 0.42,0.8 0.39,1.03 0.01,0.04 m 0,0 0.27,1.04 0.13,0.95 -0.01,0.61 -0.01,0.05 m 84.78,55.950015 0.06,-0.05 0.54,-0.26 0.86,-0.27 1.08,-0.2 h 0.05 m -0.01,-0.02 1.07,-0.08 0.96,0.04 0.6,0.12 0.04,0.02 m -86.52,-116.340015 0.01,0.08 -0.04,0.6 -0.2,0.88 -0.36,1.03 -0.02,0.04 m 0.01,0 -0.46,0.96 -0.51,0.81 -0.4,0.46 -0.04,0.03 m 28.98,97.370015 h 0.08 l 0.58,0.14 0.83,0.35 0.96,0.54 0.04,0.03 m 0,-0.01 0.87,0.62 0.71,0.65 0.38,0.47 0.02,0.04 m 8.51,-144.730015 -0.04,0.07 -0.41,0.43 -0.72,0.55 -0.94,0.56 -0.04,0.02 m 0,0 -0.97,0.44 -0.92,0.29 -0.6,0.09 h -0.05 m 97.1,130.650015 0.02,-0.08 0.24,-0.55 0.48,-0.76 0.7,-0.85 0.03,-0.03 m 0,0 0.76,-0.75 0.76,-0.59 0.53,-0.29 0.05,-0.01 m 6.07,-101.4100151 -0.08,-0.03 -0.5,-0.33 -0.66,-0.61 -0.71,-0.83 -0.03,-0.04 m 0,0 -0.61,-0.88 -0.45,-0.85 -0.2,-0.58 -0.01,-0.05 m 17.59,58.6100001 -0.04,-0.07 -0.17,-0.57 -0.12,-0.89 -0.01,-1.1 0.01,-0.04 m 0,-0.01 0.1,-1.06 0.21,-0.94 0.22,-0.57 0.03,-0.04 m -60.54,-81.58 -0.08,0.03 -0.59,0.07 -0.9,-0.04 -1.08,-0.18 -0.04,-0.01 m -0.01,-0.01 -1.03,-0.29 -0.89,-0.37 -0.52,-0.32 -0.04,-0.03 m -0.01,0.01 -0.65,-0.52 -1.4,-1.1 m -53.55,9.9 -0.83,0.01 -1.77,0.06 m 53.9,153.450015 0.79,0.27 1.69,0.55 m -57.56,-12.05 0.43,0.71 0.94,1.51 m -34.86,-102.420015 -0.63,0.55 -1.32,1.19 m 142.74,-22.7200001 -0.16,-0.82 -0.36,-1.74 m -141.76,79.7300001 -0.13,0.82 -0.25,1.76 m 139.85,25.860015 0.78,-0.3 1.65,-0.66 m 18.19,-51.340015 0.4,-0.73 0.84,-1.57 m -25.98,60.620015 0.52,-2.08 m -91.18,-134.900015 -1.2,1.77 m 58.14,-5.25 -2.06,0.58 m 47.92,33.3499999 -1.96,-0.88 m 15.27,56.3500001 -0.93,-1.93 m -156.56,-44.73 0.22,2.13 m -6.68,54.55 1.54,1.49 m 84.64,62.290015 1.74,-1.25 m -56.44,-14.95 2.14,0.15 m -20.63,-103.120015 -0.21,-2.74 -0.26,-6.6400001 -0.01,-1.69 m -6.68,63.2500001 -1.92,-1.97 -4.47,-4.92 -1.1,-1.29 m 147.92,-49.0800003 2.47,1.1900003 5.88,3.1 1.47,0.83 m -104.06,-35.41 1.6,-2.23 4.07,-5.25 1.08,-1.3 m 25.25,157.020015 -2.27,1.55 -5.62,3.54 -1.46,0.86 m 29.98,-156.200015 2.66,-0.68 6.49,-1.41 1.66,-0.31 m 17.33,132.760015 -0.75,2.64 -2.03,6.33 -0.57,1.59 m -95.56,-6.79 -2.74,-0.27 -6.58,-0.9 -1.67,-0.28 m 134.48,-48.900015 1.13,2.51 2.51,6.15 0.59,1.58 m -53.29,57.930015 -1.63,-0.32 -4.85,-1.09 m 50.66,-34.480015 -1.45,0.81 -4.41,2.280015 m -95.24,31.9 -1.05,-1.29 -3.01,-3.95 m 35.09,-155.710015 1.42,0.85 4.18,2.68 m 75.25,66.53 -0.59,1.55 -1.92,4.58 m -25.17,-55.87 0.54,1.57 1.48,4.7399999 m -108.99,-8.0199999 1.64,-0.26 4.93,-0.63 m -35.82,49.73 1.09,-1.25 3.37,-3.65 m 4.54,61.12 0.03,-1.66 0.23,-4.96 m -5.45,-64.32 0.25,-0.64 0.26,-0.64 0.26,-0.64 0.27,-0.64 0.27,-0.63 0.28,-0.63 0.29,-0.63 0.29,-0.63 m -3.53,62.3 -0.22,-0.65 -0.21,-0.66 -0.21,-0.66 -0.2,-0.66 -0.2,-0.66 -0.19,-0.66 -0.19,-0.66 -0.18,-0.67 m 117.83,-96.52 2.11,1.08 2.08,1.14 2.05,1.19 2.01,1.25 1.98,1.31 1.94,1.36 1.9,1.42 1.86,1.47 m -136.37,70.36 -0.12,-2.37 -0.06,-2.37 0.01,-2.37 0.08,-2.37 0.15,-2.37 0.21,-2.36 0.28,-2.35 0.35,-2.35 m 73.52,96.560015 -2.35,-0.29 -2.34,-0.36 -2.33,-0.42 -2.32,-0.49 -2.31,-0.55 -2.29,-0.62 -2.27,-0.68 -2.25,-0.75 m 90.31,-23.73 -0.46,0.52 -0.46,0.51 -0.47,0.51 -0.47,0.51 -0.48,0.5 -0.48,0.5 -0.48,0.49 -0.49,0.49 m -46.43,23.4 -0.68,0.1 -0.68,0.1 -0.69,0.09 -0.68,0.08 -0.69,0.08 -0.69,0.07 -0.69,0.07 -0.69,0.06 m -27.01,-164.610015 2.31,-0.53 2.32,-0.47 2.34,-0.4 2.35,-0.33 2.36,-0.27 2.36,-0.2 2.37,-0.13 2.37,-0.07 m 81.48,107.01 -0.69,2.27 -0.76,2.25 -0.82,2.22 -0.88,2.2 -0.95,2.17 -1.01,2.15 -1.07,2.12 -1.13,2.08 m -116.56,30.620015 -0.59,-0.36 -0.59,-0.37 -0.58,-0.37 -0.58,-0.38 -0.58,-0.38 -0.57,-0.39 -0.57,-0.39 -0.57,-0.39 m 94.69,1.12 -1.99,1.29 -2.02,1.23 -2.06,1.17 -2.09,1.12 -2.12,1.06 -2.15,1 -2.18,0.93 -2.2,0.87 m -97.2,-127.6300151 1.43,-1.89 1.48,-1.85 1.53,-1.81 1.58,-1.76 1.63,-1.72 1.68,-1.6699999 1.73,-1.62 1.77,-1.57 m -5.74,121.210015 -1.62,-1.74 -1.57,-1.78 -1.51,-1.82 -1.46,-1.86 -1.41,-1.91 -1.35,-1.95 -1.3,-1.980015 -1.24,-2.02 m 88.34,-124.85 0.68,0.14 0.67,0.14 0.67,0.15 0.67,0.15 0.67,0.16 0.67,0.17 0.67,0.17 0.67,0.18 m 61.79,82.75 -0.02,0.69 -0.02,0.69 -0.03,0.69 -0.04,0.69 -0.04,0.69 -0.05,0.69 -0.05,0.69 -0.06,0.69 m -123.43,-80.94 0.61,-0.33 0.61,-0.32 0.61,-0.32 0.62,-0.31 0.62,-0.31 0.62,-0.3 0.62,-0.3 0.63,-0.29 m 100.51,23.6699999 0.43,0.54 0.42,0.54 0.42,0.55 0.42,0.55 0.41,0.55 0.41,0.56 0.4,0.56 0.4,0.57 m 7.9,14.0800001 0.93,2.18 0.86,2.21 0.8,2.23 0.74,2.25 0.67,2.27 0.61,2.29 0.54,2.31 0.48,2.32 m -83.35,-67.97 h 0.18 l 1.1,0.08 0.73,0.16 0.45,0.18 0.02,0.01 m 51.56,18.39 0.14,0.11 0.79,0.77 0.45,0.59 0.22,0.43 0.01,0.02 m -126.35,105.74 -0.1,-0.16 -0.48,-0.99 -0.22,-0.71 -0.06,-0.48 v -0.02 m 18.06,-103.81 0.14,-0.12 0.89,-0.64 0.66,-0.35 0.46,-0.15 h 0.02 m 24.97,143.600015 -0.17,-0.06 -1,-0.45 -0.63,-0.4 -0.36,-0.32 -0.01,-0.02 m -52.89,-91.140015 0.03,-0.18 0.27,-1.07 0.29,-0.69 0.26,-0.41 0.02,-0.02 m 163.89,0.09 0.04,0.18 0.11,1.1 -0.03,0.75 -0.1,0.47 -0.01,0.02 m -52.49,91.360015 -0.17,0.07 -1.06,0.3 -0.74,0.1 -0.48,-0.02 -0.02,-0.01 m 45.79,-37.830015 -0.09,0.16 -0.62,0.91 -0.51,0.55 -0.38,0.29 -0.02,0.01 m -154.15,-34.68 -0.03,-0.03 -0.23,-0.41 -0.25,-0.71 -0.18,-0.94 -0.03,-0.47 m 14.9,-52.5100001 v -0.04 l 0.08,-0.46 0.27,-0.7 0.46,-0.83 0.28,-0.38 m 45.17,-30.6699999 0.02,-0.03 0.36,-0.3 0.65,-0.36 0.89,-0.34 0.45,-0.11 m 13.51,164.120015 -0.03,0.02 -0.44,0.16 -0.74,0.12 -0.95,0.01 -0.46,-0.05 m 43.44,-158.850015 0.04,-0.01 h 0.47 l 0.73,0.14 0.9,0.31 0.42,0.21 m -95.15,134.420015 -0.04,-0.01 -0.44,-0.16 -0.64,-0.38 -0.74,-0.6 -0.32,-0.34 m 140.9,-37.160015 0.01,0.04 0.08,0.46 -0.01,0.75 -0.15,0.94 -0.13,0.45 m -31.96,44.270015 -0.01,0.04 -0.24,0.41 -0.49,0.57 -0.72,0.62 -0.39,0.26 m 28.49,-105.410015 0.04,0.02 0.36,0.3 0.47,0.58 0.49,0.82 0.19,0.43 m -111.45,-42.28 0.49,-0.21 0.92,-0.24 0.72,-0.07 0.37,0.05 h 0.03 m -43.22,40.69 0.24,-0.47 0.55,-0.78 0.51,-0.52 0.31,-0.2 0.02,-0.01 m -6.95,58.94 -0.12,-0.52 -0.08,-0.95 0.06,-0.73 0.11,-0.35 0.01,-0.02 m 103.05,-99.26 0.51,0.16 0.86,0.4 0.6,0.42 0.25,0.27 0.02,0.02 m 58.92,87.17 -0.07,0.53 -0.25,0.92 -0.3,0.66 -0.23,0.29 -0.02,0.02 m -75.61,73.160015 -0.53,0.03 -0.95,-0.08 -0.7,-0.19 -0.32,-0.17 -0.02,-0.01 m 54.52,-23.45 -0.39,0.36 -0.78,0.54 -0.66,0.31 -0.36,0.08 h -0.03 m -104.95,7.45 -0.43,-0.32 -0.67,-0.67 -0.42,-0.59 -0.14,-0.34 -0.01,-0.02 m 118.84,-113.8600151 0.29,0.45 0.4,0.86 0.19,0.7 0.01,0.37 v 0.03 m -56.31,-36.7199999 0.03,-0.02 0.37,-0.15 0.69,-0.11 h 1 l 1.11,0.16 0.18,0.05 m -1.33,163.470015 -0.03,0.03 -0.29,0.26 -0.61,0.35 -0.94,0.34 -1.1,0.23 -0.19,0.02 m -90.58,-110.150015 -0.01,-0.04 -0.08,-0.38 0.01,-0.7 0.17,-0.98 0.35,-1.07 0.08,-0.17 m 140.67,-23.3800001 0.04,0.01 0.37,0.12 0.6,0.36 0.77,0.64 0.75,0.83 0.11,0.15 m 17.44,50.9700001 0.02,0.03 0.21,0.33 0.23,0.66 0.17,0.98 0.04,1.12 -0.02,0.19 m -161.21,27.08 -0.03,-0.02 -0.31,-0.24 -0.44,-0.54 -0.5,-0.86 -0.42,-1.04 -0.05,-0.18 m 143.57,26.060015 v 0.04 l -0.06,0.39 -0.25,0.66 -0.5,0.86 -0.69,0.88 -0.13,0.13 m -104.97,-126.820015 0.01,-0.04 0.19,-0.35 0.46,-0.53 0.76,-0.64 0.95,-0.59 0.17,-0.08 m -0.74,145.920015 -0.04,0.01 -0.39,0.01 -0.69,-0.13 -0.94,-0.34 -0.99,-0.53 -0.15,-0.11 m 130.69,-32.600015 6.13,-18.87 m -103.67,74.100015 0.01,0.14 0.04,0.13 0.07,0.12 0.09,0.11 0.11,0.09 0.12,0.07 0.13,0.04 0.14,0.01 m 73.71,-164.330015 0.07,-0.12 0.05,-0.13 0.02,-0.14 -0.01,-0.14 -0.04,-0.14 -0.06,-0.12 -0.08,-0.11 -0.1,-0.09 m 22.38,109.83 0.14,0.03 h 0.14 l 0.14,-0.02 0.13,-0.05 0.12,-0.07 0.1,-0.1 0.08,-0.11 0.06,-0.13 m -179.52,-19.76 -0.13,0.05 -0.11,0.08 -0.1,0.1 -0.07,0.12 -0.05,0.13 -0.02,0.14 v 0.14 l 0.03,0.14 m 46.45,-102.03 -0.09,-0.1 -0.11,-0.08 -0.12,-0.06 -0.13,-0.04 -0.14,-0.01 -0.14,0.02 -0.13,0.05 -0.12,0.07 m -16.06,11.66 -0.1,0.09 -0.08,0.11 -0.06,0.12 -0.03,0.14 -0.01,0.14 0.02,0.14 0.05,0.13 0.07,0.12 m 73.69,164.330015 0.14,-0.01 0.13,-0.04 0.12,-0.07 0.11,-0.09 0.09,-0.11 0.07,-0.12 0.04,-0.13 0.01,-0.14 m 36.95,-176.270015 -0.12,-0.07 -0.13,-0.05 -0.14,-0.02 -0.14,0.01 -0.13,0.04 -0.12,0.06 -0.11,0.08 -0.09,0.1 m 46.45,102.02 0.03,-0.14 v -0.14 l -0.02,-0.14 -0.05,-0.13 -0.07,-0.12 -0.1,-0.1 -0.11,-0.08 -0.13,-0.05 m -179.51,19.77 0.06,0.13 0.08,0.11 0.1,0.1 0.12,0.07 0.13,0.05 0.14,0.02 h 0.14 l 0.14,-0.03 m 149.64,-109.83 -16.05,-11.66 m -57.51,176.980015 h 19.84 m -102.96,-74.810015 6.13,18.87 m 39.33,-121.04 -16.05,11.66 m 47.66,160.000015 h -25.84 m 104.88,0 h -47.1 m -5.34,2.84 h 52.44 m -104.88,0 h 31.18 m 76.04,-154.980015 20.9,15.1899999 m -67.65,-49.1599999 20.9,15.19 m 5.99,0.85 -25.23,-18.33 m 67.66,49.1499999 -25.23,-18.3299999 m -125.5,0 -25.23,18.3299999 m 67.66,-49.1499999 -25.23,18.33 m 5.99,-0.85 20.9,-15.19 m -67.65,49.1499999 20.9,-15.1899999 m -18.92,101.44 9.64,29.650015 m -25.85,-79.530015 9.64,29.65 m 1.04,-5.95 -7.99,-24.57 m 25.85,79.530015 -7.99,-24.570015 m 159.98,-0.01 -14.55,44.800015 m 32.41,-99.750015 -7.98,24.57 m 1.04,5.96 9.64,-29.65 m -32.42,99.740015 16.21,-49.870015 m -90.57,-165.89 -1.22,-1.38 -1.45,-1.08 -1.47,-0.71 h -0.01 m -3.86,2.83 0.18,1.5 0.56,1.71 0.91,1.61 0.08,0.09 m 9.9,0.12 -0.23,-0.06 m 15.36,-0.06 0.94,-1.58 0.58,-1.71 0.22,-1.62 v -0.02 m -3.88,-2.8 -1.38,0.64 -1.46,1.06 -1.25,1.37 -0.06,0.1 m -3.38,4.61 -0.3,0.08 -1.74,0.28 h -0.83 m 0,0.03 -0.29,0.01 -1.77,-0.2 -0.52,-0.14 m -5.63,5.61 -0.03,1.2 -0.35,2.4 -0.73,2.39 -0.58,1.3 m 19.84,-0.01 -0.36,-0.78 -0.81,-2.36 -0.43,-2.39 -0.07,-1.76 m -14.98,4.94 -0.18,0.16 m -5.61,-10.8 4.46,6.13 m 5.25,-6.02 -3.41,-4.69 m 14.34,10.64 4.4,-6.06 m -6.3,-4.58 -3.4,4.67 m 4.09,10.71 -0.17,-0.16 m -24.73,16.19 0.69,-0.12 0.68,-0.16 0.67,-0.2 0.65,-0.24 0.64,-0.28 0.62,-0.32 0.6,-0.36 0.58,-0.39 m -4.59,-6.3 -0.55,0.43 -0.52,0.46 -0.49,0.49 -0.46,0.52 -0.43,0.55 -0.4,0.57 -0.36,0.6 -0.32,0.62 m 14.06,-11.88 -10.52,7.65 m 4.58,6.3 8.66,-6.29 m 17.07,6.29 0.58,0.39 0.6,0.36 0.62,0.32 0.64,0.28 0.65,0.24 0.67,0.2 0.68,0.16 0.69,0.12 m 2.99,-4.14 -0.32,-0.62 -0.36,-0.6 -0.4,-0.57 -0.43,-0.55 -0.46,-0.52 -0.49,-0.49 -0.52,-0.46 -0.55,-0.43 m -0.01,0 -10.52,-7.65 m -2.72,7.67 8.66,6.29 m -135.87,64.54 -1.69,0.73 -1.48,1.04 -1.13,1.18 -0.01,0.01 m 1.51,4.56 1.48,0.3 h 1.8 l 1.82,-0.37 0.11,-0.05 m 3.17,-9.39 -0.13,0.2 m 4.69,-14.6200001 -1.22,-1.38 -1.45,-1.09 -1.47,-0.71 -0.02,-0.01 m -3.86,2.83 0.18,1.51 0.56,1.71 0.91,1.61 0.08,0.09 m 3.35,4.6499998 -0.01,0.31 -0.27,1.7400003 -0.26,0.78 m 0.02,0.01 -0.08,0.28 -0.74,1.62 -0.3,0.45 m 3.61,7.1 1.13,0.39 2.18,1.07 2.05,1.43 1.05,0.96 m 6.12,-18.8600003 -0.85,0.11 -2.49,0.04 -2.4,-0.33 -1.69,-0.47 m 0.05,15.7500003 0.09,0.22 m -12,2 7.21,-2.34 m -4.11,-6.86 -5.51,1.79 m 14.55,-10.3400003 -4.4,-6.0599998 m -6.31,4.58 3.39,4.6699998 m 11.46,-0.58 -0.2,0.12 m 7.75,28.5200003 0.1,-0.69 0.06,-0.7 0.02,-0.7 -0.03,-0.7 -0.07,-0.69 -0.11,-0.69 -0.15,-0.68 -0.19,-0.67 m -7.42,2.41 0.24,0.66 0.28,0.64 0.32,0.62 0.35,0.6 0.39,0.58 0.42,0.55 0.46,0.53 0.49,0.5 m -6.97,-17.05 4.02,12.37 m 7.41,-2.41 -3.31,-10.18 m 11.26,-14.2900003 0.55,-0.43 0.53,-0.46 0.49,-0.49 0.46,-0.52 0.43,-0.5499998 0.4,-0.57 0.36,-0.6 0.32,-0.62 m -2.99,-4.13 -0.69,0.12 -0.68,0.16 -0.67,0.2 -0.65,0.24 -0.64,0.28 -0.62,0.32 -0.6,0.36 -0.58,0.39 m 0,-0.01 -10.52,7.6499998 m 6.44,4.9500003 8.66,-6.2900003 m 208.34,-2.7499998 0.94,-1.58 0.58,-1.71 0.22,-1.62 v -0.01 m -3.89,-2.81 -1.37,0.63 -1.46,1.06 -1.25,1.37 -0.06,0.11 m 2.95,9.4499998 -0.01,-0.24 m 4.8,14.5800003 1.8,0.4 1.81,0.03 1.61,-0.29 0.02,-0.01 m 1.45,-4.55 -1.04,-1.12 -1.46,-1.06 -1.69,-0.77 -0.12,-0.03 m -5.41,-1.78 -0.17,-0.26 -0.81,-1.57 -0.25,-0.79 m -0.03,0.02 -0.1,-0.27 -0.36,-1.75 -0.02,-0.5400003 m -7.08,-3.63 -1.15,0.34 -2.39,0.41 -2.5,0.04 -1.42,-0.15 m 6.14,18.8800003 0.63,-0.59 1.99,-1.5 2.14,-1.15 1.65,-0.61 m -9.32,-12.7100003 -0.2,-0.12 m 8.53,-8.6699998 -4.46,6.1299998 m 7.36,3.13 3.41,-4.6899998 m -5.69,16.9300001 7.12,2.32 m 2.41,-7.42 -5.49,-1.78 m -8.92,7.19 0.1,-0.21 m -23.04,-18.5200001 0.32,0.62 0.36,0.6 0.4,0.57 0.43,0.5499998 0.46,0.52 0.49,0.49 0.52,0.46 0.55,0.43 m 4.59,-6.3099998 -0.58,-0.39 -0.6,-0.36 -0.62,-0.32 -0.64,-0.28 -0.65,-0.24 -0.67,-0.2 -0.68,-0.16 -0.69,-0.12 m 15.66,9.7199998 -10.52,-7.6499998 m -4.59,6.3099998 8.66,6.2900003 m -0.71,18.18 -0.2,0.67 -0.15,0.68 -0.11,0.69 -0.07,0.69 -0.03,0.7 0.02,0.7 0.06,0.7 0.1,0.69 m 4.86,1.57 0.49,-0.5 0.46,-0.53 0.42,-0.55 0.39,-0.58 0.35,-0.6 0.31,-0.62 0.28,-0.64 0.24,-0.66 m 0,0 4.02,-12.37 m -8.13,-0.22 -3.31,10.18 m -166.93,124.690015 0.17,1.83 0.53,1.73 0.77,1.44 0.01,0.01 m 4.8,-0.02 0.74,-1.32 0.55,-1.71 0.21,-1.84 -0.01,-0.12 m -7.94,-5.92 0.15,0.18 m -12.46,-8.97 -1.69,0.73 -1.48,1.04 -1.13,1.18 -0.01,0.02 m 1.5,4.54 1.5,0.3 h 1.8 l 1.82,-0.37 0.11,-0.05 m 5.43,-1.75 0.29,0.11 1.57,0.8 0.67,0.49 m 0.02,-0.03 0.24,0.17 1.32,1.2 0.34,0.42 m 7.85,-1.23 0.73,-0.95 1.69,-1.74 2,-1.5 1.24,-0.71 m -16.06,-11.66 -0.16,0.84 -0.73,2.38 -1.05,2.19 -0.97,1.46 m 15,4.81 0.24,-0.02 m -1.82,12.04 v -7.58 m -7.79,1.78 v 5.79 m -5.34,-17.03 -7.12,2.32 m 2.4,7.41 5.49,-1.79 m 3,-11.06 0.05,0.23 m 29.51,1.44 -0.62,-0.31 -0.64,-0.27 -0.66,-0.23 -0.67,-0.19 -0.68,-0.15 -0.69,-0.11 -0.69,-0.06 -0.7,-0.02 m -0.01,7.79 0.7,-0.02 0.69,-0.06 0.69,-0.11 0.68,-0.15 0.67,-0.19 0.66,-0.23 0.64,-0.27 0.62,-0.31 m -18.36,1.34 h 13.01 m 0,-7.8 h -10.7 m -10.12,-15.12 -0.24,-0.66 -0.28,-0.64 -0.31,-0.62 -0.35,-0.6 -0.39,-0.58 -0.42,-0.55 -0.46,-0.53 -0.49,-0.5 m -4.85,1.57 -0.1,0.69 -0.06,0.7 -0.02,0.7 0.03,0.7 0.07,0.69 0.11,0.69 0.15,0.68 0.2,0.67 m 0,0 4.02,12.37 m 6.7,-4.6 -3.31,-10.18 m 205.22,106.59 1.8,0.4 1.81,0.03 1.61,-0.29 h 0.01 m 1.45,-4.57 -1.03,-1.11 -1.46,-1.06 -1.69,-0.77 -0.12,-0.03 m -8.07,5.73 0.22,-0.09 m -12.38,9.08 0.17,1.83 0.53,1.73 0.77,1.44 0.01,0.02 m 4.79,-0.02 0.74,-1.33 0.55,-1.72 0.21,-1.84 -0.01,-0.12 m 0.03,-5.71 0.19,-0.24 1.24,-1.25 0.67,-0.48 m -0.01,-0.03 0.23,-0.17 1.55,-0.88 0.51,-0.19 m 1.25,-7.87 -0.68,-0.98 -1.13,-2.15 -0.81,-2.36 -0.29,-1.39 m -16.05,11.66 0.75,0.41 2.04,1.43 1.75,1.68 1.09,1.38 m 9.22,-12.78 0.05,-0.23 m 10.89,5.43 -7.21,-2.34 m -0.71,7.97 5.51,1.79 m -17.85,-0.19 v 7.49 m 7.79,0 v -5.77 m -9.6,-6.26 0.23,0.02 m 10.49,-27.63 -0.49,0.5 -0.46,0.53 -0.42,0.55 -0.39,0.58 -0.35,0.6 -0.31,0.62 -0.28,0.64 -0.24,0.66 m 7.42,2.41 0.2,-0.67 0.15,-0.68 0.11,-0.69 0.07,-0.7 0.03,-0.7 -0.02,-0.7 -0.06,-0.69 -0.1,-0.69 m -4.4,17.89 4.02,-12.37 m -7.41,-2.41 -3.31,10.18 m -17.51,4.95 -0.7,0.02 -0.69,0.07 -0.69,0.11 -0.68,0.15 -0.67,0.19 -0.66,0.23 -0.64,0.27 -0.62,0.31 m -0.01,5.1 0.62,0.31 0.64,0.27 0.66,0.23 0.67,0.19 0.68,0.15 0.69,0.11 0.69,0.06 0.7,0.02 m 0.01,0 h 13.01 m -2.31,-7.79 h -10.7"
               class="st5"
               inkscape:connector-curvature="0"
               style="fill:none;stroke:#000000;stroke-width:0.70899999;stroke-linecap:round;stroke-linejoin:round;stroke-miterlimit:10" />
            <line
               id="line7595"
               y2="213.33466"
               x2="436.27271"
               y1="138.83466"
               x1="382.1427"
               class="st6"
               style="fill:none;stroke:#000000;stroke-width:0.50999999;stroke-linecap:round;stroke-linejoin:round;stroke-miterlimit:10;stroke-dasharray:18, 3.6, 3.6, 3.6, 3.6, 3.6;stroke-dashoffset:-1" />
          </g>
        </g>
      </g>
    </g>
  </g>
  <style
     id="style6508"
     type="text/css">
	.st0{font-family:'ArialUnicodeMS';}
	.st1{font-size:19.9584px;}
	.st2{font-size:20.1158px;}
	.st3{font-size:20.1547px;}
	.st4{fill:none;stroke:#000000;stroke-width:0.51;stroke-miterlimit:10;}
	.st5{fill:none;stroke:#000000;stroke-width:0.51;stroke-linecap:round;stroke-linejoin:round;stroke-miterlimit:10;}
	.st6{fill:none;stroke:#000000;stroke-width:0.709;stroke-linecap:round;stroke-linejoin:round;stroke-miterlimit:10;}
	
		.st7{fill:none;stroke:#000000;stroke-width:0.51;stroke-linecap:round;stroke-linejoin:round;stroke-miterlimit:10;stroke-dasharray:18,3.6,3.6,3.6,3.6,3.6;stroke-dashoffset:13;}
	
		.st8{fill:none;stroke:#000000;stroke-width:0.51;stroke-linecap:round;stroke-linejoin:round;stroke-miterlimit:10;stroke-dasharray:18,3.6,3.6,3.6,3.6,3.6;}
	
		.st9{fill:none;stroke:#000000;stroke-width:0.51;stroke-linecap:round;stroke-linejoin:round;stroke-miterlimit:10;stroke-dasharray:18,3.6,3.6,3.6,3.6,3.6;stroke-dashoffset:11;}
	
		.st10{fill:none;stroke:#000000;stroke-width:0.51;stroke-linecap:round;stroke-linejoin:round;stroke-miterlimit:10;stroke-dasharray:18,3.6,3.6,3.6,3.6,3.6;stroke-dashoffset:8;}
	
		.st11{fill:none;stroke:#000000;stroke-width:0.51;stroke-linecap:round;stroke-linejoin:round;stroke-miterlimit:10;stroke-dasharray:18,3.6,3.6,3.6,3.6,3.6;stroke-dashoffset:6;}
	
		.st12{fill:none;stroke:#000000;stroke-width:0.51;stroke-linecap:round;stroke-linejoin:round;stroke-miterlimit:10;stroke-dasharray:18,3.6,3.6,3.6,3.6,3.6;stroke-dashoffset:2;}
	
		.st13{fill:none;stroke:#000000;stroke-width:0.51;stroke-linecap:round;stroke-linejoin:round;stroke-miterlimit:10;stroke-dasharray:18,3.6,3.6,3.6,3.6,3.6;stroke-dashoffset:14;}
	
		.st14{fill:none;stroke:#000000;stroke-width:0.51;stroke-linecap:round;stroke-linejoin:round;stroke-miterlimit:10;stroke-dasharray:18,3.6,3.6,3.6,3.6,3.6;stroke-dashoffset:9;}
</style>
  <style
     id="style6716"
     type="text/css">
	.st0{fill:none;stroke:#000000;stroke-width:0.709;stroke-linecap:round;stroke-linejoin:round;stroke-miterlimit:10;}
</style>
  <style
     id="style6737"
     type="text/css">
	.st0{fill:none;stroke:#000000;stroke-width:0.709;stroke-linecap:round;stroke-linejoin:round;stroke-miterlimit:10;}
</style>
  <style
     id="style6777"
     type="text/css">
	.st0{fill:none;stroke:#000000;stroke-width:0.709;stroke-linecap:round;stroke-linejoin:round;stroke-miterlimit:10;}
</style>
  <style
     id="style6817"
     type="text/css">
	.st0{fill:none;stroke:#000000;stroke-width:0.51;stroke-miterlimit:10;}
	.st1{fill:none;stroke:#000000;stroke-width:0.51;stroke-linecap:round;stroke-linejoin:round;stroke-miterlimit:10;}
	.st2{fill:none;stroke:#000000;stroke-width:0.709;stroke-linecap:round;stroke-linejoin:round;stroke-miterlimit:10;}
</style>
  <style
     id="style6863"
     type="text/css">
	.st0{fill:none;stroke:#000000;stroke-width:0.709;stroke-linecap:round;stroke-linejoin:round;stroke-miterlimit:10;}
</style>
  <style
     id="style6893"
     type="text/css">
	.st0{font-family:'ArialUnicodeMS';}
	.st1{font-size:20.1547px;}
	.st2{fill:none;stroke:#000000;stroke-width:0.709;stroke-miterlimit:10;}
	.st3{fill:none;stroke:#000000;stroke-width:0.51;stroke-miterlimit:10;}
	.st4{fill:none;stroke:#000000;stroke-width:0.51;stroke-linecap:round;stroke-linejoin:round;stroke-miterlimit:10;}
	.st5{fill:none;stroke:#000000;stroke-width:0.709;stroke-linecap:round;stroke-linejoin:round;stroke-miterlimit:10;}
</style>
  <style
     id="style7035"
     type="text/css">
	.st0{fill:none;stroke:#000000;stroke-width:0.709;stroke-linecap:round;stroke-linejoin:round;stroke-miterlimit:10;}
	
		.st1{fill:none;stroke:#000000;stroke-width:0.51;stroke-linecap:round;stroke-linejoin:round;stroke-miterlimit:10;stroke-dasharray:18,3.6,3.6,3.6,3.6,3.6;stroke-dashoffset:11;}
	
		.st2{fill:none;stroke:#000000;stroke-width:0.51;stroke-linecap:round;stroke-linejoin:round;stroke-miterlimit:10;stroke-dasharray:18,3.6,3.6,3.6,3.6,3.6;}
	
		.st3{fill:none;stroke:#000000;stroke-width:0.51;stroke-linecap:round;stroke-linejoin:round;stroke-miterlimit:10;stroke-dasharray:18,3.6,3.6,3.6,3.6,3.6;stroke-dashoffset:9;}
	
		.st4{fill:none;stroke:#000000;stroke-width:0.51;stroke-linecap:round;stroke-linejoin:round;stroke-miterlimit:10;stroke-dasharray:18,3.6,3.6,3.6,3.6,3.6;stroke-dashoffset:16;}
	
		.st5{fill:none;stroke:#000000;stroke-width:0.51;stroke-linecap:round;stroke-linejoin:round;stroke-miterlimit:10;stroke-dasharray:18,3.6,3.6,3.6,3.6,3.6;stroke-dashoffset:13;}
	
		.st6{fill:none;stroke:#000000;stroke-width:0.51;stroke-linecap:round;stroke-linejoin:round;stroke-miterlimit:10;stroke-dasharray:18,3.6,3.6,3.6,3.6,3.6;stroke-dashoffset:12;}
	
		.st7{fill:none;stroke:#000000;stroke-width:0.51;stroke-linecap:round;stroke-linejoin:round;stroke-miterlimit:10;stroke-dasharray:18,3.6,3.6,3.6,3.6,3.6;stroke-dashoffset:3;}
	
		.st8{fill:none;stroke:#000000;stroke-width:0.51;stroke-linecap:round;stroke-linejoin:round;stroke-miterlimit:10;stroke-dasharray:18,3.6,3.6,3.6,3.6,3.6;stroke-dashoffset:8;}
</style>
  <style
     id="style7129"
     type="text/css">
	.st0{fill:none;stroke:#000000;stroke-width:0.709;stroke-linecap:round;stroke-linejoin:round;stroke-miterlimit:10;}
	
		.st1{fill:none;stroke:#000000;stroke-width:0.51;stroke-linecap:round;stroke-linejoin:round;stroke-miterlimit:10;stroke-dasharray:18,3.6,3.6,3.6,3.6,3.6;stroke-dashoffset:11;}
	
		.st2{fill:none;stroke:#000000;stroke-width:0.51;stroke-linecap:round;stroke-linejoin:round;stroke-miterlimit:10;stroke-dasharray:18,3.6,3.6,3.6,3.6,3.6;}
</style>
  <style
     id="style7172"
     type="text/css">
	.st0{font-family:'ArialUnicodeMS';}
	.st1{font-size:28.2167px;}
	.st2{font-size:16.5644px;}
	.st3{fill:none;stroke:#000000;stroke-width:0.51;stroke-miterlimit:10;}
	.st4{fill:none;stroke:#000000;stroke-width:0.51;stroke-linecap:round;stroke-linejoin:round;stroke-miterlimit:10;}
	.st5{fill:none;stroke:#000000;stroke-width:0.709;stroke-linecap:round;stroke-linejoin:round;stroke-miterlimit:10;}
	
		.st6{fill:none;stroke:#000000;stroke-width:0.51;stroke-linecap:round;stroke-linejoin:round;stroke-miterlimit:10;stroke-dasharray:18,3.6,3.6,3.6,3.6,3.6;}
	
		.st7{fill:none;stroke:#000000;stroke-width:0.51;stroke-linecap:round;stroke-linejoin:round;stroke-miterlimit:10;stroke-dasharray:18,3.6,3.6,3.6,3.6,3.6;stroke-dashoffset:6;}
	
		.st8{fill:none;stroke:#000000;stroke-width:0.51;stroke-linecap:round;stroke-linejoin:round;stroke-miterlimit:10;stroke-dasharray:18,3.6,3.6,3.6,3.6,3.6;stroke-dashoffset:4;}
	
		.st9{fill:none;stroke:#000000;stroke-width:0.51;stroke-linecap:round;stroke-linejoin:round;stroke-miterlimit:10;stroke-dasharray:18,3.6,3.6,3.6,3.6,3.6;stroke-dashoffset:7;}
</style>
  <style
     id="style7278"
     type="text/css">
	.st0{font-family:'ArialUnicodeMS';}
	.st1{font-size:28.2167px;}
	.st2{font-size:16.5644px;}
	.st3{fill:none;stroke:#000000;stroke-width:0.51;stroke-miterlimit:10;}
	.st4{fill:none;stroke:#000000;stroke-width:0.51;stroke-linecap:round;stroke-linejoin:round;stroke-miterlimit:10;}
	.st5{fill:none;stroke:#000000;stroke-width:0.709;stroke-linecap:round;stroke-linejoin:round;stroke-miterlimit:10;}
	
		.st6{fill:none;stroke:#000000;stroke-width:0.51;stroke-linecap:round;stroke-linejoin:round;stroke-miterlimit:10;stroke-dasharray:18,3.6,3.6,3.6,3.6,3.6;}
	
		.st7{fill:none;stroke:#000000;stroke-width:0.51;stroke-linecap:round;stroke-linejoin:round;stroke-miterlimit:10;stroke-dasharray:18,3.6,3.6,3.6,3.6,3.6;stroke-dashoffset:6;}
	
		.st8{fill:none;stroke:#000000;stroke-width:0.51;stroke-linecap:round;stroke-linejoin:round;stroke-miterlimit:10;stroke-dasharray:18,3.6,3.6,3.6,3.6,3.6;stroke-dashoffset:4;}
	
		.st9{fill:none;stroke:#000000;stroke-width:0.51;stroke-linecap:round;stroke-linejoin:round;stroke-miterlimit:10;stroke-dasharray:18,3.6,3.6,3.6,3.6,3.6;stroke-dashoffset:7;}
</style>
  <style
     id="style7365"
     type="text/css">
	.st0{font-family:'ArialUnicodeMS';}
	.st1{font-size:20.1547px;}
	.st2{fill:none;stroke:#000000;stroke-width:0.51;stroke-miterlimit:10;}
	.st3{fill:none;stroke:#000000;stroke-width:0.51;stroke-linecap:round;stroke-linejoin:round;stroke-miterlimit:10;}
	.st4{fill-rule:evenodd;clip-rule:evenodd;}
	.st5{fill:none;stroke:#000000;stroke-width:0.709;stroke-linecap:round;stroke-linejoin:round;stroke-miterlimit:10;}
</style>
  <style
     id="style7444"
     type="text/css">
	.st0{font-family:'ArialUnicodeMS';}
	.st1{font-size:19.9683px;}
	.st2{font-size:19.9682px;}
	.st3{font-size:19.9684px;}
	.st4{font-size:10.3528px;}
	.st5{fill:none;stroke:#000000;stroke-width:0.51;stroke-miterlimit:10;}
	.st6{fill:none;stroke:#000000;stroke-width:0.51;stroke-linecap:round;stroke-linejoin:round;stroke-miterlimit:10;}
	.st7{fill:none;stroke:#000000;stroke-width:0.709;stroke-linecap:round;stroke-linejoin:round;stroke-miterlimit:10;}
</style>
  <style
     id="style7517"
     type="text/css">
	.st0{font-family:'ArialUnicodeMS';}
	.st1{font-size:20.1547px;}
	.st2{fill:none;stroke:#000000;stroke-width:0.709;stroke-linecap:round;stroke-linejoin:round;stroke-miterlimit:10;}
</style>
  <style
     id="style7579"
     type="text/css">
	.st0{font-family:'ArialUnicodeMS';}
	.st1{font-size:16.5644px;}
	.st2{font-size:20.1547px;}
	.st3{fill:none;stroke:#000000;stroke-width:0.51;stroke-miterlimit:10;}
	.st4{fill:none;stroke:#000000;stroke-width:0.51;stroke-linecap:round;stroke-linejoin:round;stroke-miterlimit:10;}
	.st5{fill:none;stroke:#000000;stroke-width:0.709;stroke-linecap:round;stroke-linejoin:round;stroke-miterlimit:10;}
	
		.st6{fill:none;stroke:#000000;stroke-width:0.51;stroke-linecap:round;stroke-linejoin:round;stroke-miterlimit:10;stroke-dasharray:18,3.6,3.6,3.6,3.6,3.6;stroke-dashoffset:-1;}
</style>
</svg>
