<?xml version="1.0" encoding="utf-8"?>
<!-- Generator: Adobe Illustrator 23.0.1, SVG Export Plug-In . SVG Version: 6.00 Build 0)  -->
<svg version="1.1" id="Слой_1" xmlns="http://www.w3.org/2000/svg" xmlns:xlink="http://www.w3.org/1999/xlink" x="0px" y="0px"
	 viewBox="0 0 311.58 355.84" style="enable-background:new 0 0 311.58 355.84;" xml:space="preserve">
<style type="text/css">
	.st0{fill:none;stroke:#000000;stroke-width:0.51;stroke-miterlimit:10;}
	.st1{fill:none;stroke:#000000;stroke-width:0.51;stroke-linecap:round;stroke-linejoin:round;stroke-miterlimit:10;}
	.st2{fill:none;stroke:#000000;stroke-width:0.709;stroke-linecap:round;stroke-linejoin:round;stroke-miterlimit:10;}
	
		.st3{fill:none;stroke:#000000;stroke-width:0.51;stroke-linecap:round;stroke-linejoin:round;stroke-miterlimit:10;stroke-dasharray:18,3.6,3.6,3.6,3.6,3.6;stroke-dashoffset:-1;}
</style>
<polyline class="st0" points="230.16,241.46 229.74,241.16 229.27,240.96 228.77,240.93 228.29,241.07 227.88,241.37 227.61,241.79 
	227.49,242.28 227.55,242.78 227.71,243.28 223.03,234.4 230.16,241.46 "/>
<line class="st1" x1="259.67" y1="283.81" x2="223.03" y2="234.4"/>
<polyline points="230.16,241.46 229.74,241.16 229.27,240.96 228.77,240.93 228.29,241.07 227.88,241.37 227.61,241.79 
	227.49,242.28 227.55,242.78 227.71,243.28 223.03,234.4 230.16,241.46 "/>
<path class="st2" d="M135.19,126.43l-27.24,16.91 M136.62,128.04l-28.89,17.94 M143.68,170.37l8.46,15.34 M160.08,136.33l4.39-22.18
	 M145.02,168.39l9.32,16.91 M157.99,135.92l4.51-22.78 M183.83,141.04l-23.76-4.71 M144.01,133.15l-16.72-18.8 M184.17,143.27
	l-37.82-7.49 M151.76,158.36l25.94,11.18 M134.29,184.34l9.4-13.98 M135.19,126.43l-9.75-10.97 M132.22,183.61l10.31-15.33
	 M152.97,156.57l25.9,11.16 M109.91,160.7l24.12-7.85 M109.25,158.67l24.82-8.07 M135.94,151.92l13.91-9 M155.39,149.15l-5.54-6.23
	 M143.86,166.29l11.53-17.14 M135.94,151.92l7.92,14.37 M152.97,156.57l5.11-7.6 M158.08,148.97l-11.73-13.19 M157.99,135.92
	l-13.98-2.77 M148.43,141.32l-11.81-13.28 M134.07,150.6l14.35-9.29 M134.03,152.85l8.5,15.43 M145.02,168.39l6.74-10.02
	 M154.34,185.29l-0.27,0.06l-0.27,0.06l-0.27,0.05l-0.27,0.05l-0.28,0.05l-0.27,0.05l-0.28,0.05l-0.28,0.05 M134.29,184.34
	l-0.26-0.09l-0.26-0.09l-0.26-0.09l-0.26-0.09l-0.26-0.09l-0.26-0.1l-0.26-0.1l-0.26-0.1 M109.91,160.7l-0.09-0.25l-0.09-0.25
	l-0.08-0.25l-0.08-0.25l-0.08-0.25l-0.08-0.25l-0.08-0.25l-0.08-0.26 M107.73,145.98l0.02-0.33l0.02-0.33l0.02-0.33l0.03-0.33
	l0.03-0.33l0.03-0.33l0.03-0.33l0.04-0.33 M125.43,115.46l0.23-0.14l0.23-0.14l0.23-0.14l0.23-0.14l0.23-0.14l0.23-0.14l0.24-0.14
	l0.24-0.13 M162.5,113.14l0.25,0.12l0.25,0.12l0.25,0.12l0.25,0.12l0.25,0.13l0.24,0.13l0.24,0.13l0.24,0.13 M183.83,141.04
	l0.05,0.28l0.05,0.28l0.04,0.28l0.04,0.28l0.04,0.28l0.04,0.28l0.04,0.28l0.03,0.28 M178.87,167.73l-0.14,0.23l-0.14,0.23
	l-0.14,0.23l-0.15,0.23l-0.15,0.23l-0.15,0.23l-0.15,0.22l-0.15,0.22 M109.43,125.03l0.09,0.06l0.09,0.06l0.08,0.05l0.08,0.05
	l0.07,0.04l0.06,0.04l0.05,0.03l0.04,0.02 M106.89,126.85l0.31,0.11l0.52-0.16l0.57-0.41l0.58-0.61l0.55-0.75 M132.65,106.81
	l0.03,0.1l0.03,0.1l0.03,0.1l0.03,0.09l0.03,0.08l0.02,0.07l0.02,0.06l0.01,0.04 M129.53,106.58l0.17,0.28l0.5,0.22l0.7,0.05
	l0.84-0.09l0.9-0.22 M188.28,156.71l-0.11-0.02l-0.1-0.02l-0.1-0.02l-0.09-0.02l-0.08-0.02l-0.07-0.01l-0.06-0.01l-0.04-0.01
	 M190.04,154.12l-0.33,0.01l-0.44,0.33l-0.4,0.58l-0.34,0.77l-0.26,0.89 M172.69,181.77l-0.07-0.08l-0.07-0.08l-0.06-0.08
	l-0.06-0.07l-0.05-0.07l-0.05-0.06l-0.04-0.05l-0.03-0.04 M175.7,180.92l-0.25-0.2l-0.55-0.03l-0.68,0.19l-0.75,0.38l-0.77,0.52
	 M144.64,190.94v-0.11v-0.11v-0.1v-0.09v-0.08v-0.07v-0.06v-0.04 M147.49,192.22l-0.06-0.32l-0.4-0.37l-0.64-0.29l-0.82-0.2
	l-0.93-0.1 M117.25,179.94l0.07-0.08l0.07-0.08l0.07-0.07l0.06-0.07l0.06-0.06l0.05-0.05l0.04-0.04l0.03-0.03 M118.61,182.75
	l0.16-0.29l-0.06-0.54l-0.31-0.63l-0.5-0.68l-0.64-0.67 M103.35,153.91l0.11-0.02l0.11-0.01l0.1-0.01l0.09-0.01l0.08-0.01l0.07-0.01
	l0.06-0.01l0.04-0.01 M102.58,156.93l0.3-0.12l0.3-0.46l0.17-0.68l0.05-0.84l-0.06-0.93 M162.15,107.78l-0.04,0.1l-0.04,0.1
	l-0.04,0.09l-0.04,0.09l-0.03,0.08l-0.03,0.07l-0.02,0.05l-0.02,0.04 M159.91,105.6l-0.05,0.32l0.24,0.49l0.5,0.49l0.7,0.47
	l0.84,0.41 M184.12,127.49l-0.1,0.05l-0.09,0.05l-0.09,0.05l-0.08,0.04l-0.07,0.04l-0.06,0.03l-0.05,0.03l-0.04,0.02 M183.8,124.38
	l-0.25,0.21l-0.12,0.53l0.07,0.7l0.24,0.81l0.38,0.85 M119.28,182.86l-0.11-0.08l-0.12-0.06l-0.13-0.03h-0.13l-0.07,0.01
	 M159.83,105.68l-0.06,0.03l-0.13,0.05l-0.13,0.02l-0.14-0.01l-0.13-0.04 M103.02,157.45l-0.03-0.14l-0.06-0.12l-0.08-0.11
	l-0.1-0.08l-0.06-0.03 M175.92,180.28l-0.1,0.1l-0.08,0.11l-0.05,0.12l-0.02,0.13v0.07 M183.21,124.05l0.08,0.12l0.1,0.1l0.11,0.07
	l0.12,0.04l0.07,0.01 M129.1,107.1l0.13-0.06l0.11-0.08l0.09-0.1l0.07-0.12l0.02-0.06 M189.8,153.49l-0.02,0.14l0.01,0.14l0.04,0.13
	l0.07,0.11l0.04,0.05 M148.07,191.88l-0.14,0.01l-0.13,0.04l-0.12,0.06l-0.1,0.09l-0.04,0.05 M106.9,127.53l0.06-0.12l0.04-0.13
	l0.01-0.13l-0.02-0.13l-0.02-0.06 M175.95,187.89v0.03 M171.15,190.99L171.15,190.99l0.03,0.01 M143.2,197.73l-0.02,0.02
	 M137.53,197.01L137.53,197.01l0.02,0.03 M190.72,125.34h0.03 M192.93,130.61L192.93,130.61l0.01-0.03 M104.26,120.38l-0.01-0.03
	 M107.72,115.83L107.72,115.83l-0.03,0.01 M131.68,99.93l0.01-0.03 M137.25,98.67L137.25,98.67l-0.03-0.02 M194.72,159.3l0.02,0.02
	 M193.03,164.76L193.03,164.76l0.03-0.02 M165.82,101.89l0.02-0.02 M170.9,104.51L170.9,104.51l-0.01-0.03 M111.78,184.22
	l-0.03,0.01 M107.91,180.02L107.91,180.02v0.03 M96.41,153.67l-0.03-0.01 M96.13,147.96L96.13,147.96l-0.02,0.03 M124.67,190.45
	l-0.01,0.1l0.01,0.1l0.03,0.09l0.04,0.07 M180.74,115.08l0.04-0.09l0.02-0.09v-0.09l-0.01-0.08 M184.33,176.29l0.1,0.02l0.1,0.01
	l0.09-0.01l0.08-0.02 M151.58,100.44l-0.03-0.09l-0.04-0.09l-0.05-0.07l-0.06-0.06 M193.68,145.03l0.09-0.04l0.08-0.06l0.06-0.07
	l0.05-0.07 M100.37,134.15l-0.1,0.01l-0.09,0.03l-0.08,0.04l-0.07,0.05 M157.08,194.22l0.06,0.08l0.07,0.07l0.08,0.05l0.08,0.03
	 M119.84,107.98l-0.08-0.06l-0.09-0.04l-0.09-0.02h-0.08 M102.27,166.72l-0.07,0.07l-0.05,0.08l-0.04,0.08l-0.02,0.08 M87.11,133.09
	l0.58-0.91l2.46-3.55l3.38-4.18 M94.36,124.31l-0.14-0.08l-0.14-0.06l-0.14-0.03h-0.13l-0.11,0.04l-0.09,0.07l-0.06,0.09l-0.02,0.11
	 M206.49,141.49l-0.23,1.05l-1.1,4.18l-1.75,5.08 M110.37,98.65l1.03-0.33l4.17-1.14l5.28-1.03 M121.57,96.58l-0.05-0.15l-0.07-0.14
	l-0.09-0.11l-0.1-0.08l-0.11-0.04h-0.11l-0.1,0.03l-0.09,0.07 M150.33,87.21l1,0.41l3.93,1.81l4.7,2.6 M160.23,92.82l0.06-0.15
	l0.03-0.15v-0.14l-0.03-0.13l-0.05-0.1l-0.08-0.07l-0.1-0.04l-0.11-0.01 M91.44,174.43l-0.14-1.07l-0.4-4.3l-0.1-5.38 M91.35,163.04
	l-0.16,0.02l-0.15,0.05l-0.12,0.07l-0.1,0.09l-0.06,0.1l-0.02,0.11l0.01,0.11l0.05,0.1 M121.32,203.31l-0.8-0.73l-3.07-3.04
	l-3.53-4.06 M113.94,194.65l-0.11,0.12l-0.08,0.13l-0.05,0.13l-0.02,0.13l0.02,0.11l0.05,0.1l0.08,0.07l0.1,0.05 M196.42,181.82
	l-0.85,0.66l-3.53,2.5l-4.61,2.77 M186.6,187.59l0.1,0.13l0.12,0.1l0.12,0.07l0.12,0.04h0.12l0.1-0.03l0.09-0.07l0.06-0.1
	 M188.29,104.13l0.5,0.96l1.85,3.91l1.93,5.02 M192.27,114.8l0.14-0.08l0.12-0.1l0.09-0.11l0.06-0.11l0.02-0.11l-0.01-0.11
	l-0.05-0.1l-0.08-0.08 M162.78,206.23l-1.08-0.05l-4.31-0.36l-5.31-0.84 M188.08,117.27l-0.08-0.08l-0.05-0.09 M98.6,126.7
	l-0.02,0.11l-0.05,0.09 M158.62,97.41l-0.11-0.01l-0.1-0.04 M96.13,162.15l0.05,0.1l0.01,0.1 M117.02,190.89l0.11,0.04l0.08,0.07
	 M123.28,101.13l-0.09,0.07l-0.1,0.03 M183.44,183.89l0.06-0.1l0.08-0.07 M151.5,199.48l0.11-0.03h0.1 M197.88,151.43l-0.01-0.11
	l0.02-0.1 M89.26,158.7l-0.07-0.04 M195.72,118.17l0.08,0.01 M164.74,80.87l0.02-0.01 M78.74,165.11l-0.02-0.01 M194.7,197.47v0.02
	 M203.41,108.54l0.02,0.01 M151.4,217.12l-0.02,0.02 M105.61,204.34h-0.02 M117.34,84.52l0.01-0.02 M83.37,117.79l-0.01-0.02
	 M215.24,154.59l0.01,0.02 M218.71,164.1l-0.5,0.81l-0.46,1.09l-0.35,1.18l-0.2,1.12l-0.05,0.64 M123.83,76.76l0.96,0.03l1.17-0.15
	l1.2-0.29l1.07-0.38l0.58-0.28 M142.65,222.19l-0.89-0.35l-1.15-0.26l-1.23-0.14l-1.14-0.01l-0.64,0.06 M212.18,113.59l0.14,0.95
	l0.35,1.13l0.49,1.13l0.57,0.99l0.38,0.52 M83.36,107.67l0.75-0.59l0.8-0.87l0.73-0.99l0.57-0.98l0.27-0.59 M95.64,202.6l-0.45-0.84
	l-0.71-0.94l-0.85-0.89l-0.87-0.74l-0.53-0.36 M72.23,157.37l0.19-0.94l0.06-1.18l-0.08-1.23l-0.19-1.12l-0.17-0.62 M191.25,206.99
	l-0.91,0.3l-1.05,0.54l-1.03,0.68l-0.88,0.73l-0.45,0.46 M174.71,79.1l0.71,0.64l0.99,0.64l1.11,0.55l1.07,0.39l0.62,0.16
	 M187.32,98.06l0.81,0.14l3.19,0.6l10.73,2.67 M187.32,98.06l-0.08-0.08l-0.09-0.06l-0.1-0.04l-0.06-0.01 M124.31,208.69l-0.81,0.15
	l-3.21,0.53l-10.99,1.15 M124.68,208.76l-0.06,0.01h-0.1l-0.1-0.02l-0.1-0.05 M105.92,210.65l4.91-0.31l4.83-0.47l4.74-0.63
	l4.64-0.79 M209.65,136.22l0.53,0.63l2.06,2.51l6.5,8.94 M209.53,135.87l0.04,0.05l0.05,0.09l0.03,0.1l0.01,0.11 M82.34,136.97
	l-0.29-0.77l-1.08-3.07l-3.05-10.62 M82.34,137.34l-0.02-0.06l-0.02-0.1l0.01-0.11l0.03-0.11 M145.68,83.18l0.71-0.41l2.83-1.59
	l9.93-4.85 M145.31,83.24l0.05-0.03l0.1-0.03l0.11-0.01l0.11,0.01 M162.29,75.05l-4.51,1.97l-4.38,2.09l-4.23,2.21l-4.09,2.33
	 M77.21,119.2l1.15,4.79l1.3,4.67l1.44,4.55l1.58,4.43 M220.55,151.16l-2.72-4.1l-2.82-3.95l-2.91-3.79l-3-3.62 M90.27,180.47
	l-0.71-0.41l-2.8-1.65l-9.16-6.18 M90.51,180.76l-0.05-0.03l-0.08-0.07l-0.06-0.09l-0.05-0.1 M74.93,170.15l3.96,2.92l4,2.74
	l4.03,2.56l4.06,2.38 M205.27,102.5l-4.72-1.39l-4.7-1.21l-4.67-1.03l-4.63-0.85 M104.22,98.54l0.28-0.77l1.14-3.04l4.5-10.1
	 M103.98,98.83l0.02-0.06l0.05-0.09l0.07-0.08l0.09-0.06 M168.53,208.43l-0.53,0.63l-2.12,2.47l-7.68,7.95 M168.85,208.24
	l-0.04,0.05l-0.08,0.07l-0.1,0.05l-0.11,0.03 M155.7,221.75l3.57-3.39l3.4-3.46l3.22-3.53l3.05-3.59 M202.23,179.81v0.82l-0.04,3.25
	l-0.77,11.03 M202.36,179.46v0.06l-0.02,0.1l-0.04,0.1l-0.06,0.09 M111.72,81.64l-2.19,4.41l-2.01,4.41l-1.82,4.42l-1.64,4.41
	 M200.97,198.26l0.55-4.89l0.38-4.84l0.2-4.77l0.03-4.71 M203.06,97.15l0.06,0.1l0.05,0.04 M204.52,99.16v-0.02 M74.48,173.57v-0.02
	 M75.12,175.76l0.03,0.06l0.02,0.12 M204.15,196.93l-0.02,0.01 M205.73,195.28l0.04-0.06l0.09-0.08 M74.68,121.54l0.02-0.01
	 M73.75,123.63l-0.01,0.07l-0.06,0.1 M222.13,148.1l-0.01,0.02 M222.28,145.82l-0.01-0.07l0.02-0.12 M107.78,213.56l-0.01-0.02
	 M109.68,214.83l0.06,0.02l0.09,0.08 M159.55,72.95l0.02,0.01 M157.33,72.41h-0.07l-0.11-0.04 M108.27,81.8h0.02 M106.22,82.81
	l-0.05,0.04l-0.11,0.04 M158.99,222.78l-0.02-0.01 M161.26,222.53l0.07-0.02h0.12 M179.21,81.48l1.12,0.24l4.46,1.12l9.28,3.25
	l8.16,4.06 M86.48,103.65l0.43-1.07l1.87-4.2l4.81-8.58L99,82.47 M137.6,221.5l-1.14,0.16l-4.57,0.48l-9.83,0.12l-9.06-1.02
	 M186.94,209.7l-0.77,0.85l-3.2,3.3l-7.45,6.42l-7.59,5.04 M128.81,75.69l1.01-0.54l4.13-2.01l9.2-3.48l8.86-2.14 M92.22,198.82
	l-0.97-0.61l-3.81-2.57l-7.61-6.23l-6.28-6.6 M214.1,118.3l0.71,0.91l2.7,3.72l5.03,8.45l3.64,8.35 M72.03,152.28l-0.36-1.09
	l-1.26-4.42l-1.83-9.66l-0.57-9.1 M217.15,168.94l-0.04,1.15l-0.33,4.58l-1.58,9.71l-2.58,8.74 M162.48,67.3l0.01,0.01
	 M106.88,75.58h0.02 M158.18,229.1l-0.02-0.01 M103.1,217.87l-0.01-0.02 M69.61,117.67L69.61,117.67 M210.4,96.69v0.02
	 M68.12,173.86v-0.02 M207.59,202.3l-0.02,0.01 M228.21,150l-0.01,0.02 M203.99,206.24l0.01-0.02 M111.61,73.11l-0.01,0.02
	 M167.69,68.44l-0.02,0.01 M213.65,100.92l-0.02-0.01 M227.99,155.34l-0.01-0.02 M71.65,112.73v0.02 M66.5,168.77l0.02,0.02
	 M152.88,229.81l0.02-0.01 M98.59,215.01h0.02 M144.9,64.12v0.04l0,0 M198.97,82.96l-0.02,0.03l0,0 M74.2,190.65L74.2,190.65
	l-0.04,0.02 M91.4,84.48L91.4,84.48l-0.03-0.03 M118.54,226.82L118.54,226.82l-0.01,0.04 M63.48,134.43L63.48,134.43l-0.04-0.01
	 M228.24,132.15L228.24,132.15l0.04-0.01 M175.76,226.03L175.76,226.03l0.02,0.04 M219.09,188.64L219.09,188.64l0.04,0.02
	 M62.58,153.34L62.58,153.34h-0.04 M63.31,155.88L63.31,155.88l0.03,0.03 M78.56,98.39L78.56,98.39l-0.03-0.02 M77.49,100.81
	L77.49,100.81v0.04 M126.12,66.52l0.01,0.04l0,0 M137,230.99L137,230.99l-0.01,0.04 M139.64,230.71L139.64,230.71l0.04-0.02
	 M183.04,72.73l-0.02,0.03l0,0 M85.66,205.71L85.66,205.71l-0.03,0.03 M87.86,207.19L87.86,207.19l0.04,0.01 M226.4,171.18
	L226.4,171.18l0.04,0.01 M192.58,217.36L192.58,217.36l0.02,0.03 M194.42,215.45L194.42,215.45l0.02-0.04 M222.62,114.08
	L222.62,114.08l0.04-0.02 M221.06,111.94L221.06,111.94l-0.04-0.02 M202.09,129.48l-0.01,1.07l-0.23,4.27l-1.36,8.37l-2.6,8.23
	 M211.94,124.17l0.65,0.94l2.45,3.85l4.12,8.04l3.14,8.63 M200.77,169.79l-0.7,0.82l-2.92,3.12l-6.43,5.54l-7.29,4.63
	 M211.73,172.04l-0.11,1.14l-0.6,4.52l-2.01,8.81l-3.14,8.63 M173.85,199.81l-1.06,0.18l-4.25,0.52l-8.48,0.11l-8.56-1.14
	 M180.79,208.59l-0.81,0.8l-3.37,3.08l-7.2,5.45l-7.96,4.59 M172.28,181.24l0.93-0.66l0.89-0.5l0.79-0.29l0.61-0.03l0.36,0.27
	l0.06,0.25 M133.93,205.51l-0.92-0.54l-3.59-2.34l-6.57-5.37l-5.83-6.37 M133.61,216.69l-1.14,0.09l-4.56,0.19l-9.02-0.45l-9.05-1.6
	 M144.66,190.28l1.14,0.09l1.01,0.19l0.79,0.28l0.48,0.37l0.1,0.43l-0.11,0.23 M99.68,184.21l-0.36-1.01l-1.25-4.09l-1.58-8.33
	l-0.37-8.62 M92.25,192.57l-0.93-0.66l-3.62-2.78l-6.62-6.15l-5.91-7.04 M117.7,179.44l0.81,0.8l0.65,0.79l0.42,0.73l0.13,0.6
	l-0.2,0.4l-0.23,0.1 M87.14,145.89l0.38-1l1.68-3.94l4.15-7.4l5.26-6.84 M76.07,147.51l-0.29-1.1l-0.98-4.46l-1.12-8.97v-9.19
	 M104.01,153.81l0.11,1.14l-0.01,1.02l-0.14,0.83l-0.28,0.54l-0.41,0.18l-0.25-0.07 M102.17,108.46l0.93-0.53l3.82-1.94l7.93-3.01
	l8.43-1.86 M92.64,102.59l0.49-1.03l2.11-4.05l4.91-7.59l5.91-7.04 M183.53,127.8l-0.49-1.03l-0.34-0.97l-0.15-0.82l0.08-0.61
	l0.33-0.31l0.25-0.02 M109.99,125.38l-0.65,0.94l-0.67,0.78l-0.64,0.54l-0.56,0.24l-0.43-0.13l-0.14-0.21 M132.85,107.44l-1.1,0.3
	l-1.01,0.17h-0.84l-0.58-0.18l-0.25-0.37l0.03-0.26 M187.63,156.57l0.29-1.11l0.36-0.96l0.42-0.73l0.45-0.41l0.45-0.02l0.21,0.15
	 M137.73,89.46l1.05,0.19l4.17,0.97l8.01,2.8l7.65,3.99 M161.9,108.4l-1.04-0.48l-0.88-0.52l-0.64-0.54l-0.33-0.52l0.05-0.44
	l0.18-0.18 M181.32,87.36l1.1,0.3l4.35,1.38l8.33,3.51l7.96,4.59 M177.2,97.76l0.68,0.83l2.57,3.42l4.34,7.29l3.29,7.98
	 M134.21,78.84l1.04-0.48l4.22-1.74l8.64-2.66l9.05-1.6 M87,83.41l1.59-1.15l4.52-3.28l6.24-4.53l3.52-2.57 M189.28,71.91l1.41,1.03
	l4.57,3.32l6.15,4.47l3.45,2.5 M66.56,184.08l-0.97-3l-2.1-6.44l-1.21-3.72l-1.86-5.71 M231.59,165.53l-0.54,1.64l-1.76,5.42
	l-2.32,7.15l-1.29,3.97 M155.98,234.64l-3.15-0.01h-6.78h-3.91l-6,0.01 M61.94,120.48l2.19-6l2.62-5.83l3.03-5.62l3.43-5.39
	l3.81-5.13l4.17-4.84l4.51-4.52l4.82-4.19l5.11-3.83l5.38-3.45l5.61-3.05l5.82-2.64l5.99-2.21l6.13-1.77l6.25-1.33l6.33-0.87
	l6.37-0.42l6.39,0.05l6.37,0.51l6.31,0.96l6.23,1.42l6.11,1.86l5.96,2.3l5.78,2.72l5.57,3.13l5.33,3.53l5.06,3.9l4.76,4.26
	l4.44,4.59l4.1,4.9l3.74,5.18l3.35,5.44l2.95,5.66l2.54,5.86l2.1,6.03l1.66,6.17l1.22,6.27l0.76,6.34l0.3,6.38l-0.16,6.39
	l-0.62,6.36l-1.08,6.29l-1.53,6.2l-1.97,6.07l-2.41,5.92l-2.83,5.73l-3.23,5.51l-3.62,5.26l-3.99,4.98l-4.34,4.68l-4.67,4.36
	l-4.97,4.01l-5.25,3.64l-5.5,3.25l-5.72,2.85l-5.91,2.43l-6.07,2l-6.2,1.55l-6.29,1.1l-6.35,0.64l-6.38,0.18l-6.38-0.28l-6.34-0.74
	l-6.28-1.19l-6.17-1.64l-6.04-2.08l-5.87-2.51l-5.68-2.93l-5.45-3.33l-5.19-3.72l-4.91-4.08l-4.6-4.43l-4.27-4.75l-3.92-5.04
	l-3.54-5.31l-3.15-5.55l-2.74-5.77l-2.32-5.95l-1.89-6.1l-1.44-6.22l-0.99-6.31l-0.53-6.36l-0.07-6.39l0.39-6.38l0.85-6.33
	l1.31-6.25L61.94,120.48 M59.79,175.85l-1.84-6.45l-1.35-6.57l-0.87-6.65l-0.37-6.69l0.12-6.7l0.62-6.68l1.11-6.61l1.6-6.51
	l2.07-6.38l2.54-6.21l2.99-6l3.42-5.76l3.84-5.49l4.24-5.2l4.61-4.87l4.95-4.52l5.27-4.14 M146.06,238.53l-6.7-0.25l-6.66-0.74
	l-6.59-1.23l-6.48-1.72l-6.34-2.19l-6.16-2.65l-5.95-3.1l-5.7-3.53l-5.42-3.94l-5.12-4.33l-4.78-4.7l-4.42-5.04l-4.04-5.35
	l-3.63-5.63l-3.21-5.89l-2.76-6.11l-2.3-6.3 M232.33,175.85l-2.31,6.3l-2.76,6.11l-3.21,5.89l-3.63,5.63l-4.04,5.35l-4.42,5.04
	l-4.78,4.7l-5.12,4.33l-5.42,3.94l-5.7,3.53l-5.95,3.1l-6.16,2.65l-6.34,2.19l-6.48,1.72l-6.59,1.23l-6.66,0.74l-6.7,0.25
	 M92.74,74.43l5.57-3.74l5.83-3.32l6.06-2.88l6.25-2.42l6.41-1.95l6.54-1.47l6.63-0.99l6.68-0.5h6.7l6.69,0.5l6.63,0.99l6.54,1.48
	l6.41,1.95l6.25,2.42l6.06,2.88l5.83,3.32l5.57,3.74 M199.38,74.43l5.27,4.14l4.95,4.52l4.61,4.87l4.23,5.2l3.84,5.5l3.42,5.76
	l2.99,6l2.54,6.2l2.07,6.38l1.6,6.51l1.11,6.61l0.62,6.68l0.12,6.7l-0.37,6.69l-0.86,6.65l-1.35,6.57l-1.83,6.45 M135.43,241.72
	L135.43,241.72v-0.27v-0.59V240v-1.02v-1.07 M209.85,78.1L209.85,78.1l-0.16,0.22l-0.35,0.48l-0.5,0.69l-0.6,0.83l-0.63,0.87
	 M232.08,186.94L232.08,186.94l-0.26-0.08l-0.56-0.18l-0.81-0.26l-0.97-0.32l-1.02-0.33 M53.47,166.73L53.47,166.73l0.26-0.08
	l0.56-0.18l0.82-0.27l0.97-0.32l1.02-0.33 M99.47,65.6L99.47,65.6l0.16,0.22l0.35,0.48l0.5,0.69l0.6,0.83l0.63,0.87 M84.51,81.18
	l-0.63-0.87l-0.6-0.83l-0.5-0.69l-0.35-0.48l-0.15-0.21l-0.01-0.01 M156.69,237.9v1.07v1.02v0.86v0.59v0.26v0.01 M190.41,68.69
	l0.63-0.87l0.6-0.83l0.5-0.69l0.35-0.48l0.15-0.21l0.01-0.01 M235.02,165.55l1.02,0.33l0.97,0.32l0.81,0.27l0.56,0.18l0.25,0.08
	h0.01 M63.67,185.77l-1.02,0.33l-0.97,0.32l-0.81,0.26l-0.56,0.18l-0.25,0.08h-0.01 M209.13,237.11v0.04v0.23v0.41v0.52
	 M209.13,238.31v0.55v0.5v0.38v0.19v0.02 M211.5,235.4h0.01l0.17,0.05l0.35,0.11l0.47,0.15l0.52,0.17l0.5,0.16l0.4,0.13l0.23,0.08
	l0.05,0.02 M135.7,17.34l-0.08-0.03l-0.7-0.03l-0.84,0.25l-0.85,0.49l-0.73,0.66L132,19.4l-0.19,0.68v0.09 M156.42,17.34l0.47-0.08
	l0.8,0.14l0.86,0.4l0.79,0.6l0.6,0.71l0.32,0.71l0.04,0.35 M141.8,43.6l4.23-0.41l4.27,0.4 M143.88,26.09l0.9,0.89l0.55,0.3
	l0.65,0.14l0.58-0.06l0.61-0.25l0.79-0.64l0.31-0.38 M139.24,35.78l0.36-0.34l0.38-0.64l0.14-0.7l-0.1-0.61l-0.33-0.63
	 M137.83,30.86l0.01-0.07l0.09-0.01l0.21,0.11l0.38,0.37l0.24,0.31 M138.77,31.56l0.94,1.29 M143.88,26.09l-0.17-0.23 M143.7,25.86
	l-0.31-0.44l-0.07-0.11 M143.32,25.3l-0.07-0.1 M148.88,25.18l-0.08,0.11l-0.21,0.32l-0.17,0.23 M148.43,25.85l-0.18,0.24
	 M152.42,32.85l0.94-1.29 M153.35,31.56l0.55-0.62l0.22-0.15l0.15-0.01l0.02,0.09l-0.07,0.18 M150.3,43.57l-1.05-0.16l-1.06-0.12
	l-1.06-0.07l-1.06-0.02l-1.06,0.02l-1.06,0.07l-1.06,0.12l-1.05,0.16 M152.42,32.85l-0.35,0.72l-0.06,0.68l0.2,0.69l0.38,0.57
	l0.31,0.28 M128.07,51.92l-0.02-0.03l-0.2-0.28 M127.84,51.61l-0.4-0.55l-0.53-0.73l-0.59-0.8l-0.55-0.75l-0.43-0.59l-0.24-0.33
	l-0.04-0.05 M141.85,43.56L141.85,43.56h-0.03 M141.83,43.57l-0.03-0.03l0.05-0.11l0.11-0.16l0.26-0.32l0.56-0.54l0.62-0.49
	 M144.58,41.06l-1.18,0.86 M139.14,35.91l-0.21,0.17 M147.55,41.06l-0.76-0.39l-0.86-0.11l-0.77,0.18l-0.58,0.33 M164.05,51.92
	l0.12-0.16l0.32-0.45l0.49-0.67l0.57-0.79l0.57-0.79l0.49-0.67l0.33-0.45l0.11-0.16 M153.2,36.07l-0.21-0.17 M148.72,41.92
	l-1.18-0.86 M148.72,41.92l0.9,0.74l0.35,0.36l0.26,0.33l0.08,0.14l0.01,0.07h-0.02 M150.3,43.57l-0.03-0.01 M18.76,117.35
	l-0.05,0.07l-0.24,0.66l-0.02,0.88l0.2,0.96l0.4,0.9l0.53,0.7l0.58,0.39l0.09,0.03 M25.17,97.64l0.07-0.47l0.38-0.72l0.65-0.7
	l0.82-0.57l0.86-0.36l0.77-0.09l0.34,0.07 M45.63,119.66l0.92-4.15l1.7-3.94 M29.62,112.28l1.12-0.58l0.45-0.43l0.33-0.57l0.12-0.57
	l-0.05-0.65l-0.36-0.95l-0.26-0.41 M37.4,119.68l-0.21-0.45l-0.49-0.56l-0.62-0.35l-0.61-0.1l-0.7,0.11 M32.29,119.5l-0.07-0.04
	l0.01-0.09l0.17-0.17l0.47-0.25l0.37-0.14 M33.24,118.83l1.52-0.49 M29.62,112.28l-0.27,0.09 M29.34,112.37l-0.52,0.16l-0.13,0.04
	 M28.69,112.56l-0.12,0.04 M30.3,107.24l0.08,0.11l0.24,0.3l0.17,0.23 M30.79,107.88l0.18,0.24 M38.69,106.25l-0.94-1.29
	 M37.75,104.96l-0.42-0.71l-0.07-0.26l0.04-0.15l0.09,0.01l0.15,0.12 M48.22,111.57l-0.48,0.95l-0.44,0.97l-0.4,0.99l-0.35,1.01
	l-0.31,1.02l-0.26,1.03l-0.22,1.04l-0.17,1.05 M38.69,106.25l0.57,0.55l0.62,0.27l0.72,0.03l0.66-0.18l0.36-0.2 M49.3,135.3
	l-0.03,0.01l-0.33,0.11 M48.93,135.41l-0.65,0.21l-0.86,0.28l-0.95,0.31l-0.89,0.29l-0.69,0.22l-0.39,0.13l-0.07,0.02 M45.61,119.61
	L45.61,119.61v0.03 M45.61,119.63l-0.04,0.02l-0.09-0.08l-0.12-0.15l-0.22-0.35l-0.34-0.7l-0.28-0.75 M44.07,116.24l0.45,1.38
	 M37.49,119.82l0.1,0.25 M44.99,113.42l-0.61,0.61l-0.37,0.78l-0.07,0.78l0.13,0.65 M60.42,101.07l-0.11-0.16l-0.32-0.45l-0.49-0.67
	L58.93,99l-0.57-0.79l-0.49-0.67l-0.32-0.45l-0.11-0.16 M41.99,106.5l-0.23,0.15 M46.17,112.56l-1.18,0.86 M46.17,112.56l0.99-0.63
	l0.45-0.22l0.4-0.14l0.16-0.03l0.07,0.02v0.02 M48.22,111.57l-0.01,0.02 M266.96,97.64v-0.08l-0.19-0.68l-0.5-0.72l-0.73-0.66
	l-0.85-0.49l-0.84-0.25l-0.7,0.03l-0.09,0.03 M273.36,117.35l0.22,0.43l0.11,0.8l-0.11,0.94l-0.33,0.94l-0.49,0.79l-0.57,0.53
	l-0.32,0.14 M243.86,111.57l1.69,3.9l0.94,4.18 M261.16,108.12l-0.57,1.13l-0.11,0.61l0.07,0.66l0.23,0.53l0.43,0.5l0.85,0.55
	l0.46,0.18 M250.51,106.71l0.44,0.24l0.73,0.17l0.71-0.08l0.55-0.28l0.5-0.51 M254.75,103.85l0.07-0.01l0.04,0.08l-0.04,0.24
	l-0.23,0.47l-0.22,0.33 M254.37,104.96l-0.94,1.29 M261.16,108.12l0.17-0.23 M261.33,107.89l0.33-0.43l0.08-0.1 M261.74,107.35
	l0.08-0.1 M263.57,112.6l-0.13-0.04l-0.37-0.11l-0.28-0.09 M262.79,112.38l-0.29-0.09 M257.36,118.34l1.52,0.49 M258.88,118.83
	l0.76,0.33l0.21,0.17l0.06,0.14l-0.08,0.05l-0.19-0.01 M246.52,119.63l-0.17-1.05l-0.22-1.04l-0.26-1.03l-0.31-1.02l-0.35-1.01
	l-0.39-0.99l-0.44-0.97l-0.48-0.95 M257.36,118.34l-0.79-0.11l-0.66,0.15l-0.6,0.4l-0.43,0.54l-0.17,0.38 M231.71,101.07l0.02-0.03
	l0.2-0.28 M231.93,100.76l0.4-0.55l0.53-0.73l0.58-0.8l0.55-0.75l0.43-0.59l0.24-0.33l0.04-0.05 M243.91,111.6L243.91,111.6
	l-0.01-0.02 M243.9,111.57l0.02-0.04l0.12,0.01l0.19,0.05l0.38,0.15l0.69,0.37l0.66,0.44 M247.13,113.42l-1.18-0.86 M250.36,106.65
	l-0.23-0.15 M248.05,116.24l0.14-0.85l-0.16-0.85l-0.4-0.67l-0.49-0.45 M242.83,135.3l0.18,0.06l0.53,0.17l0.79,0.26l0.93,0.3
	l0.93,0.3l0.79,0.26l0.53,0.17l0.18,0.06 M254.54,120.07l0.1-0.25 M247.6,117.62l0.45-1.38 M247.6,117.62l-0.43,1.09l-0.23,0.44
	l-0.24,0.35l-0.11,0.12l-0.06,0.03l-0.01-0.02 M246.52,119.63v-0.03 M77.75,259.47l0.05,0.07l0.55,0.43l0.83,0.29l0.98,0.1l0.98-0.1
	l0.83-0.29l0.55-0.43l0.05-0.07 M60.99,247.29l-0.43-0.22L60,246.49l-0.46-0.83l-0.29-0.95l-0.07-0.93l0.15-0.76l0.17-0.3
	 M88.25,234.63l-3.66-2.16l-3.22-2.83 M76.28,247.58l-0.2-1.25l-0.27-0.56l-0.44-0.49l-0.5-0.29l-0.64-0.15l-1.01,0.05l-0.47,0.12
	 M85.72,242.47l-0.49,0.06l-0.69,0.3l-0.52,0.48l-0.28,0.55l-0.11,0.7 M83.97,247.27l-0.05,0.05l-0.08-0.04l-0.11-0.21l-0.09-0.52
	l-0.02-0.39 M83.63,246.16v-1.6 M76.28,247.58v0.29 M76.28,247.87l-0.01,0.54l-0.01,0.13 M76.26,248.55v0.12 M71.7,245.38l0.13-0.05
	l0.36-0.13l0.27-0.09 M72.46,245.11l0.29-0.09 M73.35,237.09l-1.52,0.49 M71.83,237.58l-0.81,0.18l-0.27-0.01l-0.13-0.08l0.04-0.09
	l0.16-0.11 M81.36,229.67l0.76,0.75l0.79,0.71l0.82,0.68l0.85,0.64l0.87,0.61l0.9,0.57l0.92,0.53l0.95,0.49 M73.35,237.09l0.71-0.37
	l0.45-0.51l0.25-0.68l0.03-0.69l-0.08-0.41 M104.25,235.98v0.03v0.35 M104.25,236.36v0.68v0.91v0.99v0.93v0.73v0.41v0.07
	 M88.19,234.64L88.19,234.64l0.02,0.01 M88.21,234.65l0.01,0.04l-0.1,0.06l-0.18,0.07l-0.4,0.1l-0.77,0.11l-0.79,0.03 M84.51,235.06
	h1.46 M85.88,242.43l0.27-0.01 M82.11,233.31l0.39,0.77l0.63,0.59l0.72,0.31l0.66,0.08 M75.14,214.83l-0.18,0.06l-0.53,0.17
	l-0.79,0.26l-0.93,0.3l-0.93,0.3l-0.79,0.26l-0.53,0.17l-0.18,0.06 M74.61,234.03l0.07,0.26 M81.66,231.93l0.45,1.39 M81.66,231.93
	l-0.29-1.13l-0.07-0.49l-0.01-0.42l0.02-0.16l0.04-0.06l0.02,0.01 M81.36,229.67l0.02,0.02 M288.5,326.24l0.08-0.03l0.58-0.39
	l0.53-0.7l0.4-0.9l0.21-0.96l-0.02-0.88l-0.24-0.66l-0.05-0.07 M271.73,338.42l-0.34,0.34l-0.73,0.36l-0.93,0.18l-0.99-0.02
	l-0.91-0.22l-0.68-0.38l-0.24-0.26 M268.12,308.57l-3.19,2.82l-3.69,2.19 M276.74,323.96l-1.25-0.19l-0.62,0.08l-0.61,0.27
	l-0.43,0.38l-0.34,0.56l-0.26,0.98l-0.03,0.49 M274.79,313.4l-0.09,0.49l0.07,0.74l0.3,0.65l0.43,0.44l0.64,0.32 M278.82,316.55
	l0.03,0.07l-0.07,0.06l-0.23,0.03l-0.52-0.07l-0.38-0.11 M277.65,316.53l-1.52-0.49 M276.74,323.96l0.28,0.09 M277.01,324.05
	l0.51,0.18l0.12,0.05 M277.65,324.27l0.12,0.04 M273.22,327.64l-0.01-0.14l-0.01-0.38v-0.29 M273.2,326.83v-0.3 M265.85,323.51v1.59
	 M265.85,325.1l-0.08,0.82l-0.09,0.25l-0.12,0.1l-0.07-0.06l-0.05-0.18 M261.27,313.59l0.95-0.49l0.92-0.53l0.9-0.57l0.88-0.61
	l0.85-0.64l0.82-0.68l0.79-0.72l0.76-0.75 M265.85,323.51l-0.14-0.79l-0.35-0.58l-0.57-0.45l-0.65-0.24l-0.41-0.05 M274.34,293.77
	l0.03,0.01l0.33,0.11 M274.71,293.89l0.65,0.21l0.86,0.28l0.95,0.31l0.89,0.29l0.69,0.23l0.39,0.13l0.07,0.02 M268.11,308.63
	L268.11,308.63l0.02-0.02 M268.12,308.61l0.04,0.01l0.03,0.11l0.01,0.19l-0.03,0.41l-0.14,0.77l-0.22,0.77 M267.37,312.26l0.45-1.38
	 M274.8,313.23l0.07-0.26 M264.97,314l0.85-0.13l0.76-0.42l0.51-0.59l0.28-0.61 M245.23,314.92v0.19v0.55v0.83v0.98v0.98v0.83v0.55
	v0.19 M263.33,321.36l0.27,0.01 M263.51,314h1.46 M263.51,314l-1.17-0.07l-0.49-0.09l-0.41-0.12l-0.15-0.07l-0.05-0.05l0.02-0.01
	 M261.27,313.59l0.03-0.01 M101.65,143.63l-0.1,1.32l-0.07,1.32l-0.03,1.32l0.01,1.32l0.05,1.32l0.09,1.32l0.13,1.31l0.17,1.31
	 M142.48,103.35l-1.32,0.12l-1.31,0.17l-1.31,0.2l-1.3,0.24l-1.29,0.28l-1.28,0.32l-1.27,0.36l-1.26,0.39 M109.35,173.16l0.77,1.08
	l0.8,1.05l0.83,1.03l0.86,1l0.89,0.98l0.92,0.95l0.94,0.92l0.97,0.89 M189.23,136.57l-0.35-1.27l-0.39-1.26l-0.43-1.25l-0.46-1.24
	l-0.5-1.22l-0.54-1.21l-0.57-1.19l-0.61-1.17 M188.49,161.6l0.18-0.57l0.17-0.58l0.17-0.58l0.16-0.58l0.15-0.58l0.14-0.58l0.13-0.59
	l0.13-0.59 M186.36,166.94l0.3-0.65l0.29-0.66l0.28-0.66l0.27-0.67l0.26-0.67l0.25-0.67l0.24-0.68l0.23-0.68 M114.73,116.06
	L113.8,117l-0.9,0.97l-0.87,0.99l-0.84,1.02l-0.81,1.04l-0.78,1.07l-0.74,1.09l-0.71,1.11 M134.22,190.83l1.28,0.33l1.29,0.29
	l1.3,0.25l1.3,0.22l1.31,0.18l1.31,0.14l1.32,0.1l1.32,0.06 M171.9,111.45l-1.09-0.75l-1.11-0.72l-1.13-0.68l-1.15-0.65l-1.17-0.62
	l-1.19-0.58l-1.2-0.55l-1.22-0.51 M164.64,188.37l1.19-0.57l1.17-0.6l1.16-0.64l1.14-0.67l1.12-0.7l1.1-0.74l1.07-0.77l1.05-0.8
	 M132.08,105.44l-0.51,0.17l-1.02,0.23l-0.79,0.07 M101.9,154.23l0.07,0.53l0.04,1.04l-0.07,0.79 M185.36,126.69l-0.25-0.47
	l-0.4-0.97l-0.21-0.77 M144.71,192.42l0.54,0.02l1.04,0.14l0.77,0.2 M108.11,124.35l-0.28,0.46l-0.64,0.83l-0.56,0.56
	 M162.59,106.37l-0.5-0.2l-0.93-0.48l-0.65-0.45 M116.36,181.11l0.4,0.36l0.7,0.77l0.46,0.65 M189.75,156.9l0.11-0.52l0.32-1
	l0.33-0.72 M173.69,182.85l0.42-0.33l0.88-0.56l0.72-0.34 M185.67,168.83l0.17-0.63l0.35-0.9l0.2-0.4 M173.63,112.46l-0.59-0.28
	l-0.83-0.5l-0.36-0.26 M162.9,189.37l0.54-0.37l0.85-0.46l0.41-0.18 M144.45,103.01l-0.63,0.16l-0.96,0.15l-0.45,0.03
	 M132.25,190.48l0.65,0.06l0.95,0.19l0.43,0.12 M116.02,114.53l-0.38,0.53l-0.64,0.73l-0.32,0.31 M101.65,141.62l0.05,0.65
	l-0.02,0.97l-0.05,0.44 M189.91,138.45l-0.27-0.59l-0.31-0.92l-0.11-0.43 M108.06,171.62l0.45,0.46l0.61,0.76l0.25,0.37
	 M106.96,126.93l-0.01-0.03 M129.53,106.68l0.01-0.03 M189.95,154.07l0.02,0.02 M175.67,180.82v0.03 M147.53,192.13l-0.02,0.02
	 M118.7,182.7h-0.03 M102.68,156.96l-0.02-0.02 M159.84,105.68l0.03-0.01 M183.7,124.39l0.03,0.01 M117.01,114.41l0.2-0.01
	l-0.02-0.01 M189.52,139.36l-0.1,0.17l0.02-0.01 M184.79,169.27l-0.18,0.07l0.02,0.01 M102.33,140.9l0.15-0.13h-0.02 M108.12,170.63
	l0.03-0.2l-0.02,0.01 M145.28,103.55l0.16,0.12v-0.02 M161.94,189.15l-0.19-0.06l0.01,0.02 M131.66,189.68l-0.1-0.17v0.02
	 M173.92,113.41l0.04,0.19l0.01-0.02 M194.14,147.74l-0.05-0.07l-0.1-0.22l-0.12-0.42l-0.08-0.52l-0.02-0.31 M193.78,146.2
	l-0.01-0.23l0.03-0.53l0.07-0.41l0.08-0.22l0.01-0.01 M154.33,100.45l-0.07,0.03l-0.23,0.06l-0.44,0.05l-0.53-0.01l-0.31-0.04
	 M152.76,100.55l-0.22-0.03l-0.52-0.12l-0.39-0.14l-0.21-0.11l-0.01-0.01 M121.95,106.22l-0.03,0.07l-0.14,0.2l-0.31,0.32
	l-0.41,0.33l-0.26,0.17 M120.8,107.3l-0.19,0.12l-0.48,0.24l-0.39,0.14l-0.23,0.05h-0.01 M100.85,131.45l0.02,0.08l0.02,0.24
	l-0.03,0.44l-0.1,0.52l-0.09,0.29 M100.67,133.02l-0.07,0.22l-0.21,0.49l-0.21,0.36l-0.15,0.18l-0.01,0.01 M100.91,164.34l0.07,0.05
	l0.17,0.17l0.26,0.36l0.26,0.46l0.12,0.28 M101.77,165.66l0.09,0.21l0.16,0.51l0.07,0.41l0.01,0.24v0.01 M122.09,189.5l0.08-0.01
	l0.24,0.02l0.43,0.11l0.5,0.19l0.27,0.14 M123.6,189.95l0.2,0.1l0.45,0.29l0.32,0.27l0.16,0.18l0.01,0.01 M154.49,195.16l0.06-0.06
	l0.2-0.14l0.4-0.19l0.5-0.17l0.3-0.07 M155.94,194.53l0.22-0.05l0.53-0.07h0.42l0.23,0.04l0.01,0.01 M182.94,178.66l0.01-0.08
	l0.06-0.23l0.18-0.4l0.27-0.45l0.19-0.25 M183.65,177.25l0.14-0.18l0.36-0.39l0.32-0.27l0.2-0.12l0.01-0.01 M182.84,116.85
	l-0.08-0.02l-0.22-0.1l-0.36-0.25l-0.4-0.35l-0.21-0.23 M181.58,115.91l-0.15-0.17l-0.32-0.43l-0.21-0.36l-0.08-0.22v-0.01
	 M118.71,182.7l-0.73,0.18l-6.19,1.35 M159.83,105.68l0.62-0.42l5.36-3.38 M102.69,156.96l-0.68-0.33l-5.61-2.95 M175.67,180.81
	l0.05,0.75l0.25,6.33 M183.69,124.39l0.75,0.08l6.28,0.85 M129.53,106.69l0.21-0.72l1.93-6.04 M189.95,154.06l0.52,0.54l4.26,4.69
	 M147.53,192.12l-0.45,0.61l-3.88,5.01 M106.96,126.94l-0.31-0.69l-2.4-5.87 M107.91,180.02l-0.02-2.41l0.13-5.17l0.01-0.1
	 M108.02,172.34l0.1-1.73 M96.13,147.96l1.53-1.85l3.42-3.88l0.07-0.07 M101.16,142.15l1.18-1.26 M137.53,197.01l-1.56-1.83
	l-3.23-4.05l-0.06-0.08 M132.68,191.06l-1.04-1.39 M171.15,190.98l-2.37-0.4l-5.08-1.02l-0.09-0.02 M163.61,189.54l-1.69-0.39
	 M193.03,164.76l-2.08,1.22l-4.54,2.48l-0.09,0.04 M186.32,168.5l-1.54,0.78 M107.72,115.83l2.37-0.43l5.12-0.77l0.1-0.01
	 M115.3,114.61l1.72-0.21 M170.9,104.51l0.84,2.25l1.65,4.91l0.03,0.09 M173.42,111.76l0.5,1.66 M137.25,98.67l2.09,1.19l4.42,2.7
	l0.08,0.05 M143.84,102.61l1.45,0.95 M192.93,130.61l-0.81,2.27l-1.89,4.82l-0.04,0.09 M190.2,137.78l-0.68,1.59 M187.99,117.3
	l-1.82-0.19l-3.33-0.24 M151.52,199.39l1.08-1.49l1.88-2.77 M123.29,101.22l-0.5,1.76l-0.82,3.24 M96.22,162.15l1.65,0.8l3.05,1.37
	 M183.4,183.81l-0.13-1.83l-0.34-3.32 M197.8,151.39l-1.28-1.32l-2.4-2.33 M158.57,97.49l-1.52,1.03l-2.71,1.96 M117.1,190.84
	l1.78-0.45l3.22-0.91 M98.67,126.76l0.75,1.68l1.46,3.01 M175.95,187.92l-0.01,0.04l-0.16,0.36l-0.01,0.02 M175.76,188.35
	l-0.38,0.51l-0.65,0.63l-0.82,0.59l-0.9,0.48l-0.89,0.32L171.4,191l-0.22-0.02 M143.18,197.75l-0.04,0.03l-0.36,0.17l-0.02,0.01
	 M142.76,197.96l-0.62,0.15l-0.9,0.06l-1.01-0.08l-1-0.21l-0.88-0.32l-0.62-0.37l-0.15-0.15 M190.75,125.35l0.04,0.02l0.33,0.22
	l0.02,0.02 M191.13,125.61l0.44,0.46l0.5,0.75l0.44,0.91l0.32,0.97l0.16,0.93l-0.01,0.73l-0.06,0.21 M104.26,120.35v-0.04l0.03-0.4
	l0.01-0.02 M104.29,119.89l0.18-0.61l0.4-0.81l0.57-0.84l0.68-0.76l0.72-0.6l0.63-0.36l0.21-0.06 M131.69,99.91l0.02-0.04l0.28-0.29
	l0.02-0.01 M132.02,99.57l0.54-0.35l0.83-0.37l0.98-0.27l1.01-0.14h0.94l0.71,0.13l0.2,0.09 M194.74,159.33l0.02,0.04l0.11,0.38
	v0.03 M194.86,159.78l0.04,0.64l-0.1,0.9l-0.25,0.98l-0.38,0.95l-0.47,0.81l-0.47,0.55l-0.18,0.12 M165.85,101.88l0.04-0.01
	l0.39-0.04h0.03 M166.31,101.83l0.63,0.08l0.87,0.25l0.92,0.42l0.87,0.54l0.72,0.61l0.46,0.56l0.09,0.2 M111.76,184.22h-0.04
	l-0.38-0.1l-0.02-0.01 M111.3,184.1l-0.57-0.29l-0.73-0.54l-0.73-0.71l-0.63-0.8l-0.47-0.82l-0.24-0.68l-0.02-0.22 M96.39,153.65
	l-0.03-0.03l-0.23-0.32l-0.01-0.02 M96.11,153.27l-0.25-0.59l-0.22-0.88l-0.1-1.01l0.04-1.02l0.17-0.93l0.26-0.68l0.12-0.18
	 M187.94,117.1l0.01,0.04l0.11,0.53l-0.01,0.2l0.01-0.01 M123.09,101.24l0.04-0.01l0.55-0.02l0.19,0.05l-0.01-0.01 M96.2,162.36
	v-0.04l0.08-0.54l0.08-0.18l-0.01,0.01 M158.4,97.37l0.03,0.02l0.43,0.34l0.12,0.16v-0.01 M98.52,126.9l0.03-0.03l0.41-0.36
	l0.18-0.09h-0.01 M197.89,151.21l-0.01,0.04l-0.26,0.48l-0.14,0.14h0.01 M183.58,183.73l-0.03,0.02l-0.51,0.2l-0.2,0.02l0.01,0.01
	 M151.72,199.45l-0.04-0.01l-0.52-0.17l-0.17-0.11v0.01 M117.21,191.01l-0.03-0.03l-0.29-0.46l-0.06-0.19l-0.01,0.01 M146.91,205.65
	L146.91,205.65l0.3-0.18l0.58-0.22l0.89-0.2l1.09-0.12l1.1-0.01l0.93,0.1l0.11,0.03 M183.89,191.57L183.89,191.57l0.11-0.33
	l0.31-0.54l0.55-0.73l0.76-0.79l0.83-0.71l0.78-0.52l0.1-0.05 M203.16,157.02L203.16,157.02l-0.13-0.32l-0.12-0.61l-0.04-0.91
	l0.07-1.1l0.18-1.08l0.26-0.9l0.05-0.1 M95.55,119.64L95.55,119.64l0.01,0.35l-0.1,0.62l-0.27,0.87l-0.44,1.01l-0.54,0.95
	l-0.55,0.76l-0.08,0.08 M195.72,118.17L195.72,118.17l-0.31-0.17l-0.48-0.39l-0.62-0.67l-0.65-0.88l-0.56-0.95l-0.38-0.86
	l-0.03-0.11 M125.48,93.77L125.48,93.77l-0.21,0.27l-0.47,0.41l-0.77,0.49l-0.98,0.49l-1.03,0.39l-0.91,0.23l-0.12,0.01
	 M165.04,93.19L165.04,93.19l-0.34,0.07l-0.62,0.01l-0.91-0.12l-1.07-0.26l-1.03-0.36l-0.84-0.41l-0.09-0.07 M89.26,158.7
	L89.26,158.7l0.23,0.26l0.32,0.54l0.35,0.84l0.31,1.05l0.2,1.08l0.06,0.93l-0.01,0.11 M109.54,192.67L109.54,192.67l0.35,0.05
	l0.59,0.21l0.81,0.42l0.91,0.61l0.85,0.7l0.65,0.68l0.07,0.1 M124.74,190.81l1.53,2.29 M126.28,193.1l0.01,0.02l3.15,4.36l3.51,4.43
	l3.38,3.93 M180.8,114.71l-0.66-2.68 M180.14,112.03l-0.01-0.02l-1.47-5.17l-1.78-5.36l-1.83-4.86 M184.7,176.28l2.52-1.11
	 M187.22,175.17l0.02-0.01l4.84-2.34l4.98-2.68l4.46-2.65 M151.39,100.13l-2.23-1.63 M149.17,98.5l-0.02-0.01l-4.45-3.02l-4.81-2.97
	l-4.54-2.55 M193.95,144.79l1.21-2.47 M195.17,142.31l0.01-0.02l2.2-4.9l2.09-5.25l1.72-4.9 M100.02,134.29l-1.99,1.91 M98.03,136.2
	l-0.02,0.02l-3.74,3.85l-3.76,4.22l-3.3,4.03 M157.37,194.46l2.65,0.77 M160.01,195.22l0.02,0.01l5.21,1.32l5.54,1.14l5.12,0.84
	 M119.49,107.86l-2.75,0.18 M116.74,108.04h-0.02l-5.35,0.55l-5.59,0.82l-5.1,0.96 M102.09,167.05l-0.3,2.74 M101.8,169.79v0.02
	l-0.39,5.36l-0.16,5.65l0.06,5.19 M174.48,96.86l0.31-0.17l0.13-0.07 M87.73,148.69l-0.3-0.18l-0.13-0.08 M200.58,127.05l0.34,0.07
	l0.15,0.03 M135.08,90.52l0.12-0.33l0.05-0.14 M201.18,166.95l0.22,0.27l0.09,0.12 M175.98,197.9l-0.01,0.35v0.15 M101.93,185.98
	l-0.35,0.05l-0.15,0.02 M136.79,205.42l-0.23,0.26l-0.1,0.11 M100.82,110.99l-0.11-0.33l-0.05-0.14 M174.92,96.62L174.92,96.62
	l0.13-0.02l0.29,0.03l0.33,0.09l0.33,0.14l0.35,0.2l0.31,0.23l0.28,0.26l0.09,0.11 M201.08,127.14L201.08,127.14l0.11,0.07l0.2,0.21
	l0.19,0.28l0.16,0.32l0.14,0.38l0.09,0.37l0.04,0.38l-0.01,0.14 M201.5,167.35L201.5,167.35l0.04,0.12l0.02,0.29l-0.04,0.34
	l-0.08,0.35l-0.14,0.38l-0.17,0.34l-0.21,0.32l-0.1,0.11 M100.65,110.51L100.65,110.51l0.01-0.13l0.08-0.28l0.15-0.31l0.2-0.3
	l0.26-0.31l0.28-0.26l0.31-0.23l0.12-0.07 M136.46,205.8L136.46,205.8l-0.12,0.06l-0.28,0.07l-0.34,0.02l-0.36-0.02l-0.4-0.07
	l-0.37-0.11l-0.35-0.15l-0.12-0.08 M101.43,186.06L101.43,186.06l-0.13-0.03l-0.26-0.13l-0.28-0.2l-0.26-0.25l-0.26-0.31l-0.21-0.32
	l-0.17-0.34l-0.04-0.14 M135.26,90.05L135.26,90.05l0.09-0.1l0.24-0.17l0.31-0.14l0.34-0.1l0.4-0.07l0.38-0.02l0.38,0.02l0.14,0.03
	 M175.98,198.41v-0.01l-0.05,0.13l-0.17,0.24l-0.25,0.24l-0.29,0.21l-0.35,0.2l-0.35,0.15l-0.37,0.11l-0.14,0.02 M87.29,148.43
	L87.29,148.43l-0.08-0.11l-0.12-0.27l-0.08-0.33l-0.04-0.36v-0.4l0.05-0.38l0.09-0.37l0.05-0.13 M205.76,141.03L205.76,141.03
	l0.13,0.12l0.04,0.07 M87.64,133.78L87.64,133.78l-0.09-0.16l-0.02-0.08 M92.28,174.62L92.28,174.62l-0.17-0.07l-0.06-0.05
	 M196.16,180.99L196.16,180.99l0.03,0.18l-0.01,0.08 M149.74,87.84L149.74,87.84l0.14-0.11l0.07-0.03 M122.09,202.92L122.09,202.92
	l-0.17,0.05l-0.08,0.01 M110.33,99.51L110.33,99.51l0.04-0.18l0.04-0.07 M187.43,104.24L187.43,104.24l0.18,0.01l0.08,0.02
	 M163.12,205.43L163.12,205.43l-0.1,0.15l-0.06,0.05 M82.33,137.35l0.02,0.05l0.14,0.62l0.08,0.96l-0.03,1.21l-0.13,1.13l-0.2,0.97
	l-0.22,0.66l-0.04,0.07 M90.51,180.76l0.05,0.03l0.51,0.39l0.68,0.68l0.76,0.94l0.63,0.94l0.47,0.87l0.26,0.65l0.02,0.08
	 M202.37,179.46v-0.06l0.08-0.63l0.25-0.93l0.44-1.12l0.5-1.01l0.52-0.84l0.43-0.55l0.06-0.05 M103.97,98.83l-0.02,0.06l-0.29,0.57
	l-0.56,0.79l-0.79,0.91l-0.82,0.78l-0.77,0.61l-0.59,0.37l-0.07,0.03 M145.31,83.24l-0.05,0.03l-0.59,0.25l-0.93,0.25l-1.19,0.18
	l-1.13,0.07l-0.99-0.03l-0.69-0.1l-0.07-0.02 M124.68,208.76l0.06-0.01l0.64-0.03l0.96,0.09l1.18,0.24l1.09,0.32l0.92,0.37
	l0.61,0.33l0.06,0.05 M209.53,135.86l-0.04-0.04l-0.35-0.54l-0.4-0.88l-0.39-1.14l-0.27-1.1l-0.14-0.98l-0.02-0.7l0.01-0.08
	 M168.86,208.25l0.03-0.05l0.47-0.44l0.79-0.55l1.06-0.58l1.04-0.45l0.94-0.31l0.68-0.14h0.08 M187,97.86l-0.06-0.01l-0.61-0.19
	l-0.87-0.41l-1.03-0.63l-0.91-0.67l-0.74-0.66l-0.46-0.52l-0.04-0.07 M182.34,94.82l-0.3-0.38l-0.9-1.12 M82.02,142.9l-0.18,0.44
	l-0.52,1.34 M93.85,185.22l0.15,0.46l0.47,1.36 M139.78,83.9l-0.47-0.1l-1.41-0.28 M173.83,205.73l0.48-0.07l1.42-0.22
	 M204.56,174.34l0.32-0.36l0.95-1.08 M130.1,210.03l0.41,0.25l1.23,0.74 M100.16,102.89l-0.42,0.22l-1.26,0.7 M207.92,130.53
	l0.02-0.48l0.03-1.44 M79.61,153.39l3.25,1.88l6.27,3.4l0.05,0.02 M174.47,87.49l-3.25,1.88l-6.08,3.73l-0.05,0.03 M91.58,109.37
	l1.28,3.53l2.61,6.63l0.02,0.05 M206.54,119.85l-3.63-0.64l-7.05-1.05l-0.06-0.01 M140.05,214.18l2.38-2.83l4.44-5.58l0.03-0.05
	 M98.8,194.79l3.63-0.64l6.99-1.42l0.06-0.01 M210.37,165.26l-2.37-2.83l-4.73-5.34l-0.04-0.04 M184.11,202.58v-3.76l-0.19-7.13
	v-0.06 M129.04,83.34l-1.28,3.52l-2.26,6.76l-0.02,0.06 M132.38,210.39l-1.32,1.46l-0.57,0.61 M137.51,84.35l0.74-1.82l0.33-0.77
	 M205.3,172.15l1.21,1.55l0.5,0.66 M98.71,104.69l-0.6-1.87l-0.24-0.8 M175.8,204.54l-0.07,1.96l-0.04,0.83 M95.37,186.96
	l-1.95,0.27l-0.82,0.1 M180.31,93.7l1.74-0.92l0.74-0.38 M82.07,145.21l-1.66-1.05l-0.7-0.45 M207.09,128.38l1.92,0.41l0.81,0.19
	 M129.15,83.43l0.1,0.02l0.31,0.11v-0.01 M183.98,202.54l-0.1,0.02h-0.33v0.01 M98.76,194.66l-0.04-0.1l-0.06-0.32l-0.01,0.01
	 M210.28,165.36l-0.07,0.08l-0.25,0.21l0.01,0.01 M206.54,119.98v0.1l-0.06,0.32h0.01 M91.71,109.37l0.09-0.05l0.31-0.11l-0.01-0.01
	 M79.71,153.3l0.03-0.1l0.16-0.28h-0.01 M139.94,214.11l-0.09-0.05l-0.25-0.21v0.01 M174.49,87.62l0.07,0.08l0.16,0.28l0.01-0.01
	 M78.19,143.76l-0.3,0.1l-0.32,0.27l-0.33,0.5 M130.24,213.17l0.03,0.78 M130.28,213.96l0.05,0.31l0.21,0.36l0.44,0.41
	 M78.95,143.58l-0.76,0.16 M183.51,91.06l0.06-0.31l-0.07-0.41l-0.27-0.53 M96.67,101.08l-0.29-0.11h-0.42l-0.57,0.18 M97.38,101.44
	l-0.69-0.37 M138.58,80.99l-0.29-0.72 M138.27,80.27L138.12,80l-0.32-0.27l-0.55-0.23 M91.93,187.71l-0.48,0.62 M176.49,208.63
	l0.24,0.21l0.39,0.15l0.6,0.03 M211.23,128.42l0.24-0.2l0.21-0.36l0.13-0.58 M210.57,128.85l0.66-0.41 M207.67,174.75l0.77,0.11
	 M183.28,91.82l0.24-0.74 M91.46,188.34l-0.16,0.27l-0.08,0.41l0.07,0.6 M175.95,208.05l0.52,0.58 M208.46,174.85l0.31,0.01
	l0.4-0.14l0.48-0.36 M207.05,174.36l0.12,0.18l0.4,0.2h0.1 M97.83,102.02l-0.06-0.21l-0.31-0.33l-0.1-0.04 M92.59,187.37l-0.21,0.02
	L92,187.64l-0.05,0.09 M138.55,81.73l0.09-0.2l-0.03-0.45l-0.05-0.09 M130.52,212.49l-0.15,0.15l-0.13,0.43l0.02,0.1 M79.67,143.74
	l-0.18-0.12l-0.45-0.05l-0.1,0.03 M209.84,128.94l0.21,0.05l0.44-0.11l0.08-0.06 M182.79,92.36l0.2-0.09l0.27-0.36l0.02-0.1
	 M175.72,207.35l-0.02,0.22l0.18,0.42l0.08,0.07 M91.29,189.62l0.22,0.85l0.52,1.86 M95.39,101.14l-0.8,0.36l-1.75,0.83
	 M211.82,127.27l0.08-0.87l0.15-1.93 M77.24,144.63l-0.38,0.79l-0.8,1.76 M177.72,209.01l0.87-0.07l1.93-0.18 M183.23,89.81
	l-0.49-0.72l-1.12-1.58 M130.97,215.04l0.71,0.51l1.59,1.1 M137.25,79.49l-0.84-0.23l-1.87-0.49 M209.65,174.35l0.62-0.61l1.36-1.38
	 M87.53,133.56l-0.98-3.05l-1.67-5.99l-1.51-6.72 M110.39,99.27l1.21-2.97l2.57-5.67l3.16-6.12 M149.94,87.7l2.84-1.49l5.61-2.68
	l6.36-2.66 M162.98,205.64l-2.16,2.38l-4.36,4.44l-5.06,4.67 M196.19,181.23l-0.12,3.21l-0.48,6.2l-0.88,6.83 M205.94,141.2
	l1.96,2.54l3.62,5.06l3.72,5.8 M121.86,202.98l-3.18,0.43l-6.19,0.6l-6.88,0.32 M92.06,174.52l-2.71-1.71l-5.13-3.52l-5.48-4.18
	 M187.67,104.26l3.13,0.68l6.03,1.55l6.58,2.05 M122.2,82.39l1.75,0.21l5.2,0.82 M77.48,159.96l0.51-1.69l1.72-4.98 M146.11,217.46
	l-1.57-0.8l-4.61-2.55 M190.86,201.14l-1.72,0.4l-5.17,1.01 M169.84,82.36l1.21,1.29l3.46,3.98 M101.33,201.2l-0.69-1.62l-1.89-4.92
	 M214.66,159.87l-1.06,1.41l-3.32,4.1 M85.72,113.04l1.48-0.96l4.52-2.71 M206.35,112.96l0.1,1.76l0.09,5.27 M76.42,148.08
	l-0.01-0.02l-0.16-0.27l-0.18-0.53l-0.03-0.17 M92.55,103.25v-0.02l0.05-0.31l0.2-0.52l0.09-0.15 M133.71,79.28L133.71,79.28
	l0.25-0.21l0.49-0.27l0.16-0.06 M211.59,171.39v0.02l0.06,0.31l-0.01,0.56l-0.03,0.17 M92.88,192.78l-0.02-0.01l-0.3-0.11
	l-0.48-0.29l-0.13-0.11 M180.66,87.38h0.02h0.31l0.55,0.11l0.16,0.06 M181.11,208l-0.01,0.02l-0.15,0.27l-0.37,0.42l-0.14,0.11
	 M211.42,123.76l0.01,0.01l0.24,0.2l0.35,0.44l0.09,0.15 M134.22,216.45l-0.02,0.01l-0.29,0.11l-0.55,0.08h-0.17 M164.77,80.87
	l0.29-0.08l0.66-0.04l0.95,0.11l1.04,0.28l0.96,0.4l0.76,0.46l0.39,0.35 M78.73,165.09l-0.21-0.21l-0.36-0.56l-0.38-0.88l-0.28-1.04
	l-0.13-1.03l0.02-0.89l0.11-0.51 M194.69,197.49l-0.07,0.29l-0.3,0.59l-0.57,0.77l-0.76,0.76l-0.83,0.63l-0.78,0.43l-0.49,0.16
	 M203.43,108.55l0.27,0.12l0.53,0.4l0.65,0.69l0.62,0.88l0.47,0.92l0.29,0.85l0.07,0.51 M151.38,217.13l-0.24,0.17l-0.61,0.26
	l-0.93,0.22l-1.07,0.1l-1.04-0.05l-0.88-0.17l-0.48-0.19 M105.58,204.33l-0.29-0.02l-0.63-0.19l-0.85-0.43l-0.89-0.62l-0.76-0.7
	l-0.56-0.7l-0.24-0.46 M117.36,84.51l0.17-0.24l0.49-0.45l0.8-0.53l0.98-0.46l0.99-0.31l0.88-0.14l0.52,0.02 M83.38,117.77
	l-0.03-0.29l0.08-0.66l0.27-0.91l0.46-0.98l0.56-0.87l0.59-0.67l0.41-0.32 M215.24,154.61l0.13,0.27l0.15,0.65l0.05,0.95l-0.09,1.07
	l-0.23,1.01l-0.32,0.83l-0.27,0.44 M205.07,102.15l-2.81-0.84l-0.5-0.13 M106.23,210.92l2.93-0.17l0.51-0.05 M220.63,150.77
	l-1.61-2.45l-0.3-0.42 M77,119.55l0.68,2.85l0.14,0.49 M161.91,74.9l-2.69,1.16l-0.46,0.22 M74.99,170.55l2.35,1.75l0.42,0.29
	 M111.33,81.77l-1.32,2.62l-0.21,0.47 M156.11,221.76l2.13-2.01l0.36-0.37 M201.29,198l0.34-2.91l0.04-0.51 M155.66,221.6
	l-0.05-0.01l-0.22-0.12l0.01,0.01 M205.16,102.62l0.01,0.05v0.25l0.01-0.01 M75.07,170.08l0.01-0.05l0.08-0.24l-0.01,0.01
	 M111.81,81.77h0.05l0.25,0.04l-0.01-0.01 M162.28,75.21l0.04,0.03l0.17,0.19v-0.02 M200.84,198.17l-0.04,0.02l-0.25,0.05l0.01,0.01
	 M77.37,119.24l0.04-0.03l0.22-0.13h-0.01 M220.39,151.18l-0.02,0.04l-0.16,0.2h0.02 M105.99,210.51l-0.02-0.04l-0.09-0.23v0.01
	 M95.43,202.37l0.69,1.68l2.03,4.52 M72.21,157.06l-0.55,1.73l-1.35,4.77 M190.99,207.15l1.78-0.38l4.81-1.21 M212.29,113.87
	l-0.07-1.82l-0.36-4.94 M218.62,164.39l1.11-1.44l2.9-4.02 M83.55,107.43l-1.54,0.97l-4.1,2.78 M142.34,222.15l1.61,0.85l4.46,2.16
	 M174.98,79.24l-1.22-1.35l-3.45-3.56 M124.14,76.7l-1.8-0.25l-4.93-0.51 M204.52,99.16l0.17,0.86l0.47,2.6 M108.29,81.8l0.88-0.02
	l2.64-0.01 M74.49,173.55l0.14-0.87l0.45-2.6 M204.13,196.94l-0.82,0.32l-2.48,0.92 M107.77,213.54l-0.46-0.75l-1.33-2.28
	 M222.12,148.12l-0.42,0.77l-1.31,2.29 M158.97,222.77l-0.83-0.28l-2.49-0.89 M159.56,72.97l0.69,0.55l2.03,1.69 M74.69,121.52
	l0.66-0.58l2.01-1.71 M203.16,97.3l0.03,0.02l0.3,0.24l0.3,0.3l0.28,0.35l0.23,0.37l0.16,0.37l0.05,0.19 M75.12,175.76l-0.02-0.02
	l-0.2-0.33l-0.18-0.38l-0.14-0.43l-0.09-0.42l-0.03-0.4l0.02-0.2 M205.73,195.28l-0.01,0.03l-0.19,0.34l-0.24,0.34l-0.3,0.33
	l-0.32,0.29l-0.33,0.22l-0.18,0.08 M73.76,123.63v-0.03l0.06-0.39l0.11-0.4l0.17-0.42l0.21-0.38l0.24-0.33l0.15-0.14 M222.28,145.82
	l0.01,0.03l0.08,0.38l0.03,0.42l-0.02,0.45l-0.06,0.43l-0.11,0.39l-0.09,0.18 M109.68,214.82l-0.03-0.01l-0.37-0.12l-0.38-0.18
	l-0.38-0.24l-0.34-0.27l-0.28-0.29l-0.11-0.17 M157.33,72.41l0.03-0.01l0.39-0.01l0.42,0.04l0.44,0.09l0.41,0.14l0.36,0.18
	l0.16,0.12 M106.22,82.81l0.02-0.03l0.29-0.26l0.35-0.24l0.4-0.21l0.4-0.16l0.39-0.1l0.2-0.01 M161.26,222.53l-0.03,0.02l-0.36,0.14
	l-0.41,0.11l-0.45,0.06l-0.43,0.01l-0.4-0.04l-0.19-0.06 M211.05,106.75L211.05,106.75l0.17,0.05l0.02,0.01 M70.95,164.19
	L70.95,164.19l-0.14-0.11l-0.02-0.02 M116.9,76.69L116.9,76.69l0.08-0.15l0.02-0.02 M197.79,204.68L197.79,204.68l-0.03,0.17
	l-0.01,0.03 M99.04,208.64L99.04,208.64l-0.17,0.01l-0.03-0.01 M149.14,224.63L149.14,224.63l-0.13,0.12l-0.02,0.01 M169.44,74.58
	L169.44,74.58l0.16-0.07h0.03 M78,112.08L78,112.08l-0.04-0.17v-0.03 M222.24,158.13L222.24,158.13l0.09,0.15l0.01,0.02
	 M202.58,91.24L202.58,91.24l0.03,0.15v-0.01 M166.8,225.06L166.8,225.06l-0.14-0.05l0.01,0.01 M225.73,140.81L225.73,140.81
	l-0.08,0.13l0.01-0.01 M73.6,181.65L73.6,181.65l0.03-0.15l-0.01,0.01 M100.16,82.33L100.16,82.33h0.15l-0.01-0.01 M211.6,193.66
	L211.6,193.66l-0.14,0.05h0.01 M68.8,127.16L68.8,127.16l0.12-0.1h-0.01 M112.3,220.32L112.3,220.32l-0.08-0.13v0.01 M152.99,68.14
	L152.99,68.14l0.12,0.1v-0.01 M66.52,168.8l0.06,0.05l0.35,0.48l0.42,0.8l0.39,1.03l0.01,0.04 M67.75,171.2l0.27,1.04l0.13,0.95
	l-0.01,0.61l-0.01,0.05 M152.91,229.8l0.06-0.05l0.54-0.26l0.86-0.27l1.08-0.2h0.05 M155.49,229l1.07-0.08l0.96,0.04l0.6,0.12
	l0.04,0.02 M71.64,112.76l0.01,0.08l-0.04,0.6l-0.2,0.88l-0.36,1.03l-0.02,0.04 M71.04,115.39l-0.46,0.96l-0.51,0.81l-0.4,0.46
	l-0.04,0.03 M98.61,215.02h0.08l0.58,0.14l0.83,0.35l0.96,0.54l0.04,0.03 M101.1,216.07l0.87,0.62l0.71,0.65l0.38,0.47l0.02,0.04
	 M111.59,73.12l-0.04,0.07l-0.41,0.43l-0.72,0.55l-0.94,0.56l-0.04,0.02 M109.44,74.75l-0.97,0.44l-0.92,0.29l-0.6,0.09h-0.05
	 M204,206.22l0.02-0.08l0.24-0.55l0.48-0.76l0.7-0.85l0.03-0.03 M205.47,203.95l0.76-0.75l0.76-0.59l0.53-0.29l0.05-0.01
	 M213.64,100.9l-0.08-0.03l-0.5-0.33l-0.66-0.61l-0.71-0.83l-0.03-0.04 M211.66,99.06l-0.61-0.88l-0.45-0.85l-0.2-0.58l-0.01-0.05
	 M227.98,155.31l-0.04-0.07l-0.17-0.57l-0.12-0.89l-0.01-1.1l0.01-0.04 M227.65,152.63l0.1-1.06l0.21-0.94l0.22-0.57l0.03-0.04
	 M167.67,68.44l-0.08,0.03L167,68.54l-0.9-0.04l-1.08-0.18l-0.04-0.01 M164.97,68.3l-1.03-0.29l-0.89-0.37l-0.52-0.32l-0.04-0.03
	 M162.48,67.3l-0.65-0.52l-1.4-1.1 M106.88,75.58l-0.83,0.01l-1.77,0.06 M158.18,229.1l0.79,0.27l1.69,0.55 M103.1,217.87l0.43,0.71
	l0.94,1.51 M69.61,117.67l-0.63,0.55l-1.32,1.19 M210.4,96.69l-0.16-0.82l-0.36-1.74 M68.12,173.86l-0.13,0.82l-0.25,1.76
	 M207.59,202.3l0.78-0.3l1.65-0.66 M228.21,150l0.4-0.73l0.84-1.57 M203.47,208.32l0.52-2.08 M112.81,71.34l-1.2,1.77 M169.75,67.86
	l-2.06,0.58 M215.61,101.79l-1.96-0.88 M228.92,157.26l-0.93-1.93 M71.43,110.6l0.22,2.13 M64.97,167.28l1.54,1.49 M151.15,231.06
	l1.74-1.25 M96.45,214.86l2.14,0.15 M77.96,111.89l-0.21-2.74l-0.26-6.64l-0.01-1.69 M70.8,164.07l-1.92-1.97l-4.47-4.92l-1.1-1.29
	 M211.23,106.81l2.47,1.19l5.88,3.1l1.47,0.83 M116.99,76.52l1.6-2.23l4.07-5.25l1.08-1.3 M148.99,224.76l-2.27,1.55l-5.62,3.54
	l-1.46,0.86 M169.62,74.51l2.66-0.68l6.49-1.41l1.66-0.31 M197.76,204.87l-0.75,2.64l-2.03,6.33l-0.57,1.59 M98.85,208.64
	l-2.74-0.27l-6.58-0.9l-1.67-0.28 M222.34,158.29l1.13,2.51l2.51,6.15l0.59,1.58 M173.28,226.46l-1.63-0.32l-4.85-1.09
	 M217.46,190.57l-1.45,0.81l-4.41,2.28 M116.36,225.56l-1.05-1.29l-3.01-3.95 M147.39,64.61l1.42,0.85l4.18,2.68 M228.24,134.67
	l-0.59,1.55l-1.92,4.58 M200.56,84.93l0.54,1.57l1.48,4.74 M93.59,83.22l1.64-0.26l4.93-0.63 M64.34,132.06l1.09-1.25l3.37-3.65
	 M73.34,188.28l0.03-1.66l0.23-4.96 M68.15,117.34l0.25-0.64l0.26-0.64l0.26-0.64l0.27-0.64l0.27-0.63l0.28-0.63l0.29-0.63
	l0.29-0.63 M66.79,174.56l-0.22-0.65l-0.21-0.66l-0.21-0.66l-0.2-0.66l-0.2-0.66l-0.19-0.66l-0.19-0.66l-0.18-0.67 M183.02,72.76
	l2.11,1.08l2.08,1.14l2.05,1.19l2.01,1.25l1.98,1.31l1.94,1.36l1.9,1.42l1.86,1.47 M62.58,153.34l-0.12-2.37l-0.06-2.37l0.01-2.37
	l0.08-2.37l0.15-2.37l0.21-2.36l0.28-2.35l0.35-2.35 M137,230.99l-2.35-0.29l-2.34-0.36l-2.33-0.42l-2.32-0.49l-2.31-0.55
	l-2.29-0.62l-2.27-0.68l-2.25-0.75 M208.85,203.1l-0.46,0.52l-0.46,0.51l-0.47,0.51l-0.47,0.51l-0.48,0.5l-0.48,0.5l-0.48,0.49
	l-0.49,0.49 M158.63,230.53l-0.68,0.1l-0.68,0.1l-0.69,0.09l-0.68,0.08l-0.69,0.08l-0.69,0.07l-0.69,0.07l-0.69,0.06 M126.13,66.57
	l2.31-0.53l2.32-0.47l2.34-0.4l2.35-0.33l2.36-0.27l2.36-0.2l2.37-0.13l2.37-0.07 M226.39,171.18l-0.69,2.27l-0.76,2.25l-0.82,2.22
	l-0.88,2.2l-0.95,2.17l-1.01,2.15l-1.07,2.12l-1.13,2.08 M102.52,219.26l-0.59-0.36l-0.59-0.37l-0.58-0.37l-0.58-0.38l-0.58-0.38
	l-0.57-0.39l-0.57-0.39l-0.57-0.39 M192.58,217.35l-1.99,1.29l-2.02,1.23l-2.06,1.17l-2.09,1.12l-2.12,1.06l-2.15,1l-2.18,0.93
	l-2.2,0.87 M78.57,98.39L80,96.5l1.48-1.85l1.53-1.81l1.58-1.76l1.63-1.72l1.68-1.67l1.73-1.62l1.77-1.57 M85.66,205.71l-1.62-1.74
	l-1.57-1.78l-1.51-1.82l-1.46-1.86l-1.41-1.91l-1.35-1.95l-1.3-1.98l-1.24-2.02 M162.54,65.8l0.68,0.14l0.67,0.14l0.67,0.15
	l0.67,0.15l0.67,0.16l0.67,0.17l0.67,0.17l0.67,0.18 M229.7,149.81l-0.02,0.69l-0.02,0.69l-0.03,0.69l-0.04,0.69l-0.04,0.69
	l-0.05,0.69l-0.05,0.69l-0.06,0.69 M105.96,74.39l0.61-0.33l0.61-0.32l0.61-0.32l0.62-0.31l0.62-0.31l0.62-0.3l0.62-0.3l0.63-0.29
	 M211.41,95.58l0.43,0.54l0.42,0.54l0.42,0.55l0.42,0.55l0.41,0.55l0.41,0.56l0.4,0.56l0.4,0.57 M222.62,114.08l0.93,2.18l0.86,2.21
	l0.8,2.23l0.74,2.25l0.67,2.27l0.61,2.29l0.54,2.31l0.48,2.32 M144.9,64.17h0.18l1.1,0.08l0.73,0.16l0.45,0.18l0.02,0.01
	 M198.94,82.99l0.14,0.11l0.79,0.77l0.45,0.59l0.22,0.43l0.01,0.02 M74.2,190.65l-0.1-0.16l-0.48-0.99l-0.22-0.71l-0.06-0.48v-0.02
	 M91.4,84.48l0.14-0.12l0.89-0.64l0.66-0.35l0.46-0.15h0.02 M118.54,226.82l-0.17-0.06l-1-0.45l-0.63-0.4l-0.36-0.32l-0.01-0.02
	 M63.48,134.43l0.03-0.18l0.27-1.07l0.29-0.69l0.26-0.41l0.02-0.02 M228.24,132.15l0.04,0.18l0.11,1.1l-0.03,0.75l-0.1,0.47
	l-0.01,0.02 M175.76,226.03l-0.17,0.07l-1.06,0.3l-0.74,0.1l-0.48-0.02l-0.02-0.01 M219.08,188.64l-0.09,0.16l-0.62,0.91l-0.51,0.55
	l-0.38,0.29l-0.02,0.01 M63.31,155.88l-0.03-0.03l-0.23-0.41l-0.25-0.71l-0.18-0.94l-0.03-0.47 M77.49,100.81v-0.04l0.08-0.46
	l0.27-0.7l0.46-0.83l0.28-0.38 M123.75,67.73l0.02-0.03l0.36-0.3l0.65-0.36l0.89-0.34l0.45-0.11 M139.63,230.71l-0.03,0.02
	l-0.44,0.16l-0.74,0.12l-0.95,0.01l-0.46-0.05 M180.45,72.12l0.04-0.01h0.47l0.73,0.14l0.9,0.31l0.42,0.21 M87.86,207.19l-0.04-0.01
	l-0.44-0.16l-0.64-0.38l-0.74-0.6l-0.32-0.34 M226.58,168.54l0.01,0.04l0.08,0.46l-0.01,0.75l-0.15,0.94l-0.13,0.45 M194.42,215.45
	l-0.01,0.04l-0.24,0.41l-0.49,0.57l-0.72,0.62l-0.39,0.26 M221.06,111.94l0.04,0.02l0.36,0.3l0.47,0.58l0.49,0.82l0.19,0.43
	 M111.16,71.81l0.49-0.21l0.92-0.24l0.72-0.07l0.37,0.05h0.03 M70.47,112.03l0.24-0.47l0.55-0.78l0.51-0.52l0.31-0.2l0.02-0.01
	 M65.15,168.99l-0.12-0.52l-0.08-0.95l0.06-0.73l0.11-0.35l0.01-0.02 M168.18,67.16l0.51,0.16l0.86,0.4l0.6,0.42l0.25,0.27
	l0.02,0.02 M229.34,155.6l-0.07,0.53l-0.25,0.92l-0.3,0.66l-0.23,0.29l-0.02,0.02 M152.86,231.18l-0.53,0.03l-0.95-0.08l-0.7-0.19
	l-0.32-0.17l-0.02-0.01 M204.86,207.31l-0.39,0.36l-0.78,0.54l-0.66,0.31l-0.36,0.08h-0.03 M97.69,216.05l-0.43-0.32l-0.67-0.67
	l-0.42-0.59l-0.14-0.34l-0.01-0.02 M214.86,100.25l0.29,0.45l0.4,0.86l0.19,0.7l0.01,0.37v0.03 M159.44,65.94l0.03-0.02l0.37-0.15
	l0.69-0.11h1l1.11,0.16l0.18,0.05 M161.49,229.34l-0.03,0.03l-0.29,0.26l-0.61,0.35l-0.94,0.34l-1.1,0.23l-0.19,0.02 M67.75,120.42
	l-0.01-0.04L67.66,120l0.01-0.7l0.17-0.98l0.35-1.07l0.08-0.17 M208.94,93.7l0.04,0.01l0.37,0.12l0.6,0.36l0.77,0.64l0.75,0.83
	l0.11,0.15 M229.02,146.78l0.02,0.03l0.21,0.33l0.23,0.66l0.17,0.98l0.04,1.12l-0.02,0.19 M68.46,177.17l-0.03-0.02l-0.31-0.24
	l-0.44-0.54l-0.5-0.86l-0.42-1.04l-0.05-0.18 M210.28,200.35v0.04l-0.06,0.39l-0.25,0.66l-0.5,0.86l-0.69,0.88l-0.13,0.13
	 M103.68,76.49l0.01-0.04l0.19-0.35l0.46-0.53l0.76-0.64l0.95-0.59l0.17-0.08 M105.48,220.18l-0.04,0.01l-0.39,0.01l-0.69-0.13
	l-0.94-0.34l-0.99-0.53l-0.15-0.11 M232.97,186.49l6.13-18.87 M135.43,241.72l0.01,0.14l0.04,0.13l0.07,0.12l0.09,0.11l0.11,0.09
	l0.12,0.07l0.13,0.04l0.14,0.01 M209.85,78.1l0.07-0.12l0.05-0.13l0.02-0.14l-0.01-0.14l-0.04-0.14l-0.06-0.12l-0.08-0.11l-0.1-0.09
	 M232.08,186.94l0.14,0.03h0.14l0.14-0.02l0.13-0.05l0.12-0.07l0.1-0.1l0.08-0.11l0.06-0.13 M53.47,166.73l-0.13,0.05l-0.11,0.08
	l-0.1,0.1l-0.07,0.12l-0.05,0.13l-0.02,0.14v0.14l0.03,0.14 M99.47,65.6l-0.09-0.1l-0.11-0.08l-0.12-0.06l-0.13-0.04l-0.14-0.01
	l-0.14,0.02l-0.13,0.05l-0.12,0.07 M82.43,77.11l-0.1,0.09l-0.08,0.11l-0.06,0.12l-0.03,0.14l-0.01,0.14l0.02,0.14l0.05,0.13
	l0.07,0.12 M155.98,242.43l0.14-0.01l0.13-0.04l0.12-0.07l0.11-0.09l0.09-0.11l0.07-0.12l0.04-0.13l0.01-0.14 M193.64,65.45
	l-0.12-0.07l-0.13-0.05l-0.14-0.02l-0.14,0.01l-0.13,0.04l-0.12,0.06l-0.11,0.08l-0.09,0.1 M239.11,167.62l0.03-0.14v-0.14
	l-0.02-0.14l-0.05-0.13l-0.07-0.12l-0.1-0.1l-0.11-0.08l-0.13-0.05 M59.15,186.49l0.06,0.13l0.08,0.11l0.1,0.1l0.12,0.07l0.13,0.05
	l0.14,0.02h0.14l0.14-0.03 M209.7,77.11l-16.05-11.66 M136.14,242.43h19.84 M53.02,167.62l6.13,18.87 M98.48,65.45L82.43,77.11
	 M130.09,237.11h-25.84 M209.13,237.11h-47.1 M156.69,239.95h52.44 M104.25,239.95h31.18 M211.47,84.97l20.9,15.19 M164.72,51
	l20.9,15.19 M191.61,67.04l-25.23-18.33 M234.04,97.86l-25.23-18.33 M83.31,79.53L58.08,97.86 M125.74,48.71l-25.23,18.33
	 M106.5,66.19L127.4,51 M59.75,100.15l20.9-15.19 M61.73,186.4l9.64,29.65 M45.52,136.52l9.64,29.65 M56.2,160.22l-7.99-24.57
	 M74.06,215.18l-7.99-24.57 M226.05,190.6l-14.55,44.8 M243.91,135.65l-7.98,24.57 M236.97,166.18l9.64-29.65 M214.19,236.27
	l16.21-49.87 M139.83,20.51l-1.22-1.38l-1.45-1.08l-1.47-0.71h-0.01 M131.82,20.17l0.18,1.5l0.56,1.71l0.91,1.61l0.08,0.09
	 M143.45,25.2l-0.23-0.06 M158.58,25.08l0.94-1.58l0.58-1.71l0.22-1.62v-0.02 M156.44,17.35l-1.38,0.64l-1.46,1.06l-1.25,1.37
	l-0.06,0.1 M148.91,25.13l-0.3,0.08l-1.74,0.28h-0.83 M146.04,25.52l-0.29,0.01l-1.77-0.2l-0.52-0.14 M137.83,30.8L137.8,32
	l-0.35,2.4l-0.73,2.39l-0.58,1.3 M155.98,38.08l-0.36-0.78l-0.81-2.36l-0.43-2.39l-0.07-1.76 M139.33,35.73l-0.18,0.16
	 M133.54,25.09l4.46,6.13 M143.25,25.2l-3.41-4.69 M154.18,31.15l4.4-6.06 M152.28,20.51l-3.4,4.67 M152.97,35.89l-0.17-0.16
	 M128.07,51.92l0.69-0.12l0.68-0.16l0.67-0.2l0.65-0.24l0.64-0.28l0.62-0.32l0.6-0.36l0.58-0.39 M128.61,43.55l-0.55,0.43
	l-0.52,0.46l-0.49,0.49l-0.46,0.52L126.16,46l-0.4,0.57l-0.36,0.6l-0.32,0.62 M139.14,35.91l-10.52,7.65 M133.2,49.86l8.66-6.29
	 M158.93,49.86l0.58,0.39l0.6,0.36l0.62,0.32l0.64,0.28l0.65,0.24l0.67,0.2l0.68,0.16l0.69,0.12 M167.05,47.79l-0.32-0.62l-0.36-0.6
	l-0.4-0.57l-0.43-0.55l-0.46-0.52l-0.49-0.49l-0.52-0.46l-0.55-0.43 M163.51,43.55l-10.52-7.65 M150.27,43.57l8.66,6.29
	 M23.06,114.4l-1.69,0.73l-1.48,1.04l-1.13,1.18l-0.01,0.01 M20.26,121.92l1.48,0.3h1.8l1.82-0.37l0.11-0.05 M28.64,112.41
	l-0.13,0.2 M33.2,97.99l-1.22-1.38l-1.45-1.09l-1.47-0.71l-0.02-0.01 M25.18,97.63l0.18,1.51l0.56,1.71l0.91,1.61l0.08,0.09
	 M30.26,107.2l-0.01,0.31l-0.27,1.74l-0.26,0.78 M29.74,110.04l-0.08,0.28l-0.74,1.62l-0.3,0.45 M32.23,119.49l1.13,0.39l2.18,1.07
	l2.05,1.43l1.05,0.96 M44.76,104.48l-0.85,0.11l-2.49,0.04l-2.4-0.33l-1.69-0.47 M37.38,119.58l0.09,0.22 M25.47,121.8l7.21-2.34
	 M28.57,112.6l-5.51,1.79 M37.61,104.05l-4.4-6.06 M26.9,102.57l3.39,4.67 M41.75,106.66l-0.2,0.12 M49.3,135.3l0.1-0.69l0.06-0.7
	l0.02-0.7l-0.03-0.7l-0.07-0.69l-0.11-0.69l-0.15-0.68l-0.19-0.67 M41.51,132.19l0.24,0.66l0.28,0.64l0.32,0.62l0.35,0.6l0.39,0.58
	l0.42,0.55l0.46,0.53l0.49,0.5 M37.49,119.82l4.02,12.37 M48.92,129.78l-3.31-10.18 M56.87,105.31l0.55-0.43l0.53-0.46l0.49-0.49
	l0.46-0.52l0.43-0.55l0.4-0.57l0.36-0.6l0.32-0.62 M57.42,96.94l-0.69,0.12l-0.68,0.16l-0.67,0.2l-0.65,0.24l-0.64,0.28l-0.62,0.32
	l-0.6,0.36l-0.58,0.39 M52.29,99l-10.52,7.65 M48.21,111.6l8.66-6.29 M265.21,102.56l0.94-1.58l0.58-1.71l0.22-1.62v-0.01
	 M263.06,94.83l-1.37,0.63l-1.46,1.06l-1.25,1.37L258.92,98 M261.87,107.45l-0.01-0.24 M266.66,121.79l1.8,0.4l1.81,0.03l1.61-0.29
	l0.02-0.01 M273.35,117.37l-1.04-1.12l-1.46-1.06l-1.69-0.77l-0.12-0.03 M263.63,112.61l-0.17-0.26l-0.81-1.57l-0.25-0.79
	 M262.37,110.01l-0.1-0.27l-0.36-1.75l-0.02-0.54 M254.81,103.82l-1.15,0.34l-2.39,0.41l-2.5,0.04l-1.42-0.15 M253.49,123.34
	l0.63-0.59l1.99-1.5l2.14-1.15l1.65-0.61 M250.58,106.78l-0.2-0.12 M258.91,97.99l-4.46,6.13 M261.81,107.25l3.41-4.69
	 M259.53,119.49l7.12,2.32 M269.06,114.39l-5.49-1.78 M254.65,119.8l0.1-0.21 M231.71,101.07l0.32,0.62l0.36,0.6l0.4,0.57l0.43,0.55
	l0.46,0.52l0.49,0.49l0.52,0.46l0.55,0.43 M239.83,99l-0.58-0.39l-0.6-0.36l-0.62-0.32l-0.64-0.28l-0.65-0.24l-0.67-0.2l-0.68-0.16
	l-0.69-0.12 M250.36,106.65L239.84,99 M235.25,105.31l8.66,6.29 M243.2,129.78l-0.2,0.67l-0.15,0.68l-0.11,0.69l-0.07,0.69
	l-0.03,0.7l0.02,0.7l0.06,0.7l0.1,0.69 M247.68,136.87l0.49-0.5l0.46-0.53l0.42-0.55l0.39-0.58l0.35-0.6l0.31-0.62l0.28-0.64
	l0.24-0.66 M250.62,132.19l4.02-12.37 M246.51,119.6l-3.31,10.18 M76.27,254.47l0.17,1.83l0.53,1.73l0.77,1.44l0.01,0.01
	 M82.55,259.46l0.74-1.32l0.55-1.71l0.21-1.84l-0.01-0.12 M76.1,248.55l0.15,0.18 M63.79,239.76l-1.69,0.73l-1.48,1.04l-1.13,1.18
	l-0.01,0.02 M60.98,247.27l1.5,0.3h1.8l1.82-0.37l0.11-0.05 M71.64,245.4l0.29,0.11l1.57,0.8l0.67,0.49 M74.19,246.77l0.24,0.17
	l1.32,1.2l0.34,0.42 M83.94,247.33l0.73-0.95l1.69-1.74l2-1.5l1.24-0.71 M73.54,230.77l-0.16,0.84l-0.73,2.38l-1.05,2.19l-0.97,1.46
	 M85.63,242.45l0.24-0.02 M84.05,254.47v-7.58 M76.26,248.67v5.79 M70.92,237.43l-7.12,2.32 M66.2,247.16l5.49-1.79 M74.69,234.31
	l0.05,0.23 M104.25,235.98l-0.62-0.31l-0.64-0.27l-0.66-0.23l-0.67-0.19l-0.68-0.15l-0.69-0.11l-0.69-0.06l-0.7-0.02 M98.89,242.43
	l0.7-0.02l0.69-0.06l0.69-0.11l0.68-0.15l0.67-0.19l0.66-0.23l0.64-0.27l0.62-0.31 M85.88,242.43h13.01 M98.89,234.63h-10.7
	 M78.07,219.51l-0.24-0.66l-0.28-0.64l-0.31-0.62l-0.35-0.6l-0.39-0.58l-0.42-0.55l-0.46-0.53l-0.49-0.5 M70.28,216.4l-0.1,0.69
	l-0.06,0.7l-0.02,0.7l0.03,0.7l0.07,0.69l0.11,0.69l0.15,0.68l0.2,0.67 M70.66,221.92l4.02,12.37 M81.38,229.69l-3.31-10.18
	 M283.29,326.1l1.8,0.4l1.81,0.03l1.61-0.29h0.01 M289.97,321.67l-1.03-1.11l-1.46-1.06l-1.69-0.77l-0.12-0.03 M277.6,324.43
	l0.22-0.09 M265.44,333.42l0.17,1.83l0.53,1.73l0.77,1.44l0.01,0.02 M271.71,338.42l0.74-1.33l0.55-1.72l0.21-1.84l-0.01-0.12
	 M273.23,327.7l0.19-0.24l1.24-1.25l0.67-0.48 M275.32,325.7l0.23-0.17l1.55-0.88l0.51-0.19 M278.86,316.59l-0.68-0.98l-1.13-2.15
	l-0.81-2.36l-0.29-1.39 M259.9,321.37l0.75,0.41l2.04,1.43l1.75,1.68l1.09,1.38 M274.75,313.49l0.05-0.23 M285.69,318.69l-7.21-2.34
	 M277.77,324.32l5.51,1.79 M265.43,325.92v7.49 M273.22,333.41v-5.77 M263.62,321.38l0.23,0.02 M274.34,293.77l-0.49,0.5l-0.46,0.53
	l-0.42,0.55l-0.39,0.58l-0.35,0.6l-0.31,0.62l-0.28,0.64l-0.24,0.66 M278.82,300.86l0.2-0.67l0.15-0.68l0.11-0.69l0.07-0.7l0.03-0.7
	l-0.02-0.7l-0.06-0.69l-0.1-0.69 M274.8,313.23l4.02-12.37 M271.41,298.45l-3.31,10.18 M250.59,313.58l-0.7,0.02l-0.69,0.07
	l-0.69,0.11l-0.68,0.15l-0.67,0.19l-0.66,0.23l-0.64,0.27l-0.62,0.31 M245.23,320.03l0.62,0.31l0.64,0.27l0.66,0.23l0.67,0.19
	l0.68,0.15l0.69,0.11l0.69,0.06l0.7,0.02 M250.59,321.37h13.01 M261.29,313.58h-10.7"/>
<line class="st3" x1="211.11" y1="236.62" x2="265.24" y2="311.12"/>
</svg>
