<?xml version="1.0" encoding="utf-8"?>
<!-- Generator: Adobe Illustrator 23.0.1, SVG Export Plug-In . SVG Version: 6.00 Build 0)  -->
<svg version="1.1" id="Слой_1" xmlns="http://www.w3.org/2000/svg" xmlns:xlink="http://www.w3.org/1999/xlink" x="0px" y="0px"
	 viewBox="0 0 792 612" style="enable-background:new 0 0 792 612;" xml:space="preserve">
<style type="text/css">
	.st0{fill:none;stroke:#000000;stroke-width:0.709;stroke-linecap:round;stroke-linejoin:round;stroke-miterlimit:10;}
</style>
<path class="st0" d="M371.44,238.64l-0.08-0.01l-0.4-0.23l-0.53-0.52l-0.58-0.74l-0.54-0.83l-0.42-0.81l-0.24-0.66l-0.02-0.4
	l0.01-0.02 M379.85,201.92l-0.46,0.04l-0.7,0.24l-0.84,0.41l-0.85,0.51l-0.73,0.54l-0.5,0.48l-0.19,0.36l0,0.02 M397.89,217.45
	l0.01,1.06l0.07,1.06l0.13,1.05l0.2,1.05l0.26,1.03l0.31,1.01l0.37,0.99l0.43,0.97 M407.71,238.9l0.29-0.1l0.49-0.4l0.58-0.65
	l0.58-0.8l0.49-0.83l0.33-0.73l0.12-0.52l-0.03-0.15 M399.75,202.09l0.31-0.03l0.61,0.17l0.8,0.35l0.86,0.49l0.79,0.55l0.6,0.53
	l0.32,0.42l0.04,0.15 M382.55,223.71l0.68-0.61l0.39-0.66l0.15-0.76l-0.09-0.69l-0.32-0.76 M391.13,229.18l-0.76-0.37l-0.86-0.11
	l-0.77,0.16l-0.58,0.3 M385.55,230.94l0.23-0.16l0.57-0.41l0.63-0.43 M388.16,229.16l-1.18,0.78 M381.02,224.72l1.52-1.01
	 M381.02,224.72l-0.86,0.52l-0.33,0.17l-0.22,0.11l-0.02,0.01 M381.51,217.31l0.01,0.01l0.09,0.11l0.21,0.28l0.38,0.55l0.24,0.39
	 M382.43,218.66l0.93,1.57 M387.57,212.69l-0.17-0.29 M387.41,212.41l-0.31-0.59l-0.07-0.18 M387.03,211.64l-0.09-0.29l-0.03-0.17
	l0.02-0.01 M387.57,212.69l0.89,1.09l0.55,0.36l0.65,0.18l0.57-0.07l0.61-0.3l0.79-0.77l0.31-0.46 M396.06,220.32l-0.36,0.85
	l-0.07,0.76l0.19,0.75l0.38,0.59l0.61,0.55 M392.63,211.19l0.01,0.04l-0.03,0.17l-0.09,0.27l-0.22,0.46l-0.17,0.3 M392.13,212.43
	l-0.18,0.3 M396.06,220.32l0.95-1.56 M397.01,218.76l0.55-0.83l0.22-0.29l0.15-0.19l0.01-0.02 M399.73,225.67l-0.01-0.01l-0.13-0.07
	l-0.31-0.16l-0.57-0.34l-0.39-0.25 M396.82,223.81l1.51,1.03 M392.3,229.98l-1.17-0.8 M392.3,229.98l0.9,0.64l0.35,0.26l0.15,0.1
	 M206.17,169.91l-0.41,0.04l-0.86,0.32l-0.78,0.61l-0.58,0.8l-0.29,0.87l-0.02,0.4 M212.11,205.83l-0.12,0.08l-0.58,0.12l-0.82-0.06
	l-0.94-0.24l-0.91-0.38l-0.74-0.46l-0.47-0.47l-0.12-0.26 M218.59,195.72h-0.01l-0.58,0.06l-1.71,0.55 M216.48,197.82l0.19-0.34
	l1.05-1.6 M211.91,183.76l-0.04-0.02 M216.02,177.5l0.72,0.7 M216.02,177.5l-0.46-0.54l-0.08-0.2l0.06-0.11l0.06,0.01
	 M216.74,178.19l0.51,0.31l0.59,0.06 M218.98,194.07l-0.55-0.7l-0.48-0.35l-0.54-0.15l-0.46,0.09l-0.46,0.34l-0.55,0.83l-0.2,0.48
	 M216.99,196.03l-0.36,0.18l-0.33,0.13 M216.3,196.34l-0.27,0.03l-0.24-0.1l-0.18-0.22l-0.09-0.31l0.02-0.51l0.09-0.32
	 M215.62,194.92l0.11-0.31 M225.95,188.52l0.43,2.27l0.45,1.19 M229.67,180.24l-0.89,0.83l-1.82,2.38l0,0 M223.46,183.23l-0.68,0.61
	l-0.39,0.66l-0.15,0.76l0.09,0.69l0.32,0.76 M228.1,204.63l-0.01-0.05l0.11-0.2l0.28-0.27l0.41-0.3l0.47-0.28l0.47-0.22l0.39-0.13
	l0.26-0.02l0.07,0.04 M236.22,169.53l-0.03,0.04l0.01,0.23l0.13,0.36l0.24,0.45l0.3,0.46l0.32,0.41l0.29,0.29l0.22,0.13l0.08-0.01
	 M224.99,182.23l-1.52,1.01 M224.99,182.23l0.96-0.49l0.46-0.14l0.43-0.06l0.23,0.02l0.14,0.06 M227.4,181.67l-0.18-0.06
	 M227.4,181.67l0.26-0.14 M225.69,190.07l-0.19-0.23 M225.5,189.84l-0.18-0.02 M225.32,189.82l-0.15,0l-0.21-0.08l-0.25-0.15
	l-0.38-0.31l-0.5-0.58l-0.26-0.4 M223.58,188.29l-0.93-1.57 M228.34,205.04l-0.63,0.21l-0.46,0.04 M227.25,205.28l-0.14-0.17
	l0.19-0.36l0.5-0.48l0.73-0.54l0.85-0.51l0.84-0.41l0.71-0.24l0.46-0.04l0.14,0.18l-0.19,0.36l-0.5,0.49l-0.06,0.05 M236.62,169.27
	l-0.48-0.47l-0.4-0.23 M235.75,168.57l-0.21,0.09l0.02,0.4l0.24,0.66l0.42,0.81l0.54,0.83l0.58,0.73l0.53,0.52l0.4,0.23l0.21-0.09
	l-0.02-0.4l-0.24-0.66l-0.03-0.07 M458.87,93.65l-0.28-0.3l-0.73-0.4l-0.93-0.21l-0.99,0.01l-0.91,0.24l-0.68,0.42l-0.19,0.22
	 M477.26,124.91l0.01,0.02l-0.02,0.4l-0.25,0.65l-0.43,0.8l-0.55,0.83l-0.59,0.73l-0.54,0.52l-0.4,0.23l-0.08,0.01 M462.55,122.67
	l-0.49-0.23 M462.43,122.34l-1.01-0.01l-1.01,0.05l-1,0.12l-0.99,0.18l-0.98,0.24l-0.96,0.31l-0.94,0.37l-0.92,0.43 M446.77,122.03
	l-0.05-0.25 M445.83,119.5l-0.01-0.01l-0.38-0.59l-1.44-1.56 M451.16,109.75l0.17-0.02l0.69-0.28l0.53-0.46l0.29-0.52l0.11-0.67
	 M446.72,121.78l-0.05-0.21l-0.84-2.07 M461.5,120.83l-1.51-1.03 M461.5,120.83l0.77,0.66l0.23,0.33l0.1,0.3l-0.04,0.15l-0.13,0.07
	 M462.23,122.38l0.2-0.04 M462.23,122.38l-0.01,0.03 M452.63,105.29l0.04-0.05l0.08,0.02l0.1,0.18l0.09,0.48l0.01,0.37
	 M452.94,107.81l0.01-1.52 M460.29,110.39l-0.01,0.03 M459.99,119.8l-0.81-0.39l-0.73-0.09l-0.71,0.18l-0.55,0.38l-0.51,0.63
	 M432.26,116.11L432.26,116.11l0-0.27l0-0.61l0.01-0.86l0.01-0.99l0.01-0.96l0.01-0.79l0-0.49l0-0.13 M448.13,120.23l0.53-1.29
	l0.05-0.64l-0.17-0.63l-0.35-0.45l-0.58-0.36l-1.09-0.28l-0.57-0.03 M442.97,133.07l0.07-0.04l0.26,0.02l0.39,0.14l0.46,0.23
	l0.47,0.29l0.4,0.3l0.28,0.27l0.1,0.2l-0.01,0.05 M454.77,123.88l0.04-0.06l0.12-0.24l0.21-0.42l0.36-0.67l0.24-0.41 M455.73,122.08
	l0.95-1.56 M448.13,120.23l-0.17,0.28 M447.95,120.51l-0.4,0.59l-0.14,0.18 M447.41,121.29l-0.27,0.32l-0.22,0.25l-0.12,0.14l0,0.01
	 M442.72,133.47l-0.06-0.05l-0.49-0.49l-0.19-0.36l0.15-0.17 M442.13,132.4l0.46,0.04l0.7,0.25l0.84,0.42l0.85,0.52l0.73,0.55
	l0.49,0.49l0.19,0.36l-0.15,0.17l-0.46-0.04l-0.63-0.22 M444.07,117.53l-0.01-0.06l-0.07-0.14 M443.99,117.33l0-0.15l0.13-0.18
	l0.24-0.17l0.34-0.14l0.56-0.11l0.36-0.02 M445.61,116.55l0.36,0 M516.01,294.77l0.36,0.42l0.32,0.8l0.11,0.96l-0.12,0.99
	l-0.33,0.85l-0.49,0.6l-0.13,0.09 M485.8,316.39l0.17,0.35l0.52,0.48l0.78,0.45l0.93,0.36l0.93,0.21l0.79,0.03l0.53-0.15l0.05-0.04
	 M510.2,277.11v-0.03l-0.19-0.36l-0.5-0.49l-0.73-0.55l-0.85-0.52l-0.84-0.42l-0.7-0.25l-0.46-0.04l-0.08,0.03 M497.47,285.6
	l0.17-0.2 M504.05,289.95l-0.32,0.71l-0.12,0.65l0.06,0.65l0.23,0.47l0.42,0.39l0.85,0.33l0.45,0.06 M497.57,285.62l-3.72,1.31
	 M500.44,300.11l-0.79,0.08l-0.53,0.22 M506.7,292.88l0.05,0.06l-0.03,0.13l-0.15,0.11l-0.37,0.07l-0.28,0 M505.92,293.24
	l-0.29-0.02 M500.44,300.11l1.52,0.09 M489.97,287.27l1.01,0.01l1.01-0.05l1-0.12l0.99-0.18l0.98-0.24l0.96-0.31l0.94-0.37
	l0.91-0.43 M489.58,301.99l-0.16-0.97l-0.21-0.97l-0.26-0.95l-0.3-0.95l-0.34-0.93l-0.39-0.92l-0.43-0.9l-0.47-0.88 M497.53,285.61
	l0.04,0.01 M497.57,285.62l0.19-0.05 M497.77,285.58l0.14,0.01l0.1,0.12l0.04,0.2l-0.04,0.39l-0.24,0.65l-0.22,0.41 M497.54,287.34
	l-0.95,1.56 M493.28,289.62l0.81,0.39l0.73,0.09l0.71-0.18l0.55-0.38l0.51-0.63 M491.13,299.4l0.14-0.78l-0.15-0.79l-0.4-0.62
	l-0.49-0.42 M490.68,300.68l0.46-1.28 M490.68,300.68l-0.44,0.95l-0.24,0.33l-0.24,0.19l-0.11,0.01l-0.06-0.1l-0.01-0.07
	 M475.61,283.86l0.08,0.01l0.22-0.13l0.3-0.29l0.33-0.4l0.31-0.46l0.24-0.45l0.14-0.36l0.01-0.22l-0.03-0.04 M487.39,294.9
	l0.33,0.22l0.69,0.44l0.66,0.44 M490.24,296.79l-1.17-0.8 M491.78,288.59l1.51,1.03 M491.78,288.59l-0.87-0.64l-0.37-0.3l-0.32-0.25
	l-0.07-0.05 M475.22,283.59l-0.03,0.07l-0.25,0.65l-0.02,0.41l0.2,0.1 M475.12,284.82l0.4-0.23l0.54-0.52l0.59-0.73l0.55-0.83
	l0.43-0.8l0.25-0.65l0.02-0.4l-0.2-0.1l-0.4,0.23l-0.48,0.46 M262.27,293.05l-0.43,0.63l-0.25,0.88l-0.03,0.99l0.2,0.95l0.39,0.77
	l0.42,0.41 M292.26,315.01l-0.02,0.08l-0.34,0.45 M291.9,315.55l-0.65,0.47l-0.86,0.41l-0.95,0.29l-0.89,0.13l-0.69-0.05l-0.32-0.15
	 M268.42,275.39l0.07-0.22l0.38-0.44l0.65-0.53l0.82-0.53l0.86-0.46l0.78-0.31l0.57-0.12l0.23,0.04 M278.83,298.69l-0.28-0.1
	l-0.7-0.07 M275.97,298.61l0.36-0.02 M276.33,298.59l1.52-0.07 M272.75,291.57l-0.28,0.01 M272.47,291.58l-0.52-0.04l-0.13-0.04
	 M271.83,291.5l-0.16-0.12l-0.01-0.15l0.03-0.03 M291.35,293.13l-0.49,0.88l-0.44,0.89l-0.4,0.91l-0.36,0.93l-0.31,0.94l-0.27,0.95
	l-0.22,0.96l-0.18,0.97 M284.57,285.45l-3.65-1.37 M288.68,300.56l-0.04,0.13l-0.09,0.04l-0.12-0.05l-0.22-0.22l-0.34-0.56
	l-0.27-0.67 M287.16,297.95l0.44,1.28 M280.73,284.03l0.91,0.44l0.93,0.38l0.96,0.32l0.97,0.26l0.99,0.19l1,0.13l1.01,0.07l1.01,0
	 M280.84,283.83l0.24,0.28 M272.75,291.57l1.12-0.27l0.45-0.31l0.34-0.48l0.13-0.54l-0.05-0.68l-0.34-1 M288.1,295.35l-0.61,0.56
	l-0.38,0.72l-0.07,0.72l0.13,0.61 M281.85,287.37l0.57,0.7l0.62,0.39l0.72,0.14l0.67-0.11l0.73-0.35 M281.85,287.37l-0.93-1.57
	 M280.93,285.8l-0.41-0.93l-0.07-0.4l0.04-0.32l0.1-0.12l0.15-0.01 M280.91,284.08l-0.19-0.05 M280.91,284.08l0.05-0.01
	 M303.3,282.37l0.2,0.48l0.11,0.52l-0.12,0.23l-0.32-0.1l-0.48-0.41l-0.57-0.66l-0.57-0.81l-0.48-0.83l-0.32-0.73l-0.11-0.52
	l0.12-0.23l0.32,0.1l0.48,0.41l0.18,0.19 M302.91,282.63l-0.02,0.01l-0.18-0.06l-0.27-0.23l-0.32-0.37l-0.32-0.45l-0.27-0.46
	l-0.18-0.41l-0.06-0.29l0.04-0.12 M288.32,285.91l-0.06,0.04l-0.21,0.16l-0.37,0.29l-0.61,0.46l-0.39,0.27 M285.15,288.14l1.52-1.01
	 M289.28,294.57l-1.18,0.78 M289.28,294.57l0.99-0.63l0.45-0.28l0.23-0.15 M322.35,92.69L322.35,92.69l0.56-0.49l0.83-0.32
	l0.98-0.11l0.98,0.12l0.82,0.33l0.55,0.49 M303.52,123.68l-0.03,0.23l0.15,0.56l0.35,0.76l0.5,0.84l0.58,0.79l0.56,0.62l0.46,0.36
	l0.22,0.06 M318.67,121.43l-0.27,0.12 M328.08,106.92l0.13,0.75l0.34,0.56l0.56,0.43l0.64,0.23l0.11,0.01 M320.7,109.42l-0.01-0.03
	 M328.09,105.4l-0.01,1.52 M328.09,105.4l0.09-0.77l0.09-0.22l0.12-0.06l0.04,0.05 M326.16,123.12l-0.91-0.44l-0.93-0.38l-0.96-0.32
	l-0.97-0.26l-0.99-0.2l-1-0.13l-1.01-0.07l-1.01,0 M336.66,116.76l-0.17,0.15l-1.45,1.77 M335.04,118.68l-0.01,0.01l-0.33,0.61
	l-0.66,1.95 M348.64,115.52v-0.07l0-0.42 M348.64,115.03l0.01-0.73l0.01-0.93l0.01-0.99l0.01-0.9l0-0.68l0-0.35v-0.03
	 M334.93,115.76l0.34,0 M335.27,115.77l0.71,0.08l0.22,0.06 M336.19,115.91l0.36,0.16l0.25,0.2l0.09,0.18l-0.02,0.12 M336.87,116.58
	l-0.07,0.11l-0.03,0.06 M324.16,119.57l-0.57-0.7l-0.62-0.39l-0.72-0.14l-0.67,0.11l-0.73,0.35 M334.93,115.76l-1.42,0.2l-0.6,0.28
	l-0.48,0.45l-0.23,0.51l-0.04,0.66l0.3,1.05l0.25,0.49 M318.61,121.38l-0.04-0.03 M318.57,121.36l-0.19-0.04 M318.38,121.32
	l-0.13-0.07l-0.04-0.15l0.05-0.2l0.2-0.33l0.49-0.48l0.38-0.27 M320.86,118.81l-1.52,1.01 M337.93,132.73l0.39-0.35l0.33-0.42
	 M338.65,131.97l0-0.25l-0.34-0.05l-0.62,0.16l-0.8,0.34l-0.87,0.48l-0.8,0.54l-0.61,0.52l-0.33,0.42l0,0.25l0.34,0.05l0.62-0.16
	l0.24-0.09 M337.69,132.32l-0.01-0.02l-0.19-0.03l-0.34,0.09l-0.45,0.19l-0.48,0.26l-0.44,0.3l-0.34,0.29l-0.18,0.23l-0.01,0.12
	 M334.02,121.2l-0.02-0.03l-0.14-0.16l-0.2-0.23l-0.25-0.3l-0.35-0.48l-0.19-0.3 M332.89,119.71l-0.18-0.3 M324.16,119.57l0.93,1.57
	 M325.08,121.15l0.51,0.95l0.21,0.43l0.18,0.37l0.04,0.07 M161.69,288.58l0-0.07l0.15-0.87l0.46-0.85l0.71-0.7l0.84-0.44l0.76-0.13
	 M184.52,310.6l0.29,1.95 M185.01,313.91l-0.2-1.36 M180.86,321.51l0.12,0.08l0.58,0.13l0.82-0.05l0.94-0.23l0.92-0.37l0.75-0.45
	l0.47-0.47l0.12-0.26 M171.62,292.39l0.93,0.9 M171.62,292.39l-0.37-0.57l0-0.28l0.16-0.24l0.22-0.11l0.31-0.03 M171.59,289.62
	l1.96,1.08 M172.55,293.29l0.5,0.32l0.45,0.02l0.32-0.18 M184.52,302.79l-0.25,0.26l-0.5,0.58l-0.46,0.63l-0.41,0.67l-0.21,0.4
	 M180.88,302.95l-0.71,0.16l-0.45,0.33l-0.25,0.52l-0.03,0.58l0.16,0.74 M184.06,303.42l-0.08,1.44l0.55,5.74 M183.69,304.01
	l-0.09,0.35 M182.89,307.79l-0.12-0.29l-0.29-0.05l-0.39,0.26 M182.08,307.7l-0.28,0.27 M181.8,307.97l-0.21,0.16l-0.26,0.05
	l-0.26-0.06l-0.35-0.24l-0.39-0.55l-0.17-0.41 M179.6,305.27l0.57,1.65 M180.73,292l-0.28,1.34l0.03,0.66l0.2,0.64l0.33,0.44
	l0.51,0.34l0.91,0.24l0.46,0.01 M180.73,292l0.11-0.3 M180.83,291.71l0.32-0.61l0.15-0.18 M181.31,290.91l0.33-0.3l0.37-0.21
	l0.32-0.1l0.21-0.01 M182.54,290.3l0.21,0.01l0.49-0.21l0.19-0.36 M185.87,278.81l-0.06,0.29l-0.39,0.22l-0.69,0.04 M184.73,279.37
	l-0.89-0.14l-0.94-0.3l-0.86-0.42l-0.64-0.48l-0.33-0.46l0.04-0.37l0.07-0.08 M184.68,292.41l-0.15-0.61l-0.1-2.51l0.19-2.09
	l0.19-1.3 M196.54,296.92l-0.11-0.21l-0.48-0.6l-0.57-0.26 M195.38,295.85l-0.57,0.13l-0.49,0.5l-0.33,0.79l-0.12,0.96l0.11,0.98
	l0.32,0.86l0.48,0.6l0.57,0.26l0.57-0.13l0.49-0.5l0.26-0.55 M185.63,294.95l-0.07-0.01l-0.25,0.06 M185.31,295l-0.22,0.1
	l-0.31,0.14l-0.36,0.14l-0.39,0.13l-0.54,0.12l-0.3,0.03 M183.17,295.66l-0.29,0.01 M180.88,302.95l1.52-0.07 M195.3,296.98
	l-0.24,0.08l-0.27,0.28l-0.18,0.44l-0.07,0.53l0.06,0.55l0.18,0.48l0.27,0.34l0.32,0.14l0.08,0 M573.85,172.54l0.85,0.14l0.84,0.46
	l0.7,0.71l0.45,0.85l0.14,0.87l0,0.06 M563.42,198.79l-0.22-0.1 M563.21,198.69l-0.18-0.08l-1.85-0.45 M564.43,179.15L564.43,179.15
	l0.09,0.02l0.02,0.12l-0.19,0.32l-0.34,0.37 M563.26,180.66l0.73-0.68 M562.3,181.03l0.57-0.12l0.39-0.26 M564.03,197.09l0.1,0.3
	 M564.13,197.39l0.11,0.63l-0.02,0.2 M564.23,198.22l-0.11,0.33l-0.22,0.22l-0.26,0.07l-0.22-0.05 M563.42,198.79l-0.25-0.11
	l-0.26-0.14 M562.19,198.41l0.28,0.44l0.72,1.28 M564.03,197.09l-0.59-1.15l-0.4-0.39l-0.5-0.21l-0.47,0.05l-0.53,0.28l-0.72,0.74
	 M554.51,192.16l-0.01-1.06l-0.07-1.06l-0.13-1.05l-0.19-1.04l-0.26-1.03l-0.31-1.01l-0.37-0.99l-0.43-0.97 M552.59,185.21
	l-0.95-1.38l-1.23-1.22 M552.95,194.33l0.61-1.62l0.39-2.2 M553.83,191.72l-0.06-2.15 M557.22,189.09l0.36-0.84l0.07-0.76
	l-0.19-0.75l-0.38-0.59l-0.61-0.54 M543.5,171.45l0.28-0.28l0.46-0.35l0.29-0.04l0.07,0.28l-0.16,0.56l-0.36,0.75l-0.51,0.83
	l-0.59,0.78l-0.57,0.61l-0.46,0.35l-0.29,0.04l-0.07-0.28l0.16-0.56 M541.75,174.15l0.16-0.36 M551.27,207.34l0.37,0.14l0.57,0.13
	l0.28-0.09l-0.05-0.29l-0.38-0.44l-0.64-0.54l-0.81-0.54l-0.86-0.47l-0.77-0.32l-0.57-0.13l-0.28,0.09l0.05,0.29l0.38,0.45
	l0.29,0.26 M543.9,171.72l0.04,0.16l-0.09,0.31l-0.2,0.42l-0.29,0.46l-0.33,0.43l-0.32,0.34l-0.26,0.2l-0.16,0.02 M551.52,206.93
	l-0.03-0.16l-0.21-0.25l-0.36-0.3l-0.45-0.3l-0.48-0.26l-0.43-0.18l-0.32-0.07l-0.15,0.05 M552.29,183.86l0.27,0.13 M552.57,183.99
	l0.16-0.06 M552.73,183.94l0.13-0.06l0.23-0.02l0.29,0.03l0.47,0.12l0.7,0.31l0.4,0.25 M556.46,185.61l-1.51-1.03 M557.22,189.09
	l-0.95,1.56 M556.27,190.66l-0.66,0.86l-0.36,0.32l-0.37,0.24l-0.22,0.08l-0.16,0 M554.34,192.17l0.17-0.01 M554.34,192.17
	l-0.2,0.23 M605.86,293.31l1.38-0.85 M616.73,291.81l-0.04-0.57l-0.33-0.88l-0.61-0.78l-0.8-0.57l-0.86-0.27l-0.26-0.01
	 M593.05,316.82l0.14-0.86 M593.19,315.96l0.17-1.1 M597.09,324.48l-0.32,0.15l-0.69,0.04l-0.89-0.14l-0.94-0.3l-0.86-0.42
	l-0.64-0.48l-0.33-0.46l-0.02-0.09 M604.91,293.79l0.95-0.48 M604.54,296.54l0.4,0.18l0.41-0.05l0.45-0.29 M606.46,294.26l0.29,0.03
	l0.22,0.11l0.13,0.16l0.04,0.28l-0.18,0.42l-0.21,0.24 M605.8,296.37l0.94-0.88 M597.99,309.9l0.59-1.64 M596.03,310.62l0.31,0.31
	 M597.99,309.9l-0.48,0.85l-0.32,0.27l-0.37,0.12l-0.25-0.05l-0.22-0.17 M598.58,308.26l0.18-0.82l-0.06-0.62l-0.29-0.49l-0.43-0.28
	l-0.64-0.14 M596.03,310.62l-0.39-0.23l-0.26,0.06l-0.19,0.39 M593.36,314.86l0.77-6.4l-0.02-2.19 M595.43,298.61l1.17-0.15
	l0.52-0.26l0.44-0.44l0.24-0.52l0.1-0.67l-0.12-1.09l-0.15-0.51 M593.52,280.81l-0.24,0.17l-0.47,0.47l-0.12,0.41l0.25,0.29
	 M592.93,282.15l0.58,0.13l0.82-0.05l0.94-0.23l0.92-0.37l0.75-0.45l0.47-0.47l0.12-0.41l-0.25-0.29l-0.58-0.13l-0.51,0.01
	 M593.6,288.7l0.05,0.34l0.24,3.23l-0.16,2.55l-0.22,0.86 M595.42,305.81l0.4,0.02 M595.82,305.83l1.52,0.09 M595.43,298.61
	l-0.28-0.02 M595.16,298.6l-0.63-0.1l-0.22-0.06 M594.31,298.44l-0.42-0.15l-0.4-0.17l-0.29-0.14l-0.17-0.08 M593.02,297.9
	l-0.18-0.05l-0.13,0.01 M593.77,281.54l0.13,0.14l0.32,0.07l0.46-0.03l0.52-0.13l0.51-0.2l0.42-0.25l0.26-0.26l0.07-0.23l-0.01-0.03
	 M594.95,292.58l0.02,0.09l0.23,0.37l0.37,0.17l0.28,0.01 M595.87,293.23l0.27,0.03l0.32,0.12l0.32,0.21l0.3,0.29l0.32,0.48
	l0.13,0.31 M597.54,294.66l0.11,0.31 M583,299.74l0.06,0.01l0.3,0.16 M583.36,299.91l0.23,0.35l0.13,0.49l0.01,0.55l-0.12,0.53
	l-0.23,0.42l-0.3,0.26l-0.27,0.06 M581.76,299.66l0.29-0.49l0.54-0.46l0.58-0.09l0.55,0.3 M583.72,298.91l0.42,0.64l0.24,0.88
	l0.01,0.99l-0.21,0.95l-0.4,0.76l-0.54,0.46l-0.59,0.09l-0.55-0.3l-0.42-0.64l-0.1-0.26 M81.11,164.54l0.57-0.22l1.06,0.1l1.24,0.59
	 M155.74,210.27l0.25,0.17l0.25,0.18l0.25,0.2l0.26,0.21l0.26,0.22l0.25,0.24l0.25,0.25l0.25,0.26 M83.98,165.02l71.76,45.26
	 M157.77,211.99l18.46,19.74 M198.68,262.13l0.04,0.73l-0.07,0.64l-0.17,0.53l-0.27,0.41l-0.24,0.21 M198.68,262.13l-1.04-8.61
	 M176.23,231.73l1.67,1.73l1.68,1.64l1.69,1.55l1.69,1.45l1.69,1.35l1.68,1.24l1.66,1.13l1.64,1.01 M189.63,242.82l0.54,0.33
	l0.55,0.38l0.56,0.42l0.56,0.45l0.56,0.49l0.56,0.52l0.56,0.55l0.55,0.59 M194.07,246.55l0.67,0.79l0.63,0.85l0.58,0.9l0.51,0.92
	l0.43,0.92l0.34,0.91l0.25,0.87l0.15,0.81 M192.95,261.43l-0.03,0.8 M186.86,248.12l0.46,3.78 M186.86,248.12l0.06-0.9l0.43-0.49
	l0.73-0.01l0.92,0.48l0.97,0.89l0.87,1.17l0.64,1.27l0.31,1.17 M191.78,251.71l1.17,9.72 M194.39,266.23l0.34,0.06l0.53-0.01
	l0.45-0.15l0.37-0.28l0.27-0.41l0.17-0.53l0.07-0.64l-0.04-0.73 M196.55,263.55l-1.04-8.61 M195.51,254.94l-0.15-0.81l-0.25-0.87
	l-0.34-0.91l-0.43-0.92l-0.51-0.92l-0.58-0.9l-0.63-0.85l-0.67-0.79 M187.5,244.24l0.55,0.34l0.55,0.38l0.56,0.42l0.56,0.45
	l0.56,0.49l0.56,0.52l0.56,0.55l0.55,0.58 M187.5,244.24l-1.64-1.01l-1.66-1.13l-1.68-1.24l-1.69-1.35l-1.69-1.45l-1.69-1.55
	l-1.68-1.64l-1.66-1.73 M155.64,213.41l18.46,19.74 M153.61,211.69l0.25,0.16l0.25,0.18l0.25,0.2l0.25,0.21l0.26,0.22l0.26,0.24
	l0.25,0.25l0.25,0.26 M81.85,166.43l71.76,45.26 M78.28,167.21l0.04-0.22l0.45-0.86l0.78-0.39l1.05,0.1l1.24,0.59 M97.67,179.17
	l0.29,0.08l0.8,0.49l0.41,0.37 M182.49,250.59l0.04-0.08l0.31-0.24l0.48,0.06l0.58,0.36l0.6,0.6l0.52,0.75l0.36,0.79l0.15,0.71
	l-0.09,0.51l-0.1,0.13 M729.27,174.81l-0.74-0.6l-1.24-0.35l-1.53,0.08l-1.69,0.52 M578.16,261.47l-0.18-0.26l-0.24-0.57l-0.11-0.65
	 M628.86,214.2l-0.33,0.14l-0.33,0.16l-0.33,0.17l-0.33,0.18l-0.32,0.2l-0.32,0.21l-0.32,0.22l-0.31,0.23 M577.62,259.99l-0.46-7.65
	 M577.16,252.34l0.03-0.72l0.16-0.77l0.3-0.8l0.42-0.82l0.54-0.82l0.64-0.79l0.74-0.75l0.81-0.7 M586.49,242.89l-0.72,0.3
	l-0.73,0.33l-0.73,0.37l-0.72,0.4l-0.71,0.43l-0.71,0.46l-0.69,0.49l-0.68,0.52 M626.27,215.71l-22.62,17.41 M586.49,242.89
	l2.18-0.88l2.19-0.99l2.18-1.09l2.17-1.19l2.16-1.28l2.13-1.36l2.1-1.45l2.05-1.52 M724.07,174.46l-95.21,39.74 M589.8,248.17
	l0.27,4.5 M583.9,259.95l0.08,0.4 M583.38,251.32l0.52,8.63 M589.8,248.17l-0.3-0.8l-0.74-0.44l-1.07-0.01l-1.24,0.42l-1.22,0.79
	l-1.01,1.03l-0.65,1.12l-0.19,1.04 M731.23,177.74l-0.38-0.94l-0.86-0.76l-1.24-0.35l-1.53,0.08l-1.69,0.52 M725.54,176.28
	l-95.21,39.74 M630.33,216.02l-0.33,0.15l-0.33,0.16l-0.33,0.17l-0.33,0.18l-0.32,0.2l-0.32,0.21l-0.32,0.22l-0.31,0.23
	 M627.75,217.54l-22.62,17.41 M605.13,234.95l-2.05,1.53l-2.09,1.45l-2.13,1.37l-2.16,1.28l-2.17,1.19l-2.19,1.09l-2.19,0.99
	l-2.18,0.89 M587.96,244.71l-0.72,0.29l-0.73,0.33l-0.73,0.37l-0.72,0.4l-0.71,0.43l-0.7,0.46l-0.69,0.49l-0.68,0.52 M582.28,248
	l-0.81,0.7l-0.73,0.75l-0.65,0.79l-0.54,0.82l-0.42,0.82l-0.3,0.8l-0.16,0.77l-0.03,0.72 M579.1,261.81l-0.46-7.64 M579.1,261.81
	l0.11,0.65l0.24,0.57l0.37,0.47l0.5,0.36l0.6,0.25l0.18,0.05 M596.13,250.09l-0.6,0.06l-0.78,0.31l-0.74,0.53l-0.59,0.66l-0.35,0.7
	l-0.06,0.26 M723.58,185.76l3.02-1.26 M728.27,183.15l-0.23,0.3l-0.67,0.61l-0.77,0.44 M727.01,178.1l1.69-0.52l1.53-0.09l1.24,0.35
	l0.74,0.6 M708.15,191.13l-0.46,0.91l-0.8,0.9l-1.01,0.72l-1.06,0.43l-0.43,0.08 M662.05,211.44l3.02-1.26 M666.75,208.82l-0.23,0.3
	l-0.67,0.61l-0.77,0.44 M581.72,275.32l-0.18-0.26l-0.24-0.57l-0.11-0.65 M580.72,266.2l0.46,7.64 M584.36,260.03l0.07-0.05
	l0.07-0.05l0.06-0.05l0.07-0.05l0.07-0.05l0.07-0.05l0.07-0.05l0.07-0.05 M580.72,266.2l0.03-0.72l0.16-0.77l0.3-0.8l0.42-0.82
	l0.54-0.82l0.64-0.79l0.74-0.75l0.81-0.7 M593.61,252l0.21-0.21l0.22-0.21l0.23-0.2l0.23-0.2l0.24-0.19l0.24-0.18l0.25-0.17
	l0.25-0.16 M584.89,259.63l1.16-0.88l1.14-0.9l1.12-0.93l1.1-0.95l1.08-0.97l1.06-0.99l1.04-1l1.02-1.02 M627.92,220.51l0.43-0.42
	l0.45-0.4l0.47-0.38l0.49-0.35l0.5-0.33l0.51-0.3l0.52-0.27l0.52-0.23 M595.5,250.48l1.89-1.2l1.86-1.27l1.83-1.33l1.79-1.39
	l1.75-1.44l1.7-1.49l1.65-1.54l1.6-1.58 M609.58,239.23l18.34-18.72 M727.01,178.1l-95.21,39.74 M593.36,262.02l0.22,3.7
	 M589.3,275.09l-0.8-0.05l-0.74-0.44l-0.3-0.8 M586.94,265.17l0.52,8.63 M586.94,265.17l0.19-1.04l0.65-1.12l1.01-1.03l1.22-0.79
	l1.24-0.42l1.07,0.01l0.74,0.44l0.3,0.8 M611.05,241.05l18.34-18.72 M611.05,241.05l-1.6,1.58l-1.65,1.54l-1.7,1.49l-1.75,1.44
	l-1.79,1.39l-1.83,1.33l-1.86,1.27l-1.89,1.21 M595.08,253.82l0.21-0.21l0.22-0.21l0.23-0.2l0.23-0.19l0.24-0.19l0.25-0.18
	l0.25-0.17l0.25-0.16 M595.08,253.82l-1.02,1.02l-1.04,1l-1.06,0.98l-1.08,0.97l-1.1,0.95l-1.12,0.93l-1.14,0.9l-1.16,0.88
	 M585.84,261.85l0.06-0.05l0.07-0.05l0.07-0.05l0.07-0.05l0.07-0.05l0.07-0.05l0.07-0.05l0.07-0.05 M585.84,261.85l-0.81,0.7
	l-0.73,0.75l-0.65,0.79l-0.54,0.82l-0.42,0.82l-0.3,0.8l-0.16,0.77l-0.03,0.72 M582.19,268.02l0.46,7.64 M582.66,275.66l0.11,0.65
	l0.24,0.57l0.38,0.47l0.49,0.37l0.6,0.25l0.7,0.13l0.78,0.01l0.84-0.11 M589.98,276.98l-1.17,0.45l-2,0.56 M600.73,267.12
	l-1.07,1.84l-1.36,1.81l-1.62,1.72l-0.59,0.55 M600.73,267.12l1.03-1.96l1.14-1.96l1.25-1.96l1.36-1.95l1.46-1.93l1.55-1.9
	l1.64-1.87l1.73-1.83 M611.89,251.77l22.91-23.39 M727.86,189.54l-93.06,38.84 M728.48,179.92l1.69-0.52l1.53-0.08l1.24,0.35
	l0.86,0.76l0.4,1.11l-0.09,1.37l-0.57,1.52l-1.01,1.54l-1.36,1.44l-1.6,1.22l-1.72,0.91 M728.48,179.92l-95.21,39.74 M629.39,222.33
	l0.43-0.42l0.45-0.4l0.47-0.38l0.49-0.35l0.5-0.33l0.51-0.3l0.52-0.27l0.52-0.23 M725.05,187.58l-0.76,0.2l-0.63-0.07l-0.4-0.33
	l-0.11-0.54l0.19-0.67l0.47-0.7l0.67-0.61l0.77-0.44 M725.25,184.41l3.02-1.26 M728.28,183.14l0.76-0.2l0.62,0.07l0.4,0.33
	l0.11,0.54l-0.19,0.67l-0.47,0.7l-0.67,0.61l-0.77,0.44 M725.05,187.58l3.02-1.26 M708.67,191.14l0.7,0.3l0.34,0.62l-0.07,0.85
	l-0.47,0.95l-0.8,0.91l-1.01,0.72l-1.06,0.43l-0.95,0.07l-0.7-0.3l-0.34-0.62l0.07-0.85l0.47-0.95l0.8-0.9l1.01-0.72l1.06-0.43
	L708.67,191.14 M663.52,213.26l-0.76,0.2l-0.62-0.07l-0.4-0.33l-0.11-0.54l0.19-0.67l0.47-0.7l0.67-0.61l0.77-0.44 M663.73,210.08
	l3.02-1.26 M666.75,208.82l0.76-0.2l0.62,0.07l0.4,0.33l0.11,0.54l-0.19,0.67l-0.47,0.7l-0.67,0.61l-0.77,0.44 M663.52,213.26
	l3.02-1.26 M81.64,175.38l-0.51-0.32 M80.07,174.02l0.46,0.55l0.6,0.5 M79.72,167.85l-1.24-0.59l-1.06-0.1l-0.57,0.22 M95.02,183.07
	l0.3,0.6l0.71,1.02l0.29,0.33 M128.02,204.63l-0.51-0.32 M126.45,203.26l0.46,0.55l0.6,0.5 M154.59,216.13l-0.37-0.47l-0.38-0.45
	l-0.39-0.43l-0.39-0.4l-0.4-0.37l-0.4-0.34l-0.4-0.3l-0.39-0.26 M195.81,276.47l0.04,0.73l-0.07,0.64l-0.17,0.53l-0.27,0.41
	l-0.24,0.21 M170.38,237.32l-15.78-21.19 M79.72,167.85l71.76,45.26 M183.5,251.79l-0.18-0.24l-0.19-0.23l-0.19-0.23l-0.19-0.22
	l-0.2-0.21l-0.2-0.2l-0.2-0.19l-0.2-0.18 M194.77,267.86l1.04,8.61 M170.38,237.32l1.37,1.79l1.4,1.74l1.42,1.69l1.45,1.64
	l1.47,1.58l1.48,1.51l1.49,1.44l1.5,1.37 M191.21,260.89l-0.05-0.06l-0.05-0.06l-0.05-0.06l-0.05-0.06l-0.05-0.06l-0.05-0.06
	l-0.05-0.06l-0.05-0.06 M191.21,260.89l0.67,0.79l0.63,0.85l0.58,0.9l0.51,0.92l0.43,0.92l0.35,0.9l0.25,0.87l0.15,0.81
	 M183.5,251.79l0.87,1.15l0.88,1.14l0.9,1.11l0.91,1.1l0.92,1.07l0.93,1.05l0.94,1.02l0.94,1 M189.08,262.31l-0.05-0.06l-0.05-0.06
	l-0.05-0.06l-0.05-0.06l-0.05-0.06l-0.05-0.06l-0.05-0.06l-0.05-0.06 M188.65,261.86l-0.94-1l-0.93-1.03l-0.93-1.05l-0.92-1.07
	l-0.91-1.1l-0.9-1.12l-0.88-1.14l-0.87-1.15 M181.37,253.21l-0.18-0.24l-0.19-0.23l-0.19-0.23l-0.19-0.22l-0.2-0.21l-0.2-0.2
	l-0.2-0.19l-0.2-0.18 M179.82,251.5l-1.5-1.37l-1.49-1.44l-1.48-1.51l-1.47-1.58l-1.45-1.64l-1.42-1.69l-1.4-1.74l-1.37-1.79
	 M168.25,238.74l-15.78-21.19 M152.47,217.55l-0.37-0.47l-0.38-0.45l-0.39-0.43l-0.39-0.4l-0.4-0.37l-0.4-0.34l-0.4-0.3l-0.39-0.26
	 M77.59,169.27l71.76,45.26 M77.59,169.27l-1.24-0.59l-1.06-0.1l-0.78,0.39l-0.45,0.85l-0.08,1.25l0.3,1.54l0.66,1.71l0.96,1.74
	l1.18,1.63l1.31,1.39l1.33,1.03 M79.72,180.11l70.14,44.24 M169.58,250.82l-19.72-26.48 M169.58,250.82l1.5,2.07l1.45,2.11
	l1.39,2.15l1.33,2.18l1.27,2.2l1.2,2.21l1.12,2.22l1.04,2.22 M187.51,278.29l0.76,0.58l1.55,0.98l1.46,0.64 M179.88,268.17
	l1.05,2.08l1,1.66 M191.27,280.49l0.59,0.13l0.53,0l0.45-0.15l0.37-0.28l0.27-0.41l0.17-0.53l0.07-0.64l-0.04-0.73 M192.65,269.27
	l1.04,8.61 M192.65,269.27l-0.15-0.81l-0.25-0.87l-0.34-0.9l-0.43-0.92l-0.51-0.92l-0.58-0.9l-0.63-0.85l-0.67-0.79 M184,262.46
	l0.34,2.79 M188.91,266.05l-0.31-1.17l-0.64-1.27l-0.87-1.17l-0.97-0.89l-0.92-0.48l-0.73,0.01l-0.43,0.49l-0.06,0.9 M188.91,266.05
	l1.17,9.72 M187.91,276.66l0.04,0.03l0.92,0.48l0.73-0.01l0.43-0.49l0.06-0.9 M81.28,177.92l0.55,0.23l0.41-0.08l0.21-0.37
	l-0.02-0.61l-0.25-0.76l-0.44-0.79l-0.56-0.7l-0.6-0.5 M81.28,177.92L79,176.48 M78.3,172.9l-0.55-0.23l-0.41,0.08l-0.21,0.38
	l0.02,0.61l0.25,0.76l0.44,0.79l0.56,0.7l0.6,0.5 M80.58,174.34l-2.28-1.44 M93.05,182.01l-0.42,0.33l-0.12,0.7l0.2,0.96l0.49,1.07
	l0.71,1.02l0.81,0.82l0.8,0.49l0.66,0.08l0.42-0.33l0.12-0.7l-0.2-0.96l-0.49-1.07l-0.71-1.03l-0.81-0.82l-0.8-0.49L93.05,182.01
	 M127.66,207.16l0.55,0.23l0.41-0.08l0.21-0.38l-0.02-0.61l-0.25-0.76l-0.44-0.79l-0.56-0.7l-0.6-0.5 M127.66,207.16l-2.28-1.44
	 M124.68,202.15l-0.55-0.23l-0.41,0.08l-0.21,0.37l0.02,0.61l0.25,0.76l0.44,0.79l0.56,0.7l0.6,0.5 M126.96,203.58l-2.28-1.44
	 M188.06,276.62l0.34,0.2l0.43,0.17l0.38,0.05l0.31-0.07 M189.51,276.97l0.12-0.08l0.11-0.11l0.09-0.13l0.07-0.15l0.04-0.18
	l0.02-0.2l0-0.22l-0.02-0.24 M184.4,263.8l0.03,1.09 M189.28,270.11l-0.29-1.52l-0.26-1.64 M189.06,266.45l-0.4,0.01 M188.73,266.95
	l-0.07-0.49 M184.4,263.35l0.01,0.45 M188.67,266.46l-0.08-0.65 M184.32,262.7l0.08,0.65 M188.59,265.81l-0.27-1.02l-0.55-1.1
	l-0.75-1.02l-0.84-0.77l-0.79-0.42l-0.63,0.01l-0.37,0.43l-0.05,0.78 M184.33,261.93l0.07-0.36l0.4-0.46l0.34-0.06 M186.71,255.7
	l0.43-1.49l0.24-2.93 M187.37,251.28l-0.37-3.05 M187,248.23l0.06-0.85l0.4-0.46l0.69-0.01l0.86,0.45l0.91,0.84l0.82,1.1l0.6,1.2
	l0.29,1.11 M191.64,251.61l0.37,3.05 M192.01,254.66l-0.12,2.4l-0.71,2.61l-0.22,0.78 M189.17,268.16l0.11,1.96 M189.95,275.67
	l-0.67-5.56 M192.82,261.33l0.25,2.06 M208.15,203.58l-0.54,0.14l-0.21,0.31l0.16,0.42l0.51,0.48l0.77,0.46l0.92,0.37l0.93,0.22
	l0.8,0.04l0.54-0.14l0.03-0.04 M588.59,274.87l0.48,0.07l0.18,0 M587.65,273.71l0.03,0.21l0.05,0.2l0.08,0.18l0.11,0.16l0.13,0.14
	l0.16,0.12l0.18,0.09l0.2,0.07 M593.1,262.94l0.12,1.14 M593.06,262.5l0.04,0.44 M593.33,264.95l-0.03-0.43l-0.25-1.32
	 M593.03,261.93l0.03,0.58 M593.06,262.5l-0.1,0.3 M587.4,265.98l-0.03,1.46l-0.02,1.34 M587.01,265.48l0.39,0.06 M593.05,263.21
	l-0.08-0.4 M587.4,265.54l0,0.44 M592.97,262.8l-0.03-0.58 M587.37,264.97l0.04,0.58 M592.93,262.23l-0.26-0.7l-0.64-0.38
	l-0.93-0.01l-1.07,0.36l-1.05,0.68l-0.88,0.9l-0.56,0.98l-0.16,0.9 M591.85,260.72l0.2,0.04l0.7,0.42l0.28,0.76 M586.98,264.9
	l0-0.25 M588.36,272.12l0.07,0.24 M589.78,250.97l0.38,2.23l0.47,1.57 M589.61,248.26l0.16,2.71 M583.57,251.23l0.18-0.98l0.61-1.06
	l0.95-0.98l1.15-0.74l1.17-0.4l1.01,0.01l0.7,0.41l0.28,0.76 M584.11,260.24l-0.02-0.38 M587.35,268.78l0.3,4.93 M587.35,268.78
	l-0.29-2.86 M587.05,265.92l-0.04-0.44 M587.01,265.48l-0.03-0.58 M585.09,259.46l-0.29-0.93l-0.56-1.83l-0.52-2.75 M583.73,253.94
	l-0.16-2.71 M599.62,256.05l-0.6,0.55 M599.02,256.6l-0.6,0.55 M598.41,257.15l-0.47,0.01 M598.41,257.15l0.77,0.95 M599.61,255.94
	l0,0.11 M599.62,256.05l0.77,0.95 M597.94,257.15L597.94,257.15l0.15-0.03l0.16-0.05l0.16-0.07l0.16-0.08l0.15-0.1l0.15-0.11
	l0.14-0.12 M599.02,256.6l0.13-0.13l0.12-0.14l0.1-0.14l0.09-0.14l0.05-0.11 M600.36,255.92l0.02,1.07 M600.38,256.99l-1.2,1.1
	 M599.18,258.09l-1.22,0.03 M597.96,258.12l-0.02-1.07 M597.94,257.05l1.2-1.1 M599.15,255.95l1.22-0.03 M601.09,252.98l-0.62-0.43
	l-1.02-0.11l-1.22,0.3l-1.26,0.68l-1.13,0.96l-0.84,1.12l-0.44,1.12l0.02,0.97l0.24,0.47 M601.68,254.31v-0.05l-0.25-0.85
	l-0.68-0.52l-1.02-0.11l-1.23,0.3l-1.26,0.68l-1.13,0.96l-0.84,1.12l-0.44,1.12l0.01,0.97l0.47,0.69l0.67,0.29 M600.89,256.22
	l-0.14-0.45l-0.38-0.25l-0.56-0.03l-0.66,0.21l-0.66,0.41l-0.55,0.55l-0.37,0.6l-0.12,0.57l0.14,0.45l0.38,0.25l0.56,0.03l0.66-0.21
	l0.66-0.41l0.56-0.55l0.37-0.6L600.89,256.22 M178.24,255.63l-1.06,0.7 M178.92,257.06l-0.71,0.47 M178.76,256.23l0.24,1.25
	 M179,257.48l-0.79,0.05 M178.21,257.53l-1.03-1.2 M177.18,256.33l-0.25-1.25 M176.93,255.08l0.79-0.05 M177.72,255.03l1.03,1.2
	 M181.96,258.47l0.09-0.07l0.31-0.65l-0.04-1.01 M182.32,256.75l-0.39-1.23l-0.69-1.28l-0.9-1.16l-0.98-0.89l-0.93-0.49l-0.75-0.03
	l-0.19,0.09 M181.03,258.88l0.62-0.2l0.31-0.65l-0.04-1.01 M181.92,257.02l-0.39-1.23l-0.69-1.28l-0.9-1.17l-0.98-0.89l-0.93-0.49
	l-0.76-0.03l-0.48,0.43l-0.04,0.09 M179.27,257.1l-0.21-0.65l-0.38-0.68l-0.49-0.6l-0.52-0.43l-0.47-0.2l-0.36,0.07l-0.18,0.32
	l0.02,0.53l0.21,0.65l0.38,0.68l0.49,0.6l0.52,0.43l0.47,0.2l0.36-0.07l0.18-0.32L179.27,257.1 M387.23,211.24l-0.3-0.1
	 M389.75,211.64l-0.31,0l-1.85-0.29l-0.41-0.15 M392.62,211.17l-0.4,0.14l-1.81,0.32l-0.65-0.02 M372.32,230.38l-0.25,0.15
	l-1.66,1.43l-1.25,1.59l-0.47,0.89 M371.42,238.61l1.63-0.22l1.97-0.66l1.57-0.89 M383.77,205.83l-0.13-0.27l-1.34-1.73l-1.52-1.33
	l-0.9-0.54 M375.59,204.51l0.14,1.64l0.56,2l0.8,1.61 M381.49,217.23l-0.04,1.41l-0.4,2.75l-0.81,2.66l-0.7,1.57 M402.58,237.02
	l0.23,0.18l1.95,0.99l1.95,0.56l1,0.1 M410.55,234.74l-0.83-1.43l-1.35-1.57l-1.42-1.12 M402.47,209.93l0.17-0.24l0.89-2l0.45-1.98
	l0.05-1.03 M399.77,202.11l-1.38,0.9l-1.5,1.44l-1.04,1.47 M385.3,231.04l1.68-0.21l3.29-0.1l3.11,0.28l0.58,0.1 M379.6,225.53
	l-7.3,4.83 M376.6,236.86l8.95-5.92 M377.07,209.77l4.44,7.54 M386.94,211.18l-3.15-5.36 M397.95,217.43l4.54-7.48 M395.83,205.9
	l-3.23,5.31 M406.96,230.6l-7.23-4.93 M393.69,230.98l8.88,6.06 M210.79,171.94l-1.04-0.89l-1.51-0.75l-1.45-0.34l-0.63-0.01
	 M203.25,172.94l0.21,1.35l0.61,1.49l0.99,1.39l0.37,0.32 M210.5,182.35l0.25,0.89l0.5,2.56l0.25,2.7l0,0.12 M207.85,198.78
	l-0.02,0.04l-0.51,2.08l-0.07,1.97l0.19,1.28 M212.08,205.81l1.06-0.97l1.19-1.61l0.85-1.8 M221.08,176.57l-0.12,0.02l-2.63,0.23
	l-2.37-0.12l-0.45-0.06 M218.4,195.78l0.23-0.02l1.49,0.22l0.2,0.08 M211.9,183.79l0.09,0.08l0.43,0.77l0.09,1.01l-0.11,0.35
	 M205.41,177.53l6.46,6.21 M215.79,176.69l-4.97-4.78 M218.09,178.54l-0.08,0.01l-0.03,0 M212.42,186.06l-4.57,12.72 M215.18,201.42
	l1.97-5.49 M225.98,189.35l0.07-2.15l0.41-2.11l0.82-2.16l0.25-0.43 M227.68,181.56l7.12-4.71 M230.5,170.34l-12.42,8.21
	 M230.04,197.43l-4.34-7.37 M218.83,193.75l4.49,7.64 M231.51,202.71l-0.14-1.65l-0.56-2l-0.8-1.61 M223.34,201.37l0.13,0.27
	l1.34,1.73l1.52,1.34l0.91,0.54 M235.69,168.59l-1.64,0.22l-1.97,0.66l-1.57,0.89 M234.79,176.83l0.26-0.15l1.66-1.43l1.25-1.59
	l0.48-0.91 M460.33,98.58l-0.06-1.45l-0.49-1.78l-0.76-1.47l-0.18-0.23 M454.2,93.64l-0.59,0.85l-0.68,1.64l-0.33,1.83l0.02,0.56
	 M463.56,113.92l-0.15-0.2l-1.72-2.73l-1.34-2.66l-0.04-0.08 M452.66,105.23l-0.76,0.93l-1.77,1.69l-2.1,1.45l-0.89,0.47
	 M469.27,127.22l0.23,0.18l1.95,0.99l1.95,0.56l1.01,0.1 M477.23,124.94l-0.82-1.43l-1.36-1.57l-1.41-1.11 M458.42,122.68
	l-0.03,0.01 M461.29,112.33l-0.22-0.14l-0.57-0.8l-0.21-0.95l0.03-0.26 M444.01,117.5l0.01,0.01l1.09,0.98l0.72,1.02 M458.43,122.7
	l1.5-0.26l1.76-0.05l0.61,0.07 M451.16,109.76L451,109.8l-0.02,0 M462.21,122.43l7.05,4.81 M473.65,120.8l-12.3-8.39 M452.58,98.53
	l-0.05,7.24 M460.29,110.39l0.08-11.81 M432.26,116.11l0.62,0.32l0.64,0.28l0.66,0.24l0.67,0.2l0.68,0.15l0.69,0.11l0.69,0.07
	l0.7,0.03 M437.67,109.7l-0.7,0.02l-0.69,0.06l-0.69,0.1l-0.68,0.14l-0.67,0.19l-0.66,0.23l-0.64,0.27l-0.63,0.31 M450.22,131.36
	l4.54-7.48 M446.79,122l-3.23,5.32 M446.28,135.16l1.39-0.9l1.5-1.44l1.04-1.47 M443.58,127.33l-0.17,0.24l-0.89,2l-0.45,1.98
	l-0.05,1.02 M450.95,109.8l-13.28-0.1 M437.61,117.5l6.46,0.05 M510.73,300.68l1.45,0.01l1.81-0.39l1.51-0.68l0.23-0.16
	 M515.99,294.81l-0.82-0.63l-1.61-0.76l-1.81-0.42l-0.57-0.01 M506.72,292.87l-0.21-0.27l-0.79-1.4l-0.18-0.58 M496.8,304.68
	l0.46-0.46l2.11-1.78l2.26-1.5l1.3-0.68 M505.5,290.63l-0.1-0.27l-0.34-1.74l-0.01-0.41 M486.24,311.04l-0.02,0.03l-0.5,2.08
	l-0.07,1.97l0.19,1.27 M490.47,318.06l1.06-0.97l1.19-1.61l0.85-1.81 M508.6,282.33l0.17-0.24l0.89-2l0.45-1.98l0.05-1.02
	 M505.89,274.5l-1.38,0.9l-1.5,1.44l-1.04,1.47 M493.95,286.94l0.03-0.01 M503.98,290.02l0.05-0.13l0,0 M495.21,286.57l-0.91,0.29
	l-0.43,0.08 M497.58,285.55l-1.29,0.65 M497.86,301.74l0.01-0.03l0.51-0.79l0.72-0.51 M502.09,300.2l8.64,0.52 M511.19,292.94
	l-4.63-0.28 M501.96,278.29l-4.44,7.31 M504.02,289.91l4.6-7.57 M493.57,313.67l4.26-11.84 M489.55,301.8l-3.32,9.24 M490.15,287.35
	l-7.23-4.93 M478.53,288.85l8.86,6.05 M474.94,284.72l0.83,1.43l1.36,1.57l1.41,1.11 M482.91,282.43l-0.23-0.18l-1.95-0.99
	l-1.95-0.56l-1.02-0.1 M267.2,291.25l-1.44,0.14l-1.75,0.58l-1.43,0.83l-0.25,0.22 M262.58,297.64l0.89,0.54l1.68,0.59l1.84,0.23
	l0.56-0.05 M271.84,290.99l-0.16,0.2 M272.91,289l-0.09,0.28l-0.76,1.43l-0.23,0.27 M273.42,286.58l0,0.07l-0.3,1.71l-0.24,0.61
	 M284.53,312.18l0.01,0.04l0.91,1.94l1.18,1.59l0.95,0.87 M292.22,315.03l0.22-1.43l-0.08-2l-0.47-1.94 M275.37,298.63l0.94,0.5
	l2.26,1.48l2.11,1.77l0.75,0.76 M276.62,276.7l-0.13-0.26l-1.34-1.73l-1.52-1.33l-0.88-0.53 M268.44,275.37l0.14,1.65l0.56,2
	l0.8,1.61 M278.86,298.7l0.8,0.45l0.62,0.77l0.11,0.3 M284.5,285.44l0.02,0 M267.55,298.99l8.41-0.38 M271.99,290.99l-4.8,0.22
	 M284.58,285.44l-1.6-0.44l-1.69-0.75l-0.33-0.21 M280.44,300.28l4.09,11.9 M291.9,309.65l-3.19-9.29 M274.43,288.3l-0.01-0.02
	 M280.98,284.06l-4.34-7.37 M269.92,280.64l4.49,7.64 M300.8,279.33l-1.63,0.22l-1.97,0.66l-1.57,0.89 M299.9,287.56l0.26-0.15
	l1.66-1.43l1.25-1.59l0.48-0.91 M295.62,281.08l-7.3,4.83 M290.95,293.51l8.97-5.93 M328.52,97.64l-0.06-1.45l-0.49-1.78l-0.76-1.47
	l-0.18-0.22 M322.38,92.71l-0.58,0.84l-0.68,1.64l-0.33,1.83l0.02,0.56 M320.71,107.22l-0.46,0.98l-1.57,2.77l-1.35,1.94
	 M333.83,108.96l-0.64-0.34l-2.09-1.44l-1.77-1.68l-0.94-1.17 M307.2,119.64l-0.26,0.15l-1.66,1.43l-1.25,1.59l-0.48,0.9
	 M306.29,127.87l1.64-0.22l1.97-0.66l1.57-0.89 M336.44,117.07l0.25-0.24l0.09-0.05 M322.41,121.72l-0.02-0.01 M321.08,121.5
	l0.59,0.06l0.86,0.22 M318.56,121.44l1.11-0.06 M335.13,118.56l0.74-0.97l0.57-0.5 M320.68,109.45l0.01,0.08l-0.25,0.93l-0.65,0.81
	l-0.12,0.07 M329.99,108.93l-0.12-0.01l0,0 M328.52,104.86l0.05-7.22 M320.78,97.59l-0.09,11.81 M343.27,116.83l0.7-0.02l0.69-0.06
	l0.69-0.1l0.68-0.15l0.67-0.18l0.66-0.23l0.65-0.27l0.63-0.31 M348.68,110.42l-0.62-0.32l-0.64-0.28l-0.66-0.24l-0.67-0.2
	l-0.68-0.15l-0.69-0.11l-0.69-0.07l-0.7-0.03 M343.33,109.03l-13.28-0.09 M336.78,116.78l6.49,0.05 M311.49,126.12l7.14-4.72
	 M319.6,111.4l-12.42,8.21 M338.66,131.84l-0.14-1.65l-0.56-2l-0.8-1.61 M330.48,130.5l0.13,0.26l1.34,1.73l1.52,1.33l0.87,0.52
	 M326.02,122.97l4.44,7.55 M337.18,126.56l-3.15-5.36 M169.25,287.53l-1.35-1.05l-1.51-0.67l-1.42-0.27l-0.37,0.01 M161.72,288.57
	l0.01,0.53l0.4,1.48l0.79,1.47l0.97,1.06 M177.85,317.06l0.01,0.04l0.91,1.94l1.18,1.59l0.95,0.88 M185.54,319.9l0.22-1.43l-0.08-2
	l-0.47-1.94 M172.06,301.09l0.2,0.17l0.35,0.71 M175.13,289.8l-1.07,0.7l-1.41,0.53l-0.89,0.13 M172.84,290.96l-3.58-3.44
	 M163.86,293.14l8.22,7.91 M183.58,304.36l0.01-0.04l0.03-0.07 M185,293.16l-0.02-0.04l-0.35-0.84 M185.22,314.53l-2.25-6.55
	 M182.97,307.98l-0.07-0.2 M172.67,301.97l5.18,15.09 M186.63,294.89l-0.95-0.81l-0.65-0.95 M178.1,281.53l-4.57,12.72
	 M183.44,289.73l2-5.56 M180.82,277.5l-0.67,0.62l-1.19,1.61l-0.85,1.8 M185.43,284.17l0.02-0.04l0.51-2.08l0.07-1.97l-0.19-1.26
	 M195.81,296.05l-0.88-0.54l-1.68-0.59l-1.84-0.23l-0.56,0.05 M191.2,302.44l1.44-0.14l1.75-0.58l1.43-0.83l0.21-0.18
	 M182.56,302.88l8.64-0.4 M190.85,294.7l-5.22,0.24 M573.66,172.54l-0.91,0.11l-1.53,0.49l-1.45,0.88l-0.47,0.48 M574.59,180.15
	l1.15-1.36l0.73-1.47l0.33-1.4l0-0.3 M573.91,172.54l-0.25,0 M568.36,191.19l0.22-2.4l0.49-2.59l0.35-1.22 M564.48,203.9l0.01,0.04
	l0.91,1.94l0.87,1.17 M572.38,204.77l-0.06-1.45l-0.47-1.94 M564.51,179.13l-1.25,0.12l-2.57-0.04l-1.81-0.28 M567.47,188.54
	l-0.07-0.2l0-0.88l0.38-0.89l0.43-0.43 M559.58,198.44l1.34-0.23l0.5,0.05 M568.04,186.28l6.55-6.12 M569.27,174.46l-5.03,4.7
	 M562.01,181.01l-0.12-0.02l0.02,0.01 M571.86,201.37l-4.39-12.78 M562.56,198.32l1.92,5.59 M552.24,184.52l0.62,1.21l0.73,2.38
	l0.29,2.38l-0.05,1.24 M541.64,174.93l0.82,1.42l1.36,1.57l1.41,1.11 M549.6,172.64l-0.23-0.18l-1.95-0.99l-1.95-0.56l-1.02-0.1
	 M552.4,207.56l1.39-0.9l1.5-1.44l1.04-1.47 M549.71,199.72l-0.17,0.24l-0.89,2l-0.45,1.98l-0.05,1.01 M545.22,179.06l7.07,4.82
	 M561.91,181.01l-12.3-8.39 M554.13,192.4l-4.44,7.31 M556.35,203.76l4.6-7.57 M614.48,296.34l1.1-1.26l0.76-1.47l0.35-1.4
	l0.01-0.39 M613.84,288.76l-0.33-0.02l-1.48,0.26l-1.52,0.66l-1.34,1 M592.83,317.43l-0.02,0.04l-0.51,2.08l-0.07,1.97l0.19,1.26
	 M597.06,324.46l1.06-0.97l1.19-1.61l0.85-1.8 M605.61,305.03l0.07-0.23l0.52-0.63 M606.62,294.26l-0.7-0.1l-1.51-0.55l-1.13-0.76
	 M609.17,290.65l-3.61,3.38 M606.17,304.14l8.33-7.79 M595.18,310.9l-2.35,6.53 M600.16,320.07l5.4-15.01 M593.64,305.7l0.41,0.47
	l0.37,0.59l0.15,0.39l0.01,0.04 M593.57,295.54l-0.22,0.52l-0.08,0.12 M593.49,295.81l-0.21,0.38 M593.28,296.19l-0.02,0.04
	l-0.92,1.14l-0.37,0.27 M592.72,281.7l-0.22,1.43l0.08,2l0.46,1.94 M600.42,284.55l-0.01-0.04l-0.91-1.94l-1.18-1.59l-0.95-0.88
	 M587.02,305.3l8.41,0.5 M592.72,297.83l-5.23-0.31 M604.81,297.32l-4.39-12.78 M593.04,287.07l1.9,5.52 M582.22,303.43l0.83,0.63
	l1.61,0.76l1.81,0.43l0.57,0.01 M587.48,297.57l-1.45-0.01l-1.8,0.39l-1.51,0.68l-0.24,0.17 M271.62,273.03l-41.07-69.84
	 M228.1,204.63l41.07,69.84 M475.37,128.4l66.93,45.66 M543.9,171.72l-66.93-45.66 M348.65,114.38l83.62,0.6 M432.29,112.14
	l-83.62-0.6 M335.25,133.76l41.07,69.84 M378.76,202.16l-41.07-69.84 M442.97,133.07l-42.06,69.25 M403.33,203.79l42.06-69.25
	 M549.1,205.46l-42.06,69.25 M509.46,276.18l42.06-69.25 M596.45,280.62l-1.12-3.25 M592.66,278.31l1.11,3.23 M583,299.74
	l-66.38-3.98 M516.45,298.58l66.38,3.98 M237.79,171.9l67.58-44.7 M303.8,124.83l-67.58,44.7 M261.73,293.94l-66.43,3.04
	 M195.43,299.81l66.43-3.04 M408.68,238.2l66.93,45.66 M477.21,281.52l-66.93-45.66 M592.66,278.31l1.11,3.23 M596.45,280.62
	l-1.12-3.25 M302.91,282.63l67.58-44.7 M368.92,235.57l-67.58,44.7 M81.11,164.54l-2.13,1.42 M195.84,266.06l2.13-1.42
	 M730.74,176.63l-1.47-1.82 M578.16,261.47l1.47,1.82 M733.68,180.28l-1.47-1.82 M581.72,275.32l1.47,1.82 M76.85,167.38l-2.13,1.42
	 M192.98,280.4l2.13-1.42 M187.81,276.67l0.01-0.01l0.32-0.1l0.07,0 M189.59,276.92l0.45-0.3 M180.62,275.58l-0.14,0.61l0.01,0.52
	l0.22,0.66l0.52,0.63l0.89,0.61l0.55,0.27l0.29,0.11 M182.97,278.99l0.29,0.11l1.13,0.29l0.89,0.06l0.14-0.03 M185.43,279.42
	l0.69-0.15l0.62-0.43l0.31-0.38l0.24-0.49 M184.41,264.89l-0.01,0.16 M184.94,261.01l-0.23,0.16 M184.33,261.93l-0.03,0.32
	 M184.43,264.98l-3.81,10.6 M187.25,278.07l0.74-2.04 M187.8,246.67l-0.45,0.3 M210.92,212.22l1.28-4.42l0.16-1.26l0-0.42
	l-0.04-0.32l-0.1-0.24 M207.31,204.02l-0.21,0.16l-0.31,0.33l-0.72,1.1l-1.82,4.2 M196.96,251.07l13.97-38.86 M204.29,209.73
	l-12.46,34.66 M587.47,273.91l0.44,0.55 M589.91,276.85l0.37,0.69l0.43,0.43l0.4,0.22l0.43,0.12l0.93,0.01 M592.47,278.32l0.14,0
	l0.6-0.1l0.59-0.16l1.1-0.43l0.89-0.55l0.69-0.77l0.24-0.75l0-0.49l-0.12-0.52 M593.4,265.18l-0.03-0.07l0-0.15 M583.91,260.06
	l0.17,0.21 M592.76,261.19l-0.29-0.36 M588.29,272.15l1.66,4.83 M596.61,274.55l-3.22-9.37 M589.35,247.52l-0.44-0.55
	 M573.91,208.45l-1.53-3.68 M566.15,206.57l1.06,4.18 M585.83,243.16l-11.96-34.84 M567.21,210.76l12.5,36.4 M594.81,258.06
	l0.28,0.35 M601.37,253.32l-0.28-0.35 M598.94,258.56l0.58-0.32l0.53-0.4l0.47-0.47l0.4-0.53l0.32-0.58l0.24-0.62l0.15-0.65
	l0.05-0.66 M595.98,258.91l0.37,0.06l0.38,0.03h0.38l0.38-0.03l0.37-0.06l0.37-0.09l0.36-0.12l0.35-0.15 M183.15,250.27l-0.59,0.39
	 M185.2,254.02l0.3-0.2 M177.48,251.75l-0.4,0.27 M181.56,258.74l0.4-0.27 M176.75,252.46l-0.27,1.09l-0.01,1.12l0.26,1.09l0.51,1
	l0.73,0.85l0.91,0.66l1.04,0.43l1.11,0.17"/>
<path class="st0" d="M369.01,538.85l-0.12-0.17l-0.24-0.71l-0.02-0.91l0.2-0.97l0.4-0.88l0.5-0.64 M401.76,533.97h1.67
	 M375.39,533.97h0.95 M410.19,538.84l0.28-0.54l0.12-0.84l-0.11-0.96l-0.33-0.94l-0.49-0.77l-0.01-0.02 M404.47,533.97h-1.04
	 M401.29,533.97h0.47 M376.34,533.97h1.99 M387.57,541l0.89,0.29l0.55,0.1l0.64,0.05l0.58-0.02l0.61-0.08l0.79-0.21l0.32-0.12
	 M381.07,533.97h-0.41 M398.97,533.97h-0.7 M387.57,541l-0.17-0.08 M387.4,540.92l-0.3-0.27l-0.07-0.14 M387.03,540.52l-0.09-0.34
	l-0.03-0.42l0.02-0.41l0.04-0.32 M386.97,539.04l0.04-0.37l-0.18-1.07l-0.39-0.71l-0.58-0.6l-0.76-0.52 M394.37,535.82l-0.74,0.53
	l-0.63,0.7l-0.34,0.7l-0.13,0.81l0.04,0.5 M392.58,539.05l0.05,0.4l0.01,0.4l-0.04,0.36l-0.09,0.3l-0.22,0.3l-0.17,0.1
	 M392.13,540.92l-0.18,0.08 M378.36,535.38l0.26,0.17l0.28,0.39l0.11,0.51l-0.08,0.54 M378.93,536.99l-0.26,0.49l-0.39,0.37
	l-0.47,0.19l-0.48-0.02l-0.15-0.05 M380.66,533.97l0.43,0.04 M381.87,534.25l0.17,0.07 M376.72,534.65l0.14-0.1l0.84-0.34l0.85,0.03
	l0.73,0.4l0.5,0.71l0.19,0.91l-0.14,0.97 M379.85,537.24l-0.46,0.88l-0.71,0.66l-0.84,0.34l-0.85-0.03l-0.73-0.4l-0.5-0.71
	l-0.19-0.76 M401.3,535.37l-0.12,0.06l-0.33,0.33l-0.18,0.47 M400.67,536.23l0.01,0.53l0.19,0.52l0.34,0.43l0.44,0.27l0.48,0.07
	l0.32-0.08 M402.92,534.66l-0.63-0.35l-0.86-0.12l-0.79,0.26l-0.6,0.59l-0.32,0.84 M399.71,535.88l0.01,0.96l0.34,0.93l0.61,0.77
	l0.8,0.48l0.86,0.12l0.79-0.26l0.6-0.6l0.32-0.84l0.03-0.21 M398.97,533.97l-0.74,0.1 M397.71,534.25l-0.13,0.05 M398.27,533.97
	h-2.49h-2.23h-2.03h-0.96h-0.93h-0.92h-0.93h-1.94h-1.41h-1.57h-1.79 M394.37,535.82l0.24-0.14l0.96-0.48l1.14-0.5 M397.71,534.25
	l0.52-0.18 M398.24,534.07L398.24,534.07 M381.87,534.25l-0.77-0.24 M383.59,535.02l0.54,0.25l0.88,0.45l0.08,0.05 M229.04,480.4
	l0.16,0.1 M216.71,471.58l0.95,0.8 M216.74,481.1l0.51,0.62l0.67,0.55l0.67,0.37l0.56,0.2 M235.55,484.25l-6.35-3.75 M209.96,465.71
	l6.76,5.87 M233.71,483.48l-4.32-1.19 M229.38,482.29l-0.79-0.22 M225.33,481.41l-1.43,0.14 M223.89,481.55l-0.63,0.29l-0.37,0.36
	l-0.12,0.21 M222.78,482.41l-0.15,0.24l-0.22,0.22l-0.25,0.17l-0.45,0.17l-0.72,0.06l-0.67-0.11 M219.14,482.84l1.18,0.33
	 M229.04,480.4l-3.17-1.96l-3.06-2.05l-2.89-2.16l-2.27-1.85 M225.33,481.41l0.69,0.07l2.05,0.45l0.52,0.14 M237.38,487.06l-0.24,0
	l-0.32,0.19l-0.29,0.37l-0.22,0.49 M236.3,488.11l-0.11,0.54l0.01,0.51l0.13,0.39l0.24,0.22l0.06,0.02 M214.02,484.97l0.25,0.35
	 M216.01,480.04l0.72,1.05 M216.01,480.04l-0.45-0.95l-0.08-0.49l0.06-0.53l0.12-0.3l0.18-0.25l0.09-0.08 M215.92,477.44l0.25-0.27
	l0.21-0.48l0.05-0.39 M216.44,476.3l-0.18-1.23l-0.17-0.48 M214.72,472.2l0.92,1.48l0.44,0.9 M214.72,472.2l-0.66-0.98
	 M211.35,467.28l2.71,3.95 M209.96,465.71l1.39,1.57 M206.79,463.82l0.58,0.13l0.28,0.38l-0.05,0.57l-0.38,0.67l-0.65,0.67
	l-0.81,0.57l-0.86,0.38l-0.78,0.13l-0.58-0.13l-0.29-0.38l0.05-0.57l0.38-0.67l0.64-0.67l0.82-0.57l0.86-0.38L206.79,463.82
	 M238.48,487.36l-0.03-0.24l-0.24-0.71l-0.42-0.4l-0.54-0.04l-0.58,0.34l-0.53,0.66l-0.4,0.88 M235.74,487.86l-0.21,0.97l0.02,0.91
	l0.24,0.71l0.42,0.4l0.54,0.03l0.58-0.34l0.39-0.45 M233.71,483.48l1.85,0.78 M206.19,464.6l0.32,0.07l0.16,0.21l-0.03,0.32
	l-0.21,0.37l-0.36,0.37l-0.45,0.32l-0.48,0.21l-0.43,0.07l-0.32-0.07l-0.16-0.21l0.03-0.32l0.21-0.37l0.36-0.37l0.45-0.32l0.48-0.21
	L206.19,464.6 M442,517.28l-0.02,0.26l0.15,0.97 M442.13,518.51l0.46,0.88l0.63,0.61 M475.6,504.72l0.52,0.32l0.54,0.66l0.4,0.88
	 M477.06,506.58l0.2,0.97l-0.02,0.91l-0.25,0.71l-0.11,0.15 M464.28,504.51l0.2,0 M472.45,504.3l-7.97,0.21 M470.4,504.6l2.05-0.3
	 M439.13,508.09l1.96-0.42 M435.22,508.92l3.9-0.83 M470.4,504.6l-4.28,1.19 M466.11,505.79l-0.69,0.19 M461.75,510.4l1.17-0.33
	 M460.28,509.74l0.11,0.44l0.35,0.27l0.5,0.05l0.51-0.1 M463.51,507.3l0.14,0.42l0.26,0.39l0.17,0.2 M463.65,506.73l-0.14,0.58
	 M464.08,508.31l0.16,0.24l0.06,0.27l-0.04,0.25l-0.2,0.35l-0.52,0.41l-0.61,0.24 M432.26,513.97l0,0.51l0.01,0.49l0.01,0.12
	l0.01-0.27l0.01-0.61l0-0.86l0-0.99l0-0.96l0-0.79l-0.01-0.49l-0.01-0.12l-0.01,0.26l-0.01,0.61l0,0.25 M437.63,508.67l-1.78,0.14
	l-0.63,0.12 M464.28,504.51l-3.54-0.1l-0.39-0.07 M463.65,506.73l0.23-0.19l1.16-0.44l0.38-0.11 M450.4,511.95l0.92-0.08l0.69-0.2
	l0.53-0.33l0.29-0.38l0.11-0.49 M450.4,511.95h-1.87 M448.53,511.95l-1.07-0.18l-0.43-0.23l-0.33-0.35l-0.12-0.3l-0.01-0.32
	 M446.58,510.11l-0.02,0.45 M446.58,510.11l-0.19-0.65l-0.42-0.44l-0.64-0.25l-0.27-0.05 M432.28,513.97L432.28,513.97l0.01-0.15
	l0-0.34l0-0.48v-0.55l0-0.53l0-0.44l0-0.27l0-0.07 M441.09,507.67l5.84-1.42l2.43-0.8l1.87-0.87l1.31-0.98l0.03-0.04 M445.05,508.73
	L445.05,508.73l-1.1-0.07l-0.85,0 M452.53,506.64l0.01,0.43 M452.55,507.07l0.05,0.28l0.07,0.33l0.08,0.33l0.1,0.46l0.09,0.59
	l0.01,0.31 M452.94,510.47l0.01-1.1 M455.76,497.45l0.52-0.16l0.55,0.02l0.5,0.19l0.38,0.33l0.2,0.42l-0.02,0.45l-0.23,0.41
	l-0.4,0.31l-0.52,0.16l-0.55-0.02l-0.5-0.19l-0.38-0.33l-0.2-0.42l0.02-0.45l0.23-0.41L455.76,497.45 M455.16,496.67l0.93-0.28
	l0.99,0.03l0.91,0.33l0.68,0.59l0.35,0.76L459,498.9l-0.41,0.73l-0.73,0.55l-0.93,0.28l-0.99-0.03l-0.91-0.33l-0.68-0.59l-0.35-0.76
	l0.03-0.81l0.41-0.73L455.16,496.67 M489.17,501.52L489.17,501.52 M489.24,501.59l-0.05-0.05l-0.02-0.02 M489.75,505.63l-0.29-0.55
	 M489.27,504.87l0.19,0.22 M514.94,497.73l0.37,0.51l0.57,0.8l0.48,0.71l0.32,0.51l0.11,0.23l0,0 M505.31,502.4l-0.23,0.79l0.1,0.85
	l0.13,0.27 M493.28,514.79l0.81-0.24l0.73-0.23l0.71-0.24l0.55-0.21l0.51-0.21 M497.54,513.24l-0.69,0.24l-0.7,0.25l-0.71,0.25
	l-0.72,0.25l-0.73,0.25l-0.73,0.25l-0.74,0.25l-0.74,0.24 M483.25,512.41l-0.16,0.04 M480.69,513.12l2.4-0.67 M491.77,515.21
	l1.51-0.42 M491.77,515.21l-0.87,0.06l-0.37-0.13l-0.32-0.29l-0.16-0.29l-0.09-0.35 M489.79,513.63l0.18,0.59 M476.79,519.31
	l0.06-0.02l0.24-0.22l0.14-0.39l0.01-0.51l-0.11-0.54l-0.22-0.49l-0.3-0.37l-0.33-0.19l-0.25,0 M475.67,519.62l0.39,0.44l0.59,0.34
	l0.55-0.03l0.43-0.4l0.25-0.71l0.02-0.91l-0.2-0.97l-0.4-0.88l-0.54-0.66l-0.59-0.34l-0.55,0.03l-0.43,0.4l-0.25,0.71l-0.03,0.25
	 M480.69,513.12l-0.75,0.25 M479.94,513.37l-1.14,0.55 M505.31,502.4l0.13-0.24l0.81-0.97l1.96-1.59 M489.79,513.63l-0.56-0.78
	l-0.79-0.55l-1.02-0.31 M500.97,506.36l1.67-0.74 M498.4,508.18l-0.64,1.02l-0.24,0.91l0.05,0.89 M497.57,511.01l0.2,0.54
	 M497.77,511.55l0.14,0.32l0.1,0.31l0.04,0.28l-0.04,0.33l-0.24,0.33l-0.22,0.13 M497.54,513.24l-0.95,0.42 M500.97,506.36
	l-0.14,0.07 M508.57,508.45l-0.13,0.05l-0.47,0.02l-0.47-0.19l-0.39-0.37l-0.26-0.49l-0.08-0.54l0.11-0.51l0.27-0.39l0.27-0.18
	 M504,505.32l-0.79,0.11 M503.21,505.43l-0.56,0.19 M510.19,507.73l-0.18,0.73l-0.49,0.71l-0.73,0.4l-0.85,0.04l-0.84-0.34
	l-0.7-0.66l-0.46-0.88l-0.15-0.97l0.19-0.91l0.5-0.71l0.73-0.4l0.85-0.03l0.84,0.34l0.15,0.1 M500.84,506.43l-1.45,0.86l-0.64,0.53
	l-0.35,0.36 M483.25,512.41l2.75-0.47l0.96-0.01l0.45,0.05 M482.24,511.91l5.21-2.92l2.68-1.33l1.22-0.52l1.13-0.41l2.13-0.59
	l2.14-0.37l4.09-0.32 M500.83,505.44l0.66-0.03 M504,505.32l-2.5,0.1 M503.45,505.25l0.21,0.06l0.34,0.01 M503.38,505.1l0.07,0.14
	 M503.46,504.99l-0.08,0.11 M503.64,504.86l-0.1,0.07l-0.08,0.07 M503.91,504.72l-0.14,0.07l-0.12,0.07 M504.21,504.6l-0.3,0.12
	 M504.78,504.43l-0.58,0.17 M505.29,504.33l-0.5,0.09 M505.63,504.3l-0.35,0.03 M505.14,504.32l0.49-0.02 M504.56,500.62l-1.93,0.9
	l-2.21,1.17l-0.71,0.46l-0.44,0.38l-0.16,0.3l0.12,0.23l1.01,0.27l1.22,0.06l1.63-0.01l2.05-0.06 M489.17,501.52l0.45,0.31
	 M489.24,501.59l-0.07-0.07 M489.13,501.97l0.13-0.21l-0.02-0.16 M487.06,502.47l0.03,0.02 M487.06,502.47l0.08,0.05 M484.4,509.86
	l2.9-1.86l2.01-1.59l0.74-1.21l-0.2-0.75 M484.4,509.86l-0.17,0.1 M477.49,513.92l6.75-3.96 M477.49,513.92l0.45-0.25 M478.5,513.41
	l-0.56,0.27 M479.1,513.17l-0.6,0.23 M479.38,513.09l-0.29,0.08 M479.61,513.06l-0.1,0.01l-0.13,0.02 M479.74,513.1l-0.05-0.02
	l-0.08-0.01 M479.75,513.18l-0.01-0.08 M479.55,513.41l0.19-0.23 M478.8,513.92l0.43-0.27l0.32-0.24 M478.8,513.92l2.58-1.52
	 M481.39,512.41l0.85-0.5 M263.77,497.27l-0.37,0.5l-0.58,0.8l-0.55,0.78 M262.27,499.35l-0.43,0.64l-0.25,0.4l-0.04,0.1
	 M273.15,504.31l0.18-0.41l0.05-0.75l-0.27-0.8 M281.85,513.66l0.57,0.24l0.62,0.23l0.72,0.24l0.66,0.21l0.73,0.21 M286.67,515.21
	l-0.74-0.24l-0.74-0.25l-0.73-0.25l-0.73-0.25l-0.72-0.25l-0.71-0.25l-0.7-0.25l-0.69-0.24 M299.72,513.92L299.72,513.92
	 M297.82,513.12l-2.9-0.8 M294.91,512.32l-0.33-0.08 M291.14,511.94l-1.07,0.31l-0.91,0.65l-0.51,0.79 M288.65,513.7l-0.15,0.52
	 M288.5,514.22l-0.09,0.34l-0.16,0.29l-0.21,0.22l-0.37,0.19l-0.61,0.04l-0.39-0.08 M285.15,514.79l1.52,0.42 M301.75,519.31
	l-0.21-0.13l-0.18-0.33l-0.06-0.47l0.06-0.53l0.18-0.52l0.27-0.43l0.32-0.27 M302.13,516.63l0.32-0.07l0.06,0.01 M299.72,513.92
	l-1.91-0.8 M302.85,519.61l-0.16,0.21l-0.57,0.48l-0.57,0.12l-0.48-0.26l-0.32-0.6l-0.11-0.84l0.12-0.96l0.32-0.93l0.48-0.77
	l0.57-0.48 M302.13,515.58l0.57-0.12l0.48,0.26l0.32,0.59l0.1,0.57 M291.14,511.94L291.14,511.94l1.23-0.04l2.2,0.34 M269.24,498.86
	l-0.22-0.14 M269.24,498.86l2.32,1.81l0.77,0.71l0.72,0.89l0.05,0.09 M272.94,504.3l0.79,0.03 M280.09,508.15L280.09,508.15
	l-0.77-0.73l-1.41-0.9 M277.91,506.52l-0.21-0.1 M277.7,506.42l-1.76-0.8 M281.85,513.66l-0.93-0.42 M280.92,513.24l-0.41-0.38
	l-0.07-0.28l0.04-0.38l0.1-0.31l0.15-0.34 M280.91,511.04l-0.19,0.51 M280.91,511.04l0.06-0.94l-0.23-0.9l-0.46-0.8l-0.2-0.26
	 M285.62,503.26l-1.02,0.15l-0.8-0.04l-0.89-0.14l-2.11-0.58l-2.61-0.94l-3.31-1.37 M273.73,504.33l2.6,0.04l1.83-0.1l0.95-0.29
	l0.11-0.23l-0.14-0.3l-0.41-0.37l-0.69-0.45l-2.21-1.15l-2.09-0.97l-2.6-1.16l-0.5-0.22 M274.61,505.32l2.37,0.09 M276.98,505.41
	l1.19,0.05 M278.17,505.46l3.88,0.34l2,0.38l2.02,0.58l2.12,0.83l2.27,1.08l4.76,2.62 M295.21,511.3l1.52,0.88 M299.72,513.92
	l-3-1.74 M299.45,513.76l0.27,0.16 M298.8,513.24l0.26,0.25l0.39,0.27 M298.8,513.24L298.8,513.24 M298.8,513.24l-0.04-0.13
	l0.05-0.04 M298.97,513.07l-0.1-0.01l-0.07,0.01 M298.97,513.07l0.17,0.03l0.08,0.02 M299.82,513.33l-0.32-0.12l-0.28-0.09
	 M300.4,513.6l-0.58-0.26 M300.93,513.87l-0.52-0.28 M301.02,513.93l-0.09-0.05 M301.02,513.93l-7.87-4.58 M293.14,509.35
	l-1.01-0.62 M288.94,504l-0.55,0.89l0.3,1.11l1.48,1.4l1.97,1.34 M270.05,508.44l0.42,0.09l0.48-0.11l0.43-0.3l0.32-0.45l0.15-0.53
	l-0.03-0.53l-0.21-0.45l-0.36-0.3l-0.03-0.02 M268.42,507.69l0.07,0.41l0.38,0.81l0.65,0.54l0.82,0.19l0.86-0.19l0.78-0.54
	l0.57-0.81l0.28-0.95l-0.06-0.95l-0.38-0.81l-0.65-0.54l-0.82-0.19l-0.86,0.19l-0.46,0.27 M274.16,504.53l-0.18-0.05 M273.98,504.48
	l-0.43-0.1l-0.47-0.07 M273.08,504.31l-0.13-0.01 M275.94,505.62l-0.95-0.27l-0.37-0.03 M274.61,505.32l0.22,0 M274.83,505.32
	L274.83,505.32 M274.83,505.32l0.22-0.03l0.14-0.08 M275.15,505.03l0.04,0.18 M275.15,505.03l-0.06-0.06L275,504.9 M274.96,504.87
	l0.04,0.03 M274.96,504.87l-0.21-0.11 M274.46,504.63l0.3,0.13 M274.46,504.63l-0.3-0.1 M338.65,517.16l0,0.96l-0.34,0.94
	l-0.62,0.77l-0.17,0.14 M308.32,504.3l9.28,0.24 M308.32,504.3l2.07,0.3 M305.17,504.72l-0.29,0.14l-0.56,0.54l-0.46,0.81
	l-0.29,0.95l-0.08,0.95l0.15,0.81l0.24,0.43 M317.6,504.54l1.21,0 M340.59,507.83l1.06,0.23 M345.71,508.92l-4.06-0.86
	 M315.78,506.09l-0.95-0.26 M310.39,504.6l4.43,1.22 M318.02,510.07l1.18,0.33 M345.71,508.92l-1.35-0.2 M344.35,508.71l-1.06-0.05
	 M348.66,515.1l0-0.07l0.01-0.42l0.01-0.73l0-0.93v-0.99l0-0.9l-0.01-0.68l-0.01-0.35l0-0.03 M319.2,510.4l0.66,0.1l0.51-0.12
	l0.26-0.29l0.07-0.36 M316.83,508.31l0.25-0.3l0.22-0.38l0.08-0.24 M317.37,507.39l-0.05-0.56l-0.12-0.16 M318.02,510.07l-0.89-0.41
	l-0.32-0.31l-0.18-0.41l0.01-0.27l0.11-0.26l0.08-0.1 M332.46,511.95h-1.87 M328.08,510.47l0.13,0.54l0.34,0.4l0.56,0.31l0.64,0.17
	l0.83,0.06 M334.4,510.09l0.02,0.47 M320.75,504.39l-1.93,0.15 M315.78,506.09l1.04,0.35l0.39,0.24 M334.42,510.56l0,0.31l-0.12,0.3
	l-0.21,0.26l-0.42,0.28l-0.73,0.21l-0.48,0.03 M335.89,508.74l-0.88,0.29l-0.42,0.45l-0.18,0.61 M328.55,503.67l0.48,0.44l0.77,0.51
	l2.01,0.91l2.64,0.83l6.15,1.46 M337.9,508.66l-0.59,0l-0.95,0.03l-0.48,0.05 M328.09,509.37l-0.01,1.1 M328.09,509.37l0.08-0.76
	l0.09-0.43l0.12-0.48l0.07-0.33l0.05-0.3 M328.51,506.83l0,0.24 M323.29,498.42l0.11,0.44l0.31,0.37l0.46,0.25l0.54,0.09l0.54-0.09
	l0.46-0.25l0.3-0.37l0.11-0.44l-0.11-0.44l-0.31-0.37l-0.46-0.25l-0.54-0.09l-0.54,0.09l-0.46,0.25l-0.31,0.37L323.29,498.42
	 M322.15,498.42l0.2,0.79l0.56,0.67l0.83,0.45l0.98,0.16l0.97-0.16l0.83-0.45l0.55-0.67l0.19-0.79l-0.2-0.79l-0.56-0.67l-0.83-0.45
	l-0.98-0.16l-0.98,0.16l-0.83,0.45l-0.55,0.67L322.15,498.42 M185.38,426.51L185.38,426.51 M185.31,426.58l0.06-0.05l0.01-0.02
	 M183.81,424.79l-0.54,0.72 M183.26,425.51l-1.65,1.97 M196.26,448.3l0.15-0.22l0.33-0.51l0.12-0.23l-0.11,0.08l-0.32,0.39
	l-0.46,0.59 M172.55,433.23l0.5,0.72l0.45,0.62l0.44,0.59l0.34,0.44l0.32,0.38 M196.19,448.25l-0.06,0.05l-0.12,0.14 M171.47,422.76
	l-0.1-0.15 M169.9,420.46l1.48,2.16 M171.62,431.87l0.93,1.36 M172.42,429.42l-0.51,0.35 M171.62,431.87l-0.37-0.84l-0.01-0.41
	l0.16-0.4l0.22-0.25l0.31-0.2 M175.19,436.65l-0.43-0.57l-0.43-0.58l-0.44-0.59l-0.45-0.6l-0.45-0.6l-0.45-0.61l-0.46-0.62
	l-0.46-0.62 M163.45,417.3l-0.4,0.36l-0.28,0.38l-0.1,0.35l0.08,0.26l0.26,0.13l0.39-0.01l0.47-0.16l0.47-0.28l0.4-0.36l0.27-0.38
	l0.1-0.35l-0.08-0.26l-0.26-0.13l-0.39,0.01l-0.47,0.16L163.45,417.3 M163.09,416.89l-0.73,0.64l-0.49,0.69l-0.19,0.62l0.15,0.47
	l0.46,0.24l0.71-0.02l0.84-0.29l0.85-0.5l0.73-0.64l0.49-0.69l0.19-0.62l-0.15-0.47l-0.47-0.24l-0.71,0.02l-0.84,0.29L163.09,416.89
	 M169.9,420.46l-0.5-0.66 M169.39,419.8l-0.93-0.95 M172.42,429.42l0.58-0.77l0.28-0.92l-0.02-1.06 M180.11,435.75l-1.15-0.27
	l-0.93,0.07l-0.83,0.33 M177.21,435.88l-0.46,0.35 M176.75,436.23l-0.26,0.23l-0.26,0.2L176,436.8l-0.3,0.08l-0.34-0.08l-0.17-0.15
	 M175.19,436.65l-0.59-0.68 M171.47,422.76l1.38,2.53l0.32,0.93l0.09,0.45 M171.59,421.61l4.57,4.2l2.15,2.18l0.88,1l0.73,0.93
	l1.16,1.78l0.9,1.81l0.37,1.03 M186.41,434.59l-0.7-0.92l-1.05-1.66l-0.56-1.34l-0.14-1.1l0.55-1.7 M184.52,427.87l0.29-0.46
	 M185.38,426.51l-0.57,0.9 M185.31,426.58l0.07-0.07 M184.84,426.53l0.28,0.09l0.18-0.04 M184.84,426.53L184.84,426.53
	 M184.84,426.53l-0.26-0.17l-0.14-0.12 M184.22,425.99l0.11,0.12l0.11,0.11 M184.22,425.99l-0.13-0.17l-0.05-0.07 M183.82,425.32
	l0.09,0.21l0.12,0.21 M183.76,425.02l0.07,0.3 M183.79,424.82l-0.04,0.2 M183.81,424.79l-0.01,0.03 M183.81,424.79l-1.51,2.36
	 M182.3,427.15l-0.26,0.26 M174.48,423.26l2.82,2.32l2.31,1.57l1.59,0.52l0.55-0.16 M174.48,423.26l-0.15-0.13 M168.18,417.71
	l6.14,5.42 M168.18,417.71l0.39,0.36 M169.01,418.53l-0.44-0.46 M169.42,419.02l-0.4-0.49 M169.57,419.26l-0.16-0.24 M169.66,419.45
	l-0.03-0.09l-0.05-0.11 M169.65,419.56l0.02-0.04l-0.01-0.07 M169.55,419.58l0.09-0.02 M169.24,419.44l0.32,0.14 M168.47,418.85
	l0.42,0.35l0.36,0.25 M168.47,418.85l2.35,2.08 M170.82,420.92l0.77,0.68 M564.04,470.93l0.15-0.13 M551.78,479.92l1.01-0.62
	 M560.86,482.84l0.72-0.28l0.72-0.46l0.57-0.52l0.39-0.48 M570.1,465.71l-5.91,5.08 M568.69,467.28l-2.68,3.85 M566.02,471.13
	l-0.48,0.7 M563.86,474.75l-0.29,1.39 M563.57,476.15l0.1,0.67l0.25,0.45l0.17,0.17 M564.09,477.44l0.2,0.21l0.15,0.27l0.08,0.3
	l0.02,0.48l-0.19,0.72l-0.34,0.62 M563.26,481.1l0.73-1.05 M565.65,485.32l0.19-0.26 M564.04,470.93l-2.99,2.48l-2.97,2.31
	l-2.92,2.05l-2.37,1.53 M563.86,474.75l0.28-0.64l1.09-1.82l0.31-0.46 M544.52,484.26l7.25-4.34 M574.2,466.09l0.47,0.28l0.47,0.16
	l0.39,0.01l0.25-0.13l0.08-0.26l-0.11-0.35l-0.28-0.38l-0.41-0.36l-0.47-0.28l-0.46-0.16l-0.39-0.01l-0.25,0.13L573.4,465l0.11,0.35
	l0.28,0.38L574.2,466.09 M573.85,466.5l0.85,0.5l0.84,0.28l0.7,0.02l0.45-0.24l0.14-0.47l-0.2-0.62l-0.5-0.68l-0.73-0.64l-0.85-0.5
	l-0.84-0.28l-0.7-0.02l-0.45,0.24l-0.14,0.47l0.2,0.62l0.5,0.69L573.85,466.5 M568.69,467.28l1.41-1.57 M559.68,483.16l1.17-0.33
	 M559.68,483.16l-1,0.11l-0.48-0.09l-0.48-0.22l-0.25-0.2l-0.19-0.24l-0.06-0.11 M557.24,482.41l-0.2-0.31l-0.41-0.33l-0.36-0.16
	 M556.27,481.59l-1.25-0.2l-0.51,0.02 M551.83,481.95l1.67-0.4l1-0.14 M551.83,481.95l-1.09,0.3 M546.35,483.48l4.39-1.22
	 M544.52,484.26l1.83-0.78 M541.59,487.37l0.15-0.7l0.36-0.54l0.52-0.19l0.59,0.19l0.57,0.54l0.47,0.81l0.29,0.95l0.07,0.95
	l-0.16,0.81l-0.36,0.54l-0.52,0.19l-0.59-0.19l-0.57-0.54l-0.06-0.08 M542.72,487.06l0.12-0.02l0.33,0.11l0.32,0.3l0.26,0.45
	l0.16,0.53l0.04,0.53l-0.09,0.45l-0.2,0.3l-0.17,0.09 M594.79,425.51l-0.58-0.72 M594.79,425.51l1.27,1.46 M603.77,435.97l0.35-0.43
	l0.38-0.5l0.44-0.6l0.41-0.57l0.45-0.64 M606.75,431.87l-0.46,0.62l-0.45,0.62l-0.45,0.61l-0.45,0.6l-0.44,0.6l-0.44,0.59
	l-0.43,0.58l-0.42,0.57 M609.96,418.85L609.96,418.85 M608.52,420.46l-1.8,2.59 M606.72,423.05l-0.2,0.3 M605.1,426.56l-0.03,1.11
	l0.35,1.06l0.6,0.73 M606.01,429.47l0.45,0.3 M606.46,429.77l0.29,0.19l0.22,0.25l0.13,0.28l0.04,0.42l-0.18,0.61l-0.21,0.36
	 M605.8,433.23l0.94-1.36 M613.33,417.38l0-0.3l0.18-0.19l0.34-0.05l0.44,0.1l0.48,0.23l0.44,0.33l0.34,0.38l0.18,0.37v0.3
	l-0.18,0.19l-0.34,0.05l-0.44-0.1l-0.48-0.23l-0.44-0.33l-0.34-0.38L613.33,417.38 M609.96,418.85l-1.45,1.61 M612.37,417.03l0-0.54
	l0.33-0.34l0.61-0.09l0.79,0.18l0.86,0.42l0.79,0.6l0.61,0.68l0.33,0.66l0,0.54l-0.33,0.34l-0.61,0.09l-0.79-0.18l-0.86-0.42
	l-0.79-0.6l-0.61-0.68L612.37,417.03 M605.1,426.56L605.1,426.56l0.36-1.19l1.07-2.02 M598.28,435.76L598.28,435.76l-0.88,0.47
	l-0.68,0.58 M603.77,435.97l-0.57,0.68 M603.2,436.65l-0.42,0.23l-0.26-0.04l-0.33-0.17l-0.26-0.19l-0.27-0.25 M601.24,435.9
	l0.43,0.33 M601.24,435.9l-0.87-0.35l-0.92-0.07l-0.88,0.17l-0.29,0.11 M593.36,427.56l0.77,1.82l-0.03,1.24l-0.21,0.7l-0.35,0.76
	l-1.13,1.78l-1.66,2.16l-0.87,1.02 M593.8,435.95l-0.07-0.39l-0.26-0.14l-0.39,0.08l-0.53,0.31l-0.68,0.54l-0.22,0.21
	 M595.35,436.61l1.18-3.37l0.85-1.71l1.11-1.7l1.44-1.74l1.78-1.84l4.14-3.81 M605.86,422.44l1.38-1.21 M609.96,418.85l-2.72,2.39
	 M609.71,419.06l0.26-0.22 M608.94,419.56l0.35-0.19l0.41-0.31 M608.94,419.56l-0.16,0.02l-0.04-0.05 M608.77,419.38l-0.03,0.09
	l0,0.06 M608.77,419.38l0.07-0.15l0.04-0.07 M609.26,418.67l-0.21,0.26l-0.16,0.23 M609.7,418.2l-0.43,0.47 M610.14,417.77
	l-0.45,0.42 M610.22,417.7l-0.08,0.07 M610.22,417.7l-7.16,6.26 M603.06,423.97l-0.95,0.8 M595.69,426.88l0.98,0.62l1.41-0.1l2-1.09
	l2.03-1.54 M595.69,426.88l-0.04-0.05 M594.22,424.79l1.43,2.05 M594.22,424.79l0.06,0.16 M594.25,425.23l0.03-0.27 M594.09,425.61
	l0.16-0.39 M593.94,425.85l0.15-0.24 M593.74,426.1l0.1-0.12l0.1-0.13 M593.52,426.31l0.11-0.1l0.11-0.11 M593.31,426.47l0.21-0.15
	 M592.98,426.61l0.32-0.14 M592.64,426.51l0.14,0.1l0.2,0 M592.64,426.51l0.55,0.78 M593.19,427.3l0.17,0.26 M497.55,510.23
	l-0.17-0.27l-0.11-0.19 M191.82,462.32l0.73-5.71 M194.4,467.4l-0.06,0.03l-0.51,0.18l-0.58,0.03l-0.63-0.11l-0.67-0.26
	 M187.5,463.87l0.55,0.56l0.55,0.53l0.56,0.49l0.56,0.45l0.56,0.41l0.56,0.37l0.56,0.33l0.55,0.28 M187.5,463.87l-1.64-1.69
	l-1.66-1.59l-1.68-1.49l-1.69-1.38l-1.69-1.26l-1.69-1.14l-1.68-1.02l-1.67-0.89 M155.64,444.16l18.46,9.25 M153.61,442.63
	l0.25,0.24l0.25,0.23l0.25,0.21l0.26,0.2l0.26,0.18l0.25,0.17l0.25,0.15l0.25,0.13 M131.91,413.4l-1.58-1.6 M132.65,414.41
	l-0.18-0.31l-0.55-0.69 M100.94,383.01l-0.1-0.49l-0.42-1.12l-0.66-1.05l-0.8-0.82l-0.06-0.04 M85.54,366.59l-1.58-1.6
	 M86.27,367.59l-0.18-0.31l-0.55-0.69 M79.38,359.61l-0.17,0.12l-0.66,0.84l-0.3,1.26l0.07,1.58l0.45,1.77l0.78,1.82l1.06,1.72
	l1.24,1.48 M81.85,370.19l71.76,72.44 M188.99,457.03l0.87-6.8 M195.1,451.99l-0.08-0.93l-0.43-1.31l-0.73-1.27l-0.92-1.04
	l-0.15-0.13 M193.91,461.44l0-0.02 M188.99,457.03l0.06,1.15l0.43,1.31l0.73,1.27l0.92,1.04l0.97,0.65l0.87,0.16l0.64-0.36
	l0.31-0.82 M196.27,448.79l-1.06-1.35l-1.12-1.22l-1.15-1.08l-0.12-0.1 M185.58,442.31l-0.34-0.05l-0.36-0.06l-0.36-0.07
	 M184.52,442.13l-0.08-0.01l-0.08-0.01l-0.08-0.01l-0.08-0.01l-0.08,0h-0.08l-0.08,0l-0.08,0.01 M183.89,442.09l-1.23,0.07
	l-1.28-0.04l-1.32-0.15l-1.35-0.26l-1.38-0.37l-1.41-0.47l-1.44-0.58l-1.46-0.68 M156.85,431.51l16.16,8.1 M86.1,360.09l70.75,71.42
	 M86.1,360.09l-1.33-1.12l-1.31-0.67l-1.18-0.16l-0.96,0.35l-0.66,0.84l-0.3,1.26l0.08,1.58l0.45,1.77l0.78,1.82l1.06,1.72
	l1.24,1.48 M83.97,368.97l71.76,72.44 M155.74,441.41l0.25,0.24l0.25,0.23l0.25,0.22l0.26,0.2l0.26,0.18l0.25,0.17l0.25,0.15
	l0.25,0.13 M157.76,442.94l18.46,9.25 M176.23,452.18l1.67,0.89l1.68,1.02l1.69,1.14l1.69,1.26l1.69,1.38l1.68,1.49l1.66,1.59
	l1.64,1.69 M189.62,462.65l0.54,0.56l0.55,0.52l0.56,0.49l0.56,0.45l0.56,0.41l0.56,0.37l0.56,0.33l0.55,0.28 M194.07,466.06
	l0.67,0.26l0.63,0.11l0.58-0.03l0.51-0.18l0.43-0.32l0.35-0.45l0.07-0.12 M198.68,456.01l-0.01,0.08 M198.68,456.01l0.04-0.78
	l-0.07-0.85l-0.17-0.91l-0.27-0.95l-0.37-0.96l-0.45-0.96l-0.53-0.93l-0.59-0.88 M99.58,377.79l-0.49,0.39l-0.2,0.76l0.12,1.02
	l0.42,1.12l0.66,1.05l0.8,0.82l0.81,0.47l0.71,0.04l0.49-0.39l0.2-0.77l-0.12-1.02l-0.42-1.12l-0.66-1.05l-0.8-0.82l-0.81-0.47
	L99.58,377.79 M85.39,363.06l-0.6-0.47l-0.56-0.18l-0.44,0.15l-0.25,0.45l-0.02,0.68l0.21,0.8l0.41,0.81l0.55,0.69 M87.67,365.37
	l-2.28-2.3 M86.97,368.3l0.6,0.47l0.56,0.17l0.44-0.15l0.25-0.45l0.02-0.68l-0.21-0.8l-0.41-0.81l-0.55-0.69 M86.97,368.3l-2.28-2.3
	 M131.76,409.88l-0.6-0.47l-0.56-0.18l-0.44,0.15l-0.25,0.44l-0.02,0.68l0.21,0.8l0.41,0.81l0.55,0.69 M134.04,412.18l-2.28-2.3
	 M133.34,415.11l0.6,0.47l0.56,0.18l0.44-0.15l0.25-0.44l0.02-0.68l-0.21-0.8l-0.41-0.81l-0.55-0.69 M133.34,415.11l-2.28-2.3
	 M582.28,469.06l-0.81-0.05l-0.73-0.18l-0.65-0.31l-0.51-0.4 M587.96,467.57l-0.73,0.33l-0.73,0.29l-0.72,0.25l-0.72,0.21
	l-0.71,0.17l-0.7,0.12l-0.69,0.08l-0.67,0.03 M605.12,462.88l-2.05,0.15l-2.09,0.28l-2.13,0.41l-2.16,0.53l-2.17,0.65l-2.19,0.77
	l-2.19,0.89l-2.18,1 M627.74,461.88l-22.62,1 M630.33,461.23l-0.33,0.14l-0.33,0.12l-0.33,0.11l-0.33,0.09l-0.32,0.07l-0.32,0.06
	l-0.32,0.04l-0.31,0.02 M660.58,440.65l3.02-1.35 M658.76,442.66l0.04-0.13l0.4-0.75l0.62-0.66l0.76-0.47 M663.6,439.3l0.55-0.18
	 M701.34,424.05l0.02-0.26l0.34-1.02l0.7-0.98l0.95-0.8l1.06-0.49l0.91-0.11 M722.1,413.22l3.02-1.35 M720.28,415.23l0.04-0.13
	l0.4-0.75l0.62-0.66l0.76-0.47 M725.13,411.87l0.55-0.18 M730.44,408.78l0.16,0.19l0.57,1.2l0.09,1.48l-0.4,1.64l-0.86,1.66
	l-1.24,1.55l-1.53,1.31l-1.69,0.97 M725.54,418.78l-95.21,42.45 M582.43,452.35l0.3-1.19l0.74-1.18l1.07-1l1.24-0.66l1.22-0.22
	l0.54,0.07 M588.32,460.34l0.41-8.19 M588.32,460.34l-0.3,1.19l-0.74,1.18l-1.07,1l-1.24,0.66l-1.22,0.22l-1.01-0.25l-0.02-0.01
	 M582.36,453.73l0.07-1.39 M629.58,448.64l-19.8,0.88 M609.78,449.52l-1.78,0.03l-1.73-0.07l-1.68-0.17l-1.63-0.27l-1.57-0.37
	l-1.51-0.47l-1.44-0.56l-1.37-0.66 M596.33,446.72l0.1,0.02l0.09,0.03l0.09,0.03l0.09,0.03l0.09,0.03l0.09,0.04l0.09,0.04l0.08,0.04
	 M596.33,446.72l-0.43-0.1l-0.42-0.11l-0.41-0.11l-0.41-0.12l-0.41-0.13l-0.15-0.05 M581.78,448.17l1.46-0.92l1.5-0.76l1.51-0.59
	l1.49-0.41l1.45-0.23l1.26-0.04 M581.78,448.17l-0.84,0.65l-0.78,0.73l-0.7,0.8l-0.61,0.84l-0.5,0.87l-0.37,0.88l-0.24,0.87
	l-0.11,0.84 M577.62,454.66l-0.26,5.05 M580.15,467.43l0.65,0.03 M586.49,465.97l-0.73,0.33l-0.73,0.29l-0.73,0.25l-0.72,0.21
	l-0.71,0.17l-0.7,0.12l-0.69,0.08l-0.68,0.04 M586.49,465.97l2.18-1l2.19-0.89l2.19-0.77l2.17-0.65l2.16-0.53l2.13-0.41l2.09-0.28
	l2.05-0.15 M626.27,460.28l-22.62,1 M628.86,459.63l-0.33,0.14l-0.33,0.12l-0.33,0.11l-0.33,0.09l-0.32,0.07l-0.32,0.06l-0.32,0.04
	l-0.31,0.02 M724.07,417.18l-95.21,42.45 M723.45,406.79l1.72-0.55l1.6-0.08l1.36,0.39l1.01,0.83l0.57,1.2l0.09,1.48l-0.4,1.63
	l-0.86,1.66l-1.24,1.55l-1.53,1.31l-1.69,0.97 M723.45,406.79l-93.87,41.85 M704.74,419.09l0.47,0.65l0.07,0.9l-0.34,1.02l-0.7,0.99
	l-0.95,0.8l-1.06,0.49l-1.01,0.11l-0.8-0.29l-0.47-0.65l-0.07-0.9l0.34-1.02l0.7-0.99l0.95-0.8l1.06-0.49l1.01-0.11L704.74,419.09
	 M723.65,410.27l0.77-0.21l0.67,0.08l0.47,0.36l0.19,0.59l-0.11,0.72l-0.4,0.75l-0.63,0.66l-0.76,0.47 M720.83,415.05l3.02-1.35
	 M720.83,415.05l-0.77,0.21l-0.67-0.08l-0.47-0.36l-0.19-0.59l0.11-0.72l0.4-0.75l0.62-0.66l0.76-0.47 M720.63,411.62l3.02-1.35
	 M662.13,437.7l0.77-0.21l0.67,0.08l0.47,0.36l0.19,0.59l-0.11,0.72l-0.4,0.75l-0.62,0.66l-0.76,0.47 M659.31,442.48l3.02-1.35
	 M659.31,442.48l-0.77,0.21l-0.67-0.08l-0.47-0.36l-0.19-0.59l0.11-0.72l0.4-0.75l0.63-0.66l0.76-0.47 M659.11,439.05l3.02-1.35
	 M600.73,440.32l-0.42-0.51 M600.73,440.32l0.61,0.8 M618.37,462.3l11.02,2.66 M629.39,464.96l0.43,0.08l0.45,0.04l0.47,0l0.49-0.05
	l0.5-0.09l0.51-0.13l0.51-0.17l0.52-0.21 M728.48,421.97l1.69-0.97l1.53-1.31l1.24-1.55l0.86-1.66l0.4-1.64l-0.09-1.48l-0.57-1.2
	l-0.16-0.19 M728.48,421.97l-95.21,42.45 M622.71,462.1l5.21,1.26 M627.92,463.36l0.43,0.08l0.45,0.04l0.47-0.01l0.49-0.05l0.5-0.09
	l0.51-0.13l0.52-0.17l0.52-0.21 M727.01,420.38l-95.21,42.45 M727.01,420.38l1.69-0.97l1.53-1.31l1.24-1.55l0.86-1.66l0.4-1.64
	l-0.09-1.48l-0.57-1.2l-1.01-0.83l-0.04-0.02 M610.42,445.93l12.42,3.01 M610.42,445.93l-1.73-0.49l-1.64-0.61l-1.55-0.73
	l-1.46-0.85l-1.36-0.97l-1.25-1.08l-1.14-1.19l-1.03-1.29 M599.26,438.73l-1.07-1.12l-1.36-0.8l-1.62-0.47l-1.82-0.12l-1.96,0.24
	l-2.04,0.58l-2.05,0.91l-2,1.21 M585.34,439.17l-0.84,0.65l-0.78,0.73l-0.7,0.8l-0.61,0.84l-0.49,0.87l-0.38,0.88l-0.24,0.87
	l-0.11,0.84 M581.03,448.74l0.16-3.09 M592.2,444.97l0.2-3.95 M585.86,446.04l0.14-2.7 M592.4,441.02l-0.19-1.01l-0.65-0.68
	l-1.01-0.25l-1.21,0.22l-1.24,0.66l-1.07,1l-0.74,1.18l-0.3,1.19 M179.88,436l0.45-0.31 M179.49,436.3l0.39-0.3 M166.37,449.54
	l-13.91-2.55 M152.47,446.98l-0.37-0.09l-0.38-0.13l-0.39-0.18l-0.39-0.22l-0.4-0.26l-0.4-0.3l-0.4-0.34l-0.39-0.38 M96.63,385.11
	l0.06,0.35 M79.91,367.65l-0.21-0.21 M77.59,372.64l-1.24-1.48l-1.06-1.72l-0.78-1.82l-0.45-1.77l-0.08-1.58l0.3-1.26l0.66-0.84
	l0.18-0.12 M77.59,372.64l71.76,72.44 M186.93,442.23l0.37-2.9 M187.3,439.33l0.31-0.82l0.64-0.36l0.87,0.15l0.97,0.65l0.92,1.04
	l0.73,1.27l0.43,1.31l0.06,1.15 M161.29,446.99l-6.7-1.23 M195.74,448.1l0.07-0.56 M195.81,447.54l0.04-0.78l-0.07-0.85l-0.17-0.91
	l-0.27-0.95l-0.37-0.96l-0.45-0.96l-0.53-0.93l-0.59-0.88 M182.01,434.78l1.05-0.58l1.25-0.2l1.4,0.19l1.51,0.57l1.58,0.93
	l1.59,1.27l1.55,1.56l1.46,1.8 M182.01,434.78l-1.05,0.75l-1.12,0.62l-1.2,0.48l-1.27,0.35l-1.33,0.21l-1.39,0.07l-1.45-0.07
	l-1.5-0.21 M171.71,436.96l-6.27-1.15 M98.97,379.83l1.34,1.35 M79.72,371.41l-1.24-1.48l-1.05-1.72l-0.78-1.82l-0.45-1.77
	l-0.08-1.58l0.3-1.26l0.65-0.84l0.96-0.35l0.5,0.01 M79.72,371.41l71.76,72.44 M154.59,445.76l-0.37-0.09l-0.38-0.13l-0.39-0.18
	l-0.39-0.22l-0.4-0.26l-0.4-0.3l-0.4-0.34l-0.39-0.38 M80.37,368.38l-0.49-0.63l-0.41-0.81l-0.11-0.32 M97.36,385.85l-0.73-0.44
	l-0.8-0.82l-0.55-0.84 M187.44,439.45l0.29-0.77l0.6-0.34l0.82,0.15l0.91,0.61l0.86,0.98l0.69,1.2l0.4,1.24l0.06,1.09
	 M194.78,451.61l-0.07-0.7l-0.37-1.14l-0.63-1.1l-0.79-0.9l-0.24-0.2 M190.34,449.11l-0.26,1.33l-0.29,1.44 M193.77,461.31
	l0.01-0.05 M189.8,451.88l0.11-1.68 M187.09,442.14l0.34-2.68 M189.8,451.88l-0.67,5.28 M189.13,457.16l0.06,1.09l0.4,1.24l0.68,1.2
	l0.87,0.98l0.91,0.61l0.82,0.15l0.6-0.34l0.29-0.77 M586.04,445.98l0.14-2.7 M586.17,443.27l0.28-1.12l0.7-1.12l1.01-0.94l1.17-0.62
	l1.15-0.21l0.95,0.23l0.61,0.64l0.18,0.96 M582.73,453.13l0.03-0.69 M582.73,453.13l0.09-0.25 M585.91,448.63L585.91,448.63
	l1.15-0.21l0.41,0.04 M582.76,452.44l0.28-1.12l0.03-0.06 M587.45,448.6l-0.63-0.1l-1.05,0.19l-1.08,0.58l-0.93,0.87l-0.64,1.03
	l-0.26,1.03 M582.85,452.19l-0.03,0.69 M588.44,454.51l-0.02-1.64l-0.04-1.54 M588.67,452.08l-0.23,2.44 M592.22,441.09l-0.16,3.24
	 M592.06,444.33l-0.12,0.65 M588.14,460.41l0.3-5.89 M582.87,464.18l0.02,0.01l0.95,0.23l1.15-0.21l1.17-0.62l1.01-0.94l0.7-1.12
	l0.28-1.12 M590.87,446.72l0.64-0.13l0.58,0.12l0.36,0.33 M589.35,449.9l-0.24-0.28l-0.13-0.56l0.15-0.67l0.04-0.1 M592.06,447.55
	l-0.12,0.54l-0.33,0.55l-0.48,0.47l-0.57,0.32l-0.56,0.12l-0.47-0.1l-0.31-0.3l-0.11-0.46l0.12-0.54l0.33-0.55l0.48-0.47l0.57-0.32
	l0.56-0.12l0.48,0.1l0.32,0.3L592.06,447.55 M191.46,446.12l-0.03,0.18 M189.16,443.02l0.16-0.02l0.41,0.11 M191.43,446.3
	l-0.18,0.36 M189.23,443.77l0.02-0.14l0.18-0.33l0.33-0.11l0.42,0.13l0.45,0.35l0.41,0.51l0.3,0.6l0.16,0.6l-0.01,0.5
	 M191.47,445.88l-0.18,0.33l-0.32,0.11l-0.33-0.09 M588.3,451.68l0.21,0.15l0.74,0.57 M589.52,453l-1.22-1.33 M589.52,453l0.36,0.32
	l0.95,0.8 M590.83,454.12l0.29,0.24l0.65,0.49 M594.65,446.8l0.32,0.26l0.99,0.85 M589.25,452.4l0.32,0.27l0.99,0.85 M597.18,449.24
	l-1.22-1.32 M595.95,447.92l-0.97,1.66 M596.57,451.3l-0.06,0.13l-0.91,1.53 M597.18,449.24l-0.6,2.05 M594.99,449.58l-0.05,0.13
	l-0.55,1.92 M595.6,452.96l-1.22-1.33 M594.38,451.63l-2.09,0.74 M592.29,452.38l-0.14,0.07l-1.6,1.07 M591.78,454.84l-1.22-1.33
	 M593.87,454.1l-0.14,0.07l-1.96,0.68 M595.6,452.96l-1.73,1.14 M592.38,446.31l-0.41-0.12l-0.82,0.06l-0.88,0.38l-0.8,0.64
	l-0.6,0.81l-0.3,0.85l0.03,0.76l0.03,0.08 M588.4,449.61l0.64,0.27l0.82-0.06l0.88-0.38l0.8-0.64l0.6-0.8l0.3-0.85l-0.03-0.76
	l-0.37-0.56l-0.64-0.27l-0.82,0.06l-0.88,0.38l-0.8,0.64l-0.6,0.8L588,448.3l0.03,0.76L588.4,449.61 M589.08,452.24l0.17,0.16
	 M589.25,452.4l0.28,0.18l0.32,0.13l0.35,0.08l0.39,0.02l0.41-0.03l0.42-0.08l0.43-0.14l0.44-0.19 M592.29,452.38l0.43-0.24
	l0.42-0.28l0.4-0.32l0.37-0.35l0.34-0.38l0.3-0.4l0.25-0.41l0.2-0.42 M594.99,449.58l0.15-0.42l0.1-0.41l0.04-0.4l-0.02-0.38
	l-0.07-0.35l-0.13-0.31l-0.18-0.28l-0.06-0.07 M587.83,450.87l0.27,0.28l0.89,0.39l1.13-0.05l1.22-0.47l1.15-0.83l0.92-1.08
	l0.57-1.18l0.14-1.12l-0.31-0.92l-0.26-0.29 M185.96,442.09l0.95,0.23 M190.68,449.06l-0.38,0.91 M185.96,442.09l0.03,0.29
	l-0.1,0.97 M184.2,443.11l1.77-1.01 M184.2,443.11l-0.2,0.42l-0.4,1.14 M183.6,444.67l-0.07,0.37l-0.01,0.89 M188.54,450.99
	l1.76-1.01 M190.3,449.97l-1.16-0.71 M186.85,450.58l-0.1-0.04l-1.06-0.67 M188.54,450.99l-1.68-0.41 M185.89,443.35l-0.11,0.4
	l-0.49,1.16 M189.14,449.26l-0.1-0.04l-1.58-0.37 M191.7,446.81l0.06-0.18l0.02-0.76l-0.24-0.91l-0.46-0.91l-0.62-0.78l-0.68-0.53
	l-0.52-0.19 M189.2,442.74l-0.02,0.76l0.24,0.91l0.46,0.91l0.62,0.78l0.68,0.53l0.64,0.2l0.49-0.16l0.28-0.5l0.02-0.76l-0.24-0.91
	l-0.46-0.91l-0.62-0.78l-0.68-0.53l-0.64-0.2l-0.49,0.17L189.2,442.74 M185.69,449.87l1.76-1.01 M187.46,448.85l-0.82-2.12
	 M186.63,446.73l-0.08-0.14l-1.27-1.68 M183.52,445.93l1.76-1.01 M184.35,448.05l-0.08-0.14l-0.75-1.98 M185.69,449.87l-1.35-1.82
	 M186.45,442.5l-0.15,0.11l-0.18,0.2l-0.14,0.25l-0.1,0.3 M185.89,443.35l-0.06,0.34l-0.01,0.38l0.03,0.41l0.08,0.43l0.12,0.45
	l0.16,0.46l0.2,0.46l0.23,0.45 M186.63,446.73l0.26,0.44l0.29,0.42l0.31,0.39l0.32,0.35l0.33,0.31l0.34,0.26l0.34,0.21l0.33,0.16
	 M189.14,449.26l0.32,0.1l0.3,0.04l0.27-0.02l0.25-0.08l0.06-0.03 M369.01,538.83l1.17,1.14l1.57,1l1.67,0.63 M405.82,541.62
	l1.83-0.73l1.52-1.03l1.02-1.04 M388.65,545.82l0.26,0.06l0.26,0.04l0.26,0.03l0.26,0.01l0.26-0.01l0.26-0.03l0.26-0.04l0.26-0.06
	 M373.42,541.63l15.23,4.2 M390.73,545.82l15.08-4.2 M378.82,541.42l8.82,4 M383.59,535.02l-1.56-0.71 M391.67,545.44l9.07-4.01
	 M397.58,534.3l-0.88,0.39 M380.92,533.98l-0.27-0.08 M380.65,533.9l-0.12-0.04l-1.49-0.05l-1.28,0.29l-0.99,0.52l-0.04,0.04
	 M375.59,537.2l0.22,1.08l0.64,1.21l1.02,1.09l1.32,0.83l0.03,0.01 M400.74,541.43l0.04-0.01l1.4-0.87l1.02-1.09l0.62-1.15
	l0.23-0.96 M402.82,534.63l-0.7-0.44l-1.31-0.36l-1.49-0.01l-0.29,0.07 M225.07,490.77l1.5,0.46l1.49,0.05l1.28-0.29l0.79-0.42
	 M207.26,475.11l-0.03,0.18l0.18,1.36l0.57,1.34l0.63,0.77 M208.57,478.8l5.91,6.79 M214.48,485.59l0.14,0.15l0.15,0.15l0.16,0.14
	l0.17,0.13l0.17,0.12l0.18,0.11l0.18,0.1l0.19,0.09 M215.81,486.58l9.26,4.2 M216.85,486.92l14.77,4.07 M204.9,471.66l9.12,13.31
	 M203.27,466.66l-0.01,0.39l0.33,1.83l0.72,1.8l0.64,0.95 M210.02,465.79l-0.74-0.71l-1.53-0.96l-0.49-0.19 M238.09,486.25
	l-1.16-1.14l-1.3-0.83 M231.62,490.97l0.11,0.04l1.99,0.29l1.83-0.12l1.26-0.35 M443.22,519.99l0.1,0.08l1.15,0.53l1.4,0.22
	l1.52-0.16l1.06-0.41 M442.23,516.45l-0.11,0.25l-0.08,0.59 M472.5,512.1l1.84-0.73l1.52-1.03l1.02-1.04 M475.61,504.74l-1.44-0.38
	l-1.05-0.05 M457.57,516.34l0.3-0.11 M448.47,520.31l9.07-4.01 M457.85,516.18l14.65-4.07 M432.27,515.08l1.73,0.77l2.06,0.49
	l1.58,0.07 M434.76,509.03l-1.8,0.63l-0.68,0.38 M443.09,508.65h-5.46 M437.64,516.45h15.72 M452.58,501.53l-0.05,5.25
	 M460.29,510.17l0.08-8.56 M454.91,496.81l-0.91,0.81l-0.79,1.2l-0.5,1.47l-0.08,1.22 M460.33,501.6l-0.05-1.18l-0.47-1.51
	l-0.73-1.19l-0.85-0.83l-0.01,0 M488.48,501.39l-0.45,0.08l-0.86,0.35l-0.47,0.35l-0.26,0.29 M485.73,505.85l0,0.06l0.5,1.36
	l0.75,1.01 M486.44,502.45l-0.15,0.17l-0.09,0.16 M490.38,501.62l-0.46-0.16l-1.44-0.07 M496.85,516.3l0.07-0.02l0.07-0.02
	l0.07-0.02l0.07-0.02l0.07-0.03l0.07-0.02l0.07-0.03l0.07-0.03 M515.72,502.18l0.71-1.02l0.32-0.7 M481.77,520.5l15.08-4.2
	 M476.57,520.35l1.45,0.38l1.84,0.09l1.88-0.31l0.03-0.01 M477.15,514.19l-0.83,0.56l-1.02,1.05 M497.38,516.11l9.48-4.2
	 M508.97,505.11l-0.1-0.09l-1.15-0.53l-1.4-0.22l-0.02,0 M506.84,511.87l0.58-0.23l1.27-0.97l0.88-1.13l0.49-1.14l0.08-0.59
	 M291.5,507.87l0.4-0.68l0.47-1.39l0.03-0.64 M289.55,501.43l-0.52-0.03 M280.93,516.1l0.07,0.03l0.07,0.03l0.07,0.03l0.07,0.03
	l0.07,0.03l0.07,0.02l0.07,0.02l0.07,0.02 M261.55,500.46l0.8,1.38 M281.5,516.31l15.23,4.19 M303.2,515.77l-1.16-1.13l-0.72-0.46
	 M296.73,520.49l0.12,0.04l1.99,0.29l1.83-0.12l1.27-0.35 M271.67,511.9l9.26,4.2 M268.45,507.68l0.17,0.96l0.6,1.21l0.98,1.11
	l1.29,0.86l0.18,0.06 M272.37,504.3l-0.38-0.02l-1.3,0.27l-1.01,0.51l-0.24,0.2 M338.63,517.05l-0.12-0.51l-0.04-0.09
	 M332.21,520.28l1.49,0.47l1.49,0.05l1.28-0.29l0.99-0.52l0.04-0.04 M338.66,517.28l-0.03-0.23 M307.68,504.31l-1.24,0.08
	l-1.28,0.35 M303.89,509.32l1.17,1.14l1.57,1l1.68,0.63 M323.06,516.23l0.33,0.07 M323.39,516.3l8.82,4 M308.3,512.11l14.77,4.07
	 M343.3,516.41l0.55,0.03l2.18-0.32l1.94-0.67l0.68-0.38 M348.66,510.02l-1.72-0.77l-0.76-0.18 M343.3,508.65h-5.4 M327.58,516.45
	h15.72 M328.52,506.83l0.05-5.22 M320.77,501.53l-0.08,8.53 M328.52,501.6l-0.06-1.22l-0.48-1.5l-0.74-1.18l-0.83-0.79
	 M323.04,496.9l-0.35,0.22l-0.89,1.01l-0.67,1.34l-0.33,1.55l-0.03,0.6 M185.4,425.86l-0.19-0.34l-0.44-0.54l-0.22-0.17
	 M184.55,424.8l-0.24-0.2l-0.59-0.29l-0.97-0.21l-1.28,0.09l-1.31,0.48l-1.19,0.86l-0.39,0.5 M184.5,430.96l0.73-1.04l0.47-1.38
	l0.07-1.31l-0.26-1.12l-0.11-0.26 M178.54,425.99l-0.23,0.27 M184.34,431.22l0.19-0.23 M196.85,447.35l-0.94-1.63l-0.21-0.25
	 M163.34,423.9l9.03,13.17 M161.71,418.91l-0.01,0.39l0.33,1.83l0.72,1.8l0.64,0.95 M167.83,417.43l-0.12-0.11l-1.53-0.96l-0.5-0.19
	 M571.15,478.73l0.79-1.23l0.41-1.38l0.01-0.46 M549.66,490.65l0.33,0.21l1.29,0.38l1.48,0.04l1.51-0.36l0.31-0.17 M554.59,490.79
	l9.48-4.2 M564.07,486.6l0.2-0.1l0.2-0.11l0.19-0.12l0.18-0.13l0.17-0.14l0.17-0.15l0.16-0.16l0.15-0.17 M565.49,485.53l5.67-6.79
	 M565.84,485.05l9.29-13.37 M572.83,463.93l-0.43,0.16l-1.59,0.98l-0.76,0.71 M575.08,471.65l0.62-0.89l0.76-1.84l0.34-1.78l0-0.47
	 M548.46,490.98l14.65-4.08 M543.26,490.84l1.45,0.38l1.84,0.08l1.88-0.31l0.03-0.01 M544.54,484.21L544.54,484.21l-0.04,0.02
	 M544.5,484.23l-1.49,1.01l-1.02,1.04 M599.43,425.94l-0.11-0.14l-1.2-0.98l-1.3-0.57l-1.25-0.17l-1.09,0.16l-0.78,0.35l-0.46,0.35
	l-0.19,0.22 M593.05,425.17l-0.21,0.24l-0.36,0.7l-0.26,1.35l0.16,1.36l0.55,1.35l0.66,0.84 M605.39,437.78l0.03-0.03l0.03-0.03
	l0.03-0.03l0.03-0.03l0.03-0.04l0.03-0.03l0.03-0.04l0.02-0.03 M599.87,426.43l-0.43-0.5 M593.55,431.05l0.3,0.35 M605.6,437.5
	l9.43-13.58 M612.72,416.17l-0.42,0.15l-1.59,0.97l-0.14,0.13 M614.98,423.89l0.62-0.89l0.76-1.84l0.34-1.78l0-0.47 M602.06,441.77
	l3.34-3.99 M271.22,505.86l-33.85-15.34 M231.41,490.93l38.64,17.52 M477.27,508.21l66.2-18.41 M542.72,487.06l-66.2,18.41
	 M348.67,513.97h83.61 M432.28,511.13h-83.61 M337.5,519.97l39.69,17.99 M378.36,535.38l-39.69-17.99 M441.99,517.36l-40.69,18.01
	 M402.45,537.96l40.69-18.01 M542.52,490.32l-35.1,15.53 M508.57,508.45l39.2-17.35 M579.85,449.87l-60.12,43.58 M527.57,491.28
	L577.6,455 M516.21,499.51l4.77-3.46 M236.63,489.79l66.87,18.42 M304.25,505.48l-66.87-18.42 M257.37,492.57l-61.18-44.32
	 M256.12,495.17l6.02,4.36 M198.47,453.4l51.11,37.02 M410.58,537.72l66.2-18.41 M476.03,516.58l-66.2,18.41 M301.75,519.31
	l66.87,18.42 M369.37,535l-66.87-18.42 M194.4,467.4l2.13-1.22 M81.51,358.38l-2.13,1.22 M730.44,408.78l-1.47-1.6 M600.31,439.81
	l-1.47-1.6 M733.38,411.97l-1.47-1.6 M182.46,434.47l-2.13,1.22 M77.25,360.83l-2.13,1.22 M187.99,438.45l-0.54,0.31 M192.67,462.62
	l0.54-0.31 M192.81,460.15l12.1,13.91 M205.63,464.09l-12.54-14.41 M204.91,474.06l2.17,1.97l0.26,0.15 M592.35,440.37l-0.54-0.59
	 M583.14,451.1l-0.07,0.15 M585.91,448.63l-0.16,0.06 M582.82,464.24l0.23,0.25 M584.07,451.69l-10.2,12.21 M573.28,475.65
	l11.86-14.19 M572.15,476.81l1.13-1.15 M589.23,449.79L589.23,449.79 M592.36,446.91L592.36,446.91 M589.26,448.08l-0.1,0.21
	 M590.87,446.72l-0.22,0.08 M190.09,443.28l-0.36-0.17 M191.46,446.12l0.04-0.39 M594.81,446.96l-1.15-1.25 M587.93,450.99
	l1.15,1.25 M593.61,445.74l-0.43-0.43l-0.92-0.34l-1.03,0.01l-1.11,0.36l-1.09,0.7l-0.9,0.97l-0.61,1.15l-0.21,1.1l0.17,0.99
	l0.5,0.78 M190.34,449.26l1.67-0.96 M188.12,441.55l-1.67,0.96 M191.96,448.33l0.01,0l0.63-0.57l0.32-0.71l0.09-0.92l-0.2-1.13
	l-0.5-1.19l-0.73-1.07l-0.91-0.85l-0.95-0.48l-0.88-0.08l-0.66,0.23"/>
<line class="st0" x1="608.94" y1="419.56" x2="608.94" y2="419.56"/>
</svg>
