<?xml version="1.0" encoding="UTF-8" standalone="no"?>
<!-- Created with Inkscape (http://www.inkscape.org/) -->

<svg
   xmlns:dc="http://purl.org/dc/elements/1.1/"
   xmlns:cc="http://creativecommons.org/ns#"
   xmlns:rdf="http://www.w3.org/1999/02/22-rdf-syntax-ns#"
   xmlns:svg="http://www.w3.org/2000/svg"
   xmlns="http://www.w3.org/2000/svg"
   xmlns:sodipodi="http://sodipodi.sourceforge.net/DTD/sodipodi-0.dtd"
   xmlns:inkscape="http://www.inkscape.org/namespaces/inkscape"
   width="110mm"
   height="108mm"
   viewBox="0 0 110 108"
   version="1.1"
   id="svg1244"
   inkscape:version="0.92.3 (2405546, 2018-03-11)"
   sodipodi:docname="6.svg">
  <defs
     id="defs1238" />
  <sodipodi:namedview
     id="base"
     pagecolor="#ffffff"
     bordercolor="#666666"
     borderopacity="1.0"
     inkscape:pageopacity="0.0"
     inkscape:pageshadow="2"
     inkscape:zoom="1.33"
     inkscape:cx="429.77444"
     inkscape:cy="216.67547"
     inkscape:document-units="mm"
     inkscape:current-layer="layer1"
     showgrid="false"
     inkscape:window-width="1853"
     inkscape:window-height="1025"
     inkscape:window-x="67"
     inkscape:window-y="27"
     inkscape:window-maximized="1" />
  <metadata
     id="metadata1241">
    <rdf:RDF>
      <cc:Work
         rdf:about="">
        <dc:format>image/svg+xml</dc:format>
        <dc:type
           rdf:resource="http://purl.org/dc/dcmitype/StillImage" />
        <dc:title></dc:title>
      </cc:Work>
    </rdf:RDF>
  </metadata>
  <g
     inkscape:label="Layer 1"
     inkscape:groupmode="layer"
     id="layer1"
     transform="translate(0,-189)">
    <g
       id="g6796"
       transform="matrix(0.26458333,0,0,0.26458333,-49.448127,153.89712)">
      <path
         id="path6779"
         d="m 373.33,314.55 0.39,-0.47 0.71,-0.36 0.92,-0.19 1,0.01 0.92,0.2 0.7,0.37 0.28,0.3 m 9.39,26.11 -0.22,0.16 m 0,0 -0.18,0.14 -1.55,1.64 m 13.47,-1.92 0.03,-0.02 0.2,-0.33 m 0,0 0.2,-0.66 0.17,-0.89 0.11,-0.99 0.04,-0.93 -0.04,-0.74 -0.11,-0.43 -0.05,-0.06 m -31,7.68 0.34,0.06 m 16.64,-0.77 -0.01,0.01 -0.36,0.59 -0.76,1.92 m -4.98,-15.21 0.13,0.8 0.34,0.62 0.55,0.51 0.63,0.31 0.81,0.18 m -10.78,0.88 0.33,-0.38 0.29,-0.67 0.07,-0.58 m -18.82,12.08 -0.01,0.04 0.05,0.36 0.22,0.65 0.35,0.84 0.43,0.9 0.44,0.82 0.39,0.62 0.28,0.33 0.07,0.04 m 21.12,-2.16 -0.89,-0.56 -0.93,-0.5 -0.95,-0.45 -0.98,-0.38 -1,-0.32 -1.02,-0.26 -1.03,-0.2 -1.04,-0.13 m 3.29,-14.23 v 0.1 l 0.02,0.53 0.01,0.64 m 0,1.24 v -1.24 m 7.63,-2.03 v 1.6 m 0,-1.6 0.04,-0.82 0.05,-0.25 0.04,-0.09 0.01,0.05 m 2.33,5.14 -0.21,-0.04 m 4.22,7.48 0.33,0.04 m 0,0 0.67,0.14 0.19,0.08 m 0,0 0.3,0.18 0.17,0.2 0.01,0.15 -0.08,0.09 m -12.64,1.78 -0.52,-0.77 -0.6,-0.47 -0.73,-0.23 -0.7,0.02 -0.79,0.26 m 14.39,-1.47 -1.4,0.06 -0.6,0.22 -0.5,0.41 -0.26,0.5 -0.08,0.67 0.21,1.09 0.21,0.52 m 3.76,13.59 0.27,-0.15 0.51,-0.3 m 0,0 0.18,-0.17 h -0.17 l -0.49,0.16 -0.74,0.3 -0.88,0.4 -0.89,0.43 -0.75,0.4 -0.51,0.3 -0.18,0.16 h 0.17 l 0.49,-0.16 0.43,-0.17 m -16.13,-14.73 -0.1,-0.01 m 0.01,0 -0.06,-0.05 0.03,-0.12 0.12,-0.17 0.29,-0.28 0.59,-0.4 0.42,-0.22 m 1.67,-0.81 -1.68,0.81 m 17.34,14.64 h -0.09 l -0.27,0.09 -0.41,0.17 -0.49,0.22 -0.49,0.24 -0.42,0.22 -0.28,0.17 -0.1,0.09 v 0.01 m -0.24,-12.94 -0.01,-0.04 -0.13,-0.23 -0.18,-0.31 -0.28,-0.5 -0.16,-0.32 m 0,0.01 -0.15,-0.32 m -8.63,-0.82 0.8,1.69 m 0,0 0.4,1 0.13,0.43 0.09,0.36 0.03,0.15 0.01,0.03 m 133.37,-17.13 -0.08,-0.11 -0.57,-0.42 -0.84,-0.28 -0.98,-0.09 -0.97,0.11 -0.81,0.3 -0.53,0.44 -0.03,0.05 m 20.78,33.89 0.03,0.37 -0.2,0.68 -0.45,0.79 -0.63,0.77 -0.72,0.63 -0.69,0.4 -0.57,0.11 -0.05,-0.01 m -10.34,-7.55 -0.93,-0.08 -0.94,-0.02 -0.94,0.05 -0.94,0.11 -0.93,0.17 -0.92,0.24 -0.91,0.3 -0.51,0.2 m 6.56,-2.41 -1.29,-1.13 m 1.29,1.13 0.61,0.7 0.14,0.32 v 0.27 l -0.1,0.12 -0.19,0.03 m -0.3,-0.04 0.3,0.03 m -1.75,-2.57 -0.71,-0.45 -0.66,-0.14 -0.67,0.13 -0.55,0.34 -0.53,0.59 m -5.08,-11.46 0.57,-0.01 0.67,-0.22 0.51,-0.43 0.28,-0.52 0.11,-0.7 m -0.7,-2.61 0.12,-0.17 0.14,-0.05 0.13,0.06 0.16,0.23 0.13,0.54 0.02,0.4 m -0.01,1.6 v -1.6 m -5.19,13.93 0.61,-1.25 0.1,-0.64 -0.12,-0.65 -0.31,-0.49 -0.54,-0.42 -1.05,-0.39 -0.55,-0.09 m -4.42,16.34 0.01,-0.01 0.18,-0.04 m 0,0 0.33,0.09 0.43,0.21 0.46,0.29 0.42,0.33 0.32,0.32 0.17,0.26 v 0.15 m 10.48,-10.68 0.3,-0.43 0.27,-0.39 m 0,0 1.04,-1.49 m -8.13,-1.02 -0.19,0.27 m 0,0 -0.46,0.55 -0.17,0.16 m 0.01,0.01 -0.33,0.27 -0.3,0.19 -0.19,0.1 -0.08,0.02 m 0,-0.01 -0.04,0.01 v 0.02 m -14.13,-8.74 0.01,0.39 0.08,0.57 0.15,0.21 m 0.01,0 0.19,-0.18 0.2,-0.54 0.19,-0.81 0.14,-0.97 0.07,-0.97 -0.01,-0.83 -0.08,-0.57 -0.15,-0.21 -0.19,0.17 -0.21,0.54 -0.1,0.38 m 9,22.81 -0.31,-0.33 -0.31,-0.47 0.01,-0.29 0.32,-0.07 m 0,0 0.59,0.17 0.77,0.38 0.83,0.53 0.76,0.6 0.58,0.58 0.31,0.47 -0.01,0.29 -0.32,0.07 -0.59,-0.17 -0.3,-0.13 m -11.26,-21.58 0.11,-0.1 0.11,-0.3 0.1,-0.45 0.08,-0.54 0.04,-0.54 v -0.46 l -0.05,-0.31 -0.08,-0.12 m 10.99,6.53 h 0.08 l 0.03,-0.1 m 0,0.01 0.08,-0.12 0.2,-0.13 0.3,-0.12 0.38,-0.09 0.59,-0.04 0.36,0.02 m -0.02,-0.01 0.35,0.04 m 4.91,-6.48 -0.33,-0.02 m -256.03,30.67 -0.55,-0.01 -0.82,0.26 -0.81,0.54 -0.68,0.72 -0.44,0.8 -0.14,0.76 0.01,0.14 m 6.24,33.78 -0.45,0.13 -0.7,-0.1 -0.85,-0.31 -0.87,-0.48 -0.75,-0.58 -0.52,-0.58 -0.22,-0.5 v -0.05 m 7.87,-18.38 -0.08,-0.21 -0.41,-0.58 m -1.17,-1.25 0.14,0.15 m 1.03,1.1 -1.04,-1.1 m 6.04,-4.55 0.8,0.86 m -0.8,-0.86 -0.54,-0.66 -0.14,-0.25 -0.02,-0.15 h 0.05 m 1.45,1.91 0.57,0.42 0.74,0.18 0.65,-0.07 m 8.8,4.4 -0.56,0.9 -0.5,0.93 -0.44,0.96 -0.38,0.99 -0.32,1.01 -0.26,1.03 -0.2,1.04 -0.13,1.05 m -6.72,3.86 -0.77,-1.19 -0.48,-0.42 -0.57,-0.24 -0.52,0.02 -0.55,0.25 -0.72,0.72 -0.29,0.44 m 0.06,1.61 -0.22,0.03 -0.18,-0.1 -0.1,-0.21 -0.01,-0.29 0.13,-0.47 0.15,-0.29 m 0,0 0.17,-0.29 m 11.97,11.74 0.04,-0.05 0.21,-0.14 0.37,-0.2 0.47,-0.24 0.5,-0.23 0.45,-0.19 0.34,-0.12 0.17,-0.04 0.01,0.01 m -4.92,-20.62 -0.77,0.52 -0.47,0.61 -0.23,0.74 0.02,0.7 0.26,0.79 m 15.54,-15.54 -0.02,0.09 0.07,0.27 0.15,0.41 0.22,0.49 0.24,0.49 0.24,0.42 0.19,0.29 0.12,0.11 h 0.01 m -14.46,16.34 -0.02,-0.07 m 0,0 -0.08,0.01 m 0,0 -0.09,0.01 -0.16,-0.08 -0.2,-0.16 -0.31,-0.33 -0.42,-0.62 -0.22,-0.43 m 0.01,0 -0.8,-1.69 m 3.61,18.59 -0.15,0.06 -0.61,0.23 -0.31,0.07 m 0,0 0.04,-0.1 0.38,-0.25 0.67,-0.37 0.85,-0.42 0.9,-0.42 0.82,-0.35 0.61,-0.22 0.31,-0.07 -0.04,0.1 -0.38,0.25 -0.51,0.29 m -3.33,-21.57 -1.68,0.81 m 1.68,-0.81 1.01,-0.39 0.45,-0.1 0.39,-0.03 0.18,0.02 0.08,0.05 m 0.09,0.02 -0.08,-0.02 m 10.77,-11.03 -0.13,-0.21 -0.35,-0.51 -0.22,-0.19 m 0.01,-0.01 -0.05,0.16 0.12,0.49 0.28,0.74 0.39,0.88 0.44,0.88 0.43,0.76 0.35,0.51 0.22,0.19 0.05,-0.16 -0.12,-0.48 -0.18,-0.49 m 40.49,151.48 -0.19,0.28 -0.59,0.45 -0.85,0.34 -0.98,0.19 h -0.96 l -0.79,-0.19 -0.48,-0.33 m -22.46,-26.52 -0.33,0.26 -0.39,0.64 -0.28,0.88 -0.12,0.99 0.05,0.94 0.21,0.76 0.32,0.43 m 18.88,5.07 -0.07,-0.22 -0.4,-0.63 -0.58,-0.51 -0.51,-0.25 m 11.59,-11.33 -2.11,-0.36 -1.62,-0.48 -0.53,-0.27 m 2.41,15.43 -0.01,0.15 -0.04,0.06 -0.07,-0.04 -0.12,-0.2 -0.18,-0.55 -0.13,-0.66 m -0.2,-1.26 0.2,1.27 m -14.4,-9.48 -0.3,-0.03 m 0,0 -0.59,-0.13 -0.15,-0.07 m 0,-0.01 -0.21,-0.17 -0.06,-0.18 0.09,-0.13 m 16.81,6.54 -0.7,0.47 -0.5,0.65 -0.2,0.68 0.01,0.59 m -4.96,-14.57 0.89,0.56 0.93,0.5 0.96,0.44 0.98,0.39 1,0.32 1.02,0.26 1.03,0.2 1.04,0.13 m -19.64,-12.91 0.01,-0.02 0.25,-0.19 0.56,-0.33 0.79,-0.41 0.89,-0.43 0.87,-0.38 0.71,-0.28 0.44,-0.13 h 0.11 m -2.08,18.64 1.27,-0.08 0.54,-0.23 0.44,-0.42 0.21,-0.5 0.05,-0.67 -0.24,-1.1 -0.22,-0.52 m 8.26,0.77 0.52,0.77 0.6,0.47 0.73,0.23 0.7,-0.02 0.79,-0.26 m 18.74,-3.47 0.08,0.21 0.19,0.6 0.02,0.3 -0.15,-0.05 -0.3,-0.39 -0.4,-0.67 -0.44,-0.85 -0.42,-0.9 -0.33,-0.81 -0.19,-0.6 -0.02,-0.3 0.15,0.05 0.3,0.39 0.28,0.46 m -20.85,4.84 -0.8,-1.69 m 0.01,0 -0.36,-1 -0.07,-0.42 0.01,-0.34 0.05,-0.14 0.09,-0.02 m 0.09,0.02 -0.09,-0.02 m 0.09,0.02 -0.03,-0.03 m 22.87,1.45 -0.07,-0.04 -0.17,-0.21 -0.22,-0.37 -0.25,-0.47 -0.23,-0.5 -0.18,-0.45 -0.11,-0.33 -0.01,-0.17 0.01,-0.01 m -13.84,3.91 -0.03,0.04 -0.12,0.11 -0.19,0.16 -0.37,0.27 -0.64,0.39 -0.43,0.22 m -1.67,0.81 1.68,-0.81 m 1.56,7.56 -1.3,0.63 m 127.49,-41.86 0.36,-0.02 0.65,-0.28 0.72,-0.55 0.68,-0.72 0.53,-0.79 0.31,-0.74 0.03,-0.58 -0.01,-0.05 m -7.09,-33.53 0.1,-0.03 0.49,0.07 0.71,0.3 0.82,0.47 0.81,0.58 0.67,0.6 0.43,0.53 0.13,0.37 m -25.97,18.51 0.56,-0.9 0.5,-0.94 0.44,-0.96 0.38,-0.99 0.32,-1.01 0.26,-1.03 0.2,-1.04 0.13,-1.05 m -12.77,19.88 -0.22,-0.19 -0.35,-0.51 -0.43,-0.76 -0.44,-0.88 -0.39,-0.88 -0.28,-0.74 -0.12,-0.49 0.01,-0.14 m 14.73,-30.94 -0.31,0.07 -0.61,0.23 -0.82,0.35 -0.9,0.42 -0.85,0.42 -0.67,0.36 -0.38,0.25 -0.07,0.08 m 13.28,26.37 -0.68,-0.43 -0.82,-0.19 -0.78,0.07 -0.63,0.23 m -4.88,-5.96 0.77,-0.52 0.47,-0.61 0.23,-0.74 -0.02,-0.7 -0.26,-0.79 m 3.69,9.32 -1.3,0.63 m -5.26,-5.79 1.68,-0.81 m -1.68,0.81 -0.97,0.39 -0.39,0.11 -0.3,0.04 -0.1,-0.01 0.02,-0.04 m 17.04,-3.3 -0.42,0.82 -0.14,0.76 0.1,0.76 0.29,0.62 0.51,0.59 m -14.58,-8.17 v -0.02 l 0.07,0.07 0.13,0.15 0.23,0.33 0.37,0.62 0.21,0.43 m 0,-0.01 0.8,1.69 m 4.89,-7.11 -0.14,-0.31 m 0,0.01 -0.28,-0.64 -0.07,-0.2 m 0,0 -0.11,-0.32 -0.08,-0.21 v 0 m 0.68,1.67 0.8,1.19 0.51,0.42 0.62,0.24 0.57,-0.01 0.62,-0.24 0.83,-0.7 0.34,-0.43 m 0.45,-1.55 0.12,-0.04 0.07,0.09 0.01,0.2 -0.07,0.28 -0.22,0.46 -0.18,0.29 m 0.01,-0.01 -0.2,0.28 m 3.26,8 1.04,-1.49 m 0,0 0.55,-0.79 m 1.11,7.79 -0.06,-0.04 -0.22,-0.16 -0.46,-0.36 -0.33,-0.28 m -1.28,-1.13 1.29,1.13 m -6.47,4.5 -1,-0.88 m 1,0.88 0.74,0.69 0.25,0.26 0.16,0.16 v 0 m -239.71,30.88 -0.03,0.08 0.07,0.26 0.25,0.32 0.39,0.32 0.47,0.29 0.48,0.2 m 0,0 0.42,0.09 0.29,-0.04 0.1,-0.09 m 324.16,36.92 0.03,0.03 0.06,0.25 -0.09,0.37 -0.24,0.43 -0.34,0.43 -0.4,0.36 m 0,0.01 -0.39,0.24 -0.32,0.08 -0.18,-0.06 M 199.83,499.58 h -0.05 l -0.25,0.13 -0.23,0.32 -0.17,0.47 -0.09,0.54 0.01,0.54 0.1,0.45 0.18,0.29 0.18,0.09 m 397.64,-75.62 0.03,0.03 0.06,0.25 -0.09,0.37 -0.24,0.43 -0.34,0.43 -0.4,0.36 m 0,0.01 -0.39,0.24 -0.32,0.08 -0.18,-0.06 M 379.7,319.41 l -0.12,-1.66 -0.49,-1.72 -0.73,-1.46 -0.13,-0.18 m -4.84,0.09 -0.67,1.18 -0.56,1.67 -0.23,1.8 0.02,0.27 m 13.3,13.14 -0.74,-0.49 -1.97,-1.63 -1.7,-1.83 -1.19,-1.66 m -7.65,1.73 -0.7,1.34 -1.59,2.51 -1.89,2.37 -0.11,0.12 m 26.02,6.29 1.88,0.06 1.95,-0.3 1.61,-0.54 m 0.53,-4.98 -1.16,-0.75 -1.81,-0.76 -1.94,-0.43 -0.22,-0.01 m -25.87,9.63 0.41,0.04 m 2.15,-10.18 -0.17,0.21 -0.47,0.29 m -13.26,6.43 -1.71,1.01 -1.5,1.3 -1.02,1.25 m 2.2,4.52 1.46,0.01 1.95,-0.34 1.88,-0.68 0.11,-0.07 m 18.99,-19.94 0.01,-7.65 m -7.8,-0.01 -0.01,9.53 m 22.65,4.63 -12.73,-1.4 m 5.66,8.47 6.23,0.68 m -5.4,14.77 0.01,-1.49 -0.33,-1.96 -0.68,-1.89 -0.05,-0.08 m -7.02,3.33 1.02,1.76 1.29,1.51 1.19,0.99 m -23.02,-11.24 7.99,-3.85 m 1.85,-9.54 -13.22,6.37 m 19.11,5.97 3.78,8.03 m 7.05,-3.32 -2.75,-5.84 m 126.74,-10.99 -0.12,-1.66 -0.49,-1.73 -0.73,-1.46 -0.13,-0.17 m -4.79,0.01 -0.72,1.27 -0.56,1.67 -0.23,1.8 0.02,0.27 m 14.23,30.24 0.86,0.74 1.68,0.95 1.68,0.57 0.56,0.09 m 3.23,-3.69 -0.22,-0.73 -0.84,-1.63 -1.16,-1.48 -0.71,-0.61 m -9.11,-8.05 -1.37,-2.69 -1.07,-2.57 m -7.53,-4.27 -0.68,0.85 -1.61,1.53 -1.9,1.27 -1.22,0.59 m 13.86,3.93 -0.57,-0.71 -0.33,-1.05 0.01,-0.19 m -13.99,10.15 0.03,0.14 v 0.4 m 14.37,1.24 5.99,5.26 m 5.15,-5.86 -10.62,-9.33 m -15.57,5.85 0.01,0.02 0.46,1.3 0.15,0.97 m -2.47,-4.67 1.02,1.03 0.76,1.2 0.06,0.16 m 5.56,-9.42 v 0 m 1.28,-11.54 -0.01,7.2 m 7.79,5.8 0.01,-12.99 m -11.08,33.14 5.47,-7.86 m -8.29,-1.74 -3.58,5.14 m -10.28,-12.74 1.12,0.73 1.81,0.76 1.94,0.43 0.23,0.01 m 0.84,-7.72 -1.89,-0.06 -1.95,0.29 -1.6,0.54 m 12.02,25.74 1.16,-0.61 1.53,-1.2 1.3,-1.47 0.15,-0.26 m -6.36,-4.42 -0.92,1.54 -0.67,1.83 -0.31,1.74 m 10.28,-22.28 -12.73,-1.4 m -0.86,7.75 6.32,0.69 m -244.64,26.17 -0.48,-0.54 -1.46,-1.06 -1.5,-0.68 -1.03,-0.25 m -3.37,3.19 0.07,0.63 0.51,1.56 0.85,1.51 0.8,0.9 m 5.31,5.73 0.21,0.96 0.34,2.51 0.06,2.59 -0.11,1.47 m -4.78,8.28 -0.69,1.32 -0.55,1.84 -0.19,1.77 0.02,0.24 m 4.28,2.46 0.91,-0.53 1.42,-1.22 1.2,-1.49 0.26,-0.5 m 2.45,-4.77 0.28,-0.08 1.51,-0.17 0.65,0.09 m 5.61,-18.85 -0.74,0.02 -2.79,-0.17 -2.66,-0.5 -0.75,-0.21 m 1.34,19.66 0.22,0.02 1.54,0.41 0.41,0.21 m -7.28,-12.75 0.2,0.8 -0.12,0.97 -0.22,0.46 m 13.62,5.25 0.06,-1.14 0.41,-2.11 0.63,-1.88 0.96,-1.92 0.81,-1.19 m -23.87,-7.54 5.85,6.24 m 5.74,-5.29 -5.9,-6.29 m 9.3,8.5 -0.19,0.07 -0.19,0.03 m -7.23,7.33 -6.35,10.89 m 6.74,3.92 2.85,-4.88 m 14.06,3.08 -3.77,-8 m -6.85,3.75 0.28,0.59 m 0,0 3.29,6.99 m 8.08,2.1 0.01,-1.51 -0.33,-1.96 -0.68,-1.89 -0.04,-0.08 m -7.03,3.33 1.02,1.76 1.29,1.51 1.2,1 m 2.53,-23.55 7.97,-3.84 m -3.38,-7.03 -13.22,6.37 m 18.61,-7.43 -1.45,-0.01 -1.95,0.34 -1.88,0.68 -0.11,0.07 m 3.38,6.99 1.71,-1.01 1.5,-1.3 1.01,-1.24 m 33.21,146.36 0.04,0.44 0.57,1.84 0.84,1.56 0.75,0.94 m 4.8,-0.74 0.08,-0.14 0.51,-1.66 0.2,-1.81 -0.15,-1.61 m -22.7,-21.38 -0.78,-0.11 -1.92,0.13 -1.72,0.45 -0.8,0.37 m -0.53,4.85 0.35,0.29 1.55,0.89 1.75,0.6 1.27,0.17 m 6.15,-7.1 -0.21,0.18 m 2.84,7.93 0.75,0.5 2.03,1.64 1.83,1.86 1.15,1.44 m -6.95,-15.3 -0.11,0.21 -0.98,1.23 -0.38,0.31 m 2.41,-4.3 -0.06,0.33 -0.52,1.55 -0.39,0.66 m 14.53,13.61 0.53,-1.34 1.32,-2.54 1.66,-2.39 0.28,-0.34 m -14.21,3.2 0.79,0.21 0.83,0.56 0.6,0.86 0.05,0.18 m 0,0 0.16,0.55 m 5.67,-14.55 -0.87,-0.33 -1.84,-1 -0.61,-0.45 m -2.34,16.33 0.28,1.79 m 0,0 1.47,9.44 m 7.7,-1.2 -1.45,-9.32 m -22.12,-4.35 11.63,1.27 m -5.43,-8.44 -5.35,-0.58 m 11.88,-12.87 -1.02,-1.76 -1.29,-1.51 -1.21,-1 m -4.55,2.16 -0.01,1.51 0.33,1.96 0.68,1.89 0.04,0.07 m 31.96,2.59 -1.46,-0.01 -1.95,0.34 -1.88,0.68 -0.12,0.07 m 3.38,7 1.71,-1.01 1.5,-1.3 1.01,-1.23 m -23.34,-2.45 -3.77,-8 m -7.05,3.33 3.32,7.05 m 0,-0.01 0.25,0.53 m 22.99,-3.92 -7.97,3.84 m 0.24,8.53 11.11,-5.35 m 109.86,-38.03 0.86,0.74 1.68,0.95 1.68,0.57 0.57,0.09 m 3.22,-3.69 -0.22,-0.72 -0.85,-1.63 -1.16,-1.48 -0.71,-0.61 m -6.16,-5.41 -0.37,-1.25 -0.47,-2.54 -0.13,-2.6 0.15,-2.15 m -9.88,-7.14 -0.29,-0.13 m 15.26,0.1 0.92,-1.54 0.67,-1.84 0.31,-1.73 m -4.1,-2.85 -1.17,0.62 -1.53,1.2 -1.3,1.47 -0.15,0.26 m -3.39,4.91 -0.33,0.08 -1.7,0.16 -0.77,-0.09 m -6.15,18.83 1.24,-0.03 3.05,0.2 2.98,0.54 0.86,0.22 m -1.98,-19.73 -0.25,-0.02 -1.69,-0.43 -0.47,-0.22 m -17.05,17.25 -1.71,1.01 -1.5,1.3 -1.02,1.25 m 2.21,4.52 1.45,0.01 1.95,-0.34 1.88,-0.68 0.12,-0.07 m 10.63,-30.14 -1.02,-1.76 -1.29,-1.51 -1.2,-0.99 m -4.57,2.14 -0.01,1.51 0.33,1.96 0.68,1.89 0.05,0.08 m 0.98,15.97 -7.97,3.84 m 3.39,7.02 11.2,-5.4 m -7.62,-21.43 3.79,8.03 m 6.02,-5.51 -2.75,-5.84 m 12.56,13.71 5.44,-7.81 m -6.39,-4.46 -3.57,5.13 m 11.87,20.39 -6.24,-5.48 m -6.38,4.78 7.47,6.56 m -163.26,-87.87 74.61,-35.94 m -1.24,-2.55 -74.6,35.94 m -33.87,31 -48.83,83.74 m 2.46,1.43 48.83,-83.74 m 58.6,78.06 -36.61,-77.7 m -2.57,1.21 36.61,77.7 m 107.15,-26.32 -74.6,35.94 m 1.22,2.55 74.61,-35.94 m 35.97,-30.54 47.45,-68.15 m -2.33,-1.62 -47.45,68.15 m 77.27,97.32 -71.58,-62.86 m -1.87,2.13 71.58,62.86 M 292.71,509.7 199.83,499.58 m -0.31,2.82 92.88,10.12 m 131.55,-78.26 -36.61,-77.7 m -2.57,1.21 36.61,77.7 m 62.6,-89.61 -84.06,-9.22 m -0.31,2.82 84.06,9.22 m 113.48,78.11 -71.58,-62.86 m -1.87,2.12 71.58,62.86"
         class="st0"
         inkscape:connector-curvature="0"
         style="fill:none;stroke:#000000;stroke-width:0.70899999;stroke-linecap:round;stroke-linejoin:round;stroke-miterlimit:10" />
      <path
         id="path6781"
         d="m 387.25,215.26 -0.27,0.96 -0.71,1.15 -1.02,0.82 -1.2,0.39 -0.93,-0.02 m -1.64,-2.26 -0.64,0.22 -1.32,0.32 -1.44,0.2 -1.52,0.08 m -17.1,-9.81 -0.61,0.24 -0.59,0.69 -0.49,1.06 -0.33,1.29 -0.13,1.37 0.09,1.27 0.29,1.02 0.46,0.63 0.4,0.17 m 18.01,2.07 1.88,-0.28 m 16.39,-2.94 0.09,-0.2 0.02,-0.65 -0.08,-1.02 -0.17,-1.27 -0.24,-1.35 -0.28,-1.27 -0.28,-1.03 -0.25,-0.67 -0.19,-0.21 m -21.53,1.33 -1.54,1.11 -2.75,0.71 m -0.27,1.06 0.7,-0.17 0.67,-0.2 0.64,-0.23 0.61,-0.25 0.57,-0.28 0.54,-0.3 0.5,-0.33 0.33,-0.25 m -4.76,0.15 2.17,-0.67 1.86,-0.72 0.73,-0.37 m 7.8,-1.08 0.94,0.38 2.48,0.76 1.8,0.46 1.42,0.33 m -14.43,-4.04 0.03,0.43 0.41,1.12 0.84,0.93 1.17,0.62 1.35,0.24 1.36,-0.18 1.2,-0.57 0.9,-0.89 0.48,-1.1 0.06,-0.59 m 114.66,-7.6 0.56,0.81 0.99,0.85 1.13,0.44 1.12,-0.02 0.43,-0.15 m 9.53,-4.46 0.14,-0.02 0.14,-0.02 0.14,-0.03 0.14,-0.04 0.13,-0.05 0.13,-0.05 0.02,-0.01 m 9.65,-14.54 0.9,-0.03 0.99,0.41 0.96,0.8 0.82,1.09 0.57,1.24 0.25,1.24 -0.1,1.08 -0.44,0.8 -0.31,0.25 m -12.19,6.53 -0.07,0.18 -0.08,0.16 -0.09,0.15 -0.1,0.14 -0.11,0.12 -0.12,0.11 -0.14,0.09 -0.01,0.01 m -1.22,0.39 -1.76,0.51 -1.73,0.36 -1.64,0.21 -0.82,0.05 m 9.11,-10.73 0.3,0.09 0.44,0.1 0.47,0.06 0.49,0.02 0.52,-0.01 0.54,-0.05 m -0.66,2.05 h -0.32 l -0.31,-0.01 -0.3,-0.03 -0.29,-0.04 -0.28,-0.06 -0.27,-0.07 -0.26,-0.08 -0.08,-0.03 m 1.92,-2.7 -1.91,0.24 m 0,-0.92 1.79,-0.01 m -23.34,14.41 0.09,-0.2 0.02,-0.65 -0.08,-1.02 -0.17,-1.27 -0.24,-1.35 -0.28,-1.27 -0.28,-1.03 -0.25,-0.66 -0.18,-0.21 m 17.76,4.72 2,-0.42 m -12.37,-5.47 1.65,-1.05 1.49,-0.99 1.45,-0.99 0.55,-0.39 0.98,-0.71 1.2,-0.92 0.42,-0.35 m 6.57,9.52 0.47,-0.92 0.36,-0.97 0.25,-0.99 0.12,-0.97 0.01,-0.39 m 0.02,-7.88 -0.01,0.22 -0.33,1.14 -0.78,0.97 -1.12,0.68 -1.33,0.3 -1.37,-0.11 -1.24,-0.51 -0.96,-0.85 -0.55,-1.08 -0.11,-0.78 m -256.84,14.3 -0.55,-0.58 -0.44,-1.07 -0.02,-1.25 0.13,-0.57 m 19.37,12.41 0.57,0.04 1.02,-0.17 m -11.28,-2 -0.09,-0.07 -0.11,-0.1 -0.1,-0.1 m 0,-0.01 -0.92,-0.91 -0.5,-0.59 m 3.93,2.6 -0.35,-0.05 m 17.7,-5.55 -0.61,0.24 -0.59,0.69 -0.49,1.06 -0.33,1.29 -0.13,1.36 0.09,1.27 0.29,1.01 0.46,0.63 0.4,0.17 m -19.46,-3.74 0.51,0.52 m -4.82,-16.53 0.36,0.7 -0.01,0.97 -0.4,1.1 -0.75,1.09 -1.01,0.94 -1.13,0.67 -1.12,0.32 -0.97,-0.06 -0.65,-0.39 m 69.14,8.29 0.21,-0.54 0.76,-0.95 1.11,-0.63 1.31,-0.24 m 2.27,0.59 1.05,0.84 0.68,1.09 0.23,1.21 -0.12,0.79 m -21.43,-3.25 -0.33,0.89 -0.49,1.13 -0.59,1.23 -0.61,1.18 -0.26,0.47 m 9.83,-1.53 -0.45,0.35 -0.44,0.37 -0.43,0.38 -0.42,0.4 -0.4,0.41 -0.39,0.43 -0.11,0.13 m 25.3,3.1 -1.5,-0.42 -0.46,-0.06 -0.12,0.03 -0.01,0.01 -0.04,0.03 -0.02,0.05 -0.01,0.07 0.01,0.09 0.04,0.13 m -18.84,-4.8 -0.5,0.35 -0.48,0.38 -0.47,0.4 -0.05,0.04 m 23.64,11.82 -0.23,-0.07 -0.5,-0.5 -0.35,-0.91 -0.15,-1.21 0.06,-1.35 0.18,-1 m -2.51,-3.19 v -0.08 l 0.02,-0.12 0.04,-0.1 0.05,-0.07 0.06,-0.06 0.01,-0.01 0.15,-0.08 0.23,-0.03 m -17.21,-2.47 v 0 0 l 0.08,0.08 0.03,0.11 v 0.07 l -0.01,0.09 -0.02,0.1 -0.05,0.16 -0.11,0.25 m -1.91,-2.6 0.32,0.46 0.02,0.17 -0.02,0.06 m 1.47,1.88 0.19,-0.3 0.05,-0.11 0.02,-0.06 0.01,-0.05 v -0.04 l -0.04,-0.05 -0.08,-0.03 h -0.16 l -0.33,0.03 -0.45,0.06 m 4.22,8.77 0.13,0.02 m -8.1,-1.39 0.57,0.05 1.23,-0.25 1.09,-0.7 0.81,-1.07 0.43,-1.3 0.06,-0.75 m 137.51,8.51 -0.01,-0.02 -0.75,-1.15 -0.93,-0.9 -1,-0.54 m 2.89,6.4 0.19,-0.33 0.17,-0.6 m -33.55,0.97 0.15,-0.31 0.56,-0.82 m -0.11,7.33 -0.23,-0.07 -0.5,-0.5 -0.35,-0.91 -0.15,-1.21 0.01,-0.75 m 17.95,5.61 -0.89,-0.15 m 2.17,0.06 0.14,-0.02 0.14,-0.02 0.14,-0.03 0.14,-0.04 0.14,-0.04 0.13,-0.05 0.02,-0.01 m 6.74,-11.52 -0.75,0.84 -0.41,1.15 -0.01,1.31 0.39,1.31 0.74,1.15 0.99,0.85 1.13,0.44 1.12,-0.03 0.43,-0.15 m -19.13,-4.09 1.14,0.5 0.9,0.91 0.55,1.21 0.13,1.36 -0.31,1.34 -0.71,1.15 -1.02,0.82 -1.2,0.39 -0.94,-0.02 m -67.12,-18.37 9.69,-1.04 m 0,0 1.27,-0.16 m -3.86,1.85 1.42,-0.92 1.18,-0.77 m -9.7,1.04 2.22,0.02 m -5.16,0.76 -0.39,0.32 -0.39,0.67 -0.27,0.9 -0.12,0.99 0.05,0.93 0.22,0.73 0.27,0.36 m 36.98,-7.11 1.08,0.04 m 4.15,0.16 -4.15,-0.16 m 2.78,0.19 -0.79,-0.02 -2.65,-0.03 -0.73,0.08 -0.12,0.04 -0.1,0.07 -0.05,0.06 -0.02,0.07 0.01,0.1 0.08,0.18 0.1,0.15 m -14.95,10.43 h -0.02 m 1.3,-0.1 -0.16,0.04 -0.16,0.03 -0.16,0.02 -0.16,0.02 -0.16,0.01 h -0.16 l -0.16,-0.01 -0.16,-0.02 m 20.59,-11.15 -1.37,0.03 m 0,0 -1.04,0.14 m 6.4,5.4 0.02,-0.03 0.04,-0.34 -0.04,-0.67 -0.11,-0.89 -0.17,-0.98 -0.2,-0.92 -0.2,-0.72 -0.17,-0.4 -0.07,-0.07 m -24.47,9.88 0.08,0.15 0.09,0.13 0.09,0.12 0.1,0.1 0.1,0.08 0.11,0.07 0.11,0.05 0.11,0.03 m -9.88,-9.13 -1.07,-0.15 m -4.87,-0.63 4.88,0.63 m 25.88,-1.13 3.24,-0.58 m -3.24,0.58 -0.25,0.05 m -13.41,10.26 0.01,-0.04 0.01,-0.05 0.01,-0.05 0.01,-0.06 0.01,-0.07 v -0.08 -0.08 -0.09 m -7.61,-4.52 1.3,0.17 m 0,0 0.72,0.02 0.56,-0.15 0.29,-0.29 0.07,-0.32 m 2.55,4.98 -0.98,-0.57 -0.9,-0.66 -0.8,-0.72 -0.66,-0.76 -0.51,-0.77 -0.33,-0.76 m 11.74,-0.27 -0.52,0.82 -0.71,0.84 -0.88,0.83 -1.02,0.79 -1.12,0.73 -1.19,0.64 m -9.25,-6.19 0.17,-0.35 0.11,-0.44 v -0.27 m 16.24,2.27 -1.83,0.33 m -2.47,-0.86 0.13,0.46 0.34,0.29 0.55,0.17 0.63,0.03 0.81,-0.09 m -14.41,-2.61 -0.28,-0.62 -0.2,-0.17 m 1.85,3.5 -1.02,-0.3 -0.4,-0.27 -0.28,-0.39 -0.06,-0.28 0.05,-0.29 0.06,-0.12 m 4.6,0.33 -0.32,0.2 -0.34,0.19 -0.35,0.18 -0.36,0.17 -0.38,0.16 -0.39,0.15 -0.4,0.14 -0.41,0.13 m 16.37,-2.65 0.14,0.48 m -1.63,1.74 -0.61,-0.13 -0.59,-0.15 -0.57,-0.17 -0.55,-0.18 -0.53,-0.2 -0.51,-0.21 -0.48,-0.23 -0.46,-0.24 m 5.93,-0.23 0.07,0.31 -0.05,0.32 -0.15,0.3 -0.35,0.35 -0.67,0.34 -0.46,0.12 m -4.21,-3.78 0.56,0.36 0.61,0.33 0.66,0.3 0.71,0.27 0.76,0.24 0.8,0.21 0.84,0.18 0.88,0.14 m -13.58,-4.7 -1.13,0.4 -2.6,0.48 m 0,0.01 v 0 l -1.03,0.7 -1.12,0.84 -0.65,0.46 m 0,0 1.23,0.26 0.53,0.23 m 18.21,0.85 -1.7,-0.01 -1.65,-0.39 -2.46,-1.67 m 6.79,0.32 -0.71,0.51 -0.26,0.57 -0.01,0.68 m -5.65,-4.73 1.96,0.46 2.67,0.33 2.89,0.2 3.39,0.16 m -0.66,0.99 -2.32,0.44 -0.88,0.23 -0.42,0.16 m 3.62,-0.83 -0.03,-0.1 -0.04,-0.25 0.02,-0.14 0.04,-0.11 0.06,-0.09 0.12,-0.11 0.13,-0.07 0.36,-0.11 m -18.71,3.54 v 0.26 l 0.02,0.62 0.01,0.47 m 0,0.75 v -0.76 m 0,0.76 0.15,0.84 0.28,0.88 0.39,0.88 0.49,0.86 0.58,0.8 0.64,0.72 m 0.01,0 0.26,0.07 0.26,0.06 0.27,0.04 0.27,0.02 0.27,0.01 0.27,-0.01 0.27,-0.02 0.27,-0.04 m -0.02,0 0.68,-0.82 0.63,-0.9 0.56,-0.95 0.47,-0.97 0.37,-0.96 0.25,-0.91 m 0.01,-0.96 v 0.97 m 0,-0.97 0.05,-0.71 0.04,-0.42 0.04,-0.49 v -0.24 m -5.27,-7.18 0.22,0.43 0.4,0.33 0.51,0.18 0.55,-0.01 0.51,-0.19 0.39,-0.34 0.21,-0.44 -0.01,-0.47 -0.22,-0.43 -0.4,-0.33 -0.51,-0.18 h -0.55 l -0.51,0.19 -0.39,0.34 -0.21,0.44 0.01,0.48 m -1.11,0.2 0.39,0.78 0.71,0.6 0.92,0.32 0.99,-0.01 0.92,-0.33 0.7,-0.61 0.37,-0.79 -0.01,-0.85 -0.39,-0.78 -0.71,-0.6 -0.92,-0.32 -0.99,0.01 -0.92,0.33 -0.7,0.61 -0.37,0.79 0.01,0.85 m 118.83,-4.87 0.15,0.32 0.59,0.78 0.61,0.43 m 29.85,-20.2 0.07,0.01 0.72,0.28 0.69,0.59 0.57,0.81 m 0,0.01 0.35,0.91 0.08,0.87 -0.13,0.56 m -5.25,-3.81 -7.28,1.91 m 5.46,-1.16 1.82,-0.75 m -7.46,1.96 0.18,-0.05 m 0,0 -0.01,0.04 -0.03,0.08 -0.01,0.04 0.01,0.03 0.02,0.03 0.06,0.06 0.18,0.1 0.37,0.16 1.21,0.43 m -25.26,7.47 1.83,-0.77 m 27.09,-8.83 -3.66,2.13 m 0,0 -0.58,0.35 m -2,5.52 1,-0.58 m -2.1,0.77 0.23,0.11 0.43,-0.08 0.44,-0.21 m 0,-0.01 v 0.82 l -0.17,0.89 -0.33,0.94 -0.48,0.95 -0.61,0.93 -0.73,0.88 m -24.01,-2.28 3.64,-1.52 m 2.17,0.21 0.04,-0.09 0.14,-0.46 v -0.11 l -0.02,-0.06 -0.04,-0.05 -0.05,-0.03 -0.14,-0.02 -0.2,0.02 -0.34,0.08 -0.66,0.2 -0.89,0.29 m 23.5,-5.19 0.28,0.43 0.36,0.37 0.21,0.17 m 0,0 0.21,0.22 0.12,0.26 0.02,0.27 -0.11,0.4 -0.39,0.53 -0.51,0.38 m -0.31,-3.72 0.11,0.69 m -29.36,12.26 0.09,0.34 0.19,0.54 0.14,0.19 0.07,-0.19 -0.01,-0.55 -0.08,-0.82 -0.15,-0.96 -0.19,-0.96 -0.21,-0.81 -0.19,-0.54 -0.14,-0.19 -0.07,0.19 0.01,0.54 0.04,0.42 m 5.03,-3.41 -1.71,0.45 -0.59,0.23 m 26.92,-9.92 -1.68,0.36 m 1.78,2.14 0.12,-0.27 0.87,-0.76 0.31,-0.2 m 0,0 -0.69,-0.35 -0.39,-0.28 -0.2,-0.23 -0.08,-0.16 -0.03,-0.09 -0.01,-0.09 v -0.08 m -11.1,10.53 0.9,-0.23 0.67,-0.3 0.51,-0.39 0.28,-0.39 0.11,-0.45 m -6.51,1.04 0.88,-0.46 0.84,-0.48 0.8,-0.5 0.76,-0.51 0.71,-0.53 0.67,-0.54 0.61,-0.55 0.56,-0.56 m 0.69,2.13 -0.46,0.41 -0.48,0.4 -0.51,0.39 -0.53,0.39 -0.55,0.38 -0.57,0.37 -0.6,0.36 -0.61,0.35 m -7.8,-2.31 -0.39,0.07 m 0,0 -3.49,0.63 m 19.76,4.31 0.01,-0.04 0.01,-0.04 0.01,-0.05 0.01,-0.06 0.01,-0.07 v -0.07 -0.08 -0.09 m 0,0 -1.21,-0.21 -1.2,-0.31 -1.15,-0.4 -1.05,-0.48 -0.93,-0.54 -0.77,-0.59 m 0.01,0 -1.83,0.33 m 0,0 -1.08,0.01 -0.47,-0.16 -0.4,-0.3 -0.18,-0.28 -0.08,-0.33 m -0.1,-0.46 0.09,0.46 m -0.09,-0.46 -0.37,-0.65 -0.57,-0.41 -0.74,-0.18 -0.3,-0.02 m 7.78,-2.85 -1.31,1.62 -1.09,0.93 -3.4,1.56 m -13.69,6.08 0.04,-0.11 v -0.3 l -0.05,-0.45 -0.08,-0.53 -0.11,-0.53 -0.11,-0.45 -0.1,-0.3 -0.08,-0.11 v 0 m 7.97,-5 5.47,-2.42 2.29,-1.17 1.8,-1.11 1.3,-1.08 0.9,-1.09 0.21,-0.45 m -11.97,7.32 v 0 h 0.02 l 0.24,0.02 0.18,0.07 0.08,0.05 0.07,0.07 0.06,0.09 0.05,0.16 0.02,0.46 m 3.51,-0.47 v 0 l -1.16,0.08 -2.35,0.38 m 11.27,-3.92 0.02,0.6 m 0,0 0.12,0.44 m 0,0.01 0.12,0.28 0.14,0.32 0.13,0.31 0.16,0.42 0.13,0.53 0.02,0.27 m -0.01,0.97 v -0.97 m 0,0.97 0.5,0.78 0.58,0.79 0.65,0.77 0.69,0.72 0.71,0.66 0.71,0.57 m 1.88,-0.86 -0.2,0.15 -0.21,0.14 -0.22,0.13 -0.23,0.11 -0.24,0.1 -0.25,0.09 -0.26,0.07 -0.26,0.05 m -1.78,-16.63 0.47,-0.25 0.55,-0.08 0.54,0.1 0.45,0.27 0.3,0.4 0.1,0.47 -0.12,0.46 -0.32,0.39 -0.47,0.25 -0.55,0.08 -0.54,-0.1 -0.45,-0.27 -0.29,-0.4 -0.1,-0.47 0.12,-0.46 0.31,-0.39 m -0.78,-0.7 0.84,-0.45 0.98,-0.15 0.97,0.19 0.81,0.49 0.53,0.72 0.17,0.84 -0.22,0.83 -0.57,0.7 -0.84,0.45 -0.98,0.14 -0.97,-0.19 -0.81,-0.49 -0.53,-0.72 -0.17,-0.84 0.22,-0.83 0.57,-0.69 m -261.36,14.08 0.05,-0.49 m 12.85,12.63 0.13,0.02 m 12.16,-8.05 0.19,0.08 m -12.18,2.72 0.57,0.49 0.74,0.42 0.74,0.26 0.61,0.12 m -4.35,-10.68 0.98,0.58 m 20.34,9.04 -7.45,-2.95 m 0,-0.01 -0.04,0.03 -0.09,0.04 -0.04,0.02 -0.02,0.03 -0.01,0.03 v 0.08 l 0.05,0.18 0.16,0.34 0.59,1.05 m -5.59,0.18 -4.36,-1.52 -3.85,-2.35 m -0.23,1.26 0.89,0.52 0.91,0.51 0.93,0.49 0.95,0.47 0.96,0.45 0.97,0.44 0.98,0.42 0.99,0.39 m -2.37,1.13 -0.61,-0.27 -0.61,-0.27 -0.6,-0.28 -0.6,-0.29 -0.59,-0.29 -0.59,-0.3 -0.58,-0.31 -0.58,-0.32 m 18.34,0.56 -4.76,-0.62 m 0,0 -0.86,-0.11 m -3.37,-0.11 -1.35,0.41 m -0.01,-0.01 -0.54,0.41 -0.27,0.44 -0.06,0.24 m 0.01,0 -0.09,0.27 -0.17,0.26 -0.22,0.21 -0.42,0.24 -0.74,0.16 -0.72,-0.02 m -1.32,-0.17 1.3,0.17 m -1.3,-0.17 -0.52,0.65 -0.58,0.63 -0.62,0.59 -0.64,0.53 -0.64,0.46 -0.61,0.36 m 0,0.01 0.08,0.15 0.09,0.13 0.09,0.12 0.1,0.1 0.1,0.08 0.11,0.07 0.11,0.05 0.11,0.03 m 22.28,-2.47 -0.23,0.07 -0.24,0.27 -0.19,0.43 -0.12,0.53 m -0.01,0 -0.03,0.55 0.07,0.48 0.15,0.34 0.22,0.15 h 0.01 m -9.75,-8.4 -3.67,-1.52 -3.47,-1.56 -3.16,-1.6 -2.4,-1.34 m 9.26,7.67 0.69,-0.05 2.13,0.11 0.56,0.06 m -0.01,0 -0.21,-0.67 -0.04,-0.43 0.06,-0.29 0.08,-0.17 0.06,-0.08 0.06,-0.07 0.07,-0.06 m -12.7,-6.01 v 0 l -0.99,0.13 -1.09,0.23 -0.62,0.1 m 1.7,2.09 2.48,1.18 2.65,1.3 2.54,1.31 2.57,1.32 m 14.47,4.05 -0.08,-0.37 -0.28,-0.61 -0.39,-0.26 -0.44,0.12 -0.43,0.49 -0.35,0.78 -0.22,0.95 m 0.02,0 -0.05,0.98 0.12,0.86 0.28,0.61 0.39,0.26 0.44,-0.12 0.43,-0.49 0.2,-0.39 m -5.11,-6.02 2.09,0.54 m -28.29,-13.81 6.97,4.19 m -2.47,0.23 1.35,-0.13 1.12,-0.11 m 0.73,13.92 -0.2,0.01 h -0.19 l -0.19,-0.02 -0.18,-0.03 -0.17,-0.05 -0.16,-0.06 -0.14,-0.08 -0.13,-0.09 m 1.36,0.32 0.07,-0.63 0.11,-0.71 0.15,-0.77 0.18,-0.81 0.21,-0.81 0.23,-0.79 m -0.79,-0.86 0.8,0.86 m -0.8,-0.86 -0.54,-0.81 -0.14,-0.46 -0.02,-0.53 0.06,-0.31 0.12,-0.28 0.07,-0.1 m 0,-0.01 0.17,-0.33 0.09,-0.52 -0.03,-0.4 m 0.01,0 -0.42,-1.21 -0.26,-0.45 m -1.72,-2.08 1.12,1.27 0.59,0.81 m -1.71,-2.08 -0.76,-0.81 m -3,-3.21 0.03,0.04 m -1.52,-1.25 1.49,1.21 m -4.91,-2.52 0.68,0.09 0.44,0.39 0.14,0.63 -0.18,0.77 -0.48,0.8 -0.7,0.7 -0.82,0.5 -0.81,0.22 -0.68,-0.09 -0.44,-0.39 -0.14,-0.63 0.18,-0.77 0.48,-0.8 0.7,-0.7 0.82,-0.5 0.81,-0.22 m -0.38,0.91 0.38,0.05 0.24,0.21 0.08,0.35 -0.1,0.43 -0.27,0.44 -0.39,0.39 -0.45,0.28 -0.45,0.12 -0.38,-0.05 -0.25,-0.21 -0.08,-0.35 0.1,-0.43 0.27,-0.44 0.39,-0.39 0.45,-0.28 0.46,-0.12 m 74.44,13.5 0.27,-0.91 m -0.27,0.91 -0.51,1.77 m -24.87,-1.87 0.01,0.02 -0.03,0.17 -0.12,0.34 -0.19,0.45 -0.24,0.5 -0.25,0.47 m 0.01,-0.01 -0.22,0.36 -0.15,0.21 -0.06,0.03 m 11.56,4.04 0.34,-0.66 0.16,-0.79 -0.12,-0.77 -0.45,-0.77 m -6.69,-3.63 0.82,0.23 m -4.57,-0.28 0.3,-0.5 0.28,-0.37 0.12,-0.03 -0.05,0.31 -0.21,0.61 -0.35,0.81 -0.43,0.89 -0.44,0.84 m 0,0.01 -0.39,0.66 -0.28,0.37 -0.12,0.03 0.05,-0.31 0.21,-0.61 0.07,-0.16 m 22.67,11.05 0.52,0.08 0.6,0.09 0.73,0.1 0.7,0.1 0.79,0.1 m 1.67,0.23 -0.76,-0.11 -0.75,-0.11 -0.74,-0.1 -0.73,-0.11 -0.72,-0.1 -0.71,-0.1 -0.7,-0.1 -0.68,-0.1 m -0.29,-1.5 0.89,0.13 0.93,0.14 0.96,0.14 0.98,0.14 1,0.14 1.02,0.14 1.03,0.15 1.04,0.15 m 0.06,-0.55 -2.46,0.05 -1.62,-0.14 -3.73,-1.03 m 22.03,4.66 -0.14,-0.06 -0.18,-0.26 -0.11,-0.43 -0.01,-0.53 0.08,-0.55 0.17,-0.48 0.06,-0.12 m -13.81,-1.79 -0.28,0.68 m 0,0 -0.05,0.54 m 0,0 -0.03,0.34 -0.12,0.31 -0.19,0.24 -0.37,0.23 -0.64,0.11 -0.43,-0.02 m -1.68,-0.22 1.68,0.22 m -1.68,-0.22 -0.51,0.55 -0.61,0.46 -0.7,0.35 -0.76,0.23 -0.8,0.1 -0.8,-0.03 m 22.82,0.47 -0.05,0.11 -0.4,0.62 -0.44,0.28 -0.42,-0.11 -0.33,-0.48 -0.19,-0.77 -0.02,-0.95 0.15,-0.98 0.09,-0.33 m -29.47,-6.89 0.65,-0.19 m 0.56,-2.28 1.11,0.35 0.61,0.34 m -2.27,1.67 -0.01,-0.08 m -8.43,-6.28 0.03,0.04 m 1.41,0.59 -1.41,-0.58 m 1.41,0.58 2.61,1.38 0.9,0.58 0.9,0.78 0.07,0.08 m -0.01,-0.01 1.01,0.15 1.52,0.28 0.55,0.13 m 7.05,11.5 0.12,-0.07 0.14,-0.2 0.14,-0.32 0.15,-0.43 0.15,-0.52 0.14,-0.6 m 0.01,0 -0.8,-0.14 m 0.01,0.01 -0.36,-0.23 -0.07,-0.24 0.01,-0.36 0.06,-0.31 0.09,-0.35 m 0.08,-0.55 -0.09,0.54 m 0.09,-0.54 -0.06,-0.62 m 2.78,-10.86 -0.4,0.92 -0.58,0.78 -0.46,0.37 -0.53,0.27 -0.67,0.18 -0.8,0.07 -2.05,-0.13 -2.66,-0.43 -2.84,-0.6 -3.31,-0.77 m 0.01,-0.01 -1.05,-0.25 m -4.05,-0.97 4.04,0.98 m -2.9,-0.64 -0.54,-0.18 -0.6,-0.16 m 1.65,0.57 -0.51,-0.23 m 0.68,0.35 -0.17,-0.12 m 0.23,0.22 -0.01,-0.05 -0.05,-0.06 m -0.02,0.18 0.06,-0.03 0.02,-0.04 m -0.27,0.11 0.19,-0.03 m -0.72,0 0.53,0.02 m -1.13,-0.11 0.61,0.09 m -1.12,-0.2 0.51,0.11 m 0.28,0.08 -0.79,-0.19 m 9.22,6.47 2.12,-0.68 1.42,-0.64 0.6,-0.63 -0.04,-0.32 -0.29,-0.33 -0.55,-0.34 -0.82,-0.36 -2.46,-0.81 -2.26,-0.62 -2.79,-0.71 -3.35,-0.82 m 8.69,6.37 -0.18,-0.07 -0.09,-0.04 m 0.3,0.11 h -0.02 m 1.87,0.64 1.11,-0.32 m 0.01,0 0.99,-0.28 m 0,0.01 3.33,-0.67 1.83,-0.1 1.98,0.16 2.2,0.44 2.47,0.71 5.39,1.92 m 0,0 1.75,0.67 m 0.74,0.29 -0.73,-0.28 m 2.33,0.47 0.16,-0.01 h 0.08 m 0.61,0.1 -0.33,-0.06 -0.27,-0.03 m 1.15,0.2 -8.31,-3.2 m 0,0 -1.18,-0.48 m -5.38,-5.01 0.08,1.27 0.9,1.3 2.02,1.33 2.38,1.11 m -5.38,-5.01 0.01,-0.06 m 0.78,-2.46 -0.77,2.46 m 0.77,-2.46 -0.1,0.14 m -0.23,0.12 0.23,-0.12 m -0.62,0.18 0.39,-0.05 m -0.67,0.03 0.27,0.02 m -0.57,-0.08 0.15,0.04 0.15,0.02 m -0.6,-0.16 0.15,0.05 0.15,0.05 m -0.55,-0.21 0.24,0.12 m -0.54,-0.35 0.3,0.23 m -0.42,-0.61 v 0.18 l 0.12,0.19 m -0.12,-0.37 -0.3,0.94 m 0.01,0 -0.11,0.31 m -12.54,11.57 0.34,0.01 0.48,-0.17 0.39,-0.36 0.24,-0.49 0.06,-0.55 -0.03,-0.23 m -3.36,1.47 0.07,0.16 0.56,0.76 0.79,0.45 0.9,0.08 0.87,-0.3 0.71,-0.64 0.44,-0.88 0.11,-0.95 m 0.24,-3.23 -0.17,-0.01 m 0,-0.01 h -0.41 l -0.42,0.05 m 0,0 -0.11,0.03 m 0.65,-0.11 v 0 m 1.56,0.39 0.14,0.21 m -0.14,-0.21 -0.09,-0.06 -0.11,-0.06 m -0.05,-0.02 0.05,0.02 m -0.05,-0.02 -0.23,-0.08 m -0.32,-0.08 0.32,0.08 m -0.32,-0.08 -0.3,-0.04 m 143.86,10.8 -0.06,-0.16 -0.49,-0.87 -0.65,-0.7 -0.72,-0.42 m 0,0 -0.36,-0.08 m -4.75,1.05 -1.23,0.46 -0.35,0.2 -0.07,0.1 -0.01,0.01 -0.01,0.05 v 0.05 l 0.02,0.07 0.04,0.07 0.1,0.13 0.11,0.11 0.17,0.14 0.02,0.02 m 4.19,-2.15 -1.75,0.71 m 1.75,-0.71 v 0 m -35.89,6.49 0.05,-0.03 0.14,-0.08 m -0.64,4.9 -0.14,-0.15 -0.28,-0.61 -0.12,-0.86 v -0.46 m 5.54,-3.18 -0.85,-0.07 m 0,0.01 -1.32,0.06 m 4.83,0.35 0.01,-0.11 -0.02,-0.16 -0.05,-0.11 -0.08,-0.09 -0.15,-0.08 -0.19,-0.05 -1.51,-0.01 -1.51,0.2 m 30.43,-5.24 -2.46,1.43 m 0,-0.01 -0.26,0.16 m -24.03,4.1 -0.17,-0.02 m -2.67,-0.36 2.67,0.35 m 23.37,-3.33 0.83,-0.74 m 0,0.01 -0.05,-0.07 -0.1,-0.17 -0.09,-0.21 -0.03,-0.12 -0.01,-0.11 0.01,-0.09 0.02,-0.09 0.01,-0.02 0.08,-0.16 0.15,-0.16 m -10.71,10.66 0.79,0.05 0.51,-0.03 0.62,-0.08 0.57,-0.11 0.62,-0.17 0.83,-0.29 0.34,-0.14 m 0.2,-0.09 -1.51,0.32 -0.84,0.16 m -0.21,-1.82 h 0.02 l 0.7,-0.12 2.1,-0.36 m -3.9,-3.59 0.13,0.43 0.13,0.45 0.13,0.48 0.14,0.5 0.14,0.52 0.14,0.54 0.14,0.56 0.13,0.57 m 0.21,1.84 -2.27,0.36 m 2.06,-2.18 0.06,0.29 0.05,0.3 0.04,0.29 0.04,0.27 0.02,0.24 0.01,0.2 v 0.15 l -0.02,0.09 m -2.62,-1.4 0.21,-0.04 2.21,-0.4 m -2.42,0.44 0.04,0.19 0.03,0.2 0.02,0.2 0.01,0.2 -0.01,0.19 -0.02,0.18 -0.03,0.16 -0.04,0.15 m -13.76,-5.95 v 0 l 0.29,0.06 0.21,0.09 0.18,0.13 0.11,0.12 0.08,0.15 0.06,0.21 0.01,0.12 m 0.01,0 2.45,0.63 0.64,0.35 0.24,0.22 m 9.23,2.45 0.25,-0.05 m -0.68,-3.9 0.12,0.42 0.11,0.44 0.1,0.46 0.09,0.48 0.08,0.5 0.07,0.52 0.06,0.53 0.05,0.54 m 11.26,-6.64 -0.82,0.04 m -9.7,12.1 0.24,0.04 m 1.27,-0.1 -0.16,0.04 -0.16,0.03 -0.16,0.02 -0.16,0.01 -0.16,0.01 h -0.16 l -0.16,-0.01 -0.16,-0.02 m 1.28,-0.08 -0.29,-0.39 -0.3,-0.51 -0.31,-0.6 -0.3,-0.68 -0.29,-0.73 -0.26,-0.76 m 0,0.01 -0.14,-0.02 m 0,-0.01 -0.28,-0.17 -0.07,-0.11 m 0,0.01 -0.11,-0.29 -0.08,-0.39 -0.05,-0.41 -0.02,-0.33 m 0,0 -0.04,-0.38 -0.4,-1.05 -0.53,-0.64 -0.67,-0.49 -0.8,-0.36 m 9.09,-1.58 -0.66,0.63 -0.49,0.8 -0.19,0.76 0.05,0.84 0.14,0.5 m -0.01,0 0.12,0.39 0.07,0.39 0.01,0.35 -0.07,0.3 -0.22,0.29 -0.18,0.11 m 0.01,0 -0.2,0.09 m 0,0 -0.21,0.84 -0.31,0.84 -0.4,0.8 -0.48,0.74 -0.54,0.66 -0.59,0.55 m 12.01,-11.05 -0.29,0.21 -0.24,0.4 -0.07,0.51 m 0,0 0.11,0.54 0.27,0.48 0.39,0.35 0.46,0.17 0.45,-0.04 0.08,-0.03 m 0.38,-3.28 -0.23,-0.16 -0.82,-0.31 -0.81,0.07 -0.67,0.43 -0.43,0.73 -0.13,0.91 m 0.01,0 0.2,0.96 0.49,0.86 0.71,0.63 0.82,0.31 0.8,-0.07 0.67,-0.43 0.43,-0.73 0.12,-0.63 m -6.27,-2.93 0.13,0.02 h 0.31 m 0,0.01 h 0.12 m 0.01,-0.01 -0.84,0.14 m -18.92,5.02 0.42,0.16 0.37,0.36 0.21,0.49 0.02,0.55 m 0.01,0 -0.17,0.53 -0.34,0.42 -0.45,0.25 -0.5,0.04 -0.05,-0.01 m 2.32,-4.74 0.35,-0.09 m -4.07,1.71 0.28,-0.27 0.82,-0.45 0.9,-0.08 0.85,0.31 0.66,0.64 0.38,0.88 0.04,0.99 m -0.01,0 -0.31,0.94 -0.61,0.76 -0.82,0.45 -0.9,0.08 -0.85,-0.3 -0.67,-0.64 -0.27,-0.51 m 10.21,-4.88 1.07,-0.38 0.96,-0.22 m -0.01,0 1.17,-0.13 0.42,-0.02 1.78,0.04 1.68,0.15 m 0.01,0.01 0.23,-0.17 0.95,-0.58 2.27,-1.1 m -0.01,0 0.57,-0.21 m 0.01,0 v 0 m 0,0 0.03,-0.1 m -16.79,3.05 0.02,0.03 m 0.66,0.01 -0.65,-0.01 m 0.65,0.01 1.41,0.25 0.62,0.13 0.86,0.24 0.09,0.03 m -0.01,0 0.59,-0.34 1,-0.51 0.42,-0.19 m -13.08,-0.57 3.03,-0.36 2.66,-0.29 1.31,-0.13 1.02,-0.08 0.79,-0.04 0.5,0.02 0.3,0.17 -0.44,0.33 -0.89,0.4 -1.26,0.5 m 0.03,0.01 -0.42,0.16 m -1.01,0.38 1,-0.38 m -1.65,0.63 0.45,-0.17 m 1.92,-0.25 -0.11,-0.04 m 0.03,0.11 0.08,-0.07 m -0.24,0.14 0.16,-0.07 m 0.16,-0.05 -0.32,0.12 m 17.11,-3.17 -2.88,0.16 -2.51,0.18 -2.19,0.23 -0.99,0.13 -0.93,0.15 -0.89,0.17 -0.85,0.19 -1.69,0.47 -1.17,0.38 -1.26,0.45 -1.41,0.52 m 17.01,-3.09 -0.17,0.04 -0.08,0.02 m 0.25,-0.06 v 0 m -0.01,-0.02 0.01,0.02 m 0.02,-0.05 -0.03,0.03 m 0.03,-0.03 0.13,-0.05 m 1.38,-0.27 -1.56,0.08 m 0,-0.01 -1.21,0.06 m 0,0 -3.27,0.09 -0.94,-0.06 -0.2,-0.17 0.62,-0.3 1.38,-0.43 4.16,-1.09 m 0.01,-0.02 1.5,-0.37 m 2.98,-0.74 -2.97,0.74 m 2.67,-0.67 0.3,-0.07 m -1.47,0.31 0.62,-0.12 0.56,-0.12 m -1.18,0.24 -0.43,0.07 -0.19,0.02 m -0.21,0.01 h 0.1 l 0.12,-0.01 m -0.22,0.01 -0.08,-0.01 -0.02,-0.01 m 0.08,-0.06 -0.08,0.05 v 0.03 m 0.38,-0.19 -7.31,1.82 m 0,-0.01 -1.1,0.26 m -13.84,2.36 3.95,-0.52 3.76,-0.58 3.47,-0.66 2.67,-0.59 m -13.85,2.35 -0.2,0.02 m -7,0.85 6.99,-0.85 m -6.69,0.91 -0.04,-0.02 m -0.04,0.06 0.05,-0.02 0.02,-0.02 m -0.28,0.1 0.12,-0.03 0.09,-0.03 m -0.49,0.12 0.28,-0.06 m -0.9,0.17 0.63,-0.11 m -1.78,0.27 0.58,-0.07 0.57,-0.09 m -1.15,0.16 3.06,-0.37 m 0,0 1,-0.12 m -219.5,-67 -0.32,-0.16 -0.47,-0.02 -0.48,0.17 -0.42,0.35 -0.3,0.47 -0.12,0.51 0.07,0.49 0.25,0.38 0.07,0.06 m 324.58,18.05 0.02,-0.01 0.34,-0.06 0.4,0.14 0.39,0.31 0.32,0.44 0.21,0.5 0.06,0.49 -0.09,0.4 -0.22,0.24 m -322.8,-21.59 0.12,-0.22 0.23,-0.39 0.17,-0.24 0.09,-0.06 m -0.01,0 -0.01,0.14 -0.1,0.31 -0.18,0.44 -0.09,0.19 m 395.58,-14.47 0.02,-0.01 0.34,-0.06 0.4,0.14 0.39,0.31 0.32,0.44 0.21,0.5 0.06,0.49 -0.1,0.4 -0.22,0.24 m -213.8,79.21 1.41,0.05 1.3,-0.31 1.07,-0.59 0.79,-0.77 0.48,-0.86 0.18,-0.7 v -0.34 m -31.58,-7.69 -1.71,0.42 -0.76,0.34 m -0.64,4.82 0.38,0.33 1.55,0.91 1.75,0.63 1.21,0.18 m 16.71,2.23 7.86,1.35 m 11.72,-4.67 1.93,-0.51 1.79,-0.85 1.3,-0.92 m -0.9,-4.96 -1.42,-0.4 -1.22,-0.12 m -37.78,8.91 16.66,2.16 m 3.24,-0.36 16.4,-2.94 m -15.12,-5.62 0.01,-4.64 m -7.8,-0.01 -0.01,5.77 m 7.77,-5.75 -0.08,-1.17 -0.46,-1.35 -0.7,-1.08 -0.83,-0.76 -0.63,-0.33 m -2.31,-0.04 -0.1,0.04 -1.04,0.72 -0.8,0.99 -0.57,1.26 -0.25,1.41 0.02,0.29 m 121.58,-5.69 0.7,0.32 1.33,0.25 1.46,-0.07 1.47,-0.42 0.15,-0.08 m 23.61,-12.36 0.44,-0.22 1.39,-1.15 1.03,-1.29 0.59,-1.14 m -2.32,-3.98 -0.46,-0.07 -1.61,0.09 -0.42,0.11 M 498.63,197.96 509,193.3 m 0,0 0.05,-0.02 0.05,-0.02 0.05,-0.02 0.04,-0.02 0.05,-0.02 0.04,-0.02 0.04,-0.02 0.04,-0.03 m 0,-0.02 12.9,-7.5 m -38.01,10.84 1.42,0.4 1.97,0.2 1.99,-0.16 0.12,-0.03 m -4.1,-6.75 -0.99,0.47 -1.29,0.91 m 6.39,5.38 16.4,-2.94 m -2.64,-13.9 -0.01,4.56 m 7.79,3.33 0.01,-7.88 m -5.92,-4.19 -0.39,0.36 -0.77,1.05 -0.51,1.29 -0.19,1.43 0.01,0.05 m 7.75,0 -0.13,-1.32 -0.49,-1.33 -0.72,-1.05 -0.84,-0.73 -0.54,-0.26 m -2.29,-0.02 -0.17,0.07 -0.71,0.46 m -240.22,27.36 1.03,0.11 0.93,-0.15 m -22.82,-13.41 0.09,1.04 0.45,1.29 0.79,1.23 1.05,0.98 m -0.02,0.02 8.79,6.81 m 1.73,0.76 7.96,1.37 m -9.68,-2.13 0.19,0.14 0.2,0.13 0.21,0.12 0.21,0.1 0.22,0.09 0.23,0.08 0.23,0.06 0.23,0.05 m 0.27,0.02 16.66,2.16 m 5.88,-5.62 -0.37,-0.33 -1.55,-0.91 -1.38,-0.5 m -2.58,7.31 0.83,0.12 1.92,-0.1 1.72,-0.42 0.78,-0.35 m -34.71,-13.63 10,10.68 m -1.39,-12.89 -2.91,-3.12 m -7.89,0.66 0.08,0.67 0.51,1.56 0.85,1.51 0.79,0.89 m 4.2,-6.48 -0.54,-0.39 -1.5,-0.68 -1.02,-0.24 m 75.42,18.27 0.23,-0.97 -0.04,-1.42 -0.36,-1.24 -0.58,-0.98 -0.72,-0.69 -0.61,-0.34 -0.51,-0.15 -0.49,-0.05 m 0.01,0.01 -0.09,-0.01 -0.81,0.1 -1.08,0.44 -1.02,0.79 -0.83,1.09 -0.52,1.29 m 0.52,13.76 h 0.02 0.02 0.02 0.02 0.02 0.02 0.02 0.02 m 6.51,-10.65 0.28,-0.97 m -7.5,-2.15 -0.16,0.57 m -21.3,1.09 0.92,1.17 0.57,0.51 m 3.38,-5.98 -1.08,-0.2 -1.59,-0.03 m 19.96,16.66 16.77,2.18 m 0.01,-0.06 0.83,0.12 1.92,-0.1 1.72,-0.43 0.78,-0.35 m -30.15,-2.75 7.96,1.37 m -11.73,-4.54 0.29,0.77 0.73,0.97 1.03,0.79 1.25,0.52 0.49,0.06 m -0.03,-7.67 h -0.12 l -0.75,0.18 m 142.29,16.22 0.44,-0.22 1.4,-1.15 0.5,-0.62 m -1.21,-5.79 -0.46,-0.07 -1.61,0.09 -1.65,0.43 -0.07,0.03 m 0,0.01 -0.34,0.18 m -28.95,5.16 -0.32,0.02 m 0,0 -1.58,0.08 -1.73,0.43 -0.76,0.34 m -0.65,4.82 0.38,0.33 1.55,0.92 1.75,0.63 1.21,0.18 m 16.76,2.23 0.27,0.02 0.27,0.01 0.27,-0.01 0.27,-0.03 0.26,-0.05 0.26,-0.07 0.26,-0.08 0.25,-0.1 m -18.87,-1.87 16.77,2.18 m -8.13,-1.39 7.86,1.35 m 2.36,-0.27 10.37,-4.66 m -0.02,-0.04 0.57,-0.23 1.26,-0.93 0.91,-1.08 0.56,-1.11 0.1,-0.43 m -1.46,-3.3 -0.05,-0.03 -1.18,-0.4 -1.4,-0.12 -1.48,0.22 -0.29,0.12 m 0,-0.02 -0.09,0.04 m 0,0 -0.03,0.01 m 0,0 -0.1,0.04 m -17.33,3.11 -0.13,-0.02 m 0,0.01 -0.14,-0.02 -1.35,0.22 -0.44,0.2 m -2.3,4.17 0.02,0.09 0.55,1.1 0.86,0.91 1.13,0.69 1.23,0.35 m -1.5,-7.31 -0.7,0.32 -0.86,0.73 -0.22,0.33 m -141.82,-17.45 73.92,9.6 m 0.37,-2.82 -73.92,-9.6 M 242.49,184.35 198.2,150.04 m -1.73,2.24 47.87,37.08 m 35.23,13.85 24.98,4.3 m 80.77,10.92 25,3.25 m -73.92,-9.6 20.87,2.71 m 89.62,3.7 46.22,-20.76 m -5.41,-0.69 -41.97,18.86 m 29.56,-18.95 -25.33,14.73 m 33.36,-19.4 -0.86,0.5 m 20.88,-12.13 -12.32,7.16 m 30.05,-17.47 -10.89,6.33 m 1.04,2.67 11.27,-6.55 m -65.32,37.97 26.29,-15.28 m -189.36,0.6 -93.8,-45.79 m 6.23,6.19 86.33,42.14 m 130.11,21.41 -31.8,-5.47 m -3.42,2.29 34.74,5.97 m 61.08,-30.24 -84.21,15.11 m 0.5,2.79 84.21,-15.11 M 595.5,136.9 524.39,178.23 m 1.43,2.45 71.11,-41.33"
         class="st0"
         inkscape:connector-curvature="0"
         style="fill:none;stroke:#000000;stroke-width:0.70899999;stroke-linecap:round;stroke-linejoin:round;stroke-miterlimit:10" />
      <line
         id="line6783"
         y2="211.83"
         x2="445.69"
         y1="211.83"
         x1="445.69"
         class="st0"
         style="fill:none;stroke:#000000;stroke-width:0.70899999;stroke-linecap:round;stroke-linejoin:round;stroke-miterlimit:10" />
    </g>
  </g>
  <style
     id="style6508"
     type="text/css">
	.st0{font-family:'ArialUnicodeMS';}
	.st1{font-size:19.9584px;}
	.st2{font-size:20.1158px;}
	.st3{font-size:20.1547px;}
	.st4{fill:none;stroke:#000000;stroke-width:0.51;stroke-miterlimit:10;}
	.st5{fill:none;stroke:#000000;stroke-width:0.51;stroke-linecap:round;stroke-linejoin:round;stroke-miterlimit:10;}
	.st6{fill:none;stroke:#000000;stroke-width:0.709;stroke-linecap:round;stroke-linejoin:round;stroke-miterlimit:10;}
	
		.st7{fill:none;stroke:#000000;stroke-width:0.51;stroke-linecap:round;stroke-linejoin:round;stroke-miterlimit:10;stroke-dasharray:18,3.6,3.6,3.6,3.6,3.6;stroke-dashoffset:13;}
	
		.st8{fill:none;stroke:#000000;stroke-width:0.51;stroke-linecap:round;stroke-linejoin:round;stroke-miterlimit:10;stroke-dasharray:18,3.6,3.6,3.6,3.6,3.6;}
	
		.st9{fill:none;stroke:#000000;stroke-width:0.51;stroke-linecap:round;stroke-linejoin:round;stroke-miterlimit:10;stroke-dasharray:18,3.6,3.6,3.6,3.6,3.6;stroke-dashoffset:11;}
	
		.st10{fill:none;stroke:#000000;stroke-width:0.51;stroke-linecap:round;stroke-linejoin:round;stroke-miterlimit:10;stroke-dasharray:18,3.6,3.6,3.6,3.6,3.6;stroke-dashoffset:8;}
	
		.st11{fill:none;stroke:#000000;stroke-width:0.51;stroke-linecap:round;stroke-linejoin:round;stroke-miterlimit:10;stroke-dasharray:18,3.6,3.6,3.6,3.6,3.6;stroke-dashoffset:6;}
	
		.st12{fill:none;stroke:#000000;stroke-width:0.51;stroke-linecap:round;stroke-linejoin:round;stroke-miterlimit:10;stroke-dasharray:18,3.6,3.6,3.6,3.6,3.6;stroke-dashoffset:2;}
	
		.st13{fill:none;stroke:#000000;stroke-width:0.51;stroke-linecap:round;stroke-linejoin:round;stroke-miterlimit:10;stroke-dasharray:18,3.6,3.6,3.6,3.6,3.6;stroke-dashoffset:14;}
	
		.st14{fill:none;stroke:#000000;stroke-width:0.51;stroke-linecap:round;stroke-linejoin:round;stroke-miterlimit:10;stroke-dasharray:18,3.6,3.6,3.6,3.6,3.6;stroke-dashoffset:9;}
</style>
  <style
     id="style6716"
     type="text/css">
	.st0{fill:none;stroke:#000000;stroke-width:0.709;stroke-linecap:round;stroke-linejoin:round;stroke-miterlimit:10;}
</style>
  <style
     id="style6737"
     type="text/css">
	.st0{fill:none;stroke:#000000;stroke-width:0.709;stroke-linecap:round;stroke-linejoin:round;stroke-miterlimit:10;}
</style>
  <style
     id="style6777"
     type="text/css">
	.st0{fill:none;stroke:#000000;stroke-width:0.709;stroke-linecap:round;stroke-linejoin:round;stroke-miterlimit:10;}
</style>
</svg>
