<?xml version="1.0" encoding="utf-8"?>
<!-- Generator: Adobe Illustrator 23.0.1, SVG Export Plug-In . SVG Version: 6.00 Build 0)  -->
<svg version="1.1" id="Слой_1" xmlns="http://www.w3.org/2000/svg" xmlns:xlink="http://www.w3.org/1999/xlink" x="0px" y="0px"
	 viewBox="0 0 429 547.11" style="enable-background:new 0 0 429 547.11;" xml:space="preserve">
<style type="text/css">
	.st0{enable-background:new    ;}
	.st1{fill:none;stroke:#000000;stroke-width:0.51;stroke-miterlimit:10;}
	.st2{fill:none;stroke:#000000;stroke-width:0.51;stroke-linecap:round;stroke-linejoin:round;stroke-miterlimit:10;}
	.st3{fill:none;stroke:#000000;stroke-width:0.709;stroke-linecap:round;stroke-linejoin:round;stroke-miterlimit:10;}
</style>
<g class="st0">
	<path d="M198.49,59.22h-1.84l3.29-12.3h-7.2l-3.29,12.3h-1.83l3.73-13.93h10.86L198.49,59.22z"/>
	<path d="M211.24,54.61h-7.49c-0.23,1.12-0.14,1.97,0.26,2.56c0.4,0.59,1.03,0.88,1.87,0.88c0.65,0,1.24-0.17,1.77-0.52
		c0.53-0.35,1.01-0.87,1.43-1.56l1.68,0.22c-0.57,1.05-1.3,1.86-2.2,2.42c-0.91,0.56-1.92,0.85-3.05,0.85
		c-1.5,0-2.55-0.46-3.14-1.39c-0.6-0.93-0.68-2.2-0.25-3.81c0.43-1.59,1.18-2.88,2.27-3.87c1.08-0.99,2.37-1.48,3.86-1.48
		c0.73,0,1.39,0.16,1.97,0.48c0.59,0.32,1.01,0.87,1.28,1.65C211.75,51.81,211.67,53,211.24,54.61z M209.88,53.2
		c0.21-1.03,0.09-1.77-0.35-2.22s-0.99-0.68-1.66-0.68c-0.8,0-1.53,0.27-2.18,0.81c-0.66,0.54-1.14,1.24-1.46,2.09H209.88z"/>
	<path d="M216,50.43c0.91-1.02,2-1.53,3.26-1.53c1.31,0,2.22,0.48,2.72,1.44c0.5,0.96,0.55,2.21,0.13,3.75
		c-0.44,1.64-1.21,2.95-2.31,3.91s-2.26,1.45-3.49,1.45c-1.07,0-1.82-0.43-2.23-1.29h-0.05l-1.32,4.93h-1.7l3.74-13.96h1.54
		l-0.35,1.3H216z M216.59,58.05c0.79,0,1.54-0.33,2.23-0.99c0.7-0.66,1.22-1.65,1.57-2.96c0.33-1.24,0.34-2.19,0.01-2.85
		s-0.87-1-1.65-1c-0.8,0-1.56,0.37-2.28,1.11s-1.23,1.7-1.55,2.88c-0.33,1.25-0.34,2.2-0.02,2.84
		C215.23,57.72,215.79,58.05,216.59,58.05z"/>
	<path d="M232.7,54.61h-7.49c-0.23,1.12-0.14,1.97,0.26,2.56c0.4,0.59,1.03,0.88,1.87,0.88c0.65,0,1.24-0.17,1.77-0.52
		s1.01-0.87,1.43-1.56l1.68,0.22c-0.56,1.05-1.3,1.86-2.2,2.42c-0.91,0.56-1.92,0.85-3.05,0.85c-1.5,0-2.55-0.46-3.14-1.39
		c-0.6-0.93-0.68-2.2-0.25-3.81c0.43-1.59,1.18-2.88,2.27-3.87s2.37-1.48,3.86-1.48c0.73,0,1.39,0.16,1.97,0.48
		c0.59,0.32,1.01,0.87,1.28,1.65C233.21,51.81,233.13,53,232.7,54.61z M231.33,53.2c0.21-1.03,0.09-1.77-0.35-2.22
		s-0.99-0.68-1.66-0.68c-0.8,0-1.53,0.27-2.18,0.81s-1.14,1.24-1.46,2.09H231.33z"/>
	<path d="M242.12,62.08h-1.41l0.77-2.86h-7.84l-0.77,2.86h-1.41l1.15-4.29h0.89c0.76-0.76,1.48-1.85,2.17-3.28
		c0.69-1.43,1.28-3.06,1.77-4.89l0.13-0.48h6.96l-2.32,8.66h1.08L242.12,62.08z M240.49,57.79l1.94-7.23h-3.86
		c-1,3.24-2.15,5.65-3.46,7.23H240.49z"/>
</g>
<g class="st0">
	<path d="M356.91,143.83l-0.63-1.73l12.69-1.11l-2.46-6.76l-12.69,1.11l-0.62-1.72l14.37-1.26l3.71,10.2L356.91,143.83z"/>
	<path d="M365.6,154.24l-2.56-7.04c-1.13,0.17-1.9,0.54-2.31,1.12c-0.42,0.58-0.48,1.27-0.19,2.06c0.22,0.61,0.58,1.1,1.09,1.48
		c0.51,0.38,1.16,0.65,1.96,0.81l0.37,1.66c-1.18-0.17-2.19-0.58-3.03-1.24c-0.84-0.66-1.45-1.52-1.84-2.58
		c-0.51-1.41-0.44-2.55,0.23-3.43c0.67-0.88,1.83-1.39,3.49-1.53c1.64-0.14,3.11,0.12,4.41,0.81s2.2,1.72,2.71,3.12
		c0.25,0.68,0.32,1.36,0.22,2.02c-0.1,0.66-0.47,1.25-1.11,1.76C368.4,153.76,367.26,154.09,365.6,154.24z M366.46,152.47
		c1.04-0.16,1.69-0.52,1.97-1.09c0.27-0.57,0.3-1.17,0.07-1.79c-0.27-0.75-0.78-1.34-1.51-1.78c-0.73-0.44-1.55-0.65-2.46-0.65
		L366.46,152.47z"/>
	<path d="M371.15,157.29c1.27,0.5,2.12,1.35,2.55,2.54c0.45,1.23,0.31,2.25-0.42,3.05c-0.73,0.8-1.89,1.27-3.48,1.41
		c-1.69,0.15-3.18-0.13-4.47-0.83c-1.28-0.7-2.14-1.63-2.55-2.78c-0.37-1.01-0.22-1.86,0.45-2.54l-0.02-0.04l-5.09,0.45l-0.58-1.59
		l14.4-1.26l0.53,1.45l-1.34,0.12L371.15,157.29z M364.2,160.44c0.27,0.74,0.84,1.33,1.7,1.76c0.86,0.43,1.97,0.58,3.32,0.46
		c1.28-0.11,2.17-0.43,2.69-0.96s0.64-1.16,0.37-1.89c-0.27-0.75-0.88-1.34-1.83-1.76c-0.94-0.42-2.02-0.58-3.24-0.47
		c-1.29,0.11-2.18,0.43-2.68,0.96C364.04,159.06,363.93,159.69,364.2,160.44z"/>
	<path d="M372.94,174.4l-2.56-7.04c-1.13,0.17-1.9,0.54-2.31,1.12c-0.42,0.58-0.48,1.27-0.19,2.06c0.22,0.61,0.58,1.1,1.09,1.48
		c0.51,0.38,1.16,0.65,1.96,0.8l0.37,1.66c-1.18-0.17-2.19-0.58-3.03-1.24s-1.45-1.52-1.84-2.58c-0.51-1.41-0.44-2.55,0.23-3.43
		c0.67-0.88,1.83-1.39,3.49-1.53c1.64-0.14,3.11,0.12,4.41,0.81c1.3,0.68,2.21,1.72,2.71,3.12c0.25,0.68,0.32,1.36,0.22,2.02
		c-0.1,0.66-0.47,1.25-1.11,1.76C375.74,173.92,374.59,174.25,372.94,174.4z M373.8,172.63c1.04-0.16,1.69-0.52,1.96-1.09
		s0.3-1.17,0.07-1.79c-0.27-0.75-0.78-1.34-1.51-1.78c-0.73-0.44-1.55-0.65-2.46-0.65L373.8,172.63z"/>
	<path d="M369.14,185.81l-0.48-1.33l2.95-0.26l-2.68-7.37l-2.95,0.26l-0.48-1.33l4.42-0.39l0.3,0.83c0.97,0.45,2.25,0.75,3.83,0.91
		s3.31,0.15,5.2-0.01l0.5-0.04l2.38,6.54l-8.93,0.78l0.37,1.02L369.14,185.81z M372.62,182.81l7.46-0.65l-1.32-3.63
		c-3.38,0.17-6.04-0.09-7.98-0.78L372.62,182.81z"/>
</g>
<g class="st0">
	<path d="M67.3,179l-0.63,1.73l-10.43-7.3l-2.46,6.76l10.43,7.3l-0.62,1.72l-11.82-8.27l3.71-10.2L67.3,179z"/>
	<path d="M67.33,165.44l-2.56,7.04c0.97,0.6,1.8,0.81,2.49,0.63c0.69-0.18,1.18-0.66,1.47-1.45c0.22-0.61,0.26-1.22,0.12-1.84
		s-0.47-1.24-0.98-1.88l0.78-1.51c0.8,0.89,1.3,1.86,1.52,2.9s0.14,2.1-0.25,3.16c-0.51,1.41-1.31,2.24-2.38,2.48
		c-1.08,0.24-2.3-0.11-3.66-1.07c-1.35-0.94-2.3-2.1-2.86-3.45c-0.56-1.36-0.58-2.73-0.07-4.13c0.25-0.68,0.63-1.25,1.13-1.69
		c0.51-0.44,1.17-0.65,1.99-0.64C64.88,164,65.97,164.49,67.33,165.44z M65.54,166.24c-0.89-0.54-1.63-0.69-2.21-0.43
		c-0.58,0.26-0.98,0.7-1.21,1.33c-0.27,0.75-0.27,1.53,0.01,2.33c0.28,0.8,0.77,1.5,1.47,2.08L65.54,166.24z"/>
	<path d="M65.03,159.54c-0.65-1.2-0.76-2.4-0.32-3.59c0.45-1.23,1.21-1.92,2.28-2.06c1.07-0.14,2.26,0.24,3.57,1.16
		c1.39,0.97,2.35,2.14,2.89,3.51c0.53,1.37,0.59,2.62,0.17,3.77c-0.37,1.01-1.03,1.56-1.98,1.66l-0.02,0.04l4.18,2.93l-0.58,1.59
		l-11.84-8.29l0.53-1.45l1.1,0.77L65.03,159.54z M72.39,161.59c0.27-0.74,0.21-1.56-0.17-2.44c-0.38-0.88-1.13-1.71-2.25-2.49
		c-1.05-0.73-1.94-1.06-2.67-0.99c-0.73,0.07-1.24,0.48-1.5,1.21c-0.27,0.76-0.19,1.6,0.26,2.52c0.45,0.93,1.18,1.74,2.18,2.44
		c1.06,0.74,1.95,1.07,2.66,0.99C71.62,162.75,72.12,162.34,72.39,161.59z"/>
	<path d="M74.66,145.28l-2.56,7.04c0.97,0.6,1.8,0.81,2.49,0.63c0.69-0.18,1.18-0.66,1.47-1.45c0.22-0.61,0.26-1.22,0.12-1.84
		c-0.14-0.62-0.47-1.24-0.98-1.88l0.78-1.51c0.8,0.89,1.3,1.86,1.52,2.9s0.14,2.1-0.25,3.16c-0.51,1.41-1.31,2.24-2.38,2.48
		c-1.08,0.24-2.3-0.12-3.66-1.07c-1.35-0.94-2.3-2.1-2.86-3.45c-0.56-1.36-0.58-2.73-0.07-4.13c0.25-0.68,0.63-1.25,1.13-1.69
		c0.51-0.44,1.17-0.65,1.99-0.64C72.21,143.84,73.3,144.33,74.66,145.28z M72.88,146.08c-0.89-0.54-1.63-0.69-2.21-0.43
		c-0.58,0.26-0.98,0.7-1.21,1.33c-0.27,0.75-0.27,1.53,0.01,2.33c0.28,0.8,0.77,1.5,1.47,2.08L72.88,146.08z"/>
	<path d="M84.91,138.98l-0.48,1.33l-2.43-1.7l-2.68,7.37l2.43,1.7l-0.48,1.33l-3.64-2.55l0.3-0.83c-0.46-0.97-1.24-2.02-2.35-3.16
		c-1.11-1.13-2.44-2.25-3.99-3.33l-0.41-0.29l2.38-6.54l7.34,5.14l0.37-1.02L84.91,138.98z M80.32,139.04l-6.13-4.29l-1.32,3.63
		c2.7,2.05,4.57,3.96,5.61,5.73L80.32,139.04z"/>
</g>
<g class="st0">
	<path d="M106.42,333.55l-1.5-1.05l9.76-8.19l-5.89-4.13l-9.76,8.19l-1.5-1.05l11.05-9.27l8.89,6.23L106.42,333.55z"/>
	<path d="M119.51,337.08l-6.13-4.29c-0.83,0.78-1.25,1.53-1.25,2.24c-0.01,0.71,0.33,1.31,1.02,1.8c0.53,0.37,1.11,0.57,1.75,0.59
		c0.63,0.02,1.32-0.13,2.06-0.46l1.25,1.14c-1.07,0.54-2.13,0.78-3.2,0.72c-1.06-0.06-2.06-0.41-2.98-1.06
		c-1.23-0.86-1.82-1.84-1.78-2.94c0.04-1.1,0.7-2.19,1.98-3.26c1.26-1.06,2.62-1.68,4.08-1.87c1.45-0.19,2.79,0.14,4.01,1
		c0.6,0.42,1.04,0.93,1.34,1.53c0.3,0.6,0.33,1.3,0.1,2.08C121.54,335.09,120.79,336.02,119.51,337.08z M119.2,335.15
		c0.76-0.72,1.09-1.4,0.98-2.02c-0.1-0.62-0.42-1.13-0.97-1.51c-0.65-0.46-1.4-0.65-2.25-0.59c-0.85,0.06-1.65,0.36-2.39,0.88
		L119.2,335.15z"/>
	<path d="M125.81,336.4c1.33-0.32,2.51-0.11,3.55,0.62c1.07,0.75,1.54,1.67,1.4,2.74c-0.14,1.07-0.82,2.12-2.04,3.15
		c-1.3,1.09-2.68,1.72-4.14,1.88c-1.46,0.16-2.69-0.11-3.69-0.81c-0.88-0.62-1.24-1.4-1.09-2.34l-0.04-0.03l-3.91,3.28l-1.39-0.97
		l11.07-9.29l1.27,0.89l-1.03,0.87L125.81,336.4z M121.92,342.97c0.65,0.45,1.45,0.61,2.4,0.46c0.95-0.14,1.94-0.65,2.98-1.52
		c0.98-0.82,1.53-1.6,1.65-2.33c0.12-0.73-0.14-1.32-0.78-1.76c-0.66-0.46-1.49-0.59-2.51-0.4s-1.99,0.69-2.92,1.47
		c-0.99,0.83-1.54,1.6-1.64,2.32C121,341.93,121.27,342.52,121.92,342.97z"/>
	<path d="M137.09,349.39l-6.13-4.29c-0.83,0.78-1.25,1.53-1.25,2.24c-0.01,0.71,0.33,1.31,1.02,1.8c0.53,0.37,1.11,0.57,1.75,0.59
		c0.63,0.02,1.32-0.13,2.07-0.46l1.25,1.14c-1.07,0.54-2.13,0.78-3.2,0.72c-1.06-0.06-2.06-0.41-2.99-1.06
		c-1.23-0.86-1.82-1.84-1.78-2.94c0.04-1.1,0.71-2.19,1.98-3.26c1.26-1.06,2.62-1.68,4.08-1.87s2.79,0.14,4.01,1
		c0.6,0.42,1.04,0.93,1.34,1.53c0.3,0.6,0.33,1.3,0.1,2.08C139.11,347.4,138.36,348.32,137.09,349.39z M136.78,347.45
		c0.76-0.72,1.09-1.4,0.98-2.02c-0.1-0.62-0.42-1.13-0.97-1.51c-0.65-0.46-1.4-0.65-2.25-0.59c-0.85,0.06-1.65,0.36-2.39,0.88
		L136.78,347.45z"/>
	<path d="M140.52,360.91l-1.16-0.81l2.27-1.9l-6.43-4.5l-2.27,1.9l-1.16-0.81l3.4-2.85l0.72,0.51c1.06-0.19,2.28-0.67,3.66-1.45
		c1.38-0.78,2.8-1.77,4.25-2.99l0.38-0.32l5.7,3.99l-6.87,5.76l0.89,0.62L140.52,360.91z M141.64,356.47l5.74-4.81l-3.16-2.21
		c-2.68,2.08-5,3.39-6.99,3.94L141.64,356.47z"/>
</g>
<g class="st0">
	<path d="M299.16,347.31l-1.5,1.05l-4.36-11.97l-5.89,4.13l4.36,11.97l-1.5,1.05l-4.93-13.56l8.89-6.23L299.16,347.31z"/>
	<path d="M306.97,336.22l-6.13,4.29c0.45,1.05,1.01,1.69,1.68,1.95c0.67,0.25,1.35,0.13,2.04-0.35c0.53-0.37,0.91-0.85,1.15-1.44
		c0.24-0.59,0.33-1.29,0.27-2.1l1.5-0.79c0.14,1.19,0,2.27-0.41,3.25c-0.42,0.98-1.09,1.79-2.01,2.44
		c-1.23,0.86-2.35,1.08-3.37,0.66c-1.02-0.42-1.82-1.41-2.39-2.98c-0.56-1.55-0.68-3.04-0.36-4.47c0.32-1.43,1.09-2.57,2.31-3.43
		c0.6-0.42,1.23-0.66,1.9-0.74c0.67-0.07,1.33,0.13,1.99,0.62C305.79,333.63,306.4,334.66,306.97,336.22z M305.04,335.85
		c-0.42-0.96-0.94-1.5-1.56-1.62c-0.62-0.12-1.2,0.01-1.75,0.4c-0.65,0.46-1.1,1.1-1.33,1.91c-0.23,0.82-0.23,1.67,0.01,2.55
		L305.04,335.85z"/>
	<path d="M308.48,330.07c0.16-1.36,0.76-2.4,1.8-3.12c1.07-0.75,2.09-0.88,3.05-0.38c0.96,0.5,1.72,1.5,2.26,3
		c0.58,1.6,0.7,3.11,0.35,4.53c-0.35,1.42-1.02,2.49-2.03,3.19c-0.88,0.62-1.74,0.69-2.57,0.22l-0.04,0.03l1.75,4.8l-1.39,0.97
		l-4.94-13.59l1.26-0.88l0.46,1.27L308.48,330.07z M313.32,335.97c0.65-0.45,1.07-1.15,1.26-2.09s0.05-2.05-0.41-3.33
		c-0.44-1.2-0.98-1.98-1.62-2.34c-0.65-0.36-1.29-0.32-1.92,0.13c-0.66,0.46-1.07,1.2-1.23,2.22c-0.16,1.02-0.04,2.1,0.38,3.25
		c0.44,1.21,0.98,1.99,1.62,2.34C312.03,336.48,312.67,336.43,313.32,335.97z"/>
	<path d="M324.54,323.91l-6.13,4.29c0.45,1.04,1.01,1.69,1.68,1.94s1.35,0.14,2.04-0.35c0.53-0.37,0.91-0.85,1.15-1.44
		c0.24-0.59,0.33-1.29,0.27-2.1l1.5-0.79c0.14,1.19,0,2.27-0.42,3.25c-0.42,0.98-1.09,1.79-2.01,2.44
		c-1.23,0.86-2.35,1.08-3.37,0.66c-1.02-0.42-1.82-1.41-2.39-2.98c-0.56-1.55-0.68-3.04-0.36-4.47s1.09-2.57,2.31-3.43
		c0.6-0.42,1.23-0.66,1.9-0.74c0.67-0.07,1.33,0.13,1.99,0.62C323.36,321.33,323.97,322.35,324.54,323.91z M322.62,323.54
		c-0.42-0.96-0.94-1.5-1.56-1.62c-0.62-0.12-1.2,0.01-1.75,0.39c-0.65,0.46-1.09,1.1-1.33,1.92c-0.23,0.82-0.23,1.67,0.01,2.55
		L322.62,323.54z"/>
	<path d="M336.54,324.63l-1.16,0.81l-1.01-2.78l-6.43,4.5l1.01,2.78l-1.16,0.81l-1.52-4.17l0.72-0.51c0.18-1.06,0.15-2.37-0.11-3.93
		c-0.26-1.56-0.71-3.24-1.36-5.02l-0.17-0.47l5.7-3.99l3.07,8.42l0.89-0.62L336.54,324.63z M332.75,322.05l-2.56-7.04l-3.16,2.21
		c1.04,3.23,1.48,5.86,1.31,7.91L332.75,322.05z"/>
</g>
<path class="st1" d="M184.36,248.7l5.01-8.7l2.38,1.91L184.36,248.7 M248.2,247.82l-7.19-7.01l2.44-1.84L248.2,247.82
	 M271.52,188.94l-9.12,4.2l-0.84-2.94L271.52,188.94 M166.28,188.97l9.93,1.48l-0.9,2.92L166.28,188.97 M216.13,154.83l1.53,9.92
	h-3.05L216.13,154.83"/>
<path class="st2" d="M206.51,221.01l-22.15,27.69 M227.79,220.71l20.4,27.11 M237.99,198.56l33.52-9.62 M200.1,199.43l-33.81-10.46
	 M216.13,184.28v-29.44"/>
<path d="M184.36,248.7l5.01-8.7l2.38,1.91 M248.2,247.82l-7.19-7.01l2.44-1.84 M271.52,188.94l-9.12,4.2l-0.84-2.94 M166.28,188.97
	l9.93,1.48l-0.9,2.92 M216.13,154.83l1.53,9.92h-3.05"/>
<path class="st3" d="M149.53,373.64l-0.07,0.11l-0.07,0.31l0.07,0.33l0.2,0.3l0.29,0.23l0.34,0.11l0.34-0.01l0.29-0.14l0.13-0.14
	 M281.79,374.75l0.13,0.14l0.29,0.14l0.34,0.01 M282.55,375.04l0.34-0.11l0.29-0.23l0.2-0.3l0.07-0.33l-0.07-0.31l-0.07-0.11
	 M259.42,329.99l0.01,0.08l0.13,0.18l0.25,0.14l0.33,0.08l0.37,0.01l0.35-0.07l0.27-0.13l0.15-0.18l0.03-0.11 M78.44,321.99
	l-0.09,0.17l-0.04,0.32l0.09,0.33 M78.4,322.81l0.21,0.29l0.3,0.21l0.35,0.09l0.34-0.04l0.28-0.16l0.09-0.1 M352.88,323.1l0.09,0.1
	l0.28,0.16l0.34,0.04l0.35-0.09l0.3-0.21l0.22-0.29l0.09-0.33l-0.04-0.32l-0.09-0.17 M171.54,329.99l0.02,0.11l0.15,0.18l0.27,0.13
	 M171.99,330.41l0.35,0.07l0.37-0.01l0.34-0.08l0.25-0.14l0.13-0.18l0.01-0.08 M114.1,286.88l-0.07,0.04l-0.13,0.18l-0.06,0.28
	l0.03,0.34l0.11,0.35l0.17,0.31l0.21,0.22l0.21,0.09l0.12-0.01 M318.17,288.68l0.12,0.01l0.21-0.09l0.21-0.22 M318.71,288.38
	l0.17-0.31l0.11-0.35l0.03-0.34l-0.06-0.28l-0.13-0.18l-0.07-0.04 M86.94,203.31l-0.1,0.06l-0.12,0.2l-0.04,0.3 M86.68,203.87
	l0.04,0.35l0.12,0.35l0.18,0.29l0.21,0.2l0.21,0.07l0.08-0.01 M345.32,205.11l0.08,0.01l0.21-0.07l0.21-0.2l0.18-0.29l0.12-0.35
	l0.04-0.35l-0.04-0.3l-0.12-0.2l-0.1-0.06 M394.81,197.66l0.17-0.08l0.22-0.23l0.12-0.32 M395.32,197.02v-0.36l-0.12-0.35
	l-0.23-0.28l-0.3-0.17l-0.32-0.03l-0.13,0.03 M110.19,135.36l-0.06-0.06l-0.21-0.07l-0.29,0.03l-0.32,0.13l-0.3,0.21l-0.24,0.26
	l-0.14,0.27l-0.02,0.23l0.05,0.11 M38.63,195.86l-0.13-0.03l-0.32,0.03l-0.3,0.17l-0.23,0.28l-0.12,0.35v0.36l0.12,0.32l0.22,0.23
	l0.17,0.08 M324.19,136.47l0.05-0.11l-0.02-0.23l-0.14-0.27 M324.07,135.86l-0.24-0.26l-0.3-0.21l-0.32-0.13l-0.29-0.03l-0.21,0.07
	l-0.06,0.06 M253.09,84.82l0.04-0.07v-0.22l-0.12-0.26l-0.22-0.26l-0.29-0.22l-0.32-0.15l-0.3-0.05l-0.23,0.05l-0.09,0.08
	 M65.78,112.29l-0.18-0.03l-0.32,0.06l-0.29,0.19 M64.99,112.51l-0.21,0.29l-0.1,0.35l0.02,0.36l0.14,0.31l0.24,0.21l0.12,0.05
	 M367.65,114.09l0.12-0.05l0.24-0.21l0.14-0.31l0.02-0.36l-0.1-0.35l-0.21-0.29l-0.29-0.19l-0.32-0.06l-0.18,0.03 M173.43,35.45
	l-0.01-0.13l-0.13-0.29l-0.25-0.23l-0.34-0.13l-0.37-0.01l-0.35,0.11l-0.27,0.21l-0.15,0.28l-0.02,0.18 M261.31,35.45l-0.03-0.18
	l-0.15-0.28l-0.27-0.21 M260.86,34.77l-0.35-0.11l-0.37,0.01l-0.33,0.13l-0.25,0.23l-0.13,0.29l-0.01,0.13 M181.28,83.7l-0.09-0.08
	l-0.23-0.05l-0.3,0.05 M180.67,83.63l-0.32,0.15L180.06,84l-0.22,0.26l-0.12,0.26v0.22l0.04,0.07 M368.1,206.23l-0.02-0.59
	l-0.22-0.62l-0.27-0.37 M360.25,205.16l0.02,0.02l0.27,0.11l0.3-0.02 M361.7,204.84L361.7,204.84l0.03,0.07l-0.12,0.1l-0.14,0.06
	 M360.85,205.27l0.62-0.2 M352.03,193.68L352.03,193.68l0.17-0.06 M352.2,193.62l0.39-0.13l0.55-0.18l0.63-0.2l0.61-0.2l0.5-0.16
	l0.31-0.1l0.08-0.03 M355.26,224.23l-0.04-0.01l-0.26-0.08l-0.46-0.15l-0.59-0.19l-0.63-0.21l-0.57-0.19l-0.43-0.14l-0.22-0.07
	l-0.02-0.01 M353.52,201.16l0.08,0.19l0.16,0.05l0.25-0.09l0.19-0.11 M354.21,201.2l0.18-0.06l0.22,0.02l0.22,0.1l0.2,0.17
	l0.22,0.32l0.09,0.22 M355.33,201.97l0.07,0.23 M356.09,211.82l0.12-0.61l-0.04-0.49l-0.2-0.43l-0.29-0.29l-0.43-0.21 M353.94,204.2
	l0.78,0.11l0.34-0.08l0.29-0.21l0.16-0.3l0.07-0.43l-0.08-0.74l-0.1-0.36 M355.7,213l0.39-1.19 M355.7,213l-0.32,0.65l-0.21,0.23
	l-0.25,0.15l-0.17,0.03l-0.15-0.04 M354.4,213.95l0.21,0.08 M354.4,213.95l-0.26,0.08l-0.17,0.28l-0.02,0.07 M352.52,198.09
	l0.2,1.48l0.17,2.4l-0.07,1.31 M352.64,218.16l0.48-4.41l-0.03-2.09l-0.14-0.86l-0.24-0.73l-0.68-1.05 M352.51,209.17l0.11,0.03
	 M352.62,209.21l0.13,0.01l0.18,0.01l0.22,0.01l0.34,0.04l0.48,0.09l0.27,0.08 M354.24,209.44l1.01,0.33 M353.94,204.2l-0.18-0.06
	 M353.76,204.14l-0.42-0.14l-0.15-0.05 M353.19,203.94l-0.21-0.07 M345.2,203.08l0.19-0.21l0.39-0.26l0.37-0.02 M346.14,202.59
	l0.29,0.23l0.16,0.44l0.01,0.58l-0.14,0.64l-0.27,0.6l-0.36,0.46l-0.39,0.26l-0.36,0.02l-0.29-0.23l-0.16-0.44l-0.03-0.28
	 M345.9,203.31l0.16,0.13l0.09,0.24l0.01,0.33l-0.08,0.36l-0.15,0.33l-0.2,0.26l-0.22,0.15l-0.2,0.01 M265.39,352l0.55-0.19
	l0.52-0.41l0.27-0.37 M264.73,345.49L264.73,345.49l-0.05,0.05l-0.13-0.08l-0.1-0.12 M264.06,344.81l0.39,0.53 M263.98,344.21
	l-0.01,0.03l-0.02,0.29l0.11,0.28 M244.3,345.36v-0.05v-0.27v-0.49v-0.62v-0.66v-0.6v-0.45v-0.23v-0.02 M272.36,332.84
	L272.36,332.84l0.1,0.14 M272.46,332.98l0.24,0.33l0.34,0.47l0.39,0.53l0.38,0.52l0.31,0.42l0.19,0.27l0.05,0.07 M256.36,342.31
	l0.62-0.08l0.46-0.2l0.35-0.32l0.19-0.37l0.07-0.47 M262.95,337.91l0.14,0.78l0.18,0.3l0.29,0.21l0.33,0.06l0.42-0.07l0.68-0.31
	l0.32-0.21 M265.71,336.57l-0.16,0.14v0.17l0.16,0.21l0.16,0.15 M265.88,337.23l0.11,0.15l0.05,0.21l-0.02,0.24l-0.1,0.24
	l-0.24,0.31l-0.18,0.15 M265.5,338.54l-0.19,0.14 M255.11,342.31h1.25 M255.11,342.31l-0.71-0.1l-0.29-0.13l-0.22-0.19l-0.08-0.15
	l-0.01-0.16 M253.82,341.36l-0.01,0.22 M253.82,341.36l-0.15-0.22l-0.32-0.08l-0.08,0.01 M268.31,334.67l-1.35,0.64l-2.23,0.91
	l-1.27,0.34 M249.26,340.99l4.34-0.9l1.97-0.68l0.77-0.4l0.62-0.45l0.79-0.97 M257.77,338.08v0.12 M257.77,338.2l0.03,0.12
	l0.05,0.18l0.05,0.21l0.07,0.33l0.06,0.48l0.01,0.28 M258.05,339.81v1.06 M262.95,337.91v-0.19 M262.95,337.72l0.01-0.44v-0.16
	 M262.96,337.12v-0.23 M261.31,329.99l-0.07,0.19l-0.2,0.16l-0.31,0.11l-0.36,0.04l-0.36-0.04l-0.31-0.11l-0.21-0.16l-0.07-0.19
	 M261.31,329.25l0.26,0.11l0.37,0.29l0.13,0.34 M262.06,329.99l-0.13,0.34l-0.37,0.29l-0.55,0.19l-0.65,0.07l-0.65-0.07l-0.55-0.19
	l-0.37-0.29l-0.13-0.34l0.13-0.34l0.37-0.29l0.26-0.11 M95.02,299.36l0.36,0.47l0.55,0.37l0.43,0.14 M101,296.72L101,296.72
	l-0.07-0.03l0.04-0.15l0.08-0.13 M101.44,295.88l-0.39,0.53 M101.99,295.62h-0.03l-0.29,0.07l-0.23,0.19 M94.81,277.25l0.04-0.01
	l0.26-0.08l0.46-0.15l0.59-0.19l0.63-0.21l0.57-0.19l0.43-0.14l0.22-0.07l0.02-0.01 M115.39,300.07L115.39,300.07l-0.11,0.15
	 M115.29,300.21l-0.24,0.33l-0.34,0.47l-0.39,0.53l-0.38,0.52l-0.31,0.42l-0.19,0.27l-0.05,0.07 M101.06,286.6l0.39,1.19
	 M101.56,285.07l-0.21,0.06 M101.44,287.78l0.26,0.56l0.33,0.37l0.41,0.23l0.41,0.07l0.47-0.08 M101.06,286.6l-0.12-0.71l0.04-0.31
	l0.11-0.27l0.12-0.12l0.15-0.05 M101.56,285.07l0.17-0.21l-0.02-0.32l-0.03-0.07 M100.5,280.63l2.2,3.85l1.26,1.67l0.62,0.61
	l0.62,0.45l1.17,0.45 M112.4,296.79l-1.03-1.08l-1.56-1.84l-0.71-1.1 M107.66,292.69l-0.7,0.37l-0.23,0.27l-0.11,0.34l0.05,0.33
	l0.2,0.38l0.5,0.55l0.3,0.24 M109.78,294.9l-0.18-0.11l-0.16,0.05l-0.15,0.22l-0.09,0.2 M109.21,295.27l-0.11,0.16l-0.18,0.11
	l-0.23,0.05l-0.26-0.02l-0.37-0.13l-0.2-0.13 M107.85,295.3l-0.19-0.14 M105.89,287.82l-0.11,0.04 M105.78,287.86l-0.11,0.07
	l-0.15,0.1l-0.18,0.12l-0.29,0.17l-0.44,0.21l-0.27,0.1 M104.34,288.61l-1.01,0.33 M107.66,292.69l0.18-0.06 M107.84,292.63
	l0.42-0.13l0.15-0.04 M108.41,292.45l0.22-0.07 M114.68,288.68l-0.2-0.01l-0.22-0.15l-0.2-0.26l-0.15-0.33l-0.08-0.36l0.01-0.33
	l0.09-0.24l0.16-0.13 M115.39,288.45l-0.03,0.28l-0.16,0.44l-0.29,0.23 M114.92,289.4l-0.36-0.02l-0.39-0.26l-0.35-0.46l-0.27-0.6
	l-0.14-0.64l0.01-0.58l0.16-0.44l0.29-0.23l0.36,0.02l0.39,0.26l0.19,0.21 M92.42,121.06l-0.33,0.48l-0.19,0.64v0.46 M98.14,126.53
	l-0.01-0.03l-0.16-0.25l-0.25-0.16 M96.78,125.94L96.78,125.94l0.01-0.07l0.16-0.01l0.15,0.04 M97.73,126.1l-0.62-0.2 M98.05,140.66
	L98.05,140.66l-0.17-0.06 M97.88,140.6l-0.39-0.13l-0.55-0.18l-0.63-0.2l-0.61-0.2l-0.5-0.16l-0.31-0.1l-0.08-0.03 M113.39,114.04
	l0.03,0.04l0.16,0.22l0.29,0.39l0.36,0.5l0.39,0.54l0.35,0.49l0.27,0.37l0.14,0.19l0.01,0.02 M102.68,131.02l-0.57-0.55l-0.32-0.14
	h-0.36l-0.3,0.15l-0.3,0.31l-0.36,0.64l-0.13,0.35 M105.42,123.6l-0.45,0.43l-0.25,0.43l-0.09,0.46l0.06,0.41l0.22,0.42
	 M101.23,133.73l0.05-0.21l-0.1-0.14l-0.26-0.07l-0.22-0.02 M100.71,133.29l-0.18-0.05l-0.16-0.14l-0.12-0.21l-0.06-0.26l0.01-0.39
	l0.06-0.23 M100.25,132.01l0.07-0.23 M100.25,136.8l0.71-1.32l1.27-2.05l0.83-1.02 M106.43,122.86l-1.01,0.73 M106.43,122.86
	l0.64-0.33l0.31-0.06l0.29,0.02l0.15,0.08l0.1,0.12 M108.04,122.87l-0.12-0.18 M108.04,122.87l0.25,0.09l0.3-0.12l0.06-0.05
	 M111.94,120.49l-2.98,3.29l-1.2,1.71l-0.39,0.78l-0.23,0.73l-0.07,1.25 M106.77,127.84l-0.07-0.09 M106.69,127.75l-0.1-0.08
	l-0.14-0.12l-0.17-0.14l-0.25-0.23l-0.33-0.36l-0.17-0.22 M105.53,126.61l-0.62-0.86 M102.68,131.02l0.11,0.16 M102.8,131.18
	l0.26,0.36l0.09,0.13 M103.14,131.67l0.13,0.18 M108.66,136.47l-0.05-0.2l0.07-0.25l0.18-0.27l0.27-0.24l0.32-0.18l0.31-0.09
	l0.26,0.01l0.17,0.11 M109.1,137.07l-0.27,0.06l-0.47-0.02l-0.31-0.2 M108.05,136.91l-0.1-0.35l0.13-0.45l0.33-0.48l0.49-0.44
	l0.57-0.33l0.56-0.17l0.47,0.02l0.31,0.2l0.1,0.35l-0.13,0.45l-0.14,0.24 M340.43,121.07l0.12,0.14l0.31,0.58l0.1,0.65l-0.02,0.19
	 M321.56,121.15l-0.94-0.95 M335.12,126.1l-0.28,0.19l-0.13,0.24 M335.75,125.89l-0.62,0.2 M335.75,125.89l0.28-0.04l0.04,0.05
	l-0.02,0.04 M334.8,140.66l0.04-0.01l0.26-0.09l0.46-0.15 M335.57,140.41l0.59-0.19l0.63-0.21l0.57-0.19l0.43-0.14l0.22-0.07
	l0.02-0.01 M319.46,114.04L319.46,114.04l-0.11,0.14l-0.24,0.33l-0.34,0.47l-0.39,0.53l-0.38,0.52l-0.31,0.42l-0.19,0.27l-0.05,0.07
	 M332.6,132l0.08,0.47l-0.01,0.15 M332.67,132.63l-0.07,0.28l-0.14,0.22l-0.17,0.12l-0.15,0.03 M332.13,133.28l-0.17,0.01
	l-0.34,0.08l-0.07,0.15l0.04,0.14 M325.7,126.93l-0.54-1.36l-0.95-1.44l-2.65-2.98 M332.53,131.79l0.07,0.22 M327.95,125.75
	l0.23-0.48l0.04-0.45l-0.13-0.46l-0.25-0.38l-0.41-0.37 M332.53,131.79l-0.4-0.86l-0.27-0.33l-0.34-0.23l-0.32-0.05l-0.35,0.09
	l-0.48,0.37l-0.2,0.25 M324.22,122.81l0.02,0.02l0.34,0.13l0.24-0.11 M324.82,122.85l0.1-0.17 M324.93,122.68l0.09-0.12l0.15-0.08
	l0.19-0.03l0.32,0.04l0.46,0.19l0.27,0.17 M327.43,123.6l-1.01-0.73 M329.89,132.44l0.79,0.99l0.82,1.33l0.92,1.66l0.15,0.28
	 M329.57,131.86l0.14-0.19l0.22-0.32l0.12-0.17 M330.05,131.19l0.12-0.16 M327.95,125.75l-0.62,0.86 M327.32,126.61l-0.43,0.5
	l-0.24,0.22l-0.24,0.21l-0.15,0.12l-0.1,0.09 M326.04,127.89l0.11-0.14 M323.75,137.07l0.05,0.02l0.52,0.06 M324.32,137.14
	l0.38-0.13l0.19-0.3l-0.04-0.42l-0.25-0.48l-0.43-0.46l-0.54-0.38l-0.57-0.24l-0.52-0.06l-0.38,0.13l-0.19,0.3l0.04,0.42l0.22,0.43
	 M324.19,136.47l0.05-0.11l-0.02-0.23l-0.14-0.27l-0.24-0.26l-0.3-0.21l-0.32-0.13l-0.29-0.03l-0.21,0.07l-0.06,0.06 M337.83,299.37
	l-0.1,0.16l-0.46,0.47l-0.59,0.29l-0.18,0.05 M331.92,281.44l0.61-1.18 M331.41,295.88l-0.26-0.21l-0.27-0.05 M331.79,296.41
	l-0.39-0.53 M331.79,296.41l0.12,0.26l-0.04,0.06l-0.04-0.01 M317.46,300.07l0.03,0.04l0.16,0.22l0.28,0.39 M317.93,300.72l0.37,0.5
	l0.39,0.54l0.36,0.49l0.27,0.37l0.14,0.19l0.01,0.02 M338.03,277.25L338.03,277.25l-0.17-0.06l-0.39-0.13l-0.55-0.18l-0.63-0.2
	l-0.61-0.2l-0.5-0.16l-0.31-0.1l-0.08-0.03 M329.52,288.94l0.53,0.08l0.44-0.1l0.4-0.27l0.29-0.36l0.23-0.51 M331.16,284.49
	l-0.01,0.03l-0.02,0.36l0.18,0.19 M331.31,285.08l0.19,0.05 M331.41,287.78l0.39-1.19 M331.5,285.13l0.14,0.05l0.12,0.12l0.09,0.17
	l0.06,0.31l-0.04,0.5l-0.08,0.31 M325.19,295.17l0.7-0.65l0.23-0.36l0.11-0.39l-0.04-0.32l-0.2-0.31l-0.5-0.35l-0.3-0.12
	 M327.7,287.17l1.13-0.94l1.08-1.35l2.01-3.44 M325.19,295.17l-0.18,0.13 M325.01,295.3l-0.42,0.22l-0.15,0.04 M324.44,295.56
	l-0.29,0.02l-0.26-0.07l-0.17-0.12l-0.08-0.13 M323.65,295.25l-0.06-0.16l-0.18-0.29l-0.16-0.02l-0.12,0.09 M323.76,292.86
	l-0.7,1.05l-1.01,1.19l-1.29,1.39l-0.22,0.23 M324.21,292.38l0.22,0.07l0.37,0.11l0.2,0.06 M325,292.62l0.19,0.06 M329.52,288.94
	l-1.01-0.33 M328.51,288.61l-0.61-0.26l-0.29-0.16l-0.27-0.17l-0.16-0.1l-0.11-0.07 M326.9,287.79l0.17,0.06 M317.46,288.45v0.05
	l0.1,0.51 M317.56,289.01l0.24,0.32l0.34,0.08l0.39-0.16l0.38-0.39l0.31-0.55l0.19-0.63l0.05-0.62l-0.1-0.51l-0.24-0.32l-0.34-0.08
	l-0.39,0.16l-0.35,0.35 M318.17,288.68l0.12,0.01l0.21-0.09l0.21-0.22l0.17-0.31l0.11-0.35l0.03-0.34l-0.06-0.28l-0.13-0.18
	l-0.07-0.04 M167.45,351.99l-0.18-0.04l-0.59-0.29l-0.46-0.47l-0.1-0.16 M182.67,340.84l1.32,0.22 M168.79,344.81l0.12-0.32
	l-0.04-0.27 M168.4,345.34l0.39-0.53 M168.4,345.34l-0.21,0.2l-0.07-0.02l-0.01-0.04 M160.49,332.84l-0.03,0.04l-0.16,0.22
	l-0.29,0.39 M160.02,333.49l-0.37,0.5l-0.39,0.54l-0.36,0.49l-0.27,0.37l-0.14,0.19l-0.01,0.02 M188.55,345.36L188.55,345.36v-0.18
	v-0.41v-0.58v-0.66v-0.64v-0.52v-0.33v-0.09 M167.55,338.68l0.83,0.46l0.41,0.11l0.4-0.01l0.29-0.14l0.23-0.28l0.17-0.58l0.02-0.32
	 M174.8,340.87l0.09,0.52l0.23,0.39l0.38,0.3l0.43,0.16l0.55,0.06 M167.55,338.68l-0.18-0.13 M167.36,338.54l-0.34-0.34l-0.08-0.13
	 M166.94,338.08l-0.1-0.27l-0.01-0.26l0.07-0.2l0.1-0.11 M166.99,337.23l0.13-0.11l0.22-0.27l-0.03-0.16l-0.12-0.09 M175.93,338.6
	l1.24,0.78l1.61,0.61l3.89,0.85 M179.54,341.06h-0.03l-0.35,0.09l-0.13,0.23 M179.03,341.38l0.01,0.2 M179.04,341.58v0.15
	l-0.08,0.15l-0.14,0.14l-0.28,0.15l-0.49,0.12l-0.32,0.02 M176.49,342.31h1.25 M169.3,336.6l-1.21-0.34l-1.45-0.59l-1.73-0.8
	l-0.28-0.14 M169.89,336.88v0.23l0.01,0.38v0.21 M169.9,337.71v0.2 M174.8,340.87v-1.06 M174.8,339.81l0.05-0.66l0.06-0.32
	l0.08-0.31l0.05-0.18l0.03-0.13 M175.08,338.02l-0.01,0.18 M171.54,329.99l0.02,0.11l0.15,0.18l0.27,0.13l0.35,0.07l0.37-0.01
	l0.34-0.08l0.25-0.14l0.13-0.18l0.01-0.08 M171.54,329.25l-0.05,0.02l-0.45,0.26 M171.04,329.52l-0.23,0.33l0.02,0.35l0.28,0.32
	l0.49,0.24l0.62,0.12l0.66-0.01l0.6-0.14l0.45-0.26l0.23-0.33l-0.02-0.35l-0.28-0.32l-0.43-0.22 M64.75,206.21l-0.01-0.19l0.1-0.65
	l0.31-0.58l0.12-0.14 M80.07,217.25l0.2,1.32 M71.38,205.07l0.62,0.2 M71.38,205.07l-0.25-0.14l-0.01-0.07l0.04-0.02 M72,205.27
	l0.34,0.01l0.25-0.12 M77.59,224.23L77.59,224.23l0.17-0.06l0.39-0.12l0.55-0.18l0.63-0.2l0.61-0.2l0.5-0.16l0.31-0.1l0.08-0.03
	 M80.82,193.68l-0.04-0.01l-0.26-0.08l-0.46-0.15 M80.06,193.43l-0.59-0.19l-0.63-0.21l-0.57-0.19l-0.43-0.14l-0.22-0.07l-0.02-0.01
	 M76.76,211.82l0.39,1.19 M78.43,213.95l-0.18,0.07 M77.6,209.77l-0.47,0.25l-0.3,0.34l-0.17,0.45l-0.02,0.46l0.11,0.54
	 M80.12,210.14l-0.36,1.42l-0.08,1.72l0.39,3.97 M78.89,214.33l-0.01-0.03l-0.2-0.31l-0.26-0.05 M78.24,214.02l-0.14,0.04
	l-0.17-0.03l-0.17-0.09l-0.23-0.22l-0.26-0.43l-0.12-0.3 M77.45,202.19l-0.18,0.93l0.02,0.43l0.14,0.38l0.22,0.23l0.34,0.13
	l0.61-0.01l0.31-0.08 M77.45,202.19l0.07-0.22 M77.52,201.98l0.21-0.43l0.1-0.12 M77.83,201.43l0.22-0.18l0.25-0.1h0.21l0.14,0.06
	 M78.65,201.21l0.14,0.09l0.32,0.13l0.14-0.08l0.05-0.14 M79.97,203.36l-0.06-1.4l0.12-1.56l0.23-1.89l0.04-0.31 M79.88,203.87
	l-0.22,0.08l-0.36,0.13l-0.2,0.07 M79.1,204.14l-0.19,0.06 M77.6,209.77l1.01-0.33 M78.61,209.44l0.65-0.15l0.32-0.04l0.32-0.02
	l0.19-0.01l0.14-0.01 M80.34,209.18l-0.11,0.03 M86.94,203.31l-0.1,0.06l-0.12,0.2l-0.04,0.3l0.04,0.35l0.12,0.35l0.18,0.29
	l0.21,0.2l0.21,0.07l0.08-0.01 M87.65,203.08l-0.03-0.04l-0.38-0.35 M87.24,202.69l-0.38-0.12l-0.32,0.13l-0.22,0.36l-0.08,0.54
	l0.08,0.63l0.22,0.63l0.32,0.53l0.38,0.35l0.38,0.12l0.32-0.13l0.22-0.36l0.08-0.48 M301.29,188.12l0.15,0.28l0.08,0.54l-0.08,0.63
	l-0.22,0.63l-0.32,0.53l-0.38,0.35l-0.22,0.1 M297.02,174.99v-0.06l-0.13-0.45l-0.33-0.48l-0.49-0.44l-0.57-0.33l-0.56-0.17
	l-0.47,0.02l-0.05,0.02 M283.4,189.64l-0.11-0.7l-0.14-0.7l-0.18-0.69l-0.2-0.68l-0.23-0.67l-0.26-0.66l-0.29-0.65l-0.32-0.63
	 M286.06,181.03l0.29,0.16l0.48,0.11l0.47-0.05l0.37-0.19l0.33-0.34 M290.63,188.77l-0.53-0.07l-0.44,0.1l-0.4,0.27l-0.29,0.36
	l-0.12,0.26 M293.15,181.97l-0.38,0.75l-0.07,0.41l0.04,0.44l0.16,0.35l0.28,0.33l0.57,0.37l0.3,0.12 M284.42,187.38l0.09-0.57
	l-0.11-0.57l-0.27-0.45l-0.33-0.3 M273.52,177.27l0.01-0.02l0.14-0.19 M273.67,177.06l0.27-0.37l0.36-0.49l0.39-0.54l0.36-0.5
	l0.29-0.39l0.16-0.22l0.03-0.04 M280.93,200.08l0.12,0.04l0.35,0.11l0.52,0.17l0.62,0.2l0.62,0.2l0.52,0.17l0.35,0.11l0.12,0.04
	 M288.77,179.2l0.1-0.08l0.07-0.01l0.03,0.05l-0.03,0.16l-0.15,0.32l-0.15,0.22 M288.63,179.86l-0.62,0.86 M293.15,181.97l0.11-0.16
	 M293.27,181.81l0.22-0.29l0.06-0.07 M293.54,181.45l0.05-0.07 M294.76,184.95l-0.09-0.02l-0.24-0.07l-0.18-0.06 M294.25,184.8
	l-0.19-0.06 M290.63,188.77l1.01,0.33 M291.64,189.1l0.5,0.22l0.14,0.11l0.04,0.09l-0.05,0.03l-0.13-0.01 M288.74,189.93l0.06-0.17
	 M284.12,188.3l0.3-0.92 M284.12,188.3l-0.29,0.73l-0.15,0.29l-0.16,0.23l-0.07,0.08l-0.04,0.02l-0.01-0.01 M281.65,184.27
	l0.01-0.02l0.08,0.01l0.12,0.04l0.25,0.1l0.46,0.25l0.44,0.29 M283.81,185.5l-0.79-0.57 M285.95,180.98l-0.15-0.1 M273.14,274.75
	l0.06-0.02l0.39-0.26l0.35-0.46l0.27-0.6l0.14-0.64l-0.01-0.58l-0.16-0.44l-0.03-0.05 M261.97,282.87l-0.22,0.23l-0.49,0.24
	l-0.62,0.12l-0.66-0.01l-0.6-0.14l-0.45-0.26l-0.16-0.18 M265.3,273.23l-0.83-0.13l-0.41,0.06l-0.4,0.18l-0.29,0.26l-0.23,0.37
	l-0.17,0.65l-0.02,0.33 M262.96,275.68v-0.09l-0.01-0.26v-0.19 M262.95,275.14v-0.2 M258.05,272.93v1.06 M258.05,273.99l-0.05,0.55
	l-0.06,0.17l-0.08,0.07l-0.05-0.04l-0.03-0.12 M258.05,272.93l-0.09-0.52l-0.23-0.39l-0.38-0.3l-0.43-0.16l-0.28-0.03
	 M257.46,266.59l0.57-0.09l0.51-0.28l0.34-0.4l0.18-0.4 M264.01,266.19l-0.06,0.33l0.05,0.49l0.2,0.43l0.29,0.29l0.42,0.21
	 M254.99,266.32l0.63-0.32l0.62-0.35l0.6-0.38l0.58-0.4l0.57-0.43l0.55-0.45l0.53-0.48l0.5-0.5 M244.3,267.2v0.13v0.37v0.55v0.65
	v0.65v0.55v0.37v0.13 M263.71,253.1l0.02,0.01l0.22,0.07 M263.95,253.18l0.43,0.14l0.57,0.19l0.63,0.21l0.59,0.19l0.46,0.15
	l0.26,0.09l0.04,0.01 M266.58,268.2l0.1,0.07l0.03,0.06l-0.04,0.04l-0.16,0.02l-0.35-0.05l-0.25-0.07 M265.91,268.27l-1.01-0.33
	 M265.3,273.23l0.18,0.06 M265.49,273.29l0.34,0.12l0.08,0.03 M265.91,273.44l0.08,0.03 M259.56,263l0.03,0.01l0.02,0.08l0.01,0.13
	l-0.02,0.27l-0.09,0.51l-0.14,0.51 M259.06,265.43l0.3-0.92 M264.01,266.08l0.05-0.17 M256.36,271.49l0.18,0.01 M256.49,266.59h0.97
	 M256.49,266.59l-0.78-0.05l-0.33-0.06l-0.27-0.08l-0.1-0.05l-0.03-0.04l0.01-0.01 M159.71,274.74l-0.28-0.14l-0.38-0.39l-0.31-0.55
	l-0.19-0.64l-0.05-0.62l0.1-0.51l0.12-0.21 M170.88,282.86l0.04,0.05l0.37,0.29l0.55,0.19l0.65,0.07l0.65-0.07l0.55-0.19l0.37-0.29
	l0.03-0.05 M175.91,265.14l-0.46-0.27l-2.15-1.89 M169.9,274.94l-0.14-0.83l-0.18-0.38l-0.29-0.33l-0.33-0.19l-0.43-0.1l-0.67,0.04
	l-0.32,0.08 M167.95,267.95l0.47-0.25l0.3-0.34l0.17-0.45l0.02-0.46l-0.06-0.28 M166.85,273.47l0.08-0.03l0.24-0.09l0.18-0.06
	 M167.35,273.29l0.19-0.06 M167.95,267.95l-1.01,0.33 M166.94,268.27l-0.54,0.12l-0.18-0.01l-0.09-0.05l0.02-0.06l0.11-0.07
	 M175.08,274.6l-0.03,0.12l-0.05,0.05l-0.05-0.03l-0.07-0.14l-0.06-0.35l-0.01-0.26 M174.8,273.99v-1.06 M169.9,274.94v0.19
	 M169.9,275.13l-0.01,0.36v0.09 M169.89,275.58v0.08 M173.29,263l0.5,0.5l0.52,0.48l0.55,0.45l0.57,0.43l0.58,0.4l0.6,0.38
	l0.62,0.35l0.63,0.32 M176.2,271.53l-0.33,0.04l-0.46,0.2l-0.35,0.32l-0.19,0.37l-0.07,0.47 M169.14,253.1l-0.12,0.04l-0.35,0.11
	l-0.52,0.17l-0.62,0.2l-0.62,0.2l-0.52,0.17l-0.35,0.11l-0.12,0.04 M168.79,265.9l0.05,0.17 M173.49,264.5l0.3,0.92 M173.49,264.5
	l-0.2-0.76l-0.05-0.33l-0.01-0.28l0.01-0.11l0.02-0.04l0.01,0.01 M173.29,263l0.01,0.01 M173.79,265.43l0.26,0.51l0.42,0.4l0.48,0.2
	l0.44,0.05 M188.55,267.2v0.02v0.23 M188.55,267.46v0.45v0.6v0.66v0.62v0.48v0.28v0.05 M177.86,266.32v0.03l-0.07,0.04l-0.12,0.05
	l-0.27,0.07l-0.51,0.07l-0.53,0.02 M175.39,266.59h0.97 M176.31,271.5l0.18-0.01 M223.33,121.44l0.32-0.05l0.53,0.09l0.58,0.27
	l0.53,0.4l0.4,0.47l0.22,0.47l0.03,0.24 M209.52,121.44l-0.06-0.02l-0.47-0.02l-0.56,0.17l-0.57,0.33l-0.49,0.44l-0.33,0.48
	l-0.13,0.45v0.06 M214.97,127.28l0.6,0.59l0.37,0.2l0.43,0.09l0.38-0.04l0.4-0.17l0.52-0.42l0.21-0.25 M210.98,130.59l-0.04-0.11
	l0.01-0.07l0.06-0.01l0.14,0.07l0.25,0.24l0.16,0.21 M211.56,130.93l0.62,0.86 M214.97,127.28l-0.11-0.16 M214.85,127.12l-0.21-0.3
	l-0.05-0.08 M214.6,126.75l-0.05-0.07 M211.88,133.74l0.24-0.23l0.26-0.43l0.09-0.46l-0.06-0.41l-0.22-0.42 M213.59,138.95
	l2.82-0.27l2.85,0.26 M217.41,137.26L216.9,137l-0.57-0.07l-0.51,0.12l-0.39,0.22 M220.66,131.79l-0.23,0.48l-0.04,0.45l0.13,0.46
	l0.25,0.38l0.21,0.19 M219.25,138.93l-0.7-0.11l-0.71-0.08l-0.71-0.05l-0.71-0.02l-0.71,0.02l-0.71,0.05l-0.7,0.08l-0.7,0.11
	 M204.43,144.5l-0.01-0.02l-0.14-0.19 M204.28,144.29l-0.27-0.37l-0.35-0.49l-0.39-0.54l-0.37-0.5l-0.29-0.39l-0.16-0.22l-0.03-0.04
	 M228.42,144.5l0.08-0.11l0.22-0.3l0.33-0.45l0.38-0.53l0.38-0.53l0.32-0.45l0.22-0.3l0.08-0.11 M218.31,126.67l-0.05,0.08
	l-0.14,0.21l-0.11,0.16 M218,127.12l-0.12,0.16 M220.66,131.79l0.62-0.86 M221.29,130.93l0.37-0.41l0.15-0.1l0.1-0.01l0.02,0.06
	l-0.05,0.12 M221.18,133.93l-0.14-0.11 M218.2,137.83l-0.79-0.57 M218.2,137.83l0.6,0.5l0.23,0.24l0.17,0.22l0.05,0.1v0.05h-0.01
	 M219.25,138.93h-0.02 M213.62,138.93L213.62,138.93h-0.02 M213.6,138.93l-0.02-0.02l0.03-0.07l0.07-0.11l0.18-0.21l0.38-0.36
	l0.42-0.33 M215.44,137.26l-0.79,0.57 M211.81,133.82l-0.14,0.11 M261.2,63.5l-0.56-0.17l-0.66,0.02l-0.43,0.14 M257.76,70.63
	l0.02-0.01l0.19-0.23l0.07-0.29 M257.9,69.16L257.9,69.16l0.07-0.01l0.06,0.15l0.01,0.15 M258.05,70.1v-0.66 M244.3,74.91
	L244.3,74.91v-0.18 M244.3,74.73v-0.41v-0.58v-0.66v-0.64v-0.52v-0.33V71.5 M274.36,81.27l-0.03,0.04l-0.16,0.22l-0.29,0.39
	l-0.36,0.5l-0.39,0.54l-0.36,0.49l-0.27,0.37l-0.14,0.19l-0.01,0.02 M262.8,76.65l-0.54-0.3l-0.48-0.11l-0.47,0.06l-0.37,0.19
	l-0.34,0.34 M263.81,77.38l-1.01-0.74 M264.31,78.91l0.14-0.17 M264.31,78.91l-0.01,0.27l0.21,0.25l0.07,0.04 M263.81,77.38
	l0.51,0.5l0.16,0.27l0.07,0.28l-0.02,0.17l-0.09,0.13 M254.9,76.33l0.35-0.71l0.03-0.35l-0.11-0.34l-0.23-0.24l-0.38-0.2l-0.73-0.15
	l-0.38-0.02 M248.65,75.8l1.47,0.27l2.34,0.58l1.22,0.47 M267.77,81.89l-4.05-1.82l-2-0.61l-0.86-0.13h-0.76l-1.21,0.32
	 M251.87,75.79l0.21-0.02l0.1-0.13l-0.01-0.27l-0.05-0.22 M252.13,75.16v-0.19l0.08-0.2l0.16-0.18l0.22-0.14l0.37-0.11l0.24-0.02
	 M253.2,74.33h0.24 M259.18,79.24l0.07-0.1 M259.25,79.14l0.05-0.12l0.07-0.17l0.08-0.2l0.14-0.31l0.23-0.43l0.16-0.23
	 M259.98,77.67l0.62-0.86 M254.9,76.33l-0.11,0.16 M254.78,76.49l-0.27,0.35l-0.1,0.12 M254.42,76.97l-0.14,0.18 M251.13,84.31
	l-0.14-0.24l-0.13-0.45l0.1-0.35 M250.95,83.26l0.31-0.2l0.47-0.02l0.56,0.17l0.57,0.33l0.49,0.44l0.33,0.48l0.13,0.45l-0.1,0.35
	l-0.31,0.2l-0.47,0.02l-0.27-0.06 M251.57,83.7l0.17-0.11l0.26-0.01l0.31,0.09l0.32,0.18l0.27,0.24l0.18,0.27l0.07,0.25l-0.05,0.2
	 M131.56,188.11l-0.04,0.05l-0.16,0.44l-0.01,0.58l0.14,0.64l0.27,0.6l0.35,0.46l0.39,0.26l0.05,0.02 M135.83,174.98l0.05-0.32
	l0.25-0.48l0.43-0.46l0.54-0.38l0.57-0.24l0.52-0.06l0.23,0.05 M149.47,189.66l0.62-2.77l1.13-2.62 M138.79,184.74l0.75-0.39
	l0.3-0.29l0.22-0.38l0.08-0.38l-0.03-0.44l-0.24-0.63l-0.18-0.27 M143.98,189.67l-0.14-0.3l-0.33-0.37l-0.41-0.23l-0.41-0.07
	l-0.47,0.08 M140.58,189.55l-0.04-0.02l0.01-0.06l0.11-0.11l0.31-0.17l0.25-0.09 M141.21,189.1l1.01-0.33 M138.79,184.74l-0.18,0.06
	 M138.61,184.8l-0.35,0.1l-0.09,0.02 M138.18,184.93l-0.08,0.02 M139.25,181.38l0.05,0.07l0.16,0.2l0.11,0.15 M139.58,181.8
	l0.12,0.16 M144.84,180.72l-0.62-0.86 M144.22,179.86l-0.28-0.47l-0.05-0.17l0.02-0.1l0.06,0.01l0.1,0.08 M151.2,184.27l-0.32,0.63
	l-0.29,0.65l-0.26,0.66l-0.23,0.67l-0.2,0.68l-0.17,0.69l-0.14,0.7l-0.11,0.7 M144.84,180.72l0.38,0.37l0.42,0.18l0.48,0.02
	l0.44-0.12l0.25-0.14 M151.91,200.08l-0.02,0.01l-0.22,0.07 M151.67,200.16l-0.43,0.14l-0.57,0.19l-0.63,0.21l-0.59,0.19l-0.46,0.15
	l-0.26,0.08l-0.04,0.01 M149.46,189.62L149.46,189.62v0.02 M149.45,189.64l-0.02,0.01l-0.06-0.05l-0.08-0.1l-0.15-0.23l-0.23-0.47
	l-0.18-0.5 M148.43,187.38l0.3,0.92 M144.04,189.76l0.06,0.17 M149.04,185.5l-0.41,0.4l-0.25,0.52l-0.04,0.52l0.09,0.44
	 M159.33,177.27l-0.08-0.1l-0.22-0.3l-0.32-0.45l-0.38-0.53l-0.38-0.53l-0.32-0.45l-0.22-0.3l-0.08-0.11 M147.04,180.89l-0.15,0.1
	 M149.83,184.93l-0.79,0.57 M149.83,184.93l0.66-0.42l0.3-0.15l0.26-0.1l0.11-0.02l0.05,0.01v0.02 M151.2,184.27l-0.01,0.02
	 M171.66,63.5l0.17-0.07l0.65-0.11l0.65,0.11l0.18,0.07 M165.9,81.47l-1.19,0.6 M174.8,69.44v0.66 M174.8,69.44l0.05-0.28l0.06-0.03
	l0.03,0.03 M174.8,70.1l0.09,0.32l0.19,0.2 M158.49,81.27L158.49,81.27l0.11,0.15l0.24,0.33l0.34,0.47l0.39,0.53l0.38,0.52
	l0.31,0.42l0.19,0.27l0.05,0.07 M188.55,74.91v-0.05v-0.28v-0.49 M188.55,74.1v-0.62v-0.67v-0.6v-0.45v-0.23v-0.02 M172.25,76.81
	l-0.38-0.37l-0.42-0.18l-0.48-0.02l-0.44,0.12l-0.48,0.27 M179.41,74.33l-0.95,0.11l-0.4,0.15l-0.32,0.25l-0.15,0.28l-0.02,0.36
	l0.2,0.57l0.17,0.27 M172.68,79.32l-1.46,0.1l-1.66,0.46l-3.65,1.6 M179.41,74.33h0.23 M179.64,74.33l0.47,0.07l0.14,0.06
	 M180.26,74.45l0.24,0.16l0.17,0.2l0.06,0.2l-0.01,0.15 M180.71,75.17l-0.04,0.16l-0.02,0.35l0.12,0.11h0.15 M168.31,79.45
	l0.03-0.02l0.23-0.28l-0.04-0.26 M168.53,78.89l-0.13-0.15 M168.41,78.74l-0.08-0.12l-0.03-0.17l0.03-0.19l0.13-0.29l0.32-0.38
	l0.25-0.2 M170.05,76.65l-1.01,0.74 M179.21,77.04l1.18-0.44l1.52-0.37l1.87-0.36l0.31-0.05 M178.57,77.16l-0.14-0.19l-0.23-0.3
	l-0.13-0.17 M178.07,76.5l-0.12-0.17 M172.25,76.81l0.62,0.86 M172.87,77.67l0.35,0.57l0.14,0.3l0.12,0.3l0.07,0.17l0.05,0.13
	 M173.7,79.29l-0.1-0.15 M181.28,83.7l-0.09-0.08l-0.23-0.05l-0.3,0.05l-0.32,0.15l-0.29,0.22l-0.22,0.26l-0.12,0.26v0.22l0.04,0.07
	 M181.72,84.31l0.03-0.04l0.22-0.47 M181.97,83.79v-0.4l-0.22-0.27l-0.41-0.1l-0.53,0.09l-0.58,0.27l-0.53,0.4l-0.4,0.47l-0.22,0.47
	v0.4l0.22,0.27l0.41,0.09l0.48-0.08 M244.3,72.26h-55.75 M188.55,74.15h55.75 M166.05,350.9l-16.52,22.74 M151.06,374.75L167.59,352
	 M244.3,342.71h-55.75 M188.55,344.6h55.75 M283.32,373.64L266.8,350.9 M265.26,352.01l16.53,22.75 M113.84,302.21l45.1,32.77
	 M160.05,333.45l-45.1-32.77 M259.42,283.31v46.68 M261.31,329.99v-46.68 M79.97,323.1l16.52-22.74 M94.97,299.24l-16.53,22.75
	 M188.55,269.85h55.75 M244.3,267.96h-55.75 M336.36,300.36l16.52,22.74 M354.41,321.99l-16.53-22.75 M173.43,329.99v-46.68
	 M171.54,283.31v46.68 M273.91,334.98l45.1-32.77 M317.9,300.68l-45.1,32.77 M158.49,272.46l-44.39,14.42 M114.68,288.68
	l44.39-14.42 M318.75,286.88l-44.4-14.42 M273.77,274.25l44.39,14.42 M97.33,276.43L80.1,223.41 M78.31,224l17.23,53.02
	 M266.22,253.92l17.23-53.02 M281.65,200.32l-17.23,53.02 M149.4,200.9l17.23,53.02 M168.42,253.34l-17.23-53.02 M352.75,223.41
	l-17.23,53.02 M337.32,277.02L354.55,224 M87.53,205.11l44.39-14.42 M131.34,188.88L86.95,203.3 M300.93,190.68l44.39,14.42
	 M345.9,203.31l-44.39-14.42 M394.22,195.86l-26.73,8.69 M368.06,206.35l26.74-8.69 M202.87,142.36l-45.1,32.77 M158.88,176.65
	l45.1-32.77 M354.54,192.86l-17.23-53.02 M335.52,140.43l17.23,53.02 M137.63,173.12l-27.44-37.76 M108.66,136.47l27.44,37.76
	 M275.08,175.12l-45.1-32.77 M228.86,143.89l45.1,32.77 M65.36,204.55l-26.73-8.69 M38.04,197.66l26.74,8.69 M322.66,135.36
	l-27.44,37.76 M296.75,174.23l27.44-37.76 M95.53,139.84L78.3,192.86 M80.1,193.45l17.23-53.02 M225.66,122.58l27.44-37.76
	 M251.57,83.7l-27.44,37.76 M272.8,83.41l45.1,32.77 M319.01,114.65l-45.1-32.77 M65.2,114.09l26.73,8.69 M92.52,120.98l-26.74-8.69
	 M340.92,122.77l26.73-8.69 M367.07,112.29l-26.74,8.69 M114.95,116.18l45.1-32.77 M158.94,81.88l-45.1,32.77 M173.43,63.56V35.45
	 M171.54,35.45v28.12 M259.42,35.45v28.11 M261.31,63.57V35.45 M179.75,84.82l27.44,37.76 M208.72,121.47l-27.44-37.76
	 M365.65,208.85l0.83-0.36l0.78-0.63l0.52-0.71l0.27-0.71l0.02-0.22 M367.58,204.66l-0.11-0.12l-0.69-0.46l-0.88-0.28l-0.99-0.04
	l-0.86,0.2 M361.79,204.9l-0.53-0.34l-1.02-0.85l-0.68-0.74 M360.26,211.75l0.16-0.23l1.04-1.28l0.04-0.04 M364.05,203.93
	l-2.49,0.81 M360.8,210.45l4.86-1.58 M353.01,202.9v0.02l-0.11,0.27l-0.09,0.11 M352.03,193.68l-0.07,0.46l-0.04,0.46l-0.01,0.46
	l0.02,0.46l0.05,0.46l0.07,0.46l0.1,0.45l0.13,0.45 M357.22,195.75l-0.16-0.44l-0.18-0.43l-0.21-0.42l-0.24-0.4l-0.26-0.39
	l-0.28-0.37l-0.3-0.35l-0.33-0.33 M355.26,224.23l0.33-0.33l0.3-0.35l0.28-0.37l0.26-0.39l0.24-0.4l0.21-0.42l0.18-0.43l0.16-0.44
	 M352.28,219.51l-0.13,0.45l-0.1,0.45l-0.07,0.46l-0.05,0.46l-0.02,0.46l0.01,0.46l0.04,0.46l0.07,0.46 M360.35,205.38l-3.13-9.63
	 M352.28,197.35l1.24,3.81 M352.83,203.3L352.83,203.3l-0.28,0.3l-0.13,0.09 M353.95,214.37l-1.67,5.14 M357.22,221.11l3.41-10.49
	 M347.7,207.62l4.81,1.56 M352.98,203.87l-3.67-1.19 M344.83,205.63L344.83,205.63l0.82,0.85l1.04,0.7l1.02,0.42 M349.3,202.69
	l-0.17-0.07l-1.32-0.24l-1.22,0.04l-0.77,0.18 M262.14,350.48l0.6,0.68l0.84,0.55l0.84,0.28l0.76,0.04l0.21-0.05 M266.72,351.02
	l0.08-0.14l0.23-0.79l-0.01-0.92l-0.27-0.95l-0.46-0.76 M264.71,345.59l0.16-0.61l0.49-1.23l0.49-0.88 M257.72,346.25l0.27,0.08
	l1.54,0.6l0.05,0.02 M266.32,347.44l-1.54-2.12 M259.12,346.36l3,4.13 M263.9,336.62h-0.02l-0.29-0.02l-0.14-0.05 M244.3,345.36
	l0.42,0.21l0.43,0.18l0.44,0.15l0.45,0.13l0.45,0.1l0.46,0.07l0.46,0.04l0.46,0.01 M247.87,341.06l-0.46,0.01l-0.46,0.04l-0.46,0.07
	l-0.45,0.1l-0.45,0.13l-0.44,0.15l-0.43,0.18l-0.42,0.21 M263.45,336.57L263.45,336.57l-0.37-0.18l-0.12-0.09 M272.36,332.84
	l-0.46,0.08l-0.45,0.11l-0.45,0.13l-0.44,0.16l-0.43,0.19l-0.41,0.21l-0.4,0.24l-0.38,0.26 M271.99,338.41l0.37-0.28l0.35-0.31
	l0.33-0.33l0.31-0.35l0.29-0.37l0.26-0.38l0.24-0.4l0.21-0.41 M263.8,344.37l8.2-5.96 M268.94,334.21l-3.24,2.35 M253.27,341.06
	h-5.4 M247.87,346.25h11.03 M257.76,333.03v5.05 M262.96,336.89v-3.86 M258.77,329.68L258.77,329.68l-0.55,1.04l-0.35,1.2l-0.08,1.1
	 M262.94,333.03l0.01-0.18l-0.18-1.33l-0.42-1.15l-0.41-0.67 M95.45,295.8l-0.46,0.78l-0.26,0.96v0.89l0.2,0.74l0.11,0.19
	 M96.35,300.33l0.16,0.04l0.83-0.03l0.87-0.29l0.83-0.55l0.58-0.67 M98.11,290.29l0.01,0.28l-0.09,1.65l-0.01,0.06 M100.89,296.74
	l0.63-0.03l1.33,0.09l0.98,0.2 M99.64,298.84l1.54-2.12 M98.44,291.66l-3,4.13 M109.18,293.19l-0.01-0.02l-0.07-0.28l0.01-0.15
	 M94.81,277.25l-0.07,0.46l-0.04,0.46l-0.01,0.46l0.02,0.46l0.05,0.46l0.07,0.46l0.1,0.45l0.13,0.45 M100.01,279.32l-0.16-0.44
	l-0.18-0.43l-0.21-0.42l-0.24-0.4l-0.26-0.39l-0.28-0.37l-0.3-0.35l-0.33-0.33 M101.68,284.46l-1.67-5.14 M95.06,280.93l3.41,10.49
	 M109.09,292.75L109.09,292.75l0.05-0.41l0.05-0.14 M115.39,300.07l-0.21-0.41l-0.24-0.4l-0.26-0.38l-0.29-0.37l-0.31-0.35
	l-0.33-0.33l-0.35-0.31l-0.37-0.29 M109.97,301.45l0.38,0.26l0.4,0.24l0.41,0.21l0.43,0.19l0.44,0.16l0.44,0.13l0.45,0.1l0.46,0.08
	 M101.78,295.49l8.2,5.95 M113.03,297.24l-3.24-2.35 M110.7,286.25l-4.81,1.56 M108.63,292.38l3.67-1.19 M114.19,286.17
	L114.19,286.17l-1.16-0.2l-1.25,0.04l-1.07,0.26 M112.3,291.18l0.18-0.04l1.2-0.58l0.96-0.75l0.51-0.6 M95.95,120.38l-0.89-0.2
	l-1,0.05l-0.84,0.27l-0.64,0.42l-0.14,0.17 M91.92,122.63l0.01,0.16l0.28,0.78l0.54,0.74l0.78,0.62l0.82,0.34 M96.74,125.84
	l0.22,0.59l0.33,1.29l0.12,0.99 M102.01,121.2l-0.27,0.1l-1.6,0.42l-0.05,0.01 M94.35,125.3l2.49,0.81 M100.81,121.93l-4.86-1.58
	 M102.67,132.62l0.02-0.02l0.25-0.15l0.14-0.04 M98.05,140.66l0.33-0.33l0.3-0.35l0.28-0.37l0.26-0.39l0.24-0.4l0.21-0.42l0.18-0.43
	l0.16-0.44 M95.06,135.93l-0.13,0.45l-0.1,0.45l-0.07,0.46l-0.05,0.46l-0.02,0.46l0.01,0.46l0.04,0.46l0.07,0.46 M103.06,132.4
	L103.06,132.4l0.41-0.07l0.15,0.01 M113.39,114.04l-0.46,0.08l-0.45,0.11l-0.44,0.13l-0.44,0.16l-0.43,0.19l-0.41,0.21l-0.4,0.24
	l-0.38,0.26 M113.03,119.62l0.37-0.29l0.35-0.31l0.33-0.33l0.31-0.35l0.29-0.37l0.26-0.38l0.24-0.4l0.21-0.41 M98.2,126.3
	l-3.13,9.64 M100.01,137.54l1.24-3.8 M108.66,122.79l4.37-3.17 M109.97,115.41l-8.93,6.49 M109.74,131.93l-2.97-4.09 M103.27,131.85
	l2.27,3.12 M110.9,135.22L110.9,135.22l-0.17-1.17l-0.42-1.18l-0.58-0.94 M105.55,134.97l0.1,0.15l0.93,0.96l1.01,0.68l0.73,0.31
	 M338.5,125.29l0.92-0.43l0.75-0.64l0.49-0.72l0.25-0.71l0.01-0.15 M340.42,121.09l-0.21-0.22l-0.72-0.43l-0.9-0.24l-1,0.01
	l-0.69,0.16 M335.44,128.72l0.07-0.75l0.3-1.32l0.29-0.8 M332.76,121.72l-0.54-0.12l-1.39-0.41 M332.03,121.94L332.03,121.94h-0.12
	l-0.11-0.04 M336.01,126.11l2.49-0.81 M336.9,120.36l-4.86,1.58 M329.86,132.43l0.02,0.01l0.28,0.13l0.18,0.14 M332.84,137.54
	l0.16,0.44l0.18,0.43l0.21,0.42l0.23,0.4l0.26,0.39l0.28,0.37l0.3,0.35l0.33,0.33 M338.03,139.61l0.07-0.46l0.04-0.46l0.01-0.46
	l-0.02-0.46l-0.05-0.46l-0.07-0.46l-0.1-0.45l-0.13-0.45 M322.88,115.41l-0.38-0.26l-0.4-0.24l-0.41-0.21l-0.44-0.19l-0.44-0.16
	l-0.45-0.13l-0.45-0.11l-0.46-0.08 M317.46,116.79l0.22,0.41l0.24,0.4l0.26,0.38l0.29,0.37l0.31,0.35l0.33,0.33l0.35,0.31l0.37,0.29
	 M337.78,135.93l-3.13-9.64 M331.59,133.67l1.26,3.87 M325.7,126.93l0.01,0.07l0.02,0.14l0.02,0.2l0.02,0.26l0.01,0.31v0.33
	 M329.23,132.34l0.42,0.03l0.19,0.06 M319.82,119.62l4.4,3.2 M331.8,121.9l-8.92-6.49 M326.04,127.88l-2.93,4.04 M327.31,134.98
	l2.26-3.11 M324.53,137.1L324.53,137.1l1.06-0.52l0.99-0.77l0.71-0.84 M323.12,131.93l-0.12,0.14l-0.63,1.18l-0.34,1.17l-0.06,0.78
	 M333.22,298.84l0.7,0.74l0.84,0.52l0.84,0.25l0.75,0.02l0.15-0.04 M337.81,299.37l0.14-0.26l0.19-0.82l-0.05-0.93l-0.31-0.95
	l-0.36-0.61 M334.84,292.28l-0.05-0.55l-0.04-1.44 M329.01,296.99l0.74-0.16l1.35-0.12l0.86,0.03 M334.41,291.65L334.41,291.65
	l-0.04-0.11v-0.11 M331.67,296.73l1.54,2.12 M337.42,295.79l-3-4.13 M323.76,292.82v0.02l-0.04,0.3l-0.08,0.22 M319.82,297.24
	l-0.37,0.29l-0.35,0.31l-0.33,0.33l-0.31,0.35l-0.29,0.37l-0.26,0.38l-0.24,0.4l-0.22,0.41 M319.46,302.82l0.46-0.08l0.45-0.1
	l0.45-0.13l0.44-0.16l0.43-0.19l0.41-0.21l0.4-0.24l0.38-0.26 M337.78,280.93l0.13-0.45l0.1-0.45l0.07-0.46l0.05-0.46l0.02-0.46
	l-0.01-0.46l-0.04-0.46l-0.07-0.46 M334.8,276.2l-0.33,0.33l-0.3,0.35l-0.28,0.37l-0.26,0.39l-0.23,0.4l-0.21,0.42l-0.18,0.43
	l-0.16,0.44 M323.65,292.2l0.1,0.41v0.2 M332.84,279.32l-1.68,5.17 M334.38,291.42l3.41-10.49 M322.88,301.45l8.2-5.95
	 M323.11,294.85l-3.29,2.39 M326.9,287.79l-4.75-1.54 M320.55,291.19l3.66,1.19 M317.67,289.2L317.67,289.2l0.82,0.85l1.04,0.7
	l1.02,0.42 M322.15,286.26l-0.17-0.07l-1.32-0.24l-1.22,0.04l-0.76,0.18 M166.53,347.45l-0.49,0.89l-0.23,0.96l0.02,0.87l0.22,0.72
	l0.09,0.13 M167.45,351.98l0.3,0.06l0.84-0.07l0.87-0.34l0.81-0.59l0.47-0.54 M166.99,342.87l0.38,0.65l0.53,1.25l0.23,0.82
	 M173.27,346.96l0.51-0.22l1.36-0.48 M173.74,346.36L173.74,346.36l0.1-0.07l0.11-0.03 M168.06,345.32l-1.54,2.12 M170.73,350.49
	l3-4.13 M169.33,336.59l-0.02,0.01l-0.3,0.06l-0.23-0.01 M163.91,334.21l-0.38-0.26l-0.4-0.24l-0.41-0.21l-0.43-0.19l-0.44-0.16
	l-0.45-0.13l-0.45-0.11l-0.46-0.08 M158.49,335.59l0.21,0.41l0.24,0.4l0.26,0.38l0.29,0.37l0.31,0.35l0.33,0.33l0.35,0.31l0.37,0.28
	 M184.98,346.25l0.46-0.01l0.46-0.04l0.46-0.07l0.45-0.1l0.45-0.13l0.44-0.15l0.43-0.18l0.42-0.21 M188.55,341.95l-0.42-0.21
	l-0.43-0.18l-0.44-0.15l-0.45-0.13l-0.45-0.1l-0.46-0.07l-0.46-0.04l-0.46-0.01 M169.89,336.29l-0.36,0.22l-0.19,0.06
	 M160.86,338.41l8.2,5.96 M167.2,336.6l-3.29-2.39 M175.93,338.6l-0.05-0.05l-0.1-0.1l-0.14-0.15l-0.17-0.2l-0.19-0.24l-0.19-0.27
	 M184.98,341.06h-5.44 M173.95,346.25h11.03 M175.09,338.02v-4.99 M169.89,333.03v3.85 M170.89,329.68L170.89,329.68l-0.56,1.04
	l-0.35,1.2l-0.08,1.1 M175.07,333.03l0.01-0.18l-0.18-1.33l-0.42-1.15l-0.41-0.67 M68.79,203.94l-1-0.2l-0.99,0.08l-0.82,0.29
	l-0.61,0.43l-0.1,0.12 M64.77,206.21l0.04,0.3l0.33,0.78l0.59,0.73l0.81,0.58l0.65,0.28 M71.34,210.19l0.37,0.42l0.88,1.15
	 M73.29,202.96l-0.5,0.57l-1.02,0.89l-0.71,0.48 M72.06,210.45L72.06,210.45l0.1,0.07l0.06,0.09 M71.29,204.74l-2.49-0.81
	 M67.19,208.87l4.86,1.58 M79.98,203.25L79.98,203.25l-0.16-0.28l-0.06-0.23 M75.63,221.11l0.16,0.44l0.18,0.43l0.21,0.42l0.24,0.4
	l0.26,0.39l0.28,0.37l0.3,0.35l0.33,0.33 M80.82,223.18l0.07-0.46l0.04-0.46l0.01-0.46l-0.02-0.46l-0.05-0.46l-0.07-0.46l-0.1-0.45
	l-0.13-0.45 M80.57,219.51l-1.68-5.17 M72.22,210.62l3.41,10.49 M80.57,197.35l0.13-0.45l0.1-0.45l0.07-0.46l0.05-0.46l0.02-0.46
	l-0.01-0.46l-0.04-0.46l-0.07-0.46 M77.59,192.63l-0.33,0.33l-0.3,0.35l-0.28,0.37l-0.26,0.39l-0.24,0.4l-0.21,0.42l-0.18,0.43
	l-0.16,0.44 M80.44,203.68l-0.32-0.27L80,203.25 M80.11,210.14l0.03-0.06l0.06-0.12l0.1-0.18l0.14-0.22l0.17-0.26l0.2-0.27
	 M75.63,195.75l-3.13,9.63 M79.32,201.22l1.26-3.87 M80.34,209.18l4.81-1.56 M83.54,202.68l-3.66,1.19 M87.04,202.59L87.04,202.59
	l-1.17-0.2l-1.25,0.04l-1.07,0.26 M85.14,207.6l0.18-0.04l1.2-0.58l0.96-0.75l0.51-0.6 M293.63,181.52l-0.01-0.16 M296.82,191.07
	l0.17,0.07l1.32,0.23l1.22-0.04l0.77-0.18 M301.29,188.13l-0.82-0.84l-1.04-0.7l-1.02-0.42 M295.85,178.25l0.12-0.14l0.63-1.18
	l0.34-1.17l0.07-0.79 M294.42,173.09l-1.05,0.51l-0.99,0.77l-0.71,0.84 M294.8,184.96l-0.13-0.19l-0.55-1.08l-0.14-0.46
	 M293.96,183.22l-0.07-0.2l-0.24-1.21l-0.01-0.29 M288.05,192.11l0.44-0.41l1.38-1.03l1.48-0.78l0.96-0.35 M288.92,179.1l-0.79,0.24
	l-1.66,0.28l-1.73,0.01l-0.78-0.09 M286.1,181.07l-0.13-0.08 M288.82,189.74L288.82,189.74l0.06-0.13 M273.52,177.27l0.21,0.41
	l0.24,0.4l0.26,0.38l0.29,0.37l0.31,0.35l0.33,0.33l0.35,0.31l0.37,0.29 M278.94,175.89l-0.38-0.26l-0.4-0.24l-0.41-0.21l-0.43-0.19
	l-0.44-0.16l-0.45-0.13l-0.45-0.11l-0.46-0.08 M281.19,196.41l-0.13,0.45l-0.1,0.45l-0.07,0.46l-0.05,0.46l-0.02,0.46l0.01,0.46
	l0.04,0.46l0.07,0.46 M284.17,201.13l0.33-0.33l0.3-0.35l0.28-0.37l0.26-0.39l0.24-0.4l0.21-0.42l0.18-0.43l0.16-0.44
	 M291.66,175.21l-2.97,4.09 M293.59,181.39l2.27-3.12 M292.07,189.54l4.75,1.54 M298.42,186.14l-3.66-1.19 M286.13,198.01l2.68-8.25
	 M283.39,189.62l-2.2,6.79 M285.95,180.98l-7.02-5.1 M275.88,180.09l5.77,4.19 M265.88,273.54l0.15-0.06 M269.67,274.64l0.17,0.07
	l1.32,0.23l1.22-0.04l0.77-0.18 M274.13,271.69l-0.81-0.84l-1.04-0.7l-1.02-0.42 M257.78,279.53l-0.01,0.18l0.18,1.32l0.42,1.15
	l0.41,0.68 M261.96,282.87l0.55-1.04l0.35-1.2l0.08-1.1 M262.97,275.72l0.14-0.18l0.86-0.86l0.4-0.28 M264.36,274.38l0.17-0.13
	l1.08-0.6l0.27-0.1 M266.72,268.32l-0.47-0.68l-0.78-1.49l-0.54-1.64l-0.15-0.77 M254.08,271.5l0.53,0.29l1.4,1l1.2,1.17l0.63,0.81
	 M257.76,274.54v4.99 M262.96,279.53v-3.85 M256.57,271.5h0.01l0.14,0.02 M263.98,266.24l0.04-0.15 M247.87,266.31l-0.46,0.01
	l-0.46,0.04l-0.46,0.07l-0.45,0.1l-0.45,0.13l-0.44,0.15l-0.43,0.18l-0.42,0.21 M244.3,270.6l0.42,0.21l0.43,0.18l0.44,0.15
	l0.45,0.13l0.45,0.1l0.46,0.07l0.46,0.04l0.46,0.01 M263.71,253.1l-0.33,0.33l-0.3,0.35l-0.28,0.37l-0.26,0.39l-0.23,0.4l-0.21,0.42
	l-0.18,0.43l-0.16,0.44 M266.69,257.83l0.13-0.45l0.1-0.45l0.08-0.46l0.05-0.46l0.02-0.46l-0.01-0.46l-0.04-0.46l-0.07-0.46
	 M271.27,269.72l-4.81-1.56 M265.99,273.46l3.67,1.19 M264.01,266.08l2.68-8.25 M261.75,256.22l-2.21,6.79 M247.87,271.5h8.67
	 M255.01,266.31h-7.14 M161.59,269.73l-0.18,0.04l-1.2,0.58l-0.96,0.75l-0.52,0.6 M159.7,274.74l1.16,0.2l1.25-0.04l1.07-0.26
	 M169.78,275.59l0.1,0.12 M169.91,279.53l-0.01,0.18l0.18,1.32l0.42,1.15l0.41,0.67 M174.09,282.86l0.55-1.03l0.35-1.2l0.08-1.1
	 M168.51,274.4l0.18,0.12l0.91,0.84l0.18,0.23 M166.81,273.49l0.22,0.08l1.08,0.56l0.39,0.29 M168.07,263.73l-0.11,0.59l-0.52,1.64
	l-0.74,1.5l-0.57,0.85 M175.01,274.77l0.5-0.66l1.18-1.2l1.39-1.03l0.69-0.39 M168.84,266.1v0.01l0.03,0.13 M166.39,268.15
	l-4.81,1.56 M163.19,274.66l3.66-1.19 M175.09,279.53v-5.05 M169.89,275.67v3.86 M176.13,271.52l0.16-0.01 M171.1,256.22l-0.16-0.44
	l-0.18-0.43l-0.21-0.42l-0.23-0.4l-0.26-0.39l-0.28-0.37l-0.31-0.35l-0.32-0.33 M165.91,254.15l-0.07,0.46l-0.04,0.46l-0.01,0.46
	l0.02,0.46l0.04,0.46l0.08,0.46l0.1,0.45l0.13,0.45 M166.16,257.83l2.68,8.25 M173.3,263.01l-2.21-6.79 M188.55,267.2l-0.42-0.21
	l-0.43-0.18l-0.44-0.15l-0.45-0.13l-0.45-0.1l-0.46-0.07l-0.46-0.04l-0.46-0.01 M184.98,271.5l0.46-0.01l0.46-0.04l0.46-0.07
	l0.45-0.1l0.45-0.13l0.44-0.15l0.43-0.18l0.42-0.21 M176.31,271.5h8.67 M184.98,266.31h-7.13 M214.69,126.68l-0.15-0.04
	 M224.76,126.6l0.12-0.14l0.63-1.18l0.34-1.17l0.07-0.79 M223.34,121.44l-1.05,0.51l-0.99,0.77l-0.71,0.84 M212.27,123.57l-0.1-0.15
	l-0.93-0.96l-1.01-0.68l-0.73-0.3 M206.92,123.33l0.16,1.15l0.42,1.18l0.58,0.94 M216.41,126.9h-0.22l-1.23-0.14l-0.28-0.08
	 M218.32,126.64l-0.22,0.06l-1.2,0.19l-0.48-0.01 M223.03,135.27l-0.26-0.55l-0.55-1.63l-0.28-1.65l-0.03-1.02 M210.93,130.42
	l-0.02,0.83l-0.25,1.66l-0.53,1.65l-0.33,0.72 M208.08,126.61l2.97,4.09 M214.55,126.68l-2.27-3.12 M211.94,133.71l-0.12,0.1
	 M221.02,133.81L221.02,133.81l-0.11-0.1 M204.43,144.5l0.46-0.08l0.45-0.11l0.45-0.13l0.44-0.16l0.43-0.19l0.41-0.21l0.4-0.24
	l0.39-0.26 M204.79,138.92l-0.37,0.28l-0.35,0.31l-0.33,0.33l-0.31,0.35l-0.29,0.36l-0.27,0.38l-0.24,0.4l-0.21,0.41 M225,143.12
	l0.38,0.26l0.4,0.24l0.41,0.21l0.43,0.19l0.44,0.16l0.45,0.13l0.45,0.11l0.46,0.08 M230.42,141.75l-0.21-0.41l-0.24-0.4l-0.26-0.38
	l-0.29-0.36l-0.31-0.35l-0.33-0.33l-0.35-0.31l-0.37-0.28 M221.84,130.65l2.93-4.04 M220.57,123.56l-2.26,3.11 M228.06,138.92
	l-7.02-5.1 M219.23,138.93l5.77,4.19 M211.81,133.82l-7.02,5.1 M207.85,143.12l5.77-4.19 M262.94,66.64l-0.08-0.9l-0.35-0.93
	l-0.52-0.72l-0.59-0.48l-0.2-0.08 M259.55,63.5l-0.15,0.06l-0.65,0.51l-0.54,0.75l-0.35,0.93l-0.07,0.88 M264.03,72.66l-0.17-0.23
	l-0.89-1.39l-0.03-0.05 M257.99,69.08l-0.49,0.4l-1.12,0.71l-0.91,0.42 M257.76,66.64v2.62 M262.96,71.75v-5.11 M253.37,76.82
	l0.02,0.01l0.22,0.19l0.08,0.12 M253.7,77.12L253.7,77.12l0.2,0.36l0.04,0.15 M244.3,74.91l0.42,0.21l0.43,0.18l0.44,0.15l0.45,0.13
	l0.45,0.1l0.46,0.07l0.46,0.04l0.46,0.02 M247.87,70.61l-0.46,0.01l-0.46,0.04l-0.46,0.07l-0.45,0.1l-0.45,0.13l-0.44,0.15
	l-0.43,0.18l-0.42,0.21 M274.36,81.27l-0.21-0.41l-0.24-0.4l-0.26-0.38l-0.29-0.37l-0.31-0.35l-0.33-0.33l-0.35-0.31l-0.37-0.29
	 M268.94,82.65l0.38,0.26l0.4,0.24l0.41,0.21l0.43,0.19l0.44,0.16l0.45,0.13l0.45,0.11l0.46,0.08 M264.57,79.48l4.37,3.17
	 M271.99,78.44l-8.92-6.48 M258,70.61h-10.13 M247.87,75.8h4 M256.22,83.33l2.97-4.09 M254.28,77.15l-2.27,3.12 M253.44,85.45
	L253.44,85.45l1.06-0.52l0.99-0.77l0.71-0.84 M252.03,80.28l-0.12,0.14l-0.63,1.18l-0.34,1.17l-0.07,0.79 M134.43,186.16l-0.18,0.04
	l-1.2,0.58l-0.96,0.75l-0.52,0.6 M132.55,191.17l1.15,0.2l1.25-0.04l1.07-0.26 M138.14,184.82l-0.09,0.13 M141.18,175.22l-0.1-0.15
	l-0.93-0.96l-1.01-0.68l-0.73-0.31 M135.83,174.97l0.16,1.16l0.43,1.18l0.58,0.94 M139.22,181.35l-0.01,0.23l-0.19,1.2l-0.16,0.46
	 M138.88,183.25l-0.06,0.21l-0.52,1.12l-0.16,0.24 M140.53,189.54l0.78,0.27l1.5,0.75l1.41,1.01l0.58,0.53 M148.89,179.54l-0.6,0.07
	l-1.72,0.02l-1.66-0.24l-0.98-0.28 M143.97,189.61l0.06,0.14 M136.03,191.09l4.81-1.56 M138.1,184.95l-3.67,1.19 M144.13,179.25
	l-2.94-4.04 M136.99,178.26l2.26,3.11 M146.87,181L146.87,181l-0.13,0.07 M151.91,200.08l0.07-0.46l0.04-0.46l0.01-0.46l-0.02-0.46
	l-0.05-0.46l-0.07-0.46l-0.1-0.45l-0.13-0.45 M146.72,198.01l0.16,0.44l0.18,0.43l0.21,0.42l0.24,0.4l0.26,0.39l0.28,0.37l0.31,0.35
	l0.33,0.33 M144.04,189.76l2.68,8.25 M151.66,196.41l-2.2-6.79 M156.97,180.09l0.37-0.29l0.35-0.31l0.33-0.33l0.31-0.35l0.29-0.37
	l0.26-0.38l0.24-0.4l0.22-0.41 M157.33,174.51l-0.46,0.08l-0.45,0.11l-0.45,0.13l-0.44,0.16l-0.43,0.19l-0.41,0.21l-0.4,0.24
	l-0.38,0.26 M153.91,175.89l-7.02,5.1 M151.19,184.29l5.77-4.2 M175.08,66.64l-0.13-1.02l-0.38-0.91l-0.53-0.69l-0.6-0.45
	l-0.14-0.06 M171.68,63.51l-0.27,0.13l-0.64,0.55l-0.51,0.79l-0.3,0.95l-0.06,0.71 M177.39,70.61l-0.69-0.3l-1.16-0.69l-0.67-0.53
	 M169.91,70.99l-0.28,0.48l-0.82,1.19 M169.89,71.75L169.89,71.75l-0.04,0.11l-0.07,0.09 M175.09,69.26v-2.62 M169.89,66.64v5.11
	 M179.19,77.06l0.01-0.02l0.21-0.22l0.19-0.13 M160.86,78.44l-0.37,0.29l-0.35,0.31l-0.33,0.33l-0.31,0.35l-0.29,0.37l-0.26,0.38
	l-0.24,0.4l-0.21,0.41 M160.49,84.02l0.46-0.08l0.45-0.11l0.45-0.13l0.44-0.16l0.43-0.19l0.41-0.21l0.4-0.24l0.38-0.26 M184.98,75.8
	l0.46-0.02l0.46-0.04l0.46-0.07l0.45-0.1l0.45-0.13l0.44-0.15l0.43-0.18l0.42-0.21 M188.55,71.5l-0.42-0.21l-0.43-0.18l-0.44-0.15
	l-0.45-0.13l-0.45-0.1l-0.46-0.07l-0.46-0.04l-0.46-0.01 M178.92,77.64l0.16-0.39l0.12-0.16 M184.98,70.61h-10.13 M180.91,75.8h4.07
	 M163.91,82.65l4.4-3.2 M169.78,71.96l-8.92,6.48 M173.7,79.29l2.93,4.04 M180.83,80.27l-2.26-3.11 M181.99,83.57L181.99,83.57
	l-0.17-1.17l-0.42-1.18l-0.58-0.94 M176.64,83.32l0.1,0.16l0.93,0.96l1.01,0.68l0.72,0.3"/>
<path class="st3" d="M168.41,465.95l0.01-0.06l-0.07-0.18l-0.19-0.19l-0.29-0.18l-0.34-0.13 M167.52,465.2l-0.34-0.07l-0.29,0.01
	l-0.19,0.08l-0.06,0.08 M150.3,513.47l-0.34-0.13l-0.29-0.18l-0.2-0.19l-0.07-0.18l0.07-0.14l0.2-0.08l0.29-0.01l0.34,0.07
	l0.34,0.13l0.29,0.18l0.19,0.19l0.07,0.18l-0.07,0.14l-0.19,0.08l-0.29,0.01L150.3,513.47 M282.55,512.63l0.34-0.07l0.29,0.01
	l0.2,0.08l0.07,0.14l-0.07,0.18l-0.2,0.19l-0.29,0.18l-0.34,0.13l-0.34,0.07l-0.29-0.01l-0.19-0.08l-0.07-0.14l0.07-0.18l0.19-0.19
	l0.29-0.18L282.55,512.63 M266.21,465.3l-0.06-0.08l-0.2-0.08l-0.29-0.01l-0.34,0.07l-0.34,0.13l-0.29,0.18l-0.19,0.19l-0.07,0.18
	l0.01,0.06 M114.39,451.02h-0.04l-0.21,0.1 M114.14,451.12l-0.17,0.23l-0.11,0.32l-0.03,0.37l0.06,0.36l0.13,0.29l0.19,0.18
	l0.18,0.05 M261.31,414.21l-0.03-0.18l-0.15-0.29l-0.27-0.21 M260.86,413.52l-0.35-0.11l-0.37,0.01l-0.33,0.13l-0.25,0.23
	l-0.13,0.29l-0.01,0.13 M78.4,512.63l0.21-0.07l0.3,0.01l0.35,0.08l0.34,0.14l0.28,0.18l0.17,0.19l0.04,0.18L80,513.47l-0.21,0.07
	l-0.3-0.01l-0.35-0.08l-0.34-0.14l-0.28-0.18l-0.17-0.19l-0.04-0.18L78.4,512.63 M97.32,465.95l0.01-0.03l-0.04-0.18l-0.17-0.19
	l-0.28-0.18l-0.34-0.14l-0.35-0.08l-0.3-0.01l-0.21,0.07l-0.08,0.1 M337.31,465.3l-0.08-0.1l-0.21-0.07l-0.3,0.01l-0.35,0.08
	l-0.34,0.14l-0.28,0.18l-0.17,0.19l-0.04,0.18l0.01,0.03 M352.84,513.47l-0.09-0.13l0.04-0.18l0.17-0.19l0.28-0.18l0.34-0.14
	l0.35-0.08l0.3-0.01l0.21,0.07l0.09,0.13l-0.04,0.18l-0.17,0.19l-0.28,0.18l-0.34,0.14l-0.35,0.08l-0.3,0.01L352.84,513.47
	 M173.43,414.21l-0.01-0.13l-0.13-0.29l-0.25-0.23l-0.33-0.13l-0.37-0.01l-0.35,0.11l-0.27,0.21l-0.15,0.29l-0.02,0.18
	 M318.46,452.91l0.18-0.05l0.19-0.18l0.13-0.29l0.06-0.36l-0.03-0.37l-0.11-0.32l-0.17-0.23l-0.21-0.1h-0.04 M160.01,415l0.01-0.01
	l0.03-0.13l-0.06-0.23l-0.13-0.29l-0.19-0.31l-0.21-0.29l-0.21-0.21 M159.24,413.52l-0.17-0.11h-0.1 M273.88,413.42h-0.1l-0.17,0.11
	l-0.21,0.21l-0.21,0.29l-0.19,0.31l-0.13,0.29l-0.06,0.23l0.03,0.13l0.01,0.01 M79.2,451.02l-0.28,0.05l-0.3,0.18l-0.21,0.29
	l-0.09,0.36l0.04,0.37l0.17,0.32l0.28,0.23l0.34,0.1h0.06 M282.55,406.71l0.34-0.07l0.29-0.2l0.2-0.31l0.07-0.36l-0.07-0.36
	l-0.2-0.31l-0.29-0.21l-0.34-0.07 M150.3,404.82l-0.34,0.07l-0.29,0.21l-0.2,0.31l-0.07,0.36l0.07,0.36l0.2,0.31l0.29,0.2l0.34,0.07
	 M353.64,452.91h0.06l0.34-0.1l0.28-0.23l0.17-0.32l0.04-0.37l-0.09-0.36 M354.45,451.54l-0.21-0.29l-0.3-0.18l-0.28-0.05
	 M132.85,415l0.04-0.11l-0.04-0.21l-0.12-0.29l-0.18-0.31l-0.21-0.29l-0.21-0.23l-0.18-0.13l-0.12-0.01l0,0 M301.03,413.42
	L301.03,413.42l-0.12,0.01l-0.18,0.13l-0.21,0.23l-0.21,0.29l-0.18,0.31l-0.12,0.29l-0.04,0.21l0.04,0.11 M393.7,513.53l0.01,0.01
	l0.12-0.01l0.23-0.08l0.3-0.14l0.32-0.18l0.29-0.19l0.22-0.18l0.12-0.13 M395.32,512.63l0.01-0.06 M108.74,442.87l-0.11,0.18
	l-0.02,0.29l0.1,0.31l0.21,0.29l0.02,0.02 M37.52,512.57l0.01,0.06l0.12,0.13l0.22,0.18l0.29,0.19l0.32,0.18l0.3,0.14l0.23,0.08
	l0.12,0.01l0.01-0.01 M323.9,443.96l0.02-0.02l0.21-0.29l0.1-0.31l-0.02-0.29l-0.11-0.18 M251.65,444.17L251.65,444.17l0.23,0.13
	l0.29,0.01l0.32-0.11 M252.48,444.2l0.3-0.21l0.23-0.29l0.12-0.31v-0.29l-0.12-0.23 M64.68,512.57l0.02,0.07l0.14,0.14l0.24,0.18
	l0.3,0.19l0.32,0.18l0.29,0.13l0.21,0.07l0.1-0.01v-0.01 M366.54,513.53L366.54,513.53l0.11,0.01l0.21-0.07 M366.86,513.47
	l0.29-0.13l0.32-0.18l0.3-0.19l0.24-0.18l0.14-0.14l0.02-0.07 M171.54,513.05l0.01,0.08l0.13,0.18l0.25,0.14l0.34,0.08l0.37,0.01
	l0.35-0.07 M172.98,513.47l0.27-0.13l0.15-0.18l0.02-0.11 M259.42,513.05l0.02,0.11l0.15,0.18l0.27,0.13l0.35,0.07l0.37-0.01
	l0.34-0.08l0.25-0.14l0.13-0.18l0.01-0.08 M179.83,442.87l-0.12,0.23v0.29l0.12,0.31l0.23,0.29l0.3,0.21l0.32,0.11l0.29-0.01
	l0.22-0.13l0,0 M348.1,448.74l-0.48-0.5 M345.78,446.3l1.84,1.93 M363.77,465.22l-4.75-5 M345.78,446.3l0.65,0.6 M346.43,446.9
	l0.55,0.4 M346.48,442.07h-0.02l-0.27,0.11l-0.35,0.31l-0.39,0.47l-0.37,0.55l-0.29,0.55l-0.16,0.47l-0.01,0.31l0.02,0.04
	 M359.02,460.23l-0.63-0.66 M363.77,465.22l-0.96-1.28 M365.19,466.5L365.19,466.5l0.23-0.01l0.41-0.14l0.53-0.26l0.57-0.33
	l0.53-0.35l0.4-0.32l0.22-0.24l0.03-0.08 M360.61,460.14l0.39,0.72 M362.81,463.95l-1.82-3.09 M348.76,448.45l-1.78-1.16
	 M348.76,448.45l0.14,0.09 M361.17,455.37l-0.48-0.83 M360.69,454.54l-0.3-0.46l-0.3-0.35l-0.24-0.18l-0.16-0.05 M354.24,448.2
	l1.01,0.66 M355.95,449.36l-0.28-0.22l-0.42-0.29 M361.17,455.37l0.3,0.72l0.04,0.35l-0.07,0.35l-0.11,0.18l-0.17,0.13l-0.09,0.04
	 M361.07,457.14l-0.26,0.11l-0.28,0.22l-0.15,0.2 M352.62,448.31l0.13-0.19l0.18-0.14l0.22-0.07l0.34-0.01l0.48,0.15l0.27,0.15
	 M352.44,448.65l0.18-0.33 M360.39,457.67l-0.23,0.66l-0.01,0.27 M351.04,449.48l0.62-0.11l0.43-0.29l0.36-0.42 M354.17,455.12
	l-0.03-0.03 M354.17,455.12l0.63,0.67l0.92,0.97l1.32,1.39l1.34,1.41 M360.61,460.14l-0.38-0.98l-0.09-0.54 M350.26,451.02
	l-2.17-2.28 M352.22,453.08l-0.16-0.17 M348.9,448.54l1.31,0.71l0.53,0.19l0.29,0.04 M353.23,454.14l0.91,0.96 M356.76,454.53
	l0.51-0.01 M357.27,454.53l0.48-0.11l0.35-0.15l0.15-0.09 M358.25,454.17l0.16-0.12l0.17-0.12l0.15-0.11l0.21-0.14l0.26-0.13
	l0.19-0.04 M359.7,453.5h-0.3 M353.64,452.91l0.21-0.02l0.32-0.15l0.24-0.27 M354.41,452.46l0.12-0.35l-0.01-0.37l-0.15-0.34
	l-0.26-0.25l-0.33-0.13l-0.14-0.01 M352.3,452.91l0.03,0.05l0.46,0.45l0.59,0.23l0.63-0.02l0.57-0.28l0.43-0.49 M355.02,452.86
	l0.22-0.62l-0.02-0.66l-0.26-0.6l-0.46-0.45l-0.59-0.23l-0.63,0.02l-0.57,0.27l-0.4,0.43 M353.35,454.18l-0.12-0.04 M261.19,442.25
	l-0.17-0.07l-0.65-0.11l-0.65,0.11l-0.18,0.08 M268.78,454.56l-1.18,0.22 M264.3,448.81L264.3,448.81 M273.74,450.39l0.06,0.05
	l0.31,0.41l0.19,0.58l0.05,0.66l-0.1,0.64l-0.24,0.52l-0.27,0.28 M252.31,455.12l-0.15-0.03 M248.87,454.56l3.3,0.54 M262.95,448.09
	l0.14,0.54l0.18,0.27l0.14,0.13 M266.39,454.24l0.19-0.2 M264.9,453.31h1.01 M266.39,454.24l-0.23,0.23l-0.1,0.09l0.02-0.01
	 M264.9,453.31l-0.47,0.08l-0.3,0.2l-0.17,0.32l-0.02,0.32 M257.76,449.39l0.02-0.01l0.19-0.23l0.07-0.29 M257.9,447.91
	L257.9,447.91l0.07-0.01l0.06,0.15l0.01,0.15 M258.05,448.2v0.66 M262.95,448.09v-0.12 M262.95,447.97l0.01-0.18v-0.02
	 M266.58,454.04l-0.36,0.33l-0.33,0.36l-0.3,0.38l-0.27,0.41l-0.13,0.23 M265.91,453.31l0.54,0.1l0.18,0.13l0.09,0.19l-0.02,0.15
	l-0.11,0.16 M267.6,454.78l-1.93,0.49 M259.06,454.54l-0.26-0.46l-0.42-0.35l-0.48-0.18l-0.44-0.05 M244.3,453.66v-0.05v-0.28v-0.49
	 M244.3,452.86v-0.62v-0.66v-0.6v-0.47v-0.23v-0.02 M252.31,455.12l2.77,0.67l2.37,0.97l1.8,1.39l1.11,1.41 M254.39,454.53
	l0.37-0.01 M254.76,454.53l0.2-0.11l0.05-0.15l-0.02-0.09 M254.99,454.17v-0.12l0.07-0.12l0.12-0.11l0.27-0.14l0.52-0.13l0.53-0.04
	 M257.46,453.5h-0.97 M264.64,466.51l-0.46-0.02l-0.35-0.14l-0.12-0.26l0.12-0.33l0.35-0.35l0.52-0.32l0.62-0.24l0.62-0.12
	l0.52,0.01l0.35,0.15l0.12,0.25l-0.12,0.33l-0.35,0.35l-0.05,0.04 M264.44,465.95l-0.01-0.06l0.07-0.18l0.19-0.19l0.29-0.18
	l0.34-0.13l0.34-0.07l0.29,0.01l0.2,0.08l0.06,0.08 M263.91,454.13l-0.05-0.15 M259.36,455.37l-0.3-0.83 M259.36,455.37l0.2,0.72
	l0.05,0.35l0.01,0.35l-0.01,0.18l-0.02,0.13l-0.01,0.04 M259.56,457.14l-0.02,0.11l0.05,0.2 M114.06,446.63l-0.41,0.38
	 M115.36,444.89l0.02-0.04l-0.01-0.31l-0.16-0.47l-0.29-0.55 M114.92,443.52l-0.36-0.55l-0.39-0.47l-0.35-0.31l-0.27-0.11h-0.01
	 M107.84,447.97l0.42-0.18l0.15-0.02 M108.41,447.76l0.29,0.03l0.26,0.13l0.17,0.19l0.08,0.19 M109.2,448.29l0.06,0.24l0.18,0.57
	l0.16,0.26h0.01 M107.66,448.09l0.18-0.12 M100.92,462.17l-0.61,0.97 M107.66,448.09l-0.7,0.54l-0.23,0.27l-0.11,0.26l0.05,0.19
	l0.03,0.02 M99.61,464.24l0.7-1.11 M103.32,453.31l-0.53,0.08l-0.44,0.2l-0.4,0.32l-0.29,0.37l-0.23,0.47 M111.57,454.56l-0.93,0.22
	 M111.38,449.36l0.71-0.74l1.59-1.61 M112.86,447.6l0.79-0.59 M110.81,448.94l-0.05,0.03l-0.55,0.33l-0.04,0.02 M110.64,454.78
	l-2.91,0.85l-1.36,0.61l-1.23,0.79l-1.13,1.01l-1.08,1.24l-2.02,2.89 M95.54,465.3l0.08-0.1l0.21-0.07l0.3,0.01l0.35,0.08l0.34,0.14
	l0.28,0.18l0.17,0.19l0.04,0.18l-0.01,0.03 M95.34,465.87l-0.13-0.1l-0.31-0.35l-0.08-0.32l0.17-0.24l0.39-0.12l0.55,0.01l0.63,0.15
	l0.61,0.25l0.5,0.33l0.31,0.35l0.08,0.32l-0.17,0.24 M97.88,466.39l-0.39,0.12l-0.38,0.01 M101.49,459.31l0.21-0.67l0.02-0.62
	l-0.18-0.43 M101.54,457.59l-0.19-0.18 M101.35,457.41l-0.14-0.12l-0.12-0.18L101,456.9l-0.06-0.33l0.04-0.48l0.08-0.28
	 M101.44,454.74l-0.39,1.06 M103.32,453.31h1.01 M104.34,453.31l0.61,0.1l0.29,0.13l0.27,0.19l0.16,0.15l0.12,0.16 M105.95,454.24
	l-0.17-0.2 M105.95,454.24l0.44,0.23l0.55,0.09l0.17-0.01 M115.22,451.02l-0.18-0.34l-0.34-0.33l-0.39-0.08l-0.38,0.17l-0.31,0.41
	l-0.19,0.58l-0.05,0.66l0.1,0.64l0.24,0.52l0.34,0.33l0.39,0.08l0.38-0.18l0.31-0.41l0.08-0.17 M114.39,451.02h-0.04l-0.21,0.1
	l-0.17,0.23l-0.11,0.32l-0.03,0.37l0.06,0.36l0.13,0.29l0.19,0.18l0.18,0.05 M91.89,464.79l0.05,0.11l0.25,0.25l0.43,0.33l0.54,0.35
	l0.57,0.32l0.52,0.24 M94.26,466.39l0.38,0.12h0.17 M96.8,456.99l-0.02-0.09l0.02-0.33l0.08-0.25 M108.5,444.24l-0.14-0.17
	l-0.31-0.55 M108.05,443.52l-0.1-0.55l0.13-0.47l0.33-0.31l0.49-0.11l0.51,0.09 M108.95,443.96l-0.11-0.13l-0.17-0.31
	 M108.66,443.52l-0.05-0.31l0.07-0.26l0.06-0.08 M101.32,459.79l0.22-0.23 M109.11,455.12l0.11-0.03 M111.11,454.67l-1.88,0.43
	 M340.96,464.79v0.01l-0.13,0.19l-0.33,0.29l-0.49,0.34l-0.57,0.34l-0.56,0.29l-0.47,0.19l-0.31,0.07l-0.07-0.02 M335.96,456.3
	l0.07,0.17l0.04,0.32l-0.03,0.19 M329.84,447.81l0.09,0.04l0.12,0.11 M323.9,443.96l0.02-0.02l0.21-0.29l0.1-0.31l-0.02-0.29
	l-0.11-0.18 M324.35,444.24l0.35-0.5l0.19-0.56l-0.04-0.51l-0.25-0.38l-0.43-0.2l-0.54,0.02l-0.18,0.05 M319.42,454.14l0.05,0.01
	 M321.35,454.58l2.93,0.67 M324.28,455.24l0.67,0.18 M318.78,446.61l0.62,0.62 M317.49,444.89l-0.03-0.2l0.1-0.41 M317.56,444.28
	l0.24-0.53l0.34-0.56l0.39-0.51l0.38-0.38l0.31-0.2l0.11-0.02 M318.78,446.61l0.69,0.61 M326.15,449.36l0.08-0.14l-0.04-0.22
	l-0.2-0.28l-0.5-0.44l-0.3-0.2 M323.08,449.36l0.17-0.08l0.16-0.27l0.15-0.43l0.09-0.31 M323.64,448.28l0.11-0.23l0.19-0.17
	l0.23-0.1l0.26-0.02l0.37,0.09l0.2,0.11 M325,447.96l0.19,0.12 M331.41,454.74l-0.26-0.52l-0.33-0.39l-0.41-0.3l-0.41-0.16
	l-0.47-0.06 M333.2,464.18l-0.5-0.8 M332.69,463.38l-0.35-0.54 M319.4,447.24l2.08,2.14 M322.67,449.31l-0.12-0.06l-0.61-0.38
	l-0.02-0.01 M319.99,447.6l-0.52-0.37 M319.47,447.22L319.47,447.22 M321.85,454.69l-0.51-0.12 M321.17,454.54l0.17,0.04
	 M337.51,465.87l0.28-0.24l0.22-0.34l-0.02-0.29l-0.26-0.19l-0.46-0.07l-0.59,0.07l-0.63,0.19l-0.57,0.29l-0.43,0.34l-0.22,0.34
	l0.02,0.29l0.26,0.19l0.46,0.07l0.17-0.01 M337.31,465.3l-0.01-0.03l-0.15-0.11l-0.26-0.04l-0.33,0.04l-0.35,0.11l-0.32,0.16
	l-0.24,0.19l-0.12,0.19v0.13 M331.79,455.8l-0.39-1.06 M331.79,455.8l0.12,0.66l-0.04,0.32l-0.11,0.31l-0.12,0.18l-0.15,0.13
	 M331.29,457.62l0.21-0.21 M331.29,457.62l-0.17,0.45l0.02,0.54l0.19,0.64 M325.72,454.55l0.19,0.01l0.56-0.09l0.42-0.22
	 M326.89,454.25l0.18-0.21 M327.07,454.04l0.11-0.15l0.15-0.15l0.18-0.14l0.29-0.15l0.44-0.12l0.27-0.02 M328.51,453.31h1.01
	 M332.35,462.83l-2.2-3.22l-1.26-1.51l-0.62-0.61l-0.62-0.51l-1.3-0.81l-1.45-0.62l-3.04-0.86 M318.46,451.02l0.13,0.03l0.2,0.15
	l0.15,0.27l0.08,0.35l-0.01,0.37l-0.09,0.34l-0.16,0.25l-0.2,0.13l-0.09,0.01 M317.63,451.02l0.02-0.05l0.29-0.45 M317.93,450.51
	l0.37-0.23l0.39,0.02l0.36,0.27l0.27,0.49l0.14,0.62l-0.01,0.66l-0.16,0.6l-0.29,0.45l-0.37,0.23l-0.39-0.02l-0.36-0.28l-0.25-0.43
	 M171.66,442.25l0.56-0.17l0.66,0.02l0.44,0.15 M164.79,454.69l-0.63-0.12 M159.11,450.39l-0.2,0.19l-0.27,0.49l-0.14,0.62
	l0.01,0.66l0.16,0.6l0.29,0.45l0.14,0.12 M179.77,455.24l-0.91,0.18 M183.98,454.56l-4.21,0.68 M174.8,448.86l0.09,0.32l0.19,0.2
	 M169.72,448.7l0.16-0.41l0.02-0.2 M169.89,447.76L169.89,447.76l0.01,0.09v0.11 M169.9,447.96v0.12 M174.8,448.86v-0.66
	 M174.8,448.2l0.05-0.28l0.06-0.03l0.03,0.03 M166.77,454.51l-0.14-0.14l-0.36-0.33 M168.9,454.21l-0.05-0.39l-0.2-0.3l-0.29-0.16
	l-0.41-0.05 M175.39,453.5l-0.57,0.08l-0.51,0.25l-0.34,0.35l-0.18,0.36 M188.55,453.66L188.55,453.66v-0.18v-0.41v-0.58v-0.66
	v-0.64v-0.52v-0.33v-0.09 M172.32,460.03l0.82-1.23l1.65-1.64l2.08-1.13l1.99-0.61 M166.75,454.55l0.03,0.01l-0.1-0.09l-0.22-0.22
	 M166.47,454.25l-0.2-0.21 M166.27,454.04l-0.1-0.15l-0.03-0.15l0.04-0.14l0.16-0.15l0.35-0.12l0.25-0.02 M166.94,453.31h1.01
	 M167.37,455.31l-2.58-0.62 M176.36,453.5h-0.97 M176.36,453.5l0.78,0.09l0.33,0.11l0.27,0.17l0.1,0.12l0.03,0.13l-0.01,0.05
	 M177.86,454.17l-0.02,0.14l0.07,0.14l0.12,0.06 M178.03,454.51l0.4,0.03 M168.41,465.95v-0.13l-0.12-0.19 M168.29,465.63
	l-0.24-0.19l-0.32-0.16l-0.35-0.11l-0.33-0.04l-0.26,0.04l-0.14,0.11l-0.01,0.03 M168.21,466.51l0.17,0.01l0.46-0.07l0.26-0.19
	l0.02-0.29l-0.22-0.34 M168.9,465.63l-0.43-0.34L167.9,465l-0.63-0.19l-0.59-0.07l-0.46,0.07l-0.26,0.19l-0.02,0.29l0.22,0.34
	l0.28,0.24 M173.25,457.46l0.02-0.04l0.03-0.21l-0.02-0.07 M173.29,457.14l-0.03-0.1l-0.02-0.16l-0.01-0.19l0.02-0.33l0.09-0.53
	l0.14-0.47 M173.79,454.54l-0.3,0.83 M87.07,446.3l-1.77,1.86 M85.3,448.16l-0.89,0.93 M86.37,442.07l0.16,0.04l0.32,0.23l0.38,0.41
	l0.38,0.53l0.32,0.56l0.22,0.51l0.08,0.39l-0.03,0.15 M85.87,447.29l0.9-0.7l0.29-0.29 M73.29,460.79l-0.1,0.11 M69.07,465.22
	l4.11-4.32 M67.66,466.51l-0.07,0.01l-0.31-0.07l-0.47-0.19l-0.56-0.29l-0.57-0.34 M65.68,465.63l-0.49-0.34L64.86,465l-0.13-0.19
	v-0.01 M70.03,463.95l-0.96,1.27 M83.73,448.68l0.21-0.13 M83.95,448.55l1.93-1.25 M77.6,448.86l1.01-0.66 M77.6,448.86l-0.47,0.32
	l-0.23,0.18 M70.03,463.95l1.77-3.01 M71.81,460.93l0.28-0.52 M72.16,454.54l-0.49,0.83 M73.15,453.5l-0.21,0.08l-0.27,0.25
	l-0.27,0.35l-0.23,0.36 M80.4,448.63l-0.17-0.32 M78.61,448.2l0.65-0.28l0.32-0.03l0.32,0.08l0.19,0.14l0.14,0.2 M72.51,457.76
	l-0.26-0.34l-0.3-0.21l-0.17-0.07 M71.78,457.14l-0.18-0.1l-0.14-0.16l-0.08-0.19l-0.04-0.33l0.11-0.53l0.23-0.47 M72.69,458.52
	l-0.18-0.76 M80.4,448.63l0.37,0.45l0.42,0.29l0.46,0.11h0.17 M78.56,455.24l-0.18,0.18 M73.29,460.79l1.89-1.99l1.55-1.64
	l1.07-1.13l0.58-0.61 M72.69,458.52l-0.03,0.38l-0.41,1.19l-0.15,0.32 M80.79,452.91l-0.13,0.14 M84.41,449.1l-1.82,1.92
	 M81.82,449.49L81.82,449.49l0.64-0.16l1.27-0.65 M73.45,453.5h-0.3 M73.45,453.5l0.3,0.09l0.19,0.11l0.24,0.17l0.17,0.12l0.17,0.13
	l0.07,0.05 M74.6,454.17l0.23,0.14l0.36,0.14l0.27,0.06 M75.47,454.51l0.61,0.03 M79.62,454.14l-1.05,1.11 M79.2,452.91h-0.06
	l-0.34-0.1l-0.28-0.23l-0.17-0.32l-0.04-0.37l0.09-0.36l0.21-0.29l0.3-0.18l0.28-0.05 M79.62,454.14l-0.12,0.04 M80.55,452.91
	l-0.29,0.34l-0.55,0.33l-0.63,0.08l-0.61-0.18l-0.5-0.41l-0.31-0.58l-0.08-0.66l0.17-0.64l0.39-0.52l0.55-0.33l0.63-0.08l0.61,0.17
	l0.5,0.41l0.12,0.17 M293.98,415.22l-0.33-0.21 M294.9,415.65l0.13,0.01l0.57-0.11l0.56-0.31l0.43-0.42 M274.14,407.33l-0.14-0.12
	l-0.29-0.45l-0.02-0.05 M273.69,404.82l0.25-0.43l0.2-0.19 M276.52,407.87l-1.27-0.17 M276.52,407.87h2.87 M279.38,407.87l0.47-0.04
	 M297.25,415.04l-0.29-0.11 M290.63,406.86l-0.53-0.32l-0.44-0.24l-0.4-0.18l-0.29-0.1l-0.23-0.04 M293.12,414.53l0.53,0.47
	 M293.12,414.53l-0.88-1.04l-0.16-0.26 M288.36,405.98l0.38,0.16l0.39,0.17l0.4,0.18l0.41,0.19l0.42,0.2l0.42,0.21l0.43,0.21
	l0.43,0.22 M301.34,413.62l0.1-0.26l0.08-0.39l-0.08-0.2l-0.22,0.02l-0.33,0.23l-0.38,0.41l-0.38,0.53l-0.32,0.56l-0.22,0.51
	l-0.08,0.39l0.08,0.2l0.22-0.02l0.32-0.23l0.18-0.18 M296.09,414.23l1.02,0.54l0.39,0.15 M281.18,407.2l-0.21,0.22l-0.86,0.37
	l-0.26,0.05 M301.03,413.42L301.03,413.42l-0.12,0.01l-0.18,0.13l-0.21,0.23l-0.21,0.29l-0.18,0.31l-0.12,0.29l-0.04,0.21l0.04,0.11
	 M293.95,412.83l0.21,0.14 M294.17,412.98l1.93,1.25 M290.63,406.86l1.01,0.66 M291.64,407.52l0.5,0.47l0.14,0.28l0.04,0.32
	l-0.05,0.22l-0.13,0.21 M291.94,409.31l0.19-0.3 M291.94,409.31l-0.17,0.58l0.03,0.59l0.23,0.56l0.12,0.19 M292.15,411.23
	L292.15,411.23l0.55,0.61l1.25,0.99 M283.17,408.19L283.17,408.19 M278.42,408.84l3.48,1.04l1.8,0.59l0.81,0.29l0.75,0.29l1.42,0.61
	l1.42,0.68l2.7,1.43 M290.8,413.78l0.43,0.24 M292.89,414.92l-1.65-0.91 M292.53,414.7l0.14,0.1l0.22,0.13 M292.49,414.63l0.04,0.07
	 M292.54,414.62l-0.05,0.01 M292.66,414.65l-0.07-0.02l-0.05-0.01 M292.84,414.7l-0.1-0.03l-0.08-0.02 M293.04,414.78l-0.2-0.07
	 M293.42,414.94l-0.38-0.16 M293.76,415.1l-0.33-0.16 M293.98,415.22l-0.23-0.12 M293.66,415.04l0.32,0.18 M296.96,414.93
	l-2.77-0.98l-2.14-0.73l-1.48-0.46l-0.48-0.12l-0.29-0.04l-0.11,0.04l0.07,0.11l0.66,0.46l0.8,0.48l1.08,0.61l1.35,0.75
	 M296.62,414.75l-0.13-0.07 M296.44,414.64l0.05,0.04 M296.44,414.64L296.44,414.64 M296.46,414.62h-0.02l-0.01,0.01 M296.46,414.62
	l0.23,0.05 M297.25,414.84l-0.29-0.1l-0.27-0.08 M297.25,414.84L297.25,414.84 M297.5,414.92l-0.25-0.09 M297.5,414.92l-2.44-0.87
	 M295.06,414.05l-1.23-0.44 M293.83,413.61l-3.71-1.37l-1.6-0.64l-1.32-0.58l-1.04-0.53l-0.83-0.51l-1.21-0.95 M284.12,409.04
	l-0.32-0.29 M283.17,408.19l0.62,0.57 M283.22,408.24l-0.05-0.05 M283.23,408.29l-0.01-0.05 M281.77,407.7l1.64,1.49 M283.4,409.18
	l0.17,0.18 M279.88,409.01l1.95,0.51l1.35,0.25l0.51-0.1l-0.12-0.31 M279.88,409.01l-0.11-0.03 M275.25,407.7l4.52,1.29
	 M275.25,407.7l0.3,0.09 M275.93,407.91l-0.38-0.12 M276.33,408.06l-0.4-0.15 M276.52,408.15l-0.19-0.08 M276.67,408.22l-0.07-0.04
	l-0.08-0.04 M276.75,408.28l-0.03-0.03l-0.05-0.03 M276.76,408.31l-0.01-0.03 M276.62,408.31h0.13 M276.12,408.19l0.29,0.08
	l0.21,0.04 M276.12,408.19l1.73,0.49 M277.85,408.68l0.57,0.16 M283.61,408.36h0.74 M284.35,408.36h0.09 M285.85,408.27
	L285.85,408.27l-0.59,0.08l-0.81,0.02 M285.85,408.27l0.63-0.19l0.63-0.38l0.43-0.46 M287.53,407.23l0.17-0.31 M287.7,406.92
	l0.09-0.21l0.09-0.21l0.09-0.18l0.12-0.19l0.17-0.14l0.1-0.02 M288.74,405.98h-0.39 M282.55,404.82l0.34,0.07l0.29,0.21l0.2,0.31
	l0.07,0.36l-0.07,0.36l-0.2,0.31l-0.29,0.2l-0.34,0.07 M283.14,408.32L283.14,408.32l0.09-0.02v-0.01 M283.17,408.19l0.44,0.17
	 M281.77,407.7l0.02,0.02 M281.21,404.82l0.2-0.26l0.52-0.37l0.62-0.13l0.62,0.13l0.52,0.37l0.35,0.55l0.12,0.65l-0.12,0.65
	l-0.35,0.55l-0.52,0.37l-0.62,0.13 M282.55,407.46l-0.62-0.13l-0.52-0.37l-0.2-0.26 M250.17,409.04l-1.32-0.29 M246.26,408.19
	l2.6,0.57 M246.26,408.19L246.26,408.19 M269.98,415.04l0.48,0.18 M246.26,408.19l1.61,0.17 M244.3,404.06v0.13v0.37v0.55v0.65v0.65
	v0.55v0.37v0.13 M258.05,406.86l-0.09-0.32l-0.23-0.24l-0.38-0.18l-0.43-0.1l-0.55-0.04 M247.87,408.36h2.38 M250.25,408.36h0.27
	 M256.36,405.98h-1.25 M253.82,407.23l-0.01-0.31 M253.81,406.92v-0.21l0.08-0.21l0.14-0.18l0.28-0.19l0.49-0.14l0.32-0.02
	 M265.3,409.17l-0.83-0.45l-0.41-0.15l-0.4-0.07l-0.29,0.03l-0.23,0.13l-0.17,0.33l-0.02,0.19 M252.81,408.27l0.53-0.19l0.35-0.38
	l0.13-0.46 M270.46,415.22l-0.5-0.21 M273.15,415.2l-0.03,0.03l-0.36,0.31l-0.27,0.11l-0.14-0.11l0.01-0.31l0.16-0.47l0.29-0.55
	 M272.83,414.21l0.36-0.55l0.39-0.47l0.35-0.31l0.27-0.11l0.14,0.11l-0.01,0.31l-0.15,0.43 M265.3,409.17l0.18,0.12 M265.49,409.29
	l0.34,0.31l0.08,0.13 M265.91,409.73l0.1,0.28l0.01,0.3l-0.07,0.26l-0.1,0.17 M265.86,410.74l-0.13,0.19l-0.22,0.55l0.03,0.38
	l0.22,0.37l0.42,0.38 M272.84,415l-0.03-0.05l0.01-0.17l0.09-0.26l0.16-0.31 M273.06,414.21l0.2-0.31l0.22-0.26l0.2-0.17l0.15-0.06
	l0.04,0.01 M257.76,411.59l-0.84-0.56l-1.24-0.53l-1.61-0.51l-3.89-0.95 M252.81,408.27L252.81,408.27l-0.73,0.08l-1.56,0.02
	 M262.96,409.95v-0.22l-0.01-0.3v-0.14 M262.95,409.29v-0.12 M258.05,406.86v0.66 M258.05,407.52l-0.05,0.47l-0.06,0.28l-0.08,0.32
	l-0.05,0.22l-0.03,0.21 M257.77,409.31l0.01-0.3 M262.9,412.72l0.16,0.03l1.71,0.46l1.45,0.48l1.73,0.61l2.04,0.75 M269.11,414.53
	l0.85,0.47 M266.94,413.14l-0.05-0.03l-0.66-0.45l-0.05-0.04 M261.31,414.21l-0.03-0.18l-0.15-0.29l-0.27-0.21l-0.35-0.11
	l-0.37,0.01l-0.33,0.13l-0.25,0.23l-0.13,0.29l-0.01,0.13 M261.31,415.41l0.05-0.03l0.45-0.41 M261.81,414.97l0.23-0.53l-0.02-0.57
	l-0.27-0.51l-0.49-0.39l-0.62-0.2l-0.66,0.02l-0.6,0.23l-0.45,0.41l-0.23,0.53l0.02,0.56l0.27,0.51l0.43,0.36 M186.58,408.19
	l-2.26,0.49 M184.32,408.68l-0.74,0.16 M188.55,404.06v0.02v0.23v0.45v0.6v0.66v0.62v0.49v0.28v0.05 M184.98,408.36l0.63-0.03
	 M185.61,408.34l0.98-0.15 M162.37,415.23l0.79-0.29 M176.49,405.98l-0.62,0.05l-0.46,0.12l-0.35,0.2l-0.19,0.23l-0.07,0.29
	 M160.01,415l0.01-0.01l0.03-0.13l-0.06-0.23 M159.99,414.63l-0.13-0.29l-0.19-0.31l-0.21-0.29l-0.21-0.21l-0.17-0.11h-0.1
	 M184.98,408.36h-1.99 M177.73,405.98h-1.25 M177.73,405.98l0.71,0.12l0.29,0.16l0.22,0.24l0.08,0.2l0.01,0.22 M179.03,407.28
	l0.01-0.35 M166.68,412.6l0.4-0.38l0.22-0.42v-0.38l-0.16-0.42l-0.17-0.26 M166.97,410.74l-0.11-0.22l-0.05-0.26l0.02-0.26l0.1-0.26
	l0.24-0.3l0.18-0.14 M179.03,407.28l0.15,0.46l0.32,0.32l0.5,0.19 M167.35,409.29l0.19-0.12 M159.7,415.2l0.24,0.24l0.31,0.2
	l0.19-0.02l0.05-0.23l-0.1-0.41 M160.39,414.97l-0.24-0.53l-0.34-0.57l-0.39-0.51l-0.38-0.39l-0.31-0.2l-0.19,0.02l-0.05,0.23
	l0.1,0.41l0.07,0.17 M162.37,415.23l0.82-0.37 M163.74,414.53l0.06-0.03 M169.9,409.17l-0.14-0.45l-0.18-0.15l-0.29-0.07l-0.33,0.03
	l-0.43,0.13l-0.67,0.33l-0.32,0.19 M183.58,408.84l-4.34,1.04l-1.97,0.59l-0.77,0.29l-0.62,0.29l-0.79,0.55 M182.65,408.36
	l-1.79-0.02l-0.6-0.05l-0.26-0.05 M163.16,414.93l2.73-0.98l2.23-0.73l1.74-0.46l0.06-0.01 M166.68,412.6l-0.15,0.12l-0.73,0.5
	l-0.02,0.01 M163.74,414.53l-0.55,0.33 M163.19,414.86L163.19,414.86 M175.08,409.21v-0.2 M175.08,409.01l-0.03-0.2l-0.05-0.22
	l-0.05-0.22l-0.07-0.3l-0.06-0.37l-0.01-0.18 M174.8,407.52v-0.66 M169.9,409.17v0.12 M169.9,409.29l-0.01,0.31v0.13 M169.89,409.73
	v0.21 M171.54,414.21l0.07-0.31l0.2-0.26l0.31-0.17l0.36-0.06l0.36,0.06l0.31,0.17l0.21,0.26l0.07,0.31 M171.54,415.41l-0.26-0.18
	l-0.37-0.47l-0.13-0.55 M170.79,414.21l0.13-0.55l0.37-0.47l0.55-0.31l0.65-0.11l0.65,0.11l0.55,0.31l0.37,0.47l0.13,0.55
	l-0.13,0.55l-0.37,0.47l-0.26,0.18 M222.54,415.23l-0.46-0.29 M206.92,413.62v0.03l0.1,0.55l0.3,0.55l0.47,0.47l0.56,0.31l0.57,0.11
	l0.14-0.01 M225.93,413.63l-0.03,0.35l-0.22,0.56l-0.41,0.51l-0.53,0.39l-0.58,0.2l-0.36,0.01 M222.26,414.88l0.05,0.13l0.16,0.16
	 M222.46,415.17l0.07,0.05 M223.05,414.23l0.61,0.54l0.22,0.15 M209.44,414.57l0.36-0.34 M208.97,414.92l0.47-0.35 M221.74,412.83
	l0.12,0.14 M221.86,412.98l1.19,1.25 M210.9,413.07l-1.1,1.16 M210.9,413.07l0.08-0.1 M211.63,411.21l-0.14-0.73l-0.16-0.51
	 M221.53,409.94l-0.18,0.54l-0.13,0.56l-0.02,0.19 M214.65,404.58h0.44h0.44h0.44h0.44h0.44h0.44h0.44h0.44 M210.98,412.98
	l0.55-0.99l0.1-0.48v-0.29 M221.2,411.23L221.2,411.23l0.05,0.61l0.49,0.99 M227.84,408.19L227.84,408.19 M207.22,407.87h2.87
	 M210.08,407.87l0.52-0.04 M212.64,407.2l-0.4,0.22l-1.29,0.37l-0.34,0.05 M212.64,407.2l0.53-0.49 M213.82,404.82l0.03-0.04
	l0.38-0.16l0.42-0.04 M218.2,404.58l0.6,0.1l0.23,0.13l0,0 M219.68,406.71l0.35,0.37l0.28,0.19 M221.97,407.81l-1.07-0.27
	l-0.59-0.27 M221.97,407.81l0.73,0.06 M225.63,407.87h-2.94 M202.6,406.71l0.25,0.43l0.35,0.28l0.39,0.02l0.36-0.23l0.29-0.45
	l0.02-0.05 M204.26,404.82l-0.25-0.43l-0.35-0.27l-0.39-0.02l-0.37,0.23l-0.29,0.45l-0.02,0.05 M207.22,407.87l-1.33-0.17
	 M226.79,408.32L226.79,408.32l0.41-0.02l0.42-0.06 M227.62,408.24l0.17-0.04l0.05-0.01 M226.97,407.7l-1.33,0.17 M230.25,406.71
	l-0.12,0.26l-0.32,0.37l-0.38,0.13 M228.59,404.82l0.12-0.26l0.33-0.37l0.38-0.13l0.38,0.13l0.32,0.37l0.12,0.26 M229.42,407.46
	l-0.38-0.13l-0.33-0.37l-0.12-0.26 M207.56,408.84l3.54,1.04l1.4,0.59l0.44,0.29l0.25,0.29l0.01,0.61l-0.52,0.68l-1.93,1.43
	 M210.76,413.78l-0.37,0.24 M208.97,414.92l1.42-0.91 M209.51,414.7l-0.29,0.1l-0.25,0.13 M209.89,414.63l-0.39,0.07 M210.11,414.62
	l-0.21,0.01 M210.31,414.65l-0.1-0.02l-0.11-0.01 M210.47,414.7l-0.07-0.03l-0.08-0.02 M210.56,414.78l-0.09-0.07 M210.58,414.94
	l-0.02-0.16 M210.48,415.1l0.11-0.16 M210.33,415.22l0.15-0.12 M210.61,415.04l-0.28,0.18 M222.07,414.93l-1.64-0.98l-1.47-0.73
	l-1.34-0.46l-0.64-0.12l-0.62-0.04l-0.61,0.04l-0.62,0.11l-1.3,0.46l-0.95,0.48l-1.06,0.61l-1.21,0.75 M222.26,414.83l-0.01,0.05
	 M222.31,414.75l-0.05,0.08 M222.31,414.75l0.11-0.07 M222.55,414.64l-0.14,0.04 M222.55,414.64l0.04-0.01 M222.8,414.62h-0.11
	l-0.11,0.01 M222.8,414.62l0.41,0.05 M223.73,414.84l-0.23-0.1l-0.28-0.08 M223.73,414.84L223.73,414.84 M223.88,414.92l-0.15-0.09
	 M223.88,414.92l-1.37-0.87 M222.51,414.05l-0.68-0.44 M221.82,413.61l-1.78-1.37l-0.43-0.64l0.05-0.58l0.6-0.53l1.1-0.51l3.14-0.95
	 M224.51,409.04l1.12-0.29 M227.84,408.19l-2.21,0.57 M227.62,408.24l0.22-0.05 M226.79,408.32l0.43-0.02l0.4-0.06 M226.79,408.32
	l-0.28-0.03l-0.12-0.03 M226.27,408.19l0.05,0.04l0.07,0.03 M226.27,408.19l-0.04-0.06v-0.02 M226.33,407.95l-0.08,0.08l-0.03,0.08
	 M226.58,407.82l-0.25,0.13 M226.9,407.71l-0.32,0.11 M226.97,407.7l-0.06,0.02 M226.97,407.7l-5.8,1.49 M221.16,409.18l-0.81,0.18
	 M211.03,409.01l2.53,0.51l2.48,0.25l2.39-0.1l1.92-0.31 M211.03,409.01l-0.13-0.03 M205.88,407.7l5.02,1.29 M205.88,407.7l0.3,0.09
	 M206.45,407.91l-0.27-0.12 M206.61,408.06l-0.16-0.15 M206.62,408.15v-0.08 M206.54,408.22l0.05-0.04l0.03-0.04 M206.38,408.28
	l0.09-0.03l0.07-0.03 M206.18,408.31l0.2-0.03 M205.75,408.31h0.43 M205.01,408.19l0.37,0.08l0.37,0.04 M205.01,408.19l1.92,0.49
	 M206.94,408.68l0.63,0.16 M259.07,465.03L259.07,465.03 M259.13,464.64l-0.05,0.22 M259.08,464.86v0.13v0.04 M258.75,465.92
	l0.23,0.23l0.49,0.24 M259.47,466.39l0.62,0.12l0.66-0.01l0.6-0.14l0.45-0.26l0.16-0.17 M260.59,465.22l-0.04-1.28 M260.62,460.3
	l-0.07,0.56 M260.55,463.95v-3.09 M257.22,457.4l0.67,0.88l0.33,0.6 M255.6,448.45l-1.1-1.16 M255.6,448.45l0.09,0.09
	 M252.64,447.01h0.02 M253.01,442.87l0.06,0.08l0.07,0.26l-0.05,0.31l-0.17,0.31l-0.26,0.26l-0.31,0.17l-0.31,0.06l-0.27-0.06
	l-0.12-0.09 M253.72,446.3l0.43,0.6 M254.15,446.9l0.35,0.4 M253.16,447.6l-0.49-0.59 M252.34,442.16l0.51-0.09l0.49,0.11l0.33,0.31
	l0.13,0.47l-0.1,0.55l-0.31,0.55l-0.47,0.47l-0.56,0.31l-0.57,0.11l-0.49-0.11l-0.33-0.31l-0.13-0.47l0.1-0.55 M250.95,443.52
	l0.02-0.05 M255.7,448.54l0.63,0.42 M255.72,449.25l-0.38-0.51 M255.34,448.74l-0.34-0.5 M253.72,446.3l1.28,1.93 M253.95,446.88
	l-0.07-0.28l-0.16-0.3 M253.91,447.17l0.04-0.29 M253.82,447.29l0.1-0.12 M253.66,447.37l0.08-0.03l0.07-0.05 M253.46,447.38
	l0.1,0.01l0.1-0.01 M253.25,447.33l0.21,0.05 M252.88,447.13l0.37,0.2 M252.58,446.86l0.29,0.26 M252.4,446.63l0.19,0.24
	 M252.64,447.01l-0.25-0.38 M254.13,449.36l-0.45-0.74l-1.04-1.61 M250.18,454.78l3.89,0.85l1.61,0.61l1.24,0.79l0.87,1.01
	l0.56,1.24l0.51,2.89 M258.86,462.17l0.07,0.97 M259.07,465.03l-0.14-1.9 M259.08,464.86v0.18 M259.32,464.32l-0.18,0.25l-0.07,0.29
	 M259.32,464.32L259.32,464.32 M259.32,464.32l0.2-0.11l0.12-0.02 M259.85,464.21l-0.11-0.02h-0.1 M259.85,464.21l0.14,0.05
	l0.06,0.03 M260.34,464.55l-0.14-0.15l-0.15-0.11 M260.51,464.86l-0.17-0.31 M260.59,465.17l-0.08-0.31 M260.59,465.22l-0.01-0.06
	 M260.59,465.22l-0.36-5 M260.23,460.23v-0.66 M260.28,459.35l-0.04,0.22 M268.19,454.67l-2.39,0.43 M138.85,415.23l0.53-0.29
	 M137.96,415.65l-0.47-0.03l-0.57-0.23l-0.52-0.41 M136.41,414.97l-0.14-0.17 M159.16,404.82l-0.12-0.26l-0.32-0.37 M158.71,407.33
	l0.32-0.37l0.12-0.26 M157.6,407.7l-1.27,0.17 M152.76,407.81l0.64,0.06 M156.33,407.87h-2.94 M139.72,414.53l-0.84-0.22l-0.46-0.25
	 M140.74,413.23l-1.02,1.3 M131.82,413.42l0.04-0.01l0.15,0.06l0.2,0.17l0.22,0.26l0.2,0.31l0.16,0.31l0.09,0.26l0.01,0.17
	l-0.03,0.05 M138.54,413.07l-1.78,1.16 M138.54,413.07l0.14-0.1 M141.21,407.52l1.01-0.66 M144.11,405.98l-0.26,0.05l-0.33,0.12
	l-0.41,0.2l-0.41,0.23l-0.47,0.29 M135.35,414.92l0.81-0.35 M136.17,414.57l0.59-0.34 M131.51,413.62l-0.15-0.43l-0.01-0.31
	l0.14-0.11l0.27,0.11l0.35,0.31l0.39,0.47l0.37,0.55l0.29,0.55l0.16,0.47l0.01,0.31l-0.14,0.11l-0.27-0.11l-0.36-0.31l-0.03-0.03
	 M152.76,407.81l-0.73-0.27l-0.33-0.27 M140.91,409.33l-0.2-0.32 M141.21,407.52l0.43-0.22l0.43-0.21l0.42-0.21l0.42-0.2l0.41-0.19
	l0.4-0.18l0.39-0.17l0.38-0.16 M140.71,409.01l-0.12-0.2l-0.06-0.22l0.01-0.22l0.11-0.3l0.31-0.37l0.25-0.18 M140.69,411.21
	l0.34-0.73l0.04-0.6l-0.16-0.55 M144.49,405.98h-0.39 M144.49,405.98l0.23,0.12l0.11,0.16l0.12,0.24l0.09,0.2l0.1,0.22
	 M145.35,407.28l-0.2-0.35 M145.35,407.28l0.45,0.46l0.54,0.32l0.59,0.19 M149.23,408.36h-0.61 M138.68,412.98l1.3-0.99l0.49-0.48
	l0.23-0.29 M148.47,408.36l-0.87-0.02l-0.44-0.05l-0.24-0.05 M150.3,404.82l-0.14,0.01l-0.33,0.13l-0.26,0.25l-0.15,0.34l-0.01,0.37
	l0.12,0.35l0.24,0.27l0.32,0.15l0.21,0.02 M151.64,404.82l-0.4-0.43l-0.57-0.27l-0.63-0.02l-0.59,0.23l-0.46,0.45l-0.26,0.6
	l-0.02,0.66l0.22,0.62l0.43,0.49l0.57,0.28l0.63,0.02l0.59-0.23l0.46-0.45l0.03-0.05 M149.23,408.36l0.19-0.03 M149.42,408.34
	l0.26-0.15 M148.95,408.84l-1.3,1.04l-0.93,0.59l-0.54,0.29l-0.6,0.29l-1.41,0.61l-1.74,0.68l-3.89,1.43 M138.55,413.78l-0.66,0.24
	 M135.35,414.92l2.53-0.91 M136.05,414.7l-0.32,0.1l-0.37,0.13 M136.33,414.63l-0.28,0.07 M136.41,414.62l-0.08,0.01 M136.41,414.65
	l0.01-0.02l-0.01-0.01 M136.33,414.7l0.05-0.03l0.03-0.02 M136.18,414.78l0.14-0.07 M139.38,414.93l1.75-0.98l1.23-0.73l0.65-0.46
	l0.08-0.12L143,412.6l-0.27,0.04l-0.46,0.11l-1.47,0.46l-1.39,0.48l-1.73,0.61l-2.1,0.75 M140.11,414.84l0.15-0.1l0.09-0.08
	 M140.11,414.84L140.11,414.84 M139.96,414.92l0.15-0.09 M139.96,414.92l1.59-0.87 M141.55,414.05l0.8-0.44 M142.36,413.61
	l2.61-1.37l1.34-0.64l1.35-0.58l1.41-0.53l1.51-0.51l3.16-0.95 M153.73,409.04l1.01-0.29 M156.31,408.31l-1.57,0.45 M156.12,408.32
	l0.17-0.02l0.05-0.01 M156.12,408.32l-0.02-0.03l0.03-0.03 M156.24,408.19l-0.07,0.04l-0.05,0.03 M156.24,408.19l0.12-0.06
	l0.06-0.02 M156.81,407.95l-0.21,0.08l-0.18,0.08 M157.19,407.82l-0.39,0.13 M157.54,407.71l-0.35,0.11 M157.6,407.7l-0.06,0.02
	 M157.6,407.7l-5.22,1.49 M152.38,409.18l-0.67,0.18 M149.64,409.01l-0.39,0.51l0.18,0.25l0.97-0.1l1.3-0.31 M149.64,409.01
	l0.03-0.03 M151.08,407.7l-1.41,1.29 M151.08,407.7l-0.12,0.09 M149.63,408.31h0.13 M149.68,408.19l-0.06,0.08l0.02,0.04
	 M149.68,408.19l-0.54,0.49 M149.13,408.68l-0.18,0.16 M174.09,465.92l-0.03,0.04l-0.37,0.29l-0.55,0.19l-0.65,0.07l-0.65-0.07
	l-0.55-0.19l-0.37-0.29l-0.04-0.05 M172.3,463.95l-0.04,1.27 M172.3,463.95v-3.01 M172.3,460.93l-0.06-0.52 M174.97,458.32
	l0.54-0.77l0.48-0.5 M180.46,446.61l-0.41,0.62 M177.01,448.68l0.14-0.13 M177.16,448.55l1.19-1.25 M176.54,448.97l0.47-0.29
	 M180.5,442.16l-0.28-0.07l-0.53,0.02l-0.4,0.23l-0.22,0.41v0.53l0.22,0.56l0.41,0.51l0.53,0.39l0.58,0.2l0.53-0.02l0.4-0.23
	l0.22-0.41 M181.97,444.28v-0.53l-0.09-0.29 M179.85,447.21l0.26-0.2l0.27-0.29 M180.39,446.72l0.07-0.09 M178.35,447.29l0.58-0.7
	l0.2-0.29 M179.83,442.87l-0.12,0.23v0.29l0.12,0.31l0.23,0.29l0.3,0.21l0.32,0.11l0.29-0.01l0.22-0.13l0,0 M173.94,462.83l0.5-3.22
	l0.6-1.51l0.42-0.61l0.52-0.51l1.34-0.81l1.76-0.62l4.1-0.86 M180.05,447.24l-1.32,2.13 M179.74,447.27l0.11-0.06 M179.54,447.35
	l0.2-0.08 M179.54,447.35l-0.21,0.04 M179.17,447.36l0.16,0.02 M179.17,447.36l-0.03-0.01 M179,447.26l0.06,0.05l0.08,0.04
	 M179,447.26l-0.11-0.28 M179.02,446.49l-0.1,0.25l-0.03,0.25 M179.02,446.49L179.02,446.49 M179.13,446.3l-0.11,0.19 M179.13,446.3
	l-1.23,1.86 M177.9,448.16l-0.62,0.93 M177.27,449.1l-0.21,0.26 M164.16,454.58l3.08,0.55 M172.57,460.79l-0.09-1.2 M172.57,460.79
	l-0.01,0.11 M172.26,465.22l0.31-4.32 M172.26,465.22l0.05-0.27 M172.45,464.64l-0.14,0.31 M172.7,464.36l-0.25,0.28 M172.88,464.25
	l-0.18,0.11 M173.08,464.19l-0.1,0.02l-0.1,0.04 M173.29,464.2l-0.1-0.01h-0.1 M173.45,464.26l-0.17-0.07 M173.67,464.49l-0.21-0.23
	 M173.77,465.03l-0.02-0.29l-0.09-0.25 M173.77,465.03l0.12-1.66 M173.89,463.38l0.05-0.54 M166.64,465.3l-17.23,47.42
	 M151.18,513.37l17.23-47.42 M244.3,451.02h-55.75 M188.55,452.91h55.75 M283.44,512.73l-17.23-47.42 M264.44,465.95l17.23,47.42
	 M114.39,452.91h44.27 M158.66,451.02h-44.27 M259.42,414.21v28.14 M261.31,442.34v-28.13 M80.09,513.37l17.23-47.42 M95.54,465.3
	l-17.23,47.42 M188.55,406.71h55.75 M244.3,404.82h-55.75 M335.53,465.95l17.23,47.42 M354.53,512.73l-17.23-47.42 M173.43,442.34
	v-28.13 M171.54,414.21v28.14 M274.19,452.91h44.27 M318.46,451.02H274.2 M158.98,413.42l-44.79,29.11 M115.22,444.11L160.01,415
	 M318.66,442.52l-44.79-29.11 M272.84,415l44.79,29.11 M94.92,451.02H79.2 M79.2,452.91h15.69 M266.85,406.71h15.71 M282.55,404.82
	h-15.72 M150.3,406.71h15.71 M166,404.82h-15.71 M353.64,451.02h-15.72 M337.93,452.91h15.71 M88.06,444.11L132.85,415
	 M131.82,413.42l-44.79,29.11 M300,415l44.79,29.11 M345.82,442.52l-44.79-29.11 M395.33,512.57l-27.76-47.23 M365.94,466.3
	l27.76,47.22 M134.99,415.27l-26.24,27.59 M111.74,442.45l25.57-26.89 M65.28,465.34l-27.76,47.23 M39.15,513.53l27.76-47.22
	 M324.11,442.87l-26.22-27.57 M295.53,415.56l25.55,26.87 M224.44,415.56l27.2,28.6 M253.01,442.87l-27.2-28.6 M66.3,513.53
	l27.76-47.22 M92.43,465.34l-27.76,47.23 M338.79,466.3l27.76,47.22 M368.17,512.57l-27.76-47.23 M171.54,466.37v46.68
	 M173.43,513.05v-46.68 M261.31,513.05v-46.68 M259.42,466.37v46.68 M181.2,444.17l27.2-28.6 M207.04,414.26l-27.2,28.6
	 M352.22,453.08l0.18,0.35l0.66,0.63l0.21,0.1 M349.91,443.23l-0.14-0.11l-1.3-0.63l-1.3-0.34l-0.7-0.05 M344.66,444.88l0.56,0.93
	l0.92,1.02l0.61,0.46 M360.85,450.64l-0.08-0.13l-0.09-0.12l-0.09-0.12l-0.1-0.11l-0.11-0.11l-0.11-0.1l-0.12-0.09l-0.12-0.09
	 M362.86,464.26l0.8,1.02l1.03,0.89l0.52,0.31 M368.1,464.8l-0.11-1.17l-0.39-1.34l-0.52-1.02 M367.09,461.27l-6.25-10.62
	 M360.02,449.78l-10.1-6.57 M357.88,449.36h-3.13 M354.75,454.56h2.02 M352.18,452.99l0.11,0.23 M354.75,449.38l-0.86,0.11
	l-0.82,0.38l-0.62,0.57l-0.3,0.52 M352.29,453.23l0.05,0.1l0.62,0.65l0.33,0.17 M353.35,454.18L353.35,454.18 M353.36,454.18
	l0.47,0.24l0.91,0.13 M262.96,445.4l-0.04-0.59l-0.29-0.99l-0.48-0.79l-0.58-0.55l-0.4-0.21 M259.53,442.26l-0.67,0.45l-0.56,0.7
	l-0.39,0.9l-0.15,1.01l0.01,0.07 M264.3,448.8l-0.18-0.12l-0.9-0.7l-0.22-0.21 M265.29,449.36l-0.54-0.28l-0.44-0.29 M270.47,454.53
	l0.95-0.05l1.19-0.33l0.98-0.51l0.16-0.13 M273.73,450.42l-0.56-0.38l-1.1-0.45l-1.22-0.21l-0.39,0.02 M257.99,447.84l-0.49,0.4
	l-1.12,0.71l-0.91,0.42 M264.16,449.36l-0.18-0.02l-0.46-0.21l-0.1-0.11 M266.08,454.56h4.39 M270.47,449.36h-6.29 M257.76,445.4
	v2.62 M262.96,447.78v-2.39 M264.85,456.7l0.02-0.1l0.41-0.95 M244.3,453.66l0.42,0.21l0.43,0.18l0.44,0.15l0.45,0.13l0.45,0.1
	l0.46,0.07l0.46,0.04l0.47,0.01 M247.87,449.36l-0.47,0.01l-0.46,0.04l-0.46,0.07l-0.45,0.1l-0.45,0.13l-0.44,0.15l-0.43,0.18
	l-0.42,0.21 M258,449.36h-10.13 M247.87,454.56h6.52 M266.91,465.22l0.11-0.54l0.02-1.29l-0.25-1.3l-0.16-0.38 M261.81,463.46
	l0.39,0.95l0.75,1.09l0.86,0.84l0.03,0.02 M266.66,461.7l-2.8-7.72 M259.59,457.46l2.18,6.02 M95.03,453.18l0.18,0.27l0.68,0.62
	l0.9,0.39l0.75,0.07 M97.54,449.4l-0.37-0.01l-0.9,0.25l-0.73,0.48l-0.52,0.64l-0.28,0.72l-0.04,0.74l0.2,0.72l0.12,0.24
	 M114.32,446.35l0.69-0.86l0.34-0.62 M113.53,442.09l-1.07,0.13l-1.3,0.42l-1.06,0.59 M100.63,449.36h-3.09 M97.54,454.56h0.15
	 M110.08,443.22l-9.49,6.17 M110.81,448.94l2.11-1.37 M97.91,466.33l0.43-0.34l0.84-0.98l0.65-1.16l0.12-0.39 M95.12,461.71
	l-0.3,0.98l-0.12,1.32l0.12,1.2l0.01,0.04 M99.98,463.47l1.56-4.28 M98.65,451.92l-3.55,9.78 M107.11,454.56h4.39 M111.5,449.36
	h-6.29 M114.77,450.42l-0.56-0.38l-1.1-0.45l-1.22-0.21l-0.39,0.02 M111.5,454.53l0.95-0.05l1.19-0.33l0.98-0.51l0.16-0.13
	 M114.77,450.42l-0.56-0.38l-1.1-0.45l-1.22-0.21l-0.39,0.02 M92.93,461.28l-0.15,0.23l-0.57,1.35l-0.28,1.33l-0.02,0.6 M94.8,466.5
	l0.42-0.29 M96.9,454.48l-3.99,6.79 M97.37,454.52l-0.01,0.04l-0.14,0.53 M97.23,455.09l-0.14,0.53l-0.24,0.7 M100.49,449.13
	l-0.06,0.07l-0.35,0.15h-0.13 M105.76,443.6l-5.24,5.51 M108.78,442.1l-0.59,0.08l-1.02,0.38l-0.97,0.63l-0.42,0.44 M97.22,454.51
	l0.31,0.04 M94.87,452.79l0.27,0.56 M97.54,449.37l-0.17,0.02 M321.35,449.4l-0.95,0.05l-1.19,0.33l-0.98,0.51l-0.16,0.13
	 M318.08,453.51l0.56,0.38l1.1,0.45l1.22,0.21l0.22-0.01 M337.65,466.24l0.41,0.24 M340.94,464.8l-0.11-1.16l-0.39-1.34l-0.52-1.01
	 M339.94,461.27l-4-6.8 M335.98,456.29l-0.1-0.27l-0.29-0.99 M335.6,455.03l-0.05-0.17l-0.06-0.33 M332.88,449.36h-0.04l-0.36-0.12
	l-0.13-0.11 M332.33,449.11l-5.24-5.51 M327.06,443.63l-0.53-0.53l-1-0.61l-0.99-0.33l-0.47-0.05 M335.32,454.55l0.91-0.13l0.81-0.4
	l0.61-0.58l0.38-0.69l0.13-0.74l-0.1-0.74l-0.35-0.72l-0.64-0.64l-0.88-0.43l-0.87-0.11 M322.76,443.23l-0.14-0.11l-1.31-0.63
	l-1.3-0.34l-0.71-0.05 M317.5,444.88l0.56,0.93l0.46,0.51 M335.31,449.36h-3.09 M335.16,454.56h0.15 M332.26,449.39l-9.49-6.17
	 M319.93,447.57l1.98,1.29 M338,465.23l0.12-0.55l0.02-1.29l-0.25-1.3l-0.16-0.38 M332.9,463.46l0.39,0.94l0.75,1.09l0.86,0.84
	l0.04,0.02 M331.34,459.27l1.53,4.2 M337.76,461.7l-3.55-9.78 M321.35,454.56h4.37 M327.64,449.36h-6.29 M318.08,453.51l0.56,0.38
	l1.1,0.45l1.22,0.21l0.39-0.02 M321.35,449.4l-0.95,0.05l-1.19,0.33l-0.98,0.51l-0.16,0.13 M175.05,445.4l0.02-0.3l-0.22-1.03
	l-0.44-0.85l-0.56-0.61l-0.54-0.34 M171.66,442.27l-0.54,0.33l-0.59,0.66l-0.43,0.87l-0.2,1l0.02,0.28 M169.88,447.76l-0.07,0.07
	l-0.86,0.7l-0.43,0.28 M168.53,448.81l-0.18,0.12l-0.79,0.43 M162.38,449.4l-0.95,0.05l-1.19,0.33l-0.98,0.51l-0.16,0.13
	 M159.12,453.51l0.56,0.38l1.1,0.45l1.22,0.21l0.39-0.02 M177.39,449.36l-0.69-0.3l-1.16-0.69l-0.67-0.53 M169.65,448.78l-0.4,0.4
	l-0.41,0.16l-0.14,0.01 M166.87,454.61L166.87,454.61L166.87,454.61 M175.09,448.01v-2.62 M169.89,445.4v2.38 M167.06,454.89
	l0.41,0.53l0.51,1.16l0.03,0.11 M184.98,454.56l0.46-0.01l0.46-0.04l0.46-0.07l0.45-0.1l0.45-0.13l0.44-0.15l0.43-0.18l0.42-0.21
	 M188.55,450.26l-0.42-0.21l-0.43-0.18l-0.44-0.15l-0.45-0.13l-0.45-0.1l-0.46-0.07l-0.46-0.04l-0.46-0.01 M162.38,454.56h4.37
	 M168.67,449.36h-6.29 M184.98,449.36h-10.13 M178.43,454.56h6.55 M168.98,466.34l0.45-0.35l0.84-0.98l0.65-1.16l0.12-0.39
	 M166.22,461.71l-0.31,0.98l-0.12,1.32l0.12,1.2l0.01,0.04 M168.99,453.98l-2.8,7.72 M171.07,463.47l2.18-6.01 M80.48,453.33
	l0.18-0.28 M79.58,454.16l0.09-0.04l0.3-0.25 M86.03,447.37l0.04-0.04 M86.08,447.33l0.02-0.02 M86.18,447.25l0.83-0.71l0.84-1.05
	l0.34-0.62 M86.39,442.09l-1.08,0.13l-1.3,0.42l-1.06,0.59 M72.83,449.78l-0.12,0.09l-0.12,0.09l-0.11,0.1l-0.11,0.11l-0.1,0.11
	l-0.09,0.12l-0.09,0.12l-0.08,0.13 M65.77,461.28l-0.15,0.23l-0.57,1.35l-0.28,1.33l-0.02,0.6 M67.64,466.5l0.96-0.67l0.98-0.99
	l0.38-0.57 M69.97,464.27l0.03-0.04 M70,464.23L70,464.23 M82.93,443.22l-10.1,6.57 M72,450.64l-6.25,10.62 M78.1,449.36h-3.13
	 M76.08,454.56h2.02 M80.72,451.02l-0.27-0.51l-0.66-0.63l-0.89-0.4l-0.79-0.08 M78.1,454.53l0.32,0.02l0.91-0.24l0.18-0.11
	 M79.57,454.15l0.18-0.11 M79.75,454.04l0.32-0.21l0.53-0.63l0.11-0.21 M292.64,414.75l0.22,0.18l1.01,0.49l0.95,0.22h0.09
	 M277.41,403.2l-0.95,0.04l-1.19,0.33l-0.98,0.51l-0.16,0.13 M274.14,407.31l0.56,0.38l1.1,0.45l0.7,0.12 M288.93,403.58l-0.16-0.1
	l-0.17-0.08l-0.17-0.07l-0.18-0.06l-0.18-0.05l-0.18-0.03l-0.19-0.02l-0.19-0.01 M287.52,403.17h-10.11 M301.47,412.85l-0.56-0.94
	l-0.91-1.02l-0.97-0.73 M296.88,414.86l0.78,0.38l1.3,0.34l0.7,0.05 M283.58,407.53l-0.01-0.08 M299.04,410.15l-10.1-6.57
	 M287.52,403.17h-3.86 M281.04,406.71l0.06,0.17l0.43,0.57 M283.66,403.2l-0.54,0.01l-0.88,0.3l-0.7,0.52l-0.47,0.66l-0.04,0.13
	 M282.09,407.88l0.32,0.21l0.57,0.15 M282.97,408.25l0.02,0.01 M282.99,408.25l0.06,0.02 M283.05,408.27l0.03,0.01 M266.85,406.71
	l0.07-0.11l0.15-0.74l-0.09-0.75l-0.34-0.72l-0.62-0.65l-0.87-0.44l-0.92-0.13 M264.22,403.17h-3.86 M247.87,403.17l-0.47,0.01
	l-0.46,0.04l-0.46,0.07l-0.45,0.1l-0.45,0.13l-0.44,0.15l-0.43,0.18l-0.42,0.21 M244.3,407.46l0.2,0.1l0.2,0.1l0.2,0.09l0.2,0.08
	l0.21,0.08l0.21,0.07l0.21,0.07l0.21,0.06 M260.36,403.17h-12.49 M274.32,412.85l-0.56-0.93l-0.91-1.02l-0.97-0.73 M270.77,415.31
	l1.03,0.27l0.7,0.05 M271.88,410.15l-9.49-6.17 M266.94,413.14l2.11,1.37 M257.76,409.24v3.09 M262.96,412.33v-2.38 M262.26,414.55
	l0.26-0.41l0.35-0.93l0.07-0.88 M257.79,412.33l0.05,0.8l0.33,0.95l0.51,0.74l0.59,0.5l0.27,0.12 M261.18,415.47l0.06-0.02
	l0.66-0.48l0.36-0.41 M168.63,403.2l-0.54,0.01l-0.88,0.3l-0.7,0.52l-0.47,0.66l-0.23,0.73l0.01,0.75l0.19,0.55 M172.49,403.17
	h-3.86 M188.55,404.06l-0.42-0.21l-0.43-0.18l-0.44-0.15l-0.45-0.13l-0.45-0.1l-0.46-0.07l-0.46-0.04l-0.46-0.01 M186.91,408.11
	l0.21-0.06l0.21-0.07l0.21-0.07l0.21-0.08l0.21-0.08l0.2-0.09l0.2-0.1l0.2-0.1 M182.65,408.36h0.34 M184.98,403.17h-12.49
	 M170.46,403.98l-9.49,6.17 M163.8,414.51l1.98-1.29 M160.34,415.64l1.08-0.13l0.63-0.2 M160.97,410.16l-0.15,0.09l-1.11,0.94
	l-0.84,1.05l-0.33,0.62 M175.09,412.33v-3.12 M169.89,409.94v2.39 M169.89,412.33l0.04,0.59l0.29,0.99l0.48,0.79l0.58,0.55l0.38,0.2
	 M173.31,415.46l0.67-0.45l0.56-0.71l0.39-0.9l0.15-1.01l-0.01-0.06 M208.33,410.57l-0.45,0.48l-0.58,1.03l-0.3,1.01l-0.04,0.55
	 M209.05,415.62l0.58-0.07l1.02-0.38l0.97-0.63l0.27-0.29 M220.82,414.09l0.37,0.4l0.99,0.66l1,0.38l0.64,0.09 M225.91,413.63
	l-0.08-0.75l-0.37-1.04l-0.62-0.98l-0.31-0.3 M224.55,410.54l-1.12-1.17 M209.4,409.38l-1.1,1.16 M216.42,403.17h-10.11
	 M226.53,403.17h-10.11 M203.05,407.31l0.56,0.38l1.1,0.45l0.55,0.1 M205.26,408.23l0.15,0.03 M206.32,403.2l-0.95,0.04l-1.19,0.33
	l-0.98,0.51l-0.16,0.13 M229.79,404.22l-0.56-0.38l-1.1-0.45l-1.22-0.21l-0.39,0.02 M226.53,408.33l0.32-0.02 M227.63,408.24
	l1.03-0.29l0.98-0.51l0.16-0.13 M257.78,462.58l-0.01,0.18l0.18,1.33l0.42,1.15l0.41,0.67 M261.96,465.94L261.96,465.94l0.55-1.04
	l0.01-0.02 M257.76,458.16v4.42 M257.14,457.33l0.18,0.18l0.82,1.2l0.08,0.18 M253.47,448.94l-0.49,0.42 M253.68,448.71l-0.02,0.03
	l-0.2,0.21 M252.23,447.19l1.6,1.68 M257.76,445.46L256,443.6 M273.73,450.42l-0.56-0.38l-1.1-0.45l-1.22-0.21l-0.39,0.02
	 M250.88,444.09l0.09,0.76l0.37,1.04l0.62,0.98l0.3,0.29 M256,443.61l-0.02-0.03l-0.96-0.78l-1.01-0.49l-0.95-0.22h-0.08
	 M137.96,415.63l0.29-0.02l1.01-0.3l0.54-0.3 M156.23,408.29l0.16-0.01l0.21-0.06 M156.6,408.23l0.97-0.27l0.98-0.51l0.15-0.12
	 M158.7,404.22l-0.56-0.38l-1.1-0.45l-1.22-0.21l-0.39,0.02 M145.33,403.17l-0.19,0.01l-0.19,0.02l-0.18,0.03l-0.18,0.05l-0.18,0.06
	l-0.17,0.07l-0.17,0.08l-0.16,0.1 M155.44,403.17h-10.11 M143.92,403.58l-10.1,6.57 M133.19,415.64l1.08-0.13l1.3-0.42l0.38-0.21
	 M133.82,410.16l-0.16,0.09l-1.11,0.94l-0.84,1.05l-0.33,0.62 M148.47,408.36h0.1 M149.19,403.17h-3.86 M151.7,404.54l-0.18-0.27
	l-0.68-0.62l-0.9-0.39l-0.75-0.06 M149.79,408.27l0.03-0.01 M149.82,408.27l0.08-0.02 M149.9,408.24l0.56-0.16l0.18-0.12
	 M151.83,404.82l-0.01-0.03l-0.13-0.24 M151.34,407.42l0.37-0.45l0.1-0.26 M170.35,464.86l0.14,0.38l0.41,0.67 M174.08,465.93
	L174.08,465.93l0.55-1.04l0.35-1.2l0.08-1.1 M175.09,462.59v-4.44 M179.85,449.36l-0.05-0.03l-0.39-0.38 M179.39,448.96l-0.2-0.26
	 M174.93,458.37l0.03-0.05 M159.12,453.51l0.56,0.38l1.1,0.45l1.22,0.21l0.39-0.02 M162.39,449.4l-0.95,0.05l-1.19,0.33l-0.98,0.51
	l-0.16,0.13 M179.1,448.78l1.51-1.59 M176.85,443.6l-1.76,1.86 M181.89,444.83l0.1-0.67v-0.08 M179.88,442.09l-0.81,0.14l-1.02,0.43
	l-0.94,0.68l-0.23,0.27 M180.59,447.16l0.41-0.43l0.6-1.02l0.29-0.87"/>
<path class="st3" d="M283.14,408.31L283.14,408.31 M226.79,408.31L226.79,408.31 M156.12,408.31L156.12,408.31"/>
</svg>
