<?xml version="1.0" encoding="utf-8"?>
<!-- Generator: Adobe Illustrator 23.0.1, SVG Export Plug-In . SVG Version: 6.00 Build 0)  -->
<svg version="1.1" id="Слой_1" xmlns="http://www.w3.org/2000/svg" xmlns:xlink="http://www.w3.org/1999/xlink" x="0px" y="0px"
	 viewBox="0 0 792 612" style="enable-background:new 0 0 792 612;" xml:space="preserve">
<style type="text/css">
	.st0{font-family:'ArialUnicodeMS';}
	.st1{font-size:20.1547px;}
	.st2{fill:none;stroke:#000000;stroke-width:0.51;stroke-linecap:round;stroke-linejoin:round;stroke-miterlimit:10;}
	.st3{fill:none;stroke:#000000;stroke-width:0.709;stroke-linecap:round;stroke-linejoin:round;stroke-miterlimit:10;}
</style>
<text transform="matrix(0.9688 0 -0.2588 0.9659 611.3686 360.6076)" class="st0 st1">Правое крепление</text>
<text transform="matrix(0.9664 0 -0.2588 0.9659 22.3061 360.6076)" class="st0 st1">Левое крепление</text>
<path class="st2" d="M198.46,353.77l59.87-76.09 M180.74,353.77h17.72 M592.21,353.77l-63.36-88.94 M609.93,353.77h-17.72"/>
<path d="M258.95,276.88l-0.21-0.13l-0.23-0.07l-0.24-0.01l-0.24,0.04l-0.22,0.1l-0.19,0.15l-0.15,0.19l-0.1,0.22l-0.04,0.24
	l0.01,0.24l0.07,0.23l0.13,0.21l0.17,0.17l0.21,0.13l0.23,0.07l0.24,0.02l0.24-0.04l0.22-0.1l0.19-0.15l0.15-0.19l0.1-0.22
	l0.04-0.24l-0.01-0.24l-0.07-0.23l-0.13-0.21L258.95,276.88l-0.63,0.8 M528.26,264.01l-0.18,0.17l-0.14,0.2l-0.08,0.23l-0.03,0.24
	l0.03,0.24l0.09,0.23l0.14,0.2l0.19,0.16l0.22,0.11l0.24,0.05l0.24,0l0.24-0.06l0.22-0.12l0.18-0.16l0.14-0.2l0.08-0.23l0.03-0.24
	l-0.03-0.24l-0.09-0.23l-0.14-0.2l-0.19-0.16l-0.22-0.11l-0.24-0.05l-0.24,0l-0.24,0.06L528.26,264.01l0.59,0.83"/>
<path class="st3" d="M631.84,246.55l0.5-0.91 M633.98,242.65l-1.64,2.99 M640.98,240.9l-0.02-0.06l-0.34-0.45l-0.66-0.45l-0.88-0.38
	l-0.96-0.25l-0.9-0.08l-0.7,0.1l-0.33,0.18 M622.28,268.22l0.36-1.35 M619.47,277.64l2.81-9.42 M637.6,257.76l-0.01,0.11l-0.08,0.04
	 M637.5,257.91l-0.07,0.02 M618.8,281.41l0.09,0.21l0.41,0.41l0.68,0.49l0.84,0.5l0.88,0.43l0.78,0.29l0.56,0.11l0.22-0.04
	 M633.97,253.18l-0.49,1.66 M632.63,251.27l0.48-0.01 M631.79,256.07l0.24,0.15l0.44,0.01l0.42-0.26l0.31-0.44l0.27-0.68
	 M628.81,265.63l0.3-0.76l0.07-0.74l-0.17-0.57l-0.29-0.37 M633.11,251.25l0.3,0.02l0.27,0.14l0.2,0.22l0.17,0.42l0.01,0.69
	l-0.09,0.43 M631.57,250.41l0.11,0.54l0.36,0.23l0.58,0.09 M628.14,266.89l0.67-1.26 M628.14,266.89l-0.67,0.93l-0.4,0.31
	l-0.46,0.17l-0.27-0.01l-0.23-0.12l-0.08-0.08 M626.02,268.08l-0.24-0.23l-0.34-0.16l-0.23-0.01 M625.22,267.69l-0.63,0.34
	l-0.21,0.24 M628.04,252.71l0.77-1.03l3.03-5.13 M631.79,249.49l-0.16,0.59l-0.06,0.32 M622.73,258.43l0.61,2.36l-0.11,3.14
	l-0.59,2.95 M623.83,269.19l0.16-0.31l0.39-0.62 M625.51,260.93l0.12,0.11l0.15,0.1 M625.78,261.14l0.2,0.11l0.25,0.13l0.27,0.14
	l0.43,0.24l0.6,0.39l0.46,0.37 M628.73,263.2l-0.74-0.67 M619.25,252.89l0.85-0.18l0.82-0.49l0.67-0.74l0.41-0.87l0.1-0.87
	l-0.24-0.73l-0.53-0.49l-0.75-0.17h-0.01 M326.28,298.09l0.29,0.29l0.74,0.38l0.94,0.18l0.99-0.04l0.9-0.26l0.67-0.44l0.18-0.22
	 M306.96,267.4l-0.01-0.02l0.01-0.41l0.23-0.66l0.41-0.81l0.53-0.84l0.57-0.74l0.52-0.53l0.39-0.24l0.08-0.01 M321.72,269.2
	l0.49,0.21 M321.85,269.52l1.01-0.02l1.01-0.08l1-0.15l0.98-0.21l0.97-0.27l0.95-0.34l0.93-0.4l0.9-0.46 M337.51,269.36l0.06,0.25
	 M338.53,271.86l0.01,0.01l0.4,0.57l1.49,1.52 M333.5,281.76l-0.17,0.02l-0.68,0.3l-0.51,0.47l-0.27,0.53l-0.09,0.67 M337.57,269.61
	l0.06,0.21l0.91,2.05 M322.83,271.01l1.54,0.98 M322.83,271.01l-0.79-0.64l-0.24-0.32l-0.11-0.3l0.03-0.15l0.13-0.07 M322.05,269.47
	l-0.2,0.05 M322.05,269.47l0.01-0.03 M332.16,286.27l-0.04,0.05l-0.08-0.02l-0.11-0.18l-0.1-0.48l-0.02-0.37 M331.78,283.76
	l0.04,1.52 M324.35,281.4l0.01-0.03 M324.37,271.99l0.82,0.37l0.73,0.07l0.7-0.2l0.54-0.4l0.49-0.65 M352.2,274.83L352.2,274.83
	l0.01,0.27l0.01,0.61l0.02,0.87l0.02,0.99l0.02,0.96l0.02,0.78l0.01,0.49l0,0.13 M336.21,271.2l-0.49,1.3l-0.03,0.64l0.18,0.62
	l0.36,0.44l0.58,0.34l1.1,0.24l0.57,0.02 M340.98,258.21l-0.07,0.05l-0.26-0.02l-0.39-0.13l-0.47-0.22l-0.48-0.28l-0.41-0.29
	l-0.28-0.26l-0.11-0.2l0.01-0.05 M329.47,267.75l-0.04,0.06l-0.12,0.24l-0.2,0.43l-0.34,0.68l-0.23,0.42 M328.55,269.58l-0.9,1.59
	 M336.21,271.2l0.16-0.29 M336.38,270.91l0.39-0.6l0.14-0.19 M336.9,270.12l0.26-0.32l0.21-0.25l0.11-0.15l0-0.01 M341.21,257.8
	l0.06,0.05l0.51,0.48l0.2,0.35l-0.14,0.18 M341.84,258.85l-0.46-0.03l-0.71-0.23l-0.85-0.39l-0.86-0.5l-0.74-0.53l-0.51-0.48
	l-0.2-0.35l0.14-0.18l0.46,0.03l0.64,0.2 M340.35,273.77l0.01,0.06l0.07,0.14 M340.43,273.97l0.01,0.15l-0.12,0.18l-0.23,0.18
	l-0.33,0.15l-0.56,0.13l-0.36,0.03 M338.84,274.8l-0.36,0.01 M263.08,98.79l-0.37-0.41l-0.34-0.79l-0.14-0.96l0.09-0.99l0.3-0.86
	l0.47-0.61l0.13-0.1 M292.61,76.27l-0.18-0.34l-0.54-0.46l-0.8-0.43l-0.94-0.33l-0.93-0.18l-0.79-0.01l-0.52,0.17l-0.05,0.04
	 M269.42,116.27l0,0.03l0.2,0.35l0.51,0.48l0.74,0.53l0.86,0.5l0.85,0.39l0.71,0.23l0.46,0.03l0.07-0.03 M281.88,107.41l-0.16,0.2
	 M275.17,103.25l0.3-0.72l0.1-0.66l-0.08-0.65l-0.24-0.47l-0.43-0.38l-0.86-0.3l-0.46-0.05 M281.78,107.38l3.66-1.41 M278.47,92.99
	l0.79-0.1l0.59-0.26 M272.44,100.4l-0.05-0.06l0.02-0.13l0.15-0.11l0.37-0.08l0.28-0.01 M273.2,100.02l0.29,0.01 M278.47,92.99
	l-1.52-0.05 M289.33,105.51l-1.01,0.02l-1.01,0.08l-1,0.15l-0.99,0.21l-0.97,0.27l-0.95,0.34l-0.93,0.4l-0.9,0.46 M289.27,90.78
	l0.19,0.97l0.24,0.96l0.28,0.95l0.33,0.93l0.37,0.92l0.42,0.9l0.46,0.89l0.38,0.67 M281.82,107.39l-0.04-0.01 M281.78,107.38
	l-0.19,0.05 M281.59,107.43l-0.14,0l-0.1-0.11l-0.04-0.2l0.03-0.39l0.22-0.65l0.21-0.41 M281.76,105.66l0.9-1.59 M285.94,103.26
	l-0.83-0.37l-0.73-0.07l-0.7,0.21l-0.54,0.4l-0.49,0.64 M287.8,93.41l-0.12,0.79l0.18,0.78l0.42,0.61l0.5,0.41 M288.22,92.12
	l-0.42,1.29 M288.22,92.12l0.41-0.96l0.23-0.34l0.23-0.2l0.11-0.01l0.07,0.09l0.01,0.07 M303.78,108.48l-0.08-0.01l-0.22,0.13
	l-0.29,0.3l-0.31,0.41l-0.29,0.47l-0.23,0.45l-0.13,0.37l-0.01,0.23l0.03,0.04 M291.67,97.8l-0.34-0.21l-0.7-0.42l-0.67-0.42
	 M288.77,96l1.2,0.76 M287.48,104.24l-1.54-0.98 M287.48,104.24l0.89,0.62l0.38,0.29l0.33,0.24l0.07,0.04 M304.18,108.73l0.03-0.07
	l0.23-0.66l0.01-0.41l-0.21-0.09 M304.25,107.51l-0.39,0.24l-0.52,0.53l-0.57,0.74l-0.53,0.84l-0.41,0.81l-0.23,0.66l-0.01,0.41
	l0.21,0.09l0.39-0.24l0.47-0.47 M409.28,150.52l0.08,0.01l0.4,0.22l0.54,0.51l0.6,0.72l0.57,0.82l0.45,0.79l0.26,0.65l0.03,0.4
	l-0.01,0.02 M401.98,187.48l0.46-0.05l0.7-0.26l0.83-0.43l0.84-0.54l0.72-0.56l0.49-0.5l0.18-0.36v-0.03 M383.48,172.5l-0.04-1.06
	l-0.1-1.06l-0.16-1.05l-0.23-1.04l-0.29-1.02l-0.35-1.01l-0.4-0.98l-0.46-0.96 M373.01,151.36l-0.29,0.11l-0.48,0.42l-0.56,0.67
	l-0.56,0.82l-0.47,0.84l-0.31,0.74l-0.1,0.52l0.03,0.15 M382.09,187.91l-0.31,0.04l-0.62-0.15l-0.81-0.33l-0.87-0.46l-0.81-0.52
	l-0.62-0.51l-0.33-0.41l-0.04-0.15 M398.63,165.78l-0.67,0.63l-0.37,0.67l-0.12,0.76l0.11,0.69l0.34,0.74 M389.89,160.57l0.77,0.35
	l0.86,0.08l0.76-0.18l0.57-0.32 M395.4,158.65l-0.23,0.17l-0.55,0.42l-0.61,0.45 M392.85,160.5l1.16-0.82 M400.12,164.72l-1.49,1.05
	 M400.12,164.72l0.84-0.54l0.32-0.18l0.21-0.11l0.02-0.01 M399.86,172.15l-0.01-0.01l-0.09-0.11l-0.22-0.27l-0.39-0.54l-0.25-0.39
	 M398.9,170.82l-0.97-1.55 M393.94,176.94l0.18,0.28 M394.11,177.23l0.32,0.58l0.08,0.18 M394.51,177.98l0.1,0.28l0.03,0.17
	l-0.01,0.01 M393.94,176.94l-0.92-1.06l-0.56-0.35l-0.65-0.16l-0.57,0.08l-0.6,0.32l-0.77,0.8l-0.3,0.47 M385.22,169.57l0.33-0.86
	l0.05-0.76l-0.21-0.74l-0.4-0.58l-0.63-0.53 M388.93,178.6l-0.01-0.04l0.03-0.17l0.08-0.27l0.2-0.47l0.16-0.3 M389.39,177.35
	l0.17-0.3 M385.22,169.57l-0.9,1.59 M384.32,171.16l-0.53,0.85l-0.21,0.3l-0.14,0.19l-0.01,0.02 M381.39,164.34l0.01,0.01l0.13,0.06
	l0.31,0.15l0.58,0.32l0.39,0.24 M384.36,166.11l-1.54-0.98 M388.69,159.81l1.2,0.76 M388.69,159.81l-0.92-0.61l-0.35-0.25l-0.15-0.1
	 M516.66,92.91l0.09-0.08l0.41-0.64l0.22-0.88l0-0.99l-0.23-0.95l-0.42-0.76l-0.44-0.4 M486.11,71.78l0.02-0.08l0.32-0.46
	 M486.45,71.23l0.63-0.49l0.85-0.44l0.94-0.32l0.88-0.15l0.69,0.03l0.33,0.14 M511.14,110.67l-0.07,0.22l-0.37,0.45l-0.63,0.55
	l-0.8,0.56l-0.85,0.48l-0.77,0.34l-0.57,0.14l-0.23-0.03 M500.05,87.7l0.26,0.09l0.7,0.04 M502.89,87.69l-0.36,0.03 M502.53,87.72
	l-1.51,0.11 M506.32,94.63l0.27-0.02 M506.59,94.6l0.52,0.02l0.13,0.04 M507.24,94.67l0.16,0.11l0.01,0.15l-0.03,0.03 M487.79,93.43
	l0.35-0.68l0.42-0.91l0.37-0.92l0.33-0.94l0.29-0.95l0.24-0.96l0.19-0.97l0.15-0.97 M494.69,101.1l3.69,1.26 M490.13,86.12
	l0.03-0.14l0.09-0.04l0.12,0.05l0.23,0.21l0.35,0.55l0.29,0.66 M491.72,88.68l-0.48-1.27 M498.57,102.4l-0.92-0.41l-0.94-0.35
	l-0.97-0.29l-0.98-0.23l-0.99-0.17l-1-0.1l-1.01-0.03l-1.01,0.03 M498.47,102.61l-0.22-0.25 M506.32,94.63l-1.12,0.3l-0.44,0.32
	l-0.32,0.49l-0.11,0.54l0.07,0.68l0.36,0.98 M490.86,91.31l0.6-0.58l0.35-0.73l0.05-0.72l-0.14-0.6 M497.35,99.09l-0.59-0.68
	l-0.63-0.37l-0.72-0.11l-0.66,0.13l-0.72,0.38 M497.35,99.09l0.97,1.55 M498.32,100.64l0.44,0.92l0.08,0.39l-0.03,0.32l-0.09,0.12
	l-0.15,0.01 M498.38,102.36l0.19,0.04 M498.38,102.36l-0.05,0.01 M476.06,104.75l-0.21-0.47l-0.13-0.52l0.11-0.23l0.33,0.09l0.5,0.4
	l0.59,0.64l0.59,0.79l0.51,0.82l0.34,0.72l0.13,0.51l-0.11,0.23l-0.33-0.09l-0.5-0.4l-0.18-0.18 M476.45,104.47l0.02-0.01l0.18,0.05
	l0.27,0.22l0.33,0.36l0.33,0.44l0.28,0.45l0.19,0.4l0.07,0.29l-0.04,0.12 M490.93,100.75l0.06-0.04l0.21-0.17l0.36-0.3l0.6-0.47
	l0.38-0.28 M494.03,98.43l-1.49,1.05 M489.7,92.13l1.16-0.82 M489.7,92.13l-0.97,0.66l-0.44,0.29l-0.22,0.15 M462.77,294.91
	L462.77,294.91l-0.55,0.51l-0.82,0.34l-0.97,0.14l-0.98-0.09l-0.84-0.3l-0.56-0.47 M480.65,263.37l0.02-0.23l-0.17-0.56l-0.38-0.75
	l-0.53-0.82l-0.6-0.77l-0.58-0.6l-0.47-0.35l-0.22-0.06 M465.58,266.08l0.27-0.13 M456.61,280.86l-0.15-0.74l-0.36-0.55l-0.58-0.41
	l-0.65-0.21l-0.1-0.01 M463.9,278.14l0.01,0.03 M456.64,282.38l-0.04-1.52 M456.64,282.38l-0.06,0.77l-0.09,0.22l-0.11,0.07
	l-0.05-0.05 M458.04,264.62l0.92,0.41l0.95,0.35l0.96,0.29l0.98,0.23l0.99,0.17l1,0.1l1.01,0.04l1.01-0.03 M447.73,271.29l0.16-0.16
	l1.4-1.81 M449.29,269.32l0.01-0.02l0.31-0.62l0.6-1.97 M435.8,272.89l0,0.07l0.01,0.42 M435.81,273.38l0.02,0.73l0.02,0.93
	l0.02,0.99l0.02,0.9l0.02,0.68l0.01,0.35l0,0.03 M449.49,272.23l-0.34,0.01 M449.15,272.24l-0.71-0.06l-0.22-0.06 M448.23,272.12
	l-0.36-0.15l-0.25-0.2l-0.1-0.18l0.02-0.12 M447.53,271.48l0.06-0.11l0.03-0.06 M460.14,268.1l0.59,0.68l0.63,0.37l0.72,0.11
	l0.66-0.13l0.72-0.38 M449.49,272.23l1.41-0.24l0.59-0.29l0.47-0.47l0.21-0.52l0.02-0.66l-0.33-1.04l-0.27-0.48 M465.64,266.12
	l0.04,0.03 M465.68,266.15l0.19,0.03 M465.87,266.18l0.13,0.06l0.04,0.14l-0.05,0.2l-0.19,0.34l-0.48,0.5l-0.36,0.28 M463.47,268.76
	l1.49-1.05 M445.98,255.37l-0.38,0.36l-0.31,0.43 M445.29,256.15l0.01,0.25l0.34,0.04l0.61-0.18l0.79-0.37l0.85-0.5l0.78-0.56
	l0.59-0.53l0.31-0.43l-0.01-0.25l-0.34-0.04l-0.61,0.18l-0.24,0.1 M446.23,255.77l0.01,0.02l0.19,0.02l0.34-0.1l0.44-0.2l0.47-0.28
	l0.43-0.31l0.33-0.3l0.17-0.24l0.01-0.12 M450.23,266.77l0.02,0.03l0.14,0.16l0.21,0.23l0.26,0.29l0.36,0.47l0.2,0.29
	 M451.41,268.23l0.18,0.29 M460.14,268.1l-0.97-1.55 M459.17,266.55l-0.54-0.94l-0.22-0.42l-0.19-0.36l-0.05-0.07 M208.96,222.73
	l-0.85-0.11l-0.85-0.43l-0.72-0.69l-0.48-0.84l-0.16-0.86l0-0.06 M214.23,186.73l-0.33-0.15l-0.69-0.03 M213.21,186.55l-0.88,0.15
	l-0.94,0.32l-0.85,0.44l-0.63,0.49l-0.32,0.46l-0.02,0.09 M218.59,196.16l0.22,0.1 M218.81,196.26l0.18,0.07l1.87,0.39
	 M218.18,215.83L218.18,215.83l-0.09-0.01l-0.02-0.12l0.18-0.33l0.33-0.38 M219.31,214.28l-0.71,0.71 M220.25,213.88l-0.57,0.13
	l-0.38,0.27 M218.04,197.89l-0.11-0.3 M217.92,197.59l-0.13-0.63l0.01-0.2 M217.8,196.76l0.1-0.33l0.21-0.23l0.26-0.08l0.22,0.04
	 M218.59,196.16l0.26,0.1l0.26,0.14 M219.83,196.51l-0.29-0.43l-0.76-1.26 M218.04,197.89l0.63,1.13l0.41,0.38l0.51,0.19l0.47-0.06
	l0.52-0.3l0.64-0.71 M227.7,202.53l0.04,1.06l0.1,1.06l0.17,1.05l0.23,1.04l0.29,1.02l0.35,1l0.4,0.98l0.46,0.96 M229.52,209
	l1.29,1.77l1.26,1.18 M229.19,200.31l-0.57,1.64l-0.31,2.17 M225.09,205.67l-0.33,0.86l-0.04,0.76l0.21,0.74l0.39,0.58l0.63,0.53
	 M239.33,222.89l-0.27,0.29l-0.45,0.37l-0.29,0.05l-0.08-0.28l0.14-0.57l0.34-0.76l0.49-0.85l0.56-0.8l0.55-0.63l0.45-0.37
	l0.29-0.05l0.08,0.28l-0.14,0.57 M241,220.14l-0.15,0.36 M230.48,187.26l-0.37-0.13l-0.57-0.11l-0.28,0.1l0.06,0.29l0.39,0.43
	l0.66,0.52l0.83,0.52l0.87,0.44l0.78,0.3l0.57,0.11l0.28-0.1l-0.06-0.29l-0.39-0.43l-0.3-0.25 M238.93,222.63l-0.04-0.16l0.08-0.31
	l0.19-0.42l0.27-0.47l0.31-0.44l0.31-0.35l0.25-0.2l0.16-0.03 M230.24,187.67l0.03,0.16l0.22,0.24l0.37,0.29l0.46,0.29l0.48,0.25
	l0.43,0.17l0.32,0.06l0.15-0.05 M230.17,210.75l-0.28-0.12 M229.89,210.63l-0.16,0.06 M229.73,210.69l-0.13,0.06l-0.23,0.02
	l-0.29-0.02l-0.48-0.11l-0.7-0.29l-0.41-0.24 M225.95,209.14l1.54,0.98 M225.09,205.67l0.9-1.59 M225.99,204.08l0.63-0.88l0.35-0.33
	l0.36-0.25l0.21-0.09l0.16-0.01 M227.87,202.51l-0.17,0.02 M227.87,202.51l0.19-0.24 M173.31,102.98l-1.35,0.89 M162.49,104.81
	l0.06,0.57l0.36,0.86l0.63,0.76l0.81,0.55l0.87,0.25l0.25,0.01 M185.4,79.09l-0.12,0.86 M185.28,79.96l-0.14,1.1 M181.13,71.56
	l0.32-0.16l0.69-0.07l0.89,0.11l0.95,0.27l0.87,0.4l0.66,0.46l0.34,0.45l0.03,0.08 M174.25,102.46l-0.94,0.52 M174.53,99.71
	l-0.41-0.17l-0.41,0.07l-0.44,0.31 M172.68,102.05l-0.29-0.02l-0.22-0.1l-0.14-0.16l-0.05-0.28l0.17-0.42l0.21-0.24 M173.27,99.92
	l-0.92,0.91 M180.67,86.16l-0.54,1.66 M182.61,85.38l-0.32-0.3 M180.67,86.16l0.46-0.87l0.31-0.28l0.37-0.13l0.25,0.04l0.23,0.16
	 M180.13,87.82l-0.15,0.82l0.08,0.62l0.31,0.48L180.8,90l0.64,0.12 M182.61,85.38L183,85.6l0.25-0.07l0.18-0.39 M185.14,81.06
	l-0.57,6.42l0.09,2.19 M183.57,97.36l-1.17,0.18l-0.51,0.27l-0.43,0.46l-0.23,0.53l-0.08,0.68l0.15,1.08l0.16,0.51 M186.02,115.1
	l0.24-0.17l0.46-0.48l0.11-0.41l-0.26-0.29 M186.57,113.74l-0.58-0.11l-0.82,0.08l-0.93,0.26l-0.9,0.4l-0.74,0.47l-0.46,0.48
	l-0.11,0.42l0.26,0.28l0.58,0.11l0.51-0.03 M185.7,107.21l-0.06-0.34l-0.34-3.22l0.09-2.56l0.2-0.92 M183.36,90.17l-0.4-0.01
	 M182.96,90.16l-1.52-0.05 M183.57,97.36l0.28,0.01 M183.85,97.37l0.63,0.08l0.22,0.05 M184.7,97.5l0.43,0.14l0.4,0.16l0.3,0.13
	L186,98 M186,98l0.18,0.05l0.13-0.02 M185.75,114.38l-0.13-0.13l-0.32-0.06l-0.46,0.04l-0.52,0.14l-0.5,0.22l-0.41,0.26l-0.25,0.27
	l-0.06,0.23l0.01,0.03 M184.24,103.37l-0.03-0.09l-0.25-0.36l-0.38-0.16h-0.29 M183.3,102.76l-0.27-0.02l-0.32-0.11l-0.33-0.2
	l-0.31-0.28l-0.34-0.47l-0.14-0.31 M181.59,101.38l-0.12-0.31 M195.96,95.86l-0.06-0.01l-0.31-0.15 M195.59,95.7l-0.25-0.35
	l-0.15-0.48l-0.02-0.55l0.1-0.53l0.21-0.43l0.29-0.27l0.26-0.07 M197.2,95.9l-0.28,0.5l-0.52,0.48l-0.58,0.11l-0.55-0.28
	 M195.27,96.71l-0.44-0.62l-0.26-0.87l-0.04-0.99l0.18-0.96l0.38-0.78l0.52-0.48l0.58-0.11l0.56,0.28l0.44,0.62l0.11,0.26
	 M576.55,214.21l0.4-0.05l0.85-0.34l0.76-0.63l0.55-0.82l0.26-0.88l0.01-0.4 M569.53,178.49l0.12-0.08l0.58-0.14l0.82,0.04
	l0.94,0.21l0.92,0.35l0.76,0.44l0.48,0.46l0.12,0.26 M563.35,188.79l0.01,0l0.58-0.08l1.69-0.61 M565.41,186.63l-0.18,0.35l-1,1.63
	 M570.39,200.54l0.04,0.02 M566.48,206.92l-0.74-0.67 M566.48,206.92l0.47,0.52l0.09,0.19l-0.05,0.11l-0.06-0.01 M565.74,206.25
	l-0.52-0.3l-0.61-0.04 M563.01,190.44l0.57,0.69l0.49,0.33l0.55,0.14l0.45-0.11l0.45-0.35l0.53-0.84l0.19-0.49 M564.96,188.43
	l0.35-0.19l0.33-0.14 M565.63,188.1l0.27-0.04l0.25,0.1l0.18,0.21l0.1,0.31l-0.01,0.51l-0.08,0.32 M566.35,189.5l-0.1,0.31
	 M556.16,195.96l-0.44-2l-0.48-1.18 M552.75,204.6l0.86-0.86l1.74-2.43l0,0 M558.86,201.42l0.66-0.63l0.37-0.67l0.12-0.76
	l-0.11-0.69l-0.34-0.74 M553.58,180.17l0.01,0.05l-0.1,0.2l-0.27,0.28l-0.4,0.31l-0.47,0.3l-0.46,0.24l-0.39,0.14l-0.25,0.03
	l-0.07-0.04 M546.53,215.5l0.03-0.05l-0.02-0.22l-0.14-0.36l-0.25-0.44l-0.32-0.45l-0.33-0.4l-0.3-0.28l-0.22-0.12l-0.08,0.01
	 M557.37,202.47l1.49-1.05 M557.37,202.47l-0.94,0.52l-0.46,0.15l-0.43,0.07l-0.23-0.01l-0.15-0.06 M554.97,203.1l0.19,0.05
	 M554.97,203.1l-0.26,0.15 M556.44,194.65l0.19,0.23 M556.63,194.88l0.18,0.02 M556.81,194.89l0.15,0l0.22,0.08l0.25,0.15l0.39,0.3
	l0.51,0.56l0.27,0.39 M558.59,196.37l0.97,1.55 M553.33,179.77l0.63-0.23l0.46-0.05 M554.41,179.49l0.15,0.17l-0.18,0.36l-0.49,0.5
	l-0.72,0.56l-0.84,0.54l-0.83,0.43l-0.7,0.26l-0.46,0.05l-0.15-0.17l0.18-0.36l0.49-0.5l0.06-0.05 M546.14,215.77l0.49,0.45
	l0.4,0.22 M547.03,216.45l0.2-0.1l-0.03-0.4l-0.26-0.65l-0.45-0.79l-0.57-0.82l-0.6-0.72l-0.54-0.51l-0.4-0.22l-0.2,0.1l0.03,0.4
	l0.26,0.65l0.03,0.07 M617.42,94.26l0,0.05l-0.12,0.87l-0.44,0.86l-0.69,0.72l-0.83,0.47l-0.76,0.15 M593.93,72.93l-0.34-1.94
	 M593.34,69.63l0.24,1.35 M597.26,61.91l-0.12-0.08l-0.58-0.11l-0.82,0.08l-0.93,0.26l-0.9,0.4l-0.74,0.47l-0.46,0.48l-0.11,0.27
	 M607.38,90.74l-0.96-0.87 M607.38,90.74l0.39,0.56l0.01,0.28l-0.15,0.25l-0.21,0.11l-0.3,0.04 M607.49,93.51l-1.99-1.02
	 M606.42,89.87l-0.51-0.31l-0.45-0.01l-0.31,0.19 M594.17,80.74l0.24-0.27l0.49-0.6l0.44-0.64l0.39-0.68l0.19-0.39 M597.8,80.46
	l0.7-0.18l0.44-0.34l0.24-0.53l0.02-0.58l-0.18-0.73 M594.61,80.1l0.04-1.45l-0.72-5.72 M595.65,75.69l0.13,0.28l0.3,0.05l0.38-0.27
	 M596.46,75.75l0.27-0.28 M596.73,75.47l0.21-0.17l0.25-0.06l0.26,0.05l0.35,0.23l0.41,0.54l0.18,0.4 M599.01,78.1l-0.62-1.63
	 M598.29,91.4l0.24-1.35l-0.05-0.66l-0.22-0.63l-0.35-0.43L597.4,88l-0.92-0.21l-0.46,0 M598.29,91.4l-0.1,0.3 M598.19,91.7
	l-0.3,0.62l-0.14,0.19 M597.74,92.51l-0.33,0.31l-0.36,0.22l-0.31,0.1l-0.21,0.01 M596.53,93.16l-0.22,0l-0.48,0.23l-0.18,0.37
	 M594.63,104.89l0.02-0.05l0.22-0.13l0.38-0.04 M595.25,104.68l0.49,0.06l0.53,0.15l0.48,0.22l0.36,0.25l0.19,0.25l0.01,0.16
	 M594.39,105.63l-0.48-0.35l-0.34-0.45l0.02-0.37l0.39-0.24l0.69-0.07 M594.67,104.15l0.89,0.11l0.95,0.28l0.87,0.4l0.66,0.46
	l0.34,0.45l-0.03,0.37l-0.39,0.24l-0.69,0.07l-0.19-0.01 M594.31,91.09l0.17,0.62l0.17,2.5l-0.12,2.1l-0.15,1.3 M582.33,86.97
	l0.11,0.21l0.5,0.59l0.58,0.24 M583.52,88.01l0.57-0.15l0.47-0.51l0.31-0.8l0.09-0.97l-0.14-0.98l-0.34-0.85l-0.5-0.59l-0.58-0.24
	l-0.57,0.15l-0.47,0.51l-0.24,0.56 M593.3,88.61l0.07,0.01l0.25-0.07 M593.62,88.54l0.22-0.11l0.31-0.15l0.35-0.16l0.39-0.14
	l0.54-0.14l0.3-0.04 M595.73,87.82l0.29-0.02 M597.8,80.46l-1.51,0.11 M583.57,86.87l0.24-0.08l0.26-0.29l0.17-0.44l0.05-0.54
	l-0.08-0.55l-0.19-0.47l-0.28-0.33l-0.32-0.13h-0.08 M152.05,256.33l1.23,1.55 M166.48,278.27l0.1,0.2 M170.03,285.67l-3.46-7.2
	 M150.13,253.9l1.92,2.43 M171.45,289.61l-0.09,0.41l-0.39,0.59l-0.63,0.65 M170.33,291.26l-0.78,0.62l-0.81,0.49l-0.71,0.28
	l-0.51,0.04l-0.07-0.02 M142.75,253.23L142.75,253.23l0.19-0.4l0.51-0.49l0.76-0.51l0.88-0.46l0.88-0.33l0.74-0.16l0.48,0.04
	l0.06,0.03 M149,269.24l-0.13-0.03 M148.87,269.21l-0.19-0.15l-0.02-0.09 M149,269.24l0.26-0.04 M159.67,276.26l0.84,1.1
	 M159.51,273.98l-0.32,0.5l-0.05,0.63l0.2,0.63l0.33,0.52 M164.05,277.76l-0.65-0.27 M163.4,277.48l-0.35,0.13l-0.26,0.29l-0.11,0.2
	 M153.22,266.31l0.47,0.72l0.47,0.42l0.5,0.17l0.44-0.07l0.45-0.31 M162.69,278.09l-0.16,0.2l-0.22,0.11l-0.25,0.02l-0.42-0.11
	l-0.62-0.42l-0.51-0.55 M153.22,266.31l-0.81-1.61 M153.27,262.5l-0.43,0.08 M166.48,278.27l-1.56-3.78l-0.88-3.29l0.04-1.43
	 M164.05,277.76l0.3,0.3l0.4,0.53 M152.41,264.71l-0.3-0.98l0.03-0.45l0.18-0.4l0.22-0.2l0.3-0.1 M153.27,262.5l0.53-0.25l0.25-0.34
	l-0.02-0.45l-0.06-0.19 M153.29,257.88l3.81,4.42l1.74,1.6l0.05,0.03 M153.97,261.27L153.97,261.27l-0.28-0.59 M157.06,265.74
	l-0.35,0.35l-0.25,0.25 M155.55,267.25l0.92-0.91 M160.22,273.27l-0.71,0.71 M160.22,273.27l0.69-0.61l0.39-0.3l0.43-0.33l0.24-0.19
	l0.19-0.18l0.06-0.07 M166.12,262.6l-0.61-0.69l-0.4-0.86l-0.08-0.85l0.26-0.71l0.56-0.46l0.65-0.14 M667.86,144.69l0.31,0.17
	l0.45,0.02l0.48-0.17l0.43-0.33l0.32-0.45l0.17-0.49l-0.02-0.46l-0.2-0.36 M669.8,142.62l-0.03-0.03 M112.44,155.51l-0.17,0.26
	l-0.07,0.43l0.12,0.48l0.29,0.46l0.42,0.36l0.48,0.21l0.47,0.03l0.38-0.16l0.07-0.06 M479.03,335.54l-2.07,2.86 M477.35,341.61
	l-0.52-0.61l-0.3-0.85l0.05-0.91l0.38-0.83 M479.03,335.54l0.66-0.62l0.83-0.31 M484.35,343.93l-1.26,1.34l-1.55,0.97l-1.74,0.52
	l-1.81,0.05l-1.02-0.19 M491.6,322.44l-0.19-0.13l-0.82-0.91l-0.41-1.17l0.06-1.24l0.52-1.13l0.9-0.84l1.15-0.43l0.34-0.04
	 M521.1,277.28l-2.07,2.86 M519.43,283.35l-0.52-0.61l-0.3-0.85l0.04-0.91l0.38-0.83 M521.1,277.28l0.66-0.62l0.83-0.31
	 M484.35,343.93l60.98-84.44 M545.33,259.49l31.32-14.19 M544.74,259.33l0.59,0.16 M599.69,218.95l-0.69-0.74l-0.79-0.63l-0.87-0.5
	l-0.15-0.07 M576.66,245.3l2.21-0.92l2.25-0.79l2.29-0.66l2.32-0.53l2.35-0.39l2.36-0.26l2.37-0.12l2.37,0.02 M606.1,226.92
	l-6.42-7.97 M606.89,234.62l-0.93,1.57l-1.14,1.42l-1.32,1.24l-1.48,1.04l-1.6,0.81l-1.7,0.57l-1.76,0.32l-1.78,0.06 M606.89,234.62
	l0.39-0.95l0.26-0.99l0.11-1.02l-0.03-1.02l-0.18-1.01l-0.32-0.97l-0.45-0.91l-0.58-0.83 M605.51,226.76l-6.42-7.97 M597.42,217.31
	l0.19,0.13l0.79,0.63l0.69,0.74 M483.76,343.78l-1.26,1.34l-1.55,0.97l-1.74,0.53l-1.81,0.05l-1.31-0.27 M483.76,343.78l60.98-84.44
	 M544.74,259.33l31.32-14.19 M594.59,241.49l-2.37-0.02l-2.37,0.12l-2.36,0.26l-2.35,0.39l-2.32,0.53l-2.29,0.66l-2.25,0.8
	l-2.21,0.92 M606.29,234.46l-0.93,1.57l-1.14,1.42l-1.32,1.24l-1.48,1.04l-1.6,0.81l-1.7,0.57l-1.76,0.32l-1.78,0.06 M605.51,226.76
	l0.57,0.83l0.45,0.91l0.32,0.97l0.18,1.01l0.03,1.02l-0.11,1.02l-0.26,0.99l-0.39,0.95 M491.28,322.44l-0.46-0.29l-0.82-0.91
	l-0.41-1.17l0.06-1.24l0.52-1.13l0.9-0.84l1.15-0.43l0.66-0.04 M477.03,341.64l-0.19-0.13l-0.6-0.67l-0.3-0.85l0.05-0.91l0.38-0.83
	 M478.43,335.39l-2.07,2.86 M478.43,335.39l0.66-0.62l0.84-0.32l0.32-0.03 M519.1,283.38l-0.19-0.13l-0.6-0.67l-0.3-0.85l0.04-0.91
	l0.38-0.83 M520.51,277.12l-2.07,2.86 M520.51,277.12l0.66-0.62l0.84-0.32l0.32-0.03 M310.31,341.76l2.15,2.81 M312.25,347.69
	l0.41-0.54l0.28-0.86l-0.07-0.91l-0.41-0.82 M310.31,341.76l-0.68-0.6l-0.85-0.29l-0.19-0.02 M305.2,350.28l1.3,1.31l1.58,0.92
	l1.76,0.48l1.81,0l1.48-0.37 M297.53,328.87l0.79-0.93l0.38-1.17l-0.1-1.24l-0.55-1.11l-0.93-0.82l-1.16-0.4l-0.6-0.02
	 M266.52,284.67l2.15,2.81 M268.46,290.6l0.41-0.54l0.28-0.86l-0.07-0.91l-0.41-0.82 M266.52,284.67l-0.68-0.6l-0.85-0.29
	l-0.19-0.02 M305.2,350.28l-63.46-82.75 M241.74,267.53l-31.78-13.36 M241.74,267.53l0.56-0.21 M188.39,226.56l-0.81,0.5l-0.77,0.65
	l-0.67,0.75 M191.29,251.01l2.38-0.08l2.38,0.05l2.38,0.19l2.36,0.33l2.34,0.47l2.32,0.6l2.28,0.73l2.24,0.87 M179.94,236.59
	l6.21-8.13 M179.37,244.3l0.97,1.54l1.18,1.39l1.36,1.2l1.51,1l1.63,0.77l1.72,0.53l1.77,0.27l1.79,0.02 M179.94,236.59l-0.55,0.85
	l-0.43,0.92l-0.29,0.98l-0.15,1.01l0,1.02l0.14,1.02l0.29,0.99l0.42,0.93 M179.92,244.09l0.97,1.54l1.18,1.39l1.36,1.2l1.51,1
	l1.63,0.77l1.72,0.53l1.77,0.27l1.79,0.02 M210.51,253.97l-2.24-0.86l-2.28-0.74l-2.31-0.6l-2.34-0.47l-2.36-0.33l-2.38-0.19
	l-2.38-0.06l-2.38,0.08 M242.3,267.32l-31.78-13.36 M305.76,350.07l-63.46-82.75 M305.76,350.07l1.3,1.31l1.58,0.92l1.76,0.48
	l1.81,0l1.75-0.47l0.01-0.01 M186.7,228.25l0.67-0.75l0.77-0.65l0.06-0.04 M180.5,236.38l6.21-8.13 M179.92,244.09l-0.42-0.94
	l-0.28-0.98l-0.14-1.02l0-1.02l0.15-1.01l0.29-0.98l0.43-0.92l0.55-0.85 M297.8,328.86l0.28-0.2l0.79-0.93l0.38-1.18l-0.1-1.24
	l-0.55-1.11l-0.93-0.82l-1.16-0.4l-0.9,0.01 M312.56,347.68l0.07-0.06l0.58-0.68l0.28-0.86l-0.07-0.91l-0.41-0.82 M310.86,341.55
	l-0.68-0.6l-0.85-0.29l-0.5-0.01 M310.86,341.55l2.15,2.81 M268.78,290.59l0.07-0.05l0.58-0.68l0.28-0.86l-0.07-0.91l-0.41-0.82
	 M267.08,284.46l-0.68-0.6l-0.85-0.29l-0.5-0.01 M267.08,284.46l2.15,2.81 M477.84,335.23l-2.07,2.86 M475.77,338.09l-0.38,0.83
	l-0.05,0.91l0.3,0.85l0.6,0.67l0.47,0.27 M479.97,334.28l-0.63,0.01l-0.84,0.32l-0.66,0.62 M475.79,346.31l1.02,0.19l1.81-0.05
	l1.74-0.53l1.55-0.97l1.26-1.34 M492.6,316.27l-0.97,0l-1.15,0.43l-0.9,0.84 M489.58,317.55l-0.52,1.13l-0.06,1.24l0.41,1.17
	l0.82,0.91l0.75,0.41 M519.91,276.97l-2.07,2.86 M517.84,279.83l-0.38,0.83l-0.04,0.91l0.3,0.86l0.6,0.67l0.47,0.27 M522.04,276.02
	l-0.63,0.01l-0.84,0.32l-0.66,0.62 M483.16,343.62l61.22-84.77 M573.12,241.8l-28.74,17.04 M544.39,258.84l-0.59-0.16 M589.55,217.8
	l-0.29-0.04l-0.38-0.01 M594.31,213.43l-0.69-0.74l-0.79-0.63l-0.87-0.5l-0.93-0.37l-0.28-0.08 M573.12,241.8l2.1-1.16l2.16-1.04
	l2.21-0.91l2.26-0.78l2.29-0.65l2.33-0.52l2.35-0.38l2.36-0.24 M589.61,228.22l0.59,0.4l0.49,0.22 M594.31,213.43l6.42,7.97
	 M591.17,236.1l1.6-0.23l1.56-0.43l1.49-0.63l1.4-0.82l1.29-1l1.16-1.16l1-1.3l0.83-1.42 M601.51,229.1l0.39-0.95l0.26-0.99
	l0.11-1.02l-0.03-1.02l-0.17-1.01l-0.32-0.97l-0.45-0.91l-0.58-0.83 M593.71,213.27l6.42,7.97 M586.48,211.01l0.98-0.21l1-0.07
	l1,0.08l0.98,0.23l0.93,0.37l0.87,0.5l0.79,0.63l0.69,0.74 M586.48,211.01l-1.04,0.36l-1.01,0.45l-0.97,0.54l-0.32,0.21
	 M565.68,229.43l2.03-1.28l1.95-1.4l1.88-1.51l1.79-1.62l1.7-1.72l1.6-1.81l1.5-1.9l0.29-0.39 M565.68,229.43l-30,17.8
	 M535.67,247.22l-0.31,0.19l-0.3,0.21l-0.29,0.22l-0.28,0.24l-0.26,0.25L534,248.6l-0.23,0.28l-0.22,0.29 M471.45,335.15
	l62.09-85.98 M471.45,335.15l-0.88,1.62l-0.44,1.8l0.03,1.85l0.49,1.77l0.93,1.57l1.3,1.27l1.58,0.88l1.75,0.43l1.81-0.05l1.74-0.53
	l1.55-0.97l1.26-1.34 M482.57,343.46l61.22-84.77 M572.53,241.64l-28.74,17.04 M590.58,235.94l-2.36,0.24l-2.35,0.38l-2.32,0.52
	l-2.29,0.65l-2.26,0.78l-2.21,0.91l-2.16,1.04l-2.1,1.16 M590.58,235.94l1.6-0.22l1.56-0.43l1.49-0.63l1.4-0.82l1.29-1l1.15-1.16
	l1-1.3l0.83-1.42 M600.13,221.24l0.57,0.83l0.45,0.91l0.32,0.97l0.18,1.01l0.03,1.02l-0.11,1.02l-0.26,0.99l-0.39,0.95
	 M591.14,218.94l-1.1-0.92l-1.3-0.41 M594.21,222.74l-3.06-3.8 M588.51,227.54l1.1,0.92l1.37,0.41l1.43-0.15l1.27-0.7l0.91-1.14
	l0.42-1.4l-0.14-1.46l-0.67-1.29 M588.51,227.54l-1.73-2.14 M480.91,337.81l0.38-0.83l0.05-0.91l-0.3-0.85l-0.6-0.67l-0.81-0.38
	l-0.89-0.04l-0.84,0.32l-0.66,0.62 M480.91,337.81l-2.07,2.86 M475.18,337.93l-0.38,0.83l-0.04,0.91l0.3,0.86l0.6,0.67l0.81,0.38
	l0.89,0.03l0.84-0.31l0.66-0.62 M477.24,335.07l-2.07,2.86 M488.98,317.39l-0.52,1.13l-0.06,1.24l0.41,1.16l0.82,0.91l1.1,0.52
	l1.22,0.05l1.15-0.43l0.9-0.84l0.52-1.13l0.06-1.24l-0.41-1.17l-0.82-0.91l-1.1-0.52l-1.21-0.05l-1.15,0.43L488.98,317.39
	 M522.99,279.55l0.38-0.83l0.04-0.91l-0.3-0.85l-0.6-0.67l-0.81-0.38l-0.89-0.04l-0.84,0.32l-0.66,0.62 M522.99,279.55l-2.07,2.86
	 M517.25,279.67l-0.38,0.83l-0.04,0.91l0.3,0.85l0.6,0.67l0.81,0.38l0.89,0.04l0.84-0.32l0.66-0.62 M519.32,276.81l-2.07,2.86
	 M311.42,341.34l2.15,2.81 M313.57,344.15l0.41,0.82l0.07,0.91l-0.28,0.86l-0.58,0.68l-0.33,0.22 M309.09,340.49l0.8-0.04l0.85,0.29
	l0.68,0.6 M314.25,352.21l-1.48,0.37l-1.81,0l-1.76-0.48l-1.58-0.92l-1.3-1.31 M295.87,322.85l1.2-0.07l1.16,0.4l0.93,0.82
	 M299.16,323.99l0.55,1.11l0.1,1.24l-0.38,1.18l-0.79,0.93l-0.55,0.34 M267.63,284.25l2.15,2.81 M269.79,287.06l0.41,0.82l0.07,0.91
	l-0.28,0.86l-0.58,0.68l-0.33,0.22 M265.3,283.39l0.8-0.04l0.85,0.29l0.68,0.6 M306.32,349.86l-63.71-83.08 M213.33,250.51
	l29.27,16.27 M243.16,266.58l-0.56,0.21 M195.93,227.04l0.55-0.11l0.15-0.01 M194.34,220.48l-0.74,0.32l-0.86,0.53l-0.77,0.65
	l-0.67,0.75 M195.09,245.3l2.38,0.18l2.36,0.32l2.34,0.46l2.32,0.59l2.28,0.72l2.24,0.86l2.19,0.98l2.13,1.11 M196.64,237.18
	l-0.8,0.62l-0.2,0.11 M191.31,222.74l-6.21,8.13 M195.09,245.3l-1.61-0.18l-1.57-0.39l-1.51-0.6l-1.43-0.79l-1.32-0.97l-1.19-1.13
	l-1.04-1.27l-0.87-1.4 M185.11,230.86l-0.55,0.85l-0.43,0.92l-0.29,0.98l-0.15,1.01l0,1.02l0.14,1.01l0.28,0.99l0.42,0.93
	 M195.64,245.09l-1.61-0.18l-1.57-0.39l-1.51-0.6l-1.43-0.79l-1.32-0.97l-1.19-1.13l-1.04-1.27l-0.87-1.4 M213.89,250.31l-2.13-1.11
	l-2.19-0.98l-2.24-0.86l-2.28-0.72l-2.32-0.59l-2.34-0.46l-2.36-0.32l-2.38-0.18 M213.89,250.31l29.27,16.27 M306.87,349.66
	l-63.71-83.08 M317.78,341.06l0.93,1.6l0.49,1.78l0.02,1.85l-0.44,1.78l-0.89,1.6l-1.26,1.3l-1.56,0.92l-1.74,0.48l-1.81,0
	l-1.76-0.48l-1.58-0.92l-1.3-1.31 M317.78,341.06l-64.62-84.25 M250.97,254.92l0.31,0.18l0.3,0.2l0.29,0.22l0.28,0.23l0.27,0.25
	l0.26,0.26l0.24,0.27l0.23,0.29 M220.41,237.93l30.56,16.99 M207.16,226.42l0.47,0.61l1.55,1.86l1.65,1.77l1.75,1.67l1.84,1.57
	l1.92,1.46l2,1.35l2.07,1.23 M199.06,220.08l1.05,0.33l1.02,0.43l0.98,0.51l0.3,0.18 M191.87,222.53l0.67-0.75l0.77-0.65l0.85-0.53
	l0.92-0.39l0.97-0.25l1-0.11l1.01,0.04l0.99,0.19 M191.87,222.53l-6.21,8.13 M185.09,238.36l-0.42-0.93l-0.28-0.99l-0.14-1.01
	l0-1.02l0.15-1.01l0.29-0.97l0.43-0.92l0.55-0.85 M194.6,228.12l1.08-0.95l1.11-0.41 M197.48,236.65l1.83-2.39 M197.48,236.65
	l-1.08,0.95l-1.36,0.45l-1.43-0.12l-1.29-0.67l-0.95-1.11l-0.46-1.39l0.09-1.46l0.64-1.3 M191.64,232l2.96-3.88 M308.38,343.97
	l-0.41-0.82l-0.07-0.91l0.28-0.86l0.58-0.68l0.8-0.4l0.89-0.06l0.85,0.29l0.68,0.6 M311.98,341.14l2.15,2.81 M314.13,343.94
	l0.41,0.82l0.07,0.91l-0.28,0.86l-0.58,0.68l-0.8,0.4l-0.89,0.06l-0.85-0.29l-0.68-0.6 M308.38,343.97l2.15,2.81 M299.72,323.78
	l0.55,1.11l0.1,1.24l-0.38,1.17l-0.79,0.93l-1.09,0.55l-1.22,0.08l-1.16-0.4l-0.93-0.82l-0.55-1.11l-0.1-1.24l0.38-1.17l0.79-0.93
	l1.09-0.55l1.22-0.08l1.16,0.4L299.72,323.78 M264.59,286.88l-0.41-0.82l-0.07-0.91l0.28-0.86l0.58-0.68l0.8-0.4l0.89-0.06
	l0.85,0.29l0.68,0.6 M268.19,284.04l2.15,2.81 M270.34,286.85l0.41,0.82l0.07,0.91l-0.28,0.86l-0.58,0.68l-0.8,0.4l-0.89,0.06
	l-0.85-0.29l-0.68-0.6 M264.59,286.88l2.15,2.81 M194.88,227.79l0.35-0.23l0.49-0.23 M185.25,239.75l-0.29,0.74l-0.09,1.37
	l0.43,1.31l0.89,1.05l1.21,0.63l1.35,0.11l0.79-0.19 M196.19,237.46l-0.18,0.23 M185.55,240.17l-0.03,0.11l-0.09,1.37l0.43,1.31
	l0.89,1.05l1.21,0.63l1.35,0.11l1.28-0.42l0.1-0.06 M198.21,235.35l-0.89,1.17 M195.89,237.6l-0.88,0.23l-0.91-0.01l-0.88-0.25
	l-0.79-0.47l-0.64-0.66l-0.45-0.81l-0.23-0.9l0-0.92 M195.24,237.85l-0.79,0.19l-0.15,0.02 M197.32,236.51l-0.14,0.18l-0.15,0.17
	l-0.16,0.15l-0.18,0.14l-0.18,0.13l-0.19,0.12l-0.2,0.11l-0.21,0.09 M194.77,228.25l0.27-0.31l0.3-0.27l0.33-0.24l0.36-0.2
	l0.38-0.15l0.11-0.03 M191.12,233.8l0.04-0.23l0.05-0.22l0.07-0.22l0.08-0.21l0.09-0.21l0.11-0.2l0.12-0.19l0.13-0.18 M191.8,232.13
	l1.09-1.43 M192.9,230.7l1.87-2.45 M193.65,229.99l0.25-0.23 M589.8,218.07l0.74,0.29l0.1,0.05 M589.92,228.38l0.12,0.14
	 M595.51,234.96l0.1,0.06l1.29,0.39l1.35-0.15l1.19-0.66l0.86-1.07l0.4-1.32l-0.13-1.37l-0.03-0.11 M596.94,235.47l0.56,0.1
	l1.35-0.15l1.19-0.66l0.86-1.07l0.4-1.32l-0.13-1.37l-0.31-0.74 M588.67,227.41l-0.89-1.1 M594.78,224.53l0.03,0.92l-0.21,0.9
	l-0.43,0.82l-0.62,0.68l-0.77,0.49l-0.87,0.27l-0.9,0.04l-0.88-0.2 M590.12,228.46l-0.21-0.09l-0.2-0.1l-0.2-0.11l-0.19-0.13
	l-0.18-0.14l-0.17-0.15l-0.16-0.16l-0.15-0.17 M591.94,228.84l-0.34-0.02l-0.56-0.1 M594.04,222.88l0.14,0.18l0.12,0.19l0.11,0.2
	l0.1,0.21l0.09,0.21l0.07,0.22l0.06,0.22l0.04,0.23 M589.03,217.87l0.3,0.08l0.38,0.14l0.36,0.19l0.34,0.23l0.31,0.27l0.28,0.3
	 M590.98,219.07l1.93,2.4 M592.92,221.47l1.13,1.4 M206.52,241.31l0.75-0.6 M207.2,240.13l0.06,0.58 M202.53,234.53l1.08,0.43
	 M203.8,243.44l0.47-0.36l0.87-0.67 M200.86,235.87l0.47-0.37l1.2-0.97 M202.07,234.71l0.46-0.17 M200.27,236.1l0.48-0.37l1.32-1.02
	 M198.6,237.43l0.41-0.33l1.25-1.01 M203.34,243.61l0.46-0.17 M203.8,243.44l-1.98-0.89 M201.22,242.77l-0.15-0.06l-1.84-0.82
	 M203.34,243.61l-2.12-0.83 M199.06,237.26l0.47-0.36l1.33-1.03 M201.82,242.55l-0.15-0.06l-1.97-0.77 M199.24,241.89l0.46-0.17
	 M199.7,241.71l-0.25-2.25 M199.45,239.46l-0.02-0.16l-0.36-2.04 M198.6,237.43l0.46-0.17 M198.85,239.69l-0.02-0.16l-0.23-2.09
	 M199.24,241.89l-0.39-2.2 M201.82,242.55l0.48,0.16l0.49,0.1l0.5,0.03l0.5-0.03l0.49-0.1l0.32-0.1 M201.87,235.31l-0.14,0.06
	l-0.45,0.23l-0.41,0.28 M200.86,235.87l-0.37,0.33l-0.32,0.38l-0.27,0.42l-0.21,0.46l-0.15,0.48l-0.09,0.5l-0.03,0.51l0.04,0.51
	 M199.45,239.46l0.1,0.5l0.17,0.48l0.23,0.46l0.28,0.42l0.34,0.38l0.38,0.34l0.42,0.28l0.45,0.23 M204.7,241.22l0.57-0.34l0.65-0.77
	l0.31-0.97l-0.08-1.02l-0.46-0.92l-0.77-0.68l-0.96-0.33l-1,0.07l-0.11,0.03 M205.48,240.8l0.65-0.77l0.31-0.97l-0.08-1.02
	l-0.46-0.92l-0.77-0.68l-0.96-0.33l-1,0.07l-0.9,0.45l-0.65,0.77l-0.31,0.97l0.08,1.02l0.46,0.92l0.77,0.68l0.96,0.33l1-0.07
	L205.48,240.8 M206.03,241.88l0.92-1.06l0.48-1.33l-0.03-1.43l-0.54-1.33l-0.97-1.05l-1.27-0.63l-1.4-0.12l-1.34,0.4l-1.1,0.87
	l-0.71,1.22l-0.23,1.41l0.29,1.4l0.76,1.21l1.14,0.85l1.36,0.38l1.4-0.14L206.03,241.88 M580.75,226.48l-0.62,0.12 M579.95,227.01
	l0.18-0.42 M581.28,234.27l-0.81-0.99 M584.48,225.86l-0.58,0.08l-0.97,0.15 M583.38,233.89l-0.59,0.1l-1.52,0.29 M581.77,234.4
	l-0.49-0.13 M584.02,234.06l-0.6,0.1l-1.65,0.25 M586.12,233.67l-0.52,0.1l-1.58,0.29 M584.97,225.99l-0.49-0.13 M584.48,225.86
	l1.3,1.72 M586.42,227.75l0.1,0.12l1.21,1.59 M584.97,225.99l1.45,1.76 M585.63,233.54l-0.58,0.08l-1.67,0.26 M585.78,227.58
	l0.1,0.12l1.35,1.63 M587.72,229.47l-0.49-0.13 M587.23,229.33l-0.87,2.08 M586.36,231.42l-0.06,0.15l-0.67,1.97 M586.12,233.67
	l-0.49-0.13 M586.99,231.59l-0.06,0.15l-0.82,1.93 M587.72,229.47l-0.73,2.12 M585.78,227.58l-0.34-0.37l-0.38-0.32l-0.42-0.27
	l-0.45-0.21l-0.38-0.12 M581.8,233.82l0.09,0.02l0.49,0.08l0.5,0.02l0.5-0.05 M583.38,233.89l0.49-0.12l0.47-0.18l0.44-0.24
	l0.41-0.3l0.37-0.35l0.32-0.39l0.27-0.43l0.21-0.46 M586.36,231.42l0.15-0.49l0.09-0.5l0.02-0.51l-0.04-0.51l-0.11-0.5l-0.17-0.48
	l-0.23-0.45l-0.29-0.41 M582.9,227.35l-0.95-0.02l-0.94,0.36l-0.74,0.7l-0.43,0.93l-0.04,1.02l0.34,0.96l0.68,0.75l0.73,0.37
	 M581.72,227.27l-0.94,0.36l-0.74,0.7l-0.42,0.93l-0.04,1.03l0.34,0.96l0.68,0.75l0.91,0.42l1,0.03l0.94-0.36l0.74-0.7l0.43-0.93
	l0.04-1.02l-0.34-0.96l-0.68-0.75l-0.91-0.42L581.72,227.27 M581.76,226.09l-1.32,0.49l-1.07,0.94l-0.66,1.27l-0.18,1.42l0.34,1.38
	l0.81,1.16l1.17,0.78l1.37,0.29l1.38-0.23l1.21-0.73l0.88-1.12l0.43-1.37l-0.08-1.43l-0.58-1.29l-1-0.99l-1.29-0.54L581.76,226.09
	 M581.73,231.96l-0.71-0.38l-0.51-0.64l-0.23-0.79l0.08-0.82l0.39-0.73l0.63-0.53l0.78-0.25l0.81,0.08l0.71,0.39l0.51,0.64
	l0.23,0.79l-0.08,0.82l-0.39,0.73l-0.63,0.53l-0.78,0.25L581.73,231.96 M581.76,231.56l-0.58-0.31l-0.42-0.52l-0.19-0.64l0.07-0.67
	l0.31-0.6l0.51-0.43l0.63-0.2l0.66,0.06l0.58,0.31l0.42,0.52l0.19,0.64l-0.07,0.67l-0.31,0.6l-0.51,0.43l-0.63,0.2L581.76,231.56
	 M202.38,237.11l0.72-0.36l0.81-0.05l0.77,0.27l0.62,0.55l0.37,0.74l0.06,0.83l-0.25,0.78l-0.53,0.62l-0.72,0.36l-0.81,0.05
	l-0.77-0.27l-0.62-0.55l-0.37-0.74l-0.07-0.83l0.25-0.78L202.38,237.11 M202.7,237.4l0.59-0.3l0.66-0.04l0.63,0.22l0.5,0.44l0.3,0.6
	l0.05,0.67l-0.2,0.64l-0.43,0.51l-0.59,0.3l-0.66,0.04l-0.63-0.22l-0.5-0.44l-0.3-0.6l-0.05-0.67l0.2-0.64L202.7,237.4
	 M638.55,264.26l0.98-0.3l1.1-0.76l0.78-0.99l0.42-1.11l0.06-1.12l-0.28-1.07l-0.64-0.98l-1-0.79l-1.3-0.47l-0.96-0.08
	 M637.61,257.76L637.61,257.76l-0.04-0.31 M640.84,246.25l0.38-1.66l0.05-1.96l-0.29-1.74 M636.25,239.51l-0.81,0.78l-1.11,1.57
	l-0.81,1.8l-0.09,0.4 M634.83,265.17l3.74-0.87 M620.12,276.09l-0.04,0.07l-0.82,2l-0.4,1.97l-0.03,1.3 M623.24,283.79l1.25-0.9
	l1.41-1.46l1.08-1.65 M633.4,244.05l-1.61,5.44 M636.88,259.77l3.99-13.51 M626.98,279.78l7.98-14.86 M623.82,269.19l-3.7,6.9
	 M631.98,256.29l-6.71-6.07 M620.04,255.99l5.46,4.94 M625.24,250.25l-0.89-0.75l-1.49-0.74l-1.02-0.25 M617.98,252.76l0.01,0.03
	l0.63,1.44l0.99,1.33l0.47,0.39 M324.68,293.21l0.05,1.17l0.48,1.77l0.75,1.47l0.36,0.46 M330.95,297.96l0.49-0.74l0.64-1.6
	l0.31-1.78l-0.04-0.81 M320.98,277.98l0.13,0.17l1.76,2.61l1.4,2.55l0.12,0.25 M332.13,286.33l0.71-0.93l1.67-1.71l1.99-1.49
	l1.01-0.58 M314.88,264.84l-0.05-0.04l-1.92-0.97l-1.93-0.54l-1.31-0.13 M306.98,267.38l0.78,1.29l1.35,1.51l1.57,1.21
	 M320.88,269.31l1.16,0.26 M325.85,269.06l0.03-0.01 M323.29,279.49l0.19,0.11l0.59,0.74l0.27,0.93l-0.02,0.27 M340.42,273.8
	l-1.02-0.84l-0.78-0.97l-0.06-0.12 M325.83,269.04l-1.45,0.3l-1.72,0.11l-0.69-0.06 M333.5,281.76l0.15-0.04l0.02,0 M322.07,269.42
	l-7.2-4.6 M310.68,271.4l12.55,8.01 M332.42,293.03l-0.17-7.23 M324.35,281.4l0.27,11.8 M352.2,274.83l-0.63-0.3l-0.65-0.26
	l-0.66-0.22l-0.67-0.17l-0.69-0.13l-0.69-0.09l-0.7-0.05l-0.7-0.01 M346.99,281.4l0.7-0.04l0.69-0.08l0.69-0.12l0.68-0.16l0.67-0.21
	l0.65-0.25l0.64-0.29l0.62-0.33 M333.78,260.13l-4.31,7.61 M337.49,269.39l3.07-5.41 M337.61,256.22l-1.26,0.86l-1.44,1.42
	l-1.13,1.64 M340.56,263.98l0.03-0.05l0.86-1.97l0.44-1.95l0.06-1.32 M333.71,281.71l13.28-0.31 M346.81,273.61l-6.46,0.15
	 M268.17,92.74L267,92.73l-1.79,0.38l-1.51,0.67l-0.47,0.33 M263.09,98.75l0.72,0.53l1.56,0.72l1.76,0.4l0.81,0.01 M272.42,100.42
	l0.21,0.25l0.82,1.34l0.22,0.63 M281.97,88.31l-0.42,0.45l-2,1.81l-2.15,1.54l-1.42,0.81 M273.7,102.62l0.1,0.25l0.39,1.68
	l0.03,0.48 M292.32,81.63l0.44-1.85l0.07-1.95l-0.24-1.57 M287.9,74.75l-0.93,0.89l-1.13,1.58l-0.83,1.8l-0.05,0.21 M270.84,110.99
	l-0.03,0.05l-0.86,1.97l-0.44,1.95l-0.06,1.32 M273.8,118.75l1.25-0.85l1.44-1.42l1.13-1.64 M285.36,105.96l-0.03,0.01
	 M281.78,107.46l1.4-0.76l1.76-0.63l0.51-0.11 M281.01,91.25l-0.45,0.79l-0.7,0.57 M276.82,92.94l-8.65-0.26 M267.94,100.48
	l4.64,0.14 M277.62,114.84l4.22-7.44 M275.2,103.29l-4.37,7.71 M284.93,79.22l-3.9,11.97 M289.3,90.97l3.04-9.34 M289.14,105.43
	l7.38,4.71 M300.72,103.57l-9.04-5.77 M304.42,107.6l-0.79-1.3l-1.35-1.51l-1.57-1.21 M296.52,110.14l0.04,0.03l1.92,0.97l1.93,0.54
	l1.32,0.13 M394.32,178.38l0.3,0.09 M391.79,178.06l0.29-0.01l1.81,0.22l0.42,0.14 M388.94,178.62l0.38-0.14l1.76-0.38h0.72
	 M408.66,158.82l0.05-0.03l1.62-1.42l1.23-1.58l0.61-1.16 M409.29,150.55l-1.49,0.24l-1.91,0.67l-1.72,1 M397.93,183.7l0.03,0.05
	l1.33,1.69l1.51,1.31l1.18,0.7 M406.16,184.76l-0.16-1.5l-0.57-1.94l-0.91-1.77 M399.88,172.23l0-1.37l0.3-2.69l0.69-2.62l0.7-1.74
	 M378.21,153.07l-0.05-0.03l-1.92-0.97l-1.93-0.54l-1.3-0.13 M370.31,155.6l0.79,1.3l1.35,1.51l1.58,1.22 M379.11,180.14l-0.03,0.05
	l-0.86,1.97l-0.44,1.95l-0.06,1.33 M382.07,187.89l1.25-0.85l1.44-1.42l1.13-1.64 M395.65,158.54l-1.63,0.26l-3.21,0.21l-3.04-0.16
	l-0.78-0.1 M401.51,163.88l7.15-5.05 M404.17,152.46l-8.77,6.19 M404.53,179.55l-4.66-7.41 M394.62,178.44l3.31,5.26 M383.42,172.52
	l-4.32,7.62 M385.89,183.98l3.07-5.41 M374.01,159.63l7.38,4.71 M387.27,158.85l-9.06-5.79 M511.87,94.77l1.17-0.11l1.74-0.57
	l1.43-0.82l0.43-0.38 M516.3,88.25l-0.77-0.46l-1.63-0.56l-1.79-0.22l-0.81,0.08 M507.24,95.17l0.15-0.21 M506.24,97.2l0.08-0.26
	l0.69-1.42l0.25-0.33 M505.8,99.63v-0.05l0.23-1.68l0.23-0.68 M493.91,74.38l-0.81-1.71l-1.17-1.57l-1.17-1.08 M486.15,71.77
	l-0.18,1.29l0.1,1.94l0.48,1.92l0.09,0.19 M503.49,87.64l-0.93-0.46l-2.24-1.37l-2.12-1.66l-0.9-0.86 M502.88,109.61l0.03,0.05
	l1.33,1.7l1.51,1.31l1.14,0.68 M511.11,110.69l-0.16-1.51l-0.57-1.94l-0.9-1.77 M500.02,87.69l-0.8-0.4l-0.65-0.74l-0.15-0.36
	 M494.76,101.11l-0.02-0.01 M511.29,87.05l-8.4,0.64 M507.1,95.18l4.78-0.36 M494.68,101.12l1.43,0.33l1.7,0.66l0.54,0.31
	 M498.37,86.15l-4.45-11.77 M486.63,77.13l3.47,9.18 M504.74,97.95l0.02,0.03 M498.32,102.38l4.56,7.24 M509.47,105.46l-4.72-7.5
	 M478.65,107.71l1.5-0.24l1.91-0.67l1.72-1 M479.29,99.44l-0.05,0.03l-1.62,1.42l-1.23,1.58l-0.62,1.18 M483.78,105.8l7.15-5.05
	 M488.07,93.23l-8.79,6.2 M456.45,290.15l0.05,1.17l0.48,1.77l0.75,1.47l0.36,0.45 M462.73,294.9l0.49-0.73l0.64-1.6l0.31-1.78
	l-0.04-0.81 M463.9,280.5l0.48-1.12l1.44-2.74l1.34-2.07 M450.8,279l0.62,0.31l2.09,1.33l1.8,1.57l1.08,1.24 M477.1,267.54
	l0.05-0.03l1.62-1.42l1.23-1.58l0.62-1.17 M477.75,259.26l-1.51,0.24l-1.91,0.67l-1.72,1 M447.95,270.97l-0.21,0.22l-0.13,0.08
	 M461.83,265.9l0.02,0 M465.68,266.07l-1.16,0.1l-1.8-0.12l-1.01-0.21 M449.21,269.45l-0.67,0.95l-0.59,0.57 M463.93,278.11
	l-0.01-0.06l0.21-0.91l0.6-0.83l0.16-0.1 M454.64,278.91l0.07,0l0.07,0.02 M456.23,282.93l0.17,7.22 M464.19,289.97l-0.27-11.8
	 M441.12,271.42l-0.7,0.04l-0.69,0.08l-0.69,0.12l-0.68,0.16l-0.67,0.21l-0.65,0.25l-0.64,0.29l-0.62,0.33 M435.92,278l0.63,0.3
	l0.65,0.26l0.66,0.22l0.67,0.18l0.68,0.13l0.69,0.09l0.7,0.05l0.7,0.01 M441.3,279.22l13.28-0.31 M447.61,271.27l-6.49,0.15
	 M472.61,261.17l-6.99,4.93 M464.95,276.13l12.16-8.59 M445.28,256.28l0.16,1.52l0.57,1.94l0.91,1.77 M453.51,257.36l-0.03-0.05
	l-1.33-1.69l-1.51-1.31l-1.13-0.67 M458.18,264.76l-4.66-7.41 M446.92,261.51l3.31,5.26 M209.15,222.72l0.88-0.13l1.48-0.52
	l1.4-0.88l0.54-0.56 M208.03,215.17l-0.77,0.82l-0.83,1.45l-0.43,1.42l-0.07,0.87 M208.93,222.73l0.23-0.01 M213.89,203.91
	l-0.14,2.31l-0.39,2.55l-0.34,1.38 M217.36,191.09l-0.81-1.71l-1.17-1.57l-1.16-1.07 M209.6,188.49l-0.17,1.28l0.1,1.94l0.48,1.93
	l0.09,0.2 M218.1,215.85l1.21-0.16l2.51-0.04l1.9,0.22 M214.86,206.53l0.05,0.12l0.07,0.83l-0.3,0.92l-0.45,0.54l-0.08,0.06
	 M222.44,196.4l-1.28,0.26l-0.51-0.03 M214.35,208.82l-6.36,6.32 M213.49,220.66l4.88-4.85 M220.54,213.9l0.12,0.02l-0.01-0.01
	 M210.08,193.84l4.78,12.64 M219.46,196.62l-2.09-5.53 M230.2,210.1l-0.6-1.06l-0.82-2.3l-0.39-2.3l-0.01-1.49 M241.09,219.36
	l-0.78-1.29l-1.35-1.51l-1.57-1.21 M233.19,221.91l0.05,0.04l1.93,0.97l1.93,0.54l1.32,0.13 M229.34,187.08l-1.26,0.86l-1.44,1.42
	l-1.13,1.63 M232.29,194.83l0.03-0.05l0.86-1.97l0.44-1.95l0.06-1.32 M237.39,215.34l-7.21-4.6 M220.64,213.9l12.55,8.01
	 M228.07,202.28l4.22-7.44 M225.51,190.99l-4.37,7.71 M164.62,100.24l-0.8,0.85l-0.82,1.45l-0.42,1.42l-0.06,0.85 M165.46,107.79
	l1.32-0.17l1.47-0.55l1.38-0.92l0.41-0.44 M185.59,78.46l0.44-1.84l0.07-1.95l-0.23-1.56 M181.16,71.58l-0.94,0.89l-1.14,1.58
	l-0.83,1.8l-0.05,0.21 M173.21,91.26l-0.04,0.17l-0.52,0.72 M172.52,102.05l0.69,0.08l1.49,0.48l1.21,0.74 M170.08,105.73l3.51-3.48
	 M172.67,92.17l-8.09,8.04 M183.45,85.08l2.15-6.6 M178.19,76.06l-4.94,15.17 M185.15,90.23l-0.37-0.39l-0.4-0.58l-0.19-0.4
	l-0.02-0.1 M185.52,100.38l0.15-0.43l0.14-0.21 M185.79,99.72l0.02-0.03l0.86-1.14l0.4-0.32 M186.79,114.19l0.18-1.29l-0.1-1.94
	l-0.48-1.92l-0.09-0.2 M179.03,111.58l0.81,1.71l1.17,1.57l1.17,1.08 M191.78,90.42l-8.42-0.25 M186.31,98.06l5.24,0.16
	 M174.24,98.94l4.78,12.64 M186.31,108.83l-2.06-5.46 M196.63,92.15l-0.72-0.54l-1.57-0.72l-1.76-0.4l-0.81-0.01 M191.55,98.16
	l1.17,0.01l1.79-0.38l1.51-0.67l0.48-0.34 M571.88,212.32l0.88,0.74l1.49,0.75l1.44,0.35l0.87,0.02 M579.37,211.09l-0.21-1.23
	l-0.61-1.44l-0.97-1.34l-0.54-0.46 M571.85,201.91l-0.27-0.86l-0.57-2.48l-0.34-2.62l-0.01-0.3 M573.99,185.39l0.44-1.84l0.07-1.95
	l-0.24-1.58 M569.56,178.51l-0.94,0.89l-1.14,1.58l-0.83,1.8l-0.05,0.21 M561.45,208l0.09-0.02l2.56-0.32l2.33,0.03l0.6,0.06
	 M563.54,188.72l-0.21,0.02l-1.45-0.16l-0.26-0.1 M570.4,200.51l-0.08-0.06l-0.45-0.73l-0.14-0.99l0.1-0.42 M577.08,206.58
	l-6.65-6.02 M566.74,207.73l5.11,4.63 M564.38,205.94l0.04-0.01l0.07-0.01 M569.82,198.25L574,185.4 M566.59,182.99l-1.81,5.55
	 M556.16,195.38l0.01,2l-0.32,2.08l-0.7,2.14l-0.34,0.66 M554.7,203.22l-6.97,4.92 M552.22,214.51l12.16-8.59 M551.86,187.42
	l4.56,7.24 M563.18,190.77l-4.72-7.5 M550.23,182.2l0.16,1.51l0.57,1.94l0.91,1.77 M558.46,183.28l-0.03-0.05l-1.33-1.69l-1.51-1.31
	l-1.19-0.71 M547.09,216.42l1.5-0.24l1.91-0.67l1.72-1 M547.73,208.15l-0.05,0.03l-1.62,1.42l-1.23,1.58l-0.62,1.17 M609.91,95.5
	l0.96,0.79l1.49,0.73l1.44,0.33l0.79,0.01 M617.42,94.27l-0.25-1.33l-0.64-1.44l-1-1.33l-0.45-0.37 M600.38,66.27l-0.81-1.71
	l-1.17-1.57l-1.17-1.08 M592.63,63.66l-0.18,1.29l0.1,1.94l0.48,1.93l0.09,0.2 M606.66,82.07l-0.14-0.1l-0.45-0.77 M603.95,93.43
	l1-0.71l1.36-0.58l0.97-0.18 M606.19,92.2l3.69,3.34 M615.11,89.76l-8.45-7.65 M595.06,79.14l-0.01,0.04l-0.05,0.12 M593.98,90.38
	l0.02,0.03l0.38,0.84 M593.11,69.02l2.45,6.48 M595.56,75.5l0.08,0.2 M606.04,81.19l-5.64-14.93 M592.3,88.7l0.91,0.71l0.75,0.99
	 M601.23,101.79l4.18-12.85 M595.64,93.76l-1.83,5.62 M598.26,106.27l0.94-0.89l1.14-1.58l0.83-1.8l0.05-0.21 M593.83,99.39
	l-0.44,1.84l-0.07,1.95l0.23,1.56 M583.09,87.82l0.76,0.45l1.63,0.56l1.79,0.22l0.81-0.08 M587.5,81.3l-1.17,0.11l-1.74,0.57
	l-1.43,0.82l-0.43,0.38 M596.12,80.59l-8.63,0.66 M588.09,89.02l5.21-0.4 M145.12,268.33l-0.32,0.33l-0.58,0.91l-0.23,0.8l-0.01,0.9
	l0.3,1.08l0.66,1.05l1,0.87l1.39,0.62l0.19,0.02 M148.4,267.28l-0.55-0.05l-1.33,0.27l-1.1,0.58l-0.31,0.25 M148.72,268.12
	l-0.01,0.42l-0.05,0.31 M163.19,289.35l1.39,1.5l1.59,1.16l1.3,0.63 M171.42,289.63l-0.25-1.39l-0.7-1.85l-1.05-1.71l-0.06-0.06
	 M150.84,255.02l-1.13-1.79l-1.36-1.44l-1.11-0.82 M142.78,253.22l0,1.46l0.37,1.96l0.74,1.88l0.01,0.01 M153.06,276.27l0.04,0.01
	l0.21,0.15l0,0 M147.49,274.94l5.54,1.31 M153.32,276.44l9.86,12.9 M169.37,284.61l-4.61-6.03 M153.7,260.67l-2.85-5.65
	 M143.89,258.53l6.37,12.62 M161.87,260.96l-4.81,4.78 M162.15,271.67l5.21-5.18 M165.19,259.1l-0.27,0.05l-1.47,0.62l-1.35,0.98
	l-0.21,0.24 M167.33,266.46l0.87-0.96l0.79-1.45l0.25-0.91 M308.74,263.85l-68.29-43.61 M238.93,222.63l68.29,43.61 M476.45,104.47
	l-66.19,46.73 M411.89,153.52l66.19-46.73 M508.01,113.12l43.17,68.57 M553.58,180.17l-43.17-68.57 M262.52,95l-66.47-1.97
	 M195.96,95.86l66.47,1.97 M583.35,84.05l-66.31,5.05 M517.26,91.92l66.31-5.05 M544.89,213.18l-66.19,46.73 M480.33,262.23
	l66.19-46.73 M270.19,117.18l-39.94,70.49 M232.71,189.07l39.94-70.49 M615.42,97.21l52.44,47.48 M669.77,142.59l-52.44-47.48
	 M435.82,274.03l-83.6,1.94 M352.29,278.8l83.6-1.94 M372.07,152.09l-68.29-43.61 M302.26,110.86l68.29,43.61 M162.62,105.65
	l-50.18,49.86 M114.44,157.52l50.18-49.86 M378.46,186.32l-39.94,70.49 M340.98,258.21l39.94-70.49 M594.63,104.89l-23.89,73.38
	 M573.43,179.15l23.89-73.38 M213.02,186.57l-27.27-72.19 M183.1,115.38l27.27,72.19 M403.06,187.2l43.17,68.57 M448.63,254.26
	l-43.17-68.57 M476.38,346.47l0.59,0.16 M313.14,352.62l0.56-0.21 M475.19,346.15l0.59,0.16 M590.75,211.12l-0.59-0.16
	 M314.25,352.21l0.56-0.21 M194.9,220.28l-0.56,0.21 M168.21,255.17l-2.16,2.48l-0.59,0.92l-0.33,0.67l-0.1,0.28l-0.07,0.3
	l-0.02,0.67l0.21,0.79l0.44,0.76l0.24,0.25 M165.83,262.29l0.39,0.4l0.71,0.45l0.7,0.22l0.69,0.02l0.39-0.07l0.44-0.14l1.08-0.55
	l2.96-2.43 M179.29,244.15l-11.08,11.01 M173.2,260.19l10.96-10.89 M196.28,227.12l-0.56,0.21 M189.56,244.77l0.56-0.21
	 M195.24,237.85l0.56-0.21 M198.14,235.42l9.02-8.96 M202.16,221.43l-8.56,8.51 M207.15,226.46l2.16-2.48l0.6-0.92l0.25-0.52
	 M206.1,218.5l-0.98,0.5l-2.96,2.43 M613.92,249.97l2.88,2.2l0.94,0.5l0.62,0.22l0.25,0.05l0.28,0.03l0.65-0.05l0.77-0.29l0.72-0.51
	l0.2-0.23 M621.23,251.89l0.39-0.45l0.38-0.74l0.15-0.7l-0.03-0.66l-0.09-0.37l-0.16-0.42l-0.61-1.03l-2.58-2.81 M602.47,239.6
	l11.45,10.37 M618.68,244.72l-11.6-10.51 M589.8,218.07l-0.59-0.16 M596.35,235.31l0.59,0.16 M590.45,228.57l0.59,0.16
	 M592.07,220.63l-8.87-8.03 M578.44,217.85l9.43,8.54 M583.2,212.6l-2.88-2.2l-0.94-0.5l-0.25-0.09 M575.29,214.06l0.58,0.98
	l2.58,2.81 M204.6,242.61l0.44-0.16 M202.3,235.15l-0.44,0.16 M583.8,226.28l-0.47-0.12 M581.34,233.69l0.47,0.12 M581.79,231.98
	L581.79,231.98 M582.89,227.87L582.89,227.87 M202.92,236.8L202.92,236.8 M204.41,240.79L204.41,240.79"/>
<path class="st3" d="M617.73,526.08l0.01-0.17l0.24-0.63l0.53-0.69l0.75-0.63 M619.25,523.96l0.85-0.49l0.82-0.27l0.67,0l0.15,0.05
	 M621.47,536.93l-0.07-0.19 M618.37,529.01l3.02,7.72 M619.4,530.93l-1.03-1.92 M632.95,560.14l-0.99-1.75 M634.91,563.64
	l-1.96-3.49 M619.4,530.93l2.72,3.85 M622.12,534.79l0.45,0.63 M641.68,564.64l-0.14,0.1l-0.49,0.21l-0.77,0.27l-0.92,0.3
	l-0.94,0.28l-0.82,0.21l-0.57,0.11l-0.23,0 M633.96,561.41l0.66,1.66l0.3,0.57 M628.73,537.93l-0.74-1.05 M628.81,539.63l0.3-0.26
	l0.07-0.44l-0.17-0.52l-0.29-0.48 M624.86,537.02l0.43-0.24l0.34-0.36l0.15-0.21 M624.11,537l0.75,0.02 M625.78,536.22l0.2-0.22
	l0.25-0.13l0.27-0.03l0.43,0.1l0.6,0.4l0.46,0.53 M633.85,548.42l-0.33-0.85l-0.36-0.59l-0.42-0.39l-0.38-0.14l-0.42,0.06
	 M621.47,536.93l1.21,3.51l0.4,1.69 M624.11,537l-0.32-0.19l-0.96-1.05l-0.27-0.35 M632.8,557.62l0.11,0.38 M632.92,558l1.04,3.41
	 M633.85,548.42l0.55,1.79 M633.12,552.58l0.46-0.1 M634.4,550.21l0.13,1.07l-0.1,0.48l-0.25,0.42l-0.26,0.2l-0.33,0.1
	 M633.12,552.58l-0.64,0.35l-0.38,0.51l-0.13,0.65l0.01,0.27 M631.96,558.39l-3.06-5.16l-1.41-2.06l-1.26-1.48l-0.35-0.28
	 M631.99,554.36L631.99,554.36l0.18,1.05l0.63,2.21 M629.23,547.95l0.14-0.06l0.3-0.16l0.29-0.18l0.39-0.24l0.48-0.28l0.24-0.12
	 M631.94,546.52l-0.87,0.38 M628.14,539.93l0.67-0.29 M628.14,539.93l-0.67,0.29l-0.07,0.03 M620.27,548.24l-0.31-0.45l-0.15-0.53
	l0.05-0.53l0.23-0.45l0.38-0.3l0.47-0.1l0.49,0.11l0.43,0.3l0.31,0.45l0.14,0.53l-0.05,0.53l-0.23,0.45l-0.38,0.3l-0.47,0.1
	l-0.49-0.11L620.27,548.24 M619.64,549.02l-0.56-0.81l-0.26-0.96l0.08-0.96l0.41-0.81l0.68-0.54l0.84-0.18l0.88,0.2l0.78,0.55
	l0.56,0.81l0.26,0.96l-0.08,0.96l-0.41,0.81l-0.68,0.54l-0.84,0.19l-0.88-0.2L619.64,549.02 M341.98,412.34l-0.14-0.95l-0.46-0.88
	l-0.48-0.5 M308.59,425.2l-0.52-0.33l-0.52-0.66l-0.39-0.88 M307.15,423.33l-0.21-0.97l0.01-0.91l0.23-0.71l0.14-0.19 M320.05,425.4
	l-0.2,0 M311.75,425.61l8.1-0.21 M313.84,425.31l-2.09,0.3 M345.39,421.82l-1.96,0.42 M349.3,420.99l-3.91,0.83 M313.84,425.31
	l4.37-1.19 M318.21,424.12l0.71-0.19 M322.82,419.51l-1.2,0.33 M324.36,420.17l-0.13-0.44l-0.37-0.27l-0.52-0.05l-0.52,0.1
	 M352.26,414.81L352.26,414.81l0.03,0.27l0.02,0.61l0.01,0.86l0,0.99l-0.01,0.96l-0.01,0.78l-0.02,0.49l-0.02,0.13 M346.89,421.24
	l1.78-0.14l0.63-0.11 M320.95,422.61l-0.12-0.42l-0.25-0.39l-0.17-0.2 M320.77,423.18l0.18-0.58 M320.41,421.59l-0.15-0.24
	l-0.05-0.27l0.04-0.25l0.21-0.35l0.54-0.41l0.63-0.24 M320.05,425.4l3.61,0.1l0.87,0.14 M320.77,423.18l-0.25,0.19l-1.21,0.44
	l-0.39,0.11 M334.25,417.96l-0.92,0.08l-0.68,0.2l-0.51,0.33l-0.27,0.38l-0.09,0.49 M334.25,417.96h1.87 M336.13,417.96l1.07,0.18
	l0.43,0.23l0.33,0.35l0.12,0.3l0,0.32 M338.05,419.79l0.03-0.45 M338.05,419.79l0.17,0.65l0.4,0.44l0.62,0.25l0.27,0.05
	 M343.43,422.24l-5.84,1.42l-2.41,0.8l-1.84,0.87l-0.99,0.77 M339.51,421.18L339.51,421.18l1.08,0.07l0.85,0 M332.24,422.99l0-0.16
	 M332.24,422.84l-0.04-0.28l-0.07-0.33l-0.08-0.33l-0.11-0.46l-0.1-0.59l-0.02-0.31 M331.78,419.44l0.04,1.1 M329.35,432.46
	l-0.52,0.16l-0.55-0.02l-0.5-0.19l-0.37-0.33l-0.19-0.42l0.03-0.45l0.24-0.41l0.41-0.3l0.52-0.16l0.55,0.02l0.5,0.19l0.37,0.33
	l0.19,0.42l-0.03,0.45l-0.24,0.41L329.35,432.46 M329.93,433.24l-0.94,0.28L328,433.5l-0.9-0.33l-0.67-0.59l-0.34-0.76l0.05-0.81
	l0.43-0.73l0.74-0.55l0.94-0.28l0.99,0.03l0.9,0.33l0.67,0.59l0.34,0.76l-0.05,0.81l-0.43,0.73L329.93,433.24 M290.37,426.19
	l-1.09-1.37 M267.87,432.25l1.23-0.53 M264.87,433.15l-0.06-0.07l-0.47-0.63l-0.57-0.77 M263.78,431.67l-0.58-0.8l-0.5-0.71
	l-0.34-0.51l-0.14-0.23l0-0.01 M269.18,431.77l-0.47,0.15l-0.62,0.24 M268.09,432.16l-0.19,0.08 M267.87,432.25l1.26-0.65
	 M273.8,427.51l0.24-0.8l-0.09-0.85l-0.1-0.2 M285.94,415.11l-0.82,0.24l-0.73,0.23l-0.7,0.24l-0.54,0.21l-0.49,0.21 M296.08,417.5
	l0.16-0.04 M298.69,416.79l-2.45,0.67 M287.48,414.69l-1.54,0.42 M289.51,416.28l-0.18-0.59 M287.48,414.69l0.89-0.06l0.38,0.13
	l0.33,0.29l0.16,0.29l0.09,0.35 M281.76,416.66l0.68-0.24l0.7-0.25l0.71-0.25l0.71-0.25l0.72-0.25l0.73-0.25l0.73-0.25l0.74-0.24
	 M302.65,410.6l-0.06,0.02l-0.23,0.22l-0.13,0.39l-0.01,0.51l0.11,0.54l0.22,0.49l0.29,0.37l0.32,0.19l0.23,0 M303.72,410.3
	l-0.39-0.46l-0.57-0.34l-0.53,0.03l-0.41,0.4l-0.23,0.71l-0.01,0.91l0.21,0.97l0.39,0.88l0.52,0.66l0.57,0.34l0.53-0.04l0.41-0.4
	l0.23-0.71l0.03-0.23 M298.69,416.79l0.77-0.25 M299.46,416.54l1.16-0.55 M289.51,416.28l0.55,0.78l0.79,0.55l1.01,0.31
	 M273.8,427.51l-0.14,0.24l-0.83,0.97l-2.88,2.33 M269.96,431.05l-0.83,0.55 M269.13,431.6L269.13,431.6 M278.48,423.55l-1.59,0.74
	 M280.97,421.73l0.63-1.02l0.23-0.92l-0.05-0.89 M281.78,418.9l-0.19-0.54 M281.59,418.36l-0.14-0.32l-0.1-0.31l-0.05-0.28
	l0.03-0.33l0.22-0.33l0.21-0.13 M281.76,416.66l0.9-0.42 M278.48,423.55l0.13-0.07 M271.06,421.47l0.16-0.06l0.48-0.02l0.47,0.19
	l0.39,0.37l0.25,0.49l0.08,0.54l-0.11,0.51l-0.28,0.39l-0.25,0.16 M278.61,423.48l1.39-0.86l0.63-0.53l0.34-0.36 M296.08,417.5
	l-2.79,0.47l-0.97,0.01l-0.46-0.05 M275.6,424.59l0.76-0.11 M276.36,424.48l0.53-0.19 M269.42,422.23l0.19-0.78l0.51-0.71l0.74-0.4
	l0.86-0.04l0.85,0.34l0.71,0.66l0.46,0.88l0.14,0.97l-0.2,0.91l-0.51,0.71l-0.74,0.4l-0.86,0.03l-0.85-0.34l-0.1-0.07 M297.11,418
	l-5.3,2.92l-2.71,1.33l-1.22,0.52l-1.12,0.41l-2.1,0.59l-2.08,0.37l-3.94,0.32 M278.64,424.46l-0.63,0.03 M275.6,424.59l2.4-0.1
	 M276.12,424.66l-0.2-0.06l-0.32-0.01 M276.17,424.81l-0.05-0.14 M276.08,424.92l0.09-0.11 M275.89,425.05l0.11-0.07l0.08-0.07
	 M275.62,425.19l0.14-0.07l0.12-0.07 M275.32,425.31l0.3-0.12 M274.75,425.48l0.57-0.17 M274.26,425.57l0.49-0.09 M273.93,425.61
	l0.33-0.03 M274.4,425.59l-0.47,0.02 M269.1,431.72l4.16-1.83l3.23-1.5l2.24-1.17l0.73-0.46l0.46-0.38l0.18-0.3l-0.08-0.23
	l-0.94-0.27l-1.16-0.06l-1.56,0.01l-1.96,0.06 M269.35,431.73l-0.17,0.05 M269.6,431.68l-0.25,0.05 M269.6,431.68l0.19-0.01
	 M269.86,431.7l-0.08-0.03 M269.86,431.7l0.01,0.01 M271.15,431.43l0.75-0.32 M271.91,431.11l1.84-0.79 M273.75,430.32l5.56-2.28
	l2.4-0.84l1.95-0.53l1.52-0.18l1.19,0.11l0.92,0.44 M290,426.3l-0.75-0.59 M289.24,425.71l-0.23-0.26 M294.82,420.05l-2.98,1.86
	l-2.09,1.59l-0.84,1.21l0.11,0.75 M294.82,420.05l0.17-0.1 M301.88,415.98l-6.89,3.96 M301.88,415.98l-0.46,0.25 M300.85,416.5
	l0.57-0.27 M300.26,416.73l0.6-0.23 M299.97,416.81l0.28-0.08 M299.75,416.84l0.1-0.01l0.12-0.02 M299.64,416.81l0.04,0.02
	l0.07,0.01 M299.64,416.73l0,0.08 M299.85,416.5l-0.21,0.23 M300.62,415.98l-0.44,0.27l-0.33,0.24 M300.62,415.98l-2.64,1.52
	 M297.98,417.5l-0.87,0.5 M411.83,391.09l0.1,0.13l0.26,0.71l0.03,0.91l-0.2,0.97l-0.4,0.88l-0.16,0.23 M406.52,395.94h-0.98
	 M405.54,395.94h-0.93 M379.22,395.94h-1.7 M370.65,391.03l-0.29,0.58l-0.1,0.84l0.12,0.96l0.32,0.94l0.48,0.77l0.46,0.42
	 M377.49,395.94h0.03 M405.38,395.37l-0.42-0.12 M380.41,395.94h-1.19 M404.61,395.94h-1.05 M393.94,388.91l-0.92-0.29l-0.56-0.1
	l-0.65-0.05l-0.57,0.02l-0.6,0.08l-0.77,0.21l-0.3,0.12 M400.62,395.94h0.43 M393.94,388.91l0.18,0.08 M394.11,388.98l0.32,0.27
	l0.08,0.14 M394.51,389.39l0.1,0.34l0.03,0.42l-0.02,0.41l-0.04,0.32 M394.58,390.87l-0.04,0.37l0.16,1.07l0.39,0.7l0.58,0.6
	l0.76,0.52 M382.74,395.94h0.67 M387.17,394.09l0.73-0.53l0.63-0.7l0.34-0.7l0.14-0.81l-0.03-0.5 M388.98,390.85l-0.04-0.4
	l-0.01-0.41l0.03-0.36l0.08-0.31l0.2-0.3l0.16-0.1 M389.39,388.99l0.17-0.08 M403.45,394.54l-0.28-0.18l-0.27-0.39l-0.1-0.51
	l0.08-0.54 M402.88,392.92l0.26-0.49l0.39-0.37l0.46-0.19l0.47,0.02l0.12,0.04 M401.05,395.94l-0.45-0.04 M399.78,395.66l-0.1-0.04
	 M405.06,395.23l-0.17,0.12l-0.83,0.34l-0.84-0.03l-0.72-0.4l-0.49-0.71l-0.18-0.91l0.15-0.97 M401.98,392.67l0.46-0.88l0.7-0.66
	l0.83-0.34l0.84,0.03l0.72,0.4l0.49,0.71l0.17,0.7 M380.52,394.52l0.09-0.05l0.34-0.33l0.18-0.47 M381.14,393.68v-0.54l-0.19-0.52
	l-0.34-0.43l-0.45-0.27l-0.48-0.07l-0.36,0.09 M378.89,395.28l0.6,0.32l0.87,0.12l0.81-0.26l0.62-0.59l0.33-0.84 M382.12,394.03
	v-0.96l-0.33-0.94l-0.62-0.77l-0.81-0.48l-0.87-0.12l-0.81,0.26l-0.62,0.6l-0.33,0.84l-0.03,0.26 M382.74,395.94l0.7-0.1
	 M383.94,395.66l0.2-0.08 M383.41,395.94h2.38h2.14h1.97h0.95h0.93h0.92h0.94h1.99h1.47h1.64h1.88 M387.17,394.09l-0.24,0.14
	l-0.93,0.48l-0.57,0.26 M383.94,395.66l-0.5,0.18 M383.45,395.84L383.45,395.84 M399.78,395.66l0.81,0.24 M398.56,395.13l-0.45-0.19
	l-0.7-0.31l-0.9-0.45l-0.09-0.05 M488.15,426.8l-0.71,0.64 M488.15,426.8l0.02-0.03 M515.99,431.65l0.22-0.31l0.54-0.78
	 M516.75,430.56l0.41-0.64l0.22-0.4l0.03-0.1 M505.9,425.67l-0.15,0.34l-0.06,0.74l0.26,0.8 M490.25,423.87l-0.03,0.33l-0.09,0.29
	 M497.35,416.24l-0.59-0.24l-0.63-0.23l-0.72-0.24l-0.66-0.21l-0.72-0.21 M492.53,414.69l0.74,0.24l0.74,0.25l0.74,0.25l0.73,0.25
	l0.72,0.25l0.72,0.25l0.71,0.25l0.7,0.24 M479.66,415.98L479.66,415.98 M481.53,416.79l2.84,0.8 M484.37,417.59l0.33,0.08
	 M488.1,417.97l1.07-0.31l0.91-0.66l0.51-0.79 M490.6,416.21l0.15-0.52 M490.75,415.69l0.09-0.34l0.15-0.29l0.21-0.22l0.36-0.19
	l0.6-0.04l0.38,0.08 M494.03,415.11l-1.49-0.42 M477.65,410.6l0.21,0.13l0.19,0.33l0.07,0.47l-0.06,0.53l-0.18,0.52l-0.28,0.43
	l-0.33,0.27 M477.28,413.28l-0.33,0.07l-0.07-0.01 M488.1,417.97L488.1,417.97l-1.22,0.04l-2.18-0.34 M479.66,415.98l1.87,0.8
	 M476.5,410.28l0.15-0.19l0.59-0.48l0.59-0.12l0.51,0.26l0.34,0.6l0.13,0.84l-0.11,0.96l-0.33,0.93l-0.5,0.77l-0.59,0.48
	 M477.29,414.32l-0.59,0.12l-0.51-0.26l-0.34-0.59l-0.11-0.59 M507.48,429.26l-0.01-0.01l-0.77-0.71l-0.71-0.89l-0.05-0.09
	 M506.57,425.61l-0.82-0.03 M499.23,421.76L499.23,421.76l0.79,0.73l1.46,0.9 M501.48,423.38l0.22,0.1 M501.7,423.49l1.85,0.8
	 M497.35,416.24l0.97,0.42 M498.32,416.66l0.44,0.38l0.08,0.29l-0.03,0.38l-0.09,0.31l-0.15,0.34 M498.38,418.86l0.19-0.51
	 M498.38,418.86l-0.06,0.94l0.23,0.91l0.46,0.79l0.21,0.26 M505.75,425.58l-2.71-0.04l-1.92,0.1l-1.03,0.29l-0.15,0.23l0.12,0.3
	l0.39,0.37l0.67,0.45l0.82,0.43 M504.93,424.59l-2.46-0.09 M502.47,424.5l-1.24-0.05 M501.23,424.45l-4.01-0.34l-2.04-0.38
	l-2.05-0.58l-2.12-0.83l-2.25-1.08l-4.67-2.62 M484.08,418.61l-1.49-0.88 M479.66,415.98l2.93,1.74 M479.92,416.15l-0.27-0.17
	 M480.55,416.67l-0.24-0.25l-0.38-0.27 M480.55,416.67L480.55,416.67 M480.55,416.67l0.03,0.13l-0.05,0.04 M480.35,416.84l0.1,0.01
	l0.07-0.01 M480.35,416.84l-0.18-0.03l-0.08-0.02 M479.48,416.57l0.32,0.12l0.28,0.09 M478.91,416.31l0.57,0.26 M478.39,416.03
	l0.52,0.28 M478.31,415.98l0.09,0.05 M478.31,415.98l7.71,4.58 M486.02,420.56l0.99,0.61 M490.41,424.6l-0.12-0.68l-1.38-1.4
	l-1.91-1.34 M487.43,427.44l0.95-0.61 M487.43,427.44l0.19-0.08 M487.94,427.34l-0.32,0.03 M488.41,427.4l-0.46-0.06 M488.69,427.48
	l-0.29-0.08 M488.99,427.59l-0.15-0.06l-0.15-0.05 M489.26,427.73l-0.13-0.07l-0.14-0.07 M489.45,427.87l-0.19-0.14 M489.63,428.1
	l-0.19-0.23 M489.54,428.39l0.11-0.13l-0.01-0.16 M489.54,428.39l0.89-0.57 M490.43,427.81l0.3-0.18 M509.52,421.45l-0.39-0.08
	l-0.47,0.11l-0.43,0.3l-0.32,0.45l-0.16,0.53l0.03,0.53l0.2,0.45l0.35,0.3l0.05,0.02 M511.13,422.15l-0.06-0.34L510.7,421
	l-0.63-0.54l-0.8-0.19l-0.85,0.19l-0.77,0.54l-0.57,0.81l-0.28,0.95l0.05,0.95l0.37,0.81l0.63,0.54l0.8,0.19l0.85-0.19l0.5-0.3
	 M505.32,425.38l0.18,0.05 M505.5,425.43l0.44,0.1l0.49,0.07 M506.42,425.6l0.13,0.01 M503.55,424.29l1,0.27l0.39,0.03
	 M504.93,424.59l-0.23,0 M504.7,424.59L504.7,424.59 M504.7,424.59l-0.24,0.03l-0.15,0.08 M504.33,424.88l-0.02-0.18 M504.33,424.88
	l0.06,0.06l0.09,0.07 M504.52,425.04l-0.04-0.03 M504.52,425.04l0.2,0.11 M505.02,425.28l-0.29-0.13 M505.02,425.28l0.3,0.1
	 M445.29,412.75l0.01-0.96l0.34-0.94l0.61-0.77l0.29-0.23 M475.84,425.61l-9.13-0.24 M475.84,425.61l-2.04-0.3 M478.98,425.19
	l0.28-0.13l0.58-0.54l0.47-0.81l0.29-0.95l0.07-0.95L480.5,421l-0.23-0.39 M466.71,425.37l-1.19,0 M443.9,422.08l-1.05-0.23
	 M438.8,420.99l4.04,0.86 M468.53,423.82l0.93,0.26 M473.8,425.31l-4.34-1.22 M435.86,415.94l0.01,0.04l0.01,0.23l0.01,0.41l0,0.52
	v0.55l-0.01,0.5l-0.01,0.38l-0.01,0.19l-0.01,0.02 M466.49,419.83l-1.16-0.33 M465.33,419.51l-0.64-0.1l-0.49,0.12l-0.24,0.29
	l-0.05,0.36 M467.63,421.59l-0.25,0.3l-0.24,0.38l-0.09,0.24 M438.8,420.99l1.35,0.2 M440.15,421.19l1.06,0.05 M435.81,415.94
	l0-0.08l0.02-0.68l0.02-0.35l0.02,0.04l0.02,0.42l0.02,0.73l0.01,0.93l0,0.99l-0.01,0.9l-0.02,0.68l-0.02,0.35l-0.02-0.04
	l-0.02-0.42l-0.02-0.65 M467.06,422.52l0.02,0.56l0.11,0.16 M466.49,419.83l0.87,0.41l0.31,0.31l0.17,0.41l-0.01,0.27l-0.12,0.26
	l-0.08,0.1 M452.16,417.96h1.87 M456.61,419.44l-0.15-0.54l-0.36-0.4l-0.58-0.31l-0.65-0.17l-0.83-0.06 M464.1,425.48l1.41-0.11
	 M468.53,423.82l-0.99-0.35l-0.36-0.24 M450.2,419.82l-0.01-0.47 M450.19,419.35l0.01-0.31l0.12-0.3l0.21-0.26l0.42-0.28l0.73-0.21
	l0.48-0.03 M448.65,421.17l0.91-0.29l0.45-0.45l0.2-0.61 M456.34,426.6l-0.16-0.23l-0.65-0.58l-0.79-0.51l-2.03-0.91l-2.65-0.83
	l-6.14-1.46 M446.61,421.25l0.59,0l0.96-0.03l0.49-0.05 M456.65,420.54l-0.03-1.1 M456.65,420.54l-0.06,0.76l-0.09,0.43l-0.11,0.48
	l-0.07,0.33l-0.06,0.3 M456.24,423.33l0.02-0.49 M461.81,431.48l-0.1-0.44l-0.3-0.37l-0.46-0.25l-0.54-0.09l-0.54,0.09l-0.46,0.25
	l-0.31,0.37l-0.12,0.44l0.1,0.44l0.3,0.37l0.45,0.25l0.54,0.09l0.54-0.09l0.46-0.25l0.31-0.37L461.81,431.48 M462.95,431.48
	l-0.18-0.79l-0.54-0.67l-0.82-0.45l-0.97-0.16l-0.98,0.16l-0.83,0.45l-0.56,0.67l-0.21,0.79l0.18,0.79l0.54,0.67l0.82,0.45
	l0.97,0.16l0.98-0.16l0.84-0.45l0.56-0.67L462.95,431.48 M218.52,458.98l-0.15,0.13 M230.78,449.99l-1.03,0.62 M221.71,447.07
	l-0.73,0.28l-0.73,0.46l-0.57,0.52l-0.38,0.48 M212.6,464.2l5.77-5.08 M213.97,462.63l2.6-3.85 M216.57,458.77l0.47-0.7
	 M218.71,455.15l0.3-1.39 M219.02,453.76l-0.09-0.67l-0.24-0.45l-0.17-0.17 M218.51,452.47l-0.19-0.21l-0.14-0.27l-0.08-0.3
	l-0.02-0.48l0.18-0.72l0.33-0.62 M219.31,448.81l-0.71,1.05 M238.22,445.65l-7.44,4.34 M218.52,458.98l2.94-2.48l2.95-2.31
	l2.93-2.05l2.41-1.53 M218.71,455.15l-0.28,0.64l-1.08,1.82l-0.3,0.46 M209.94,466l0.24-0.17l0.16-0.47l-0.17-0.62l-0.49-0.69
	l-0.72-0.64 M213.97,462.63l-1.37,1.57 M222.9,446.75l-1.2,0.33 M222.9,446.75l1.02-0.11l0.49,0.09l0.48,0.22l0.25,0.2l0.19,0.24
	l0.05,0.11 M225.38,447.5l0.19,0.31l0.4,0.33l0.36,0.16 M226.32,448.31l1.24,0.2l0.51-0.02 M230.76,447.95l-1.68,0.4l-1,0.14
	 M230.76,447.95l1.11-0.3 M236.35,446.43l-4.48,1.22 M238.22,445.65l-1.87,0.78 M241.14,442.55l-0.13,0.68l-0.34,0.54l-0.49,0.19
	l-0.56-0.19l-0.55-0.54l-0.45-0.81l-0.29-0.95l-0.08-0.95l0.14-0.81l0.34-0.54l0.49-0.19l0.56,0.19l0.55,0.54l0.07,0.1
	 M240.06,442.85l-0.11,0.01l-0.31-0.11l-0.31-0.3l-0.25-0.45l-0.16-0.53l-0.04-0.53l0.08-0.45l0.19-0.3l0.17-0.09 M175.34,493.94
	l-0.37,0.43l-0.4,0.5l-0.45,0.6l-0.41,0.57l-0.44,0.64 M172.36,498.04l0.46-0.62l0.46-0.62l0.46-0.61l0.45-0.6l0.45-0.6l0.45-0.59
	l0.44-0.58l0.43-0.57 M169.28,511.06L169.28,511.06 M170.69,509.45l1.75-2.59 M172.44,506.86l0.19-0.3 M174.03,503.35l0.04-1.12
	l-0.34-1.06l-0.59-0.73 M173.13,500.44l-0.45-0.3 M172.68,500.14l-0.29-0.19l-0.22-0.24l-0.14-0.28l-0.05-0.42l0.17-0.61l0.21-0.36
	 M173.27,496.68l-0.92,1.36 M163.54,511.3l0.17-0.13l0.35-0.05l0.45,0.1l0.48,0.23l0.44,0.33l0.33,0.38l0.17,0.37 M165.93,512.53
	l-0.01,0.3l-0.03,0.05 M169.28,511.06l1.41-1.61 M162.96,512.15l-0.14-0.19l-0.31-0.66l0.03-0.54l0.36-0.34l0.63-0.09l0.81,0.18
	l0.87,0.42l0.79,0.6l0.6,0.68l0.31,0.66 M166.91,512.88l-0.03,0.54l-0.36,0.34l-0.63,0.09l-0.58-0.11 M174.03,503.35L174.03,503.35
	l-0.35,1.19l-1.05,2.02 M180.95,494.15L180.95,494.15l0.9-0.47l1.22-0.98 M183.07,492.7l0.15-0.15 M183.22,492.54l1.18-1.29
	 M175.34,493.94l0.62-0.68 M175.95,493.26l0.45-0.23l0.28,0.04l0.34,0.17l0.26,0.19l0.27,0.25 M177.97,494.01l-0.43-0.33
	 M177.97,494.01l0.87,0.35l0.93,0.07l0.88-0.17l0.3-0.11 M186.17,490.04l-0.26,0.88 M185,490.18l-0.68,2.08 M184.32,492.25
	l-0.35,1.05 M177.19,503.84l-3.88,3.63 M183.97,493.3l-0.46,1.17 M173.31,507.47l-1.36,1.21 M169.28,511.06l2.67-2.38
	 M169.53,510.85l-0.25,0.22 M170.27,510.35l-0.34,0.19l-0.4,0.31 M170.27,510.35l0.15-0.02l0.03,0.05 M170.42,510.53l0.03-0.09
	l0.01-0.06 M170.42,510.53l-0.08,0.15l-0.04,0.07 M169.92,511.24l0.21-0.26l0.17-0.23 M169.48,511.71l0.43-0.47 M169.04,512.13
	l0.44-0.42 M168.96,512.2l0.08-0.07 M168.96,512.2l6.49-5.79 M183.38,484.95l-0.04,0.04 M184.52,483.56l-0.29-0.03l-0.9,0.13
	l-0.74,0.47l-0.44,0.7 M184.39,491.25l0.49-0.75l0.12-0.32 M185,490.18l-0.05,0.2 M184.95,490.37L184.95,490.37 M184.95,490.37
	l-0.02,0.2l0.05,0.13 M185.2,490.7l-0.21,0.01 M185.2,490.7l0.08-0.05l0.1-0.07 M185.42,490.55l-0.04,0.03 M185.42,490.55l0.18-0.17
	 M185.81,490.14l-0.21,0.24 M185.81,490.14l0.19-0.25 M565.74,458.32l-0.97-0.8 M553.46,449.5l-0.16-0.1 M565.74,448.81l-0.52-0.62
	l-0.67-0.55l-0.66-0.37l-0.55-0.2 M547.11,445.65l6.19,3.75 M572.66,464.2l-6.92-5.87 M548.92,446.43l4.23,1.19 M553.15,447.62
	l0.78,0.22 M557.17,448.5l1.44-0.14 M558.62,448.36l0.64-0.29l0.38-0.36l0.12-0.21 M559.75,447.5l0.15-0.24l0.22-0.22l0.25-0.17
	l0.44-0.17l0.71-0.06l0.66,0.11 M563.34,447.07l-1.16-0.33 M553.46,449.5l3.1,1.96l3.02,2.05l2.89,2.16l2.3,1.85 M557.17,448.5
	l-0.69-0.07l-2.04-0.45l-0.52-0.14 M566.48,449.87l-0.74-1.05 M566.48,449.87l0.47,0.95l0.09,0.49l-0.05,0.53l-0.12,0.3l-0.18,0.25
	l-0.09,0.08 M566.59,452.47l-0.26,0.27l-0.22,0.48l-0.06,0.39 M566.06,453.61l0.17,1.23l0.17,0.48 M567.77,457.7l-0.93-1.48
	l-0.44-0.9 M567.77,457.7l0.68,0.97 M571.23,462.63l-2.78-3.95 M572.66,464.2l-1.43-1.57 M577.41,462.86l0.4-0.15l0.43-0.11
	 M575.38,466.01l-0.1-0.05l-0.26-0.38l0.07-0.57l0.39-0.67l0.66-0.67l0.04-0.03 M545.32,442.84l0.26,0l0.33-0.19l0.3-0.37l0.22-0.49
	 M546.44,441.8l0.11-0.54l-0.02-0.51l-0.14-0.39l-0.25-0.22l-0.06-0.02 M544.18,442.52l0.04,0.27l0.26,0.71l0.45,0.4l0.57,0.04
	l0.6-0.34l0.54-0.66l0.4-0.88 M547.03,442.05l0.2-0.97l-0.03-0.91l-0.26-0.71l-0.45-0.4l-0.57-0.03l-0.6,0.34l-0.4,0.45
	 M548.92,446.43l-1.8-0.78 M592.9,503.4L592.9,503.4 M592.98,503.33l-0.06,0.05l-0.02,0.02 M594.47,505.12l0.61-0.72 M595.09,504.4
	l1.79-1.97 M596.58,502.5L596.58,502.5l0.07-0.04 M606.42,496.68l-0.51-0.72l-0.45-0.62l-0.43-0.59l-0.33-0.44l-0.29-0.38
	 M606.11,492.39l-0.03-0.04 M607.38,498.04l-0.96-1.36 M606.89,500.3l0.22-0.15 M616.39,511.27l-0.01-0.01l-0.24-0.13l-0.38,0.01
	l-0.46,0.16l-0.46,0.27 M607.38,498.04l0.39,0.84l0.02,0.41l-0.15,0.4l-0.21,0.25l-0.3,0.2 M603.86,493.26l0.42,0.57l0.43,0.58
	l0.43,0.59l0.44,0.6l0.44,0.6l0.45,0.61l0.45,0.62l0.45,0.62 M616.96,512.08l0.26-0.39l0.21-0.62l-0.12-0.47l-0.44-0.24l-0.69,0.02
	l-0.83,0.29l-0.81,0.48 M602.36,493.67l0.26-0.23l0.26-0.2l0.23-0.13l0.29-0.08l0.32,0.08l0.15,0.15 M603.86,493.26l0.54,0.68
	 M590.66,491.79l1.85,1.76l0.72,0.57l0.57,0.34l0.36,0.09 M589.65,491.97l1.93,2.27l1.5,1.99l1.01,1.66l0.5,1.34l0.07,1.1l-0.72,1.7
	 M593.93,502.03l-0.34,0.46 M592.9,503.4l0.69-0.9 M592.98,503.33l-0.08,0.07 M593.48,503.38l-0.3-0.09l-0.2,0.04 M593.48,503.38
	L593.48,503.38 M593.48,503.38l0.27,0.17l0.15,0.12 M594.11,503.91l-0.11-0.12l-0.11-0.11 M594.11,503.91l0.13,0.17l0.05,0.07
	 M594.49,504.58l-0.08-0.21l-0.12-0.21 M594.54,504.89l-0.05-0.3 M594.49,505.09l0.05-0.2 M594.47,505.12l0.02-0.03 M594.47,505.12
	l1.81-2.36 M596.28,502.76l0.3-0.26 M600.61,503.69l-1.41-0.93l-1.68-0.51l-0.78,0.21 M144.03,551.22l-0.64-0.59l-0.48-0.87
	l-0.11-0.42 M168.42,529.94l-3.23,8.3 M165.19,538.24l-0.42,1.2 M169.46,525.99l-0.01-0.18l-0.26-0.65l-0.56-0.68l-0.77-0.62
	l-0.87-0.45l-0.83-0.22l-0.67,0.04l-0.08,0.03 M153.74,558.84l-0.6,0.9 M151.32,562.46l1.82-2.72 M149.06,547.73l-0.06,0.01
	l-0.24,0.13 M148.46,548.72l-0.06-0.1l-0.04-0.25l0.11-0.28l0.14-0.12 M148.61,547.97l0.15-0.1 M144.01,563.64l0.09,0.1l0.42,0.26
	l0.7,0.35l0.88,0.39l0.92,0.36l0.82,0.29l0.6,0.17l0.28,0.02l0.01,0 M160.22,537.28l-0.71,1.05 M159.51,538.33l-0.32,0.63
	l-0.05,0.59l0.2,0.43l0.33,0.26 M162.22,536.66l0.18,0.32l0.25,0.31l0.18,0.12 M162.83,537.41l0.48,0.03l0.17-0.1 M160.22,537.28
	l0.69-0.74l0.39-0.21l0.43-0.05l0.24,0.09l0.19,0.19l0.06,0.11 M153.21,550.3l0.71-1.73 M156.33,547.03l-0.58-0.16l-0.53,0.11
	l-0.52,0.36l-0.41,0.51l-0.38,0.73 M154.16,552.69l-0.43-0.12 M153.74,552.57l-0.27-0.1l-0.23-0.2l-0.16-0.28l-0.1-0.48l0.08-0.75
	l0.15-0.45 M164.09,542.59l0.02-0.6l0.67-2.55 M164.07,536.58l-0.26,0.39l-0.33,0.37 M154.75,554.33l0.1-0.83l-0.22-0.48l-0.47-0.33
	 M161.31,549.95l-0.47,0.26l-1.64,1.41l-1.79,2.08l-3.66,5.15 M154.45,555.14l0.16-0.39l0.15-0.43 M161.37,541.13l-0.35-0.18
	l-0.51-0.27 M159.67,540.23l0.84,0.45 M157.41,547.61l-1.08-0.58 M157.41,547.61l0.71,0.44l0.37,0.27l0.4,0.29l0.27,0.18l0.25,0.13
	 M169.91,548.54l-0.43-0.03l-0.45,0.18l-0.4,0.35l-0.28,0.48l-0.13,0.52l0.05,0.49l0.22,0.39l0.35,0.23l0.43,0.03l0.45-0.18
	l0.4-0.35l0.28-0.47l0.13-0.53l-0.05-0.5l-0.22-0.39L169.91,548.54 M170.34,547.49l-0.78-0.05l-0.81,0.32l-0.71,0.63l-0.51,0.85
	l-0.23,0.95l0.09,0.89l0.39,0.7l0.63,0.41l0.78,0.05l0.81-0.32l0.71-0.63l0.51-0.86l0.23-0.95l-0.09-0.89l-0.39-0.7L170.34,547.49
	 M669.8,588.04l-0.35,0.38l-0.45,0.33l-0.48,0.23l-0.43,0.09l-0.32-0.06l-0.16-0.2l0.02-0.31l0.2-0.37l0.35-0.38l0.45-0.33
	l0.48-0.23l0.43-0.09l0.32,0.06l0.17,0.2l-0.02,0.31L669.8,588.04 M114.26,589.06l-0.42-0.04l-0.48-0.18l-0.47-0.29l-0.38-0.37
	l-0.24-0.38l-0.07-0.34l0.12-0.24l0.29-0.11l0.42,0.04l0.48,0.18l0.47,0.3l0.38,0.36l0.24,0.38l0.07,0.34l-0.12,0.24L114.26,589.06
	 M607.06,484.58l-0.01-0.01l-0.11-0.03l-0.26,0l-0.39,0.03 M606.29,484.56l-0.93,0.11l-1.14,0.16l-1.32,0.21l-1.48,0.26l-1.6,0.3
	l-1.7,0.33l-1.76,0.36l-1.78,0.38 M594.59,486.67l-2.37,0.51l-2.37,0.5l-2.36,0.49l-2.35,0.48l-2.32,0.47l-2.29,0.45l-2.25,0.44
	l-2.21,0.42 M544.74,496.36l31.32-5.92 M483.76,504.64l60.98-8.28 M544.74,496.36l0.59,2.77 M483.76,504.64l-1.26,0.19l-1.55,0.28
	l-1.74,0.34l-1.81,0.39l-1.75,0.4l-1.58,0.39l-1.3,0.35l-0.93,0.29l-0.49,0.21l-0.07,0.08 M606.89,487.33l-0.93,0.11l-1.14,0.16
	l-1.32,0.21l-1.48,0.26l-1.6,0.3l-1.7,0.33l-1.76,0.36l-1.78,0.38 M576.66,493.21l2.21-0.42l2.25-0.44l2.29-0.45l2.32-0.47
	l2.35-0.48l2.36-0.49l2.37-0.5l2.37-0.51 M545.33,499.12l31.32-5.92 M484.35,507.4l60.98-8.28 M484.35,507.4l-1.26,0.19l-1.55,0.28
	l-1.74,0.34l-1.81,0.39l-1.75,0.4l-1.58,0.39l-1.3,0.35l-0.93,0.29l-0.49,0.21l-0.03,0.11l0.44,0.01l0.88-0.1 M473.23,510.26
	l62.09-8.43 M535.32,501.83l0.28-0.04l0.3-0.05l0.33-0.05l0.35-0.06l0.36-0.06l0.38-0.07l0.4-0.07l0.41-0.08 M538.14,501.36
	l33.03-6.24 M581.33,493.31l-0.08,0.01l-1.87,0.32l-1.95,0.34l-2.02,0.36l-2.09,0.38l-2.15,0.4 M589.22,492.06l0.66-0.12l0.83-0.15
	l0.86-0.16l0.52-0.1 M606.1,487.93l-6.42,1.83 M606.89,487.33l0.39-0.03l0.26,0l0.11,0.03l-0.03,0.07l-0.18,0.1l-0.32,0.12
	l-0.45,0.15l-0.58,0.17 M600.18,489.12l0.67-0.22l0.14-0.11l-0.42,0.01l-0.91,0.13l-1.27,0.23l-1.43,0.3l-1.37,0.32l-1.11,0.29
	 M591.42,490.94l-0.67,0.22l-0.14,0.11l0.42-0.01l0.47-0.06 M591.42,490.94l3.06-0.88 M491.41,507.12l-0.82,0.23l-0.41,0.15
	l0.06,0.06l0.52-0.05l0.9-0.14l1.15-0.22l1.21-0.26l1.1-0.27l0.82-0.23l0.41-0.15l-0.06-0.06l-0.52,0.05l-0.9,0.15l-1.15,0.22
	l-1.21,0.26L491.41,507.12 M480.63,508.36l-0.66,0.11l-0.84,0.16l-0.89,0.19l-0.81,0.2l-0.6,0.17l-0.3,0.11l0.05,0.04l0.38-0.04
	 M482.7,508.08l-2.07,0.28 M479.03,509.02l0.66-0.11l0.84-0.16l0.89-0.19l0.81-0.2l0.6-0.17l0.3-0.11l-0.05-0.04l-0.38,0.04
	 M479.03,509.02l-2.07,0.28 M522.7,502.65l-0.66,0.11l-0.84,0.16l-0.89,0.19l-0.81,0.2l-0.6,0.17l-0.3,0.11l0.04,0.04l0.38-0.04
	 M524.77,502.37l-2.07,0.28 M521.1,503.31l0.66-0.11l0.84-0.16l0.89-0.19l0.81-0.2l0.6-0.17l0.3-0.11l-0.05-0.04l-0.38,0.03
	 M521.1,503.31l-2.07,0.28 M179.92,484.61l-0.42-0.01l-0.28,0.02l-0.14,0.05l-0.02,0.03 M179.92,484.61l0.97,0.08l1.18,0.13
	l1.36,0.18l1.51,0.23l1.63,0.27l1.72,0.31l1.77,0.34l1.79,0.36 M210.51,490.01l-2.24-0.38l-2.28-0.4l-2.32-0.42l-2.34-0.44
	l-2.36-0.45l-2.38-0.46l-2.38-0.47l-2.38-0.48 M242.3,495.4l-31.78-5.38 M305.76,501.93l-63.46-6.54 M241.74,498.17l0.56-2.77
	 M305.76,501.93l1.3,0.16l1.58,0.25l1.76,0.32l1.81,0.36l1.75,0.39l1.56,0.38l1.27,0.35l0.89,0.3l0.45,0.22l0.05,0.08
	 M179.94,488.08l6.21,1.86 M197.06,492.18l-0.32-0.05l-0.81-0.13l-0.84-0.14l-0.87-0.15l-0.27-0.05 M215.1,494.8l-2.19-0.37
	l-2.13-0.34l-2.06-0.32l-1.99-0.3l-1.88-0.27 M248.61,500.47l-33.51-5.67 M251.5,500.88l-0.29-0.03l-0.32-0.04l-0.34-0.04
	l-0.36-0.05l-0.37-0.05l-0.39-0.06l-0.4-0.07l-0.42-0.07 M316.11,507.54l-64.62-6.65 M305.2,504.7l1.3,0.16l1.58,0.25l1.76,0.32
	l1.81,0.36l1.74,0.39l1.56,0.38l1.26,0.35l0.89,0.3l0.44,0.22l-0.02,0.13l-0.49,0.04l-0.93-0.07 M305.2,504.7l-63.46-6.54
	 M241.74,498.17l-31.78-5.38 M191.29,489.27l2.38,0.48l2.38,0.47l2.38,0.46l2.36,0.45l2.34,0.43l2.31,0.42l2.28,0.4l2.24,0.38
	 M179.37,487.38l0.97,0.08l1.18,0.13l1.36,0.18l1.51,0.23l1.63,0.27l1.72,0.31l1.77,0.34l1.79,0.36 M179.94,488.08l-0.55-0.17
	l-0.43-0.15l-0.29-0.13l-0.15-0.11l0-0.08l0.14-0.05l0.29-0.02l0.42,0.01 M185.91,489.18l-0.64-0.22l-0.09-0.13l0.46-0.01l0.95,0.11
	l1.29,0.21l1.43,0.28l1.36,0.31l1.08,0.29 M194.72,490.89l-2.96-0.89 M194.72,490.89l0.64,0.23l0.1,0.13l-0.46,0.01l-0.41-0.04
	 M297.53,504.77l0.79,0.23l0.38,0.16l-0.1,0.07l-0.55-0.03l-0.93-0.12l-1.16-0.2l-1.22-0.25l-1.09-0.26l-0.79-0.23l-0.38-0.16
	l0.1-0.07l0.56,0.03l0.93,0.12l1.16,0.2l1.22,0.25L297.53,504.77 M308.86,505.65l0.68,0.09l0.85,0.15l0.89,0.18l0.8,0.19l0.58,0.17
	l0.28,0.12l-0.07,0.05l-0.41-0.02 M310.31,506.37l2.15,0.22 M310.31,506.37l-0.68-0.09l-0.85-0.15l-0.89-0.18l-0.8-0.19l-0.58-0.17
	l-0.28-0.12l0.07-0.05l0.41,0.02 M306.71,505.43l2.15,0.22 M265.07,501.14l0.68,0.09l0.85,0.15l0.89,0.18l0.8,0.19l0.58,0.17
	l0.28,0.12l-0.07,0.05l-0.41-0.02 M266.52,501.86l2.15,0.22 M266.52,501.86l-0.68-0.09l-0.85-0.15l-0.89-0.18l-0.8-0.19l-0.58-0.17
	l-0.28-0.12l0.07-0.05l0.41,0.02 M262.92,500.92l2.15,0.22 M601.68,480.24l-0.01-0.01l-0.11-0.03l-0.26,0l-0.39,0.03 M590.58,482.04
	l1.6-0.33l1.56-0.31l1.49-0.29l1.41-0.25l1.29-0.22l1.15-0.18l1-0.14l0.83-0.1 M590.58,482.04l-2.36,0.49l-2.35,0.48l-2.32,0.47
	l-2.29,0.46l-2.26,0.44l-2.21,0.42l-2.16,0.4l-2.1,0.38 M572.53,485.59l-28.74,5.2 M482.57,499.1l61.22-8.31 M544.39,493.56
	l-0.59-2.77 M470.08,502.02l0.07-0.08l0.49-0.21l0.93-0.29l1.3-0.35l1.58-0.39l1.75-0.4l1.81-0.39l1.74-0.34l1.55-0.28l1.26-0.19
	 M600.74,483.08l0.77-0.09 M591.17,484.81l1.6-0.33l1.56-0.31l1.18-0.23 M573.12,488.36l2.1-0.38l2.16-0.4l2.21-0.42l2.26-0.44
	l2.29-0.46l2.33-0.47l2.35-0.48l2.36-0.49 M573.12,488.36l-28.74,5.2 M483.16,501.87l61.22-8.31 M472.05,504.73l-0.88,0.1
	l-0.44-0.01l0.03-0.11l0.49-0.21l0.93-0.29l1.3-0.35l1.58-0.39l1.75-0.4l1.81-0.39l1.74-0.34l1.55-0.28l1.26-0.19 M472.05,504.73
	l62.09-8.43 M536.27,495.95l-0.31,0.05l-0.3,0.05l-0.29,0.05l-0.28,0.05l-0.26,0.04l-0.25,0.04l-0.24,0.03l-0.22,0.03
	 M566.27,490.53l-30,5.43 M580.1,488.31l-1.39,0.18l-1.5,0.21l-1.6,0.24l-1.7,0.27l-1.79,0.29l-1.88,0.32l-1.96,0.34l-2.03,0.36
	 M582.15,488.01l-0.66,0.11l-0.73,0.11l-0.65,0.09 M601.51,482.99l0.39-0.03l0.26,0l0.11,0.03l-0.03,0.07l-0.18,0.09l-0.32,0.12
	l-0.45,0.15l-0.46,0.14 M581.97,487.17l-0.15,0.01l-0.04-0.04l0.3-0.11l0.6-0.17l0.81-0.2l0.89-0.19l0.84-0.16l0.66-0.11l0.38-0.04
	l0.04,0.04l-0.17,0.07 M589.1,485.73l-2.92,0.83 M589.1,485.73l0.93-0.25 M481.51,502.55l0.38-0.04l0.04,0.04l-0.3,0.11l-0.6,0.17
	l-0.81,0.2l-0.89,0.19l-0.84,0.16l-0.66,0.11 M477.84,503.49l-2.07,0.28 M475.77,503.77l-0.38,0.04l-0.05-0.04l0.3-0.11l0.6-0.17
	l0.81-0.2l0.89-0.19l0.84-0.16l0.66-0.11 M481.51,502.55l-2.07,0.28 M489.58,501.98l-0.52,0.05l-0.06-0.06l0.41-0.15l0.82-0.23
	l1.1-0.27l1.21-0.26l1.15-0.22l0.9-0.14l0.52-0.05l0.06,0.06l-0.41,0.15l-0.82,0.23l-1.1,0.27l-1.21,0.26l-1.15,0.22L489.58,501.98
	 M523.58,496.83l0.38-0.03l0.04,0.04l-0.3,0.11l-0.6,0.17l-0.81,0.2l-0.89,0.19l-0.84,0.16l-0.66,0.11 M519.91,497.78l-2.07,0.28
	 M517.84,498.06l-0.38,0.04l-0.04-0.04l0.3-0.11l0.6-0.17l0.81-0.2l0.89-0.19l0.84-0.16l0.66-0.11 M523.58,496.83l-2.07,0.28
	 M185.09,480.28l-0.42-0.01l-0.29,0.02l-0.14,0.05l-0.02,0.03 M195.64,481.89l-1.61-0.31l-1.57-0.29l-1.51-0.26l-1.43-0.23
	l-1.32-0.19l-1.19-0.15l-1.04-0.11l-0.87-0.07 M213.89,485.17l-2.13-0.35l-2.19-0.37l-2.24-0.39l-2.28-0.4l-2.32-0.42l-2.34-0.44
	l-2.36-0.45l-2.38-0.46 M213.89,485.17l29.27,4.66 M306.87,496.39l-63.71-6.56 M243.16,489.83l-0.56,2.77 M319.28,499.2l-0.05-0.08
	l-0.45-0.22l-0.89-0.3l-1.27-0.35l-1.56-0.38l-1.74-0.39l-1.81-0.36l-1.76-0.32l-1.58-0.25l-1.3-0.16 M204.15,487h0.14l0.07-0.05
	l-0.28-0.12l-0.58-0.17l-0.8-0.19l-0.89-0.18l-0.85-0.15l-0.68-0.09l-0.41-0.02l-0.07,0.05l0.18,0.09 M185.25,483.79l-0.14-0.04
	 M203.93,488.09l0.27,0.03l0.75,0.09l0.68,0.07 M219.86,490.18l-2.07-0.32l-2-0.3l-1.92-0.28l-1.84-0.25l-1.75-0.23l-1.65-0.2
	l-1.55-0.17l-1.45-0.14 M219.86,490.18l30.56,4.86 M250.42,495.04l0.31,0.05l0.3,0.05l0.29,0.04l0.28,0.04l0.27,0.04l0.26,0.03
	l0.24,0.03l0.23,0.02 M317.23,502l-64.62-6.65 M317.23,502l0.93,0.07l0.49-0.03l0.02-0.13l-0.45-0.22l-0.89-0.3l-1.27-0.35
	l-1.56-0.38l-1.75-0.39l-1.81-0.36l-1.76-0.32l-1.58-0.25l-1.3-0.16 M306.32,499.16l-63.71-6.56 M213.33,487.94l29.27,4.66
	 M195.09,484.67l2.38,0.46l2.36,0.45l2.35,0.44l2.32,0.42l2.28,0.4l2.24,0.39l2.19,0.37l2.13,0.35 M185.38,483.12l-0.85-0.07
	 M195.09,484.67l-1.61-0.31l-1.57-0.29l-1.19-0.21 M185.11,483.75l-0.55-0.17l-0.43-0.15l-0.29-0.13l-0.15-0.1l0-0.08l0.14-0.05
	l0.28-0.02l0.42,0.02 M196.92,485.67l-0.91-0.25 M196.92,485.67l2.96,0.89 M307.82,499.89l-0.41-0.02l-0.07,0.05l0.28,0.12
	l0.58,0.17l0.8,0.19l0.89,0.18l0.85,0.15l0.68,0.09 M307.82,499.89l2.15,0.22 M313.57,501.05l0.41,0.02l0.07-0.05l-0.28-0.12
	l-0.58-0.17l-0.8-0.19l-0.89-0.18l-0.85-0.15l-0.68-0.09 M311.42,500.82l2.15,0.22 M299.16,499.66l0.55,0.03l0.1-0.07l-0.38-0.16
	l-0.79-0.23l-1.09-0.26l-1.22-0.25l-1.16-0.2l-0.93-0.12l-0.55-0.03l-0.1,0.07l0.38,0.16l0.79,0.23l1.09,0.26l1.22,0.25l1.16,0.2
	L299.16,499.66 M264.03,495.38l-0.41-0.02l-0.07,0.05l0.28,0.12l0.58,0.17l0.8,0.19l0.89,0.18l0.85,0.15l0.68,0.09 M264.03,495.38
	l2.15,0.22 M269.79,496.54l0.41,0.02l0.07-0.05l-0.28-0.12l-0.58-0.17l-0.8-0.19l-0.89-0.18l-0.85-0.15l-0.68-0.09 M267.63,496.31
	l2.15,0.22 M194.55,490.86l0.13,0.04l0.12,0.04l0.11,0.04l0.09,0.03l0.08,0.03l0.07,0.03l0.05,0.03l0.04,0.02 M195.24,491.13l0,0.07
	l-0.23,0.02l-0.45-0.03l-0.03,0 M196.76,485.65l-5.13-1.54 M191.59,489.98l1.87,0.56 M193.46,490.54l1.09,0.33 M199.89,486.58
	l-0.17-0.05 M185.48,488.98l-0.06-0.03l-0.05-0.04l0-0.03l0.04-0.02l0.09-0.01 M185.5,488.85l0.19,0l0.27,0.02l0.34,0.04l0.41,0.05
	l0.46,0.07l0.5,0.08l0.53,0.1l0.55,0.11 M188.76,489.31l0.41,0.08l0.4,0.08l0.39,0.09l0.38,0.09l0.36,0.09l0.33,0.08l0.3,0.08
	l0.27,0.08 M185.4,483.03l0.03-0.03l0.43-0.01l0.89,0.1l1.22,0.2l1.35,0.26l1.28,0.29l1.02,0.27 M165.36,523.32l0.48-0.14l0.77,0.1
	l0.86,0.35l0.83,0.55l0.67,0.67l0.4,0.68l0.08,0.59l-0.26,0.41l-0.56,0.17 M591.49,491.18l-0.03,0l-0.43,0.05l-0.21-0.01l0.03-0.06
	 M590.85,491.17l0.04-0.02l0.06-0.02l0.07-0.03l0.09-0.03l0.1-0.03l0.11-0.04l0.12-0.04l0.14-0.04 M591.5,491.2l0.03,0.01
	 M594.65,490.04l0.27-0.08l0.31-0.08l0.34-0.09l0.36-0.09l0.38-0.09l0.39-0.09l0.4-0.09l0.41-0.09 M597.51,489.36l0.54-0.11
	l0.52-0.1l0.49-0.09l0.45-0.08l0.4-0.06l0.33-0.05l0.26-0.03l0.18-0.01 M600.68,488.83l0.08,0.01l0.03,0.02l-0.02,0.03l-0.06,0.04
	l-0.01,0.01 M589.27,485.71l5.3-1.51 M591.58,490.92l1.13-0.32 M592.71,490.59l1.93-0.55 M586.19,486.58L586.19,486.58
	 M594.57,484.19l1.04-0.27l1.29-0.3l1.35-0.28l1.2-0.22l0.86-0.12l0.4-0.01l0.02,0.02 M619.31,526.55l-0.76,0.14l-0.55-0.13
	l-0.26-0.38l0.07-0.57l0.39-0.67l0.65-0.67l0.82-0.57l0.85-0.38l0.76-0.13l0.16,0.04 M199.45,479.97l-0.02,0.01l-0.36,0.43
	 M198.65,482.48l0.42-2.07 M207.01,481.56l0.02-0.01l0.23,0.24 M199.7,480.2l-0.25-0.24 M206.82,483.98l0.44-2.19 M205.6,481.01
	l0.47,0.15l1.2,0.64 M203.8,480.9l0.47-0.03l1.33,0.14 M201.82,480.21l0.48,0.08l0.49,0.09l0.5,0.1l0.5,0.1l0.49,0.11l0.47,0.11
	l0.45,0.11l0.41,0.1 M205.6,481.01l0.37,0.1l0.32,0.09l0.27,0.09l0.21,0.08l0.15,0.07l0.09,0.06l0.03,0.04 M199.45,479.97l0.1-0.02
	l0.17,0l0.23,0.01l0.28,0.02l0.33,0.04l0.38,0.05l0.42,0.06l0.45,0.07 M203.34,483.2l0.46-2.3 M203.8,480.9l-1.98-0.69
	 M201.82,480.21l-0.15-0.02l-1.97,0.02 M199.24,482.5l0.46-2.3 M578.53,482.16l0.11-0.06 M587.71,482.64l-0.49-2.27 M587.23,480.37
	l-0.87-0.29 M586.36,480.09l-0.06,0l-0.67,0.39 M586.12,482.77l-0.49-2.29 M585.63,480.48l-0.58-0.03l-1.67,0.14 M583.38,480.58
	l-0.59,0.15l-1.52,0.64 M579.01,481.72l0.03-0.02l0.11-0.05l0.17-0.06l0.23-0.07l0.29-0.08 M579.83,481.42l0.34-0.09l0.38-0.1
	l0.42-0.11l0.45-0.11l0.48-0.11l0.49-0.11l0.5-0.11l0.5-0.1 M583.38,480.58l0.49-0.1l0.47-0.09l0.44-0.08l0.41-0.07l0.37-0.06
	l0.32-0.05l0.27-0.03l0.21-0.02 M581.77,483.66l-0.49-2.3 M581.28,481.37l-1.45,0.06 M579.83,481.42l-0.1,0.03l-1.2,0.7
	 M579.01,484.38l-0.48-2.22 M585.33,494.49l0.03,0.16 M586.87,494.19l0.02,0.11 M584.54,494.67l1.53-0.35 M586.07,494.32l1.17-0.19
	 M587.25,494.13l-0.36,0.17 M586.89,494.3l-1.53,0.35 M585.36,494.65l-1.17,0.19 M584.19,494.84l0.36-0.17 M589.18,491.35
	l-0.03-0.02l-0.4,0.01l-0.83,0.11l-1.15,0.2l-1.34,0.27l-1.36,0.3 M584.06,492.23l-1.22,0.3l-0.93,0.26l-0.53,0.19l-0.1,0.08
	 M589.29,491.89l-0.03-0.03l-0.4,0.01l-0.83,0.11l-1.15,0.2l-1.34,0.27l-1.36,0.3 M584.18,492.76l-1.22,0.3l-0.93,0.26l-0.53,0.19
	l-0.09,0.08 M585.13,494.5l-0.68,0.17l-0.49,0.14l-0.22,0.09l0.08,0.03l0.37-0.04l0.6-0.1l0.74-0.14l0.77-0.17l0.68-0.17l0.49-0.14
	l0.22-0.09l-0.08-0.03l-0.37,0.04l-0.6,0.1l-0.74,0.15L585.13,494.5 M200.32,494.2l-0.04,0.22 M201.79,494.54l-0.03,0.13
	 M200.27,494.42l-1.26-0.33 M199.01,494.09l0.23-0.08 M199.24,494.02l1.49,0.25 M200.73,494.27l1.26,0.33 M201.99,494.6l-0.23,0.07
	 M201.76,494.67l-1.49-0.25 M204.92,492.85l-0.08-0.08l-0.51-0.2l-0.92-0.26l-1.21-0.29l-1.36-0.29l-1.35-0.25l-1.17-0.18
	l-0.85-0.09l-0.43,0.01l-0.04,0.03 M204.81,493.39l-0.08-0.09l-0.51-0.2l-0.92-0.26l-1.21-0.29l-1.36-0.29l-1.35-0.25l-1.17-0.18
	l-0.85-0.09l-0.43,0.01l-0.04,0.05 M199.28,494.22l0.69,0.16l0.77,0.16l0.74,0.13l0.59,0.08l0.35,0.02l0.06-0.05l-0.24-0.1
	l-0.5-0.14l-0.69-0.17l-0.77-0.16l-0.74-0.13l-0.59-0.08l-0.35-0.02l-0.06,0.05l0.24,0.1L199.28,494.22 M639.84,553.43l0.26-0.2
	l0.46-0.5l0.47-0.89l0.25-1.22l-0.1-1.35l-0.48-1.34l-0.4-0.57 M625.8,526.6l-0.51-0.75l-1.42-1.36l-1.52-0.96l-0.64-0.26
	 M617.76,526.05v0.42l0.35,1.79l0.12,0.29 M640.35,547.33l-4.9-7.15 M635.41,540.14l-9.57-13.58 M635.18,564.03l0.88,1.28l0.78,0.8
	 M641.66,564.65l0.23-1.69l-0.09-2.06l-0.41-1.75 M641.41,559.13l-4.91-16.09 M625.11,549.75l4.13-1.8 M627.39,540.25l-5.4,2.36
	 M619.64,549.02l0.29,0.26l1.03,0.59l1.29,0.32l1.43-0.03l1.42-0.41l0.02-0.02 M622.01,542.65l-0.97,0.48l-1.1,0.98l-0.72,1.11
	l-0.36,1.1l-0.03,0.83 M340.88,410.04l-0.39-0.31l-1.15-0.48l-1.37-0.17l-1.46,0.2l-0.97,0.41 M341.74,413.46l0.17-0.51l0.03-0.62
	 M311.76,417.8l-0.03,0l-1.84,0.73l-1.52,1l-1.06,1.04 M308.58,425.18l1.57,0.38l0.97,0.03 M326.97,413.61l-0.02,0.02l-0.3,0.06
	 M335.52,409.63l-8.54,3.98 M326.65,413.73l-14.89,4.06 M349.75,420.86l1.54-0.49l0.98-0.51 M352.26,414.84l-1.58-0.72l-2-0.51
	l-1.78-0.12 M341.44,421.26h5.45 M346.9,413.46h-15.72 M332.42,428.22l-0.17-5.22 M324.35,419.98l0.03,0.93 M324.38,420.92
	l0.24,7.55 M330.36,432.93l0.63-0.55l0.77-1.14l0.5-1.41l0.15-1.55l-0.01-0.06 M324.67,428.47l0.12,1.26l0.53,1.44l0.77,1.13
	l0.87,0.78l0.01,0.01 M292.79,425.54l0.05-0.21l-0.08-1.32l-0.46-1.33l-0.65-0.92 M285.63,426.54l0.39,0.51l0.32,0.24 M282.21,413.6
	l-0.08,0.02l-0.08,0.02l-0.08,0.03l-0.08,0.03l-0.08,0.03l-0.08,0.03l-0.08,0.03l-0.08,0.03 M262.74,428.47l-0.48,0.97
	 M297.59,409.4l-15.39,4.2 M302.82,409.54l-1.57-0.38l-1.83-0.06l-1.82,0.31 M302.18,415.75l0.84-0.56l1.06-1.04 M281.58,413.83
	l-9,4.2 M270.54,424.7l0.37,0.3l1.15,0.48l1.27,0.16 M272.6,418.07l-0.9,0.45l-1.12,1.01l-0.74,1.13l-0.37,1.11l-0.03,0.6
	 M411.81,391.12l-0.8-0.89l-1.43-1.05l-1.67-0.76l-0.45-0.1 M375.09,388.28l-0.03,0.01l-1.84,0.73l-1.52,1l-1.05,1.04
	 M392.56,384.09l-0.26-0.06l-0.26-0.05l-0.26-0.03l-0.26-0.01l-0.26,0.01l-0.26,0.02l-0.26,0.04l-0.26,0.06 M407.47,388.29
	l-14.92-4.19 M390.47,384.08l-15.39,4.2 M402.77,388.46l-9.35-4.03 M398.56,395.14l1.12,0.48 M389.39,384.53l-8.54,3.98
	 M384.14,395.57l1.29-0.6 M400.65,395.94L400.65,395.94l0.1,0.01 M400.74,395.96l0.02,0 M400.76,395.96l1.42,0.17l1.36-0.18
	l1.1-0.44l0.25-0.18 M406.14,392.45l-0.3-1.05l-0.71-1.17l-1.07-1.03l-1.28-0.74 M380.88,388.56l-0.68,0.3l-1.18,0.97l-0.8,1.12
	l-0.43,1.12l-0.08,0.79 M378.8,395.17l0.73,0.49l1.23,0.39l1.41,0.05l0.51-0.11 M486.14,426.2l0.07,0.33l0.46,0.84l0.38,0.41
	l0.48,0.34l0.08,0.03 M486.89,422.17l-0.39,0.68l-0.15,0.46 M487.61,428.14l0.57,0.24l1.26,0.16l1.3-0.22l1.12-0.52 M487.4,421.53
	l-0.51,0.63 M497.99,413.78l-0.06-0.03l-0.06-0.02l-0.06-0.02l-0.06-0.02l-0.06-0.02l-0.06-0.02l-0.06-0.02l-0.06-0.02
	 M517.4,429.45l-0.84-1.51l-0.48-0.58 M497.5,413.61l-14.92-4.2 M476.14,414.09l0.8,0.88l1.05,0.77 M482.57,409.45l-1.49-0.32
	l-1.82,0l-1.61,0.33l-0.25,0.1 M507.72,417.98l-9.73-4.2 M511.08,421.97l-0.02-0.25l-0.46-1.18l-0.83-1.14l-1.16-0.96l-0.9-0.41
	 M507.08,425.6l0.69,0l1.25-0.31l0.96-0.52l0.08-0.07 M445.29,412.74l0.11,0.49l0.11,0.24 M451.76,409.59l-0.05-0.03l-1.56-0.43
	l-1.47-0.02l-1.26,0.3l-0.87,0.46 M476.24,425.59h0.89l1.61-0.33l0.26-0.11 M480.26,420.64l-0.81-0.89l-1.43-1.05l-1.67-0.76
	l-0.45-0.1 M461.41,413.68l-0.28-0.06 M461.1,413.62l-9.35-4.03 M475.92,417.8l-14.52-4.08 M435.85,419.88l1.58,0.72l0.93,0.24
	 M441.21,413.49l-0.3-0.02l-2.16,0.27l-1.93,0.61l-0.97,0.51 M441.21,421.26h5.4 M456.93,413.46h-15.72 M456.23,423.24l0.17,5.23
	 M464.19,428.22l-0.28-8.61 M464.19,428.53l-0.02-0.32 M456.46,428.47l0.03,0.86l0.45,1.51l0.72,1.21l0.86,0.86l0.23,0.14
	 M462.12,432.93l0.47-0.36l0.8-1.07l0.57-1.37l0.23-1.6 M210.86,451.04l-0.02,0.02l-0.87,1.27l-0.46,1.34l-0.08,1.26l0.08,0.38
	 M232.63,439.53L232.63,439.53l-1.04-0.59l-1.29-0.31l-1.44,0.03l-1.44,0.41l-0.16,0.1 M227.25,439.15l-9,4.19 M218.25,443.34
	l-0.17,0.09l-0.17,0.09l-0.16,0.1l-0.16,0.11l-0.15,0.12l-0.15,0.13l-0.14,0.13l-0.13,0.14 M217.01,444.25l-6.17,6.79
	 M216.44,445.04l-8.93,13.23 M210.39,465.76l1.28-0.75l0.91-0.81 M205.94,462.86l-0.01,0.42 M207.55,458.3l-0.4,0.54l-0.8,1.79
	l-0.39,1.75l-0.01,0.2 M234.26,438.92l-14.89,4.06 M239.49,439.05l-1.57-0.38l-1.83-0.06l-1.83,0.31 M236.31,446.44l0.02,0
	l0.45-0.18 M238.21,445.69l0.06-0.04 M238.27,445.65l1.43-0.94l1.05-1.04 M173.61,492.01l-0.05,0.05l-0.05,0.05l-0.04,0.05
	l-0.04,0.05l-0.04,0.05l-0.04,0.06l-0.04,0.06l-0.04,0.06 M194.28,478.51l-1.46,0.29l-0.04,0.02 M173.26,492.45l-9.16,13.58
	 M166.52,513.74l0.2-0.07l1.54-0.9l0.39-0.35 M164.14,506.06l-0.4,0.54l-0.8,1.79l-0.39,1.75l-0.03,0.9 M178.72,486.39l-5.11,5.62
	 M184.61,483.6l-0.46-0.12l-1.25,0.02l-1.31,0.4l-1.22,0.77l-0.19,0.21 M556.69,439.15l-0.95-0.38l-1.53-0.18l-1.36,0.18l-0.97,0.39
	 M574.39,453.58l-0.06-0.42l-0.56-1.31l-0.47-0.59 M573.35,451.23l-5.41-6.79 M567.94,444.45l-0.15-0.18l-0.17-0.17l-0.18-0.16
	l-0.18-0.15l-0.2-0.14l-0.2-0.13l-0.21-0.11l-0.22-0.1 M566.44,443.3l-9.73-4.2 M565.55,443.01l-14.52-4.08 M577.65,458.21
	l-9.48-13.44 M579.36,463.19l0-0.4l-0.35-1.79l-0.72-1.76l-0.68-1 M572.03,463.6l0.14,0.14 M572.18,463.74l1.08,1.03l1.52,0.96
	l0.64,0.26 M544.59,443.61l0.79,0.88l1.43,1.05l0.31,0.14 M551.02,438.97l-1.49-0.32l-1.82,0l-1.61,0.33l-0.24,0.1 M592.82,504.11
	l0.18,0.31l0.38,0.48l0.41,0.35l0.53,0.29l0.95,0.25l1.25-0.03l1.31-0.4l1.22-0.77l0.54-0.6 M593.9,498.83l-0.29,0.28l-0.77,1.31
	l-0.36,1.33l0,1.22l0.34,1.14 M599.64,504.04l0.56-0.62 M594.26,498.37l-0.39,0.43 M606.11,492.39l-0.02-0.02l-0.02-0.02l-0.02-0.02
	l-0.02-0.02l-0.02-0.02l-0.02-0.02l-0.02-0.02l-0.02-0.02 M596.74,502.41l-0.02,0.01 M615.68,505.96l-9.57-13.58 M617.4,510.95
	v-0.41l-0.35-1.79l-0.73-1.76l-0.68-1 M605.97,492.2l-2.75-3.45 M145.59,551.81l0.63,0.06l1.19-0.11 M145.24,544.44l-1.09,0.9
	l-0.84,1.18l-0.46,1.21l-0.11,1.11l0.09,0.49 M144.05,551.2l0.4,0.25l1.15,0.36 M148.44,548.73l0.03,0.06l0.06,0.21 M167.81,530.96
	l0.4-0.54l0.8-1.79l0.39-1.75l0.03-0.91 M165.43,523.28l-0.2,0.07l-1.54,0.9l-1.4,1.25l-0.86,1.17 M152.84,539.22l-0.28,0.38
	l-0.22,0.13 M152.34,539.77l-7.11,4.65 M144.8,558.19l-0.11,0.23l-0.58,2.09l-0.17,2.02l0.1,1.13 M148.7,565.56l1.24-1.15l1.23-1.65
	l0.8-1.63 M161.39,526.63l-8.5,12.6 M164.08,536.59l3.77-5.59 M152,561.13l2.45-5.99 M150.37,544.54l-5.58,13.64 M159.29,548.86
	l5.14,2.76 M168.12,544.75l-6.75-3.62 M164.44,551.62l1.55,0.62l1.56,0.22l1.38-0.13l0.54-0.18 M171.34,548.65l-0.12-0.47
	l-0.67-1.27l-1.04-1.18l-1.33-0.95l-0.07-0.03 M306.93,421.68l-67.61,18.43 M240.06,442.85l67.61-18.43 M477.65,410.6l-65.43-18.4
	 M411.61,394.97l65.27,18.36 M508.4,424.06l36.39,15.69 M549.38,438.64l-39.86-17.19 M248.95,440.42l-40.19,29.1 M262.85,430.37
	l-7.38,5.34 M263.22,433.6l1.29-0.93 M204.41,476.17l52.3-37.86 M520.17,432.83l-3.32-2.41 M581.84,477.58l-55.04-39.94
	 M518.92,435.42l59.75,43.36 M546.09,440.12l-65.43-18.4 M479.89,424.44l65.43,18.4 M271.06,421.47l-38.35,17.88 M239.77,439.18
	l32.49-15.14 M641.14,551.29l26.52,37.61 M669.97,587.27l-53.58-76 M435.86,415.94h-83.55 M352.31,418.78h83.55 M370.26,392.17
	l-67.61,18.43 M303.39,413.33l67.61-18.43 M163.54,511.3l-51.27,76 M114.61,588.88l51.27-76 M379.32,391.96l-38.58,17.98
	 M341.94,412.51l38.58-17.98 M594.14,481.32l-5.45-6.84 M184.61,483.59l-1.23,1.36 M207.34,458.58l-19.94,21.93 M190.79,481.01
	l7.02-7.72 M403.45,394.54l41.82,18.03 M446.39,409.97l-41.82-18.03 M607.66,487.34l-0.59-2.77 M471.27,507.55l0.59,2.77
	 M179.06,484.69l-0.56,2.77 M317.61,507.52l0.56-2.77 M602.28,483l-0.59-2.77 M470.08,502.02l0.59,2.77 M184.23,480.36l-0.56,2.77
	 M318.72,501.97l0.56-2.77 M207.59,471.45l1.79-2.96l0.58-1.21l0.33-0.93l0.08-0.37l0.02-0.33l-0.11-0.6l-0.36-0.62l-0.57-0.61
	l-0.73-0.55l-0.02-0.01 M208.6,463.26l-0.71-0.37l-0.62-0.21l-0.56-0.05l-0.08,0.02 M206.63,462.65l-0.24,0.04l-0.38,0.14
	l-0.46,0.27l-0.56,0.44l-1.49,1.55l-1.79,2.39 M194.57,491.17l0.15-0.04l0.04-0.01l0,0 M203.68,477.26l3.92-5.81 M201.72,467.49
	l-9.31,13.8 M194,491.64l0.23-0.28l0.32-0.18 M195.27,491.17l0.02-0.09 M185.48,488.99l0.09,0.04l0.29,0.23l0.23,0.36l0.1,0.45
	l-0.07,0.47l-0.15,0.28 M185.38,488.8l-0.02,0.09 M185.4,483.03l-0.44,2.21 M185.98,490.82l-18.21,26.99 M173.64,521.78l20.34-30.15
	 M167.77,517.81l-1.79,2.96l-0.58,1.21l-0.33,0.93l-0.08,0.37l-0.01,0.23 M169.42,526.39l0.39-0.23l0.56-0.44l1.49-1.55l1.79-2.39
	 M583.72,467.43l-2.82-3.47l-0.95-0.83l-0.36-0.23l-0.31-0.15l-0.56-0.11l-0.49,0.05 M578.23,462.68l-0.15,0.02l-0.76,0.28
	l-0.77,0.46l-0.67,0.56 M575.88,464l-0.02,0.02l-0.51,0.62l-0.27,0.57l-0.08,0.57l0.04,0.35l0.1,0.43l0.48,1.18l2.3,3.78
	 M593.6,481.41l-0.08-0.12 M591.27,491.15L591.27,491.15l0.07,0.01l0.16,0.04 M590.79,491.15l0.02,0.07 M591.53,491.22l0.1,0.03
	l0.37,0.26l0.11,0.17 M593.5,481.3l-9.78-13.87 M577.93,471.51l4.26,6.04 M600.2,490.8l-0.01-0.01l-0.18-0.4l-0.03-0.46l0.13-0.43
	l0.2-0.29l0.23-0.2l0.13-0.07 M600.8,488.85l-0.02-0.07 M601.22,485.34l-0.5-2.34 M592.13,491.66l21.28,30.18 M619.2,517.75
	l-19-26.95 M613.4,521.83l2.82,3.47l0.95,0.84l0.36,0.23l0.11,0.05 M622.06,523.06l-0.09-0.35l-0.48-1.18l-2.3-3.78 M205.64,477.69
	l-0.49-0.12l-1.07-0.23l-1.09-0.21l-0.97-0.15l-0.76-0.08l-0.36,0l-0.28,0.06l-0.28,0.13l-0.27,0.24l-0.2,0.35l-0.02,0.14
	 M207.49,479.35l0.01-0.4l-0.11-0.32l-0.16-0.23l-0.17-0.16l-0.16-0.1l-0.18-0.09l-0.44-0.16l-0.64-0.18 M207.05,481.53l0.44-2.17
	 M199.85,477.82l-0.44,2.17 M579.01,481.72l-0.52,0.47 M586.14,477.93l-0.12-0.34l-0.22-0.26l-0.23-0.16l-0.22-0.08l-0.17-0.03
	l-0.15-0.01l-0.2,0.01l-0.64,0.07l-0.86,0.15l-1.02,0.2 M582.3,477.47l-0.05,0.01l-1.07,0.24l-0.94,0.23l-0.71,0.21l-0.29,0.11
	l-0.18,0.1l-0.18,0.14l-0.19,0.23l-0.14,0.34l-0.02,0.4l0.03,0.1 M586.62,480.11l-0.46-2.17 M578.53,479.58l0.46,2.16
	 M581.95,487.06l0.46,2.15 M586.58,488.36l-0.47-2.2 M581.28,493.05l0.11,0.53 M589.29,491.88l-0.11-0.53 M581.39,493.58l0.25,0.24
	l0.26,0.22l0.28,0.2l0.29,0.18l0.31,0.16l0.32,0.14l0.33,0.11l0.33,0.09 M587.68,494.08l0.27-0.22l0.25-0.24l0.23-0.25l0.21-0.27
	l0.19-0.29l0.17-0.3l0.15-0.31l0.13-0.32 M200.01,486.03l-0.4,2.02 M203.78,488.82l0.39-1.96 M197,491.26l-0.11,0.53 M204.82,493.38
	l0.1-0.53 M196.9,491.8l0.13,0.32l0.15,0.31l0.18,0.3l0.2,0.28l0.22,0.27l0.24,0.25l0.26,0.23l0.27,0.21 M202.45,494.76l0.33-0.09
	l0.32-0.12l0.32-0.14l0.31-0.16l0.29-0.18l0.28-0.2l0.26-0.23l0.24-0.24"/>
<line class="st3" x1="170.27" y1="510.35" x2="170.27" y2="510.35"/>
</svg>
