<?xml version="1.0" encoding="UTF-8"?> <!-- Generator: Adobe Illustrator 22.0.1, SVG Export Plug-In . SVG Version: 6.00 Build 0) --> <svg xmlns="http://www.w3.org/2000/svg" xmlns:xlink="http://www.w3.org/1999/xlink" id="Слой_1" x="0px" y="0px" viewBox="0 0 1224.8 637.4" style="enable-background:new 0 0 1224.8 637.4;" xml:space="preserve"> <style type="text/css"> .st0{fill:#FFFFFF;} </style> <g> <g> <rect x="621.2" y="212.9" class="st0" width="160.1" height="18.5"></rect> <rect x="621.2" y="406.9" class="st0" width="160.1" height="18.5"></rect> <rect x="621.2" y="309.4" class="st0" width="160.1" height="18.5"></rect> </g> <g> <path class="st0" d="M496.7,406.5c-45.3,0-82.6-34.5-87.1-78.6H391c4.4,54.5,50.1,97.4,105.7,97.4c55.5,0,101.1-43,105.7-97.4 h-18.6C579.3,372,541.9,406.5,496.7,406.5z"></path> <path class="st0" d="M496.7,231.4c45,0,82.2,34.2,87,78h18.6c-4.9-54-50.4-96.5-105.6-96.5c-55.1,0-100.6,42.4-105.6,96.5h18.6 C414.4,265.6,451.6,231.4,496.7,231.4z"></path> </g> <g> <polygon class="st0" points="982.7,246 982.8,246 1011.9,212.9 987.2,212.9 918.3,291.1 930.6,305.1 "></polygon> <polygon class="st0" points="905.9,305.1 905.9,305.1 824.5,212.9 799.8,212.9 893.5,319.1 799.8,425.4 824.5,425.4 905.9,333.2 905.9,333.2 918.3,319.1 "></polygon> <polygon class="st0" points="918.2,347.1 987.2,425.4 1011.9,425.4 930.6,333.1 "></polygon> </g> <path class="st0" d="M230.3,318.7c0-48.4,39.3-87.7,87.7-87.7h53.9v-18.5H317c-58,0.7-105.2,48.3-105.2,106.2 c0,57.8,45.4,104.5,103.6,106.2h56.8v-18.5H318C269.6,406.4,230.3,367,230.3,318.7z"></path> </g> </svg> 