<?xml version="1.0" encoding="UTF-8" standalone="no"?>
<!-- Created with Inkscape (http://www.inkscape.org/) -->

<svg
   xmlns:dc="http://purl.org/dc/elements/1.1/"
   xmlns:cc="http://creativecommons.org/ns#"
   xmlns:rdf="http://www.w3.org/1999/02/22-rdf-syntax-ns#"
   xmlns:svg="http://www.w3.org/2000/svg"
   xmlns="http://www.w3.org/2000/svg"
   xmlns:sodipodi="http://sodipodi.sourceforge.net/DTD/sodipodi-0.dtd"
   xmlns:inkscape="http://www.inkscape.org/namespaces/inkscape"
   width="104.11897mm"
   height="87.369049mm"
   viewBox="0 0 104.11897 87.369049"
   version="1.1"
   id="svg1512"
   inkscape:version="0.92.2pre0 (973e216, 2017-07-25)"
   sodipodi:docname="logo_vertical.svg"
   inkscape:export-filename="/usr/local/google/home/epastern/Documents/Blockly Logos/Square/logo_standard.png"
   inkscape:export-xdpi="96"
   inkscape:export-ydpi="96">
  <defs
     id="defs1506">
    <clipPath
       id="clipPath5790"
       clipPathUnits="userSpaceOnUse">
      <path
         inkscape:connector-curvature="0"
         id="path5788"
         d="M 0,35 H 126 V 0 H 0 Z" />
    </clipPath>
    <clipPath
       id="clipPath5802"
       clipPathUnits="userSpaceOnUse">
      <path
         inkscape:connector-curvature="0"
         id="path5800"
         d="M 0,35 H 126 V 0 H 0 Z" />
    </clipPath>
    <clipPath
       id="clipPath5812"
       clipPathUnits="userSpaceOnUse">
      <path
         inkscape:connector-curvature="0"
         id="path5810"
         d="M -1.52588e-4,192 H 192 V -1.83105e-4 H -1.52588e-4 Z" />
    </clipPath>
    <clipPath
       id="clipPath5820"
       clipPathUnits="userSpaceOnUse">
      <path
         inkscape:connector-curvature="0"
         id="path5818"
         d="M -1.52588e-4,192 H 192 V -1.83105e-4 H -1.52588e-4 Z" />
    </clipPath>
    <clipPath
       id="clipPath5824"
       clipPathUnits="userSpaceOnUse">
      <path
         inkscape:connector-curvature="0"
         id="path5822"
         d="M 0,192 H 192 V 0 H 0 Z" />
    </clipPath>
    <clipPath
       id="clipPath5828"
       clipPathUnits="userSpaceOnUse">
      <path
         inkscape:connector-curvature="0"
         id="path5826"
         d="M 0,192 H 192 V 0 H 0 Z" />
    </clipPath>
    <clipPath
       id="clipPath5832"
       clipPathUnits="userSpaceOnUse">
      <path
         inkscape:connector-curvature="0"
         id="path5830"
         d="M 0,192 H 192 V 0 H 0 Z" />
    </clipPath>
    <linearGradient
       id="linearGradient-1"
       y2="0.92900556"
       x2="1.0082812"
       y1="0.17021771"
       x1="-0.034921873">
      <stop
         id="stop6067"
         offset="0%"
         stop-opacity="0.1"
         stop-color="#FFFFFF" />
      <stop
         id="stop6069"
         offset="14%"
         stop-opacity="0.08"
         stop-color="#FFFFFF" />
      <stop
         id="stop6071"
         offset="61%"
         stop-opacity="0.02"
         stop-color="#FFFFFF" />
      <stop
         id="stop6073"
         offset="100%"
         stop-opacity="0"
         stop-color="#FFFFFF" />
    </linearGradient>
    <path
       id="path-2"
       d="M 82.97724,29.300104 C 82.790583,28.201973 82.006921,27.299698 80.945743,26.961124 79.884564,26.62255 78.723152,26.904241 77.935,27.691354 L 62.465677,43.197917 50.303229,20.042344 C 49.78815,19.063276 48.772957,18.45025 47.666667,18.45025 c -1.106291,0 -2.121484,0.613026 -2.636563,1.592094 L 38.379115,32.703802 21.695781,1.5864062 C 21.090714,0.45617231 19.83044,-0.16023716 18.566804,0.05600004 17.303168,0.27223724 16.319565,1.2726256 16.12474,2.5397396 L 0,105.76042 43.123438,129.93635 c 2.707936,1.51195 6.006125,1.51195 8.714062,0 l 43.495833,-24.17593 z"
       inkscape:connector-curvature="0" />
    <path
       id="path-4"
       d="m 106.68711,35.274174 c -0.186,-1.097652 -0.96693,-1.999535 -2.02439,-2.337961 -1.05747,-0.338426 -2.21482,-0.05686 -3.00022,0.729912 L 86.247266,49.165925 74.127344,26.020451 C 73.614066,25.04181 72.602423,24.429052 71.5,24.429052 c -1.102423,0 -2.114066,0.612758 -2.627344,1.591399 L 62.244922,38.676387 45.619922,7.5725628 C 45.01697,6.4428218 43.761103,5.8266812 42.501885,6.0428241 41.242667,6.258967 40.262504,7.2589191 40.068359,8.5254804 L 24,111.70114 66.972656,135.86653 c 2.698469,1.51129 5.985125,1.51129 8.683594,0 L 119,111.70114 Z"
       inkscape:connector-curvature="0" />
  </defs>
  <sodipodi:namedview
     id="base"
     pagecolor="#ffffff"
     bordercolor="#666666"
     borderopacity="1.0"
     inkscape:pageopacity="0.0"
     inkscape:pageshadow="2"
     inkscape:zoom="1.4"
     inkscape:cx="174.07912"
     inkscape:cy="254.2021"
     inkscape:document-units="mm"
     inkscape:current-layer="layer1"
     showgrid="false"
     inkscape:measure-start="215.162,827.567"
     inkscape:measure-end="164.907,827.567"
     fit-margin-top="10"
     fit-margin-right="10"
     fit-margin-bottom="10"
     fit-margin-left="10"
     inkscape:window-width="1619"
     inkscape:window-height="1119"
     inkscape:window-x="654"
     inkscape:window-y="124"
     inkscape:window-maximized="0" />
  <metadata
     id="metadata1509">
    <rdf:RDF>
      <cc:Work
         rdf:about="">
        <dc:format>image/svg+xml</dc:format>
        <dc:type
           rdf:resource="http://purl.org/dc/dcmitype/StillImage" />
        <dc:title />
      </cc:Work>
    </rdf:RDF>
  </metadata>
  <g
     inkscape:label="Layer 1"
     inkscape:groupmode="layer"
     id="layer1"
     transform="translate(20.298455,-51.769323)">
    <g
       id="g6939"
       transform="translate(5.3026997)"
       inkscape:export-xdpi="96"
       inkscape:export-ydpi="96">
      <path
         sodipodi:nodetypes="ccccccccssccc"
         inkscape:connector-curvature="0"
         style="fill:#4285f4;stroke-width:0.26458332"
         d="m 12.604934,61.770873 c -1.774567,-0.0015 -3.2136701,1.43764 -3.2122066,3.212207 v 27.706838 c -0.00146,1.774568 1.4376396,3.213669 3.2122066,3.212205 h 1.25057 c 0.616698,2.31294 2.710855,3.922673 5.104598,3.923792 2.392205,-0.003 4.484163,-1.612336 5.100464,-3.923792 h 1.281058 4.160987 c 1.169002,0 2.116666,-0.947663 2.116666,-2.116666 V 63.88754 l -2.116666,-2.116667 z"
         id="path906" />
      <path
         style="fill:#c8d1db;stroke-width:0.26458332"
         d="m 28.444794,61.769323 c -0.0028,4.683852 -0.0021,9.366881 -0.0021,14.053406 l -4.400251,-2.48667 c -0.634301,-0.357915 -1.419291,0.09954 -1.420585,0.827856 V 84.91158 c 0.0013,0.728311 0.786285,1.18577 1.420585,0.827855 l 4.400248,-2.487186 v 9.946164 0.587044 2.116666 h 2.116667 0.377238 9.539468 c 1.683266,-6.8e-5 3.047807,-1.364609 3.047876,-3.047875 V 64.808414 c -0.0057,-1.679229 -1.368601,-3.037482 -3.04784,-3.037541 z"
         id="path908"
         inkscape:connector-curvature="0"
         sodipodi:nodetypes="ccccccccccccccccc" />
    </g>
    <g
       aria-label="Blockly"
       style="font-style:normal;font-weight:normal;font-size:10.58333302px;line-height:1.25;font-family:sans-serif;letter-spacing:0px;word-spacing:0px;fill:#000000;fill-opacity:1;stroke:none;stroke-width:0.26458332"
       id="text5967">
      <path
         d="m -10.298455,123.04237 v -20.20711 h 7.3095554 q 2.37066664,0 4.0922221,1.58045 1.7497778,1.55222 1.7497778,3.92289 0,1.43933 -0.762,2.54 -0.7337778,1.10066 -1.9755555,1.66511 v 0.11289 q 1.4957777,0.508 2.4553333,1.74977 0.9595555,1.24178 0.9595555,2.87867 0,2.48356 -1.8344444,4.12044 -1.80622217,1.63689 -4.2897777,1.63689 z m 2.5964445,-11.54288 h 4.7131109 q 1.4675556,0 2.34244442,-0.95956 0.90311109,-0.98778 0.90311109,-2.14489 0,-1.15711 -0.87488887,-2.11667 -0.84666664,-0.95955 -2.25777774,-0.95955 h -4.8259998 z m 0,9.05933 h 5.2211109 q 1.49577777,0 2.42711107,-1.04422 0.93133331,-1.04423 0.93133331,-2.286 0,-1.24178 -0.95955553,-2.25778 -0.95955555,-1.04422 -2.51177775,-1.04422 h -5.108222 z"
         style="font-style:normal;font-variant:normal;font-weight:normal;font-stretch:normal;font-size:28.22222137px;font-family:'Product Sans';-inkscape-font-specification:'Product Sans, Normal';font-variant-ligatures:normal;font-variant-caps:normal;font-variant-numeric:normal;font-feature-settings:normal;text-align:start;writing-mode:lr-tb;text-anchor:start;fill:#5f6368;fill-opacity:1;stroke-width:0.26458332"
         id="path9798" />
      <path
         d="M 8.6033786,123.04237 H 6.0069342 v -20.20711 h 2.5964444 z"
         style="font-style:normal;font-variant:normal;font-weight:normal;font-stretch:normal;font-size:28.22222137px;font-family:'Product Sans';-inkscape-font-specification:'Product Sans, Normal';font-variant-ligatures:normal;font-variant-caps:normal;font-variant-numeric:normal;font-feature-settings:normal;text-align:start;writing-mode:lr-tb;text-anchor:start;fill:#5f6368;fill-opacity:1;stroke-width:0.26458332"
         id="path9800" />
      <path
         d="m 12.787764,110.8786 q 2.003778,-2.11667 5.108222,-2.11667 3.104444,0 5.108222,2.11667 2.003778,2.08844 2.003778,5.24933 0,3.16089 -2.003778,5.27755 -2.003778,2.08845 -5.108222,2.08845 -3.104444,0 -5.108222,-2.08845 -2.003778,-2.11666 -2.003778,-5.27755 0,-3.16089 2.003778,-5.24933 z m 1.919111,8.89 q 1.354667,1.35466 3.189111,1.35466 1.834444,0 3.160889,-1.35466 1.354666,-1.38289 1.354666,-3.64067 0,-2.25778 -1.354666,-3.61244 -1.326445,-1.38289 -3.160889,-1.38289 -1.834444,0 -3.189111,1.38289 -1.326445,1.35466 -1.326445,3.61244 0,2.25778 1.326445,3.64067 z"
         style="font-style:normal;font-variant:normal;font-weight:normal;font-stretch:normal;font-size:28.22222137px;font-family:'Product Sans';-inkscape-font-specification:'Product Sans, Normal';font-variant-ligatures:normal;font-variant-caps:normal;font-variant-numeric:normal;font-feature-settings:normal;text-align:start;writing-mode:lr-tb;text-anchor:start;fill:#5f6368;fill-opacity:1;stroke-width:0.26458332"
         id="path9802" />
      <path
         d="m 33.715864,123.49393 q -3.104445,0 -5.108223,-2.08845 -2.003777,-2.11666 -2.003777,-5.27755 0,-3.16089 2.003777,-5.24933 2.003778,-2.11667 5.108223,-2.11667 2.314222,0 3.838222,1.12889 1.524,1.12889 2.229555,2.85044 l -2.370666,0.98778 q -1.072445,-2.59644 -3.866445,-2.59644 -1.721555,0 -3.048,1.41111 -1.298222,1.41111 -1.298222,3.58422 0,2.17311 1.298222,3.58422 1.326445,1.41111 3.048,1.41111 2.906889,0 4.007556,-2.59644 l 2.314222,0.98778 q -0.705556,1.69333 -2.286,2.85044 -1.552222,1.12889 -3.866444,1.12889 z"
         style="font-style:normal;font-variant:normal;font-weight:normal;font-stretch:normal;font-size:28.22222137px;font-family:'Product Sans';-inkscape-font-specification:'Product Sans, Normal';font-variant-ligatures:normal;font-variant-caps:normal;font-variant-numeric:normal;font-feature-settings:normal;text-align:start;writing-mode:lr-tb;text-anchor:start;fill:#5f6368;fill-opacity:1;stroke-width:0.26458332"
         id="path9804" />
      <path
         d="m 44.707976,102.83526 v 12.446 l 5.983111,-6.06777 h 3.330222 v 0.11288 l -5.390445,5.39045 5.644445,8.21266 v 0.11289 h -3.132667 l -4.346222,-6.51933 -2.088444,2.08844 v 4.43089 h -2.596445 v -20.20711 z"
         style="font-style:normal;font-variant:normal;font-weight:normal;font-stretch:normal;font-size:28.22222137px;font-family:'Product Sans';-inkscape-font-specification:'Product Sans, Normal';font-variant-ligatures:normal;font-variant-caps:normal;font-variant-numeric:normal;font-feature-settings:normal;text-align:start;writing-mode:lr-tb;text-anchor:start;fill:#5f6368;fill-opacity:1;stroke-width:0.26458332"
         id="path9806" />
      <path
         d="m 58.322996,123.04237 h -2.596444 v -20.20711 h 2.596444 z"
         style="font-style:normal;font-variant:normal;font-weight:normal;font-stretch:normal;font-size:28.22222137px;font-family:'Product Sans';-inkscape-font-specification:'Product Sans, Normal';font-variant-ligatures:normal;font-variant-caps:normal;font-variant-numeric:normal;font-feature-settings:normal;text-align:start;writing-mode:lr-tb;text-anchor:start;fill:#5f6368;fill-opacity:1;stroke-width:0.26458332"
         id="path9808" />
      <path
         d="m 65.156299,129.13837 h -2.681111 l 3.217333,-6.97089 -5.700889,-12.95399 h 2.822222 l 4.120445,9.93422 h 0.05644 l 4.007555,-9.93422 h 2.822223 z"
         style="font-style:normal;font-variant:normal;font-weight:normal;font-stretch:normal;font-size:28.22222137px;font-family:'Product Sans';-inkscape-font-specification:'Product Sans, Normal';font-variant-ligatures:normal;font-variant-caps:normal;font-variant-numeric:normal;font-feature-settings:normal;text-align:start;writing-mode:lr-tb;text-anchor:start;fill:#5f6368;fill-opacity:1;stroke-width:0.26458332"
         id="path9810" />
    </g>
  </g>
</svg>
