<?xml version="1.0" encoding="UTF-8" standalone="no"?>
<svg
   xmlns:dc="http://purl.org/dc/elements/1.1/"
   xmlns:cc="http://creativecommons.org/ns#"
   xmlns:rdf="http://www.w3.org/1999/02/22-rdf-syntax-ns#"
   xmlns:svg="http://www.w3.org/2000/svg"
   xmlns="http://www.w3.org/2000/svg"
   viewBox="0 0 69.988266 69.987198"
   height="69.987198"
   width="69.988266"
   xml:space="preserve"
   id="svg2"
   version="1.1"><metadata
     id="metadata8"><rdf:RDF><cc:Work
         rdf:about=""><dc:format>image/svg+xml</dc:format><dc:type
           rdf:resource="http://purl.org/dc/dcmitype/StillImage" /></cc:Work></rdf:RDF></metadata><defs
     id="defs6"><clipPath
       id="clipPath18"
       clipPathUnits="userSpaceOnUse"><path
         id="path16"
         d="M 0,52.49 H 52.491 V 0 H 0 Z" /></clipPath></defs><g
     transform="matrix(1.3333333,0,0,-1.3333333,0,69.9872)"
     id="g10"><g
       id="g12"><g
         clip-path="url(#clipPath18)"
         id="g14"><g
           transform="translate(35.6531,35.3361)"
           id="g20"><path
             id="path22"
             style="fill:white;fill-opacity:0.5;fill-rule:nonzero;stroke:none"
             d="M 0,0 C 0.279,0.322 0.5,0.686 0.657,1.081 0.827,1.513 0.914,1.968 0.917,2.434 0.92,2.924 0.829,3.403 0.647,3.857 0.458,4.329 0.165,4.77 -0.2,5.13 -0.587,5.512 -1.061,5.812 -1.571,5.995 -2.138,6.198 -2.756,6.262 -3.358,6.18 -3.821,6.115 -4.263,5.967 -4.671,5.739 -4.886,5.618 -5.094,5.472 -5.291,5.305 L -5.467,5.151 C -5.527,5.099 -5.587,5.049 -5.649,5.003 -5.775,4.909 -5.906,4.827 -6.04,4.759 -6.173,4.691 -6.314,4.633 -6.458,4.586 -6.575,4.549 -6.696,4.519 -6.819,4.496 -6.917,4.478 -7.017,4.465 -7.115,4.457 c -0.623,-0.052 -1.281,0.082 -1.9,0.385 -0.224,0.111 -0.439,0.241 -0.64,0.387 -0.042,0.03 -0.084,0.063 -0.127,0.095 -0.039,0.031 -0.069,0.054 -0.102,0.09 -0.023,0.025 -0.043,0.05 -0.061,0.077 -0.056,0.082 -0.093,0.176 -0.107,0.271 -0.004,0.022 -0.005,0.044 -0.006,0.066 l -0.002,6.486 c -0.534,0.589 -1.115,1.136 -1.728,1.626 -0.913,0.73 -1.913,1.352 -2.971,1.845 -0.867,0.405 -1.779,0.725 -2.711,0.952 -0.851,0.208 -1.731,0.34 -2.617,0.391 -0.912,0.053 -1.834,0.023 -2.741,-0.092 -0.741,-0.094 -1.479,-0.246 -2.194,-0.453 -1.274,-0.365 -2.494,-0.905 -3.628,-1.604 -0.824,-0.507 -1.603,-1.101 -2.316,-1.764 -0.687,-0.64 -1.317,-1.35 -1.871,-2.109 -0.505,-0.692 -0.951,-1.432 -1.327,-2.2 -0.375,-0.764 -0.684,-1.566 -0.919,-2.383 -0.201,-0.7 -0.351,-1.423 -0.446,-2.147 -0.12,-0.919 -0.153,-1.858 -0.099,-2.79 0.05,-0.838 0.171,-1.673 0.359,-2.482 0.201,-0.856 0.481,-1.7 0.833,-2.507 0.546,-1.253 1.265,-2.423 2.136,-3.479 0.317,-0.384 0.654,-0.753 1.002,-1.098 0.158,-0.157 0.32,-0.31 0.485,-0.459 h 6.121 c 0.051,0.08 0.099,0.161 0.143,0.245 0.037,0.071 0.072,0.144 0.104,0.218 0.026,0.062 0.05,0.128 0.073,0.193 0.132,0.394 0.159,0.784 0.077,1.127 -0.013,0.052 -0.028,0.105 -0.046,0.157 -0.024,0.068 -0.053,0.136 -0.087,0.201 -0.048,0.09 -0.105,0.174 -0.169,0.249 -0.035,0.041 -0.07,0.079 -0.107,0.116 l -0.024,0.026 c -0.025,0.029 -0.046,0.053 -0.066,0.079 -0.014,0.02 -0.02,0.029 -0.027,0.038 l -0.079,0.096 c -0.109,0.134 -0.212,0.277 -0.304,0.42 -0.207,0.318 -0.378,0.659 -0.506,1.013 -0.118,0.32 -0.202,0.651 -0.252,0.985 -0.085,0.571 -0.073,1.146 0.035,1.71 0.098,0.509 0.273,0.999 0.521,1.454 0.258,0.475 0.588,0.903 0.98,1.272 0.419,0.394 0.895,0.711 1.415,0.942 0.557,0.249 1.15,0.393 1.762,0.428 0.659,0.035 1.298,-0.05 1.914,-0.258 0.653,-0.221 1.268,-0.585 1.78,-1.05 0.541,-0.492 0.977,-1.106 1.261,-1.776 0.151,-0.357 0.26,-0.729 0.324,-1.106 0.072,-0.415 0.092,-0.843 0.058,-1.272 -0.031,-0.388 -0.108,-0.773 -0.227,-1.144 -0.11,-0.341 -0.257,-0.673 -0.441,-0.988 -0.103,-0.177 -0.216,-0.347 -0.335,-0.503 -0.037,-0.051 -0.077,-0.1 -0.117,-0.151 l -0.033,-0.04 -0.005,0.002 -0.049,-0.07 c -0.022,-0.028 -0.043,-0.054 -0.066,-0.08 l -0.076,-0.08 c -0.028,-0.03 -0.055,-0.062 -0.081,-0.094 -0.05,-0.063 -0.095,-0.131 -0.134,-0.202 -0.035,-0.064 -0.066,-0.131 -0.09,-0.199 -0.019,-0.053 -0.035,-0.105 -0.049,-0.158 -0.085,-0.34 -0.062,-0.729 0.066,-1.123 0.021,-0.066 0.045,-0.13 0.071,-0.193 0.03,-0.073 0.063,-0.145 0.1,-0.215 0.045,-0.088 0.096,-0.176 0.156,-0.269 h 7.162 l 0.002,7.527 c 10e-4,0.022 0.002,0.043 0.006,0.065 0.008,0.061 0.027,0.124 0.057,0.187 0.03,0.06 0.067,0.114 0.111,0.161 0.034,0.037 0.065,0.062 0.102,0.09 l 0.062,0.048 c 0.087,0.065 0.173,0.126 0.262,0.183 0.487,0.316 1.027,0.526 1.563,0.608 0.154,0.024 0.312,0.037 0.482,0.04 0.037,0.001 0.076,0 0.113,-0.001 0.062,-0.002 0.124,-0.005 0.186,-0.01 0.123,-0.011 0.247,-0.029 0.367,-0.053 0.338,-0.071 0.654,-0.2 0.939,-0.383 0.11,-0.07 0.214,-0.149 0.31,-0.231 0.031,-0.026 0.061,-0.053 0.09,-0.081 l 0.029,-0.028 -0.07,-0.106 c 0.003,-0.003 0.007,-0.007 0.01,-0.01 l 0.071,0.101 0.215,-0.169 c 0.13,-0.101 0.243,-0.179 0.358,-0.25 0.24,-0.146 0.497,-0.266 0.763,-0.355 0.656,-0.219 1.363,-0.253 2.04,-0.097 0.374,0.086 0.731,0.229 1.059,0.424 C -0.581,-0.571 -0.268,-0.309 0,0" /></g><g
           transform="translate(41.5882,22.8337)"
           id="g24"><path
             id="path26"
             style="fill:white;fill-opacity:0.5;fill-rule:nonzero;stroke:none"
             d="M 0,0 V 0 L 0.053,0.044 0.013,0.018 Z" /></g><g
           transform="translate(28.5515,3.2736)"
           id="g28"><path
             id="path30"
             style="fill:white;fill-opacity:0.5;fill-rule:nonzero;stroke:none"
             d="m 0,0 c 0.934,-0.757 1.959,-1.398 3.045,-1.906 0.84,-0.39 1.72,-0.702 2.615,-0.927 0.883,-0.222 1.796,-0.362 2.714,-0.416 0.944,-0.054 1.897,-0.019 2.832,0.106 0.707,0.094 1.414,0.242 2.102,0.439 1.276,0.368 2.496,0.908 3.628,1.605 0.798,0.492 1.556,1.065 2.251,1.704 0.724,0.666 1.384,1.408 1.962,2.205 0.468,0.646 0.886,1.334 1.242,2.044 0.409,0.815 0.742,1.672 0.99,2.547 0.179,0.628 0.316,1.274 0.409,1.921 0.14,0.979 0.182,1.98 0.123,2.973 -0.048,0.819 -0.165,1.638 -0.348,2.433 -0.2,0.872 -0.484,1.732 -0.843,2.556 -0.538,1.234 -1.247,2.392 -2.106,3.442 -0.313,0.381 -0.648,0.752 -0.998,1.1 l -0.52,0.493 H 12.982 L 12.831,22.068 C 12.797,22.003 12.763,21.931 12.732,21.857 12.705,21.794 12.681,21.73 12.659,21.665 12.527,21.268 12.5,20.878 12.582,20.536 c 0.012,-0.053 0.027,-0.105 0.045,-0.156 0.024,-0.069 0.054,-0.137 0.088,-0.202 0.046,-0.086 0.103,-0.171 0.169,-0.251 0.027,-0.032 0.056,-0.062 0.086,-0.093 l 0.045,-0.048 c 0.023,-0.025 0.044,-0.051 0.065,-0.078 l -0.046,-0.082 0.061,0.057 0.003,-0.002 0.022,-0.028 -10e-4,-10e-4 0.01,-0.015 0.004,0.003 0.05,-0.062 c 0.171,-0.212 0.322,-0.433 0.451,-0.659 0.275,-0.478 0.469,-0.996 0.575,-1.538 0.141,-0.718 0.124,-1.472 -0.05,-2.181 -0.152,-0.623 -0.431,-1.228 -0.807,-1.751 -0.303,-0.42 -0.667,-0.79 -1.082,-1.1 C 11.868,12.048 11.425,11.81 10.954,11.64 10.456,11.461 9.935,11.362 9.406,11.345 8.955,11.331 8.505,11.376 8.07,11.48 c -0.494,0.118 -0.965,0.308 -1.399,0.565 -0.509,0.301 -0.958,0.685 -1.333,1.14 -0.393,0.477 -0.692,1.014 -0.89,1.596 -0.218,0.645 -0.305,1.348 -0.25,2.031 0.029,0.355 0.095,0.704 0.194,1.037 0.114,0.383 0.273,0.751 0.474,1.095 0.095,0.164 0.207,0.334 0.334,0.503 0.038,0.051 0.078,0.102 0.118,0.151 L 5.45,19.56 v 0 l -0.101,0.074 0.055,0.073 c 0.023,0.028 0.045,0.054 0.066,0.078 l 0.076,0.08 c 0.03,0.031 0.057,0.062 0.082,0.095 0.05,0.063 0.095,0.131 0.135,0.203 0.034,0.063 0.065,0.13 0.09,0.199 0.019,0.052 0.034,0.103 0.047,0.156 0.086,0.341 0.063,0.73 -0.065,1.124 -0.021,0.065 -0.044,0.129 -0.071,0.193 -0.033,0.082 -0.071,0.162 -0.113,0.24 -0.044,0.084 -0.092,0.165 -0.143,0.244 h -7.162 l -0.002,-7.532 c -0.001,-0.02 -0.003,-0.041 -0.006,-0.06 -0.015,-0.099 -0.052,-0.192 -0.107,-0.272 -0.018,-0.027 -0.039,-0.052 -0.061,-0.076 -0.035,-0.037 -0.064,-0.061 -0.102,-0.09 -0.02,-0.016 -0.042,-0.033 -0.065,-0.05 -0.122,-0.091 -0.254,-0.181 -0.393,-0.264 -0.619,-0.37 -1.29,-0.565 -1.942,-0.565 -0.093,-0.003 -0.179,0.003 -0.268,0.011 -0.11,0.01 -0.221,0.025 -0.33,0.046 -0.36,0.071 -0.709,0.213 -1.008,0.411 -0.109,0.072 -0.213,0.152 -0.309,0.237 -0.029,0.026 -0.058,0.052 -0.085,0.079 h -0.026 l -0.022,0.042 -0.036,0.027 c -0.035,0.03 -0.061,0.051 -0.087,0.072 l -0.073,0.059 c -0.212,0.162 -0.427,0.296 -0.648,0.404 -0.416,0.204 -0.861,0.328 -1.324,0.367 -0.345,0.028 -0.695,0.012 -1.037,-0.053 -0.259,-0.05 -0.511,-0.126 -0.75,-0.228 -0.498,-0.211 -0.954,-0.534 -1.32,-0.936 -0.345,-0.381 -0.614,-0.838 -0.779,-1.322 -0.154,-0.455 -0.218,-0.933 -0.191,-1.421 0.026,-0.462 0.136,-0.909 0.326,-1.327 0.175,-0.386 0.412,-0.738 0.706,-1.047 0.283,-0.296 0.609,-0.543 0.97,-0.734 0.319,-0.168 0.661,-0.289 1.015,-0.36 0.449,-0.089 0.906,-0.095 1.357,-0.021 0.246,0.041 0.49,0.108 0.725,0.198 0.254,0.098 0.499,0.225 0.727,0.377 0.113,0.075 0.229,0.161 0.343,0.257 l 0.068,0.054 0.016,0.046 0.041,0.002 c 0.012,0.013 0.02,0.02 0.029,0.028 l 0.055,0.052 c 0.051,0.043 0.1,0.084 0.151,0.124 0.104,0.08 0.212,0.151 0.322,0.213 0.28,0.159 0.589,0.268 0.917,0.324 0.152,0.026 0.31,0.04 0.48,0.043 h 0.109 C -4.1,9.429 -3.938,9.414 -3.782,9.389 -3.261,9.303 -2.734,9.095 -2.256,8.787 -2.167,8.73 -2.08,8.668 -1.996,8.604 l 0.053,-0.04 c 0.048,-0.037 0.077,-0.061 0.111,-0.097 0.047,-0.05 0.084,-0.104 0.113,-0.162 0.029,-0.062 0.048,-0.125 0.057,-0.187 0.003,-0.02 0.005,-0.04 0.006,-0.06 L -1.654,8.021 V 1.566 C -1.142,1.001 -0.585,0.474 0,0" /></g><g
           transform="translate(22.2707,17.571)"
           id="g32"><path
             id="path34"
             style="fill:white;fill-opacity:0.5;fill-rule:nonzero;stroke:none"
             d="m 0,0 v -0.008 l 0.011,0.019 v 0 z" /></g><g
           transform="translate(40.657,22.3049)"
           id="g36"><path
             id="path38"
             style="fill:white;fill-opacity:0.5;fill-rule:nonzero;stroke:none"
             d="M 0,0 Z" /></g><g
           transform="translate(49.1867,28.5134)"
           id="g40"><path
             id="path42"
             style="fill:white;fill-opacity:0.5;fill-rule:nonzero;stroke:none"
             d="m 0,0 c 0.721,0.884 1.337,1.848 1.832,2.865 0.359,0.739 0.659,1.516 0.89,2.311 0.244,0.839 0.413,1.706 0.503,2.579 0.173,1.678 0.063,3.352 -0.329,4.976 -0.323,1.339 -0.834,2.625 -1.518,3.823 -0.416,0.728 -0.898,1.425 -1.432,2.072 -0.597,0.724 -1.268,1.394 -1.993,1.994 -0.636,0.525 -1.32,0.999 -2.034,1.409 -0.75,0.431 -1.539,0.796 -2.345,1.086 -1,0.359 -2.041,0.609 -3.095,0.743 -0.401,0.051 -0.808,0.086 -1.209,0.104 -0.205,0.009 -0.41,0.014 -0.615,0.015 h -0.098 c -0.479,-0.003 -0.943,-0.026 -1.379,-0.069 -0.825,-0.08 -1.65,-0.231 -2.451,-0.45 -0.861,-0.235 -1.705,-0.551 -2.509,-0.941 -0.765,-0.371 -1.502,-0.811 -2.191,-1.308 -0.571,-0.411 -1.115,-0.866 -1.618,-1.352 -0.236,-0.227 -0.471,-0.469 -0.698,-0.72 v -6.121 c 0.079,-0.052 0.161,-0.1 0.245,-0.144 0.07,-0.037 0.143,-0.071 0.216,-0.102 0.064,-0.027 0.13,-0.051 0.195,-0.074 0.394,-0.132 0.784,-0.158 1.127,-0.077 0.053,0.012 0.105,0.027 0.156,0.045 0.069,0.024 0.136,0.054 0.201,0.088 0.088,0.047 0.173,0.104 0.251,0.169 0.04,0.034 0.078,0.071 0.116,0.107 l 0.029,0.028 c 0.035,0.029 0.055,0.046 0.077,0.063 l 0.107,0.085 c 0.164,0.132 0.314,0.24 0.466,0.338 0.319,0.205 0.662,0.373 1.018,0.502 0.317,0.115 0.649,0.198 0.987,0.245 0.56,0.082 1.126,0.068 1.681,-0.038 0.51,-0.098 1,-0.273 1.455,-0.521 0.473,-0.257 0.901,-0.587 1.272,-0.981 0.394,-0.418 0.711,-0.894 0.942,-1.414 0.248,-0.558 0.392,-1.151 0.427,-1.762 0.037,-0.645 -0.052,-1.307 -0.258,-1.914 -0.22,-0.652 -0.583,-1.267 -1.049,-1.781 -0.491,-0.54 -1.105,-0.976 -1.776,-1.26 -0.352,-0.149 -0.724,-0.259 -1.106,-0.325 -0.421,-0.072 -0.849,-0.091 -1.272,-0.057 -0.371,0.03 -0.739,0.1 -1.09,0.21 -0.365,0.113 -0.716,0.267 -1.042,0.458 -0.167,0.096 -0.336,0.209 -0.503,0.334 -0.051,0.039 -0.102,0.078 -0.151,0.118 l -0.108,0.086 c -0.028,0.022 -0.053,0.043 -0.079,0.065 -0.03,0.028 -0.056,0.054 -0.082,0.079 -0.029,0.026 -0.061,0.054 -0.094,0.081 -0.064,0.05 -0.132,0.095 -0.201,0.133 -0.064,0.035 -0.132,0.065 -0.201,0.091 -0.051,0.018 -0.101,0.034 -0.154,0.046 C -20.829,6.024 -21.219,6 -21.613,5.873 -21.677,5.852 -21.742,5.828 -21.806,5.802 -21.887,5.768 -21.967,5.73 -22.045,5.689 -22.129,5.645 -22.21,5.598 -22.289,5.546 v -7.162 l 7.532,-0.003 c 0.02,-0.001 0.04,-0.002 0.06,-0.005 0.098,-0.015 0.192,-0.052 0.272,-0.107 0.026,-0.018 0.053,-0.039 0.076,-0.062 0.035,-0.033 0.058,-0.061 0.085,-0.096 l 0.053,-0.068 c 0.094,-0.125 0.184,-0.257 0.267,-0.395 0.362,-0.608 0.557,-1.269 0.563,-1.912 0.002,-0.099 -0.002,-0.198 -0.01,-0.298 -0.009,-0.11 -0.025,-0.221 -0.046,-0.33 -0.072,-0.362 -0.213,-0.711 -0.41,-1.008 -0.074,-0.11 -0.153,-0.214 -0.238,-0.309 -0.026,-0.029 -0.053,-0.057 -0.08,-0.086 l -0.025,-0.026 v 10e-4 l -0.18,-0.227 c -0.083,-0.106 -0.161,-0.219 -0.23,-0.334 -0.143,-0.233 -0.26,-0.483 -0.349,-0.744 -0.223,-0.654 -0.261,-1.359 -0.109,-2.037 0.084,-0.378 0.229,-0.742 0.429,-1.083 0.208,-0.351 0.47,-0.665 0.779,-0.932 0.323,-0.28 0.687,-0.5 1.081,-0.656 0.429,-0.17 0.884,-0.257 1.352,-0.26 h 0.026 c 0.482,0 0.951,0.09 1.397,0.269 0.473,0.19 0.913,0.483 1.274,0.848 0.383,0.388 0.682,0.862 0.865,1.371 0.203,0.566 0.267,1.184 0.184,1.786 -0.066,0.477 -0.221,0.931 -0.461,1.349 -0.117,0.204 -0.256,0.4 -0.413,0.584 l -0.073,0.089 0.005,0.01 -0.002,0.006 0.007,0.002 0.017,0.033 0.035,0.065 -0.091,-0.085 -0.053,0.057 c -0.051,0.06 -0.101,0.12 -0.148,0.182 -0.091,0.121 -0.173,0.253 -0.243,0.391 -0.067,0.13 -0.125,0.27 -0.172,0.417 -0.038,0.116 -0.068,0.239 -0.091,0.363 -0.018,0.097 -0.031,0.196 -0.039,0.294 -0.052,0.624 0.082,1.281 0.385,1.901 0.109,0.221 0.239,0.436 0.386,0.639 0.031,0.043 0.064,0.085 0.096,0.127 0.032,0.041 0.055,0.069 0.09,0.102 0.025,0.023 0.051,0.045 0.078,0.063 0.079,0.054 0.172,0.091 0.27,0.106 0.02,0.003 0.04,0.004 0.06,0.005 l 0.038,0.003 h 6.454 C -0.981,-1.113 -0.465,-0.57 0,0" /></g>
          </g></g></g></svg>
