<?xml version="1.0" encoding="UTF-8" standalone="no"?>
<!-- Created with Inkscape (http://www.inkscape.org/) -->

<svg
   xmlns:dc="http://purl.org/dc/elements/1.1/"
   xmlns:cc="http://creativecommons.org/ns#"
   xmlns:rdf="http://www.w3.org/1999/02/22-rdf-syntax-ns#"
   xmlns:svg="http://www.w3.org/2000/svg"
   xmlns="http://www.w3.org/2000/svg"
   xmlns:sodipodi="http://sodipodi.sourceforge.net/DTD/sodipodi-0.dtd"
   xmlns:inkscape="http://www.inkscape.org/namespaces/inkscape"
   width="210mm"
   height="145mm"
   viewBox="0 0 210 145"
   version="1.1"
   id="svg8"
   inkscape:version="0.92.3 (2405546, 2018-03-11)"
   sodipodi:docname="1.svg">
  <defs
     id="defs2" />
  <sodipodi:namedview
     id="base"
     pagecolor="#ffffff"
     bordercolor="#666666"
     borderopacity="1.0"
     inkscape:pageopacity="0.0"
     inkscape:pageshadow="2"
     inkscape:zoom="1.0074671"
     inkscape:cx="420.45415"
     inkscape:cy="401.18587"
     inkscape:document-units="mm"
     inkscape:current-layer="g1083"
     showgrid="false"
     inkscape:window-width="1853"
     inkscape:window-height="1025"
     inkscape:window-x="67"
     inkscape:window-y="27"
     inkscape:window-maximized="1" />
  <metadata
     id="metadata5">
    <rdf:RDF>
      <cc:Work
         rdf:about="">
        <dc:format>image/svg+xml</dc:format>
        <dc:type
           rdf:resource="http://purl.org/dc/dcmitype/StillImage" />
        <dc:title></dc:title>
      </cc:Work>
    </rdf:RDF>
  </metadata>
  <g
     inkscape:label="Layer 1"
     inkscape:groupmode="layer"
     id="layer1"
     transform="translate(0,-152)">
    <g
       id="g1083"
       transform="matrix(0.26458333,0,0,0.26458333,9.8010231,-1.9034887)">
      <g
         id="g6487"
         transform="translate(-35.152739,553.13611)">
        <text
           id="text6413"
           class="st0 st1"
           transform="matrix(0.9659,0,-0.2614,0.9754,656.2713,58.6688)"
           style="font-size:19.95840073px;font-family:ArialUnicodeMS">Левое</text>
        <text
           id="text6415"
           class="st0 st2"
           transform="matrix(0.9659,0,-0.2593,0.9678,86.3255,63.0297)"
           style="font-size:20.11580086px;font-family:ArialUnicodeMS">Правое</text>
        <path
           id="path6417"
           d="m 229.82,219.54 -0.43,0.3 -0.34,0.37 -0.19,0.47 -0.02,0.5 0.15,0.48 0.31,0.4 0.42,0.27 0.49,0.11 0.52,0.01 -9.93,1.49 9.02,-4.4 m 334,-3.1 0.52,-0.01 0.49,-0.11 0.42,-0.27 0.3,-0.4 0.15,-0.48 -0.02,-0.5 -0.2,-0.46 -0.34,-0.37 -0.43,-0.3 9.02,4.4 -9.91,-1.5 m -363.49,91.11 -0.42,0.31 -0.33,0.38 -0.18,0.47 -0.01,0.5 0.16,0.48 0.32,0.39 0.43,0.26 0.49,0.1 h 0.52 l -9.89,1.73 8.91,-4.62 m 380.87,-26.54 0.52,-0.02 0.49,-0.12 0.42,-0.28 0.3,-0.4 0.14,-0.48 -0.03,-0.5 -0.2,-0.46 -0.35,-0.36 -0.43,-0.3 9.09,4.26 -9.95,-1.34 m -324.23,-139.12 -0.42,0.31 -0.34,0.38 -0.19,0.47 -0.02,0.5 0.16,0.48 0.31,0.4 0.43,0.27 0.49,0.1 h 0.52 l -9.91,1.62 8.97,-4.53 m 286.19,-7.4 0.52,0.01 0.49,-0.09 0.43,-0.26 0.32,-0.39 0.17,-0.48 v -0.5 l -0.18,-0.47 -0.33,-0.38 -0.41,-0.32 8.84,4.76 -9.85,-1.88"
           class="st3"
           inkscape:connector-curvature="0"
           style="fill:none;stroke:#000000;stroke-width:0.50999999;stroke-miterlimit:10" />
        <path
           id="path6419"
           d="m 220.8,223.94 107.31,-33.42 m 245.63,27.41 -95.18,-29.61 m -287.14,123.86 99.19,-33.56 m 300.54,3.73 -88.75,-26.1 M 248.01,146.41 295.25,131.02 M 553.02,136.38 495.64,116"
           class="st4"
           inkscape:connector-curvature="0"
           style="fill:none;stroke:#000000;stroke-width:0.50999999;stroke-linecap:round;stroke-linejoin:round;stroke-miterlimit:10" />
        <path
           id="path6421"
           d="m 229.82,219.54 -0.43,0.3 -0.34,0.37 -0.19,0.47 -0.02,0.5 0.15,0.48 0.31,0.4 0.42,0.27 0.49,0.11 0.52,0.01 -9.93,1.49 9.02,-4.4 m 334,-3.1 0.52,-0.01 0.49,-0.11 0.42,-0.27 0.3,-0.4 0.15,-0.48 -0.02,-0.5 -0.2,-0.46 -0.34,-0.37 -0.43,-0.3 9.02,4.4 -9.91,-1.5 m -363.49,91.11 -0.42,0.31 -0.33,0.38 -0.18,0.47 -0.01,0.5 0.16,0.48 0.32,0.39 0.43,0.26 0.49,0.1 h 0.52 l -9.89,1.73 8.91,-4.62 m 380.87,-26.54 0.52,-0.02 0.49,-0.12 0.42,-0.28 0.3,-0.4 0.14,-0.48 -0.03,-0.5 -0.2,-0.46 -0.35,-0.36 -0.43,-0.3 9.09,4.26 -9.95,-1.34 m -324.23,-139.12 -0.42,0.31 -0.34,0.38 -0.19,0.47 -0.02,0.5 0.16,0.48 0.31,0.4 0.43,0.27 0.49,0.1 h 0.52 l -9.91,1.62 8.97,-4.53 m 286.19,-7.4 0.52,0.01 0.49,-0.09 0.43,-0.26 0.32,-0.39 0.17,-0.48 v -0.5 l -0.18,-0.47 -0.33,-0.38 -0.41,-0.32 8.84,4.76 -9.85,-1.88"
           inkscape:connector-curvature="0" />
        <path
           id="path6423"
           d="m 704.56,92.15 0.63,-0.4 0.54,-0.67 0.36,-0.84 0.13,-0.88 -0.07,-0.6 m -3.61,4.16 2.02,-0.77 m 2.53,-8.79 -0.16,-0.06 -1.12,-0.14 -1.19,0.26 m -17.38,16.08 0.52,-0.3 0.71,-0.7 0.55,-0.93 m -0.01,-0.01 0.33,-1.05 0.07,-1.05 -0.2,-0.91 -0.06,-0.13 m -35.13,16.89 0.63,-0.4 0.53,-0.67 0.36,-0.84 0.13,-0.88 -0.07,-0.6 m -3.6,4.16 2.02,-0.77 m 50.61,-27.88 -78.22,29.65 m 0,0 -0.27,0.11 -0.27,0.13 -0.27,0.15 -0.27,0.17 -0.26,0.19 -0.26,0.2 -0.26,0.22 -0.25,0.24 m 0.01,0 -18.24,18.05 m -7.33,22.6 0.44,-0.43 0.46,-0.76 m 0.01,0 0.26,-0.87 0.02,-0.85 -0.03,-0.15 m -8.12,11.56 0.86,-0.45 0.83,-0.83 0.65,-1.1 0.39,-1.24 0.08,-1.23 m -0.81,-12.06 0.81,12.05 m -6.77,8.07 -0.21,-0.09 -0.59,-0.37 -0.52,-0.51 -0.43,-0.64 -0.33,-0.75 -0.23,-0.85 -0.12,-0.93 m 6.69,-21.24 1.8,-0.64 1.79,-0.79 1.79,-0.92 1.77,-1.06 1.76,-1.19 1.73,-1.32 1.7,-1.44 1.66,-1.56 m -12.3,14.18 -0.24,-1.07 -0.18,-0.36 m -1.28,-3.83 -0.6,0.21 -0.6,0.26 -0.59,0.31 -0.59,0.36 -0.58,0.41 -0.57,0.45 -0.56,0.49 -0.54,0.53 m -2.07,18.24 -0.72,-10.68 m 0,0 -0.01,-0.98 0.1,-1.02 0.21,-1.03 0.32,-1.02 0.42,-0.98 0.51,-0.92 0.58,-0.85 0.65,-0.75 m 8.36,3 0.81,12.05 m -5.25,2.65 0.23,1.07 0.52,0.78 0.75,0.4 0.88,-0.03 0.91,-0.46 0.83,-0.83 0.65,-1.1 0.39,-1.24 0.08,-1.23 m -6.05,-9.41 0.81,12.05 m 4.44,-14.7 -0.24,-1.07 -0.52,-0.78 -0.75,-0.4 -0.88,0.03 -0.91,0.46 -0.83,0.83 -0.65,1.1 -0.39,1.24 -0.08,1.23 m 0.44,17.67 1.21,-0.13 1.24,-0.35 1.24,-0.57 1.22,-0.77 1.18,-0.96 1.12,-1.14 1.04,-1.29 0.94,-1.43 m -0.01,-0.01 0.31,-0.51 0.31,-0.51 0.32,-0.5 0.32,-0.5 0.33,-0.49 0.33,-0.49 0.33,-0.49 0.34,-0.48 m 0,-0.01 0.08,-0.11 0.07,-0.11 0.07,-0.11 0.07,-0.11 0.07,-0.12 0.07,-0.12 0.07,-0.12 0.07,-0.12 m 0,0 1.08,-1.96 1.14,-1.91 1.2,-1.85 1.25,-1.79 1.3,-1.72 1.35,-1.64 1.39,-1.56 1.43,-1.48 m 15.96,-15.81 -15.97,15.8 m 93.09,-45.03 -77.12,29.23 m 77.12,-29.23 1.19,-0.64 1.12,-0.98 0.99,-1.27 0.8,-1.49 0.57,-1.61 0.3,-1.64 0.01,-1.58 -0.27,-1.43 -0.55,-1.19 -0.78,-0.88 -0.98,-0.52 -1.12,-0.14 -1.19,0.26 m 0.01,0 -78.22,29.65 m 0,0 -0.27,0.11 -0.27,0.13 -0.27,0.15 -0.27,0.17 -0.26,0.19 -0.26,0.2 -0.26,0.22 -0.25,0.24 m 0.01,0 -18.24,18.05 m 0,0 -1.66,1.56 -1.7,1.44 -1.73,1.32 -1.75,1.19 -1.77,1.06 -1.79,0.93 -1.79,0.79 -1.8,0.64 m 0.01,0 -0.6,0.21 -0.6,0.26 -0.59,0.31 -0.59,0.36 -0.58,0.41 -0.57,0.45 -0.56,0.49 -0.54,0.53 m -0.01,0.01 -0.65,0.75 -0.58,0.85 -0.51,0.92 -0.42,0.98 -0.32,1.02 -0.21,1.03 -0.1,1.02 0.01,0.98 m 0.71,10.68 -0.72,-10.68 m 0.72,10.68 0.12,0.93 0.23,0.85 0.33,0.75 0.43,0.64 0.52,0.51 0.59,0.37 0.66,0.22 0.7,0.06 m 100.06,-69.5 0.33,-1.05 0.07,-1.05 -0.2,-0.91 -0.44,-0.67 -0.63,-0.34 -0.75,0.02 -0.77,0.39 -0.71,0.7 -0.55,0.93 -0.33,1.05 -0.07,1.04 0.2,0.91 0.44,0.67 0.63,0.34 0.75,-0.02 0.77,-0.39 0.71,-0.7 0.55,-0.92 m 15.54,-5.41 0.63,-0.4 0.54,-0.67 0.36,-0.84 0.13,-0.88 -0.12,-0.78 -0.35,-0.57 -0.53,-0.27 -0.63,0.07 m -2.51,5.28 2.48,-0.94 m -2.45,-3.39 -0.63,0.4 -0.54,0.67 -0.36,0.84 -0.13,0.88 0.12,0.78 0.35,0.57 0.53,0.27 0.63,-0.07 m 0.03,-4.34 2.48,-0.94 m -50.57,23.49 0.63,-0.4 0.53,-0.67 0.36,-0.84 0.13,-0.88 -0.12,-0.78 -0.35,-0.57 -0.53,-0.27 -0.63,0.07 m -2.5,5.28 2.48,-0.94 m -2.45,-3.39 -0.63,0.4 -0.53,0.67 -0.36,0.84 -0.13,0.88 0.12,0.78 0.35,0.57 0.53,0.27 0.63,-0.07 m 0.02,-4.34 2.48,-0.94 m -54.4,46.97 0.26,-0.87 0.02,-0.85 -0.23,-0.7 -0.44,-0.44 -0.58,-0.11 -0.64,0.23 -0.6,0.54 -0.46,0.76 -0.26,0.87 -0.02,0.85 0.23,0.7 0.44,0.44 0.58,0.11 0.64,-0.23 0.6,-0.54 0.46,-0.76 m 169.05,65.53 0.07,0.6 -0.13,0.88 -0.36,0.84 -0.54,0.67 -0.63,0.4 m -2.03,0.76 2.02,-0.77 m 0.07,-8.72 1.19,-0.26 1.11,0.14 0.16,0.06 m -17.92,11.06 0.19,0.56 0.06,0.99 -0.21,1.07 -0.45,1.01 -0.64,0.83 -0.75,0.55 -0.14,0.06 m -31.62,8.43 0.07,0.6 -0.13,0.88 -0.36,0.84 -0.54,0.67 -0.63,0.4 m -2.02,0.76 2.02,-0.77 m 50.61,-27.88 -78.22,29.65 m -3.14,2.66 0.34,-0.46 0.36,-0.43 0.38,-0.4 0.39,-0.36 0.41,-0.32 0.42,-0.28 0.42,-0.23 0.42,-0.18 m -17.72,23.64 14.58,-20.99 m -27.72,57.31 -0.08,1.23 -0.39,1.24 -0.65,1.11 -0.83,0.83 -0.86,0.45 m 2,-16.91 0.81,12.05 m 4.35,-20.96 0.02,0.15 -0.02,0.85 -0.26,0.87 -0.47,0.76 -0.44,0.43 m -1.38,-6.61 1.53,-1.16 1.51,-1.26 1.48,-1.36 1.45,-1.44 1.41,-1.53 1.37,-1.61 1.32,-1.69 1.27,-1.76 m -19.91,44.39 -0.21,-0.09 -0.59,-0.37 -0.52,-0.51 -0.43,-0.64 -0.34,-0.75 -0.23,-0.85 -0.12,-0.93 m 9.49,-26.85 0.17,-0.24 0.18,-0.23 0.18,-0.22 0.19,-0.2 0.19,-0.19 0.2,-0.18 0.2,-0.17 0.21,-0.16 m -3.03,11.03 0.18,0.36 0.24,1.07 m -5.9,-2.64 0.93,-0.91 0.92,-0.95 0.9,-0.98 0.89,-1.02 0.87,-1.05 0.85,-1.08 0.83,-1.11 0.81,-1.14 m -7.42,8.66 0.05,-0.05 0.05,-0.05 0.05,-0.05 0.05,-0.05 0.05,-0.05 0.05,-0.05 0.05,-0.05 0.05,-0.05 m -3.2,7.94 0.72,10.67 m -0.72,-10.67 -0.01,-0.98 0.1,-1.02 0.22,-1.03 0.32,-1.02 0.42,-0.98 0.51,-0.92 0.59,-0.85 0.65,-0.75 m 12.86,-6.9 0.44,0.44 0.23,0.7 -0.02,0.85 -0.26,0.87 -0.47,0.76 -0.6,0.54 -0.64,0.23 -0.58,-0.11 -0.44,-0.44 -0.23,-0.7 0.02,-0.85 0.26,-0.87 0.47,-0.76 0.6,-0.54 0.64,-0.23 0.58,0.11 m -4.52,9.9 0.81,12.05 m 0,-0.01 -0.08,1.23 -0.39,1.24 -0.65,1.1 -0.83,0.83 -0.91,0.46 -0.88,0.03 -0.75,-0.4 -0.52,-0.78 -0.24,-1.07 m -0.81,-12.03 0.81,12.05 m -0.81,-12.05 0.08,-1.23 0.39,-1.24 0.65,-1.1 0.83,-0.83 0.91,-0.46 0.88,-0.03 0.75,0.4 0.52,0.78 0.24,1.07 m 13.95,-24.28 14.58,-20.99 m -14.58,20.99 -1.27,1.76 -1.32,1.69 -1.37,1.61 -1.41,1.53 -1.45,1.44 -1.48,1.36 -1.51,1.26 -1.53,1.16 m -1.52,1.59 0.17,-0.24 0.18,-0.23 0.18,-0.22 0.19,-0.2 0.19,-0.19 0.2,-0.18 0.2,-0.17 0.21,-0.16 m -1.52,1.59 -0.81,1.14 -0.83,1.11 -0.85,1.08 -0.87,1.05 -0.89,1.02 -0.9,0.98 -0.92,0.95 -0.93,0.91 m -0.41,0.4 0.05,-0.05 0.05,-0.05 0.05,-0.05 0.05,-0.05 0.05,-0.05 0.05,-0.05 0.05,-0.05 0.05,-0.05 m -0.4,0.4 -0.65,0.75 -0.59,0.85 -0.51,0.92 -0.42,0.98 -0.32,1.02 -0.22,1.03 -0.1,1.02 0.01,0.98 m 0.01,0 0.72,10.68 m 0,-0.01 0.12,0.93 0.23,0.85 0.34,0.75 0.43,0.64 0.52,0.51 0.59,0.37 0.66,0.22 0.7,0.06 m 11.21,-11.33 -0.82,2.26 -1.07,2.14 -1.28,1.94 -1.46,1.69 -1.58,1.38 -1.66,1.03 -1.69,0.64 -1.66,0.24 m 11.22,-11.32 0.78,-2.43 0.87,-2.41 0.97,-2.37 1.05,-2.33 1.14,-2.27 1.22,-2.21 1.3,-2.14 1.37,-2.06 m 0,-0.01 18.22,-26.23 m 76.46,-28.98 -76.45,28.98 m 76.55,-42.09 1.19,-0.26 1.11,0.14 0.98,0.52 0.78,0.88 0.55,1.19 0.28,1.43 -0.01,1.58 -0.3,1.64 -0.57,1.61 -0.8,1.48 -0.99,1.27 -1.12,0.98 -1.19,0.64 m 0.09,-13.1 -78.22,29.65 m -3.14,2.65 0.34,-0.46 0.36,-0.43 0.38,-0.4 0.39,-0.36 0.41,-0.32 0.41,-0.28 0.42,-0.23 0.42,-0.18 m 75.68,-19.98 -0.63,0.07 -0.53,-0.27 -0.35,-0.57 -0.12,-0.78 0.13,-0.88 0.36,-0.84 0.53,-0.67 0.63,-0.4 m 0.01,0.01 2.48,-0.94 m 0.01,0 0.63,-0.07 0.53,0.27 0.35,0.57 0.12,0.78 -0.13,0.88 -0.36,0.84 -0.54,0.67 -0.63,0.4 m -2.49,0.93 2.48,-0.94 m -16.07,1.52 0.54,0.51 0.33,0.8 0.06,0.99 -0.2,1.07 -0.45,1.01 -0.64,0.83 -0.75,0.55 -0.77,0.21 -0.7,-0.16 -0.55,-0.51 -0.32,-0.8 -0.06,-0.99 0.21,-1.07 0.45,-1.01 0.64,-0.83 0.75,-0.55 0.77,-0.21 0.69,0.16 m -36.95,18.58 -0.63,0.07 -0.53,-0.27 -0.35,-0.57 -0.12,-0.78 0.13,-0.88 0.36,-0.84 0.54,-0.67 0.63,-0.4 m 0,0.01 2.48,-0.94 m 0,0 0.63,-0.07 0.53,0.27 0.35,0.57 0.12,0.78 -0.13,0.88 -0.36,0.84 -0.54,0.67 -0.63,0.4 m -2.48,0.93 2.49,-0.94 m -87.19,17.18 0.22,1.01 0.49,0.74 0.5,0.31 m 1.65,0.56 0.41,0.22 0.45,0.09 0.49,-0.05 0.5,-0.19 0.08,-0.04 m 1.22,-15.71 0.02,0.22 m -0.07,-1.02 0.05,0.8 m 0,0 0.01,0.18 m -4,13.65 0.03,0.3 0.05,0.28 0.08,0.27 0.1,0.25 0.12,0.23 0.14,0.2 0.16,0.18 0.17,0.15 m 3.46,-13.46 -0.23,-1.5 m -10.9,-3.39 0.22,1.01 0.49,0.74 0.5,0.31 m -1.36,-3.59 -0.28,-1.85 -0.12,-1.85 m 2.7,9.55 -0.14,-0.77 m 3.85,1.61 0.4,-0.02 m 4.64,-1.75 -0.09,-0.56 m -4.55,2.31 0.02,0.59 m 0,0 0.05,1.97 0.03,1.9 m 4.46,-6.77 -0.05,-0.8 m -4.56,2.31 0.05,0.8 m 2.49,-6.83 0.08,1.22 m -1.11,-0.43 -0.2,-0.06 -0.83,0.03 -0.86,0.43 -0.78,0.79 -0.61,1.04 -0.36,1.17 -0.08,1.16 m 6.76,-1.63 -0.2,-0.93 -0.46,-0.68 -0.65,-0.35 -0.77,0.03 -0.79,0.4 -0.72,0.72 -0.56,0.96 -0.34,1.08 -0.07,1.07 m -0.39,0.03 0.08,-1.16 0.37,-1.17 0.61,-1.04 0.78,-0.79 0.86,-0.43 0.83,-0.03 0.71,0.38 0.49,0.74 0.22,1.01 m -11.78,-13.99 0.08,-1.16 0.36,-1.17 0.61,-1.04 0.78,-0.79 0.86,-0.43 0.83,-0.03 0.21,0.06 m 3.25,2.82 0.26,3.78 m -5.21,-1.27 0.08,-1.16 0.36,-1.17 0.61,-1.04 0.78,-0.79 0.86,-0.43 0.83,-0.03 0.71,0.38 0.49,0.74 0.22,1.01 m 0.26,3.76 0.07,0.67 0.11,0.69 0.16,0.71 0.2,0.72 0.23,0.7 0.26,0.7 0.28,0.7 0.3,0.69 0.2,0.47 0.38,0.94 0.16,0.48 0.05,0.18 m -4.82,3.24 0.08,-1.16 0.37,-1.17 0.61,-1.04 0.78,-0.79 0.86,-0.43 0.83,-0.03 0.71,0.38 0.49,0.74 0.22,1.01 m -32.28,-54.77 0.7,-0.3 0.86,-0.39 0.9,-0.42 0.79,-0.39 0.57,-0.3 0.26,-0.16 h -0.09 l -0.43,0.16 -0.7,0.3 -0.87,0.39 -0.9,0.42 -0.79,0.39 -0.57,0.3 -0.26,0.16 h 0.09 l 0.44,-0.16 m 32.23,72.87 0.13,0.29 0.06,0.12 m -9.43,-22.06 -0.46,-6.89 m 0.46,6.89 0.43,3.84 m 0,-0.01 0.06,0.6 m 0,0 0.05,0.8 m 2.02,3.55 -0.19,-2.86 m 0.19,2.86 0.07,0.51 0.15,0.54 0.38,0.99 0.42,0.98 0.41,0.98 0.37,0.99 0.27,0.83 0.21,0.84 0.16,0.86 0.09,0.85 m 0,0.02 0.26,3.78 m 1.56,-6.12 0.46,6.89 m -0.46,-6.89 -0.43,-3.84 m -0.01,0 -0.06,-0.6 m 0,0 -0.05,-0.8 m -1.82,-0.69 -0.19,-2.86 m -0.01,0 -0.14,-0.78 -0.08,-0.27 -0.18,-0.49 -0.83,-1.97 -0.39,-0.99 -0.18,-0.5 -0.14,-0.42 -0.24,-0.84 -0.19,-0.85 -0.13,-0.85 -0.04,-0.42 m 0.01,0 -0.26,-3.78 m -23.9,-45.42 -0.27,0.1 h -0.06 l 0.17,-0.1 0.36,-0.19 0.51,-0.25 0.57,-0.27 0.55,-0.25 0.45,-0.19 0.27,-0.1 h 0.06 l -0.16,0.1 -0.36,0.19 -0.51,0.25 -0.57,0.27 -0.55,0.25 -0.46,0.19 M 709.12,84.13 707.1,83.36 m -119.28,83.49 2.02,0.77 m 183.84,47.99 -2.02,-0.77 m -118.32,97.75 2.02,0.77 m -20.72,-50.56 2.02,0.77 m 2.84,-15.31 -0.05,-0.37 m -10.95,-4.25 0.05,0.37 m 1.29,3.07 0.71,0.27 m 0.22,1.98 -0.01,-0.04 m 7.5,14.21 0.27,0.45 0.31,0.32 0.28,0.17 0.21,0.07 0.27,0.01 0.27,-0.06 0.76,-0.29 0.5,-0.22 0.54,-0.24 0.26,-0.12 m 0,0.01 0.29,-0.14 0.55,-0.26 0.52,-0.25 0.47,-0.24 0.78,-0.5 0.18,-0.26 0.13,-0.38 0.01,-0.51 -0.17,-0.56 m -6.53,-15.68 -1.82,-0.69 m -2.98,-15.03 -2.02,-0.77 m 5.89,14.24 0.01,0.03 m -24.18,-50 -1.27,-2.53 -1.07,-1.82 -0.73,-0.99 -0.25,-0.26 -0.2,-0.15 -0.17,-0.07 -0.17,-0.02 -0.44,0.09 -0.45,0.18 m -2.7,1.26 -0.32,0.16 -0.36,0.25 -0.14,0.2 -0.09,0.29 -0.03,0.45 0.08,0.66 0.61,2.17 1.29,3.12 m 30.84,66.26 0.77,1.65 m 6.43,-2.99 -5.05,-10.84 m -9.85,-21.15 -16.73,-35.92 m -6.43,2.99 21.61,46.4"
           class="st5"
           inkscape:connector-curvature="0"
           style="fill:none;stroke:#000000;stroke-width:0.70899999;stroke-linecap:round;stroke-linejoin:round;stroke-miterlimit:10" />
        <line
           id="line6425"
           y2="287.04001"
           x2="656.53003"
           y1="244.84"
           x1="636.88"
           class="st6"
           style="fill:none;stroke:#000000;stroke-width:0.50999999;stroke-linecap:round;stroke-linejoin:round;stroke-miterlimit:10;stroke-dasharray:18, 3.6, 3.6, 3.6, 3.6, 3.6;stroke-dashoffset:3" />
        <line
           id="line6427"
           y2="145.46001"
           x2="592.95001"
           y1="229.05"
           x1="631.87"
           class="st7"
           style="fill:none;stroke:#000000;stroke-width:0.50999999;stroke-linecap:round;stroke-linejoin:round;stroke-miterlimit:10;stroke-dasharray:18, 3.6, 3.6, 3.6, 3.6, 3.6;stroke-dashoffset:-1" />
        <path
           id="path6429"
           d="m 40.17,434.55 0.76,-0.09 0.82,0.17 0.84,0.43 m 0.01,0.01 67.15,44.52 m 0,0 0.23,0.16 0.23,0.18 0.23,0.2 0.22,0.22 0.22,0.23 0.22,0.25 0.21,0.26 0.2,0.28 m 0,0 14.83,21.04 m 4.22,22.11 -0.1,-0.29 -0.16,-0.79 -0.02,-0.28 m 12.17,12.41 -0.18,0.86 -0.27,0.76 -0.35,0.65 -0.43,0.52 -0.5,0.38 -0.49,0.21 m -13.89,-36.54 1.35,1.84 1.4,1.73 1.43,1.62 1.47,1.5 1.5,1.38 1.52,1.25 1.53,1.12 1.54,0.99 m 4.37,21.73 1.43,-10.07 m -5.8,-11.65 0.51,0.33 0.51,0.38 0.5,0.42 0.49,0.47 0.49,0.51 0.47,0.55 0.46,0.59 0.44,0.62 m 0.02,-0.01 0.52,0.85 0.46,0.93 0.38,0.99 0.3,1.03 0.21,1.04 0.11,1.03 0.02,1 -0.08,0.94 m -7.11,8.66 -0.1,0.47 m -2.74,-15.46 -0.73,5.16 m 0.73,-5.16 0.22,-0.82 0.38,-0.61 0.51,-0.34 0.6,-0.05 0.64,0.24 0.63,0.52 0.57,0.75 0.46,0.92 0.32,1.02 0.15,1.04 -0.04,0.97 m 0.02,-0.01 -1.61,11.36 m 0.73,5.52 0.4,-0.07 0.55,-0.23 0.5,-0.38 0.43,-0.52 0.35,-0.65 0.27,-0.76 0.18,-0.86 m 0,0 1.43,-10.07 m -0.01,0 0.08,-0.94 -0.02,-0.99 -0.11,-1.03 -0.21,-1.04 -0.3,-1.03 -0.38,-0.99 -0.46,-0.93 -0.52,-0.85 m -3.87,-3.85 0.51,0.33 0.51,0.38 0.5,0.42 0.49,0.47 0.49,0.51 0.47,0.55 0.46,0.59 0.44,0.62 m -3.87,-3.87 -1.54,-0.99 -1.53,-1.12 -1.52,-1.25 -1.49,-1.38 -1.47,-1.5 -1.43,-1.62 -1.4,-1.73 -1.35,-1.84 m -14.85,-21.05 14.83,21.04 m -16.59,-22.82 0.23,0.16 0.23,0.18 0.23,0.2 0.22,0.22 0.22,0.23 0.21,0.25 0.21,0.26 0.2,0.28 m -68.9,-46.3 67.15,44.52 m -70.61,-44.4 0.32,-0.28 0.7,-0.35 0.78,-0.09 0.82,0.17 0.84,0.43 m 89.09,86.58 0.04,0.02 0.48,0.39 0.42,0.6 0.31,0.74 0.16,0.79 0.01,0.22 M 36.24,441.72 v 0.39 l 0.12,0.79 0.28,0.76 0.4,0.64 0.47,0.44 m 1.42,0.95 -1.43,-0.95 m 0.58,-8.36 -0.84,-0.43 -0.83,-0.17 -0.76,0.09 m 15.12,14.73 -0.1,0.51 -0.01,0.87 0.16,0.92 0.31,0.89 0.44,0.78 0.53,0.61 0.01,0.01 m 27.52,15.3 v 0.39 l 0.12,0.79 0.28,0.76 0.4,0.64 0.47,0.44 m 1.42,0.95 -1.43,-0.95 m -42.81,-37.13 67.15,44.52 m 2.6,3.2 -0.27,-0.51 -0.29,-0.49 -0.31,-0.46 -0.32,-0.42 -0.34,-0.39 -0.35,-0.35 -0.36,-0.31 -0.36,-0.26 m 13.98,26.28 -11.38,-23.1 m 17.94,40.39 0.08,0.67 0.24,0.78 0.26,0.51 m 9.68,23.89 -0.18,0.86 -0.27,0.76 -0.35,0.65 -0.43,0.52 -0.5,0.38 -0.49,0.21 m -14.6,-46.52 1,1.95 1.05,1.89 1.09,1.82 1.14,1.76 1.18,1.68 1.21,1.6 1.24,1.52 1.27,1.43 m 1.22,1.83 -0.13,-0.26 -0.14,-0.25 -0.15,-0.24 -0.15,-0.24 -0.16,-0.23 -0.16,-0.22 -0.17,-0.2 -0.17,-0.19 m 9.08,19.43 -1.43,10.07 m -6.42,-27.67 0.63,1.26 0.65,1.23 0.67,1.21 0.69,1.18 0.71,1.15 0.73,1.13 0.74,1.1 0.76,1.07 m 0.36,0.47 -0.04,-0.06 -0.04,-0.06 -0.04,-0.06 -0.04,-0.06 -0.04,-0.06 -0.04,-0.06 -0.04,-0.06 -0.04,-0.06 m 0.32,0.48 0.52,0.85 0.46,0.93 0.38,0.99 0.3,1.03 0.21,1.04 0.11,1.03 0.02,0.99 -0.08,0.94 m -13.23,-16.72 -0.38,0.28 -0.25,0.51 -0.1,0.69 0.08,0.78 0.24,0.78 0.37,0.68 0.46,0.5 0.49,0.26 0.46,-0.01 0.38,-0.28 0.25,-0.51 0.1,-0.69 -0.08,-0.78 -0.24,-0.78 -0.37,-0.68 -0.46,-0.5 -0.49,-0.26 -0.46,0.01 m 9.05,9.58 -0.04,-0.06 -0.04,-0.06 -0.04,-0.06 -0.04,-0.06 -0.04,-0.06 -0.04,-0.06 -0.04,-0.06 -0.04,-0.06 m -0.02,0 -0.76,-1.07 -0.74,-1.1 -0.73,-1.13 -0.71,-1.15 -0.69,-1.18 -0.67,-1.21 -0.65,-1.23 -0.63,-1.26 m -0.01,0.01 -0.13,-0.26 -0.14,-0.25 -0.15,-0.24 -0.15,-0.24 -0.16,-0.23 -0.16,-0.21 -0.17,-0.2 -0.17,-0.19 m 0,-0.02 -1.27,-1.43 -1.25,-1.52 -1.21,-1.6 -1.18,-1.68 -1.14,-1.75 -1.09,-1.82 -1.05,-1.89 -1,-1.95 m 0.01,0 -11.38,-23.1 m 0,0.01 -0.27,-0.51 -0.29,-0.49 -0.31,-0.46 -0.32,-0.42 -0.34,-0.39 -0.35,-0.35 -0.36,-0.31 -0.36,-0.26 m -67.14,-44.53 67.15,44.52 m -67.15,-44.52 -0.84,-0.43 -0.83,-0.17 -0.78,0.09 -0.7,0.35 -0.6,0.6 -0.47,0.83 -0.33,1.02 -0.17,1.17 v 1.28 l 0.16,1.34 0.32,1.35 0.46,1.3 0.59,1.21 0.7,1.07 0.77,0.89 0.82,0.67 m 0.02,0 65.64,43.52 m 14.21,28.86 -14.22,-28.86 m 14.22,28.86 1.06,2.26 0.99,2.32 0.92,2.37 0.84,2.41 0.76,2.44 0.68,2.47 0.6,2.48 0.51,2.49 m 4.77,10.24 0.88,0.9 1.14,0.92 1.16,0.68 1.16,0.42 m -9.1,-13.16 0.43,1.87 0.58,1.84 0.03,0.1 m 8.07,9.34 0.63,0.08 0.6,-0.07 0.55,-0.23 0.5,-0.38 0.43,-0.52 0.35,-0.65 0.27,-0.76 0.18,-0.86 m 1.41,-10.06 -1.43,10.07 m 1.43,-10.07 0.08,-0.94 -0.02,-1 -0.11,-1.03 -0.21,-1.04 -0.3,-1.03 -0.38,-0.99 -0.46,-0.93 -0.52,-0.85 m -5.76,0.83 -0.44,3.13 m 4.9,0.5 0.04,-0.97 -0.15,-1.04 -0.32,-1.02 -0.46,-0.92 -0.57,-0.75 -0.63,-0.52 -0.64,-0.24 -0.6,0.05 -0.51,0.34 -0.38,0.61 -0.22,0.82 m 4.44,3.64 -1.61,11.36 m -2.94,1.13 0.57,0.45 0.65,0.24 0.6,-0.05 0.51,-0.34 0.38,-0.61 0.22,-0.82 m -92.98,-102.12 0.49,0.19 0.45,-0.08 0.35,-0.34 0.21,-0.57 0.05,-0.72 -0.12,-0.79 -0.28,-0.76 -0.4,-0.64 -0.47,-0.44 m -0.28,4.15 -2.13,-1.41 m 0.28,-4.15 -0.49,-0.19 -0.45,0.08 -0.35,0.34 -0.22,0.57 -0.05,0.72 0.12,0.79 0.27,0.76 0.4,0.64 0.47,0.44 m 2.44,-2.74 -2.13,-1.41 m 13.85,8.92 -0.46,0.3 -0.33,0.55 -0.18,0.74 -0.01,0.87 0.16,0.92 0.31,0.89 0.44,0.79 0.53,0.61 0.57,0.37 0.56,0.11 0.5,-0.17 0.4,-0.43 0.26,-0.65 0.1,-0.82 -0.07,-0.91 -0.24,-0.92 -0.38,-0.85 -0.49,-0.7 -0.56,-0.49 -0.57,-0.24 -0.54,0.03 m 31.38,25.41 0.49,0.2 0.45,-0.08 0.35,-0.34 0.21,-0.57 0.05,-0.72 -0.12,-0.79 -0.28,-0.76 -0.4,-0.64 -0.47,-0.44 m -0.28,4.14 -2.13,-1.41 m 0.29,-4.15 -0.49,-0.19 -0.45,0.08 -0.35,0.34 -0.22,0.57 -0.05,0.72 0.12,0.79 0.28,0.76 0.4,0.64 0.47,0.44 m 2.42,-2.74 -2.13,-1.41 m 48.58,79.91 0.2,0.18 0.43,0.28 0.43,0.15 0.41,0.01 0.38,-0.13 m -0.01,0.01 0.16,-0.11 0.15,-0.14 0.14,-0.17 0.12,-0.19 0.11,-0.22 0.09,-0.24 0.07,-0.26 0.05,-0.28 m -2.66,-13.36 -0.29,1.26 m -3.81,13.79 -0.19,-0.11 -0.32,-0.2 m 1.88,1 -0.72,-0.33 -0.11,-0.06 m 7.14,-8.48 0.15,-1.8 0.19,-1.88 m 0.01,0 0.07,-0.57 m -3.87,-3.14 -0.12,0.52 m 4.38,2.7 -0.39,-0.07 m -0.01,0 0.11,-0.76 m -3.87,-3.15 -0.11,0.76 m 3.98,2.39 0.03,-0.93 -0.17,-0.99 -0.34,-0.96 -0.48,-0.83 -0.58,-0.62 -0.62,-0.35 -0.6,-0.05 -0.51,0.26 -0.38,0.54 -0.22,0.77 m 0.15,-0.62 0.12,-0.34 0.36,-0.57 0.48,-0.33 0.57,-0.05 0.48,0.16 m -2.55,4.1 -0.02,0.04 m 4.63,-9.52 0.29,-0.55 0.22,-0.47 0.18,-0.39 0.32,-0.79 0.26,-0.8 0.19,-0.8 0.07,-0.4 m 0,0.01 0.51,-3.57 m 0,0 0.21,-0.77 0.36,-0.57 0.48,-0.32 0.57,-0.05 0.61,0.23 0.6,0.49 0.54,0.71 0.44,0.87 0.3,0.96 0.14,0.98 -0.03,0.91 m -0.02,-0.02 -0.51,3.57 m 0,0 -0.12,0.64 -0.17,0.65 -0.22,0.67 -0.26,0.67 -0.29,0.65 -0.32,0.65 -0.35,0.65 -0.37,0.65 -0.25,0.43 -0.11,0.19 m -3.63,7.59 -0.51,2.63 m -0.92,6.49 0.92,-6.49 m 5.5,-8.28 -0.05,0.38 m 30.24,-55.13 -0.35,-0.22 -0.84,-0.47 -0.72,-0.33 m 0.56,0.45 0.46,0.21 0.54,0.3 0.53,0.34 0.45,0.33 0.29,0.27 0.1,0.17 -0.12,0.04 -0.31,-0.09 -0.46,-0.21 -0.54,-0.3 -0.53,-0.34 -0.45,-0.33 -0.29,-0.27 -0.1,-0.17 0.12,-0.04 0.31,0.09 m -78.66,59.5 0.06,-0.35 -0.04,-0.64 -0.19,-0.65 -0.31,-0.56 -0.23,-0.26 m -13.15,5.07 0.05,-0.73 m 0,0 0.01,-0.17 m 0.51,1.82 -0.17,-0.27 m 0,0 -0.4,-0.65 m 0,0 -1.17,0.34 m 1.71,1.03 -0.91,0.27 m 0.44,-2.53 v 0 l -0.02,0.16 m 0,0 v 0.17 l 0.01,0.18 0.02,0.18 0.04,0.18 0.05,0.18 0.07,0.17 0.08,0.16 0.09,0.15 m -0.01,0.01 0.1,0.14 0.08,0.1 m 12.58,-2.41 0.26,-0.14 0.29,-0.42 0.13,-0.62 m 0,-0.02 -0.04,-0.74 -0.21,-0.75 -0.35,-0.67 -0.44,-0.49 -0.47,-0.25 -0.37,0.01 m -11.32,5.63 -0.1,1.45 m -0.01,0 -0.9,0.16 m 0,0 -0.8,-1.29 m 0,0 0.1,-1.45 m 0,0 0.9,-0.16 m 0,0 0.8,1.29 m 2.1,3.5 0.41,-0.2 0.44,-0.49 0.3,-0.7 0.15,-0.87 m 0,-0.01 -0.02,-0.98 -0.18,-1.03 -0.33,-1 -0.46,-0.9 -0.56,-0.75 -0.62,-0.54 -0.64,-0.29 -0.61,-0.03 -0.13,0.03 m 0.81,7.79 0.26,0.09 0.61,0.03 0.54,-0.24 0.44,-0.49 0.3,-0.7 0.15,-0.87 m 0.01,0.01 -0.02,-0.98 -0.18,-1.02 -0.33,-1 -0.46,-0.9 -0.56,-0.75 -0.62,-0.54 -0.64,-0.29 -0.61,-0.03 -0.54,0.24 -0.39,0.41 m 1.7,4.47 -0.04,-0.7 -0.2,-0.72 -0.33,-0.63 -0.42,-0.46 -0.45,-0.23 -0.42,0.03 -0.34,0.29 -0.2,0.51 -0.05,0.66 0.12,0.72 0.27,0.69 0.38,0.56 0.44,0.36 0.44,0.1 0.38,-0.16 0.27,-0.4 0.15,-0.62 m 85.33,-26.38 0.83,1.86 m -0.83,-1.86 -0.08,-0.47 -0.06,-1.45 m 2.35,5.48 0.97,-0.14 m -2.35,-1.56 0.08,0.13 1.3,1.57 m -2.35,-5.47 0.06,-0.55 0.36,-1.53 m 4.36,-0.98 -0.97,0.14 m 0,0 -0.09,0.02 -1.43,0.29 m -1.87,0.53 1.87,-0.55 m -0.9,0.41 -0.09,0.02 -0.88,0.12 m 3.21,4.35 -0.12,0.47 -0.27,0.36 -0.37,0.11 -0.42,-0.15 -0.4,-0.39 -0.32,-0.57 -0.2,-0.66 -0.04,-0.66 0.12,-0.55 0.27,-0.36 0.37,-0.11 0.42,0.15 0.36,0.34 m -0.06,3.34 -0.37,0.01 -0.47,-0.25 -0.44,-0.49 -0.35,-0.67 -0.21,-0.75 -0.04,-0.74 m 0.01,0 0.13,-0.62 0.29,-0.43 0.26,-0.14 m 1.53,5.82 0.09,-0.02 1.43,-0.28 m -1.92,-7.55 -1.52,0.3 m 3.44,7.25 1.87,-0.55 m 0,0 0.15,-0.54 0.26,-1.54 m 0.01,0 0.02,-0.54 -0.15,-1.38 m -2.16,4.55 -0.08,-0.47 -0.06,-1.45 m 0,0 0.06,-0.55 0.36,-1.53 m -4.04,-0.32 0.04,0.74 0.21,0.75 0.35,0.67 0.44,0.49 0.47,0.25 0.44,-0.03 0.35,-0.3 0.21,-0.53 0.05,-0.69 -0.12,-0.76 -0.28,-0.72 -0.4,-0.59 -0.46,-0.37 -0.47,-0.11 -0.4,0.17 -0.29,0.42 -0.14,0.61 m -1.07,-0.71 0.05,-0.44 0.09,-0.4 0.13,-0.36 0.16,-0.32 0.2,-0.26 0.23,-0.2 0.25,-0.15 0.27,-0.08 m -1.38,2.21 -0.01,0.46 0.03,0.48 0.07,0.49 0.11,0.5 0.15,0.49 0.18,0.47 0.21,0.45 0.24,0.42 m -0.01,0.01 0.26,0.38 0.28,0.34 0.29,0.29 0.3,0.23 0.31,0.17 0.31,0.11 0.3,0.05 0.29,-0.02 m 0,0.01 0.27,-0.08 0.25,-0.15 0.23,-0.21 0.2,-0.26 0.16,-0.32 0.13,-0.36 0.09,-0.4 0.05,-0.44 m 0,0 0.01,-0.46 -0.03,-0.48 -0.07,-0.49 -0.11,-0.5 -0.14,-0.49 -0.18,-0.47 -0.21,-0.45 -0.24,-0.42 m 0.01,-0.01 -0.26,-0.38 -0.28,-0.34 -0.29,-0.29 -0.3,-0.23 -0.31,-0.17 -0.31,-0.11 -0.3,-0.05 -0.29,0.02 m 3.72,3.24 1.87,-0.55 m 0,0.01 -0.83,-1.86 m 0.01,0 -0.08,-0.13 -1.3,-1.57 m -1.87,0.55 1.87,-0.55 m -1.05,2.41 -0.08,-0.13 -0.75,-1.73 m 2.21,3.55 -1.38,-1.7 m 81.22,-158.29 -0.38,-0.29 -0.46,-0.3 -0.47,-0.26 -0.41,-0.19 -0.28,-0.09 -0.12,0.03 0.07,0.14 0.24,0.23 0.38,0.29 0.46,0.3 0.47,0.26 0.41,0.19 0.28,0.09 0.11,-0.03 -0.07,-0.14 -0.23,-0.23 M 176.9,459.76 v 0.01 l 0.07,0.14 0.24,0.23 0.38,0.29 0.46,0.3 0.47,0.26 0.41,0.19 0.28,0.09 0.11,-0.02 m -139.15,-26.7 -2.26,0.66 m 100.07,104.4 2.26,-0.66 M 35.66,435.87 33.4,436.53 m 98.16,117.85 2.26,-0.66 m -4.69,-3.19 0.67,-0.2 m -8.68,-3.52 -0.23,0.48 -0.09,0.45 0.01,0.35 0.06,0.26 0.4,0.58 0.71,0.6 0.47,0.33 0.51,0.34 0.08,0.05 m 0,0 0.46,0.28 0.53,0.29 0.92,0.41 m -0.01,0 0.09,0.04 0.46,0.13 0.48,0.01 0.28,-0.08 0.31,-0.17 0.32,-0.28 0.28,-0.37 m 2.26,-18.34 -0.44,0.13 m -1.02,1.26 -0.07,0.24 m -0.5,2.76 -6.28,10.25 m 5.99,3.8 0.86,-1.4 m 7.88,-31.8 -0.67,0.2 m 30.66,-30.26 1.4,-2.44 0.91,-1.9 0.4,-1.18 0.06,-0.38 -0.01,-0.29 -0.18,-0.45 -0.4,-0.44 -0.65,-0.49 -0.76,-0.5 -0.13,-0.08 m -1.64,-0.8 -0.16,-0.06 -0.41,-0.04 -0.24,0.07 -0.29,0.17 -0.38,0.3 -0.49,0.49 -0.85,1.03 -1.07,1.48 -1.17,1.81 m -15.86,39.51 21.92,-35.81 m -5.98,-3.8 -19.61,32.03 m -54.12,20.21 -0.26,-0.23 m 0.89,3.02 0.09,-0.33 m -1.89,-3 -9.12,2.67 m 1.18,4.08 9.12,-2.66 m -12.69,-2.72 -0.43,0.13 m 2.27,7.75 0.43,-0.12 m -3.5,-7.02 -0.49,0.92 -0.28,1.01 -0.05,1.05 0.18,1.03 0.4,0.97 0.61,0.85 0.78,0.7 0.91,0.51 m 92.47,-26.78 0.09,-0.01 0.6,-0.33 0.46,-0.48 0.33,-0.62 0.2,-0.77 0.04,-0.9 -0.12,-0.94 -0.28,-0.92 -0.42,-0.86 -0.55,-0.74 -0.69,-0.58 -0.65,-0.3 -0.66,-0.09 -0.49,0.09 m 1.27,7.72 0.89,-0.26 m -2.19,-7.48 -1.77,0.52 M 241.96,353.5 176.9,459.76 m 2.42,1.48 65.05,-106.26"
           class="st5"
           inkscape:connector-curvature="0"
           style="fill:none;stroke:#000000;stroke-width:0.70899999;stroke-linecap:round;stroke-linejoin:round;stroke-miterlimit:10" />
        <line
           id="line6431"
           y2="460.69"
           x2="178"
           y1="479.75"
           x1="166.33"
           class="st8"
           style="fill:none;stroke:#000000;stroke-width:0.50999999;stroke-linecap:round;stroke-linejoin:round;stroke-miterlimit:10;stroke-dasharray:18, 3.6, 3.6, 3.6, 3.6, 3.6;stroke-dashoffset:15" />
        <line
           id="line6433"
           y2="514.78003"
           x2="162.61"
           y1="519.60999"
           x1="146.08"
           class="st9"
           style="fill:none;stroke:#000000;stroke-width:0.50999999;stroke-linecap:round;stroke-linejoin:round;stroke-miterlimit:10;stroke-dasharray:18, 3.6, 3.6, 3.6, 3.6, 3.6" />
        <line
           id="line6435"
           y2="536.92999"
           x2="86.779999"
           y1="525.41998"
           x1="126.18"
           class="st10"
           style="fill:none;stroke:#000000;stroke-width:0.50999999;stroke-linecap:round;stroke-linejoin:round;stroke-miterlimit:10;stroke-dasharray:18, 3.6, 3.6, 3.6, 3.6, 3.6;stroke-dashoffset:6" />
        <path
           id="path6437"
           d="m 105.76,95.96 -0.46,-0.35 -0.41,-0.57 -0.31,-0.73 -0.17,-0.79 -0.01,-0.76 0.01,-0.08 m 2.35,3.76 -1,-0.48 m -1.8,-9.06 0.11,-0.03 0.76,-0.01 0.79,0.26 m 13.75,15.99 -0.01,-0.02 -0.48,-0.67 -0.38,-0.83 m -0.02,0.01 -0.25,-0.92 -0.1,-0.92 0.06,-0.85 0.04,-0.19 m 28.91,17.15 -0.46,-0.35 -0.41,-0.58 -0.31,-0.73 -0.17,-0.79 -0.01,-0.76 0.01,-0.08 m 2.34,3.77 -1,-0.48 m -41.51,-28.75 64.03,30.82 m 0,0 0.22,0.12 0.22,0.14 0.22,0.15 0.22,0.17 0.22,0.19 0.21,0.21 0.21,0.23 0.21,0.24 m 0,0 15.04,18.47 m 5.53,21.98 -0.09,-0.22 -0.21,-0.79 -0.04,-0.27 m 6.16,10.59 -0.05,-0.04 -0.57,-0.65 -0.49,-0.85 -0.37,-0.99 -0.21,-1.04 -0.04,-1.02 m 0.54,-12.2 -0.54,12.2 m -9.62,-26.7 1.37,1.6 1.4,1.48 1.42,1.35 1.44,1.23 1.46,1.09 1.47,0.95 1.47,0.82 1.47,0.67 m 5.65,21.61 -0.09,0.94 -0.18,0.86 -0.26,0.76 -0.35,0.64 -0.42,0.51 -0.48,0.37 -0.51,0.21 m -4.7,-20.59 0.13,-0.9 0.11,-0.34 m 1.08,-4.07 0.49,0.22 0.49,0.27 0.49,0.32 0.48,0.37 0.48,0.42 0.47,0.46 0.46,0.5 0.45,0.54 m 0,0.02 0.54,0.77 0.49,0.86 0.42,0.94 0.35,1 0.27,1.03 0.18,1.04 0.1,1.03 v 0.99 m -0.49,10.83 0.48,-10.81 m -6.04,10.06 -0.13,0.9 -0.29,0.72 -0.43,0.48 -0.54,0.2 -0.6,-0.1 -0.61,-0.39 -0.57,-0.65 -0.49,-0.85 -0.37,-0.99 -0.21,-1.04 -0.04,-1.01 m 0.53,-12.22 -0.54,12.2 m 0.54,-12.2 0.13,-0.9 0.29,-0.72 0.43,-0.48 0.54,-0.2 0.6,0.1 0.61,0.39 0.57,0.65 0.49,0.85 0.37,0.99 0.21,1.04 0.04,1.02 m 0.02,0.01 -0.54,12.2 m -31.38,-36.52 13.17,16.17 m -0.01,0 1.18,1.51 1.15,1.6 1.12,1.68 1.08,1.75 1.04,1.82 0.99,1.89 0.95,1.95 0.9,2 m 0.47,0.94 -0.06,-0.11 -0.06,-0.11 -0.06,-0.11 -0.06,-0.12 -0.06,-0.12 -0.06,-0.12 -0.05,-0.12 -0.05,-0.12 m 0.46,0.93 0.28,0.49 0.28,0.49 0.27,0.5 0.27,0.51 0.27,0.51 0.26,0.51 0.26,0.52 0.26,0.52 m 7.54,6.84 -0.99,-0.15 -1.01,-0.37 -1.01,-0.59 -1,-0.8 -0.97,-0.99 -0.92,-1.17 -0.86,-1.32 -0.78,-1.46 m 7.54,6.85 0.57,-0.06 0.53,-0.21 0.48,-0.36 0.42,-0.51 0.35,-0.64 0.27,-0.76 0.18,-0.86 0.09,-0.94 m -0.01,0.01 0.48,-10.81 m 0,-0.01 v -0.99 l -0.1,-1.03 -0.18,-1.04 -0.27,-1.03 -0.35,-1 -0.42,-0.94 -0.48,-0.86 -0.54,-0.76 m -3.81,-3.14 0.49,0.22 0.49,0.27 0.49,0.32 0.48,0.37 0.48,0.42 0.47,0.46 0.46,0.5 0.45,0.55 m -3.81,-3.11 -1.47,-0.67 -1.47,-0.82 -1.47,-0.96 -1.46,-1.09 -1.44,-1.23 -1.42,-1.36 -1.4,-1.48 -1.37,-1.6 m -15.02,-18.45 15.04,18.47 m -16.77,-19.92 0.22,0.12 0.22,0.14 0.22,0.16 0.22,0.17 0.22,0.19 0.21,0.21 0.21,0.23 0.21,0.24 m -65.76,-32.28 64.03,30.82 m -63.82,-17.53 -0.79,-0.51 -0.77,-0.75 -0.71,-0.95 -0.63,-1.12 -0.52,-1.25 -0.39,-1.33 -0.25,-1.36 -0.1,-1.33 0.06,-1.26 0.21,-1.14 0.36,-0.97 0.49,-0.76 0.6,-0.53 0.69,-0.28 0.76,-0.01 0.79,0.25 m 0.2,13.3 63.13,30.39 m -50.48,-29.21 -0.25,-0.92 -0.1,-0.92 0.06,-0.84 0.22,-0.69 0.36,-0.48 0.46,-0.22 0.53,0.05 0.55,0.32 0.51,0.56 0.44,0.76 0.32,0.88 0.18,0.93 0.02,0.89 -0.14,0.78 -0.29,0.59 -0.42,0.36 -0.5,0.09 -0.54,-0.19 -0.54,-0.45 -0.48,-0.67 -0.39,-0.83 m -12.72,-5.64 -0.46,-0.35 -0.41,-0.58 -0.31,-0.73 -0.17,-0.79 -0.01,-0.76 0.15,-0.64 0.29,-0.44 0.4,-0.19 0.46,0.09 m 2.02,0.99 -2.03,-0.98 m 2.03,0.98 0.46,0.35 0.41,0.58 0.31,0.73 0.17,0.79 0.01,0.76 -0.14,0.64 -0.29,0.44 -0.4,0.19 -0.46,-0.09 m 0,-0.01 -2.03,-0.98 m 41.38,19.92 -0.46,-0.35 -0.41,-0.57 -0.31,-0.73 -0.17,-0.79 -0.01,-0.76 0.15,-0.64 0.29,-0.44 0.4,-0.19 0.46,0.09 m 2.02,0.97 -2.03,-0.98 m 2.03,0.98 0.46,0.35 0.41,0.57 0.31,0.73 0.17,0.79 0.01,0.76 -0.15,0.64 -0.29,0.44 -0.4,0.19 -0.46,-0.09 m 0.01,0.01 -2.03,-0.98 m 44.72,43.75 -0.21,-0.79 -0.05,-0.78 0.11,-0.68 0.26,-0.49 0.38,-0.25 0.45,0.02 0.46,0.29 0.43,0.53 0.34,0.7 0.21,0.79 0.05,0.78 -0.11,0.68 -0.26,0.49 -0.38,0.25 -0.45,-0.02 -0.47,-0.29 -0.43,-0.53 -0.33,-0.7 m -166.31,80.85 -0.01,0.08 0.01,0.76 0.17,0.79 0.31,0.73 0.41,0.58 0.46,0.35 m 1,0.48 -1,-0.48 m -0.14,-8.84 -0.79,-0.25 -0.76,0.01 -0.11,0.02 m 14.28,11.82 v 0 l -0.1,0.82 0.06,0.91 0.22,0.93 0.35,0.86 0.46,0.71 0.14,0.17 m 26.42,9.47 -0.01,0.08 0.01,0.76 0.17,0.79 0.31,0.73 0.41,0.57 0.46,0.35 m 1,0.49 -1,-0.48 m -41.52,-28.76 64.03,30.82 m 2.59,2.72 -0.28,-0.47 -0.3,-0.44 -0.31,-0.4 -0.33,-0.37 -0.33,-0.33 -0.34,-0.28 -0.35,-0.24 -0.35,-0.19 m 14.68,24.14 -12.09,-21.41 m 23.15,58.34 0.04,1.02 0.21,1.04 0.37,0.99 0.49,0.85 0.58,0.65 0.05,0.04 m -5.5,-25.04 0.12,0.67 0.21,0.61 m -7.63,-17.76 1.05,1.8 1.09,1.72 1.13,1.65 1.16,1.56 1.19,1.48 1.22,1.39 1.24,1.29 1.26,1.19 m 2.27,12.64 -0.54,12.2 m -0.46,-23.22 -0.14,-0.24 -0.15,-0.23 -0.15,-0.22 -0.16,-0.21 -0.16,-0.2 -0.16,-0.19 -0.17,-0.17 -0.17,-0.16 m 9.25,28.94 -0.09,0.94 -0.18,0.86 -0.26,0.76 -0.35,0.64 -0.42,0.51 -0.48,0.37 -0.51,0.21 m -4.46,-21.83 -0.11,0.34 -0.13,0.9 m -1,-11.02 0.67,1.16 0.69,1.13 0.7,1.1 0.72,1.07 0.73,1.04 0.75,1 0.76,0.97 0.77,0.93 m 0.34,0.43 -0.04,-0.05 -0.04,-0.05 -0.04,-0.05 -0.04,-0.05 -0.04,-0.05 -0.04,-0.05 -0.04,-0.05 -0.04,-0.05 m 0.32,0.4 0.54,0.77 0.49,0.86 0.42,0.94 0.35,1 0.27,1.03 0.18,1.04 0.1,1.03 v 1 m -0.01,0.01 -0.48,10.81 m -13.09,-25.77 -0.32,0.38 -0.19,0.59 -0.03,0.74 0.13,0.79 0.28,0.75 0.39,0.62 0.45,0.42 0.46,0.16 0.42,-0.11 0.32,-0.38 0.19,-0.59 0.03,-0.74 -0.13,-0.79 -0.28,-0.75 -0.39,-0.62 -0.45,-0.42 -0.46,-0.16 -0.42,0.11 m 8.91,7.88 -0.04,-0.05 -0.04,-0.05 -0.04,-0.05 -0.04,-0.05 -0.04,-0.05 -0.04,-0.05 -0.04,-0.05 -0.04,-0.05 m -0.03,-0.02 -0.77,-0.93 -0.76,-0.97 -0.74,-1 -0.73,-1.04 -0.72,-1.07 -0.7,-1.1 -0.69,-1.13 -0.67,-1.16 m 0,-0.01 -0.14,-0.24 -0.15,-0.23 -0.15,-0.22 -0.16,-0.21 -0.16,-0.2 -0.16,-0.19 -0.17,-0.17 -0.17,-0.16 m 0.01,-0.01 -1.26,-1.2 -1.24,-1.29 -1.22,-1.39 -1.19,-1.48 -1.16,-1.56 -1.13,-1.65 -1.09,-1.72 -1.05,-1.8 m -0.02,0.01 -12.09,-21.41 m 0,0 -0.28,-0.47 -0.3,-0.44 -0.31,-0.4 -0.33,-0.37 -0.33,-0.33 -0.34,-0.28 -0.35,-0.24 -0.35,-0.19 m -64.03,-30.82 64.03,30.82 m -64.03,-30.82 -0.79,-0.25 -0.76,0.01 -0.69,0.28 -0.6,0.53 -0.49,0.76 -0.36,0.97 -0.21,1.13 -0.06,1.26 0.1,1.33 0.25,1.36 0.39,1.33 0.52,1.25 0.63,1.12 0.71,0.95 0.77,0.74 0.79,0.51 m 0.01,0.01 62.59,30.12 m 15.11,26.76 -15.11,-26.76 m 15.11,26.76 1.14,2.11 1.08,2.18 1.02,2.25 0.95,2.32 0.88,2.37 0.81,2.41 0.73,2.45 0.66,2.48 m 0,-0.01 0.53,1.85 0.67,1.78 0.79,1.67 0.89,1.53 0.97,1.36 1.04,1.16 1.08,0.94 1.1,0.69 1.1,0.44 1.08,0.17 m 0,-0.01 0.57,-0.06 0.53,-0.21 0.48,-0.37 0.42,-0.51 0.35,-0.64 0.27,-0.76 0.18,-0.86 0.09,-0.94 m 0.47,-10.8 -0.48,10.81 m 0.48,-10.81 v -1 l -0.1,-1.03 -0.18,-1.05 -0.27,-1.03 -0.35,-1 -0.42,-0.94 -0.49,-0.86 -0.54,-0.76 m -5.12,2.19 -0.54,12.2 m 4.84,-9.46 -0.04,-1.01 -0.22,-1.04 -0.37,-0.99 -0.49,-0.85 -0.58,-0.65 -0.61,-0.39 -0.6,-0.1 -0.54,0.2 -0.43,0.48 -0.29,0.72 -0.13,0.9 m 4.3,2.73 -0.55,12.2 m -4.3,-2.74 0.04,1.01 0.21,1.04 0.37,0.99 0.49,0.85 0.58,0.65 0.61,0.39 0.6,0.1 0.54,-0.2 0.43,-0.48 0.29,-0.72 0.13,-0.9 m -91.88,-84.79 0.46,0.09 0.4,-0.19 0.29,-0.44 0.15,-0.64 -0.02,-0.76 -0.17,-0.79 -0.31,-0.73 -0.41,-0.57 -0.46,-0.35 m 0.07,4.38 -2.03,-0.98 m -0.08,-4.39 -0.46,-0.09 -0.4,0.19 -0.29,0.44 -0.15,0.64 0.01,0.76 0.17,0.79 0.31,0.73 0.41,0.57 0.46,0.35 m 1.98,-3.4 -2.03,-0.98 m 13.18,6.09 -0.38,0.42 -0.26,0.65 -0.1,0.81 0.06,0.91 0.22,0.92 0.35,0.86 0.46,0.71 0.53,0.51 0.55,0.26 0.51,-0.02 0.44,-0.29 0.32,-0.54 0.18,-0.74 0.02,-0.87 -0.14,-0.93 -0.29,-0.9 -0.41,-0.8 -0.5,-0.62 -0.54,-0.39 -0.54,-0.12 -0.48,0.17 m 30.3,19.19 0.46,0.09 0.4,-0.19 0.29,-0.44 0.15,-0.64 -0.01,-0.76 -0.17,-0.79 -0.31,-0.73 -0.41,-0.58 -0.46,-0.35 m 0.06,4.39 -2.03,-0.98 m -0.08,-4.38 -0.46,-0.09 -0.4,0.19 -0.29,0.44 -0.15,0.64 0.01,0.76 0.17,0.79 0.31,0.73 0.41,0.58 0.46,0.35 m 1.98,-3.41 -2.03,-0.98 m 87.34,6.94 0.34,-0.16 0.41,-0.45 0.28,-0.68 0.12,-0.85 m -5.07,2.01 0.18,0.19 0.4,0.32 0.41,0.19 0.4,0.06 0.37,-0.08 0.33,-0.22 m -2.8,-15.18 -0.11,0.93 m 2.9,14.25 0.14,-0.15 0.12,-0.18 0.11,-0.2 0.09,-0.23 0.08,-0.25 0.06,-0.27 0.04,-0.29 0.02,-0.3 m 7.45,-16.33 -0.11,0.78 -0.06,0.2 m 0.21,-1.79 -0.04,0.81 m -0.03,-0.65 0.07,-0.16 m 0.07,-0.57 -0.07,0.56 m -1.25,3.12 0.34,-0.16 0.41,-0.45 0.28,-0.68 0.12,-0.85 m 0.46,-5.28 -0.06,1.88 -0.22,1.87 m -2.4,4.97 -0.12,0.85 -0.26,0.65 m -4.45,0.34 0.02,-0.6 m -3.74,-2.38 -0.07,0.56 m 4.2,1.86 -0.4,-0.04 m -0.03,4.52 -0.01,-1.93 0.03,-1.99 m 0.02,-0.6 0.04,-0.81 m -3.74,-2.38 -0.04,0.81 m 3.77,1.57 -0.04,-0.88 -0.19,-0.91 -0.32,-0.86 -0.43,-0.74 -0.5,-0.56 -0.53,-0.34 -0.52,-0.09 -0.47,0.17 -0.38,0.41 -0.26,0.62 -0.11,0.79 m 0.27,-1.23 0.21,-0.46 0.41,-0.45 0.51,-0.18 0.57,0.1 0.58,0.37 0.54,0.61 0.46,0.8 0.35,0.93 0.2,0.98 0.04,0.96 m -1.88,-4.99 0.05,-1.03 m 3.93,5.48 -0.04,-0.96 -0.2,-0.98 -0.35,-0.93 -0.46,-0.8 -0.54,-0.61 -0.58,-0.37 -0.57,-0.1 -0.17,0.03 m 5.28,-15.63 0.17,-0.03 0.57,0.1 0.58,0.37 0.54,0.61 0.46,0.8 0.35,0.93 0.2,0.98 0.04,0.96 m -8.76,8.52 0.85,-1.83 0.42,-0.97 0.19,-0.49 0.15,-0.41 0.25,-0.83 0.19,-0.85 0.12,-0.86 0.03,-0.43 m -2.65,8.3 0.12,-0.85 0.28,-0.68 0.41,-0.45 0.51,-0.18 0.57,0.1 0.58,0.37 0.54,0.61 0.46,0.81 0.35,0.93 0.2,0.99 0.04,0.96 m -1.4,-10.92 0.17,-3.83 m 0,0 0.12,-0.85 0.28,-0.68 0.41,-0.45 0.51,-0.18 0.57,0.1 0.58,0.37 0.54,0.61 0.46,0.8 0.35,0.93 0.2,0.99 0.04,0.96 m 1.58,10.84 0.05,-0.6 m 0,0 0.38,-3.87 m 0.31,-6.98 -0.31,6.97 m -2.01,-6.37 -0.17,3.83 m 0,0 -0.06,0.68 -0.11,0.7 -0.16,0.71 -0.21,0.72 -0.24,0.69 -0.28,0.69 -0.31,0.68 -0.32,0.68 -0.22,0.46 -0.41,0.92 -0.17,0.47 -0.07,0.22 -0.09,0.46 -0.02,0.23 m 0,0 -0.13,2.9 m -2.08,0.53 -0.04,0.81 m 0,0 -0.05,0.6 m 0,0.01 -0.38,3.87 m -0.31,6.97 0.31,-6.97 m 2.01,6.37 0.17,-3.83 m 0,0 0.17,-1.38 0.37,-1.43 0.52,-1.38 0.63,-1.36 0.43,-0.92 0.37,-0.94 0.12,-0.45 0.06,-0.46 m 0.13,-2.88 -0.13,2.9 m 2.21,-3.44 0.04,-0.81 m 23.28,-56.02 0.5,0.23 0.56,0.28 0.54,0.3 0.44,0.26 0.27,0.19 0.06,0.09 -0.16,-0.02 -0.35,-0.14 -0.49,-0.23 -0.56,-0.28 -0.54,-0.29 -0.44,-0.26 -0.27,-0.19 -0.06,-0.09 0.16,0.02 0.34,0.13 M 103.96,86.9 l -2.32,0.6 m 97.32,86.03 2.32,-0.6 m -178.5,62.37 -2.32,0.6 m 96.68,100.47 2.32,-0.6 m 27.52,-68.46 0.09,-0.05 0.19,-0.03 v 0 m 1.34,0.8 2.32,-0.6 m 6.02,-16.64 0.09,-0.25 m -2.08,1.58 1.03,-0.26 m -15.48,12.56 -0.19,0.5 -0.06,0.44 0.03,0.33 0.08,0.23 0.41,0.46 0.74,0.49 0.49,0.28 0.53,0.29 0.54,0.29 0.54,0.27 0.51,0.24 0.36,0.15 m 0,-0.01 0.11,0.05 0.85,0.23 0.3,-0.04 0.35,-0.15 0.38,-0.31 0.32,-0.46 m 7.66,-12.91 v 0 l 0.09,-0.16 m -4.84,-6.26 -2.09,0.54 m -0.96,1.06 -0.08,0.25 m 8.42,-17.48 -2.32,0.6 m -6.27,19.75 -5.89,11.33 m 6.28,3.27 0.38,-0.73 m 1.97,-20.99 v 0 l -0.09,0.16 m 31.03,-53.38 -0.27,-0.12 m 1.45,8.76 1.23,-2.54 0.78,-1.96 0.33,-1.19 0.04,-0.36 -0.01,-0.26 -0.06,-0.19 -0.1,-0.17 -0.37,-0.33 -0.27,-0.16 m -3.03,-1.59 -0.11,-0.05 -0.41,-0.1 -0.24,0.04 -0.28,0.13 -0.36,0.27 -0.46,0.48 -0.82,1.07 -1.03,1.62 -1.11,2.01 m -17.57,49.15 23.85,-45.87 m -6.28,-3.27 -18.3,35.2"
           class="st5"
           inkscape:connector-curvature="0"
           style="fill:none;stroke:#000000;stroke-width:0.70899999;stroke-linecap:round;stroke-linejoin:round;stroke-miterlimit:10" />
        <line
           id="line6439"
           y2="150.92999"
           x2="196.56"
           y1="233.36"
           x1="153.7"
           class="st7"
           style="fill:none;stroke:#000000;stroke-width:0.50999999;stroke-linecap:round;stroke-linejoin:round;stroke-miterlimit:10;stroke-dasharray:18, 3.6, 3.6, 3.6, 3.6, 3.6;stroke-dashoffset:-1" />
        <line
           id="line6441"
           y2="309.70999"
           x2="116.85"
           y1="248.99001"
           x1="148.42"
           class="st11"
           style="fill:none;stroke:#000000;stroke-width:0.50999999;stroke-linecap:round;stroke-linejoin:round;stroke-miterlimit:10;stroke-dasharray:18, 3.6, 3.6, 3.6, 3.6, 3.6;stroke-dashoffset:10" />
        <path
           id="path6443"
           d="m 745.33,419.75 -0.06,-0.03 -1.06,-0.24 -1.17,0.14 -1.21,0.52 m -78.78,45.88 -0.27,0.17 -0.27,0.19 -0.27,0.2 -0.26,0.22 -0.26,0.23 -0.25,0.25 -0.25,0.26 -0.24,0.28 m 80.85,-47.68 -78.79,45.88 m -2.06,1.8 -17.49,20.89 m -17.19,35.5 -0.5,-0.3 -0.5,-0.48 -0.41,-0.61 -0.3,-0.72 -0.2,-0.82 m 5.29,-21.05 1.81,-1.02 1.8,-1.15 1.78,-1.27 1.76,-1.4 1.73,-1.51 1.69,-1.62 1.64,-1.73 1.6,-1.83 m -19.09,32.59 -1.58,-9.6 m 6.86,-11.46 -0.6,0.34 -0.6,0.38 -0.59,0.43 -0.58,0.47 -0.57,0.51 -0.56,0.55 -0.54,0.59 -0.52,0.62 m -2.31,7.57 -0.09,-0.9 0.03,-0.96 0.14,-0.99 0.25,-1.01 0.36,-1 0.45,-0.97 0.54,-0.91 0.61,-0.84 m 8.74,1.47 0.87,5.25 m -6.1,-1.56 1.78,10.75 m 3.45,-14.44 -0.33,-0.92 -0.6,-0.59 -0.81,-0.18 -0.91,0.24 -0.91,0.64 -0.8,0.96 -0.58,1.17 -0.3,1.23 0.01,1.14 m 13.08,3.72 0.13,-0.22 m 0,0 0.07,-0.12 0.07,-0.12 0.07,-0.12 0.07,-0.12 0.06,-0.12 0.06,-0.12 0.06,-0.12 0.06,-0.13 m 0,-0.01 0.34,-0.74 m 105.55,-89.68 -0.08,-0.08 -0.88,-0.62 -1.06,-0.25 -1.17,0.14 -1.21,0.52 m 0,0.01 -78.79,45.88 m 0.01,0 -0.27,0.17 -0.27,0.18 -0.27,0.2 -0.26,0.22 -0.26,0.23 -0.25,0.25 -0.25,0.26 -0.24,0.28 m -0.01,0 -17.5,20.89 m 0.01,0 -1.59,1.83 -1.65,1.73 -1.69,1.62 -1.73,1.51 -1.76,1.4 -1.78,1.28 -1.8,1.15 -1.81,1.02 m 0.01,-0.01 -0.6,0.34 -0.6,0.39 -0.59,0.43 -0.58,0.47 -0.57,0.51 -0.56,0.55 -0.54,0.58 -0.52,0.62 m -0.01,0 -0.61,0.84 -0.54,0.91 -0.45,0.97 -0.36,1 -0.25,1.01 -0.14,0.99 -0.03,0.96 0.08,0.9 m 1.58,9.58 -1.58,-9.59 m 1.58,9.59 0.2,0.82 0.31,0.72 0.41,0.61 0.5,0.48 0.58,0.34 0.46,0.15 m 9.58,-16.53 -0.4,0.47 -0.42,0.81 -0.05,0.16 m 106.57,-78.89 2.31,-1.35 m 1.51,-2.9 -0.07,0.8 -0.31,0.85 -0.5,0.74 -0.62,0.52 m -0.62,-8 1.21,-0.52 1.17,-0.14 1.06,0.24 0.06,0.03 m -18.42,14.68 0.13,0.84 -0.13,1.02 -0.39,1.03 -0.6,0.91 -0.74,0.69 -0.55,0.3 m -35.41,19.91 2.31,-1.35 m 1.5,-2.9 -0.07,0.8 -0.31,0.85 -0.5,0.74 -0.62,0.52 m -31.54,11.42 0.32,-0.51 0.34,-0.48 0.36,-0.45 0.38,-0.42 0.4,-0.39 0.41,-0.35 0.42,-0.31 0.42,-0.27 m -34.63,71 -0.5,-0.3 -0.5,-0.48 -0.41,-0.61 -0.31,-0.72 -0.2,-0.82 M 745.83,422.03 667.04,467.91 M 650.52,493.8 664,471.1 m -21.29,39.37 -0.01,0.39 -0.2,0.86 -0.42,0.81 -0.58,0.63 -0.1,0.08 m -3.17,-4.1 0.16,-0.26 0.17,-0.25 0.17,-0.24 0.18,-0.23 0.19,-0.22 0.19,-0.21 0.2,-0.2 0.2,-0.19 m -0.01,-0.02 1.5,-1.43 1.47,-1.52 1.43,-1.59 1.39,-1.67 1.34,-1.74 1.29,-1.8 1.24,-1.86 1.18,-1.91 m -21.6,32.6 1.59,9.6 m 0.72,-17.18 0.05,-0.06 0.05,-0.06 0.05,-0.06 0.05,-0.06 0.05,-0.06 0.05,-0.06 0.05,-0.06 0.05,-0.06 m -2.71,8.06 -0.08,-0.9 0.03,-0.96 0.14,-0.99 0.25,-1.01 0.36,-1 0.45,-0.97 0.54,-0.91 0.61,-0.84 m 0.41,-0.48 0.9,-1.06 0.88,-1.09 0.86,-1.11 0.84,-1.14 0.82,-1.17 0.79,-1.19 0.77,-1.21 0.75,-1.24 m 5.63,1.02 0.49,0.3 0.29,0.58 0.05,0.78 -0.2,0.86 -0.42,0.81 -0.58,0.63 -0.65,0.36 -0.61,0.04 -0.49,-0.3 -0.29,-0.58 -0.05,-0.78 0.2,-0.86 0.42,-0.81 0.58,-0.63 0.65,-0.36 0.61,-0.04 m -3.92,10.14 0.59,3.59 m -1.25,12.31 -0.13,0.07 -0.91,0.24 -0.81,-0.18 -0.6,-0.59 -0.33,-0.92 m -1.79,-10.83 1.79,10.83 m -1.79,-10.83 -0.01,-1.15 0.3,-1.23 0.59,-1.16 0.79,-0.96 0.91,-0.64 0.91,-0.24 0.81,0.18 0.6,0.59 0.33,0.92 m 12.56,-25.55 13.48,-22.7 m -13.48,22.7 -1.18,1.92 -1.24,1.86 -1.29,1.8 -1.34,1.74 -1.39,1.67 -1.43,1.59 -1.47,1.52 -1.5,1.43 m -1.44,1.81 0.16,-0.26 0.17,-0.25 0.17,-0.24 0.18,-0.23 0.19,-0.22 0.19,-0.21 0.2,-0.2 0.2,-0.19 m -1.46,1.8 -0.75,1.23 -0.77,1.21 -0.8,1.19 -0.82,1.17 -0.84,1.14 -0.86,1.12 -0.88,1.09 -0.9,1.06 m -0.39,0.48 0.05,-0.06 0.05,-0.06 0.05,-0.06 0.05,-0.06 0.05,-0.06 0.05,-0.06 0.05,-0.06 0.05,-0.06 m -0.4,0.48 -0.61,0.84 -0.54,0.91 -0.45,0.97 -0.36,1 -0.25,1.01 -0.14,0.99 -0.03,0.96 0.09,0.9 m -0.01,-0.01 1.58,9.6 m 0.01,0 0.2,0.82 0.3,0.72 0.41,0.61 0.5,0.48 0.58,0.34 0.65,0.19 0.7,0.04 0.73,-0.11 m 4.3,-2.3 -0.91,0.69 -1.7,0.99 -1.7,0.61 m 10.74,-13.04 -0.67,2.27 -0.94,2.21 -0.45,0.87 m 2.06,-5.35 0.61,-2.41 0.72,-2.41 0.82,-2.4 0.91,-2.38 1,-2.35 1.09,-2.32 1.18,-2.27 1.26,-2.22 m 0,-0.01 16.84,-28.36 M 748.75,435 671.74,479.85 m 76.09,-56.87 1.21,-0.52 1.17,-0.14 1.06,0.24 0.88,0.62 0.66,0.96 0.4,1.24 0.11,1.45 -0.18,1.57 -0.46,1.61 -0.72,1.55 -0.93,1.4 -1.09,1.17 -1.18,0.87 m -0.93,-12.02 -78.79,45.88 m -3.05,3.18 0.32,-0.51 0.34,-0.48 0.36,-0.45 0.38,-0.42 0.4,-0.39 0.41,-0.35 0.42,-0.31 0.42,-0.27 m 76.9,-36.43 -0.64,0.22 -0.57,-0.12 -0.41,-0.43 -0.18,-0.69 0.07,-0.83 0.31,-0.85 0.5,-0.74 0.62,-0.52 m 0,-0.01 2.5,-1.46 m 0,0 0.64,-0.22 0.57,0.12 0.41,0.43 0.18,0.69 -0.07,0.83 -0.31,0.85 -0.5,0.74 -0.62,0.52 m -2.5,1.47 2.5,-1.46 m -16.55,5.25 0.61,0.34 0.4,0.65 0.14,0.89 -0.13,1.02 -0.39,1.03 -0.6,0.91 -0.73,0.69 -0.79,0.38 -0.74,0.02 -0.61,-0.34 -0.4,-0.65 -0.14,-0.89 0.13,-1.02 0.39,-1.03 0.6,-0.91 0.74,-0.69 0.79,-0.38 0.73,-0.02 m -36.86,25.86 -0.64,0.22 -0.57,-0.12 -0.41,-0.43 -0.18,-0.69 0.07,-0.83 0.31,-0.85 0.5,-0.74 0.62,-0.52 m -0.01,-0.01 2.5,-1.46 m 0.01,0 0.64,-0.22 0.57,0.12 0.41,0.43 0.18,0.69 -0.07,0.83 -0.31,0.85 -0.5,0.74 -0.62,0.52 m -2.5,1.47 2.5,-1.46 m -59.85,75.57 0.44,0.1 0.48,-0.03 0.5,-0.16 0.12,-0.06 m -2.56,-1.34 0.06,0.27 0.08,0.25 0.1,0.23 0.12,0.2 0.14,0.18 0.16,0.15 0.17,0.12 0.19,0.1 m 2.15,-14.64 0.07,0.33 m -0.18,-0.87 0.11,0.54 m 0.48,1.91 -0.01,-0.08 -0.43,-1.64 m -0.26,-1.45 0.12,0.72 m -0.01,0 v 0.23 m -4.47,3.75 0.2,1.8 0.18,1.71 m 4.23,-6.76 -0.14,-0.5 m -4.53,3.2 0.07,0.54 m -0.47,-0.49 0.4,-0.04 m 4.54,-3.21 -0.12,-0.72 m -4.54,3.2 0.12,0.72 m 4.42,-3.92 -0.29,-0.8 -0.52,-0.51 -0.7,-0.16 -0.79,0.21 -0.79,0.55 -0.69,0.83 -0.51,1.01 -0.26,1.07 0.01,0.99 m 2.17,-4.85 0.73,-0.17 0.76,0.17 0.57,0.56 0.31,0.87 m -5.36,-11.21 0.12,0.61 0.17,0.63 0.21,0.66 0.25,0.67 0.28,0.65 0.31,0.65 0.05,0.1 m -1.95,-7.37 0.56,3.4 m -5.49,0.08 -0.01,-1.08 0.29,-1.16 0.55,-1.1 0.75,-0.91 0.86,-0.6 0.86,-0.23 0.76,0.17 0.57,0.56 0.31,0.87 m 1.93,22.82 1.02,6.19 m -1.02,-6.19 -0.74,-3.47 m -3.26,-6.7 -0.66,-1.27 -0.46,-0.93 -0.21,-0.47 -0.17,-0.39 -0.3,-0.78 -0.25,-0.78 -0.19,-0.78 -0.07,-0.38 m 0,0.01 -0.56,-3.4 m -25.59,-45.25 -0.44,0.24 -0.78,0.51 -0.58,0.45 -0.28,0.33 0.06,0.16 0.39,-0.03 m 0.64,-0.45 -0.25,0.02 -0.04,-0.1 0.18,-0.21 0.37,-0.29 0.5,-0.32 0.56,-0.31 0.53,-0.24 0.42,-0.14 0.25,-0.02 0.04,0.1 -0.18,0.21 -0.37,0.29 -0.5,0.32 -0.56,0.31 -0.53,0.24 -0.42,0.14 m 72.73,61.13 -0.29,0.3 -0.35,0.57 -0.2,0.63 -0.03,0.36 m 12.9,4.48 -0.45,0.66 m 0,0 -0.45,0.66 m 0.79,-2.19 0.02,0.19 m 0,0.01 0.09,0.67 m 0,0 1.04,0.49 m -1.94,0.84 h -0.11 m 0.11,0 1.04,0.49 m -0.23,-2.49 -0.03,-0.15 -0.01,-0.05 m -0.9,2.08 0.1,-0.06 0.13,-0.1 0.12,-0.11 0.12,-0.13 0.11,-0.14 m 0,-0.01 0.1,-0.16 0.08,-0.16 0.07,-0.17 0.05,-0.17 0.04,-0.17 0.02,-0.17 0.01,-0.17 -0.01,-0.16 m -10.4,-6.15 -0.02,-0.01 -0.53,-0.06 -0.59,0.24 -0.55,0.51 -0.43,0.7 -0.25,0.78 -0.02,0.74 0.2,0.59 0.38,0.34 m 13.16,2.14 0.18,1.34 m 0,0 -0.9,1.33 m 0,0 -1.08,-0.01 m -0.01,-0.01 -0.18,-1.34 m 0,0 0.9,-1.33 m 0.01,0 1.08,0.01 m -0.82,-3.1 -0.42,-0.13 -0.85,0.05 -0.9,0.42 -0.85,0.74 -0.73,0.99 -0.53,1.15 -0.28,1.19 v 1.12 l 0.28,0.93 0.53,0.66 0.3,0.19 m 4.73,-6.11 -0.08,-0.17 -0.53,-0.66 -0.72,-0.32 -0.85,0.05 -0.9,0.42 -0.85,0.74 -0.73,0.99 -0.53,1.15 -0.28,1.19 v 1.12 l 0.28,0.93 0.53,0.66 0.72,0.32 0.85,-0.05 0.09,-0.03 m 3.05,-4.04 -0.19,-0.56 -0.38,-0.33 -0.51,-0.05 -0.56,0.23 -0.52,0.48 -0.41,0.66 -0.24,0.74 -0.02,0.71 0.19,0.56 0.38,0.33 0.51,0.05 0.56,-0.23 0.53,-0.48 0.41,-0.66 0.23,-0.74 0.02,-0.71 m -79.49,-32.67 0.11,-0.06 1.24,-0.88 m 0,0 0.29,-0.48 0.7,-1.51 m 0.49,-2.22 -0.61,-1.16 m 0.11,3.38 0.18,-0.58 0.31,-1.64 m -4.66,5.86 1.84,-0.71 m 0.8,-3.27 -0.31,0.62 -0.43,0.49 -0.49,0.29 -0.47,0.05 -0.38,-0.21 -0.24,-0.43 -0.05,-0.58 0.14,-0.65 0.31,-0.62 0.43,-0.49 0.49,-0.29 0.47,-0.05 0.38,0.21 0.23,0.43 0.05,0.58 -0.13,0.65 m -0.03,-2.05 0.25,0.18 0.28,0.51 0.06,0.7 -0.17,0.78 -0.37,0.74 -0.52,0.59 -0.59,0.35 -0.57,0.06 -0.21,-0.07 m 3.29,-4.83 -0.06,-0.09 -1.04,-1.3 m -6.33,5.07 0.61,1.16 m 0,0 0.06,0.09 1.04,1.3 m 1.66,0.79 -1.66,-0.78 m 1.05,-0.38 0.06,0.09 0.55,1.07 m -1.71,-2.56 1.1,1.4 m -2.76,-2.18 0.08,-0.58 0.41,-1.64 m 1.17,3 -1.66,-0.78 m 1.66,0.78 0.29,-0.48 0.7,-1.51 m -2.15,-1.01 0.22,-0.56 0.77,-1.42 m 1.16,2.99 0.18,-0.58 0.31,-1.64 m 0.62,2.43 -0.17,0.78 0.06,0.7 0.28,0.51 0.46,0.25 0.56,-0.06 0.58,-0.35 0.52,-0.59 0.37,-0.74 0.17,-0.78 -0.06,-0.7 -0.28,-0.51 -0.46,-0.25 -0.57,0.06 -0.58,0.35 -0.52,0.59 -0.36,0.74 m -1.11,-0.21 0.19,-0.47 0.23,-0.46 0.26,-0.43 0.29,-0.4 0.32,-0.36 0.34,-0.32 0.35,-0.27 0.36,-0.22 m -2.34,2.93 -0.15,0.48 -0.1,0.48 -0.06,0.47 -0.01,0.45 0.04,0.43 0.09,0.4 0.13,0.36 0.17,0.32 m 0,0 0.21,0.26 0.25,0.21 0.28,0.15 0.31,0.09 0.33,0.03 0.35,-0.04 0.36,-0.1 0.36,-0.16 m 0,0.01 0.36,-0.22 0.35,-0.27 0.34,-0.32 0.32,-0.36 0.29,-0.4 0.26,-0.43 0.23,-0.46 0.19,-0.47 m -0.01,0 0.15,-0.48 0.1,-0.48 0.06,-0.47 0.01,-0.45 -0.04,-0.43 -0.09,-0.4 -0.13,-0.36 -0.17,-0.31 m 0,0 -0.21,-0.26 -0.25,-0.21 -0.28,-0.15 -0.31,-0.09 -0.33,-0.03 -0.35,0.03 -0.36,0.1 -0.36,0.16 m 1.35,-0.95 -1.66,-0.78 m 0.01,0 -1.84,0.71 m 0,0 -0.11,0.06 -1.24,0.88 m 1.65,0.78 -1.66,-0.78 m 3.5,0.07 -0.11,0.06 -1.73,0.65 m 3.19,-1.65 -1.35,0.94 m -76.06,-156.57 -0.48,0.25 -0.47,0.28 -0.38,0.27 -0.23,0.22 -0.05,0.13 0.14,0.03 0.3,-0.08 0.43,-0.18 0.48,-0.25 0.47,-0.28 0.38,-0.27 0.23,-0.22 0.05,-0.13 -0.14,-0.03 -0.3,0.08 -0.43,0.18 m 58.89,109.76 0.14,0.03 0.3,-0.08 0.43,-0.18 0.48,-0.25 0.47,-0.28 0.38,-0.27 0.23,-0.22 0.05,-0.13 v 0 m 153.42,-23.82 -2,-0.95 m -119.02,104.47 2,0.95 m 123.02,-102.58 -2,-0.95 m -116.91,117.29 2,0.95 m 2.5,-4.04 0.7,0.33 m 2.36,-14.04 -0.07,-0.26 m -0.32,14.84 0.32,0.44 0.35,0.3 0.33,0.17 0.27,0.07 0.81,-0.1 0.95,-0.36 0.54,-0.26 0.55,-0.29 0.04,-0.02 m -0.02,0 0.49,-0.29 0.49,-0.32 0.79,-0.62 0.28,-0.3 0.21,-0.39 0.06,-0.28 v -0.35 l -0.09,-0.41 -0.19,-0.43 m -7.11,-14.42 -0.51,-0.24 m 0.1,15.7 0.22,0.4 m 0.01,0 1.12,2 m 6.18,-3.44 -5.5,-9.87 m -7.53,-19.16 -0.71,-0.33 m -22.22,-35.2 -2.57,-4.02 -0.85,-0.96 -0.32,-0.26 -0.28,-0.15 -0.51,-0.08 -0.58,0.12 -0.71,0.29 -0.76,0.39 m 0,-0.02 -0.03,0.01 -0.76,0.45 -0.64,0.45 -0.42,0.45 -0.22,0.51 -0.02,0.33 0.05,0.43 0.38,1.25 2.05,4.25 m 24.36,29.18 -18.17,-32.61 m -6.19,3.44 19.66,35.29 m 50.75,20.69 v 0.26 m 1.08,-2.29 -0.2,0.17 m -0.28,3.35 7.77,3.67 m 1.81,-3.84 -7.77,-3.67 m 7.08,10.17 0.38,0.18 m 3.46,-7.31 -0.38,-0.18 m -0.49,6.96 0.64,-0.51 0.54,-0.61 0.43,-0.69 0.31,-0.76 0.17,-0.8 0.03,-0.82 -0.11,-0.81 -0.24,-0.78 m -3,6.36 0.16,-0.05 0.16,-0.06 0.16,-0.07 0.15,-0.07 0.15,-0.08 0.15,-0.08 0.15,-0.09 0.14,-0.09 m -84.28,-41.95 -0.17,0.6 -0.11,1.12 0.19,1.08 0.42,0.77 0.62,0.55 0.22,0.08 m 3.22,-7.04 -0.69,-0.2 -0.84,0.07 -0.83,0.35 -0.8,0.62 -0.7,0.87 -0.49,0.98 -0.05,0.14 m 5.4,-2.38 -0.93,-0.44 m -3.33,7.04 1.23,0.58 m -73.64,-161.15 60.5,108.6 m 2.48,-1.37 -60.5,-108.6"
           class="st5"
           inkscape:connector-curvature="0"
           style="fill:none;stroke:#000000;stroke-width:0.70899999;stroke-linecap:round;stroke-linejoin:round;stroke-miterlimit:10" />
        <line
           id="line6445"
           y2="445.41"
           x2="592.77002"
           y1="464.57001"
           x1="603.45001"
           class="st12"
           style="fill:none;stroke:#000000;stroke-width:0.50999999;stroke-linecap:round;stroke-linejoin:round;stroke-miterlimit:10;stroke-dasharray:18, 3.6, 3.6, 3.6, 3.6, 3.6;stroke-dashoffset:16" />
        <line
           id="line6447"
           y2="527.10999"
           x2="674.28003"
           y1="511.70999"
           x1="641.72998"
           class="st13"
           style="fill:none;stroke:#000000;stroke-width:0.50999999;stroke-linecap:round;stroke-linejoin:round;stroke-miterlimit:10;stroke-dasharray:18, 3.6, 3.6, 3.6, 3.6, 3.6;stroke-dashoffset:8" />
        <line
           id="line6449"
           y2="495.51999"
           x2="607.5"
           y1="501.38"
           x1="619.90002"
           class="st9"
           style="fill:none;stroke:#000000;stroke-width:0.50999999;stroke-linecap:round;stroke-linejoin:round;stroke-miterlimit:10;stroke-dasharray:18, 3.6, 3.6, 3.6, 3.6, 3.6" />
        <path
           id="path6451"
           d="m 311.7,148.37 1.38,0.31 1.4,0.16 1.41,0.01 1.41,-0.13 1.39,-0.28 1.35,-0.43 1.3,-0.57 1.23,-0.7 1.15,-0.82 1.06,-0.94 m 79.5,-29.89 0.56,-0.07 0.53,-0.2 0.47,-0.32 0.38,-0.42 0.26,-0.5 0.14,-0.55 v -0.56 l -0.13,-0.55 -0.26,-0.5 -0.37,-0.42 -0.46,-0.32 -0.53,-0.2 -0.56,-0.07 m -3.58,4.67 3.54,0.01 m -3.52,-4.69 -0.56,0.07 -0.53,0.2 -0.47,0.32 -0.38,0.42 -0.27,0.5 -0.14,0.55 v 0.56 l 0.13,0.55 0.26,0.5 0.37,0.42 0.46,0.32 0.53,0.2 0.56,0.07 m 75.66,0.33 0.56,-0.07 0.53,-0.2 0.46,-0.32 0.38,-0.42 0.26,-0.5 0.14,-0.55 v -0.56 l -0.13,-0.55 -0.26,-0.5 -0.37,-0.42 -0.46,-0.32 -0.53,-0.2 -0.56,-0.07 m -3.57,4.67 3.54,0.01 m -3.52,-4.69 -0.56,0.07 -0.53,0.2 -0.46,0.32 -0.38,0.42 -0.26,0.5 -0.14,0.55 v 0.56 l 0.13,0.55 0.26,0.5 0.37,0.42 0.46,0.32 0.53,0.2 0.56,0.07 m -154.39,12.96 -0.14,-0.72 -0.28,-0.68 -0.41,-0.61 -0.52,-0.52 -0.61,-0.41 -0.68,-0.29 -0.72,-0.15 -0.74,-0.01 -0.72,0.14 -0.68,0.28 -0.61,0.4 -0.52,0.52 -0.41,0.61 -0.29,0.68 -0.15,0.72 -0.01,0.74 m 7.49,-0.7 1.24,13.4 m -7.48,0.68 0.14,0.72 0.28,0.68 0.41,0.61 0.52,0.52 0.61,0.41 0.68,0.29 0.72,0.15 h 0.74 l 0.72,-0.14 0.68,-0.28 0.61,-0.4 0.52,-0.52 0.41,-0.61 0.29,-0.68 0.15,-0.72 0.01,-0.74 m 46.68,-22.06 -22.71,10.47 m 132.7,-9.98 -109.99,-0.49 m 109.99,0.49 0.96,-0.06 0.95,-0.19 0.91,-0.32 0.86,-0.44 0.79,-0.55 0.71,-0.66 0.61,-0.75 0.51,-0.82 0.39,-0.89 0.27,-0.93 0.14,-0.96 v -0.97 l -0.13,-0.96 -0.26,-0.93 -0.38,-0.89 -0.5,-0.83 -0.61,-0.75 -0.7,-0.66 -0.79,-0.56 -0.86,-0.45 -0.91,-0.33 -0.95,-0.2 -0.96,-0.07 m 0.01,0 -111.56,-0.49 m 0,-0.01 -0.39,0.01 -0.39,0.03 -0.38,0.05 -0.38,0.07 -0.38,0.09 -0.37,0.11 -0.36,0.13 -0.35,0.15 m 0,0.01 -25.94,11.96 m 136.93,-7.38 3.54,0.01 m -22.19,4.06 0.32,-0.56 0.2,-0.62 0.07,-0.64 -0.06,-0.64 -0.19,-0.62 -0.31,-0.57 -0.42,-0.49 -0.51,-0.4 -0.58,-0.29 -0.62,-0.16 -0.64,-0.03 -0.64,0.1 -0.61,0.22 -0.55,0.34 -0.47,0.44 -0.37,0.53 -0.26,0.59 -0.13,0.63 v 0.64 l 0.13,0.63 0.25,0.59 0.37,0.53 0.47,0.45 0.55,0.34 0.6,0.23 0.64,0.1 0.64,-0.03 0.62,-0.16 0.58,-0.28 0.51,-0.39 0.41,-0.48 m -143.24,14.26 1.24,13.4 m 3.79,-20.5 -0.85,-0.02 -0.85,0.04 -0.85,0.09 -0.84,0.14 -0.83,0.2 -0.81,0.25 -0.8,0.3 -0.78,0.35 m 91.38,-12.9 3.54,0.01 m -79.53,34.58 0.44,-0.43 0.45,-0.42 0.45,-0.41 0.46,-0.41 0.46,-0.4 0.47,-0.39 0.47,-0.39 0.48,-0.38 m 0,0 0.11,-0.09 0.11,-0.09 0.1,-0.09 0.1,-0.09 0.1,-0.1 0.1,-0.1 0.09,-0.1 0.09,-0.1 m 0,-0.01 1.53,-1.68 1.62,-1.6 1.7,-1.51 1.78,-1.41 1.85,-1.32 1.92,-1.22 1.98,-1.11 2.04,-1.01 m -7.75,-12.03 -2.36,1 -2.41,0.86 -2.46,0.71 -2.5,0.56 -2.53,0.41 -2.55,0.26 -2.56,0.1 -2.56,-0.05 m -6.59,1.36 -0.92,0.54 -0.83,0.67 -0.72,0.79 -0.59,0.89 -0.45,0.97 -0.3,1.02 -0.14,1.06 0.02,1.07 m 1.08,11.87 -1.1,-11.87 m 1.1,11.87 0.18,1.05 0.33,1.02 0.48,0.95 0.62,0.87 0.74,0.77 0.85,0.65 0.94,0.51 1,0.36 m 15.18,-9.74 0.26,-0.5 0.14,-0.55 v -0.56 l -0.13,-0.55 -0.26,-0.5 -0.37,-0.42 -0.46,-0.32 -0.53,-0.2 -0.56,-0.07 -0.56,0.06 -0.53,0.2 -0.47,0.32 -0.38,0.42 -0.27,0.5 -0.14,0.55 v 0.56 l 0.13,0.55 0.26,0.5 0.37,0.42 0.46,0.32 0.52,0.2 0.56,0.07 0.56,-0.06 0.53,-0.2 0.47,-0.32 0.4,-0.42"
           class="st5"
           inkscape:connector-curvature="0"
           style="fill:none;stroke:#000000;stroke-width:0.70899999;stroke-linecap:round;stroke-linejoin:round;stroke-miterlimit:10" />
        <path
           id="path6453"
           d="m 325.76,277.24 0.42,0.38 0.32,0.47 0.2,0.53 0.06,0.56 -0.07,0.56 -0.2,0.52 -0.32,0.46 -0.42,0.37 -0.5,0.26 -0.55,0.13 h -0.56 l -0.55,-0.14 -0.5,-0.27 -0.42,-0.38 -0.32,-0.47 -0.2,-0.53 -0.06,-0.56 0.07,-0.56 0.2,-0.53 0.32,-0.46 0.43,-0.37 0.5,-0.26 0.55,-0.13 h 0.56 l 0.55,0.14 0.49,0.28 m -6.4,8.84 1.24,13.4 m 0,-0.01 -0.01,0.74 -0.15,0.72 -0.29,0.68 -0.41,0.61 -0.52,0.52 -0.62,0.4 -0.68,0.28 -0.72,0.14 -0.74,-0.01 -0.72,-0.15 -0.68,-0.29 -0.61,-0.41 -0.52,-0.52 -0.4,-0.61 -0.28,-0.68 -0.14,-0.72 m -1.23,-13.41 1.24,13.4 m -1.24,-13.4 v -0.74 l 0.15,-0.72 0.29,-0.68 0.41,-0.61 0.52,-0.52 0.61,-0.4 0.68,-0.28 0.72,-0.14 0.74,0.01 0.72,0.15 0.68,0.29 0.61,0.41 0.52,0.52 0.41,0.61 0.28,0.68 0.14,0.72 m 19.78,-20.47 20.71,-16.67 m -20.71,16.67 -1.81,1.38 -1.88,1.28 -1.94,1.18 -2,1.07 -2.06,0.96 -2.11,0.85 -2.15,0.74 -2.18,0.62 m -2.16,1.08 0.24,-0.18 0.25,-0.17 0.26,-0.16 0.27,-0.14 0.28,-0.13 0.28,-0.11 0.29,-0.1 0.29,-0.08 m -2.16,1.07 -1.15,0.9 -1.18,0.86 -1.2,0.82 -1.23,0.77 -1.26,0.73 -1.28,0.69 -1.31,0.64 -1.33,0.6 m -0.6,0.27 0.07,-0.04 0.07,-0.04 0.08,-0.03 0.07,-0.03 0.07,-0.03 0.08,-0.03 0.08,-0.03 0.07,-0.03 m -0.59,0.26 -0.92,0.54 -0.83,0.67 -0.72,0.79 -0.59,0.89 -0.45,0.97 -0.3,1.02 -0.14,1.06 0.02,1.07 m 0,0 1.1,11.87 m -0.01,0 0.18,1.05 0.33,1.01 0.48,0.95 0.62,0.87 0.74,0.77 0.85,0.65 0.94,0.51 1.01,0.36 m 15.96,-7.58 -0.61,1.23 -0.74,1.16 -0.85,1.08 -0.96,0.99 -1.05,0.89 -1.14,0.77 -1.21,0.65 -1.27,0.53 -1.32,0.39 -1.35,0.26 -1.37,0.12 -1.38,-0.02 -1.37,-0.16 -1.34,-0.3 m 15.96,-7.59 1.09,-2.32 1.23,-2.25 1.36,-2.17 1.49,-2.08 1.61,-1.99 1.73,-1.89 1.84,-1.78 1.95,-1.67 m 0.02,0.02 25.87,-20.83 m 109.04,0.49 -109.04,-0.48 m 109.1,-13.7 0.96,0.07 0.95,0.2 0.91,0.33 0.86,0.45 0.79,0.56 0.7,0.66 0.61,0.75 0.5,0.83 0.38,0.89 0.26,0.93 0.13,0.96 v 0.97 l -0.14,0.96 -0.27,0.93 -0.39,0.89 -0.51,0.82 -0.61,0.75 -0.71,0.66 -0.79,0.55 -0.86,0.44 -0.91,0.32 -0.95,0.19 -0.97,0.06 m 0.06,-14.17 -111.56,-0.49 m -4.47,1.56 0.49,-0.36 0.51,-0.32 0.54,-0.27 0.56,-0.22 0.58,-0.18 0.59,-0.13 0.6,-0.07 0.6,-0.02 m 107.98,9.91 -0.56,-0.07 -0.53,-0.2 -0.46,-0.32 -0.37,-0.42 -0.26,-0.5 -0.13,-0.55 v -0.56 l 0.14,-0.55 0.26,-0.5 0.38,-0.42 0.46,-0.32 0.53,-0.2 0.56,-0.06 m 0,-0.01 3.54,0.01 m 0,0.01 0.56,0.07 0.53,0.2 0.46,0.32 0.37,0.42 0.26,0.5 0.13,0.55 v 0.56 l -0.14,0.55 -0.26,0.5 -0.38,0.42 -0.46,0.32 -0.53,0.2 -0.56,0.07 m -3.54,-0.02 3.54,0.02 m -22.96,-5.06 0.5,0.44 0.4,0.53 0.28,0.6 0.15,0.65 0.01,0.67 -0.13,0.65 -0.26,0.61 -0.38,0.55 -0.49,0.45 -0.57,0.34 -0.63,0.22 -0.66,0.08 -0.66,-0.06 -0.64,-0.2 -0.58,-0.32 -0.5,-0.44 -0.4,-0.53 -0.28,-0.61 -0.15,-0.65 -0.01,-0.67 0.13,-0.65 0.26,-0.61 0.38,-0.55 0.49,-0.45 0.57,-0.34 0.63,-0.22 0.66,-0.08 0.66,0.06 0.64,0.2 0.58,0.33 m -52.67,4.72 -0.56,-0.07 -0.53,-0.2 -0.46,-0.32 -0.37,-0.42 -0.26,-0.5 -0.13,-0.55 v -0.56 l 0.14,-0.55 0.26,-0.5 0.38,-0.42 0.47,-0.32 0.53,-0.2 0.56,-0.06 m -0.01,0 3.54,0.02 m 0,-0.01 0.56,0.07 0.53,0.2 0.46,0.32 0.37,0.42 0.26,0.5 0.13,0.55 v 0.56 l -0.14,0.55 -0.27,0.5 -0.38,0.42 -0.47,0.32 -0.53,0.2 -0.56,0.07 m -3.52,-0.02 3.54,0.02"
           class="st5"
           inkscape:connector-curvature="0"
           style="fill:none;stroke:#000000;stroke-width:0.70899999;stroke-linecap:round;stroke-linejoin:round;stroke-miterlimit:10" />
        <path
           id="path6455"
           d="m 439.9,198.51 0.41,0.25 0.4,0.24 0.38,0.23 0.36,0.21 0.33,0.19 0.29,0.17 0.25,0.14 0.2,0.11 0.15,0.08 0.1,0.04 0.04,0.01 v 0 m 0.63,-2.89 0.26,0.15 0.22,0.12 0.17,0.09 0.12,0.06 0.06,0.02 0.01,-0.01 -0.01,-0.01 m -2.9,-1.63 0.29,0.17 0.29,0.17 0.28,0.17 0.27,0.16 0.26,0.15 0.24,0.14 0.23,0.13 0.21,0.12 m 2.29,-7.93 0.01,0.05 0.02,0.17 0.02,0.26 0.02,0.34 0.01,0.4 0.01,0.45 0.01,0.49 v 0.5 0.49 0.47 l -0.01,0.43 -0.01,0.37 -0.01,0.3 -0.01,0.21 -0.02,0.12 -0.01,0.02 m -15.16,-4.82 0.56,0.31 m -8.59,4.79 -0.55,-0.3 m 1.32,0.76 -0.77,-0.46 m 0.16,-0.23 -0.16,0.23 m 7.9,-4.84 0.14,-0.26 m -4.6,7.07 H 426 l -0.07,-0.03 -0.12,-0.06 -0.17,-0.09 -0.23,-0.12 -0.27,-0.15 -0.31,-0.18 -0.34,-0.2 -0.37,-0.21 -0.39,-0.23 -0.4,-0.24 m 0.17,-0.23 0.41,0.25 0.4,0.24 0.38,0.23 0.36,0.21 0.33,0.19 0.29,0.17 0.25,0.14 0.2,0.11 0.15,0.08 0.1,0.04 0.04,0.01 v 0 m 3.29,-7.2 -0.41,-0.25 -0.41,-0.25 -0.4,-0.24 -0.38,-0.23 -0.35,-0.22 -0.32,-0.2 -0.27,-0.18 -0.23,-0.15 -0.18,-0.12 -0.13,-0.09 -0.07,-0.06 -0.02,-0.02 v 0 m 2.37,1 -0.08,-0.05 -0.37,-0.21 -0.34,-0.2 -0.31,-0.18 -0.27,-0.15 -0.23,-0.12 -0.18,-0.09 -0.12,-0.06 -0.07,-0.03 -0.01,0.01 0.05,0.04 0.1,0.07 0.15,0.11 0.21,0.14 0.25,0.16 0.29,0.19 0.33,0.2 0.36,0.22 0.38,0.23 0.39,0.24 0.4,0.24 m 0.01,-0.01 0.77,0.46 m -18.78,-1.34 -0.41,-0.25 -0.41,-0.25 -0.4,-0.24 -0.38,-0.23 -0.35,-0.22 -0.32,-0.2 -0.27,-0.18 -0.23,-0.15 -0.18,-0.12 -0.13,-0.09 -0.07,-0.06 -0.02,-0.02 m 22.5,3.66 1.84,1.05 1.77,1.15 m -12.75,2.29 -1.83,-1.04 -1.77,-1.15 m 6.8,-2.64 0.02,0.02 0.07,0.06 0.13,0.09 0.18,0.12 0.23,0.15 0.28,0.18 0.32,0.2 0.35,0.22 0.38,0.23 0.4,0.24 0.41,0.25 0.41,0.25 m -15.36,-6.11 3.62,2.17 m -3.36,-1.81 -0.42,-0.25 -0.41,-0.25 -0.4,-0.24 -0.38,-0.23 -0.35,-0.22 -0.31,-0.2 -0.28,-0.18 -0.23,-0.15 -0.18,-0.12 -0.13,-0.09 -0.07,-0.06 -0.02,-0.02 0.04,0.01 0.09,0.04 0.15,0.08 0.2,0.11 0.25,0.14 0.29,0.17 0.33,0.19 0.36,0.21 0.38,0.23 0.4,0.24 0.41,0.25 m 17.43,10.54 -0.04,-0.01 -0.1,-0.04 -0.15,-0.08 -0.2,-0.11 -0.25,-0.14 -0.29,-0.16 -0.33,-0.19 -0.36,-0.21 -0.38,-0.23 -0.4,-0.24 -0.41,-0.25 m -10.89,-6.73 0.49,0.26 m 8.51,2.04 -0.42,-0.25 -0.41,-0.25 -0.4,-0.24 -0.38,-0.23 -0.35,-0.22 -0.31,-0.2 -0.27,-0.18 -0.23,-0.15 -0.18,-0.12 -0.13,-0.09 -0.07,-0.06 -0.02,-0.03 0.04,0.01 0.09,0.04 0.15,0.08 0.2,0.11 0.25,0.14 0.29,0.17 0.33,0.19 0.36,0.21 0.38,0.23 0.4,0.24 0.28,0.17 m -63.12,0.43 v 0 l -0.02,0.22 -0.01,0.3 -0.01,0.37 -0.01,0.43 v 0.47 0.5 0.5 l 0.01,0.49 0.01,0.45 0.01,0.4 0.01,0.34 v 0.03 m 56.3,-2.23 -6.58,-3.95 m 6.58,3.95 0.54,0.29 0.53,0.28 0.53,0.28 0.53,0.28 0.53,0.27 0.54,0.27 0.54,0.27 m -0.01,0.01 0.58,0.31 m 0,0 0.77,0.46 m 4.05,-0.54 -2.73,-1.64 m 2.73,1.64 0.51,0.24 0.55,0.15 1.06,0.12 1.07,0.04 1.07,0.06 1.06,0.13 0.88,0.18 0.86,0.25 0.86,0.34 0.82,0.43 m 0,0 3.62,2.17 m -5.13,-6.38 6.58,3.95 m -6.58,-3.95 -0.54,-0.29 -0.53,-0.28 -0.53,-0.28 -0.53,-0.28 -0.53,-0.27 -0.54,-0.27 -0.54,-0.27 m 0.01,-0.01 -0.58,-0.31 m 0,0 -0.77,-0.46 m -1.31,2.18 -2.73,-1.64 m -0.01,0 -0.51,-0.24 -0.55,-0.15 -1.06,-0.12 -1.07,-0.04 -1.07,-0.06 -1.06,-0.13 -0.88,-0.18 -0.86,-0.25 -0.86,-0.34 -0.82,-0.43 m 0,0 -3.61,-2.17 m -51.07,6.61 v 0.33 0.31 l -0.01,0.28 -0.01,0.24 -0.01,0.19 -0.01,0.13 -0.01,0.07 h -0.01 l -0.01,-0.07 -0.01,-0.13 -0.01,-0.19 -0.01,-0.24 -0.01,-0.28 -0.01,-0.31 v -0.33 -0.33 -0.32 -0.3 l 0.01,-0.26 0.01,-0.21 0.01,-0.16 0.01,-0.1 0.01,-0.03 0.01,0.03 0.01,0.1 0.01,0.16 0.01,0.21 0.01,0.26 0.01,0.3 0.01,0.32 v 0.33 m 82.02,5.24 -0.06,-0.06 -0.08,-0.1 -0.1,-0.15 -0.09,-0.2 -0.06,-0.23 -0.02,-0.25 0.02,-0.26 0.07,-0.26 0.12,-0.24 0.17,-0.23 0.2,-0.17 0.21,-0.13 0.21,-0.08 h 0.01 m -2.04,4.82 1.46,-2.43 m -20.54,-2.17 0.17,0.01 0.14,0.02 v 0 m -1.54,-0.91 -0.02,-0.01 m 22.36,0.68 0.41,-0.17 0.26,-0.19 0.07,-0.08 0.05,-0.07 0.06,-0.11 0.04,-0.12 0.04,-0.24 0.03,-0.41 0.01,-0.29 0.01,-0.35 0.01,-0.39 v -0.39 -0.39 -0.38 l -0.01,-0.68 -0.01,-0.57 -0.02,-0.45 -0.02,-0.38 -0.02,-0.21 -0.02,-0.17 -0.06,-0.2 -0.12,-0.21 -0.27,-0.24 -0.48,-0.21 -0.64,-0.08 m -14.92,0.07 h -0.02 l -0.18,-0.01 -0.14,-0.02 -0.1,-0.03 -0.07,-0.02 -0.04,-0.02 -0.02,-0.01 v 0 m -2.66,8.36 0.39,-0.1 m 0,0 1.27,-2.11 m -1.13,-7.07 -1.32,2.18 m 1.71,-2.28 -0.39,0.1 m -16.41,-3.57 -1.46,2.43 m 0.01,0.02 0.01,0.01 0.08,0.12 0.09,0.17 0.07,0.2 0.04,0.23 v 0.25 l -0.05,0.26 -0.1,0.25 -0.14,0.23 -0.19,0.21 -0.21,0.15 -0.22,0.1 -0.22,0.06 -0.21,0.03 h -0.05 m 22.86,7.5 0.51,-0.19 0.53,-0.15 0.53,-0.1 0.52,-0.06 0.51,-0.02 0.49,0.01 0.46,0.04 0.41,0.07 0.36,0.08 0.29,0.08 0.23,0.07 0.19,0.07 0.15,0.06 0.11,0.05 0.08,0.04 0.05,0.02 0.02,0.01 m -13.38,-8.19 -0.51,0.19 -0.53,0.15 -0.53,0.1 -0.52,0.06 -0.51,0.02 -0.49,-0.01 -0.46,-0.04 -0.41,-0.06 -0.36,-0.08 -0.29,-0.08 -0.23,-0.07 -0.19,-0.07 -0.15,-0.05 -0.11,-0.05 -0.08,-0.03 -0.05,-0.02 -0.02,-0.01 m -47.83,0.89 -1.33,0.03 -1.25,0.06 -1.1,0.08 -0.92,0.1 -0.72,0.1 -0.47,0.09 -0.36,0.08 -0.26,0.07 -0.27,0.09 -0.2,0.09 -0.08,0.05 -0.06,0.05 -0.04,0.06 -0.03,0.07 -0.01,0.08 m 0.01,4.61 0.02,0.27 0.04,0.2 0.05,0.1 0.04,0.03 0.02,0.02 0.01,0.01 0.08,0.05 0.1,0.05 0.19,0.07 0.29,0.08 0.41,0.09 0.57,0.1 0.74,0.1 0.93,0.09 1.1,0.07 1.23,0.04 1.3,0.01 m 74.9,-7.52 -14.95,0.09 m -21.64,0.12 -38.34,0.22 m 0.04,7.08 54.45,-0.31"
           class="st5"
           inkscape:connector-curvature="0"
           style="fill:none;stroke:#000000;stroke-width:0.70899999;stroke-linecap:round;stroke-linejoin:round;stroke-miterlimit:10" />
      </g>
    </g>
  </g>
  <style
     id="style815"
     type="text/css">
	.st0{font-family:'Akrobat-Regular';}
	.st1{font-size:17.9892px;}
	.st2{font-size:19.4642px;}
	.st3{font-size:17.9904px;}
	.st4{font-size:13.6276px;}
	.st5{font-size:13.6234px;}
	.st6{font-size:13.6249px;}
	.st7{font-size:13.6244px;}
	.st8{font-size:13.6273px;}
	.st9{font-size:13.6272px;}
	.st10{fill:none;stroke:#000000;stroke-width:0.51;stroke-miterlimit:10;}
	.st11{fill:none;stroke:#000000;stroke-width:0.51;stroke-linecap:round;stroke-linejoin:round;stroke-miterlimit:10;}
	.st12{fill:none;stroke:#000000;stroke-width:1.417;stroke-linecap:round;stroke-linejoin:round;stroke-miterlimit:10;}
	
		.st13{fill:none;stroke:#000000;stroke-width:0.51;stroke-linecap:round;stroke-linejoin:round;stroke-miterlimit:10;stroke-dasharray:18,3.6,3.6,3.6,3.6,3.6;stroke-dashoffset:8;}
	
		.st14{fill:none;stroke:#000000;stroke-width:0.51;stroke-linecap:round;stroke-linejoin:round;stroke-miterlimit:10;stroke-dasharray:18,3.6,3.6,3.6,3.6,3.6;stroke-dashoffset:7;}
	
		.st15{fill:none;stroke:#000000;stroke-width:0.51;stroke-linecap:round;stroke-linejoin:round;stroke-miterlimit:10;stroke-dasharray:18,3.6,3.6,3.6,3.6,3.6;stroke-dashoffset:3;}
	
		.st16{fill:none;stroke:#000000;stroke-width:0.51;stroke-linecap:round;stroke-linejoin:round;stroke-miterlimit:10;stroke-dasharray:18,3.6,3.6,3.6,3.6,3.6;}
	
		.st17{fill:none;stroke:#000000;stroke-width:0.51;stroke-linecap:round;stroke-linejoin:round;stroke-miterlimit:10;stroke-dasharray:18,3.6,3.6,3.6,3.6,3.6;stroke-dashoffset:11;}
	
		.st18{fill:none;stroke:#000000;stroke-width:0.51;stroke-linecap:round;stroke-linejoin:round;stroke-miterlimit:10;stroke-dasharray:18,3.6,3.6,3.6,3.6,3.6;stroke-dashoffset:1;}
	
		.st19{fill:none;stroke:#000000;stroke-width:0.51;stroke-linecap:round;stroke-linejoin:round;stroke-miterlimit:10;stroke-dasharray:18,3.6,3.6,3.6,3.6,3.6;stroke-dashoffset:-2;}
	
		.st20{fill:none;stroke:#000000;stroke-width:0.51;stroke-linecap:round;stroke-linejoin:round;stroke-miterlimit:10;stroke-dasharray:18,3.6,3.6,3.6,3.6,3.6;stroke-dashoffset:4;}
	
		.st21{fill:none;stroke:#000000;stroke-width:0.51;stroke-linecap:round;stroke-linejoin:round;stroke-miterlimit:10;stroke-dasharray:18,3.6,3.6,3.6,3.6,3.6;stroke-dashoffset:14;}
	
		.st22{fill:none;stroke:#000000;stroke-width:0.51;stroke-linecap:round;stroke-linejoin:round;stroke-miterlimit:10;stroke-dasharray:18,3.6,3.6,3.6,3.6,3.6;stroke-dashoffset:2;}
	
		.st23{fill:none;stroke:#000000;stroke-width:0.51;stroke-linecap:round;stroke-linejoin:round;stroke-miterlimit:10;stroke-dasharray:18,3.6,3.6,3.6,3.6,3.6;stroke-dashoffset:10;}
	
		.st24{fill:none;stroke:#000000;stroke-width:0.51;stroke-linecap:round;stroke-linejoin:round;stroke-miterlimit:10;stroke-dasharray:18,3.6,3.6,3.6,3.6,3.6;stroke-dashoffset:9;}
	
		.st25{fill:none;stroke:#000000;stroke-width:0.51;stroke-linecap:round;stroke-linejoin:round;stroke-miterlimit:10;stroke-dasharray:18,3.6,3.6,3.6,3.6,3.6;stroke-dashoffset:6;}
	
		.st26{fill:none;stroke:#000000;stroke-width:0.51;stroke-linecap:round;stroke-linejoin:round;stroke-miterlimit:10;stroke-dasharray:18,3.6,3.6,3.6,3.6,3.6;stroke-dashoffset:16;}
	
		.st27{fill:none;stroke:#000000;stroke-width:0.51;stroke-linecap:round;stroke-linejoin:round;stroke-miterlimit:10;stroke-dasharray:18,3.6,3.6,3.6,3.6,3.6;stroke-dashoffset:5;}
	
		.st28{fill:none;stroke:#000000;stroke-width:0.51;stroke-linecap:round;stroke-linejoin:round;stroke-miterlimit:10;stroke-dasharray:18,3.6,3.6,3.6,3.6,3.6;stroke-dashoffset:12;}
</style>
  <style
     id="style6411"
     type="text/css">
	.st0{font-family:'ArialUnicodeMS';}
	.st1{font-size:19.9584px;}
	.st2{font-size:20.1158px;}
	.st3{fill:none;stroke:#000000;stroke-width:0.51;stroke-miterlimit:10;}
	.st4{fill:none;stroke:#000000;stroke-width:0.51;stroke-linecap:round;stroke-linejoin:round;stroke-miterlimit:10;}
	.st5{fill:none;stroke:#000000;stroke-width:0.709;stroke-linecap:round;stroke-linejoin:round;stroke-miterlimit:10;}
	
		.st6{fill:none;stroke:#000000;stroke-width:0.51;stroke-linecap:round;stroke-linejoin:round;stroke-miterlimit:10;stroke-dasharray:18,3.6,3.6,3.6,3.6,3.6;stroke-dashoffset:3;}
	
		.st7{fill:none;stroke:#000000;stroke-width:0.51;stroke-linecap:round;stroke-linejoin:round;stroke-miterlimit:10;stroke-dasharray:18,3.6,3.6,3.6,3.6,3.6;stroke-dashoffset:-1;}
	
		.st8{fill:none;stroke:#000000;stroke-width:0.51;stroke-linecap:round;stroke-linejoin:round;stroke-miterlimit:10;stroke-dasharray:18,3.6,3.6,3.6,3.6,3.6;stroke-dashoffset:15;}
	
		.st9{fill:none;stroke:#000000;stroke-width:0.51;stroke-linecap:round;stroke-linejoin:round;stroke-miterlimit:10;stroke-dasharray:18,3.6,3.6,3.6,3.6,3.6;}
	
		.st10{fill:none;stroke:#000000;stroke-width:0.51;stroke-linecap:round;stroke-linejoin:round;stroke-miterlimit:10;stroke-dasharray:18,3.6,3.6,3.6,3.6,3.6;stroke-dashoffset:6;}
	
		.st11{fill:none;stroke:#000000;stroke-width:0.51;stroke-linecap:round;stroke-linejoin:round;stroke-miterlimit:10;stroke-dasharray:18,3.6,3.6,3.6,3.6,3.6;stroke-dashoffset:10;}
	
		.st12{fill:none;stroke:#000000;stroke-width:0.51;stroke-linecap:round;stroke-linejoin:round;stroke-miterlimit:10;stroke-dasharray:18,3.6,3.6,3.6,3.6,3.6;stroke-dashoffset:16;}
	
		.st13{fill:none;stroke:#000000;stroke-width:0.51;stroke-linecap:round;stroke-linejoin:round;stroke-miterlimit:10;stroke-dasharray:18,3.6,3.6,3.6,3.6,3.6;stroke-dashoffset:8;}
</style>
</svg>
