<svg id="svg" version="1.1" xmlns="http://www.w3.org/2000/svg" xmlns:xlink="http://www.w3.org/1999/xlink" width="400" height="400" viewBox="0, 0, 400,400"><g id="svgg"><path id="path0" d="M90.238 162.389 C 66.799 165.168,51.334 189.411,58.709 211.810 C 62.465 223.217,71.617 232.343,82.886 235.918 C 88.455 237.685,88.818 237.720,102.024 237.729 L 113.929 237.738 113.995 234.607 L 114.061 231.477 102.328 231.362 C 88.502 231.227,86.983 231.007,81.310 228.323 C 58.653 217.604,57.176 186.130,78.713 173.005 C 84.832 169.276,88.731 168.587,103.750 168.578 L 113.810 168.571 113.810 165.357 L 113.810 162.143 102.798 162.174 C 96.741 162.191,91.089 162.288,90.238 162.389 M152.262 162.829 C 135.795 165.825,122.652 179.442,121.039 195.179 L 120.887 196.667 124.134 196.667 C 125.920 196.667,127.381 196.574,127.381 196.460 C 127.381 189.603,133.936 178.819,140.917 174.192 C 159.617 161.800,184.863 172.135,189.108 193.921 L 189.643 196.663 192.798 196.665 L 195.952 196.667 195.949 195.774 C 195.937 193.035,194.350 187.717,192.271 183.452 C 185.038 168.613,168.193 159.930,152.262 162.829 M203.095 165.595 L 203.095 168.810 231.548 168.810 L 260.000 168.810 260.000 165.595 L 260.000 162.381 231.548 162.381 L 203.095 162.381 203.095 165.595 M267.651 163.276 C 274.336 170.746,299.898 199.878,299.944 200.082 C 299.979 200.233,292.613 208.740,283.575 218.985 C 274.537 229.230,267.143 237.668,267.143 237.735 C 267.143 237.802,269.047 237.857,271.375 237.857 L 275.607 237.857 292.087 219.173 C 301.151 208.897,308.595 200.379,308.629 200.244 C 308.663 200.109,301.244 191.539,292.143 181.199 L 275.595 162.400 271.222 162.391 L 266.849 162.381 267.651 163.276 M321.905 175.506 C 315.554 182.719,310.061 188.977,309.698 189.413 L 309.039 190.206 311.116 192.544 C 312.259 193.829,313.260 194.881,313.342 194.881 C 313.424 194.881,315.574 192.524,318.120 189.643 C 324.950 181.913,332.887 172.919,337.817 167.321 L 342.169 162.381 337.811 162.387 L 333.452 162.393 321.905 175.506 M203.095 199.880 L 203.095 203.095 231.555 203.095 L 260.014 203.095 259.947 199.940 L 259.881 196.786 231.488 196.725 L 203.095 196.665 203.095 199.880 M121.044 205.055 C 122.364 219.257,134.011 232.709,148.388 236.636 C 170.236 242.603,193.134 227.563,195.827 205.476 C 195.915 204.756,196.040 203.979,196.105 203.750 C 196.213 203.368,195.952 203.333,192.926 203.333 L 189.629 203.333 189.321 205.288 C 186.382 223.972,166.634 235.826,148.545 229.766 C 137.742 226.146,129.202 216.159,127.612 205.285 L 127.326 203.333 124.105 203.333 L 120.884 203.333 121.044 205.055 M311.406 207.440 C 310.449 208.521,309.521 209.580,309.344 209.794 C 309.060 210.138,309.885 211.162,316.357 218.499 C 320.390 223.072,325.240 228.575,327.134 230.728 C 329.027 232.881,331.219 235.366,332.004 236.250 L 333.430 237.857 337.668 237.857 C 339.998 237.857,341.905 237.796,341.905 237.722 C 341.905 237.647,340.693 236.228,339.213 234.567 C 337.732 232.906,331.350 225.682,325.030 218.512 C 318.710 211.342,313.450 205.476,313.342 205.476 C 313.234 205.476,312.363 206.360,311.406 207.440 M203.095 234.642 L 203.095 237.857 231.555 237.857 L 260.014 237.857 259.947 234.702 L 259.881 231.548 231.488 231.487 L 203.095 231.427 203.095 234.642 " stroke="none" fill="#070707" fill-rule="evenodd"></path><path id="path1" d="M0.000 200.000 L 0.000 400.000 199.881 400.000 L 399.762 400.000 399.762 200.000 L 399.762 0.000 199.881 0.000 L 0.000 0.000 0.000 200.000 M113.929 165.357 L 113.929 168.690 102.143 168.816 C 89.228 168.953,88.766 168.999,84.259 170.618 C 58.049 180.034,56.415 216.471,81.673 228.308 C 87.084 230.843,89.659 231.188,103.161 231.190 L 114.061 231.190 113.995 234.583 L 113.929 237.976 104.286 238.049 C 89.273 238.163,85.212 237.571,78.347 234.266 C 49.846 220.545,49.485 180.083,77.738 166.065 C 85.092 162.417,88.009 161.953,103.333 161.995 L 113.929 162.024 113.929 165.357 M166.291 162.977 C 179.799 166.007,190.189 175.306,194.496 188.222 C 195.275 190.558,196.190 194.816,196.190 196.104 L 196.190 196.918 192.814 196.852 L 189.437 196.786 189.124 194.881 C 187.349 184.082,179.400 174.565,169.050 170.848 C 151.075 164.392,131.501 175.500,127.959 194.167 C 127.735 195.345,127.517 196.443,127.474 196.607 C 127.349 197.085,120.984 197.027,120.800 196.546 C 120.309 195.267,122.479 187.397,124.412 183.451 C 132.028 167.897,149.703 159.256,166.291 162.977 M260.185 165.536 L 260.252 168.810 231.554 168.810 L 202.857 168.810 202.857 165.475 L 202.857 162.141 231.488 162.201 L 260.119 162.262 260.185 165.536 M292.334 181.171 C 306.711 197.464,308.980 200.135,308.736 200.478 C 308.580 200.698,301.066 209.252,292.039 219.486 L 275.626 238.095 271.133 238.095 C 266.814 238.095,266.652 238.078,266.951 237.657 C 267.122 237.415,274.601 228.899,283.571 218.732 C 292.542 208.564,299.881 200.205,299.881 200.156 C 299.881 200.107,292.435 191.630,283.333 181.319 C 274.232 171.007,266.749 162.471,266.705 162.351 C 266.657 162.222,268.465 162.159,271.136 162.197 L 275.648 162.262 292.334 181.171 M342.341 162.348 C 342.204 162.703,313.535 195.119,313.358 195.119 C 313.266 195.119,312.202 194.015,310.994 192.665 L 308.797 190.212 309.458 189.418 C 309.822 188.982,315.369 182.669,321.786 175.389 L 333.452 162.153 337.937 162.148 C 340.403 162.145,342.385 162.235,342.341 162.348 M260.185 199.940 L 260.119 203.214 231.488 203.275 L 202.857 203.335 202.857 200.001 L 202.857 196.667 231.554 196.667 L 260.252 196.667 260.185 199.940 M127.666 204.557 C 129.054 215.687,137.652 225.992,148.571 229.612 C 166.253 235.475,185.581 224.302,188.926 206.286 C 189.143 205.120,189.368 203.926,189.426 203.631 C 189.531 203.106,189.600 203.095,192.862 203.095 L 196.190 203.095 196.190 204.022 C 196.190 206.685,194.549 212.543,192.720 216.409 C 182.818 237.336,156.696 244.584,137.426 231.751 C 128.308 225.680,121.756 214.980,120.784 204.577 L 120.644 203.082 124.071 203.148 L 127.499 203.214 127.666 204.557 M328.000 221.607 L 342.439 237.976 337.946 238.046 L 333.452 238.115 332.118 236.617 C 313.192 215.362,308.786 210.175,309.228 209.670 C 311.891 206.623,313.180 205.238,313.354 205.238 C 313.468 205.238,320.059 212.604,328.000 221.607 M260.185 234.702 L 260.119 237.976 231.488 238.037 L 202.857 238.097 202.857 234.763 L 202.857 231.429 231.554 231.429 L 260.252 231.429 260.185 234.702 " stroke="none" fill="#fbfbfb" fill-rule="evenodd"></path><path id="path2" d="M157.448 162.318 C 158.074 162.367,159.038 162.367,159.591 162.317 C 160.143 162.267,159.631 162.227,158.452 162.227 C 157.274 162.228,156.822 162.269,157.448 162.318 M202.961 162.453 C 202.896 162.624,202.876 164.150,202.917 165.846 L 202.992 168.929 203.043 165.656 L 203.095 162.383 231.607 162.321 L 260.119 162.260 231.600 162.201 C 208.345 162.154,203.058 162.200,202.961 162.453 M268.988 162.320 C 270.199 162.363,272.182 162.363,273.393 162.320 C 274.604 162.277,273.613 162.242,271.190 162.242 C 268.768 162.242,267.777 162.277,268.988 162.320 M335.655 162.320 C 336.866 162.363,338.848 162.363,340.060 162.320 C 341.271 162.277,340.280 162.242,337.857 162.242 C 335.435 162.242,334.443 162.277,335.655 162.320 M155.536 168.974 C 155.765 169.034,156.140 169.034,156.369 168.974 C 156.598 168.914,156.411 168.865,155.952 168.865 C 155.494 168.865,155.307 168.914,155.536 168.974 M160.536 168.974 C 160.765 169.034,161.140 169.034,161.369 168.974 C 161.598 168.914,161.411 168.865,160.952 168.865 C 160.494 168.865,160.307 168.914,160.536 168.974 M67.850 173.274 L 66.310 174.881 67.917 173.340 C 69.409 171.909,69.633 171.667,69.457 171.667 C 69.421 171.667,68.698 172.390,67.850 173.274 M202.909 199.940 L 202.857 203.333 231.488 203.275 L 260.119 203.216 231.614 203.155 L 203.109 203.093 203.035 199.820 L 202.962 196.548 202.909 199.940 M56.752 200.000 C 56.752 201.244,56.793 201.753,56.842 201.131 C 56.891 200.509,56.891 199.491,56.842 198.869 C 56.793 198.247,56.752 198.756,56.752 200.000 M312.715 205.774 L 312.262 206.310 312.798 205.856 C 313.324 205.410,313.342 205.410,313.869 205.856 L 314.405 206.310 313.951 205.774 C 313.702 205.479,313.424 205.238,313.333 205.238 C 313.243 205.238,312.965 205.479,312.715 205.774 M131.667 227.024 C 132.378 227.744,133.013 228.333,133.079 228.333 C 133.144 228.333,132.616 227.744,131.905 227.024 C 131.193 226.304,130.558 225.714,130.492 225.714 C 130.427 225.714,130.955 226.304,131.667 227.024 M185.000 227.024 C 184.422 227.613,184.002 228.095,184.068 228.095 C 184.133 228.095,184.660 227.613,185.238 227.024 C 185.816 226.435,186.236 225.952,186.171 225.952 C 186.105 225.952,185.578 226.435,185.000 227.024 M98.528 231.369 C 101.451 231.407,106.165 231.407,109.004 231.369 C 111.844 231.331,109.452 231.300,103.690 231.300 C 97.929 231.300,95.605 231.331,98.528 231.369 M202.909 234.702 L 202.857 238.095 231.488 238.037 L 260.119 237.978 231.614 237.917 L 203.109 237.855 203.035 234.582 L 202.962 231.310 202.909 234.702 M266.904 237.917 C 266.905 238.015,268.860 238.075,271.250 238.049 C 275.650 238.003,275.136 237.913,269.821 237.800 C 268.217 237.766,266.904 237.818,266.904 237.917 M337.738 237.857 L 333.452 237.993 337.798 238.044 C 340.570 238.077,342.143 238.009,342.143 237.857 C 342.143 237.726,342.116 237.642,342.083 237.670 C 342.051 237.698,340.095 237.782,337.738 237.857 M156.716 238.033 C 157.594 238.079,159.094 238.079,160.049 238.034 C 161.004 237.989,160.286 237.951,158.452 237.951 C 156.619 237.951,155.838 237.988,156.716 238.033 " stroke="none" fill="#747474" fill-rule="evenodd"></path><path id="path3" d="M113.903 165.357 C 113.904 167.190,113.941 167.909,113.987 166.954 C 114.032 165.999,114.032 164.499,113.986 163.621 C 113.940 162.742,113.903 163.524,113.903 165.357 M98.869 168.750 C 101.586 168.788,106.033 168.788,108.750 168.750 C 111.467 168.712,109.244 168.680,103.810 168.680 C 98.375 168.680,96.152 168.712,98.869 168.750 M72.368 178.036 L 71.548 178.929 72.440 178.108 C 73.272 177.344,73.443 177.143,73.261 177.143 C 73.221 177.143,72.819 177.545,72.368 178.036 M157.554 231.362 C 157.977 231.415,158.727 231.416,159.221 231.364 C 159.715 231.313,159.369 231.270,158.452 231.269 C 157.536 231.268,157.132 231.310,157.554 231.362 " stroke="none" fill="#8c8c8c" fill-rule="evenodd"></path><path id="path4" d="M98.750 162.083 C 101.533 162.121,106.086 162.121,108.869 162.083 C 111.652 162.045,109.375 162.014,103.810 162.014 C 98.244 162.014,95.967 162.045,98.750 162.083 M260.094 165.595 C 260.094 167.429,260.132 168.147,260.177 167.192 C 260.222 166.237,260.222 164.737,260.176 163.859 C 260.131 162.980,260.094 163.762,260.094 165.595 M131.659 173.274 L 130.357 174.643 131.726 173.341 C 132.998 172.132,133.204 171.905,133.028 171.905 C 132.990 171.905,132.374 172.521,131.659 173.274 M180.238 177.976 C 180.949 178.696,181.585 179.286,181.650 179.286 C 181.716 179.286,181.187 178.696,180.476 177.976 C 179.765 177.256,179.129 176.667,179.064 176.667 C 178.998 176.667,179.527 177.256,180.238 177.976 M136.301 178.155 L 135.119 179.405 136.369 178.223 C 137.057 177.573,137.619 177.011,137.619 176.973 C 137.619 176.796,137.398 176.993,136.301 178.155 M189.362 196.310 C 189.408 196.760,189.589 196.786,192.741 196.796 L 196.071 196.805 192.814 196.730 C 189.976 196.664,189.541 196.601,189.435 196.244 C 189.343 195.935,189.325 195.951,189.362 196.310 M127.381 196.389 C 127.381 196.585,126.413 196.682,124.107 196.719 L 120.833 196.771 124.029 196.845 C 126.988 196.914,128.016 196.747,127.544 196.274 C 127.454 196.184,127.381 196.236,127.381 196.389 M260.094 199.881 C 260.094 201.714,260.132 202.433,260.177 201.478 C 260.222 200.523,260.222 199.023,260.176 198.144 C 260.131 197.266,260.094 198.048,260.094 199.881 M63.398 200.000 C 63.398 200.589,63.445 200.830,63.501 200.536 C 63.558 200.241,63.558 199.759,63.501 199.464 C 63.445 199.170,63.398 199.411,63.398 200.000 M123.972 203.270 C 126.363 203.324,127.377 203.431,127.447 203.637 C 127.501 203.798,127.534 203.768,127.520 203.571 C 127.498 203.272,126.935 203.213,124.045 203.204 L 120.595 203.193 123.972 203.270 M191.131 203.272 C 192.080 203.317,193.634 203.317,194.583 203.272 C 195.533 203.227,194.756 203.190,192.857 203.190 C 190.958 203.190,190.182 203.227,191.131 203.272 M180.348 222.202 L 179.167 223.452 180.417 222.271 C 181.104 221.621,181.667 221.059,181.667 221.021 C 181.667 220.843,181.446 221.041,180.348 222.202 M136.310 222.143 C 136.821 222.667,137.293 223.095,137.359 223.095 C 137.424 223.095,137.059 222.667,136.548 222.143 C 136.036 221.619,135.564 221.190,135.499 221.190 C 135.433 221.190,135.798 221.619,136.310 222.143 M260.094 234.643 C 260.094 236.476,260.132 237.195,260.177 236.240 C 260.222 235.284,260.222 233.784,260.176 232.906 C 260.131 232.028,260.094 232.810,260.094 234.643 M98.036 238.035 C 100.949 238.073,105.717 238.073,108.631 238.035 C 111.545 237.998,109.161 237.967,103.333 237.967 C 97.506 237.967,95.122 237.998,98.036 238.035 " stroke="none" fill="#9c9c9c" fill-rule="evenodd"></path></g></svg>