<?xml version="1.0" standalone="no"?>
<!DOCTYPE svg PUBLIC "-//W3C//DTD SVG 20010904//EN"
 "http://www.w3.org/TR/2001/REC-SVG-20010904/DTD/svg10.dtd">
<svg version="1.0" xmlns="http://www.w3.org/2000/svg"
 width="1680.000000pt" height="1680.000000pt" viewBox="0 0 1680.000000 1680.000000"
 preserveAspectRatio="xMidYMid meet">

<g transform="translate(0.000000,1680.000000) scale(0.100000,-0.100000)"
fill="#000000" stroke="none">
<path d="M3710 9970 c-640 -115 -1143 -591 -1286 -1220 -81 -356 -41 -707 117
-1040 80 -169 167 -289 308 -431 233 -232 479 -366 812 -441 88 -20 129 -22
612 -25 l517 -4 0 140 0 141 -468 0 c-385 0 -485 3 -563 16 -536 92 -956 498
-1070 1037 -31 144 -31 370 0 514 100 473 434 848 884 992 187 60 219 63 735
68 l472 5 0 134 0 134 -482 -1 c-426 -1 -495 -3 -588 -19z"/>
<path d="M6496 9980 c-381 -44 -724 -213 -986 -487 -236 -245 -394 -575 -434
-905 l-6 -48 140 0 139 0 6 38 c65 381 265 700 565 901 118 79 181 111 306
154 424 148 882 71 1240 -209 141 -109 282 -282 364 -443 51 -101 104 -273
125 -403 l6 -38 139 0 140 0 -6 48 c-40 341 -205 679 -452 930 -225 228 -543
392 -866 447 -113 19 -318 26 -420 15z"/>
<path d="M8527 9983 c-4 -3 -7 -66 -7 -140 l0 -133 1200 0 1200 0 0 140 0 140
-1193 0 c-657 0 -1197 -3 -1200 -7z"/>
<path d="M11210 9981 c0 -5 307 -357 683 -783 375 -425 688 -781 695 -790 12
-15 -72 -113 -682 -805 -383 -433 -696 -791 -696 -795 0 -5 81 -8 179 -8 l179
0 79 88 c69 75 791 893 1188 1345 72 82 130 154 130 162 0 7 -67 89 -150 182
-82 93 -397 449 -698 791 l-549 622 -179 0 c-98 0 -179 -4 -179 -9z"/>
<path d="M13495 9405 c-284 -322 -515 -590 -513 -595 5 -15 170 -200 178 -200
10 0 1210 1360 1210 1371 0 5 -81 9 -179 9 l-179 0 -517 -585z"/>
<path d="M8520 8400 l0 -140 1200 0 1200 0 0 140 0 140 -1200 0 -1200 0 0
-140z"/>
<path d="M5075 8208 c63 -478 312 -881 705 -1144 170 -113 360 -191 575 -236
157 -33 451 -32 605 1 506 108 908 421 1126 876 81 169 123 310 149 508 l6 47
-140 0 -140 0 -6 -47 c-10 -76 -52 -228 -86 -311 -117 -293 -362 -553 -652
-690 -392 -187 -848 -167 -1222 53 -334 197 -561 523 -631 903 l-17 92 -139 0
-140 0 7 -52z"/>
<path d="M13067 8079 c-49 -55 -86 -105 -84 -112 4 -10 886 -1012 993 -1129
l35 -38 180 0 c112 0 179 4 177 10 -1 5 -228 265 -503 577 -676 767 -695 788
-703 791 -4 1 -47 -43 -95 -99z"/>
<path d="M8520 6940 l0 -140 1200 0 1200 0 0 140 0 140 -1200 0 -1200 0 0
-140z"/>
</g>
</svg>
