<svg id="svg" version="1.1" xmlns="http://www.w3.org/2000/svg" xmlns:xlink="http://www.w3.org/1999/xlink" width="400" height="400" viewBox="0, 0, 400,400"><g id="svgg"><path id="path0" d="M191.000 54.064 C 183.570 54.546,177.447 55.365,169.800 56.898 C 164.113 58.038,163.440 58.197,159.200 59.396 C 157.110 59.987,154.903 60.566,154.295 60.681 C 153.687 60.797,153.092 61.051,152.971 61.246 C 152.851 61.441,152.349 61.600,151.856 61.600 C 151.363 61.600,150.789 61.744,150.580 61.919 C 150.371 62.095,149.210 62.560,148.000 62.953 C 145.562 63.745,145.051 63.943,142.304 65.160 C 141.262 65.622,140.301 66.000,140.170 66.000 C 139.805 66.000,128.172 71.766,125.000 73.519 C 120.506 76.002,109.673 83.207,107.756 84.987 C 107.511 85.214,106.618 85.940,105.771 86.600 C 101.496 89.930,98.906 92.265,93.587 97.585 C 90.389 100.783,87.231 104.030,86.569 104.800 C 83.347 108.544,79.499 113.423,77.383 116.448 C 76.094 118.292,74.940 119.890,74.818 120.000 C 74.431 120.351,71.600 124.778,71.600 125.032 C 71.600 125.167,71.266 125.754,70.857 126.338 C 69.343 128.503,62.870 140.923,61.548 144.200 C 61.006 145.545,59.866 148.436,58.394 152.200 C 57.606 154.214,55.965 159.353,55.136 162.400 C 54.926 163.170,54.583 164.430,54.374 165.200 C 49.294 183.865,48.297 205.905,51.587 226.800 C 52.217 230.800,53.550 237.154,54.399 240.200 C 54.644 241.080,54.996 242.340,55.181 243.000 C 56.075 246.196,57.650 251.099,58.394 253.000 C 58.566 253.440,59.195 255.060,59.792 256.600 C 60.389 258.140,61.024 259.760,61.202 260.200 C 62.129 262.492,68.201 274.619,68.477 274.733 C 68.655 274.807,68.800 275.017,68.800 275.200 C 68.800 275.909,74.698 285.423,76.100 286.975 C 76.485 287.402,76.800 287.884,76.800 288.047 C 76.800 288.210,77.029 288.581,77.308 288.871 C 77.588 289.162,78.527 290.390,79.395 291.600 C 80.263 292.810,81.070 293.890,81.187 294.000 C 81.304 294.110,82.114 295.100,82.986 296.200 C 83.859 297.300,84.669 298.290,84.786 298.400 C 84.904 298.510,86.350 300.124,88.000 301.987 C 91.474 305.910,95.114 309.534,98.800 312.739 C 100.230 313.983,101.670 315.278,102.000 315.617 C 104.440 318.127,118.334 327.947,123.600 330.883 C 124.590 331.435,126.120 332.296,127.000 332.797 C 129.206 334.052,134.984 336.946,137.400 338.007 C 138.500 338.489,139.940 339.127,140.600 339.424 C 153.003 345.001,158.924 345.243,161.403 340.274 C 162.263 338.551,162.302 309.600,161.444 309.600 C 161.138 309.600,159.383 309.897,157.544 310.260 C 152.701 311.216,139.705 311.223,135.600 310.272 C 123.959 307.577,116.120 301.715,111.740 292.431 C 110.746 290.324,109.484 287.653,108.935 286.496 C 105.797 279.879,100.984 274.249,94.680 269.821 C 87.955 265.098,87.109 262.313,91.957 260.860 C 99.654 258.554,113.356 265.878,118.686 275.146 C 127.216 289.977,141.400 295.396,157.600 290.014 C 161.816 288.613,162.416 288.277,162.624 287.200 C 163.871 280.744,166.012 275.611,169.237 271.351 L 171.096 268.895 169.601 268.448 C 168.780 268.201,167.467 268.000,166.684 268.000 C 165.901 268.000,164.302 267.805,163.131 267.566 C 161.959 267.327,159.650 266.859,158.000 266.525 C 156.350 266.192,154.550 265.778,154.000 265.606 C 153.450 265.434,152.280 265.094,151.400 264.852 C 143.206 262.595,130.778 256.971,129.200 254.806 C 129.090 254.655,128.711 254.367,128.358 254.166 C 124.530 251.984,118.790 245.941,114.724 239.815 C 112.341 236.222,111.567 234.711,108.775 228.200 C 108.184 226.820,106.775 222.278,106.356 220.400 C 105.350 215.895,105.138 214.850,104.777 212.600 C 103.624 205.427,103.216 191.521,104.008 186.400 C 104.195 185.190,104.473 183.341,104.627 182.291 C 104.781 181.241,105.062 180.285,105.253 180.167 C 105.444 180.049,105.601 179.558,105.602 179.076 C 105.609 176.087,112.892 161.001,115.198 159.200 C 117.731 157.221,119.116 153.769,118.007 152.200 C 114.625 147.416,116.012 125.082,120.245 116.161 L 120.915 114.749 124.758 114.926 C 131.914 115.256,139.312 117.591,148.744 122.495 C 152.898 124.655,160.217 128.970,161.247 129.865 C 161.768 130.319,162.234 130.342,163.647 129.984 C 164.611 129.740,166.120 129.388,167.000 129.203 C 167.880 129.017,169.770 128.606,171.200 128.290 C 173.706 127.735,179.250 126.909,186.421 126.023 C 190.841 125.476,208.353 125.476,212.779 126.022 C 221.814 127.137,228.398 128.201,232.200 129.160 C 237.556 130.511,237.023 130.582,241.068 127.970 C 243.086 126.666,244.931 125.600,245.168 125.600 C 245.406 125.600,245.601 125.465,245.603 125.300 C 245.605 125.135,246.010 124.804,246.503 124.565 C 246.996 124.325,249.020 123.309,251.000 122.305 C 252.980 121.302,255.230 120.214,256.000 119.887 C 256.770 119.561,258.210 118.937,259.200 118.502 C 261.677 117.414,264.988 116.424,270.106 115.241 C 273.683 114.414,278.292 114.655,278.869 115.700 C 279.954 117.667,281.896 124.481,282.830 129.600 C 283.497 133.256,283.385 143.155,282.637 146.600 C 282.303 148.140,281.919 149.940,281.784 150.600 C 281.650 151.260,281.390 152.160,281.206 152.600 C 280.398 154.538,280.449 154.808,281.959 156.553 C 285.584 160.741,290.064 168.246,292.016 173.400 C 293.017 176.043,293.703 178.507,294.744 183.200 C 296.112 189.370,296.261 197.166,295.199 207.000 C 294.421 214.196,292.945 221.813,291.963 223.695 C 291.763 224.077,291.600 224.612,291.600 224.885 C 291.600 227.275,285.950 238.348,282.279 243.153 C 271.964 256.655,253.849 265.554,231.757 267.971 C 228.018 268.381,227.681 268.613,228.908 269.944 C 231.211 272.441,233.688 276.847,235.123 281.000 C 237.130 286.807,237.200 287.911,237.200 313.934 C 237.200 334.014,237.299 338.540,237.765 339.651 C 239.899 344.750,245.273 345.266,254.200 341.228 C 255.080 340.830,256.250 340.367,256.800 340.199 C 259.836 339.272,272.338 333.034,276.692 330.273 C 277.623 329.683,278.498 329.200,278.636 329.200 C 278.775 329.200,280.047 328.390,281.463 327.400 C 282.880 326.410,284.210 325.600,284.419 325.600 C 284.629 325.600,284.800 325.459,284.800 325.286 C 284.800 325.114,285.307 324.673,285.926 324.308 C 292.688 320.313,305.362 308.879,314.215 298.785 C 318.458 293.949,327.270 281.584,329.456 277.400 C 329.916 276.520,330.705 275.080,331.211 274.200 C 332.732 271.551,336.157 264.747,337.151 262.400 C 337.664 261.190,338.353 259.570,338.682 258.800 C 339.578 256.707,339.851 255.993,340.589 253.800 C 340.959 252.700,341.422 251.440,341.617 251.000 C 341.813 250.560,342.351 248.940,342.813 247.400 C 343.275 245.860,343.912 243.756,344.227 242.725 C 344.542 241.694,344.800 240.489,344.800 240.048 C 344.800 239.608,344.980 239.136,345.200 239.000 C 345.420 238.864,345.600 238.322,345.600 237.795 C 345.600 237.269,345.764 236.424,345.965 235.919 C 346.165 235.413,346.630 233.200,346.997 231.000 C 347.365 228.800,347.822 226.100,348.013 225.000 C 350.029 213.385,350.315 198.363,348.765 185.600 C 347.950 178.890,345.968 168.163,345.181 166.200 C 345.005 165.760,344.774 164.950,344.669 164.400 C 344.313 162.533,342.799 157.403,342.398 156.705 C 342.179 156.323,342.000 155.736,342.000 155.400 C 342.000 155.064,341.834 154.477,341.632 154.095 C 341.429 153.713,340.417 151.150,339.382 148.400 C 337.795 144.181,332.270 132.243,331.606 131.600 C 331.493 131.490,331.204 131.040,330.964 130.600 C 324.825 119.336,315.789 107.379,306.352 98.034 C 302.993 94.706,298.853 90.893,296.993 89.414 C 295.897 88.541,294.910 87.717,294.800 87.583 C 291.332 83.341,271.330 71.312,258.600 65.812 C 257.940 65.526,256.585 64.930,255.588 64.486 C 252.601 63.155,241.874 59.755,236.300 58.372 C 235.475 58.167,234.125 57.825,233.300 57.612 C 230.944 57.002,224.172 55.848,217.000 54.834 C 213.478 54.337,201.325 53.568,198.400 53.658 C 197.190 53.696,193.860 53.878,191.000 54.064 M102.762 265.846 C 102.132 266.605,103.489 268.000,104.857 268.000 C 106.081 268.000,106.260 266.802,105.162 265.958 C 103.971 265.042,103.449 265.018,102.762 265.846 M109.300 270.665 C 107.829 271.259,109.927 274.624,111.573 274.311 C 112.618 274.112,112.547 272.511,111.445 271.409 C 110.421 270.385,110.192 270.305,109.300 270.665 M114.880 278.480 C 113.631 279.729,115.461 282.800,117.455 282.800 C 118.284 282.800,118.400 282.612,118.400 281.270 C 118.400 278.927,116.187 277.173,114.880 278.480 M121.867 287.067 C 120.631 288.302,122.814 291.200,124.981 291.200 C 126.330 291.200,126.400 291.133,126.400 289.829 C 126.400 287.760,123.152 285.781,121.867 287.067 M132.065 293.551 C 130.235 294.711,133.625 297.765,135.871 296.980 C 137.378 296.453,137.630 294.746,136.334 293.839 C 135.358 293.155,132.946 292.993,132.065 293.551 M155.983 294.618 C 155.230 295.419,155.118 295.781,155.455 296.318 C 156.511 298.001,159.864 297.748,160.847 295.912 C 161.982 293.791,157.804 292.680,155.983 294.618 M144.179 296.023 C 142.775 297.574,144.926 299.166,147.717 298.642 C 149.328 298.340,149.907 297.320,149.208 296.015 C 148.583 294.846,145.239 294.852,144.179 296.023 " stroke="none" fill="#141414" fill-rule="evenodd"></path><path id="path1" d="M0.000 200.000 L 0.000 400.000 200.000 400.000 L 400.000 400.000 400.000 200.000 L 400.000 0.000 200.000 0.000 L 0.000 0.000 0.000 200.000 M214.800 54.007 C 218.886 54.425,222.604 54.944,225.800 55.544 C 226.900 55.751,228.790 56.103,230.000 56.328 C 234.888 57.235,246.871 60.483,249.400 61.587 C 249.840 61.779,251.550 62.427,253.200 63.027 C 254.850 63.628,257.010 64.473,258.000 64.906 C 258.990 65.339,260.430 65.963,261.200 66.293 C 263.948 67.470,271.825 71.357,273.200 72.215 C 273.970 72.695,275.487 73.608,276.570 74.244 C 279.896 76.195,280.481 76.560,284.200 78.994 C 286.180 80.291,287.890 81.458,288.000 81.589 C 288.110 81.719,289.190 82.535,290.400 83.400 C 291.610 84.265,292.690 85.070,292.800 85.187 C 292.910 85.304,293.900 86.118,295.000 86.996 C 311.022 99.778,324.803 116.860,334.373 135.800 C 337.214 141.422,339.121 145.676,340.380 149.200 C 340.656 149.970,341.034 150.960,341.222 151.400 C 341.668 152.447,344.150 160.095,344.792 162.400 C 345.067 163.390,345.434 164.650,345.606 165.200 C 346.054 166.631,347.474 173.456,348.352 178.400 C 350.762 191.963,350.940 209.480,348.814 223.800 C 347.954 229.596,346.285 238.100,345.635 240.000 C 345.447 240.550,345.069 241.810,344.796 242.800 C 343.981 245.753,340.358 256.476,339.592 258.200 C 339.201 259.080,338.460 260.790,337.945 262.000 C 328.019 285.324,308.964 308.847,288.200 323.409 C 286.660 324.489,285.310 325.472,285.200 325.592 C 284.910 325.911,278.846 329.796,277.200 330.718 C 276.430 331.149,274.655 332.156,273.255 332.955 C 269.153 335.296,257.597 340.800,256.784 340.800 C 256.567 340.800,256.077 340.959,255.695 341.153 C 249.808 344.148,243.561 345.224,240.680 343.741 C 236.659 341.670,236.722 342.150,236.640 313.060 C 236.585 293.625,236.450 287.431,236.051 286.200 C 235.766 285.320,235.347 283.880,235.121 283.000 C 234.684 281.305,234.527 280.857,233.362 278.000 C 232.439 275.736,230.195 272.226,228.504 270.400 C 226.868 268.634,226.867 268.087,228.500 267.839 C 242.195 265.764,244.354 265.326,250.400 263.399 C 252.270 262.803,254.208 262.223,254.706 262.110 C 255.204 261.997,255.710 261.746,255.830 261.552 C 255.949 261.359,256.331 261.200,256.677 261.200 C 257.023 261.200,259.531 260.088,262.249 258.728 C 279.151 250.275,289.805 235.440,293.365 215.400 C 294.803 207.309,294.926 205.827,294.936 196.600 C 294.950 182.457,292.747 173.607,286.942 164.492 C 286.204 163.333,285.600 162.208,285.600 161.992 C 285.600 161.777,285.459 161.600,285.286 161.600 C 285.114 161.600,284.675 161.105,284.312 160.500 C 283.949 159.895,282.925 158.590,282.035 157.600 C 279.968 155.299,279.817 154.789,280.521 152.492 C 283.260 143.564,283.508 134.740,281.292 125.000 C 280.795 122.817,278.857 116.719,278.459 116.086 C 277.246 114.158,265.985 116.130,258.083 119.654 C 257.139 120.075,255.609 120.722,254.683 121.091 C 253.757 121.460,251.948 122.356,250.662 123.081 C 249.375 123.806,248.267 124.400,248.198 124.400 C 248.129 124.400,246.121 125.594,243.736 127.053 C 241.351 128.512,238.927 129.988,238.350 130.332 C 237.381 130.909,236.996 130.886,233.350 130.025 C 211.752 124.925,187.481 124.845,167.000 129.807 C 162.375 130.927,162.036 130.946,160.574 130.158 C 159.818 129.751,159.200 129.279,159.200 129.109 C 159.200 128.939,159.023 128.800,158.808 128.800 C 158.592 128.800,157.446 128.180,156.261 127.422 C 152.151 124.793,145.725 121.427,141.800 119.848 C 140.260 119.229,138.640 118.578,138.200 118.401 C 133.698 116.597,125.069 114.910,122.654 115.363 C 121.009 115.672,120.517 116.407,119.415 120.200 C 119.032 121.520,118.576 123.050,118.402 123.600 C 116.902 128.344,116.354 143.739,117.525 148.200 C 118.608 152.322,118.948 153.410,119.270 153.780 C 119.823 154.416,119.688 154.667,117.072 157.888 C 110.747 165.674,107.164 173.510,104.857 184.600 C 103.849 189.442,104.005 203.141,105.157 211.000 C 107.822 229.179,114.622 242.330,126.321 251.931 C 127.707 253.069,128.978 254.000,129.145 254.000 C 129.312 254.000,129.798 254.318,130.225 254.706 C 131.928 256.257,141.294 261.200,142.528 261.200 C 142.824 261.200,143.186 261.319,143.332 261.465 C 143.675 261.808,147.184 263.065,150.000 263.853 C 151.210 264.192,152.830 264.647,153.600 264.865 C 156.622 265.718,165.280 267.295,169.700 267.797 C 172.352 268.098,172.488 268.434,170.748 270.400 C 167.179 274.434,164.552 280.042,163.442 286.000 L 162.958 288.600 160.179 289.655 C 158.650 290.235,156.680 290.896,155.800 291.123 C 154.920 291.351,153.414 291.744,152.454 291.998 C 150.214 292.590,140.357 292.619,139.269 292.037 C 138.820 291.797,138.093 291.600,137.653 291.600 C 133.005 291.600,118.400 279.631,118.400 275.823 C 118.400 274.703,112.537 268.438,109.400 266.205 C 103.783 262.208,97.299 260.219,93.133 261.214 C 87.533 262.552,88.226 264.630,96.103 270.122 C 103.056 274.970,106.778 280.142,112.708 293.200 C 114.533 297.218,121.624 304.800,123.557 304.800 C 123.801 304.800,124.000 304.936,124.000 305.102 C 124.000 305.269,124.585 305.657,125.300 305.965 C 126.015 306.273,127.489 306.947,128.575 307.463 C 129.661 307.978,130.788 308.400,131.080 308.400 C 131.372 308.400,131.923 308.559,132.305 308.753 C 136.070 310.665,150.442 310.923,160.114 309.253 C 161.167 309.071,162.103 309.043,162.194 309.190 C 162.744 310.081,162.563 339.134,162.000 340.226 C 159.826 344.441,155.537 345.501,149.230 343.382 C 146.193 342.362,145.847 342.229,143.140 341.041 C 142.336 340.688,141.577 340.400,141.451 340.400 C 140.151 340.400,125.752 333.031,120.826 329.845 C 119.258 328.830,117.889 328.000,117.783 328.000 C 117.528 328.000,111.010 323.455,108.800 321.735 C 102.057 316.489,98.659 313.499,92.984 307.820 C 84.827 299.657,82.981 297.525,77.732 290.200 C 76.471 288.440,75.324 286.910,75.183 286.800 C 74.833 286.527,70.225 279.239,69.060 277.116 C 68.542 276.172,67.526 274.320,66.802 273.000 C 64.124 268.120,60.792 261.157,60.199 259.200 C 60.032 258.650,59.566 257.480,59.162 256.600 C 58.759 255.720,57.612 252.480,56.613 249.400 C 54.342 242.398,54.230 242.017,53.419 238.600 C 53.053 237.060,52.585 235.247,52.377 234.572 C 52.170 233.896,52.000 232.869,52.000 232.290 C 52.000 231.711,51.836 230.824,51.635 230.319 C 51.300 229.475,50.746 225.738,49.627 216.779 C 49.074 212.352,49.074 192.848,49.627 188.421 C 50.746 179.462,51.300 175.725,51.635 174.881 C 51.836 174.376,52.000 173.439,52.000 172.800 C 52.000 172.161,52.160 171.224,52.355 170.719 C 52.550 170.213,52.923 168.810,53.184 167.600 C 53.737 165.035,54.741 161.347,55.200 160.200 C 55.376 159.760,55.831 158.320,56.212 157.000 C 57.646 152.024,61.481 142.569,64.568 136.400 C 67.129 131.282,74.327 119.077,75.184 118.400 C 75.323 118.290,76.554 116.642,77.918 114.738 C 79.283 112.835,81.051 110.495,81.848 109.538 C 82.645 108.582,84.124 106.810,85.133 105.600 C 88.967 101.004,101.323 89.056,104.557 86.816 C 105.021 86.495,105.669 85.969,105.999 85.646 C 108.251 83.440,120.467 75.309,126.200 72.201 C 130.087 70.093,137.459 66.400,137.780 66.400 C 137.888 66.400,139.006 65.929,140.265 65.353 C 146.553 62.477,157.904 58.813,166.000 57.047 C 174.782 55.131,181.486 54.125,189.000 53.594 C 194.541 53.203,209.240 53.438,214.800 54.007 M105.874 265.670 C 106.975 266.704,107.018 267.096,106.138 268.069 C 105.030 269.293,102.000 268.110,102.000 266.453 C 102.000 264.704,104.343 264.231,105.874 265.670 M112.164 271.231 C 113.458 272.767,113.479 273.799,112.233 274.615 C 111.195 275.295,110.002 274.928,108.933 273.600 C 106.709 270.836,109.877 268.513,112.164 271.231 M118.164 278.831 C 120.273 281.336,118.635 284.626,116.100 282.976 C 114.538 281.960,114.027 281.177,114.013 279.780 C 113.987 277.305,116.414 276.750,118.164 278.831 M126.100 287.605 C 128.038 289.732,127.411 291.813,124.852 291.746 C 121.982 291.671,119.921 288.479,121.636 286.764 C 122.764 285.636,124.625 285.986,126.100 287.605 M137.100 293.702 C 139.828 296.240,135.888 298.870,132.475 296.789 C 131.355 296.106,131.170 295.784,131.275 294.700 C 131.504 292.349,135.002 291.750,137.100 293.702 M160.546 293.629 C 162.703 295.325,161.004 298.000,157.770 298.000 C 155.064 298.000,153.685 295.331,155.700 293.996 C 157.858 292.566,159.078 292.474,160.546 293.629 M149.416 295.213 C 150.373 296.008,150.131 297.839,148.946 298.771 C 146.175 300.951,141.283 297.794,143.900 295.514 C 145.283 294.309,148.139 294.153,149.416 295.213 " stroke="none" fill="#fbfbfb" fill-rule="evenodd"></path><path id="path2" d="M196.500 53.497 C 198.205 53.572,200.995 53.572,202.700 53.497 C 204.405 53.422,203.010 53.361,199.600 53.361 C 196.190 53.361,194.795 53.422,196.500 53.497 M187.500 53.882 C 187.995 53.978,188.805 53.978,189.300 53.882 C 189.795 53.787,189.390 53.709,188.400 53.709 C 187.410 53.709,187.005 53.787,187.500 53.882 M209.900 53.882 C 210.395 53.978,211.205 53.978,211.700 53.882 C 212.195 53.787,211.790 53.709,210.800 53.709 C 209.810 53.709,209.405 53.787,209.900 53.882 M182.900 54.287 C 183.505 54.378,184.495 54.378,185.100 54.287 C 185.705 54.195,185.210 54.120,184.000 54.120 C 182.790 54.120,182.295 54.195,182.900 54.287 M214.307 54.290 C 215.026 54.379,216.106 54.377,216.707 54.286 C 217.308 54.195,216.720 54.122,215.400 54.124 C 214.080 54.126,213.588 54.201,214.307 54.290 M175.400 55.210 C 174.866 55.447,175.198 55.486,176.400 55.327 C 177.390 55.196,178.275 55.024,178.367 54.944 C 178.714 54.643,176.164 54.872,175.400 55.210 M220.833 54.944 C 220.925 55.024,221.810 55.206,222.800 55.350 C 224.058 55.533,224.419 55.491,224.000 55.212 C 223.460 54.853,220.432 54.597,220.833 54.944 M171.000 56.000 C 169.981 56.438,171.032 56.438,172.400 56.000 C 173.204 55.743,173.243 55.677,172.600 55.668 C 172.160 55.662,171.440 55.811,171.000 56.000 M226.800 56.000 C 228.168 56.438,229.219 56.438,228.200 56.000 C 227.760 55.811,227.040 55.662,226.600 55.668 C 225.957 55.677,225.996 55.743,226.800 56.000 M167.000 56.800 C 165.981 57.238,167.032 57.238,168.400 56.800 C 169.204 56.543,169.243 56.477,168.600 56.468 C 168.160 56.462,167.440 56.611,167.000 56.800 M231.000 56.800 C 231.440 56.989,232.160 57.138,232.600 57.132 C 233.243 57.123,233.204 57.057,232.400 56.800 C 231.032 56.362,229.981 56.362,231.000 56.800 M162.000 58.018 C 161.562 58.315,161.724 58.352,162.600 58.156 C 164.071 57.827,164.390 57.598,163.367 57.606 C 162.945 57.609,162.330 57.795,162.000 58.018 M158.800 58.818 C 158.362 59.115,158.524 59.152,159.400 58.956 C 160.871 58.627,161.190 58.398,160.167 58.406 C 159.745 58.409,159.130 58.595,158.800 58.818 M238.433 58.544 C 238.525 58.623,239.140 58.808,239.800 58.956 C 240.676 59.152,240.838 59.115,240.400 58.818 C 239.860 58.453,238.032 58.198,238.433 58.544 M136.000 67.200 C 135.230 67.622,134.780 67.966,135.000 67.966 C 135.220 67.966,136.030 67.622,136.800 67.200 C 137.570 66.778,138.020 66.434,137.800 66.434 C 137.580 66.434,136.770 66.778,136.000 67.200 M122.900 74.012 C 121.745 74.674,120.800 75.310,120.800 75.425 C 120.800 75.643,124.321 73.714,124.980 73.134 C 125.681 72.518,125.015 72.799,122.900 74.012 M116.500 78.046 C 115.137 78.919,114.695 79.506,115.900 78.843 C 116.818 78.339,118.256 77.227,118.000 77.219 C 117.890 77.216,117.215 77.588,116.500 78.046 M112.200 81.035 L 111.000 82.066 112.300 81.206 C 113.015 80.733,113.600 80.268,113.600 80.173 C 113.600 79.873,113.431 79.978,112.200 81.035 M286.400 80.764 C 286.950 81.214,287.580 81.583,287.800 81.585 C 288.228 81.588,287.505 81.034,286.200 80.360 C 285.669 80.085,285.736 80.221,286.400 80.764 M108.028 84.004 C 106.613 85.102,105.578 86.000,105.727 86.000 C 106.021 86.000,110.800 82.360,110.800 82.136 C 110.800 81.874,110.581 82.022,108.028 84.004 M289.600 82.970 C 289.600 83.060,290.320 83.703,291.200 84.400 C 292.080 85.097,292.793 85.517,292.785 85.334 C 292.770 85.005,289.600 82.653,289.600 82.970 M294.982 87.288 C 295.872 88.106,296.749 88.781,296.931 88.788 C 297.113 88.795,296.663 88.316,295.931 87.724 C 293.687 85.911,293.283 85.725,294.982 87.288 M103.367 87.829 L 101.800 89.258 103.500 87.962 C 105.053 86.778,105.432 86.400,105.067 86.400 C 104.993 86.400,104.228 87.043,103.367 87.829 M298.400 90.055 C 300.690 92.345,305.333 96.542,304.789 95.829 C 304.465 95.406,303.390 94.307,302.400 93.387 C 300.099 91.250,297.083 88.737,298.400 90.055 M94.615 95.653 C 91.408 98.763,88.039 102.228,87.127 103.353 C 86.216 104.479,86.856 103.923,88.550 102.118 C 90.245 100.313,93.735 96.848,96.306 94.418 C 98.877 91.988,100.860 90.000,100.713 90.000 C 100.565 90.000,97.821 92.544,94.615 95.653 M311.177 102.600 C 314.167 105.926,314.746 106.470,313.304 104.600 C 312.626 103.720,311.384 102.370,310.545 101.600 C 309.547 100.684,309.765 101.030,311.177 102.600 M79.375 112.668 C 78.759 113.476,78.459 114.011,78.709 113.856 C 79.221 113.540,80.953 111.200,80.675 111.200 C 80.576 111.200,79.991 111.861,79.375 112.668 M321.423 115.100 C 322.882 117.135,324.155 118.800,324.252 118.800 C 324.504 118.800,321.208 114.171,319.885 112.667 C 319.272 111.970,319.964 113.065,321.423 115.100 M120.555 116.212 C 120.190 116.769,119.990 117.323,120.109 117.443 C 120.229 117.562,120.449 117.275,120.599 116.804 C 120.748 116.333,121.260 115.791,121.735 115.599 C 122.407 115.328,122.446 115.245,121.909 115.225 C 121.529 115.211,120.920 115.656,120.555 116.212 M127.000 115.600 C 127.660 115.768,128.740 115.906,129.400 115.907 C 130.409 115.908,130.345 115.855,129.000 115.577 C 126.974 115.158,125.337 115.177,127.000 115.600 M270.400 115.600 C 269.043 115.886,269.037 115.895,270.200 115.907 C 270.860 115.915,271.850 115.776,272.400 115.600 C 273.712 115.180,272.396 115.180,270.400 115.600 M265.200 116.818 C 264.762 117.115,264.924 117.152,265.800 116.956 C 267.271 116.627,267.590 116.398,266.567 116.406 C 266.145 116.409,265.530 116.595,265.200 116.818 M119.240 119.440 C 119.010 120.273,118.894 121.027,118.982 121.115 C 119.070 121.203,119.330 120.593,119.560 119.760 C 119.790 118.927,119.906 118.173,119.818 118.085 C 119.730 117.997,119.470 118.607,119.240 119.440 M74.264 119.600 C 73.874 120.260,73.621 120.800,73.702 120.800 C 73.783 120.800,74.249 120.260,74.737 119.600 C 75.225 118.940,75.477 118.400,75.298 118.400 C 75.119 118.400,74.654 118.940,74.264 119.600 M257.000 119.774 C 255.900 120.303,255.112 120.751,255.249 120.768 C 255.616 120.815,259.200 119.194,259.200 118.981 C 259.200 118.716,259.180 118.724,257.000 119.774 M280.056 120.400 C 280.056 120.730,280.211 121.360,280.400 121.800 C 280.617 122.304,280.744 122.378,280.744 122.000 C 280.744 121.670,280.589 121.040,280.400 120.600 C 280.183 120.096,280.056 120.022,280.056 120.400 M118.446 122.067 C 118.421 122.434,118.296 123.064,118.170 123.467 C 117.952 124.162,117.963 124.163,118.397 123.487 C 118.648 123.096,118.773 122.466,118.673 122.087 C 118.511 121.468,118.488 121.466,118.446 122.067 M326.349 122.200 C 326.565 122.640,327.034 123.360,327.393 123.800 L 328.044 124.600 327.651 123.800 C 327.435 123.360,326.966 122.640,326.607 122.200 L 325.956 121.400 326.349 122.200 M72.153 122.900 C 70.776 125.236,70.686 125.435,71.387 124.600 C 72.200 123.632,72.900 122.400,72.638 122.400 C 72.533 122.400,72.315 122.625,72.153 122.900 M148.000 122.584 C 148.000 122.694,148.720 123.151,149.600 123.600 C 150.480 124.049,151.200 124.326,151.200 124.216 C 151.200 124.106,150.480 123.649,149.600 123.200 C 148.720 122.751,148.000 122.474,148.000 122.584 M281.206 124.833 C 281.209 125.365,281.389 126.070,281.606 126.400 C 281.882 126.822,281.923 126.585,281.742 125.600 C 281.425 123.875,281.198 123.549,281.206 124.833 M245.000 125.852 C 242.014 127.621,241.066 128.509,243.831 126.947 C 246.032 125.704,247.920 124.446,247.600 124.436 C 247.490 124.433,246.320 125.070,245.000 125.852 M328.349 125.400 C 328.565 125.840,329.034 126.560,329.393 127.000 L 330.044 127.800 329.651 127.000 C 329.435 126.560,328.966 125.840,328.607 125.400 L 327.956 124.600 328.349 125.400 M117.429 126.229 C 117.281 126.815,117.238 127.372,117.332 127.466 C 117.427 127.560,117.624 127.158,117.771 126.571 C 117.919 125.985,117.962 125.428,117.868 125.334 C 117.773 125.240,117.576 125.642,117.429 126.229 M197.100 125.896 C 198.475 125.974,200.725 125.974,202.100 125.896 C 203.475 125.818,202.350 125.754,199.600 125.754 C 196.850 125.754,195.725 125.818,197.100 125.896 M189.705 126.287 C 190.314 126.379,191.214 126.377,191.705 126.282 C 192.197 126.187,191.700 126.111,190.600 126.114 C 189.500 126.117,189.097 126.195,189.705 126.287 M207.705 126.287 C 208.314 126.379,209.214 126.377,209.705 126.282 C 210.197 126.187,209.700 126.111,208.600 126.114 C 207.500 126.117,207.097 126.195,207.705 126.287 M184.707 126.690 C 185.426 126.779,186.506 126.777,187.107 126.686 C 187.708 126.595,187.120 126.522,185.800 126.524 C 184.480 126.526,183.988 126.601,184.707 126.690 M212.500 126.687 C 213.105 126.778,214.095 126.778,214.700 126.687 C 215.305 126.595,214.810 126.520,213.600 126.520 C 212.390 126.520,211.895 126.595,212.500 126.687 M157.200 127.964 C 157.750 128.414,158.380 128.783,158.600 128.785 C 159.028 128.788,158.305 128.234,157.000 127.560 C 156.469 127.285,156.536 127.421,157.200 127.964 M176.600 127.600 C 175.522 127.874,175.502 127.906,176.400 127.913 C 176.950 127.917,177.850 127.776,178.400 127.600 C 179.744 127.169,178.292 127.169,176.600 127.600 M220.800 127.600 C 221.350 127.776,222.250 127.917,222.800 127.913 C 223.698 127.906,223.678 127.874,222.600 127.600 C 220.908 127.169,219.456 127.169,220.800 127.600 M172.200 128.400 C 171.093 128.682,171.077 128.709,172.000 128.747 C 172.550 128.769,173.270 128.613,173.600 128.400 C 174.281 127.960,173.929 127.960,172.200 128.400 M225.800 128.381 C 226.568 128.729,228.710 128.956,228.367 128.653 C 228.275 128.572,227.480 128.396,226.600 128.262 C 225.485 128.093,225.242 128.129,225.800 128.381 M282.087 129.200 C 282.083 129.750,282.224 130.650,282.400 131.200 C 282.831 132.544,282.831 131.092,282.400 129.400 C 282.126 128.322,282.094 128.302,282.087 129.200 M168.200 129.200 C 167.093 129.482,167.077 129.509,168.000 129.547 C 168.550 129.569,169.270 129.413,169.600 129.200 C 170.281 128.760,169.929 128.760,168.200 129.200 M238.900 129.646 C 237.537 130.519,237.095 131.106,238.300 130.443 C 239.218 129.939,240.656 128.827,240.400 128.819 C 240.290 128.816,239.615 129.188,238.900 129.646 M116.657 130.700 C 116.342 132.603,116.411 143.812,116.747 145.377 C 116.886 146.025,117.000 142.650,117.000 137.877 C 117.000 133.105,116.979 129.200,116.952 129.200 C 116.926 129.200,116.793 129.875,116.657 130.700 M230.433 129.347 C 230.525 129.428,231.320 129.604,232.200 129.738 C 233.315 129.907,233.558 129.871,233.000 129.619 C 232.232 129.271,230.090 129.044,230.433 129.347 M331.160 130.200 C 331.834 131.505,332.388 132.228,332.385 131.800 C 332.383 131.580,332.014 130.950,331.564 130.400 C 331.021 129.736,330.885 129.669,331.160 130.200 M163.400 130.400 C 162.896 130.617,162.822 130.744,163.200 130.744 C 163.530 130.744,164.160 130.589,164.600 130.400 C 165.104 130.183,165.178 130.056,164.800 130.056 C 164.470 130.056,163.840 130.211,163.400 130.400 M234.033 130.144 C 234.125 130.223,234.740 130.408,235.400 130.556 C 236.276 130.752,236.438 130.715,236.000 130.418 C 235.460 130.053,233.632 129.798,234.033 130.144 M282.909 137.600 C 282.909 138.590,282.987 138.995,283.082 138.500 C 283.178 138.005,283.178 137.195,283.082 136.700 C 282.987 136.205,282.909 136.610,282.909 137.600 M335.878 139.395 C 336.244 140.162,336.614 140.719,336.701 140.632 C 336.884 140.449,335.670 138.000,335.396 138.000 C 335.295 138.000,335.512 138.628,335.878 139.395 M61.053 143.735 C 60.325 145.478,59.844 147.053,60.117 146.800 C 60.449 146.493,62.014 142.400,61.800 142.400 C 61.696 142.400,61.360 143.001,61.053 143.735 M282.200 145.200 C 282.046 146.110,282.004 146.938,282.107 147.040 C 282.210 147.143,282.413 146.477,282.560 145.560 C 282.707 144.643,282.748 143.815,282.653 143.720 C 282.558 143.624,282.354 144.290,282.200 145.200 M339.267 147.220 C 339.501 147.892,339.767 148.367,339.857 148.276 C 340.056 148.078,339.301 146.000,339.031 146.000 C 338.927 146.000,339.033 146.549,339.267 147.220 M117.256 148.000 C 117.256 148.330,117.411 148.960,117.600 149.400 C 117.817 149.904,117.944 149.978,117.944 149.600 C 117.944 149.270,117.789 148.640,117.600 148.200 C 117.383 147.696,117.256 147.622,117.256 148.000 M281.449 149.015 C 281.312 149.373,281.215 149.966,281.234 150.333 C 281.253 150.700,281.427 150.469,281.621 149.820 C 281.998 148.558,281.865 147.933,281.449 149.015 M57.644 152.444 C 57.398 153.151,57.266 153.800,57.352 153.885 C 57.438 153.971,57.709 153.462,57.956 152.756 C 58.202 152.049,58.334 151.400,58.248 151.315 C 58.162 151.229,57.891 151.738,57.644 152.444 M117.193 157.300 C 114.964 160.003,114.290 160.979,115.729 159.422 C 117.262 157.764,119.307 155.200,119.096 155.200 C 119.002 155.200,118.146 156.145,117.193 157.300 M281.234 156.647 C 281.765 157.333,282.280 157.823,282.379 157.735 C 282.477 157.647,282.043 157.086,281.413 156.488 L 280.269 155.400 281.234 156.647 M285.615 162.200 C 285.617 162.420,285.986 163.050,286.436 163.600 C 286.979 164.264,287.115 164.331,286.840 163.800 C 286.166 162.495,285.612 161.772,285.615 162.200 M54.000 164.000 C 53.751 164.924,53.626 165.759,53.721 165.855 C 53.817 165.950,54.090 165.263,54.327 164.327 C 54.565 163.391,54.690 162.557,54.606 162.473 C 54.522 162.388,54.249 163.076,54.000 164.000 M112.953 162.900 C 111.576 165.236,111.486 165.435,112.187 164.600 C 113.000 163.632,113.700 162.400,113.438 162.400 C 113.333 162.400,113.115 162.625,112.953 162.900 M345.444 165.800 C 345.773 167.271,346.002 167.590,345.994 166.567 C 345.991 166.145,345.805 165.530,345.582 165.200 C 345.285 164.762,345.248 164.924,345.444 165.800 M53.029 167.829 C 52.881 168.415,52.838 168.972,52.932 169.066 C 53.027 169.160,53.224 168.758,53.371 168.171 C 53.519 167.585,53.562 167.028,53.468 166.934 C 53.373 166.840,53.176 167.242,53.029 167.829 M109.580 168.839 C 109.120 169.740,108.813 170.546,108.897 170.630 C 108.981 170.714,109.441 169.976,109.919 168.991 C 111.009 166.747,110.715 166.615,109.580 168.839 M52.273 170.953 C 52.123 171.345,52.011 171.966,52.025 172.333 C 52.042 172.775,52.181 172.674,52.437 172.034 C 52.649 171.503,52.761 170.882,52.685 170.654 C 52.609 170.427,52.424 170.561,52.273 170.953 M290.446 171.000 C 290.453 171.220,290.806 172.120,291.229 173.000 C 291.652 173.880,291.886 174.150,291.749 173.600 C 291.467 172.467,290.425 170.388,290.446 171.000 M347.268 174.000 C 347.288 175.039,347.918 176.746,347.932 175.800 C 347.938 175.360,347.789 174.640,347.600 174.200 C 347.389 173.710,347.261 173.632,347.268 174.000 M51.449 175.015 C 51.312 175.373,51.221 176.146,51.246 176.733 C 51.280 177.532,51.370 177.398,51.604 176.200 C 51.935 174.500,51.862 173.940,51.449 175.015 M348.273 179.600 C 348.404 180.590,348.576 181.475,348.656 181.567 C 348.957 181.914,348.728 179.364,348.390 178.600 C 348.153 178.066,348.114 178.398,348.273 179.600 M105.646 179.667 C 105.621 180.034,105.496 180.664,105.370 181.067 C 105.152 181.762,105.163 181.763,105.597 181.087 C 105.848 180.696,105.973 180.066,105.873 179.687 C 105.711 179.068,105.688 179.066,105.646 179.667 M50.229 182.829 C 50.076 184.179,50.033 185.366,50.133 185.467 C 50.234 185.567,50.444 184.547,50.600 183.200 C 50.756 181.853,50.799 180.666,50.695 180.562 C 50.591 180.458,50.381 181.478,50.229 182.829 M293.879 182.000 C 294.244 184.633,294.823 186.235,294.530 183.800 C 294.398 182.700,294.141 181.440,293.959 181.000 C 293.761 180.518,293.729 180.916,293.879 182.000 M104.849 183.000 C 104.816 183.440,104.696 184.250,104.583 184.800 L 104.377 185.800 104.806 184.819 C 105.042 184.279,105.161 183.469,105.072 183.019 C 104.913 182.221,104.907 182.221,104.849 183.000 M349.320 187.200 C 349.320 188.410,349.395 188.905,349.487 188.300 C 349.578 187.695,349.578 186.705,349.487 186.100 C 349.395 185.495,349.320 185.990,349.320 187.200 M295.000 196.400 C 295.000 201.790,295.113 204.940,295.250 203.400 C 295.581 199.697,295.587 191.558,295.260 188.800 C 295.117 187.590,295.000 191.010,295.000 196.400 M49.481 189.756 C 49.327 190.832,49.224 192.542,49.253 193.556 C 49.293 194.948,49.391 194.616,49.653 192.200 C 50.043 188.596,49.914 186.749,49.481 189.756 M103.795 191.736 C 103.641 193.791,103.674 197.616,103.868 200.236 C 104.210 204.835,104.222 204.705,104.211 196.500 C 104.205 191.825,104.172 188.000,104.137 188.000 C 104.103 188.000,103.949 189.681,103.795 191.736 M349.709 191.600 C 349.709 192.590,349.787 192.995,349.882 192.500 C 349.978 192.005,349.978 191.195,349.882 190.700 C 349.787 190.205,349.709 190.610,349.709 191.600 M350.161 202.800 C 350.161 206.210,350.222 207.605,350.297 205.900 C 350.372 204.195,350.372 201.405,350.297 199.700 C 350.222 197.995,350.161 199.390,350.161 202.800 M104.463 208.200 C 104.454 208.640,104.595 209.720,104.777 210.600 L 105.108 212.200 105.114 210.800 C 105.117 210.030,104.976 208.950,104.800 208.400 C 104.541 207.591,104.477 207.553,104.463 208.200 M49.223 212.033 C 49.236 213.225,49.402 214.920,49.592 215.800 C 49.832 216.914,49.870 216.306,49.715 213.800 C 49.466 209.747,49.188 208.750,49.223 212.033 M294.101 211.400 C 294.105 212.280,294.187 212.593,294.283 212.095 C 294.379 211.598,294.375 210.878,294.275 210.495 C 294.175 210.113,294.096 210.520,294.101 211.400 M349.714 213.800 C 349.717 214.900,349.795 215.303,349.887 214.695 C 349.979 214.086,349.977 213.186,349.882 212.695 C 349.787 212.203,349.711 212.700,349.714 213.800 M105.462 214.600 C 105.596 215.480,105.772 216.275,105.853 216.367 C 106.156 216.710,105.929 214.568,105.581 213.800 C 105.329 213.242,105.293 213.485,105.462 214.600 M293.022 217.022 C 292.872 217.825,292.828 218.562,292.926 218.660 C 293.024 218.757,293.227 218.181,293.378 217.378 C 293.528 216.575,293.572 215.838,293.474 215.740 C 293.376 215.643,293.173 216.219,293.022 217.022 M349.272 217.650 C 349.232 218.668,349.111 220.107,349.001 220.850 L 348.803 222.200 349.222 220.865 C 349.452 220.131,349.574 218.691,349.493 217.665 L 349.344 215.800 349.272 217.650 M50.076 220.400 C 50.067 220.950,50.203 222.210,50.380 223.200 C 50.620 224.550,50.707 224.700,50.727 223.800 C 50.742 223.140,50.605 221.880,50.423 221.000 C 50.216 219.998,50.086 219.774,50.076 220.400 M292.273 220.153 C 292.123 220.545,292.011 221.166,292.025 221.533 C 292.042 221.975,292.181 221.874,292.437 221.234 C 292.649 220.703,292.761 220.082,292.685 219.854 C 292.609 219.627,292.424 219.761,292.273 220.153 M348.459 224.200 C 348.420 224.860,348.296 225.850,348.183 226.400 L 347.977 227.400 348.408 226.414 C 348.644 225.872,348.768 224.882,348.683 224.214 L 348.528 223.000 348.459 224.200 M290.444 226.444 C 290.198 227.151,290.066 227.800,290.152 227.885 C 290.238 227.971,290.509 227.462,290.756 226.756 C 291.002 226.049,291.134 225.400,291.048 225.315 C 290.962 225.229,290.691 225.738,290.444 226.444 M51.206 228.633 C 51.209 229.275,51.384 230.070,51.595 230.400 C 51.855 230.809,51.899 230.490,51.732 229.400 C 51.429 227.423,51.198 227.086,51.206 228.633 M109.226 228.400 C 109.233 228.987,110.750 232.049,110.783 231.544 C 110.792 231.403,110.444 230.503,110.009 229.544 C 109.574 228.585,109.221 228.070,109.226 228.400 M347.450 230.050 C 347.309 230.753,347.269 231.402,347.359 231.492 C 347.450 231.583,347.648 231.091,347.800 230.400 C 347.952 229.709,347.993 229.059,347.891 228.958 C 347.789 228.856,347.591 229.347,347.450 230.050 M52.034 233.000 C 52.022 233.440,52.187 234.070,52.400 234.400 C 52.914 235.195,52.914 234.196,52.400 233.000 L 52.056 232.200 52.034 233.000 M52.868 236.400 C 52.888 237.439,53.518 239.146,53.532 238.200 C 53.538 237.760,53.389 237.040,53.200 236.600 C 52.989 236.110,52.861 236.032,52.868 236.400 M285.414 237.435 C 285.041 238.004,284.805 238.538,284.889 238.622 C 284.973 238.707,285.358 238.241,285.744 237.588 C 286.606 236.128,286.348 236.009,285.414 237.435 M345.646 238.467 C 345.621 238.834,345.496 239.464,345.370 239.867 C 345.152 240.562,345.163 240.563,345.597 239.887 C 345.848 239.496,345.973 238.866,345.873 238.487 C 345.711 237.868,345.688 237.866,345.646 238.467 M54.006 241.033 C 54.009 241.455,54.195 242.070,54.418 242.400 C 54.715 242.838,54.752 242.676,54.556 241.800 C 54.227 240.329,53.998 240.010,54.006 241.033 M344.846 241.267 C 344.821 241.634,344.696 242.264,344.570 242.667 C 344.352 243.362,344.363 243.363,344.797 242.687 C 345.048 242.296,345.173 241.666,345.073 241.287 C 344.911 240.668,344.888 240.666,344.846 241.267 M116.800 242.400 C 117.270 243.060,117.744 243.600,117.854 243.600 C 117.964 243.600,117.670 243.060,117.200 242.400 C 116.730 241.740,116.256 241.200,116.146 241.200 C 116.036 241.200,116.330 241.740,116.800 242.400 M281.200 243.600 C 280.503 244.480,280.023 245.200,280.133 245.200 C 280.243 245.200,280.903 244.480,281.600 243.600 C 282.297 242.720,282.777 242.000,282.667 242.000 C 282.557 242.000,281.897 242.720,281.200 243.600 M120.404 246.804 C 122.716 249.412,123.600 250.267,123.600 249.896 C 123.600 249.812,122.521 248.587,121.202 247.172 C 119.883 245.757,118.803 244.465,118.802 244.300 C 118.801 244.135,118.601 244.000,118.359 244.000 C 118.116 244.000,119.036 245.262,120.404 246.804 M277.200 247.972 C 275.990 249.212,274.100 251.001,273.000 251.948 C 271.900 252.895,271.540 253.313,272.200 252.877 C 273.750 251.854,280.326 245.624,279.800 245.677 C 279.580 245.699,278.410 246.732,277.200 247.972 M57.429 252.000 C 57.576 252.550,57.864 253.270,58.067 253.600 C 58.325 254.017,58.357 253.895,58.171 253.200 C 58.024 252.650,57.736 251.930,57.533 251.600 C 57.275 251.183,57.243 251.305,57.429 252.000 M128.400 253.702 C 128.400 253.783,128.940 254.249,129.600 254.737 C 130.260 255.225,130.800 255.477,130.800 255.298 C 130.800 255.119,130.260 254.654,129.600 254.264 C 128.940 253.874,128.400 253.621,128.400 253.702 M340.400 254.919 C 340.400 255.057,340.027 256.122,339.571 257.285 C 339.116 258.448,338.909 259.220,339.111 259.000 C 339.670 258.393,340.864 255.130,340.617 254.883 C 340.498 254.764,340.400 254.780,340.400 254.919 M132.000 256.367 C 132.963 257.152,133.600 257.408,133.600 257.010 C 133.600 256.906,133.015 256.535,132.300 256.186 L 131.000 255.552 132.000 256.367 M60.630 260.400 C 61.009 261.390,61.487 262.380,61.691 262.600 C 61.895 262.820,61.750 262.190,61.370 261.200 C 60.991 260.210,60.513 259.220,60.309 259.000 C 60.105 258.780,60.250 259.410,60.630 260.400 M91.800 261.200 C 90.781 261.638,91.832 261.638,93.200 261.200 C 94.004 260.943,94.043 260.877,93.400 260.868 C 92.960 260.862,92.240 261.011,91.800 261.200 M97.600 261.200 C 98.150 261.376,98.960 261.520,99.400 261.520 C 100.033 261.520,99.992 261.454,99.200 261.200 C 98.650 261.024,97.840 260.880,97.400 260.880 C 96.767 260.880,96.808 260.946,97.600 261.200 M89.900 262.032 C 89.184 262.449,88.913 264.576,89.528 264.955 C 89.708 265.067,89.776 264.618,89.679 263.958 C 89.555 263.109,89.722 262.594,90.252 262.192 C 91.121 261.534,90.916 261.440,89.900 262.032 M104.033 262.949 C 104.445 263.317,106.800 264.400,106.800 264.221 C 106.800 263.990,104.582 262.800,104.153 262.800 C 103.996 262.800,103.942 262.867,104.033 262.949 M248.400 264.000 C 247.576 264.264,247.541 264.326,248.200 264.354 C 248.640 264.373,249.270 264.213,249.600 264.000 C 250.301 263.547,249.814 263.547,248.400 264.000 M150.033 264.144 C 150.125 264.223,150.740 264.408,151.400 264.556 C 152.276 264.752,152.438 264.715,152.000 264.418 C 151.460 264.053,149.632 263.798,150.033 264.144 M107.400 264.665 C 108.422 265.633,110.933 267.271,110.327 266.574 C 109.957 266.148,109.057 265.459,108.327 265.043 C 107.597 264.627,107.180 264.457,107.400 264.665 M335.878 265.805 C 335.512 266.572,335.295 267.200,335.396 267.200 C 335.670 267.200,336.884 264.751,336.701 264.568 C 336.614 264.481,336.244 265.038,335.878 265.805 M102.368 265.500 C 101.918 266.096,101.922 266.125,102.399 265.700 C 103.856 264.401,107.118 265.997,106.127 267.523 C 105.870 267.919,105.251 268.168,104.635 268.123 C 104.056 268.081,103.686 268.216,103.814 268.423 C 104.398 269.367,106.800 268.172,106.800 266.938 C 106.800 265.319,103.352 264.200,102.368 265.500 M244.000 265.218 C 243.562 265.515,243.724 265.552,244.600 265.356 C 246.071 265.027,246.390 264.798,245.367 264.806 C 244.945 264.809,244.330 264.995,244.000 265.218 M157.000 266.000 C 158.196 266.514,159.195 266.514,158.400 266.000 C 158.070 265.787,157.440 265.622,157.000 265.634 L 156.200 265.656 157.000 266.000 M240.400 266.000 C 239.605 266.514,240.604 266.514,241.800 266.000 L 242.600 265.656 241.800 265.634 C 241.360 265.622,240.730 265.787,240.400 266.000 M161.000 266.781 C 161.768 267.129,163.910 267.356,163.567 267.053 C 163.475 266.972,162.680 266.796,161.800 266.662 C 160.685 266.493,160.442 266.529,161.000 266.781 M236.000 266.800 C 234.633 267.088,234.628 267.095,235.800 267.119 C 236.460 267.133,237.360 266.989,237.800 266.800 C 238.762 266.387,237.964 266.387,236.000 266.800 M92.473 267.826 C 92.843 268.252,93.743 268.941,94.473 269.357 C 96.039 270.250,95.626 269.807,93.400 268.204 C 92.469 267.534,92.082 267.376,92.473 267.826 M113.400 269.590 C 114.720 271.015,115.845 272.260,115.900 272.357 C 115.955 272.454,116.085 272.448,116.189 272.344 C 116.293 272.240,115.168 270.995,113.689 269.578 L 111.000 267.000 113.400 269.590 M167.500 267.882 C 167.995 267.978,168.805 267.978,169.300 267.882 C 169.795 267.787,169.390 267.709,168.400 267.709 C 167.410 267.709,167.005 267.787,167.500 267.882 M229.100 267.882 C 229.595 267.978,230.405 267.978,230.900 267.882 C 231.395 267.787,230.990 267.709,230.000 267.709 C 229.010 267.709,228.605 267.787,229.100 267.882 M170.900 268.276 C 171.811 268.514,171.784 268.910,170.798 269.802 C 170.356 270.202,170.082 270.615,170.188 270.721 C 170.454 270.987,171.970 269.115,171.987 268.500 C 171.994 268.225,171.595 268.021,171.100 268.046 C 170.423 268.081,170.373 268.138,170.900 268.276 M227.200 268.530 C 227.200 268.822,227.695 269.497,228.300 270.030 L 229.400 271.000 228.458 269.930 C 227.940 269.341,227.636 268.666,227.782 268.430 C 227.928 268.193,227.857 268.000,227.624 268.000 C 227.391 268.000,227.200 268.239,227.200 268.530 M110.433 270.100 C 110.525 270.155,111.140 270.650,111.800 271.200 L 113.000 272.200 112.030 271.100 C 111.497 270.495,110.882 270.000,110.664 270.000 C 110.445 270.000,110.342 270.045,110.433 270.100 M99.290 272.844 C 100.330 273.810,101.926 275.410,102.838 276.400 C 103.749 277.390,103.519 277.046,102.327 275.635 C 101.134 274.225,99.538 272.624,98.779 272.079 C 97.796 271.372,97.943 271.592,99.290 272.844 M230.349 272.600 C 230.565 273.040,231.034 273.760,231.393 274.200 L 232.044 275.000 231.651 274.200 C 231.435 273.760,230.966 273.040,230.607 272.600 L 229.956 271.800 230.349 272.600 M112.800 273.186 C 112.800 274.073,111.704 274.791,110.800 274.496 C 110.328 274.342,110.302 274.409,110.679 274.809 C 111.330 275.500,113.200 274.299,113.200 273.191 C 113.200 272.756,113.110 272.400,113.000 272.400 C 112.890 272.400,112.800 272.754,112.800 273.186 M330.600 276.000 C 330.259 276.660,330.069 277.200,330.179 277.200 C 330.289 277.200,330.659 276.660,331.000 276.000 C 331.341 275.340,331.531 274.800,331.421 274.800 C 331.311 274.800,330.941 275.340,330.600 276.000 M118.415 275.800 C 118.417 276.020,118.786 276.650,119.236 277.200 C 119.779 277.864,119.915 277.931,119.640 277.400 C 118.966 276.095,118.412 275.372,118.415 275.800 M69.209 277.500 C 69.214 277.665,69.585 278.250,70.033 278.800 L 70.848 279.800 70.214 278.500 C 69.611 277.265,69.189 276.845,69.209 277.500 M114.480 278.080 C 113.954 278.606,113.820 281.041,114.300 281.339 C 114.465 281.441,114.600 280.777,114.600 279.863 C 114.600 277.770,116.163 277.306,117.942 278.869 L 119.000 279.800 118.030 278.700 C 116.999 277.530,115.322 277.238,114.480 278.080 M115.800 282.800 C 116.460 283.237,117.180 283.595,117.400 283.596 C 117.620 283.596,117.211 283.238,116.490 282.799 C 114.792 281.763,114.236 281.764,115.800 282.800 M124.200 283.600 C 125.059 284.480,125.852 285.200,125.962 285.200 C 126.072 285.200,125.459 284.480,124.600 283.600 C 123.741 282.720,122.948 282.000,122.838 282.000 C 122.728 282.000,123.341 282.720,124.200 283.600 M74.264 285.600 C 74.654 286.260,75.119 286.800,75.298 286.800 C 75.477 286.800,75.225 286.260,74.737 285.600 C 74.249 284.940,73.783 284.400,73.702 284.400 C 73.621 284.400,73.874 284.940,74.264 285.600 M235.668 285.000 C 235.662 285.440,235.811 286.160,236.000 286.600 C 236.438 287.619,236.438 286.568,236.000 285.200 C 235.743 284.396,235.677 284.357,235.668 285.000 M125.680 287.619 C 126.734 288.672,126.866 289.037,126.661 290.319 C 126.497 291.338,126.542 291.613,126.805 291.200 C 127.633 289.902,126.167 286.400,124.795 286.400 C 124.612 286.400,125.010 286.948,125.680 287.619 M162.752 287.513 C 162.621 288.307,162.679 288.681,162.901 288.459 C 163.103 288.257,163.201 287.667,163.119 287.146 C 162.993 286.345,162.937 286.402,162.752 287.513 M236.705 307.434 C 236.763 317.535,236.862 327.060,236.926 328.600 C 236.989 330.140,237.066 322.580,237.097 311.800 C 237.129 301.020,237.029 291.495,236.877 290.634 C 236.725 289.773,236.647 297.333,236.705 307.434 M320.744 291.100 C 319.593 292.489,319.106 293.200,319.304 293.200 C 319.414 293.200,319.986 292.570,320.573 291.800 C 321.663 290.371,321.795 289.832,320.744 291.100 M79.191 292.388 C 79.657 293.041,80.242 293.702,80.491 293.856 C 80.741 294.011,80.441 293.476,79.825 292.668 C 78.488 290.915,77.984 290.692,79.191 292.388 M139.221 292.021 C 139.755 292.360,142.742 292.581,142.367 292.255 C 142.275 292.175,141.399 292.008,140.421 291.882 C 139.270 291.735,138.846 291.784,139.221 292.021 M150.000 292.000 L 148.200 292.280 149.800 292.312 C 150.680 292.329,151.760 292.189,152.200 292.000 C 153.127 291.602,152.561 291.602,150.000 292.000 M136.546 293.629 C 137.674 294.516,137.914 295.888,137.100 296.801 C 136.675 297.278,136.704 297.282,137.300 296.832 C 138.551 295.885,137.419 292.800,135.820 292.800 C 135.640 292.800,135.966 293.173,136.546 293.629 M156.941 293.197 C 156.468 293.388,155.970 293.724,155.834 293.945 C 155.698 294.165,156.143 294.068,156.823 293.729 C 157.596 293.343,158.535 293.203,159.330 293.355 C 160.238 293.529,160.429 293.487,160.000 293.206 C 159.276 292.731,158.104 292.728,156.941 293.197 M317.003 295.822 C 316.182 296.824,315.576 297.703,315.655 297.776 C 315.735 297.849,316.488 297.029,317.329 295.954 C 319.259 293.488,319.002 293.383,317.003 295.822 M146.100 294.676 C 146.485 294.776,147.115 294.776,147.500 294.676 C 147.885 294.575,147.570 294.493,146.800 294.493 C 146.030 294.493,145.715 294.575,146.100 294.676 M154.864 295.438 C 154.803 296.609,155.757 298.000,156.620 298.000 C 156.817 298.000,156.589 297.728,156.114 297.395 C 155.622 297.050,155.181 296.232,155.089 295.495 L 154.928 294.200 154.864 295.438 M81.625 295.400 C 82.605 296.811,84.401 298.838,84.383 298.514 C 84.374 298.341,83.624 297.390,82.717 296.400 C 81.811 295.410,81.319 294.960,81.625 295.400 M143.862 295.531 C 143.002 296.482,143.018 297.765,143.900 298.432 C 144.496 298.882,144.525 298.878,144.100 298.401 C 143.323 297.530,143.509 296.109,144.489 295.423 C 144.978 295.080,145.186 294.800,144.951 294.800 C 144.716 294.800,144.226 295.129,143.862 295.531 M134.305 297.483 C 134.802 297.579,135.522 297.575,135.905 297.475 C 136.287 297.375,135.880 297.296,135.000 297.301 C 134.120 297.305,133.807 297.387,134.305 297.483 M148.814 298.447 C 148.110 299.033,147.404 299.227,146.348 299.126 C 145.533 299.049,144.953 299.124,145.057 299.293 C 145.491 299.995,147.986 299.573,149.078 298.613 C 150.429 297.423,150.210 297.286,148.814 298.447 M311.872 301.803 C 310.152 303.671,308.837 305.200,308.950 305.200 C 309.182 305.200,312.555 301.659,314.188 299.700 C 316.134 297.365,315.064 298.337,311.872 301.803 M85.601 300.200 C 86.151 300.860,86.645 301.475,86.700 301.567 C 86.755 301.658,86.888 301.645,86.996 301.538 C 87.104 301.430,86.609 300.815,85.897 300.171 L 84.603 299.000 85.601 300.200 M117.600 300.600 C 118.346 301.370,119.047 302.000,119.157 302.000 C 119.267 302.000,118.746 301.370,118.000 300.600 C 117.254 299.830,116.553 299.200,116.443 299.200 C 116.333 299.200,116.854 299.830,117.600 300.600 M92.781 307.686 C 95.960 310.923,98.645 313.488,98.747 313.386 C 98.850 313.284,98.852 313.155,98.753 313.100 C 98.653 313.045,95.968 310.480,92.786 307.400 L 87.000 301.800 92.781 307.686 M126.504 306.834 C 127.617 307.482,130.000 308.430,130.000 308.224 C 130.000 308.020,126.452 306.393,126.049 306.412 C 125.912 306.419,126.117 306.609,126.504 306.834 M134.200 309.600 C 134.640 309.789,135.270 309.944,135.600 309.944 C 135.978 309.944,135.904 309.817,135.400 309.600 C 134.960 309.411,134.330 309.256,134.000 309.256 C 133.622 309.256,133.696 309.383,134.200 309.600 M158.000 309.600 C 157.208 309.854,157.167 309.920,157.800 309.920 C 158.240 309.920,159.050 309.776,159.600 309.600 C 160.392 309.346,160.433 309.280,159.800 309.280 C 159.360 309.280,158.550 309.424,158.000 309.600 M138.481 310.460 C 139.720 310.811,152.203 310.824,154.163 310.477 C 155.023 310.325,151.640 310.200,146.645 310.200 C 141.650 310.200,137.976 310.317,138.481 310.460 M301.200 312.600 C 300.228 313.590,299.523 314.400,299.633 314.400 C 299.743 314.400,300.628 313.590,301.600 312.600 C 302.572 311.610,303.277 310.800,303.167 310.800 C 303.057 310.800,302.172 311.610,301.200 312.600 M99.200 313.725 C 99.200 313.794,99.785 314.379,100.500 315.025 L 101.800 316.200 100.625 314.900 C 99.530 313.688,99.200 313.416,99.200 313.725 M297.578 315.900 L 296.200 317.400 297.700 316.022 C 299.096 314.738,299.384 314.400,299.078 314.400 C 299.012 314.400,298.337 315.075,297.578 315.900 M294.200 318.644 L 292.600 320.076 294.300 318.804 C 295.763 317.710,296.291 317.183,295.900 317.206 C 295.845 317.209,295.080 317.856,294.200 318.644 M104.400 318.133 C 104.400 318.243,105.120 318.903,106.000 319.600 C 106.880 320.297,107.600 320.777,107.600 320.667 C 107.600 320.557,106.880 319.897,106.000 319.200 C 105.120 318.503,104.400 318.023,104.400 318.133 M290.800 321.249 C 289.406 322.471,289.405 322.472,290.688 321.619 C 291.396 321.148,292.082 320.591,292.212 320.381 C 292.597 319.757,292.277 319.954,290.800 321.249 M162.567 330.600 C 162.567 334.780,162.626 336.436,162.698 334.279 C 162.771 332.123,162.770 328.703,162.698 326.679 C 162.625 324.656,162.566 326.420,162.567 330.600 M114.000 325.375 C 114.000 325.670,117.689 328.045,117.868 327.865 C 117.963 327.771,117.131 327.134,116.020 326.450 C 114.909 325.767,114.000 325.283,114.000 325.375 M279.700 328.846 C 278.337 329.719,277.895 330.306,279.100 329.643 C 280.018 329.139,281.456 328.027,281.200 328.019 C 281.090 328.016,280.415 328.388,279.700 328.846 M123.600 331.564 C 124.150 332.014,124.780 332.383,125.000 332.385 C 125.428 332.388,124.705 331.834,123.400 331.160 C 122.869 330.885,122.936 331.021,123.600 331.564 M236.423 333.833 C 236.436 335.135,236.596 336.920,236.778 337.800 C 236.999 338.862,237.040 338.123,236.900 335.600 C 236.660 331.290,236.388 330.283,236.423 333.833 M267.200 335.800 C 265.770 336.549,264.740 337.170,264.911 337.181 C 265.337 337.207,270.000 334.837,270.000 334.594 C 270.000 334.325,270.094 334.285,267.200 335.800 M138.600 339.109 C 138.820 339.313,139.810 339.791,140.800 340.170 C 141.790 340.550,142.420 340.695,142.200 340.491 C 141.980 340.287,140.990 339.809,140.000 339.430 C 139.010 339.050,138.380 338.905,138.600 339.109 M147.600 342.733 C 147.930 342.936,148.650 343.224,149.200 343.371 C 149.895 343.557,150.017 343.525,149.600 343.267 C 149.270 343.064,148.550 342.776,148.000 342.629 C 147.305 342.443,147.183 342.475,147.600 342.733 " stroke="none" fill="#9f9e9e" fill-rule="evenodd"></path><path id="path3" d="M189.000 54.007 C 187.900 54.159,188.980 54.198,191.400 54.092 C 193.820 53.987,195.875 53.833,195.967 53.750 C 196.227 53.515,191.222 53.700,189.000 54.007 M204.700 53.889 C 205.415 53.978,206.585 53.978,207.300 53.889 C 208.015 53.801,207.430 53.728,206.000 53.728 C 204.570 53.728,203.985 53.801,204.700 53.889 M209.705 54.287 C 210.314 54.379,211.214 54.377,211.705 54.282 C 212.197 54.187,211.700 54.111,210.600 54.114 C 209.500 54.117,209.097 54.195,209.705 54.287 M216.800 54.787 C 217.791 55.117,220.687 55.335,220.367 55.054 C 220.275 54.974,219.210 54.806,218.000 54.681 C 216.580 54.534,216.154 54.571,216.800 54.787 M179.700 55.076 C 180.085 55.176,180.715 55.176,181.100 55.076 C 181.485 54.975,181.170 54.893,180.400 54.893 C 179.630 54.893,179.315 54.975,179.700 55.076 M223.700 55.876 C 224.085 55.976,224.715 55.976,225.100 55.876 C 225.485 55.775,225.170 55.693,224.400 55.693 C 223.630 55.693,223.315 55.775,223.700 55.876 M168.600 56.819 C 168.042 57.071,168.285 57.107,169.400 56.938 C 170.280 56.804,171.075 56.628,171.167 56.547 C 171.510 56.244,169.368 56.471,168.600 56.819 M165.000 57.600 C 164.496 57.817,164.422 57.944,164.800 57.944 C 165.130 57.944,165.760 57.789,166.200 57.600 C 166.704 57.383,166.778 57.256,166.400 57.256 C 166.070 57.256,165.440 57.411,165.000 57.600 M236.400 58.382 C 236.730 58.605,237.345 58.791,237.767 58.794 C 238.790 58.802,238.471 58.573,237.000 58.244 C 236.124 58.048,235.962 58.085,236.400 58.382 M240.033 59.344 C 240.125 59.423,240.740 59.608,241.400 59.756 C 242.276 59.952,242.438 59.915,242.000 59.618 C 241.460 59.253,239.632 58.998,240.033 59.344 M147.000 63.014 C 146.000 63.496,145.966 63.551,146.800 63.348 C 147.933 63.071,149.207 62.421,148.600 62.430 C 148.380 62.433,147.660 62.696,147.000 63.014 M278.200 75.807 C 278.640 76.166,279.360 76.635,279.800 76.851 L 280.600 77.244 279.800 76.593 C 279.360 76.234,278.640 75.765,278.200 75.549 L 277.400 75.156 278.200 75.807 M118.900 76.846 C 117.537 77.719,117.095 78.306,118.300 77.643 C 119.218 77.139,120.656 76.027,120.400 76.019 C 120.290 76.016,119.615 76.388,118.900 76.846 M283.800 79.407 C 284.240 79.766,284.960 80.235,285.400 80.451 L 286.200 80.844 285.400 80.193 C 284.960 79.834,284.240 79.365,283.800 79.149 L 283.000 78.756 283.800 79.407 M286.544 81.109 C 286.860 81.621,289.200 83.353,289.200 83.075 C 289.200 82.976,288.539 82.391,287.732 81.775 C 286.924 81.159,286.389 80.859,286.544 81.109 M296.069 88.676 C 298.313 90.489,298.717 90.675,297.018 89.112 C 296.128 88.294,295.251 87.619,295.069 87.612 C 294.887 87.605,295.337 88.084,296.069 88.676 M99.578 91.500 L 98.200 93.000 99.700 91.622 C 101.096 90.338,101.384 90.000,101.078 90.000 C 101.012 90.000,100.337 90.675,99.578 91.500 M300.043 92.100 C 300.140 92.155,301.385 93.280,302.810 94.600 L 305.400 97.000 303.013 94.500 C 301.699 93.125,300.454 92.000,300.246 92.000 C 300.037 92.000,299.946 92.045,300.043 92.100 M92.613 97.987 C 90.208 100.399,88.321 102.424,88.420 102.487 C 88.519 102.549,90.571 100.575,92.981 98.100 C 95.390 95.625,97.277 93.600,97.174 93.600 C 97.071 93.600,95.018 95.574,92.613 97.987 M309.400 101.200 C 310.483 102.300,311.460 103.200,311.570 103.200 C 311.680 103.200,310.883 102.300,309.800 101.200 C 308.717 100.100,307.740 99.200,307.630 99.200 C 307.520 99.200,308.317 100.100,309.400 101.200 M86.604 104.396 C 85.974 105.054,85.535 105.656,85.629 105.734 C 85.723 105.812,86.313 105.274,86.939 104.538 C 88.354 102.877,88.145 102.788,86.604 104.396 M121.200 115.024 C 122.587 115.327,129.157 115.420,128.699 115.129 C 128.425 114.955,126.490 114.830,124.400 114.853 C 122.310 114.875,120.870 114.952,121.200 115.024 M270.712 115.128 C 270.334 115.278,271.981 115.400,274.372 115.400 C 276.764 115.400,278.637 115.265,278.536 115.100 C 278.310 114.730,271.660 114.754,270.712 115.128 M266.800 116.018 C 266.362 116.315,266.524 116.352,267.400 116.156 C 268.871 115.827,269.190 115.598,268.167 115.606 C 267.745 115.609,267.130 115.795,266.800 116.018 M75.584 118.423 C 75.105 119.096,74.779 119.713,74.861 119.794 C 74.943 119.876,75.414 119.326,75.908 118.571 C 77.023 116.871,76.771 116.756,75.584 118.423 M261.000 117.814 C 260.000 118.296,259.966 118.351,260.800 118.148 C 261.933 117.871,263.207 117.221,262.600 117.230 C 262.380 117.233,261.660 117.496,261.000 117.814 M326.749 123.400 C 326.965 123.840,327.434 124.560,327.793 125.000 L 328.444 125.800 328.051 125.000 C 327.835 124.560,327.366 123.840,327.007 123.400 L 326.356 122.600 326.749 123.400 M187.200 126.005 C 186.420 126.172,187.394 126.212,189.400 126.097 C 191.380 125.982,193.075 125.824,193.167 125.744 C 193.465 125.486,188.640 125.697,187.200 126.005 M206.033 125.744 C 206.125 125.824,207.820 125.985,209.800 126.103 C 212.248 126.249,212.888 126.210,211.800 125.982 C 210.220 125.650,205.710 125.465,206.033 125.744 M179.800 126.800 C 178.137 127.223,179.774 127.242,181.800 126.823 C 183.145 126.545,183.209 126.492,182.200 126.493 C 181.540 126.494,180.460 126.632,179.800 126.800 M242.100 127.246 C 240.737 128.119,240.295 128.706,241.500 128.043 C 242.418 127.539,243.856 126.427,243.600 126.419 C 243.490 126.416,242.815 126.788,242.100 127.246 M116.600 128.800 C 116.446 129.710,116.404 130.538,116.507 130.640 C 116.610 130.743,116.813 130.077,116.960 129.160 C 117.107 128.243,117.148 127.415,117.053 127.320 C 116.958 127.224,116.754 127.890,116.600 128.800 M224.033 127.744 C 224.125 127.824,225.010 127.996,226.000 128.127 C 227.202 128.286,227.534 128.247,227.000 128.010 C 226.236 127.672,223.686 127.443,224.033 127.744 M158.400 128.124 C 158.400 128.217,159.165 128.798,160.100 129.415 C 161.035 130.032,161.589 130.280,161.331 129.968 C 160.834 129.367,158.400 127.836,158.400 128.124 M168.800 128.818 C 168.362 129.115,168.524 129.152,169.400 128.956 C 170.871 128.627,171.190 128.398,170.167 128.406 C 169.745 128.409,169.130 128.595,168.800 128.818 M228.833 128.544 C 228.925 128.623,229.540 128.808,230.200 128.956 C 231.076 129.152,231.238 129.115,230.800 128.818 C 230.260 128.453,228.432 128.198,228.833 128.544 M282.924 133.000 C 282.926 134.320,283.001 134.812,283.090 134.093 C 283.179 133.374,283.177 132.294,283.086 131.693 C 282.995 131.092,282.922 131.680,282.924 133.000 M66.800 132.800 C 66.351 133.680,66.074 134.400,66.184 134.400 C 66.294 134.400,66.751 133.680,67.200 132.800 C 67.649 131.920,67.926 131.200,67.816 131.200 C 67.706 131.200,67.249 131.920,66.800 132.800 M116.150 137.800 C 116.151 140.220,116.216 141.158,116.296 139.885 C 116.376 138.612,116.375 136.632,116.294 135.485 C 116.214 134.338,116.149 135.380,116.150 137.800 M333.600 135.600 C 334.049 136.480,334.506 137.200,334.616 137.200 C 334.726 137.200,334.449 136.480,334.000 135.600 C 333.551 134.720,333.094 134.000,332.984 134.000 C 332.874 134.000,333.151 134.720,333.600 135.600 M283.309 137.600 C 283.309 138.590,283.387 138.995,283.482 138.500 C 283.578 138.005,283.578 137.195,283.482 136.700 C 283.387 136.205,283.309 136.610,283.309 137.600 M282.920 142.800 C 282.920 144.010,282.995 144.505,283.087 143.900 C 283.178 143.295,283.178 142.305,283.087 141.700 C 282.995 141.095,282.920 141.590,282.920 142.800 M340.229 150.400 C 340.376 150.950,340.664 151.670,340.867 152.000 C 341.125 152.417,341.157 152.295,340.971 151.600 C 340.824 151.050,340.536 150.330,340.333 150.000 C 340.075 149.583,340.043 149.705,340.229 150.400 M117.999 155.700 C 117.410 156.504,117.313 156.784,117.745 156.433 C 118.401 155.900,119.393 154.400,119.089 154.400 C 119.013 154.400,118.522 154.985,117.999 155.700 M282.374 157.500 C 283.337 158.655,284.202 159.600,284.296 159.600 C 284.568 159.600,282.104 156.582,281.326 155.962 C 280.939 155.653,281.410 156.345,282.374 157.500 M114.264 160.400 C 113.874 161.060,113.621 161.600,113.702 161.600 C 113.783 161.600,114.249 161.060,114.737 160.400 C 115.225 159.740,115.477 159.200,115.298 159.200 C 115.119 159.200,114.654 159.740,114.264 160.400 M344.828 165.076 C 344.813 165.558,344.980 166.064,345.200 166.200 C 345.673 166.492,345.673 166.101,345.200 165.000 C 344.869 164.229,344.855 164.231,344.828 165.076 M53.829 165.829 C 53.681 166.415,53.638 166.972,53.732 167.066 C 53.827 167.160,54.024 166.758,54.171 166.171 C 54.319 165.585,54.362 165.028,54.268 164.934 C 54.173 164.840,53.976 165.242,53.829 165.829 M345.656 168.000 C 345.656 168.330,345.811 168.960,346.000 169.400 C 346.217 169.904,346.344 169.978,346.344 169.600 C 346.344 169.270,346.189 168.640,346.000 168.200 C 345.783 167.696,345.656 167.622,345.656 168.000 M346.468 171.600 C 346.488 172.639,347.118 174.346,347.132 173.400 C 347.138 172.960,346.989 172.240,346.800 171.800 C 346.589 171.310,346.461 171.232,346.468 171.600 M347.693 178.000 C 347.693 178.770,347.775 179.085,347.876 178.700 C 347.976 178.315,347.976 177.685,347.876 177.300 C 347.775 176.915,347.693 177.230,347.693 178.000 M51.249 178.600 C 51.216 179.040,51.096 179.850,50.983 180.400 L 50.777 181.400 51.206 180.419 C 51.442 179.879,51.561 179.069,51.472 178.619 C 51.313 177.821,51.307 177.821,51.249 178.600 M348.493 183.600 C 348.493 184.370,348.575 184.685,348.676 184.300 C 348.776 183.915,348.776 183.285,348.676 182.900 C 348.575 182.515,348.493 182.830,348.493 183.600 M294.662 184.200 C 294.796 185.080,294.972 185.875,295.053 185.967 C 295.356 186.310,295.129 184.168,294.781 183.400 C 294.529 182.842,294.493 183.085,294.662 184.200 M104.101 185.800 C 104.105 186.680,104.187 186.993,104.283 186.495 C 104.379 185.998,104.375 185.278,104.275 184.895 C 104.175 184.513,104.096 184.920,104.101 185.800 M50.101 187.400 C 50.105 188.280,50.187 188.593,50.283 188.095 C 50.379 187.598,50.375 186.878,50.275 186.495 C 50.175 186.113,50.096 186.520,50.101 187.400 M103.701 189.400 C 103.705 190.280,103.787 190.593,103.883 190.095 C 103.979 189.598,103.975 188.878,103.875 188.495 C 103.775 188.113,103.696 188.520,103.701 189.400 M349.314 191.800 C 349.317 192.900,349.395 193.303,349.487 192.695 C 349.579 192.086,349.577 191.186,349.482 190.695 C 349.387 190.203,349.311 190.700,349.314 191.800 M295.758 195.800 C 295.758 198.880,295.821 200.087,295.897 198.482 C 295.973 196.878,295.973 194.358,295.896 192.882 C 295.819 191.407,295.757 192.720,295.758 195.800 M49.714 193.000 C 49.717 194.100,49.795 194.503,49.887 193.895 C 49.979 193.286,49.977 192.386,49.882 191.895 C 49.787 191.403,49.711 191.900,49.714 193.000 M349.728 196.400 C 349.728 197.830,349.801 198.415,349.889 197.700 C 349.978 196.985,349.978 195.815,349.889 195.100 C 349.801 194.385,349.728 194.970,349.728 196.400 M49.360 202.600 C 49.361 205.900,49.422 207.197,49.498 205.482 C 49.573 203.767,49.572 201.067,49.497 199.482 C 49.421 197.897,49.359 199.300,49.360 202.600 M103.714 202.600 C 103.717 203.700,103.795 204.103,103.887 203.495 C 103.979 202.886,103.977 201.986,103.882 201.495 C 103.787 201.003,103.711 201.500,103.714 202.600 M295.301 203.000 C 295.305 203.880,295.387 204.193,295.483 203.695 C 295.579 203.198,295.575 202.478,295.475 202.095 C 295.375 201.713,295.296 202.120,295.301 203.000 M349.473 209.952 C 349.307 212.676,349.250 214.983,349.345 215.079 C 349.592 215.325,350.114 207.207,349.929 206.000 C 349.844 205.450,349.639 207.229,349.473 209.952 M104.114 207.400 C 104.117 208.500,104.195 208.903,104.287 208.295 C 104.379 207.686,104.377 206.786,104.282 206.295 C 104.187 205.803,104.111 206.300,104.114 207.400 M294.862 208.000 C 294.822 208.770,294.696 209.850,294.583 210.400 L 294.377 211.400 294.808 210.414 C 295.044 209.871,295.170 208.791,295.086 208.014 L 294.934 206.600 294.862 208.000 M49.709 212.000 C 49.709 212.990,49.787 213.395,49.882 212.900 C 49.978 212.405,49.978 211.595,49.882 211.100 C 49.787 210.605,49.709 211.010,49.709 212.000 M104.846 213.600 C 104.827 214.150,104.987 214.870,105.200 215.200 C 105.694 215.964,105.694 215.142,105.200 213.600 L 104.880 212.600 104.846 213.600 M293.850 214.450 C 293.709 215.153,293.669 215.802,293.759 215.892 C 293.850 215.983,294.048 215.491,294.200 214.800 C 294.352 214.109,294.393 213.459,294.291 213.358 C 294.189 213.256,293.991 213.747,293.850 214.450 M50.101 217.800 C 50.105 218.680,50.187 218.993,50.283 218.495 C 50.379 217.998,50.375 217.278,50.275 216.895 C 50.175 216.513,50.096 216.920,50.101 217.800 M105.606 217.433 C 105.609 217.855,105.795 218.470,106.018 218.800 C 106.315 219.238,106.352 219.076,106.156 218.200 C 105.827 216.729,105.598 216.410,105.606 217.433 M293.000 218.800 C 292.848 219.491,292.807 220.141,292.909 220.242 C 293.011 220.344,293.209 219.853,293.350 219.150 C 293.491 218.447,293.531 217.798,293.441 217.708 C 293.350 217.617,293.152 218.109,293.000 218.800 M106.456 220.800 C 106.456 221.130,106.611 221.760,106.800 222.200 C 107.017 222.704,107.144 222.778,107.144 222.400 C 107.144 222.070,106.989 221.440,106.800 221.000 C 106.583 220.496,106.456 220.422,106.456 220.800 M348.493 221.600 C 348.493 222.370,348.575 222.685,348.676 222.300 C 348.776 221.915,348.776 221.285,348.676 220.900 C 348.575 220.515,348.493 220.830,348.493 221.600 M50.887 224.200 C 50.891 224.640,51.032 225.540,51.200 226.200 C 51.474 227.278,51.506 227.298,51.513 226.400 C 51.517 225.850,51.376 224.950,51.200 224.400 C 50.949 223.616,50.881 223.573,50.887 224.200 M347.693 227.200 C 347.693 227.970,347.775 228.285,347.876 227.900 C 347.976 227.515,347.976 226.885,347.876 226.500 C 347.775 226.115,347.693 226.430,347.693 227.200 M346.650 232.450 C 346.509 233.153,346.469 233.802,346.559 233.892 C 346.650 233.983,346.848 233.491,347.000 232.800 C 347.152 232.109,347.193 231.459,347.091 231.358 C 346.989 231.256,346.791 231.747,346.650 232.450 M283.648 240.900 C 282.561 242.489,282.377 242.890,283.141 242.000 C 284.326 240.621,285.782 238.400,285.501 238.400 C 285.422 238.400,284.588 239.525,283.648 240.900 M345.067 239.067 C 344.920 239.213,344.811 239.708,344.825 240.167 C 344.849 240.933,344.882 240.923,345.234 240.042 C 345.626 239.063,345.544 238.589,345.067 239.067 M344.046 242.867 C 344.021 243.234,343.896 243.864,343.770 244.267 C 343.552 244.962,343.563 244.963,343.997 244.287 C 344.248 243.896,344.373 243.266,344.273 242.887 C 344.111 242.268,344.088 242.266,344.046 242.867 M278.227 247.513 C 276.171 249.773,275.795 250.296,277.159 249.000 C 279.044 247.209,281.877 243.980,281.534 244.013 C 281.460 244.020,279.972 245.595,278.227 247.513 M119.186 245.786 C 120.275 247.297,122.992 250.060,124.200 250.884 C 124.860 251.334,124.610 250.998,123.646 250.137 C 122.681 249.276,121.151 247.762,120.246 246.772 C 119.340 245.783,118.864 245.339,119.186 245.786 M269.421 254.836 C 266.613 256.845,265.701 257.599,266.800 257.002 C 267.863 256.425,272.400 253.166,272.400 252.980 C 272.400 252.705,272.385 252.714,269.421 254.836 M129.600 255.220 C 130.987 256.161,131.778 256.435,130.800 255.636 C 130.250 255.186,129.620 254.817,129.400 254.815 C 129.180 254.813,129.270 254.996,129.600 255.220 M136.400 258.997 C 136.400 259.268,139.649 260.884,139.830 260.703 C 139.914 260.619,139.176 260.159,138.191 259.681 C 137.206 259.202,136.400 258.894,136.400 258.997 M93.891 260.689 C 94.601 260.777,95.861 260.779,96.691 260.692 C 97.521 260.605,96.940 260.533,95.400 260.531 C 93.860 260.529,93.181 260.600,93.891 260.689 M62.028 262.600 C 62.028 262.820,62.286 263.450,62.600 264.000 C 62.914 264.550,63.172 264.820,63.172 264.600 C 63.172 264.380,62.914 263.750,62.600 263.200 C 62.286 262.650,62.028 262.380,62.028 262.600 M105.100 265.837 C 105.595 266.200,106.000 266.751,106.000 267.062 C 106.000 267.372,105.595 267.789,105.100 267.988 C 104.491 268.232,104.410 268.357,104.851 268.375 C 106.568 268.442,106.769 266.396,105.123 265.615 L 104.200 265.177 105.100 265.837 M154.000 265.582 C 154.330 265.805,154.945 265.991,155.367 265.994 C 156.390 266.002,156.071 265.773,154.600 265.444 C 153.724 265.248,153.562 265.285,154.000 265.582 M159.000 266.800 C 160.692 267.231,162.144 267.231,160.800 266.800 C 160.250 266.624,159.350 266.483,158.800 266.487 C 157.902 266.494,157.922 266.526,159.000 266.800 M110.843 266.900 C 110.940 266.955,112.185 268.080,113.610 269.400 L 116.200 271.800 113.813 269.300 C 112.499 267.925,111.254 266.800,111.046 266.800 C 110.837 266.800,110.746 266.845,110.843 266.900 M163.600 267.600 C 164.150 267.776,165.050 267.917,165.600 267.913 C 166.498 267.906,166.478 267.874,165.400 267.600 C 163.708 267.169,162.256 267.169,163.600 267.600 M233.000 267.600 C 231.922 267.874,231.902 267.906,232.800 267.913 C 233.350 267.917,234.250 267.776,234.800 267.600 C 236.144 267.169,234.692 267.169,233.000 267.600 M169.883 268.461 L 171.167 268.906 169.733 270.753 L 168.300 272.600 169.923 270.800 C 171.668 268.866,171.654 268.577,169.800 268.236 L 168.600 268.015 169.883 268.461 M228.000 268.394 C 227.502 268.712,227.635 268.998,228.791 270.088 L 230.182 271.400 229.027 270.111 L 227.871 268.822 228.836 268.436 C 229.366 268.224,229.530 268.042,229.200 268.031 C 228.870 268.021,228.330 268.184,228.000 268.394 M111.823 271.701 C 112.191 272.306,112.399 273.161,112.284 273.601 C 112.169 274.041,112.238 274.300,112.437 274.177 C 113.058 273.793,112.837 272.531,111.976 271.544 L 111.153 270.600 111.823 271.701 M116.400 272.149 C 116.400 272.316,116.885 273.116,117.478 273.927 C 118.889 275.856,119.398 276.392,118.878 275.400 C 118.272 274.246,116.400 271.790,116.400 272.149 M99.233 273.300 C 99.325 273.355,99.940 273.850,100.600 274.400 L 101.800 275.400 100.830 274.300 C 100.297 273.695,99.682 273.200,99.464 273.200 C 99.245 273.200,99.142 273.245,99.233 273.300 M118.493 281.200 C 118.493 281.970,118.575 282.285,118.676 281.900 C 118.776 281.515,118.776 280.885,118.676 280.500 C 118.575 280.115,118.493 280.430,118.493 281.200 M122.696 281.400 C 123.374 282.280,124.616 283.630,125.455 284.400 C 126.453 285.316,126.235 284.970,124.823 283.400 C 121.833 280.074,121.254 279.530,122.696 281.400 M163.029 284.629 C 162.881 285.215,162.838 285.772,162.932 285.866 C 163.027 285.960,163.224 285.558,163.371 284.971 C 163.519 284.385,163.562 283.828,163.468 283.734 C 163.373 283.640,163.176 284.042,163.029 284.629 M75.615 286.600 C 75.617 286.820,75.986 287.450,76.436 288.000 C 76.979 288.664,77.115 288.731,76.840 288.200 C 76.166 286.895,75.612 286.172,75.615 286.600 M121.862 286.700 C 121.760 286.865,122.362 287.000,123.200 287.000 C 124.038 287.000,124.640 286.865,124.538 286.700 C 124.436 286.535,123.834 286.400,123.200 286.400 C 122.566 286.400,121.964 286.535,121.862 286.700 M322.800 287.600 C 322.330 288.260,322.036 288.800,322.146 288.800 C 322.256 288.800,322.730 288.260,323.200 287.600 C 323.670 286.940,323.964 286.400,323.854 286.400 C 323.744 286.400,323.270 286.940,322.800 287.600 M236.893 290.000 C 236.893 290.770,236.975 291.085,237.076 290.700 C 237.176 290.315,237.176 289.685,237.076 289.300 C 236.975 288.915,236.893 289.230,236.893 290.000 M123.552 291.312 C 123.745 291.505,124.419 291.598,125.051 291.519 C 126.109 291.387,126.081 291.359,124.700 291.168 C 123.840 291.049,123.350 291.110,123.552 291.312 M138.800 291.600 C 140.168 292.038,141.219 292.038,140.200 291.600 C 139.760 291.411,139.040 291.262,138.600 291.268 C 137.957 291.277,137.996 291.343,138.800 291.600 M151.000 291.619 C 150.442 291.871,150.685 291.907,151.800 291.738 C 152.680 291.604,153.475 291.428,153.567 291.347 C 153.910 291.044,151.768 291.271,151.000 291.619 M144.300 292.282 C 144.795 292.378,145.605 292.378,146.100 292.282 C 146.595 292.187,146.190 292.109,145.200 292.109 C 144.210 292.109,143.805 292.187,144.300 292.282 M132.262 293.100 C 132.160 293.265,132.942 293.400,134.000 293.400 C 135.058 293.400,135.840 293.265,135.738 293.100 C 135.636 292.935,134.854 292.800,134.000 292.800 C 133.146 292.800,132.364 292.935,132.262 293.100 M137.246 295.480 C 137.221 295.964,136.885 296.544,136.500 296.768 C 136.115 296.992,136.003 297.181,136.251 297.188 C 136.963 297.207,137.684 296.109,137.479 295.319 C 137.330 294.743,137.284 294.774,137.246 295.480 M145.900 295.082 C 146.395 295.178,147.205 295.178,147.700 295.082 C 148.195 294.987,147.790 294.909,146.800 294.909 C 145.810 294.909,145.405 294.987,145.900 295.082 M160.800 295.921 C 160.800 296.170,160.305 296.643,159.700 296.971 C 159.095 297.299,158.805 297.575,159.056 297.584 C 159.753 297.608,161.440 296.109,161.100 295.768 C 160.935 295.602,160.800 295.671,160.800 295.921 M113.964 296.733 C 114.180 297.136,114.671 297.721,115.055 298.033 C 115.487 298.384,115.390 298.104,114.801 297.300 C 113.751 295.865,113.357 295.598,113.964 296.733 M144.344 298.376 C 145.328 299.234,147.371 299.459,148.379 298.821 C 148.756 298.583,148.376 298.533,147.288 298.679 C 146.105 298.838,145.293 298.706,144.508 298.228 L 143.400 297.553 144.344 298.376 M84.800 298.650 C 84.800 298.789,85.430 299.600,86.200 300.453 C 86.970 301.305,87.600 301.889,87.600 301.750 C 87.600 301.611,86.970 300.800,86.200 299.947 C 85.430 299.095,84.800 298.511,84.800 298.650 M117.400 300.800 C 118.483 301.900,119.460 302.800,119.570 302.800 C 119.680 302.800,118.883 301.900,117.800 300.800 C 116.717 299.700,115.740 298.800,115.630 298.800 C 115.520 298.800,116.317 299.700,117.400 300.800 M310.800 302.600 C 309.828 303.590,309.123 304.400,309.233 304.400 C 309.343 304.400,310.228 303.590,311.200 302.600 C 312.172 301.610,312.877 300.800,312.767 300.800 C 312.657 300.800,311.772 301.610,310.800 302.600 M89.200 303.800 C 89.946 304.570,90.647 305.200,90.757 305.200 C 90.867 305.200,90.346 304.570,89.600 303.800 C 88.854 303.030,88.153 302.400,88.043 302.400 C 87.933 302.400,88.454 303.030,89.200 303.800 M120.198 303.196 C 120.515 303.709,124.018 306.119,124.183 305.939 C 124.253 305.862,123.331 305.126,122.133 304.302 C 120.935 303.478,120.064 302.980,120.198 303.196 M96.000 310.600 C 96.746 311.370,97.447 312.000,97.557 312.000 C 97.667 312.000,97.146 311.370,96.400 310.600 C 95.654 309.830,94.953 309.200,94.843 309.200 C 94.733 309.200,95.254 309.830,96.000 310.600 M136.400 310.400 C 136.950 310.576,137.760 310.720,138.200 310.720 C 138.833 310.720,138.792 310.654,138.000 310.400 C 137.450 310.224,136.640 310.080,136.200 310.080 C 135.567 310.080,135.608 310.146,136.400 310.400 M143.900 311.095 C 145.055 311.176,146.945 311.176,148.100 311.095 C 149.255 311.014,148.310 310.948,146.000 310.948 C 143.690 310.948,142.745 311.014,143.900 311.095 M99.973 314.095 C 100.728 314.916,101.433 315.501,101.539 315.394 C 101.646 315.287,101.657 315.155,101.565 315.100 C 101.472 315.045,100.767 314.460,99.998 313.801 L 98.600 312.602 99.973 314.095 M297.978 315.100 L 296.600 316.600 298.100 315.222 C 298.925 314.463,299.600 313.788,299.600 313.722 C 299.600 313.416,299.262 313.704,297.978 315.100 M162.175 328.000 C 162.175 333.830,162.231 336.215,162.299 333.300 C 162.367 330.385,162.367 325.615,162.299 322.700 C 162.231 319.785,162.175 322.170,162.175 328.000 M292.400 319.649 C 291.006 320.871,291.005 320.872,292.288 320.019 C 292.996 319.548,293.682 318.991,293.812 318.781 C 294.197 318.157,293.877 318.354,292.400 319.649 M106.400 319.333 C 106.400 319.443,107.120 320.103,108.000 320.800 C 108.880 321.497,109.600 321.977,109.600 321.867 C 109.600 321.757,108.880 321.097,108.000 320.400 C 107.120 319.703,106.400 319.223,106.400 319.333 M286.011 324.220 C 285.247 324.759,284.797 325.199,285.011 325.198 C 285.225 325.197,285.940 324.753,286.600 324.212 C 288.141 322.949,287.805 322.953,286.011 324.220 M118.200 327.807 C 118.640 328.166,119.360 328.635,119.800 328.851 L 120.600 329.244 119.800 328.593 C 119.360 328.234,118.640 327.765,118.200 327.549 L 117.400 327.156 118.200 327.807 M255.800 340.614 C 254.795 341.098,254.763 341.153,255.600 340.951 C 256.150 340.819,256.771 340.550,256.980 340.355 C 257.498 339.871,257.214 339.933,255.800 340.614 M153.905 344.283 C 154.402 344.379,155.122 344.375,155.505 344.275 C 155.887 344.175,155.480 344.096,154.600 344.101 C 153.720 344.105,153.407 344.187,153.905 344.283 M243.900 344.282 C 244.395 344.378,245.205 344.378,245.700 344.282 C 246.195 344.187,245.790 344.109,244.800 344.109 C 243.810 344.109,243.405 344.187,243.900 344.282 " stroke="none" fill="#7c7c7c" fill-rule="evenodd"></path><path id="path4" d="M162.144 314.000 C 162.144 316.090,162.212 316.945,162.294 315.900 C 162.376 314.855,162.376 313.145,162.294 312.100 C 162.212 311.055,162.144 311.910,162.144 314.000 M236.934 334.000 C 236.934 335.650,237.005 336.325,237.091 335.500 C 237.178 334.675,237.178 333.325,237.091 332.500 C 237.005 331.675,236.934 332.350,236.934 334.000 " stroke="none" fill="#847c7c" fill-rule="evenodd"></path></g></svg>