<?xml version="1.0" standalone="no"?>
<!DOCTYPE svg PUBLIC "-//W3C//DTD SVG 20010904//EN"
 "http://www.w3.org/TR/2001/REC-SVG-20010904/DTD/svg10.dtd">
<svg version="1.0" xmlns="http://www.w3.org/2000/svg"
 width="260.000000pt" height="260.000000pt" viewBox="0 0 260.000000 260.000000"
 preserveAspectRatio="xMidYMid meet">

<g transform="translate(0.000000,260.000000) scale(0.100000,-0.100000)"
fill="#000000" stroke="none">
<path d="M990 2211 c-365 -78 -636 -342 -727 -709 -26 -102 -23 -332 6 -437
105 -391 437 -669 837 -700 107 -9 246 7 346 38 l73 23 -87 23 c-48 12 -99 32
-112 42 l-25 20 -7 -28 c-3 -15 -7 -34 -10 -40 -2 -9 -33 -13 -109 -13 -58 0
-105 2 -105 5 0 14 -31 209 -34 212 -1 1 -16 6 -33 9 -29 6 -34 1 -97 -79
l-66 -86 -90 52 c-50 28 -90 56 -90 62 0 5 18 53 40 105 l39 95 -24 24 -24 25
-98 -40 c-54 -21 -100 -40 -104 -42 -6 -2 -109 169 -109 181 0 3 38 35 85 72
77 60 85 69 79 93 -4 15 -9 30 -13 34 -3 4 -46 12 -96 19 -49 6 -96 13 -102
15 -14 4 -19 209 -5 217 4 3 50 10 102 17 52 6 98 14 101 18 4 4 9 19 13 34 5
24 -2 33 -71 89 -43 34 -82 66 -87 70 -7 6 88 189 99 189 2 0 47 -18 101 -40
l98 -40 27 26 27 26 -39 91 c-22 50 -39 96 -39 103 0 7 30 29 68 50 37 20 77
44 89 51 20 13 25 10 89 -72 63 -82 69 -87 98 -81 38 8 43 16 50 85 4 31 9 75
13 99 l5 42 109 0 c60 0 109 -3 109 -7 1 -21 29 -205 32 -207 1 -2 17 -8 34
-13 30 -11 31 -10 99 78 l69 88 46 -26 c43 -24 50 -25 79 -14 17 8 31 16 31
20 0 11 -112 68 -187 94 -161 58 -344 71 -503 38z"/>
<path d="M1781 1995 c-142 -31 -265 -115 -317 -217 l-24 -48 476 0 476 0 -7
103 c-3 56 -9 110 -11 119 -13 47 -434 77 -593 43z"/>
<path d="M990 1760 l0 -50 -90 0 c-83 0 -93 -2 -115 -25 -23 -22 -25 -32 -25
-115 l0 -90 -55 0 -55 0 0 -40 0 -40 55 0 c54 0 55 0 55 -30 0 -30 -1 -30 -55
-30 l-55 0 0 -40 0 -40 55 0 c54 0 55 0 55 -30 0 -30 -1 -30 -55 -30 l-55 0 0
-40 0 -40 55 0 55 0 0 -84 c0 -46 3 -92 6 -101 12 -30 60 -45 144 -45 l80 0 0
-50 0 -50 40 0 40 0 0 50 c0 49 1 50 30 50 29 0 30 -1 30 -50 l0 -50 40 0 40
0 0 49 c0 34 4 51 15 55 9 3 15 18 15 35 l0 31 -207 2 -208 3 0 340 0 340 262
3 261 2 0 80 0 80 -39 0 -39 0 0 -50 c0 -49 -1 -50 -30 -50 -29 0 -30 1 -30
50 l0 50 -40 0 -40 0 0 -50 c0 -49 -1 -50 -30 -50 -29 0 -30 1 -30 50 l0 50
-40 0 -40 0 0 -50z"/>
<path d="M1424 1528 c11 -56 63 -151 116 -210 28 -31 113 -109 190 -173 154
-128 180 -158 180 -204 0 -24 -7 -36 -31 -50 -74 -45 -218 -35 -393 26 -136
49 -133 52 -116 -154 19 -226 6 -205 136 -227 78 -13 163 -19 299 -20 173 -1
197 1 265 22 97 31 164 69 222 129 115 118 147 281 81 422 -31 66 -165 205
-289 298 -44 34 -103 86 -131 117 l-52 56 -242 0 -241 0 6 -32z"/>
<path d="M1222 1522 c-10 -7 -152 -411 -152 -434 0 -5 11 -8 24 -8 23 0 29 14
96 215 74 222 79 256 32 227z"/>
<path d="M907 1381 c-31 -38 -57 -74 -57 -80 0 -6 27 -42 61 -81 49 -58 63
-69 75 -59 8 6 14 14 14 18 0 3 -22 33 -49 66 l-49 59 49 57 c27 31 49 61 49
67 0 8 -22 22 -34 22 -1 0 -28 -31 -59 -69z"/>
<path d="M1386 1246 c-48 -56 -56 -80 -32 -89 9 -4 32 14 60 48 50 58 53 67
32 84 -11 9 -23 0 -60 -43z"/>
<path d="M1510 1121 c0 -77 1 -80 33 -107 l32 -27 3 57 c3 50 -1 63 -29 106
-18 28 -34 50 -36 50 -2 0 -3 -36 -3 -79z"/>
</g>
</svg>
