<?xml version="1.0" standalone="no"?>
<!DOCTYPE svg PUBLIC "-//W3C//DTD SVG 20010904//EN"
 "http://www.w3.org/TR/2001/REC-SVG-20010904/DTD/svg10.dtd">
<svg version="1.0" xmlns="http://www.w3.org/2000/svg"
 width="1080.000000pt" height="1080.000000pt" viewBox="0 0 1080.000000 1080.000000"
 preserveAspectRatio="xMidYMid meet">

<g transform="translate(0.000000,1080.000000) scale(0.100000,-0.100000)"
fill="#000000" stroke="none">
<path d="M836 7155 c-181 -50 -319 -186 -382 -375 -18 -52 -19 -117 -22 -1042
l-3 -988 1460 -2 1460 -3 28 -21 c90 -67 96 -175 12 -235 l-34 -24 -1460 -5
-1460 -5 0 -250 c0 -213 3 -259 19 -310 58 -191 200 -330 386 -380 43 -12 130
-15 395 -15 l340 0 310 -311 c171 -171 322 -317 337 -325 15 -8 42 -14 60 -14
29 0 64 31 358 325 l325 325 646 0 c637 0 647 0 672 21 15 11 31 37 37 57 8
25 10 357 8 1062 l-3 1025 -1505 5 -1505 5 -34 24 c-84 60 -78 168 12 235 l28
21 1505 3 1504 2 0 555 c0 597 -1 603 -51 639 -21 14 -89 16 -674 16 l-650 0
-319 -319 c-213 -213 -328 -321 -345 -324 -14 -3 -39 1 -56 8 -16 7 -169 153
-340 324 l-310 311 -350 -1 c-260 -1 -363 -4 -399 -14z"/>
<path d="M4911 6693 c-45 -25 -81 -51 -81 -59 0 -9 -4 -13 -10 -9 -5 3 -47
-15 -93 -40 -95 -51 -97 -54 -97 -175 0 -121 2 -124 96 -175 46 -26 89 -43 94
-40 6 3 10 0 10 -9 0 -19 163 -108 184 -100 10 4 16 1 16 -9 0 -9 33 -34 80
-59 44 -24 80 -46 80 -49 0 -3 -36 -24 -80 -48 -47 -25 -80 -49 -80 -58 0 -10
-6 -13 -16 -9 -10 4 -46 -10 -90 -34 -40 -22 -76 -40 -79 -40 -3 0 -5 37 -5
83 0 45 -3 92 -6 104 -8 28 -164 116 -188 107 -13 -5 -16 -22 -16 -89 0 -137
0 -138 96 -190 46 -26 89 -43 94 -40 6 3 10 0 10 -9 0 -21 169 -111 183 -97 7
7 14 7 23 0 15 -13 184 76 184 97 0 7 6 11 13 9 6 -2 48 15 92 39 90 49 93 53
94 167 2 130 0 132 -95 184 -46 26 -89 43 -94 40 -6 -3 -10 0 -10 9 0 19 -163
108 -184 100 -10 -4 -16 -1 -16 9 0 9 -33 34 -80 59 -44 24 -80 45 -80 48 0 3
34 23 76 45 42 22 80 49 84 60 7 16 9 17 9 3 1 -21 142 -100 186 -104 22 -1
57 11 111 40 110 58 110 70 -1 130 -47 26 -90 44 -95 41 -6 -3 -10 0 -10 9 0
20 -147 98 -191 101 -27 2 -57 -9 -118 -42z"/>
<path d="M6175 6696 c-60 -33 -81 -50 -86 -70 -4 -15 -7 -160 -7 -322 0 -163
-3 -298 -5 -301 -3 -2 -38 13 -79 35 -90 49 -122 48 -213 -2 -37 -20 -69 -35
-72 -33 -2 3 -4 142 -4 310 0 270 -2 306 -16 311 -9 4 -49 -12 -96 -37 -62
-33 -83 -50 -88 -70 -4 -15 -7 -214 -7 -441 0 -334 2 -417 13 -426 10 -8 34 0
99 35 48 26 86 53 86 61 0 9 4 13 10 9 14 -8 178 83 183 103 4 16 5 16 6 0 2
-24 158 -106 196 -103 17 1 64 20 105 42 55 30 76 47 81 66 4 15 7 214 8 444
0 407 -2 433 -29 433 -3 0 -41 -20 -85 -44z"/>
<path d="M6653 6695 c-43 -23 -79 -50 -81 -58 -2 -9 -9 -14 -15 -12 -7 3 -48
-15 -92 -39 -59 -32 -81 -50 -86 -70 -4 -14 -7 -213 -7 -440 0 -334 2 -417 13
-426 19 -16 181 72 189 103 3 12 6 59 6 105 0 45 3 82 7 82 3 0 36 -17 72 -37
87 -49 119 -49 207 -1 39 21 74 38 77 38 4 0 7 -38 7 -84 0 -116 6 -120 112
-63 63 34 84 50 89 71 10 37 9 634 -1 660 -8 23 -164 111 -179 102 -5 -3 -11
2 -13 12 -7 24 -143 95 -189 97 -28 2 -58 -8 -116 -40z m298 -182 c0 -49 1
-143 2 -210 1 -66 -1 -119 -6 -116 -13 8 -170 -81 -175 -100 -3 -11 -10 -16
-20 -12 -8 3 -48 -13 -90 -35 -41 -22 -76 -39 -78 -37 -7 7 -9 415 -1 410 13
-8 170 81 175 100 3 11 11 16 21 13 9 -3 48 12 86 34 39 21 73 39 78 39 4 1 7
-38 8 -86z"/>
<path d="M7523 6695 c-43 -23 -79 -50 -81 -58 -2 -9 -9 -14 -15 -12 -7 3 -48
-15 -92 -39 -59 -32 -81 -50 -86 -70 -4 -14 -7 -213 -7 -440 0 -334 2 -417 13
-426 10 -8 34 0 99 35 99 54 100 56 95 204 -2 49 -1 87 3 85 12 -8 177 87 181
104 4 16 5 16 6 0 1 -17 165 -113 179 -104 4 2 6 -42 4 -98 -5 -138 -1 -142
110 -83 95 51 96 53 96 177 0 125 -2 128 -91 175 -42 22 -77 42 -77 45 0 3 35
23 77 45 56 29 79 47 84 65 10 37 10 195 0 222 -9 25 -164 114 -180 104 -5 -3
-11 2 -13 12 -7 24 -143 95 -189 97 -28 2 -58 -8 -116 -40z m297 -172 c0 -43
3 -89 7 -102 4 -17 3 -22 -6 -17 -16 10 -173 -75 -179 -97 -3 -11 -10 -16 -20
-12 -8 3 -48 -13 -90 -35 -41 -22 -76 -39 -77 -38 -7 8 -10 196 -3 192 14 -9
171 80 176 99 3 11 11 16 21 13 9 -3 48 12 86 34 39 21 73 39 78 39 4 1 7 -34
7 -76z"/>
<path d="M8795 6696 c-44 -24 -81 -51 -83 -60 -2 -9 -8 -14 -13 -10 -14 9
-171 -79 -179 -100 -7 -19 -7 -19 -12 0 -6 24 -139 96 -183 100 -48 3 -187
-74 -196 -110 -4 -14 -7 -213 -7 -440 0 -333 2 -417 13 -426 18 -15 173 66
186 97 4 12 8 158 8 324 0 166 2 304 5 306 3 3 35 -12 73 -33 90 -50 120 -50
211 -1 40 22 75 37 78 34 3 -3 6 -140 6 -306 -1 -240 2 -302 13 -311 18 -15
174 66 186 97 4 12 8 213 8 446 0 373 -2 426 -15 431 -9 3 -16 6 -17 6 -1 0
-38 -20 -82 -44z"/>
<path d="M9465 6696 c-59 -32 -81 -50 -86 -70 -4 -14 -7 -213 -7 -440 0 -334
2 -417 13 -426 10 -8 33 0 98 35 75 40 86 50 90 78 3 18 6 216 6 442 0 399 -2
425 -29 425 -3 0 -41 -20 -85 -44z"/>
<path d="M10345 6696 c-61 -33 -81 -49 -86 -71 -5 -15 -8 -110 -8 -212 0 -102
-2 -187 -4 -190 -3 -2 -39 14 -80 36 -41 23 -81 39 -89 36 -10 -4 -17 1 -20
12 -6 20 -162 108 -177 99 -5 -3 -11 2 -13 12 -6 22 -161 104 -181 96 -14 -5
-15 -58 -15 -429 0 -341 2 -426 13 -435 19 -16 181 72 189 103 3 13 5 108 5
211 0 104 2 191 5 193 3 3 38 -13 79 -36 44 -24 81 -39 91 -35 10 4 16 1 16
-9 0 -18 165 -111 180 -102 6 3 10 0 10 -9 0 -19 163 -108 184 -100 13 5 15
57 15 434 0 376 -2 429 -15 434 -9 3 -16 6 -17 6 -1 0 -38 -20 -82 -44z"/>
<path d="M4913 4945 c-43 -23 -79 -50 -81 -58 -2 -9 -9 -14 -15 -12 -7 3 -48
-15 -92 -39 -60 -33 -81 -50 -86 -70 -9 -32 -11 -596 -2 -643 4 -29 15 -38 89
-78 46 -26 89 -43 94 -40 6 3 10 0 10 -9 0 -21 169 -111 183 -97 7 7 14 7 23
0 15 -13 184 76 184 97 0 7 6 11 13 9 6 -2 48 15 92 39 92 50 93 53 93 176 0
125 -2 128 -91 175 -42 22 -77 42 -77 45 0 3 35 23 77 45 56 29 79 47 84 65
10 37 10 195 0 222 -9 25 -164 114 -180 104 -5 -3 -11 2 -13 12 -7 24 -143 95
-189 97 -28 2 -58 -8 -116 -40z m201 -240 c42 -22 76 -42 76 -45 0 -3 -35 -23
-77 -46 -88 -47 -91 -51 -92 -165 -2 -129 0 -133 90 -181 44 -24 79 -45 79
-48 0 -3 -35 -23 -77 -45 -42 -22 -78 -48 -81 -58 -3 -11 -10 -16 -20 -12 -8
3 -48 -13 -90 -35 -41 -22 -76 -39 -78 -37 -8 7 -9 635 -1 630 14 -9 177 87
178 105 0 14 2 13 9 -3 4 -11 42 -38 84 -60z"/>
<path d="M6653 4945 c-43 -23 -79 -50 -81 -58 -2 -9 -9 -14 -15 -12 -7 3 -48
-15 -92 -39 -60 -33 -81 -50 -86 -70 -9 -32 -11 -596 -2 -643 4 -29 15 -38 89
-78 46 -26 89 -43 94 -40 6 3 10 0 10 -9 0 -21 169 -111 183 -97 7 7 14 7 23
0 15 -13 184 76 184 97 0 7 6 11 13 9 6 -2 48 15 92 39 60 33 81 50 86 70 10
37 9 634 -1 660 -8 23 -164 111 -179 102 -5 -3 -11 2 -13 12 -7 24 -143 95
-189 97 -28 2 -58 -8 -116 -40z m298 -182 c4 -463 3 -550 -4 -546 -13 8 -170
-81 -175 -100 -3 -11 -10 -16 -20 -12 -8 3 -48 -13 -90 -35 -41 -22 -76 -39
-78 -37 -8 7 -9 635 -1 630 13 -8 170 81 175 100 3 11 11 16 21 13 9 -3 48 12
86 34 39 21 73 39 78 39 4 1 7 -38 8 -86z"/>
<path d="M7523 4945 c-43 -23 -79 -50 -81 -58 -2 -9 -9 -14 -15 -12 -7 3 -48
-15 -92 -39 -60 -33 -81 -50 -86 -70 -9 -32 -11 -596 -2 -643 4 -29 15 -38 89
-78 46 -26 89 -43 94 -40 6 3 10 0 10 -9 0 -21 169 -111 183 -97 7 7 14 7 23
0 15 -13 184 76 184 97 0 7 6 11 13 9 6 -2 48 15 92 39 55 30 82 51 86 67 4
13 7 65 8 115 1 76 -2 93 -15 98 -21 8 -176 -74 -182 -96 -2 -10 -8 -15 -13
-12 -15 9 -171 -79 -177 -99 -3 -11 -10 -16 -20 -12 -8 3 -48 -13 -90 -35 -41
-22 -76 -39 -78 -37 -8 7 -9 635 -1 630 13 -8 175 86 180 105 4 15 5 15 6 0 1
-21 143 -100 186 -104 22 -1 57 11 111 40 108 57 107 73 -1 132 -44 24 -85 42
-92 40 -6 -3 -13 3 -16 12 -6 24 -143 95 -188 97 -28 2 -58 -8 -116 -40z"/>
<path d="M8132 4977 c-12 -14 -16 -355 -6 -414 5 -29 16 -38 85 -75 43 -24 79
-46 79 -49 0 -3 -36 -24 -79 -47 -95 -51 -90 -36 -90 -294 0 -145 3 -189 14
-198 19 -16 180 72 189 103 3 12 6 59 6 105 0 45 3 82 6 82 4 0 39 -18 79 -40
43 -24 80 -38 89 -34 10 4 16 1 16 -9 0 -22 158 -105 195 -102 44 3 179 79
183 103 2 16 -15 30 -83 66 -47 26 -90 44 -95 41 -6 -3 -10 0 -10 9 0 19 -163
108 -184 100 -10 -4 -16 -1 -16 9 0 9 -33 34 -80 59 -44 24 -80 45 -80 48 0 3
34 23 77 45 42 22 78 48 81 58 3 11 10 16 19 13 20 -8 175 74 180 95 3 10 10
16 16 14 7 -3 48 15 92 39 109 59 109 71 3 128 -53 29 -94 45 -113 43 -40 -2
-185 -83 -185 -102 0 -10 -6 -13 -16 -9 -9 4 -46 -10 -89 -34 -40 -22 -75 -40
-79 -40 -3 0 -6 37 -6 83 0 45 -3 92 -6 104 -4 15 -34 37 -90 68 -46 25 -86
45 -88 45 -2 0 -8 -6 -14 -13z m198 -537 c0 -5 -4 -10 -10 -10 -5 0 -10 5 -10
10 0 6 5 10 10 10 6 0 10 -4 10 -10z"/>
<path d="M9271 4943 c-45 -25 -81 -51 -81 -59 0 -9 -4 -13 -10 -9 -5 3 -47
-15 -93 -40 -95 -51 -97 -54 -97 -175 0 -121 2 -124 96 -175 46 -26 89 -43 94
-40 6 3 10 0 10 -9 0 -19 163 -108 184 -100 10 4 16 1 16 -9 0 -9 33 -34 80
-59 44 -24 80 -46 80 -49 0 -3 -36 -24 -80 -48 -47 -25 -80 -49 -80 -58 0 -10
-6 -13 -16 -9 -10 4 -46 -10 -90 -34 -40 -22 -76 -40 -79 -40 -3 0 -5 37 -5
83 0 45 -3 92 -6 104 -8 28 -164 116 -188 107 -13 -5 -16 -22 -16 -89 0 -137
0 -138 96 -190 46 -26 89 -43 94 -40 6 3 10 0 10 -9 0 -21 169 -111 183 -97 7
7 14 7 23 0 16 -13 184 76 184 97 0 9 4 12 10 9 16 -10 171 78 181 103 10 26
12 185 3 219 -7 25 -167 119 -184 108 -6 -3 -10 0 -10 9 0 19 -163 108 -184
100 -10 -4 -16 -1 -16 9 0 9 -33 34 -80 59 -44 24 -80 45 -80 48 0 3 34 23 76
45 42 22 80 49 84 60 7 16 9 17 9 3 1 -21 142 -100 186 -104 22 -1 57 11 111
40 110 58 110 70 -1 130 -47 26 -90 44 -95 41 -6 -3 -10 0 -10 9 0 20 -147 98
-191 101 -27 2 -57 -9 -118 -42z"/>
<path d="M5595 4836 c-60 -33 -81 -50 -86 -70 -9 -32 -11 -596 -2 -643 4 -28
15 -38 90 -78 46 -25 88 -43 93 -40 6 4 10 0 10 -7 0 -20 159 -103 195 -102
40 0 195 80 195 100 0 8 4 13 9 10 5 -3 48 15 96 40 111 59 111 72 2 130 -50
26 -90 41 -111 40 -47 -1 -186 -76 -186 -100 0 -13 -5 -16 -16 -12 -10 4 -47
-10 -91 -35 -41 -22 -77 -38 -79 -36 -3 3 -5 191 -5 418 0 403 -2 429 -29 429
-3 0 -41 -20 -85 -44z"/>
</g>
</svg>
