<?xml version="1.0" standalone="no"?>
<!DOCTYPE svg PUBLIC "-//W3C//DTD SVG 20010904//EN"
 "http://www.w3.org/TR/2001/REC-SVG-20010904/DTD/svg10.dtd">
<svg version="1.0" xmlns="http://www.w3.org/2000/svg"
 width="1080.000000pt" height="1080.000000pt" viewBox="0 0 1080.000000 1080.000000"
 preserveAspectRatio="xMidYMid meet">

<g transform="translate(0.000000,1080.000000) scale(0.100000,-0.100000)"
fill="#000000" stroke="none">
<path d="M836 7155 c-181 -50 -319 -186 -382 -375 -18 -52 -19 -117 -22 -1042
l-3 -988 1460 -2 1460 -3 28 -21 c90 -67 96 -175 12 -235 l-34 -24 -1460 -5
-1460 -5 0 -250 c0 -213 3 -259 19 -310 58 -191 200 -330 386 -380 43 -12 130
-15 395 -15 l340 0 310 -311 c171 -171 322 -317 337 -325 15 -8 42 -14 60 -14
29 0 64 31 358 325 l325 325 646 0 c637 0 647 0 672 21 15 11 31 37 37 57 8
25 10 357 8 1062 l-3 1025 -1505 5 -1505 5 -34 24 c-84 60 -78 168 12 235 l28
21 1505 3 1504 2 0 555 c0 597 -1 603 -51 639 -21 14 -89 16 -674 16 l-650 0
-319 -319 c-213 -213 -328 -321 -345 -324 -14 -3 -39 1 -56 8 -16 7 -169 153
-340 324 l-310 311 -350 -1 c-260 -1 -363 -4 -399 -14z"/>
<path d="M4913 6694 c-46 -25 -83 -52 -83 -61 0 -8 -4 -12 -10 -8 -5 3 -47
-15 -93 -40 -95 -51 -97 -54 -97 -175 0 -121 2 -124 96 -175 46 -26 89 -43 94
-40 6 3 10 0 10 -9 0 -19 163 -108 184 -100 10 4 16 1 16 -9 0 -9 33 -34 80
-59 44 -24 80 -46 80 -49 0 -3 -36 -24 -80 -48 -47 -25 -80 -49 -80 -58 0 -10
-6 -13 -16 -9 -8 3 -47 -12 -88 -34 -40 -22 -76 -40 -79 -40 -4 0 -7 33 -7 74
0 127 -1 129 -97 181 -106 58 -113 54 -113 -55 0 -132 1 -133 96 -185 46 -26
89 -43 94 -40 6 3 10 0 10 -9 0 -21 169 -111 183 -97 7 7 14 7 23 0 16 -13
184 76 184 97 0 9 4 13 10 9 5 -3 47 15 93 40 95 51 97 54 97 175 0 121 -2
124 -97 175 -47 25 -89 42 -94 39 -5 -3 -9 1 -9 10 0 18 -165 107 -185 99 -9
-3 -15 1 -15 10 0 10 -32 33 -80 58 -44 22 -80 44 -80 48 0 3 36 25 79 49 44
23 82 50 84 60 4 15 5 16 6 0 1 -21 144 -101 185 -104 42 -2 196 80 196 106 0
13 -26 32 -86 64 -47 25 -90 43 -95 40 -5 -3 -9 1 -9 10 0 22 -169 109 -185
96 -9 -8 -15 -8 -20 0 -9 14 -11 14 -102 -36z"/>
<path d="M6174 6695 c-72 -39 -82 -49 -87 -77 -4 -18 -6 -163 -6 -321 0 -159
-2 -291 -4 -294 -3 -2 -38 13 -79 35 -90 49 -122 48 -213 -2 -37 -20 -69 -35
-72 -32 -3 2 -5 139 -5 305 1 245 -2 302 -13 311 -11 9 -32 2 -99 -34 -74 -40
-84 -50 -89 -78 -3 -18 -6 -216 -6 -440 0 -327 3 -409 14 -418 10 -8 34 0 99
35 48 26 86 53 86 61 0 9 4 13 10 9 14 -8 178 83 183 103 4 15 5 15 6 0 1 -21
145 -101 186 -103 19 -2 59 14 111 42 72 38 83 48 87 76 11 61 6 841 -5 854
-14 18 -13 18 -104 -32z"/>
<path d="M6653 6694 c-47 -25 -83 -52 -83 -60 0 -8 -5 -12 -10 -9 -6 4 -48
-14 -94 -39 -74 -40 -84 -50 -89 -78 -3 -18 -6 -216 -6 -440 0 -327 3 -409 14
-418 10 -8 33 0 98 35 96 52 97 54 97 181 0 41 3 74 7 74 3 0 36 -17 72 -37
87 -49 119 -49 207 -1 39 21 74 38 77 38 4 0 7 -38 7 -84 0 -116 6 -119 113
-61 75 40 86 50 91 78 7 42 7 592 -1 635 -5 28 -15 38 -89 78 -46 25 -88 43
-94 39 -5 -3 -10 1 -10 9 0 8 -37 35 -85 61 -67 37 -89 44 -99 35 -10 -7 -16
-8 -21 0 -9 15 -12 14 -102 -36z m298 -181 c0 -49 1 -143 2 -210 1 -66 -1
-119 -6 -116 -13 8 -170 -81 -175 -100 -3 -11 -10 -16 -20 -12 -8 3 -48 -13
-90 -35 -41 -22 -76 -39 -78 -37 -8 7 -9 415 -2 410 13 -8 178 88 178 103 0
10 6 13 18 10 10 -3 47 11 87 34 39 22 73 40 78 40 4 0 7 -39 8 -87z"/>
<path d="M7523 6694 c-47 -25 -83 -52 -83 -60 0 -8 -5 -12 -10 -9 -6 4 -48
-14 -94 -39 -74 -40 -84 -50 -89 -78 -3 -18 -6 -216 -6 -440 0 -327 3 -409 14
-418 10 -8 33 0 99 35 84 46 85 47 92 91 3 25 4 81 2 124 -3 44 -1 77 3 74 13
-8 177 86 182 104 4 16 5 16 6 0 1 -17 165 -113 179 -104 4 2 6 -42 4 -98 -5
-138 -1 -142 111 -81 95 51 97 54 97 175 0 120 -3 125 -91 173 -43 23 -79 45
-79 48 0 3 35 24 79 47 89 47 91 52 91 172 0 121 -2 125 -96 176 -46 25 -88
43 -94 39 -5 -3 -10 1 -10 9 0 8 -37 35 -85 61 -67 37 -89 44 -99 35 -10 -7
-16 -8 -21 0 -9 15 -12 14 -102 -36z m297 -171 c0 -43 3 -89 7 -102 4 -17 3
-22 -6 -17 -16 10 -173 -75 -179 -97 -3 -11 -10 -16 -20 -12 -8 3 -48 -13 -90
-35 -41 -22 -76 -39 -77 -38 -7 8 -10 196 -3 192 13 -8 178 87 178 102 0 10 6
13 18 10 10 -3 47 11 87 34 39 22 73 40 78 40 4 0 7 -35 7 -77z"/>
<path d="M8793 6694 c-47 -25 -83 -52 -83 -60 0 -8 -5 -12 -10 -9 -15 9 -178
-82 -183 -103 -4 -16 -5 -16 -6 0 -2 24 -157 107 -197 104 -17 -2 -64 -21
-106 -44 -66 -37 -77 -47 -81 -75 -4 -17 -6 -215 -6 -439 0 -327 3 -409 14
-418 10 -8 33 0 98 35 75 40 86 50 91 78 3 18 5 162 5 320 0 159 2 291 5 294
3 3 35 -12 73 -33 90 -50 120 -50 211 -1 40 22 75 37 78 34 3 -3 6 -140 6
-306 -1 -239 2 -302 13 -311 10 -8 33 0 98 35 75 40 86 50 90 78 11 61 6 841
-5 854 -14 18 -13 18 -105 -33z"/>
<path d="M9464 6695 c-72 -39 -82 -49 -87 -77 -3 -18 -6 -216 -6 -440 0 -327
3 -409 14 -418 10 -8 33 0 98 35 75 40 86 50 90 78 11 61 6 841 -5 854 -14 18
-13 18 -104 -32z"/>
<path d="M10344 6695 c-98 -54 -93 -39 -93 -289 0 -98 -2 -180 -4 -183 -3 -2
-39 14 -80 36 -44 25 -81 39 -91 35 -10 -4 -16 -1 -16 9 0 19 -164 112 -180
102 -5 -3 -10 1 -10 9 0 8 -37 35 -85 61 -67 37 -89 44 -99 35 -21 -16 -21
-843 -1 -860 10 -8 34 0 98 35 102 55 96 39 96 289 0 98 2 180 5 183 3 3 38
-13 79 -36 44 -24 81 -39 91 -35 10 4 16 1 16 -9 0 -18 165 -111 180 -102 6 3
10 0 10 -9 0 -8 38 -35 86 -61 66 -36 88 -44 99 -35 11 9 13 87 13 428 0 393
-3 443 -27 442 -3 0 -43 -21 -87 -45z"/>
<path d="M4913 4944 c-47 -25 -83 -52 -83 -60 0 -8 -5 -12 -10 -9 -6 4 -48
-14 -94 -39 -74 -40 -84 -50 -89 -78 -8 -43 -8 -593 -1 -635 5 -29 16 -38 90
-78 46 -26 89 -43 94 -40 6 3 10 0 10 -9 0 -21 169 -111 183 -97 7 7 14 7 23
0 16 -13 184 76 184 97 0 9 4 13 10 9 5 -3 47 15 93 40 95 51 97 54 97 175 0
120 -3 125 -91 173 -43 23 -79 45 -79 48 0 3 35 24 79 47 89 47 91 52 91 172
0 121 -2 125 -96 176 -46 25 -88 43 -94 39 -5 -3 -10 1 -10 9 0 8 -37 35 -85
61 -67 37 -89 44 -99 35 -10 -7 -16 -8 -21 0 -9 15 -12 14 -102 -36z m201
-239 c42 -22 76 -42 76 -45 0 -3 -35 -23 -77 -46 -88 -47 -91 -51 -92 -165 -2
-129 0 -133 90 -181 44 -24 79 -45 79 -48 0 -3 -35 -23 -77 -45 -42 -22 -78
-48 -81 -58 -3 -11 -10 -16 -20 -12 -8 3 -48 -13 -90 -35 -41 -22 -77 -39 -79
-37 -7 8 -8 635 -1 630 14 -8 178 88 179 105 0 14 2 13 9 -3 4 -11 42 -38 84
-60z"/>
<path d="M6653 4944 c-47 -25 -83 -52 -83 -60 0 -8 -5 -12 -10 -9 -6 4 -48
-14 -94 -39 -74 -40 -84 -50 -89 -78 -8 -43 -8 -593 -1 -635 5 -29 16 -38 90
-78 46 -26 89 -43 94 -40 6 3 10 0 10 -9 0 -21 169 -111 183 -97 7 7 14 7 23
0 16 -13 184 76 184 97 0 9 4 13 10 9 5 -3 47 15 93 40 75 40 86 50 91 78 7
42 7 592 -1 635 -5 28 -15 38 -89 78 -46 25 -88 43 -94 39 -5 -3 -10 1 -10 9
0 8 -37 35 -85 61 -67 37 -89 44 -99 35 -10 -7 -16 -8 -21 0 -9 15 -12 14
-102 -36z m298 -181 c4 -463 3 -550 -4 -546 -13 8 -170 -81 -175 -100 -3 -11
-10 -16 -20 -12 -8 3 -48 -13 -90 -35 -41 -22 -77 -39 -79 -37 -7 8 -8 635 -1
630 13 -8 178 88 178 103 0 10 6 13 18 10 10 -3 47 11 87 34 39 22 73 40 78
40 4 0 7 -39 8 -87z"/>
<path d="M7523 4944 c-47 -25 -83 -52 -83 -60 0 -8 -5 -12 -10 -9 -6 4 -48
-14 -94 -39 -74 -40 -84 -50 -89 -78 -8 -43 -8 -593 -1 -635 5 -29 16 -38 90
-78 46 -26 89 -43 94 -40 6 3 10 0 10 -9 0 -21 169 -111 183 -97 7 7 14 7 23
0 16 -13 184 76 184 97 0 9 4 13 10 9 5 -3 47 15 93 40 96 52 97 53 97 185 0
109 -8 113 -111 58 -45 -23 -84 -51 -87 -60 -2 -10 -8 -15 -13 -12 -15 9 -171
-79 -177 -99 -3 -11 -10 -16 -20 -12 -8 3 -48 -13 -90 -35 -41 -22 -77 -39
-79 -37 -7 8 -8 635 -1 630 13 -7 176 87 181 105 4 16 5 16 6 0 1 -21 144
-101 185 -104 43 -2 196 80 196 106 0 13 -25 33 -85 65 -46 26 -89 44 -95 40
-5 -3 -10 1 -10 9 0 8 -37 35 -85 61 -67 37 -89 44 -99 35 -10 -7 -16 -8 -21
0 -9 15 -12 14 -102 -36z"/>
<path d="M8132 4977 c-12 -14 -16 -355 -6 -414 5 -29 16 -38 85 -75 43 -24 79
-46 79 -49 0 -3 -36 -24 -79 -47 -95 -51 -90 -36 -90 -294 0 -145 3 -189 14
-198 10 -8 32 -1 98 35 96 52 97 54 97 181 0 41 3 74 6 74 4 0 39 -18 79 -40
43 -24 80 -38 89 -34 10 4 16 1 16 -9 0 -19 145 -100 185 -102 41 -3 195 80
195 105 0 13 -26 32 -86 64 -47 25 -90 43 -95 40 -5 -3 -9 1 -9 10 0 18 -164
108 -185 100 -9 -4 -15 0 -15 9 0 10 -32 33 -80 58 -44 22 -80 44 -80 48 0 4
36 26 80 50 47 25 80 49 80 58 0 9 6 13 15 9 21 -8 185 82 185 100 0 9 4 13
10 9 5 -3 48 15 95 41 110 60 111 70 3 126 -46 24 -94 43 -108 44 -34 1 -190
-84 -190 -103 0 -10 -6 -13 -16 -9 -8 3 -47 -12 -88 -34 -40 -22 -76 -40 -79
-40 -4 0 -7 33 -7 74 0 128 -1 130 -97 181 -47 25 -86 45 -88 45 -1 0 -7 -6
-13 -13z m198 -537 c0 -5 -4 -10 -10 -10 -5 0 -10 5 -10 10 0 6 5 10 10 10 6
0 10 -4 10 -10z"/>
<path d="M9273 4944 c-46 -25 -83 -52 -83 -61 0 -8 -4 -12 -10 -8 -5 3 -47
-15 -93 -40 -95 -51 -97 -54 -97 -175 0 -121 2 -124 96 -175 46 -26 89 -43 94
-40 6 3 10 0 10 -9 0 -19 163 -108 184 -100 10 4 16 1 16 -9 0 -9 33 -34 80
-59 44 -24 80 -46 80 -49 0 -3 -36 -24 -80 -48 -47 -25 -80 -49 -80 -58 0 -10
-6 -13 -16 -9 -8 3 -47 -12 -88 -34 -40 -22 -76 -40 -79 -40 -4 0 -7 33 -7 74
0 127 -1 129 -97 181 -106 58 -113 54 -113 -55 0 -132 1 -133 96 -185 46 -26
89 -43 94 -40 6 3 10 0 10 -9 0 -21 169 -111 183 -97 7 7 14 7 23 0 16 -13
184 76 184 97 0 9 4 13 10 9 5 -3 47 15 93 40 95 51 97 54 97 175 0 121 -2
124 -97 175 -47 25 -89 42 -94 39 -5 -3 -9 1 -9 10 0 18 -165 107 -185 99 -9
-3 -15 1 -15 10 0 10 -32 33 -80 58 -44 22 -80 44 -80 48 0 3 36 25 79 49 44
23 82 50 84 60 4 15 5 16 6 0 1 -21 144 -101 185 -104 42 -2 196 80 196 106 0
13 -26 32 -86 64 -47 25 -90 43 -95 40 -5 -3 -9 1 -9 10 0 22 -169 109 -185
96 -9 -8 -15 -8 -20 0 -9 14 -11 14 -102 -36z"/>
<path d="M5594 4835 c-72 -39 -82 -49 -87 -77 -8 -43 -8 -593 -1 -635 5 -29
16 -38 91 -78 47 -25 89 -42 94 -39 5 3 9 -1 9 -8 0 -20 159 -103 195 -103 36
0 195 83 195 103 0 7 4 11 9 8 5 -3 48 15 95 40 61 32 86 51 86 64 0 26 -153
109 -195 105 -46 -4 -176 -73 -182 -96 -4 -13 -11 -18 -20 -14 -9 3 -49 -13
-90 -36 -41 -23 -77 -39 -80 -36 -2 3 -5 189 -5 414 0 384 -3 434 -27 433 -3
0 -43 -21 -87 -45z"/>
</g>
</svg>
