<?xml version="1.0" standalone="no"?>
<!DOCTYPE svg PUBLIC "-//W3C//DTD SVG 20010904//EN"
 "http://www.w3.org/TR/2001/REC-SVG-20010904/DTD/svg10.dtd">
<svg version="1.0" xmlns="http://www.w3.org/2000/svg"
 width="1080.000000pt" height="1080.000000pt" viewBox="0 0 1080.000000 1080.000000"
 preserveAspectRatio="xMidYMid meet">

<g transform="translate(0.000000,1080.000000) scale(0.100000,-0.100000)"
fill="#000000" stroke="none">
<path d="M0 5400 l0 -5400 5400 0 5400 0 0 5400 0 5400 -5400 0 -5400 0 0
-5400z m1907 1448 c314 -314 324 -323 362 -323 38 0 48 9 365 323 l325 322
641 0 c687 0 683 0 710 -49 6 -13 10 -218 10 -590 l0 -571 -35 0 c-33 0 -35
-2 -35 -35 l0 -35 -1497 0 c-1681 0 -1533 7 -1533 -75 0 -51 31 -100 80 -129
35 -21 42 -21 1528 -24 l1492 -2 0 -1051 0 -1051 -31 -29 c-17 -16 -35 -29
-39 -29 -5 0 -11 -9 -15 -19 -3 -11 -21 -26 -39 -35 -30 -14 -108 -16 -667
-16 l-633 0 -317 -315 c-174 -173 -329 -319 -345 -325 -15 -6 -40 -8 -54 -5
-15 4 -151 132 -345 325 l-320 319 -360 3 c-359 4 -360 4 -427 29 -176 68
-298 201 -343 376 -11 43 -15 117 -15 299 l0 243 33 3 c28 3 32 7 35 36 l3 32
1417 0 c779 1 1437 5 1461 9 73 14 89 58 50 138 -14 30 -33 50 -60 63 -37 20
-66 20 -1489 20 l-1450 0 0 978 c0 1071 -2 1029 60 1152 55 109 207 258 314
309 100 46 131 50 496 50 l345 1 322 -322z m3236 -158 c42 -23 77 -48 77 -56
0 -9 4 -13 10 -9 5 3 48 -15 95 -41 69 -37 85 -50 83 -67 -4 -27 -229 -147
-276 -147 -18 0 -67 18 -114 41 l-81 41 -38 -18 c-22 -9 -39 -20 -39 -24 0 -3
36 -25 80 -49 47 -25 80 -49 80 -58 0 -9 6 -13 15 -9 21 8 185 -82 185 -100 0
-9 4 -13 10 -9 5 3 48 -15 95 -41 l85 -46 2 69 c0 37 0 107 -2 154 -4 153 -2
157 98 216 139 81 171 96 187 83 11 -9 14 -71 13 -311 0 -166 2 -302 4 -305 3
-2 35 13 73 33 76 40 125 47 168 26 16 -8 31 -12 34 -9 3 3 5 110 4 238 0 128
2 249 5 268 4 32 13 40 92 87 205 120 205 120 201 -38 -2 -59 -1 -110 3 -114
5 -5 78 35 288 160 99 58 154 82 191 80 42 -2 180 -73 186 -97 3 -9 10 -15 16
-12 20 7 172 -82 175 -102 8 -43 8 -44 302 131 99 58 154 82 191 80 42 -2 180
-73 186 -97 3 -9 10 -15 16 -12 7 2 48 -16 92 -40 78 -42 80 -45 92 -92 6 -27
12 -40 12 -29 1 19 104 87 216 143 63 31 110 19 226 -54 21 -13 40 -19 45 -14
11 10 179 108 282 163 57 30 76 36 87 27 11 -9 14 -84 13 -426 0 -228 -3 -426
-7 -441 -5 -21 -31 -39 -132 -91 -77 -41 -131 -64 -141 -60 -15 6 -17 37 -16
308 0 166 -2 304 -5 306 -3 3 -37 -11 -75 -30 -72 -36 -116 -41 -179 -21 -27
9 -25 28 -24 -280 1 -115 -3 -223 -7 -239 -7 -24 -27 -39 -133 -94 -162 -86
-162 -86 -159 56 2 59 2 118 1 132 -2 23 -3 23 -11 5 -11 -28 -250 -151 -274
-142 -16 7 -18 18 -14 112 3 81 1 105 -9 105 -8 0 -50 18 -95 41 l-81 41 -49
-23 -48 -22 -1 -96 c-1 -53 -4 -107 -8 -120 -8 -31 -246 -159 -275 -148 -16 7
-18 18 -15 115 2 59 1 109 -3 112 -4 3 -62 -24 -130 -59 -80 -42 -130 -62
-141 -58 -14 5 -17 20 -17 92 0 47 -2 85 -5 85 -3 0 -37 -16 -75 -35 -69 -35
-115 -40 -176 -20 -19 6 -22 2 -27 -44 -3 -29 -8 -55 -11 -59 -2 -4 -60 -36
-128 -71 -161 -84 -161 -84 -158 57 2 59 2 110 1 115 0 4 -57 -22 -124 -58
-84 -44 -135 -65 -158 -65 -20 0 -67 18 -115 43 l-80 42 -55 -32 c-29 -17 -99
-56 -154 -87 -192 -105 -188 -106 -185 42 2 59 2 111 1 115 -1 9 -163 -75
-191 -98 -8 -7 -67 -40 -130 -73 -85 -45 -125 -60 -155 -60 -48 0 -195 71
-195 93 0 8 -7 15 -15 15 -9 0 -51 18 -95 40 -77 39 -79 41 -85 82 -3 24 -5
75 -3 113 3 67 4 70 28 69 14 -1 33 -4 43 -9 14 -6 17 -2 17 23 0 56 20 58
113 7 96 -52 97 -54 97 -181 0 -41 3 -74 6 -74 4 0 65 32 137 72 l130 71 -86
44 c-63 31 -87 48 -87 62 0 14 -5 18 -19 14 -25 -6 -181 73 -181 92 0 8 -7 15
-15 15 -9 0 -51 18 -94 39 -89 45 -91 50 -91 171 0 103 6 122 48 146 20 12 66
38 102 59 247 145 301 172 338 170 21 -1 71 -21 115 -45z m4427 35 c8 -10 11
-47 10 -117 -4 -155 -4 -153 28 -154 15 0 35 -4 45 -8 14 -7 17 -3 17 22 0 56
21 58 111 10 45 -23 84 -51 87 -60 2 -10 8 -15 13 -12 15 9 171 -79 177 -99 3
-11 10 -16 19 -13 8 3 28 -1 45 -10 16 -8 32 -13 36 -10 3 4 5 63 4 133 -3
187 -6 180 96 240 139 81 171 96 187 83 11 -9 14 -90 13 -430 0 -462 1 -456
-57 -425 l-31 16 0 -31 c0 -19 -6 -33 -16 -37 -22 -8 -184 72 -184 92 0 8 -7
15 -15 15 -9 0 -51 18 -95 40 -59 30 -80 45 -80 60 0 13 -5 18 -15 14 -9 -4
-29 -1 -46 6 -16 7 -32 10 -36 7 -3 -4 -5 -66 -4 -139 0 -73 -3 -146 -7 -162
-7 -24 -27 -39 -133 -94 -162 -86 -162 -86 -159 56 2 59 2 118 1 132 -2 23 -3
23 -11 5 -10 -26 -250 -151 -272 -143 -15 6 -17 46 -17 415 0 224 2 422 5 439
6 32 27 48 189 135 81 44 79 44 95 24z m-4430 -1781 c40 -21 75 -47 77 -56 3
-9 10 -15 16 -12 20 7 172 -82 175 -102 7 -37 20 -35 93 9 127 76 179 100 194
87 12 -10 14 -86 14 -422 0 -226 2 -412 5 -415 3 -4 119 56 166 87 61 39 180
95 205 96 18 0 64 -17 113 -43 l82 -43 1 67 c1 38 1 158 0 268 -2 269 -3 264
67 305 323 188 370 213 412 215 42 2 190 -70 197 -97 3 -9 10 -15 16 -12 20 7
172 -82 175 -102 8 -43 8 -44 302 131 99 58 154 82 191 80 42 -2 180 -73 186
-97 3 -9 10 -15 16 -12 7 2 48 -16 92 -40 115 -63 112 -72 -40 -152 -76 -40
-132 -64 -153 -64 -18 0 -68 18 -114 41 l-82 41 -49 -24 -49 -24 0 -308 c1
-170 3 -310 6 -313 2 -3 15 2 28 10 12 8 57 33 98 54 41 22 120 66 175 98 197
115 245 138 260 125 8 -7 16 -24 16 -39 1 -20 3 -21 6 -6 2 13 34 37 83 65 44
25 80 48 80 52 0 4 -36 26 -79 48 -78 39 -80 40 -85 82 -3 24 -5 124 -4 223
l3 180 25 -1 c14 -1 33 -4 43 -9 14 -6 17 -2 17 23 0 56 20 58 113 7 96 -52
97 -54 97 -181 0 -41 3 -74 6 -74 4 0 82 41 173 92 91 50 180 92 196 93 41 3
195 -80 195 -105 0 -13 -27 -33 -87 -66 -49 -26 -95 -52 -103 -59 -14 -12
-130 -77 -292 -164 -38 -20 -68 -39 -68 -42 0 -3 36 -24 80 -48 47 -25 80 -49
80 -58 0 -9 6 -13 15 -9 21 8 185 -82 185 -100 0 -9 4 -13 10 -9 5 3 47 -15
94 -40 l85 -46 3 68 c3 65 4 68 28 67 14 -1 33 -4 43 -9 14 -6 17 -2 17 23 0
56 20 58 113 7 96 -52 97 -54 97 -181 0 -41 3 -74 6 -74 4 0 65 32 137 72
l130 71 -86 44 c-63 31 -87 48 -87 62 0 14 -5 18 -19 14 -25 -6 -181 73 -181
92 0 8 -7 15 -15 15 -9 0 -51 18 -94 39 -89 45 -91 50 -91 171 0 103 6 122 48
146 20 12 66 38 102 59 227 133 296 169 329 170 43 2 201 -78 201 -101 0 -9 4
-13 10 -9 5 3 48 -15 95 -41 69 -37 85 -50 83 -67 -4 -27 -229 -147 -276 -147
-18 0 -67 18 -114 41 l-81 41 -38 -18 c-22 -9 -39 -20 -39 -24 0 -3 36 -25 80
-49 47 -25 80 -49 80 -58 0 -9 6 -13 15 -9 21 8 185 -82 185 -100 0 -9 4 -13
10 -9 5 3 47 -15 93 -40 95 -51 97 -54 97 -175 0 -121 -2 -124 -99 -176 -47
-26 -93 -52 -101 -59 -8 -7 -67 -40 -130 -73 -85 -45 -125 -60 -155 -60 -48 0
-195 71 -195 93 0 8 -7 15 -15 15 -9 0 -51 18 -95 40 -56 28 -80 46 -80 58 0
10 -3 21 -6 25 -4 3 -61 -23 -129 -58 -76 -41 -134 -65 -154 -65 -44 0 -191
75 -191 98 0 12 -9 17 -27 18 -16 1 -37 5 -49 8 -19 7 -22 3 -27 -43 -3 -29
-8 -55 -11 -59 -2 -4 -60 -36 -128 -71 -82 -43 -130 -63 -141 -58 -16 6 -18
20 -15 131 1 69 -1 128 -5 132 -4 4 -7 0 -7 -9 0 -9 -34 -34 -87 -63 -49 -26
-95 -52 -103 -59 -8 -7 -67 -40 -130 -73 -85 -45 -125 -60 -155 -60 -48 0
-195 71 -195 93 0 8 -7 15 -15 15 -9 0 -51 18 -95 40 -56 28 -80 46 -80 58 0
10 -3 22 -7 25 -6 7 -163 -73 -193 -98 -8 -7 -67 -40 -130 -73 -85 -45 -125
-60 -155 -60 -48 0 -195 71 -195 93 0 8 -7 15 -15 15 -9 0 -51 18 -95 40 -56
28 -80 46 -80 58 0 10 -3 22 -6 25 -7 7 -182 -81 -199 -100 -5 -6 -62 -38
-126 -71 -143 -74 -165 -76 -266 -20 -40 22 -73 46 -73 54 0 8 -9 14 -21 14
-32 0 -179 83 -179 101 0 9 -3 19 -7 22 -6 7 -163 -73 -193 -98 -8 -7 -67 -40
-130 -73 -85 -45 -125 -60 -155 -60 -48 0 -195 71 -195 93 0 8 -7 15 -15 15
-9 0 -51 18 -94 40 -70 35 -79 43 -84 72 -8 42 -8 592 -1 634 6 33 -4 25 214
152 255 148 261 150 380 86z"/>
<path d="M6915 6586 c-18 -13 -18 -14 3 -25 29 -16 32 -14 32 14 0 28 -8 31
-35 11z"/>
<path d="M7785 6586 c-18 -13 -18 -14 3 -25 29 -16 32 -14 32 14 0 28 -8 31
-35 11z"/>
<path d="M6790 6519 c-30 -18 -90 -51 -134 -74 l-78 -42 0 -198 c1 -109 3
-199 5 -201 2 -2 37 14 77 36 40 22 75 40 77 40 2 0 32 17 66 38 l62 37 -1
110 c-3 258 -4 285 -11 285 -5 0 -33 -14 -63 -31z"/>
<path d="M7660 6519 c-30 -18 -91 -51 -134 -74 l-79 -43 2 -88 c1 -49 3 -90 5
-91 3 -3 182 92 241 128 l40 24 -3 88 c-1 48 -6 87 -10 87 -4 0 -32 -14 -62
-31z"/>
<path d="M8021 6298 c-1 -11 -31 -33 -81 -60 -44 -24 -80 -45 -80 -48 0 -3 34
-23 76 -45 42 -22 80 -49 84 -60 10 -27 19 172 9 205 -4 15 -8 18 -8 8z"/>
<path d="M8032 6030 c0 -14 2 -19 5 -12 2 6 2 18 0 25 -3 6 -5 1 -5 -13z"/>
<path d="M4750 5755 c0 -27 21 -33 39 -12 8 11 5 16 -14 25 -23 11 -25 10 -25
-13z"/>
<path d="M9582 6250 c0 -14 2 -19 5 -12 2 6 2 18 0 25 -3 6 -5 1 -5 -13z"/>
<path d="M9582 6030 c0 -14 2 -19 5 -12 2 6 2 18 0 25 -3 6 -5 1 -5 -13z"/>
<path d="M6915 4836 c-18 -13 -18 -14 3 -25 29 -16 32 -14 32 14 0 28 -8 31
-35 11z"/>
<path d="M6790 4769 c-30 -18 -90 -51 -134 -74 l-78 -42 0 -308 c1 -169 3
-309 5 -311 2 -2 37 14 77 36 40 22 75 40 77 40 2 0 32 17 66 38 l62 37 -2
220 c-2 375 -3 395 -10 395 -5 0 -33 -14 -63 -31z"/>
<path d="M4881 4676 l-43 -23 0 -308 c1 -169 3 -310 6 -313 3 -3 11 0 18 5 7
6 54 31 103 57 50 26 101 55 114 65 l25 19 -81 40 c-91 46 -93 50 -93 172 0
113 4 122 73 163 114 65 113 59 19 106 -45 22 -85 41 -89 41 -5 -1 -28 -11
-52 -24z"/>
<path d="M5328 4487 c-43 -23 -78 -44 -78 -47 0 -3 36 -24 79 -47 l79 -42 5
82 c2 45 2 85 -2 89 -3 4 -41 -12 -83 -35z"/>
<path d="M4750 4005 c0 -28 8 -31 34 -12 17 12 16 14 -8 25 -24 11 -26 10 -26
-13z"/>
<path d="M5620 4005 c0 -27 21 -33 39 -12 8 11 5 16 -14 25 -23 11 -25 10 -25
-13z"/>
<path d="M6490 4005 c0 -28 8 -31 34 -12 17 12 16 14 -8 25 -24 11 -26 10 -26
-13z"/>
<path d="M7360 4005 c0 -28 8 -31 34 -12 17 12 16 14 -8 25 -24 11 -26 10 -26
-13z"/>
<path d="M9110 4005 c0 -27 21 -33 39 -12 8 11 5 16 -14 25 -23 11 -25 10 -25
-13z"/>
</g>
</svg>
