<?xml version="1.0" encoding="utf-8"?>
<!-- Generator: Adobe Illustrator 23.0.1, SVG Export Plug-In . SVG Version: 6.00 Build 0)  -->
<svg version="1.1" id="Слой_1" xmlns="http://www.w3.org/2000/svg" xmlns:xlink="http://www.w3.org/1999/xlink" x="0px" y="0px"
	 viewBox="0 0 566.93 226.77" style="enable-background:new 0 0 566.93 226.77;" xml:space="preserve">
<style type="text/css">
	.st0{fill:#3679BC;}
	.st1{fill:#27B4AA;}
</style>
<g>
	<polygon class="st0" points="356.5,37.35 287.97,37.35 287.97,56.03 312.9,56.03 312.9,105.92 331.58,105.92 331.58,56.03 
		356.5,56.03 	"/>
	<polygon class="st0" points="434.54,56.03 434.54,37.35 366,37.35 366,37.39 365.97,37.39 365.97,105.92 366,105.92 384.65,105.92 
		434.54,105.92 434.54,87.24 384.65,87.24 384.65,80.99 415.89,80.99 415.89,62.31 384.65,62.31 384.65,56.03 	"/>
	<polygon class="st0" points="356.55,134.06 356.52,120.82 343.35,120.86 318.39,145.81 306.6,145.81 306.6,120.86 287.92,120.86 
		287.92,189.39 306.6,189.39 306.6,164.49 318.45,164.49 343.35,189.39 356.52,189.42 356.55,176.18 335.5,155.12 	"/>
	<path class="st0" d="M88.62,56.3h34.3V37.35h-34.3c-18.94,0-34.3,15.36-34.3,34.3s15.36,34.3,34.3,34.3h34.3V87h-34.3
		c-8.48,0-15.35-6.87-15.35-15.35C73.28,63.17,80.15,56.3,88.62,56.3z"/>
	<path class="st0" d="M181.76,155.12v34.3h18.95v-34.3c0-18.94-15.36-34.3-34.3-34.3s-34.3,15.36-34.3,34.3v34.3h18.95v-34.3
		c0-8.48,6.87-15.35,15.35-15.35C174.89,139.78,181.76,146.65,181.76,155.12z"/>
	<path class="st0" d="M244.21,139.78h34.3v-18.95h-34.3c-18.94,0-34.3,15.36-34.3,34.3s15.36,34.3,34.3,34.3h34.3v-18.95h-34.3
		c-8.48,0-15.35-6.87-15.35-15.35C228.86,146.65,235.73,139.78,244.21,139.78z"/>
	<polygon class="st0" points="104.15,120.82 104.15,145.55 73.46,145.55 73.46,120.82 54.32,120.82 54.32,189.42 73.46,189.42 
		73.46,164.69 104.15,164.69 104.15,189.42 122.92,189.42 122.92,120.82 	"/>
	<path class="st1" d="M453.24,145.34c-0.23-13.68-11.67-24.52-25.35-24.52h-24.53v18.68h24.77c3.37,0,6.27,2.59,6.43,5.96
		c0.17,3.6-2.7,6.56-6.25,6.56h-6.26c-10.32,0-18.68,8.36-18.68,18.68v0v18.65h49.88v-18.65H428.3
		C442.22,170.71,453.47,159.31,453.24,145.34z"/>
	<path class="st1" d="M512.59,145.34c-0.23-13.68-11.67-24.52-25.35-24.52h-24.53v18.68h24.77c3.37,0,6.27,2.59,6.43,5.96
		c0.17,3.6-2.7,6.56-6.25,6.56h-6.26c-10.32,0-18.68,8.36-18.68,18.68v0v18.65h49.88v-18.65h-24.94
		C501.57,170.71,512.82,159.31,512.59,145.34z"/>
	<path class="st0" d="M200.29,66.27c-2.97-18.71-20.55-31.47-39.25-28.49c-18.71,2.97-31.47,20.55-28.49,39.25
		c2.97,18.71,20.55,31.47,39.25,28.49C190.5,102.56,203.26,84.98,200.29,66.27z M166.42,87c-8.48,0-15.35-6.87-15.35-15.35
		c0-8.48,6.87-15.35,15.35-15.35c8.48,0,15.35,6.87,15.35,15.35C181.76,80.13,174.89,87,166.42,87z"/>
	
		<rect x="375.22" y="120.82" transform="matrix(-1 -1.224647e-16 1.224647e-16 -1 769.1138 266.6382)" class="st1" width="18.68" height="24.99"/>
	<path class="st0" d="M253.7,37.39v-0.04h-33.19v0.04h-10.61v68.53h18.68V87h25.11c13.7,0,24.81-11.11,24.81-24.81
		C278.51,48.49,267.4,37.39,253.7,37.39z M250.69,71.46h-22.1V53.17h22.1v0.01c5.05,0,9.14,4.09,9.14,9.14
		C259.83,67.37,255.74,71.46,250.69,71.46z"/>
	<path class="st0" d="M512.61,62.19c0-13.7-11.11-24.81-24.81-24.81v-0.04h-33.19v0.01h-10.61v68.6h18.68V87h17.79l18.92,18.92
		l13.17,0.03l0.04-13.24l-10.36-10.36C508.52,77.85,512.61,70.5,512.61,62.19z M484.79,71.46
		C484.79,71.46,484.79,71.46,484.79,71.46h-22.1V53.17h22.1v0.01c0,0,0,0,0,0c5.05,0,9.14,4.09,9.14,9.14
		C493.92,67.37,489.83,71.46,484.79,71.46z"/>
</g>
</svg>
