<?xml version="1.0" encoding="utf-8"?>
<!-- Generator: Adobe Illustrator 23.0.1, SVG Export Plug-In . SVG Version: 6.00 Build 0)  -->
<svg version="1.1" id="Слой_1" xmlns="http://www.w3.org/2000/svg" xmlns:xlink="http://www.w3.org/1999/xlink" x="0px" y="0px"
	 viewBox="0 0 850.39 283.46" style="enable-background:new 0 0 850.39 283.46;" xml:space="preserve">
<style type="text/css">
	.st0{fill:#333333;}
	.st1{fill:#FFFFFF;}
	.st2{fill:#CCCCCC;}
	.st3{fill:#1E1183;}
	.st4{fill:#F71523;}
	.st5{fill:url(#SVGID_1_);}
	.st6{fill:url(#SVGID_2_);}
	.st7{fill:url(#SVGID_3_);}
	.st8{opacity:0.05;fill:#FFFFFF;}
	.st9{opacity:0.05;fill:#CCCCCC;}
	.st10{opacity:0.05;fill:url(#SVGID_4_);}
	.st11{opacity:0.05;fill:url(#SVGID_5_);}
	.st12{opacity:0.05;fill:url(#SVGID_6_);}
	.st13{opacity:0.05;fill:url(#SVGID_7_);}
	.st14{opacity:0.05;fill:url(#SVGID_8_);}
	.st15{opacity:0.05;fill:url(#SVGID_9_);}
	.st16{opacity:0.05;fill:url(#SVGID_10_);}
	.st17{opacity:0.05;fill:url(#SVGID_11_);}
	.st18{opacity:0.05;fill:url(#SVGID_12_);}
</style>
<g>
	<polygon class="st3" points="559.36,2.05 433.46,2.05 433.46,36.37 479.25,36.37 479.25,128.02 513.57,128.02 513.57,36.37 
		559.36,36.37 	"/>
	<polygon class="st3" points="702.71,36.37 702.71,2.05 576.81,2.05 576.81,2.12 576.75,2.12 576.75,128.02 576.81,128.02 
		611.07,128.02 702.71,128.02 702.71,93.7 611.07,93.7 611.07,82.23 668.45,82.23 668.45,47.91 611.07,47.91 611.07,36.37 	"/>
	<polygon class="st3" points="559.45,179.72 559.38,155.4 535.19,155.45 489.34,201.3 467.68,201.3 467.68,155.45 433.37,155.45 
		433.37,281.35 467.68,281.35 467.68,235.62 489.46,235.62 535.19,281.35 559.38,281.41 559.45,257.09 520.77,218.4 	"/>
	<path class="st3" d="M67.26,36.87h63.01V2.05H67.26c-34.8,0-63.01,28.21-63.01,63.01s28.21,63.01,63.01,63.01h63.01V93.25H67.26
		c-15.57,0-28.19-12.62-28.19-28.19C39.07,49.49,51.69,36.87,67.26,36.87z"/>
	<path class="st3" d="M238.36,218.4v63.01h34.82V218.4c0-34.8-28.21-63.01-63.01-63.01s-63.01,28.21-63.01,63.01v63.01h34.82V218.4
		c0-15.57,12.62-28.19,28.19-28.19C225.74,190.21,238.36,202.83,238.36,218.4z"/>
	<path class="st3" d="M353.08,190.21h63.01V155.4h-63.01c-34.8,0-63.01,28.21-63.01,63.01s28.21,63.01,63.01,63.01h63.01v-34.82
		h-63.01c-15.57,0-28.19-12.62-28.19-28.19C324.88,202.83,337.51,190.21,353.08,190.21z"/>
	<polygon class="st3" points="95.79,155.4 95.79,200.82 39.41,200.82 39.41,155.4 4.25,155.4 4.25,281.41 39.41,281.41 
		39.41,235.98 95.79,235.98 95.79,281.41 130.27,281.41 130.27,155.4 	"/>
	<path class="st4" d="M737.06,200.43c-0.42-25.12-21.44-45.04-46.57-45.04h-45.07v34.32l45.49,0c6.19,0,11.52,4.76,11.81,10.95
		c0.31,6.61-4.95,12.06-11.49,12.06h-11.5c-18.95,0-34.32,15.36-34.32,34.32v0v34.26h91.64v-34.26h-45.82
		C716.81,247.03,737.49,226.1,737.06,200.43z"/>
	<path class="st3" d="M272.4,55.19c-5.46-34.37-37.74-57.8-72.11-52.35c-34.37,5.46-57.8,37.74-52.35,72.11
		c5.46,34.37,37.74,57.8,72.11,52.35C254.42,121.84,277.85,89.56,272.4,55.19z M210.17,93.26c-15.57,0-28.19-12.62-28.19-28.19
		c0-15.57,12.62-28.19,28.19-28.19c15.57,0,28.19,12.62,28.19,28.19C238.36,80.64,225.74,93.26,210.17,93.26z"/>
	
		<rect x="593.74" y="155.4" transform="matrix(-1 -1.224647e-16 1.224647e-16 -1 1221.7888 356.6999)" class="st4" width="34.32" height="45.91"/>
	<path class="st3" d="M370.51,2.12V2.05h-60.96v0.07h-19.48v125.9h34.32V93.26h46.13c25.17,0,45.57-20.4,45.57-45.57
		C416.08,22.52,395.68,2.12,370.51,2.12z M364.98,64.71h-40.6V31.12h40.6v0.02c9.27,0,16.78,7.51,16.78,16.78
		C381.77,57.19,374.25,64.71,364.98,64.71z"/>
	<path class="st3" d="M846.12,47.69c0-25.17-20.4-45.57-45.57-45.57V2.05h-60.96v0.01h-19.48v126.02h34.32V93.26h32.67l34.76,34.76
		l24.19,0.06l0.07-24.32l-19.03-19.03C838.61,76.45,846.12,62.95,846.12,47.69z M795.02,64.71
		C795.02,64.71,795.02,64.71,795.02,64.71h-40.6V31.12h40.6v0.03c0,0,0,0,0,0c9.27,0,16.78,7.51,16.78,16.78
		C811.8,57.19,804.29,64.71,795.02,64.71z"/>
	<path class="st4" d="M846.1,195.54c0.31-22.05-18.25-40.09-40.3-40.09h-51.34v34.32h51.59v0.01c2.71,0,5.17,1.93,5.66,4.78
		c0.33,1.96-0.48,3.98-1.98,5.29c-1.19,1.04-2.46,1.39-3.68,1.39v0.01h-27.06v34.32h27.06v0.01c2.71,0,5.17,1.93,5.66,4.78
		c0.33,1.96-0.48,3.98-1.98,5.29c-1.19,1.04-2.46,1.39-3.68,1.39v0.01h-51.59v34.32h51.34c22.05,0,40.61-18.04,40.3-40.09
		c-0.12-8.55-2.96-16.44-7.68-22.86C843.14,211.99,845.98,204.1,846.1,195.54z"/>
</g>
</svg>
