<svg xmlns="http://www.w3.org/2000/svg" viewBox="0 0 669.54 319.03"><defs><style>.cls-1{fill:#fff;}</style></defs><title>Asset 1</title><g id="Layer_2" data-name="Layer 2"><g id="Layer_1-2" data-name="Layer 1"><path class="cls-1" d="M302.9,319q125.6,0,251.19,0a82.34,82.34,0,0,0,20-2.06c12.09-3,22.18-9.11,29.92-19a73.37,73.37,0,0,0,13.22-27.43c4.32-16.89,8.35-33.85,12.46-50.79q9.51-39.15,19-78.32,9.12-37.59,18.3-75.18c2.39-9.7,3.66-19.4,1.51-29.3-2.28-10.48-7.31-19.34-15.64-26.18C643.56,3.19,632.76,0,621,0Q367.54,0,114.09,0a71.9,71.9,0,0,0-17.77,2.2A53.14,53.14,0,0,0,69.59,17.88,66.73,66.73,0,0,0,54.77,44.51C51.87,54.36,49.5,64.36,47,74.33q-11.35,45.53-22.62,91.08c-7.17,28.91-14.28,57.84-21.55,86.74C.43,261.76-1.07,271.37.93,281.24c2.46,12.16,8.52,22,18.74,29.16,9.12,6.38,19.46,8.63,30.42,8.63Z"/><path d="M302.9,319H50.09c-11,0-21.3-2.25-30.42-8.63C9.45,303.26,3.39,293.4.93,281.24c-2-9.87-.5-19.48,1.91-29.09,7.27-28.9,14.38-57.83,21.55-86.74Q35.69,119.87,47,74.33c2.49-10,4.86-20,7.76-29.82A66.73,66.73,0,0,1,69.59,17.88,53.14,53.14,0,0,1,96.32,2.21,71.9,71.9,0,0,1,114.09,0Q367.53,0,621,0c11.78,0,22.58,3.17,31.82,10.75,8.33,6.84,13.36,15.7,15.64,26.18,2.15,9.9.88,19.6-1.51,29.3q-9.25,37.56-18.3,75.18-9.51,39.16-19,78.32c-4.11,16.94-8.14,33.9-12.46,50.79A73.37,73.37,0,0,1,604,298c-7.74,9.87-17.83,16-29.92,19a82.34,82.34,0,0,1-20,2.06Q428.5,319.06,302.9,319ZM274.83,192.11a9.75,9.75,0,0,0,5.31-1.77c14.4-10.59,28.69-21.33,43-32L333,151c.35.52.6.85.83,1.2,7.9,12.3,15.85,24.57,23.67,36.93a6,6,0,0,0,5.64,3c9.2,0,18.39,0,27.59,0a14.86,14.86,0,0,0,3.39-.37c4-1,5.21-4.27,2.88-7.61q-9.6-13.81-19.22-27.6T358.5,129a4,4,0,0,1,.35-.46L425.5,76.69c1.59-1.24,3.14-2.58,2.49-4.91-.7-2.52-2.83-2.6-4.92-2.69h-.36c-7.09,0-14.18-.14-21.27.09a10.6,10.6,0,0,0-5.8,2c-12.77,9.88-25.39,19.94-38.06,30l-11.74,9.25c-.34-.46-.6-.78-.84-1.12-8.23-12.09-16.54-24.13-24.65-36.3a8.09,8.09,0,0,0-7.5-3.88c-9.08.06-18.15,0-27.23,0a29.16,29.16,0,0,0-3.24.15c-4.51.53-6.25,4.27-3.7,7.93l28.18,40.43,10.82,15.57c-.54.46-1,.86-1.45,1.21q-24.74,18.9-49.52,37.75a5.24,5.24,0,0,1-2.92,1c-8.29.08-16.58.05-24.88,0-.5,0-1-.08-1.38-.11,1.23-3.75,2.63-7.32,3.55-11q6.78-27.19,13.33-54.46c1.48-6.15,3.21-12.26,3.42-18.67.3-9-3.54-14.79-12-17.57-6.4-2.09-13.06-2.48-19.72-2.48q-54.09-.07-108.18,0c-.54,0-1.09,0-1.62,0a6.52,6.52,0,0,0-6,4.83c-.77,3.07-1.51,6.14-2.2,9.24-.64,2.9.64,4.64,3.6,5a16.32,16.32,0,0,0,2,0H217.49c1,0,1.92,0,2.88,0,2.64.21,3.51,1.16,3.38,3.81a17.15,17.15,0,0,1-.52,3.18q-7.66,31.59-15.38,63.18-1.31,5.38-2.86,10.72a4.89,4.89,0,0,1-4.77,3.93c-.95,0-1.91.22-2.86.22-6.61,0-13.23,0-19.84,0q-17.76,0-35.52,0c-3.7,0-5.94,1.77-6.83,5.35-.75,3-1.46,6-2.16,9.06a3.37,3.37,0,0,0,2.63,4.36,11.87,11.87,0,0,0,2.85.33m368.44-55.29a16,16,0,0,1-.22,1.62q-5.82,24-11.66,48c-.88,3.65.51,5.59,4.29,5.62q11.63.12,23.26,0a7,7,0,0,0,7-5.76c3.81-15.79,7.68-31.56,11.39-47.37.44-1.84,1.19-2.19,2.87-2.18q25.51.08,51,0a21.89,21.89,0,0,0,3.23-.2,6.28,6.28,0,0,0,5.11-4.81c.77-3.12,1.76-6.2,2.37-9.35a3.86,3.86,0,0,0-.86-3.18,7.12,7.12,0,0,0-4.07-1.36c-17.43-.09-34.86-.06-52.29-.06h-2.21a14,14,0,0,1,.14-1.4q5.05-20.61,10.13-41.23c.95-3.85-.7-6.15-4.65-6.18q-11.17-.09-22.36,0c-4,0-6.48,2.19-7.41,6q-5,20.7-10.12,41.41c-.19.78-.35,1.4-1.46,1.39-13.64,0-27.28,0-40.92,0a3.81,3.81,0,0,1-4-3.57,10.73,10.73,0,0,1,.15-3.75c2.81-11.85,5.69-23.68,8.55-35.52.89-3.64-.76-5.92-4.5-6q-11.19-.09-22.36,0c-3.84,0-6.28,2-7.22,5.73-3,12.17-6.06,24.33-8.93,36.54a68.62,68.62,0,0,0-2.09,12.68,12,12,0,0,0,10.16,12.49,35.61,35.61,0,0,0,6.29.33q29.47,0,59,0Zm-419.57,99c3.91,0,7.81,0,11.72,0a6.66,6.66,0,0,0,6.4-5.05l27-111.17c1-4-.94-6.39-5.09-6.39H106.87c-4.6,0-7.17,2.11-8.26,6.61q-8,33.06-16.08,66.11-5.44,22.35-10.88,44.71c-.81,3.34.68,5.18,4.18,5.2C79.68,235.89,83.52,235.87,87.36,235.87ZM356,256.34h2.24c10.28,0,20.55,0,30.82,0a10.23,10.23,0,0,0,10.36-8q2.72-12.33,5.38-24.67c1.06-4.9-1.47-8.23-6.48-8.26q-17.92-.12-35.86,0a10,10,0,0,0-9.93,8.23c-2,9.15-4,18.3-6,27.46-1.1,5.06-2.16,10.13-3.24,15.2C349.91,267.3,354.42,263.81,356,256.34ZM181.25,215.58a5,5,0,0,0-.74-.17c-14.54,0-29.07-.09-43.6,0-5.07,0-8.71,3.44-9.78,8.43q-2.58,12.07-5.23,24.14c-1.08,4.9,1.38,8.29,6.37,8.32,14.24.07,28.47,0,42.7,0,1.14,0,1.5-.37,1.72-1.49,1-5.08,2.21-10.14,3.32-15.22C177.75,231.68,179.48,223.7,181.25,215.58Zm135.58-.2H299.16a10.23,10.23,0,0,0-10.46,8.54q-2.56,12.09-5.19,24.17c-1.06,4.8,1.38,8.19,6.27,8.22q18,.13,36.06,0a10,10,0,0,0,9.79-7.95c1.89-8.45,3.77-16.91,5.57-25.37a7,7,0,0,0-.1-3.18c-.78-2.94-3.09-4.41-6.78-4.43C328.49,215.36,322.66,215.38,316.83,215.38Zm173.51,41c5.83,0,11.66,0,17.49,0,5.29,0,9.2-3,10.36-8.18,1.84-8.15,3.59-16.33,5.34-24.5,1.07-5-1.34-8.22-6.39-8.25q-17.94-.12-35.88,0a9.93,9.93,0,0,0-10,8.19c-1.64,7.28-3.19,14.59-4.77,21.88-.18.82-.31,1.65-.49,2.46-1.14,5.07,1.43,8.35,6.65,8.39C478.56,256.38,484.45,256.34,490.34,256.34ZM195.72,245.85a5.44,5.44,0,0,1,0-1.15q2.07-9.36,4.16-18.7l.39-1.75c1.29-5.76-1.47-9.05-7.38-8.88-1,0-1.42.29-1.65,1.37-2.22,10.51-4.56,21-6.8,31.5-1,4.81,1.49,8,6.43,8.07q17.93.12,35.86,0a10.25,10.25,0,0,0,10-8.39c1.73-8.11,3.53-16.21,5.29-24.32.58-2.66,1.11-5.33,1.66-8-6-1-11,2.28-12.29,7.85-.93,4.07-1.75,8.17-2.64,12.26-.74,3.41-1.52,6.81-2.26,10.13ZM545.38,215.4a25.93,25.93,0,0,0,.35-5.15c-.46-3.37-3.49-5.18-7.76-5.05a1.36,1.36,0,0,0-1.54,1.3q-4.53,21.18-9.13,42.36c-.77,3.57,1.26,6.89,4.88,7.18a74.34,74.34,0,0,0,12.92,0c5.23-.49,8.65-4.77,8.73-10.18H538.7a3.59,3.59,0,0,1,0-.83c1.32-6.12,2.63-12.25,4-18.36a1.81,1.81,0,0,1,1.39-.91c2.16-.1,4.32,0,6.49-.05a10.27,10.27,0,0,0,9.95-10.36Zm-284,10.37c2.81,0,5.45,0,8.09,0,5.13-.07,9.69-5,9.47-10.4H263.71c.16-.88.27-1.52.39-2.15.68-3.45-.6-6.45-3.53-7.39a10.32,10.32,0,0,0-5.08-.32c-.57.13-.73,2.2-1.07,3.39,0,.17-.06.35-.1.53-2.82,12.89-5.67,25.77-8.47,38.67-1,4.52,1.06,7.76,5.47,8.11a69.28,69.28,0,0,0,12.05,0,9.88,9.88,0,0,0,8.91-10.27H256.94Zm179.19,20.16c1.66-7.57,3.27-15,4.9-22.36.76-3.45-.41-6.4-3.28-7.52a21.49,21.49,0,0,0-4.22-.67c-1.11-.18-1.48.46-1.68,1.38-2.29,10.55-4.63,21.1-6.86,31.67-.92,4.38,1.29,7.51,5.65,7.81a77.72,77.72,0,0,0,11.52,0,10,10,0,0,0,9.35-10.3Zm-25.64-15.17c-2.55,0-2.58,0-3.11,2.43-1,4.83-2,9.68-3.08,14.51-1.18,5.48,1.3,8.57,6.86,8.68a1.89,1.89,0,0,0,2.27-1.79c1.08-5.31,2.23-10.61,3.4-15.9C422.25,234.07,419.64,230.78,414.89,230.76Zm-1.39-5.18a3.14,3.14,0,0,0,.5.16l6.12,0c4,0,4,0,4.82-3.84.45-2.11.83-4.24,1.26-6.46H415.71C415,218.85,414.25,222.16,413.5,225.58Z"/><path class="cls-1" d="M274.83,192.11a9.75,9.75,0,0,0,5.31-1.77c14.4-10.59,28.69-21.33,43-32L333,151c.35.52.6.85.83,1.2,7.9,12.3,15.85,24.57,23.67,36.93a6,6,0,0,0,5.64,3c9.2,0,18.39,0,27.59,0a14.86,14.86,0,0,0,3.39-.37c4-1,5.21-4.27,2.88-7.61q-9.6-13.81-19.22-27.6T358.5,129a4,4,0,0,1,.35-.46L425.5,76.69c1.59-1.24,3.14-2.58,2.49-4.91-.7-2.52-2.83-2.6-4.92-2.69h-.36c-7.09,0-14.18-.14-21.27.09a10.6,10.6,0,0,0-5.8,2c-12.77,9.88-25.39,19.94-38.06,30l-11.74,9.25c-.34-.46-.6-.78-.84-1.12-8.23-12.09-16.54-24.13-24.65-36.3a8.09,8.09,0,0,0-7.5-3.88c-9.08.06-18.15,0-27.23,0a29.16,29.16,0,0,0-3.24.15c-4.51.53-6.25,4.27-3.7,7.93l28.18,40.43,10.82,15.57c-.54.46-1,.86-1.45,1.21q-24.74,18.9-49.52,37.75a5.24,5.24,0,0,1-2.92,1c-8.29.08-16.58.05-24.88,0-.5,0-1-.08-1.38-.11,1.23-3.75,2.63-7.32,3.55-11q6.78-27.19,13.33-54.46c1.48-6.15,3.21-12.26,3.42-18.67.3-9-3.54-14.79-12-17.57-6.4-2.09-13.06-2.48-19.72-2.48q-54.09-.07-108.18,0c-.54,0-1.09,0-1.62,0a6.52,6.52,0,0,0-6,4.83c-.77,3.07-1.51,6.14-2.2,9.24-.64,2.9.64,4.64,3.6,5a16.32,16.32,0,0,0,2,0H217.49c1,0,1.92,0,2.88,0,2.64.21,3.51,1.16,3.38,3.81a17.15,17.15,0,0,1-.52,3.18q-7.66,31.59-15.38,63.18-1.31,5.38-2.86,10.72a4.89,4.89,0,0,1-4.77,3.93c-.95,0-1.91.22-2.86.22-6.61,0-13.23,0-19.84,0q-17.76,0-35.52,0c-3.7,0-5.94,1.77-6.83,5.35-.75,3-1.46,6-2.16,9.06a3.37,3.37,0,0,0,2.63,4.36,11.87,11.87,0,0,0,2.85.33Z"/><path class="cls-1" d="M506.93,136.88H504.5q-29.47,0-59,0a35.61,35.61,0,0,1-6.29-.33,12,12,0,0,1-10.16-12.49,68.62,68.62,0,0,1,2.09-12.68c2.87-12.21,5.91-24.37,8.93-36.54.94-3.77,3.38-5.71,7.22-5.73q11.18-.07,22.36,0c3.74,0,5.39,2.31,4.5,6-2.86,11.84-5.74,23.67-8.55,35.52a10.73,10.73,0,0,0-.15,3.75,3.81,3.81,0,0,0,4,3.57c13.64,0,27.28,0,40.92,0,1.11,0,1.27-.61,1.46-1.39Q517,95.84,522,75.13c.93-3.84,3.46-6,7.41-6q11.17-.09,22.36,0c4,0,5.6,2.33,4.65,6.18q-5.07,20.61-10.13,41.23a14,14,0,0,0-.14,1.4h2.21c17.43,0,34.86,0,52.29.06a7.12,7.12,0,0,1,4.07,1.36,3.86,3.86,0,0,1,.86,3.18c-.61,3.15-1.6,6.23-2.37,9.35a6.28,6.28,0,0,1-5.11,4.81,21.89,21.89,0,0,1-3.23.2q-25.51,0-51,0c-1.68,0-2.43.34-2.87,2.18-3.71,15.81-7.58,31.58-11.39,47.37a7,7,0,0,1-7,5.76q-11.64.1-23.26,0c-3.78,0-5.17-2-4.29-5.62q5.83-24,11.66-48A16,16,0,0,0,506.93,136.88Z"/><path class="cls-1" d="M87.36,235.87c-3.84,0-7.68,0-11.53,0-3.5,0-5-1.86-4.18-5.2Q77.07,208.31,82.53,186q8-33.06,16.08-66.11c1.09-4.5,3.66-6.6,8.26-6.61h20.55c4.15,0,6.06,2.39,5.09,6.39l-27,111.17a6.66,6.66,0,0,1-6.4,5.05C95.17,235.89,91.27,235.87,87.36,235.87Z"/><path class="cls-1" d="M356,256.34c-1.54,7.47-6,11-12.74,10,1.08-5.07,2.14-10.14,3.24-15.2,2-9.16,4-18.31,6-27.46a10,10,0,0,1,9.93-8.23q17.93-.12,35.86,0c5,0,7.54,3.36,6.48,8.26q-2.67,12.33-5.38,24.67a10.23,10.23,0,0,1-10.36,8c-10.27,0-20.54,0-30.82,0Zm37.7-30.48H362.61c-1.45,6.6-2.89,13.22-4.37,20H389.3C390.74,239.23,392.19,232.6,393.66,225.86Z"/><path class="cls-1" d="M181.25,215.58c-1.77,8.12-3.5,16.1-5.24,24.07-1.11,5.08-2.29,10.14-3.32,15.22-.22,1.12-.58,1.5-1.72,1.49-14.23,0-28.46,0-42.7,0-5,0-7.45-3.42-6.37-8.32q2.66-12.06,5.23-24.14c1.07-5,4.71-8.39,9.78-8.43,14.53-.11,29.06,0,43.6,0A5,5,0,0,1,181.25,215.58Zm-48.31,30.36c10.13,0,20.1,0,30.07-.05a1.77,1.77,0,0,0,1.21-1.1c.92-3.89,1.74-7.81,2.59-11.72.52-2.37,1.05-4.74,1.6-7.22h-31Z"/><path class="cls-1" d="M316.83,215.38c5.83,0,11.66,0,17.49,0,3.69,0,6,1.49,6.78,4.43a7,7,0,0,1,.1,3.18c-1.8,8.46-3.68,16.92-5.57,25.37a10,10,0,0,1-9.79,7.95q-18,.1-36.06,0c-4.89,0-7.33-3.42-6.27-8.22q2.64-12.08,5.19-24.17a10.23,10.23,0,0,1,10.46-8.54h17.67Zm-22.3,30.56c10.12,0,20,0,29.94-.05a1.89,1.89,0,0,0,1.32-1.16c.8-3.13,1.49-6.28,2.18-9.43s1.32-6.25,2-9.42H299C297.49,232.56,296,239.14,294.53,245.94Z"/><path class="cls-1" d="M490.34,256.34c-5.89,0-11.78,0-17.67,0-5.22,0-7.79-3.32-6.65-8.39.18-.81.31-1.64.49-2.46,1.58-7.29,3.13-14.6,4.77-21.88a9.93,9.93,0,0,1,10-8.19q17.94-.12,35.88,0c5.05,0,7.46,3.25,6.39,8.25-1.75,8.17-3.5,16.35-5.34,24.5-1.16,5.13-5.07,8.15-10.36,8.18C502,256.36,496.17,256.34,490.34,256.34ZM477,245.93c10.14,0,20.16,0,30.18-.05.38,0,1-.72,1.1-1.2.77-3.06,1.45-6.15,2.13-9.24s1.35-6.35,2-9.59h-31C480,232.54,478.51,239.17,477,245.93Z"/><path class="cls-1" d="M195.72,245.85h30.82c.74-3.32,1.52-6.72,2.26-10.13.89-4.09,1.71-8.19,2.64-12.26,1.26-5.57,6.28-8.82,12.29-7.85-.55,2.67-1.08,5.34-1.66,8-1.76,8.11-3.56,16.21-5.29,24.32a10.25,10.25,0,0,1-10,8.39q-17.93.1-35.86,0c-4.94,0-7.46-3.26-6.43-8.07,2.24-10.5,4.58-21,6.8-31.5.23-1.08.65-1.34,1.65-1.37,5.91-.17,8.67,3.12,7.38,8.88l-.39,1.75q-2.08,9.34-4.16,18.7A5.44,5.44,0,0,0,195.72,245.85Z"/><path class="cls-1" d="M545.38,215.4h15.14a10.27,10.27,0,0,1-9.95,10.36c-2.17,0-4.33,0-6.49.05a1.81,1.81,0,0,0-1.39.91c-1.4,6.11-2.71,12.24-4,18.36a3.59,3.59,0,0,0,0,.83h15.13c-.08,5.41-3.5,9.69-8.73,10.18a74.34,74.34,0,0,1-12.92,0c-3.62-.29-5.65-3.61-4.88-7.18q4.56-21.18,9.13-42.36a1.36,1.36,0,0,1,1.54-1.3c4.27-.13,7.3,1.68,7.76,5.05A25.93,25.93,0,0,1,545.38,215.4Z"/><path class="cls-1" d="M261.34,225.77l-4.4,20.12h15.34a9.88,9.88,0,0,1-8.91,10.27,69.28,69.28,0,0,1-12.05,0c-4.41-.35-6.45-3.59-5.47-8.11,2.8-12.9,5.65-25.78,8.47-38.67,0-.18.05-.36.1-.53.34-1.19.5-3.26,1.07-3.39a10.32,10.32,0,0,1,5.08.32c2.93.94,4.21,3.94,3.53,7.39-.12.63-.23,1.27-.39,2.15H278.9c.22,5.41-4.34,10.33-9.47,10.4C266.79,225.8,264.15,225.77,261.34,225.77Z"/><path class="cls-1" d="M440.53,245.93h15.38a10,10,0,0,1-9.35,10.3,77.72,77.72,0,0,1-11.52,0c-4.36-.3-6.57-3.43-5.65-7.81,2.23-10.57,4.57-21.12,6.86-31.67.2-.92.57-1.56,1.68-1.38a21.49,21.49,0,0,1,4.22.67c2.87,1.12,4,4.07,3.28,7.52C443.8,231,442.19,238.36,440.53,245.93Z"/><path class="cls-1" d="M414.89,230.76c4.75,0,7.36,3.31,6.34,7.93-1.17,5.29-2.32,10.59-3.4,15.9a1.89,1.89,0,0,1-2.27,1.79c-5.56-.11-8-3.2-6.86-8.68,1.05-4.83,2-9.68,3.08-14.51C412.31,230.75,412.34,230.75,414.89,230.76Z"/><path class="cls-1" d="M413.5,225.58c.75-3.42,1.47-6.73,2.21-10.11H426.2c-.43,2.22-.81,4.35-1.26,6.46-.83,3.84-.85,3.84-4.82,3.84l-6.12,0A3.14,3.14,0,0,1,413.5,225.58Z"/><path d="M393.66,225.86c-1.47,6.74-2.92,13.37-4.36,20H358.24c1.48-6.76,2.92-13.38,4.37-20Z"/><path d="M132.94,245.94l4.42-20.09h31c-.55,2.48-1.08,4.85-1.6,7.22-.85,3.91-1.67,7.83-2.59,11.72a1.77,1.77,0,0,1-1.21,1.1C153,246,143.07,245.94,132.94,245.94Z"/><path d="M294.53,245.94c1.5-6.8,3-13.38,4.44-20.06h31c-.68,3.17-1.32,6.3-2,9.42s-1.38,6.3-2.18,9.43a1.89,1.89,0,0,1-1.32,1.16C314.56,246,304.65,245.94,294.53,245.94Z"/><path d="M477,245.93c1.49-6.76,3-13.39,4.42-20.08h31c-.68,3.24-1.33,6.42-2,9.59s-1.36,6.18-2.13,9.24c-.12.48-.72,1.2-1.1,1.2C497.18,246,487.16,245.93,477,245.93Z"/></g></g></svg>