<?xml version="1.0" encoding="utf-8"?>
<!-- Generator: Adobe Illustrator 13.0.0, SVG Export Plug-In  -->
<!DOCTYPE svg PUBLIC "-//W3C//DTD SVG 1.1//EN" "http://www.w3.org/Graphics/SVG/1.1/DTD/svg11.dtd" [
	<!ENTITY ns_flows "http://ns.adobe.com/Flows/1.0/">
]>
<svg version="1.1"
	 xmlns="http://www.w3.org/2000/svg" xmlns:xlink="http://www.w3.org/1999/xlink" xmlns:a="http://ns.adobe.com/AdobeSVGViewerExtensions/3.0/"
	 x="0px" y="0px" width="507px" height="459px" viewBox="-21.914 -25.609 507 459" enable-background="new -21.914 -25.609 507 459"
	 xml:space="preserve">
<defs>
</defs>
<path fill="#E5D4B1" stroke="#000000" stroke-width="3" d="M466.982,303.788c-22-3-57-23-62-26s-28-28-40-47s-23-42-27-55
	s-8-26-9-33s1-23.5,4-30.5c-7-5-21-6-27,7s-11,33-11,46s22,55,8,61s-17,14-89-4s-102-20-109-6s34,20,56,24s72.021,22.634,65,32
	c-4.35,5.802-9.375,4.488-20.709,8.488c-19.611,6.922-19.308,9.966-43.791,18.345c-24.433,8.362-22.843,32.226-15.167,36.23
	s14.016,6.342,46.386-12.013c14.35-5.34,31.782-8.885,47.115-10.218s24.668,56,41.334,64.667s35.999,8,47.999,8
	s18.666,2.001,25.333-1.333s25.334,1.332,35.334,6.666c0,0,38.667,18.667,42,22.667"/>
<path fill="none" stroke="#897F6A" stroke-width="2" d="M234.483,270.787c33.999-1.999,45.999,30.667,53.999,48.001"/>
<path fill="none" stroke="#897F6A" stroke-width="2" d="M306.149,245.453c0.334,25.334,11.001,46.668,25.333,54.666"/>
<path fill="none" stroke="#897F6A" stroke-width="2" d="M239.816,230.787c-8,1.333-17.333,20-13.333,25.333"/>
<path fill="none" stroke="#897F6A" stroke-width="2" d="M197.149,220.12c-5.333,4-16,13.333-13.333,18.667"/>
<path fill="none" stroke="#897F6A" stroke-width="2" d="M149.149,212.12c-6.667,4-8.834,15.501-10.167,18.167"/>
<path fill="none" stroke="#897F6A" stroke-width="2" d="M222.483,280.121c8,4,12,17.332,9.333,26.666"/>
<path fill="none" stroke="#897F6A" stroke-width="2" d="M201.296,287.393c6.667,4,7.248,23.993,4.581,27.993"/>
<path fill="none" stroke="#897F6A" stroke-width="2" d="M175.848,298.59c8.648,6.485,9.591,15.534,5.089,26.466"/>
<path fill="none" stroke="#897F6A" stroke-width="2" d="M293.982,236.288c-4,10-7,18-6,24"/>
<path fill="none" stroke="#897F6A" stroke-width="2" d="M294.982,165.288c11.947,1.707,2.677,3.252,25-1"/>
<path fill="none" stroke="#897F6A" stroke-width="2" d="M399.149,286.788c-4,12-8,15.999-14.667,19.999"/>
<path fill="#E5D4B1" stroke="#000000" stroke-width="3" d="M299.816,374.455c15.905-3.181,27.334-5.333,36-8
	s21.332-10.001,24.666-16.667s0.667-7.999-1.333-12.666s-23.999-2-29.333,0s-10,4-32,7.333s-28,5-39.334,3.666
	c-9.292-1.094,1.335,22.333,6.001,25S269.816,380.455,299.816,374.455z"/>
<path fill="#E5D4B1" stroke="#000000" stroke-width="3" d="M316.784,311.788c18.897-1.333,28.348-2.666,33.435,2.667
	s2.906,10.667,1.453,12s-18.171,8.666-26.893,11.333c-8.723,2.667-10.176,0.667-27.619,4.667c-17.444,4-18.897,5.333-23.986,7.333
	c-5.088,2-15.263,1.333-24.711-6c-9.449-7.333-7.996-20-7.269-24c0.727-4,1.455-12.667,19.625-14s12.354,4.666,35.614,5.333
	C319.691,311.788,316.784,311.788,316.784,311.788z"/>
<path fill="none" stroke="#897F6A" stroke-width="2" d="M245.815,318.455c-1.923,17.305,1.109,18.166,10.667,25.333"/>
<path fill="none" stroke="#897F6A" stroke-width="2" d="M275.149,318.787c0,5.333,1.333,17.333,1.333,17.333"/>
<path fill="none" stroke="#897F6A" stroke-width="2" d="M308.149,317.12c0,2.667,1.334,13.333,1.334,17.333"/>
<path fill="none" stroke="#897F6A" stroke-width="2" d="M314.815,347.122c0,4,6.667,17.333,6.667,17.333"/>
<path fill="none" stroke="#897F6A" stroke-width="2" d="M282.482,354.788c1.333,2.667,2.667,14.666,6.667,16"/>
<path fill="none" stroke="#897F6A" stroke-width="2" d="M405.815,318.788c-6.666,12-10.666,42.668-17.333,49.334"/>
<line fill="none" stroke="#963C96" stroke-width="9" stroke-linecap="round" x1="323.482" y1="90.788" x2="322.814" y2="41.788"/>
<polygon fill="#963C96" points="322.814,41.788 299.501,60.3 322.814,0 346.127,60.3 "/>
<line fill="none" stroke="#2828FF" stroke-width="9" stroke-linecap="round" x1="88.996" y1="210.46" x2="40.9" y2="201.067"/>
<polygon fill="#2828FF" points="40.9,201.067 54.24,227.68 0,192.5 63.799,182.044 "/>
<line fill="none" stroke="#E12828" stroke-width="9" stroke-linecap="round" x1="126.377" y1="335.255" x2="95.585" y2="348.005"/>
<polygon fill="#E12828" points="95.585,348.005 118.064,371.413 69.063,358.197 96.605,315.568 "/>
<g>
	<path fill="#2828FF" d="M375.868,62.098l-0.308-0.103c-1.121,1.094-2.212,1.887-3.271,2.379s-2.184,0.738-3.373,0.738
		c-1.75,0-3.138-0.461-4.163-1.384s-1.538-2.157-1.538-3.702c0-2.01,0.987-3.592,2.963-4.748s4.974-1.883,8.993-2.184v-1.948
		c0-1.271-0.144-2.252-0.431-2.943s-0.656-1.176-1.107-1.456s-0.991-0.42-1.62-0.42s-1.173,0.109-1.63,0.328
		c-0.459,0.219-0.872,0.632-1.241,1.241s-0.643,1.453-0.82,2.533h-3.876v-3.732c1.572-0.697,2.902-1.22,3.988-1.569
		c1.088-0.349,2.099-0.605,3.035-0.769s1.836-0.246,2.697-0.246c1.654,0,2.977,0.219,3.969,0.656
		c0.99,0.438,1.732,1.148,2.225,2.133s0.738,2.345,0.738,4.081v7.998c0,1.162,0.034,1.986,0.103,2.471s0.175,0.837,0.317,1.056
		c0.145,0.219,0.328,0.39,0.555,0.513c0.225,0.123,0.639,0.26,1.24,0.41v1.354h-7.629L375.868,62.098z M375.191,55.104
		c-2.119,0.055-3.688,0.451-4.707,1.189s-1.527,1.818-1.527,3.24c0,0.848,0.232,1.494,0.697,1.938s1.107,0.667,1.928,0.667
		c0.629,0,1.224-0.167,1.784-0.502s1.005-0.783,1.333-1.343s0.492-1.155,0.492-1.784V55.104z"/>
	<path d="M403.971,52.808l9.208,9.311l-2.051,2.051l-9.188-9.372l-9.475,9.29l-1.907-1.928l9.372-9.352L390.6,43.6l2.051-2.051
		l9.29,9.27l9.29-9.27l1.928,1.907L403.971,52.808z"/>
	<path fill="#E12828" d="M422.54,42.492c0-1.299-0.021-2.242-0.062-2.83s-0.127-1.042-0.256-1.364
		c-0.131-0.321-0.328-0.574-0.596-0.759c-0.266-0.185-0.734-0.345-1.404-0.482v-1.354l5.722-0.287h2.522v11.751l0.021,0.021
		c1.217-1.135,2.32-1.931,3.312-2.389s2.007-0.687,3.046-0.687c2.434,0,4.259,0.858,5.476,2.574s1.825,4.283,1.825,7.701
		c0,3.568-0.804,6.248-2.409,8.039c-1.607,1.791-3.982,2.687-7.127,2.687c-2.16,0-4.136-0.39-5.927-1.169l-1.518,1.169l-2.625-0.369
		V42.492z M428.466,58.058c0,1.682,0.29,2.922,0.871,3.722s1.48,1.2,2.697,1.2c1.258,0,2.218-0.66,2.881-1.979
		s0.995-3.203,0.995-5.65c0-2.693-0.294-4.703-0.882-6.029s-1.504-1.989-2.748-1.989c-0.602,0-1.196,0.157-1.784,0.472
		s-1.073,0.762-1.456,1.343s-0.574,1.22-0.574,1.917V58.058z"/>
</g>
<g>
	<path fill="#2828FF" d="M74.339,166.769l-0.308-0.103c-1.121,1.094-2.212,1.887-3.271,2.379s-2.184,0.738-3.373,0.738
		c-1.75,0-3.138-0.461-4.163-1.384s-1.538-2.157-1.538-3.702c0-2.01,0.987-3.592,2.963-4.748s4.974-1.883,8.993-2.184v-1.948
		c0-1.271-0.144-2.252-0.431-2.943s-0.656-1.176-1.107-1.456s-0.991-0.42-1.62-0.42s-1.173,0.109-1.63,0.328
		c-0.459,0.219-0.872,0.632-1.241,1.241s-0.643,1.453-0.82,2.533h-3.876v-3.732c1.572-0.697,2.902-1.22,3.988-1.569
		c1.088-0.349,2.099-0.605,3.035-0.769s1.836-0.246,2.697-0.246c1.654,0,2.977,0.219,3.969,0.656
		c0.99,0.438,1.732,1.148,2.225,2.133s0.738,2.345,0.738,4.081v7.998c0,1.162,0.034,1.986,0.103,2.471s0.175,0.837,0.317,1.056
		c0.145,0.219,0.328,0.39,0.555,0.513c0.225,0.123,0.639,0.26,1.24,0.41v1.354h-7.629L74.339,166.769z M73.663,159.775
		c-2.119,0.055-3.688,0.451-4.707,1.189s-1.527,1.818-1.527,3.24c0,0.848,0.232,1.494,0.697,1.938s1.107,0.667,1.928,0.667
		c0.629,0,1.224-0.167,1.784-0.502s1.005-0.783,1.333-1.343s0.492-1.155,0.492-1.784V159.775z"/>
</g>
<g>
	<path fill="#E12828" d="M93.716,283.163c0-1.299-0.021-2.242-0.062-2.83s-0.127-1.042-0.256-1.363
		c-0.131-0.321-0.328-0.574-0.596-0.759c-0.266-0.185-0.734-0.345-1.404-0.481v-1.354l5.722-0.287h2.522v11.75l0.021,0.021
		c1.217-1.135,2.32-1.932,3.312-2.39s2.007-0.687,3.046-0.687c2.434,0,4.259,0.857,5.476,2.573s1.825,4.282,1.825,7.7
		c0,3.568-0.804,6.248-2.409,8.039c-1.607,1.791-3.982,2.688-7.127,2.688c-2.16,0-4.136-0.391-5.927-1.17l-1.518,1.17l-2.625-0.369
		V283.163z M99.643,298.729c0,1.682,0.29,2.922,0.871,3.722s1.48,1.2,2.697,1.2c1.258,0,2.218-0.66,2.881-1.979
		s0.995-3.202,0.995-5.649c0-2.693-0.294-4.703-0.882-6.029s-1.504-1.99-2.748-1.99c-0.602,0-1.196,0.158-1.784,0.473
		s-1.073,0.762-1.456,1.343s-0.574,1.22-0.574,1.917V298.729z"/>
</g>
</svg>
