<?xml version="1.0" encoding="UTF-8" standalone="no"?>
<svg
   xmlns:dc="http://purl.org/dc/elements/1.1/"
   xmlns:cc="http://creativecommons.org/ns#"
   xmlns:rdf="http://www.w3.org/1999/02/22-rdf-syntax-ns#"
   xmlns:svg="http://www.w3.org/2000/svg"
   xmlns="http://www.w3.org/2000/svg"
   id="svg2"
   version="1.1"
   viewBox="0 0 387 103"
   height="103pt"
   width="387pt">
  <metadata
     id="metadata58">
    <rdf:RDF>
      <cc:Work
         rdf:about="">
        <dc:format>image/svg+xml</dc:format>
        <dc:type
           rdf:resource="http://purl.org/dc/dcmitype/StillImage" />
        <dc:title></dc:title>
      </cc:Work>
    </rdf:RDF>
  </metadata>
  <defs
     id="defs4">
    <clipPath
       id="clip1">
      <path
         id="path7"
         d="M 0.0585938 2 L 22 2 L 22 25 L 0.0585938 25 Z M 0.0585938 2 " />
    </clipPath>
    <clipPath
       id="clip2">
      <path
         id="path10"
         d="M 0.0585938 40 L 22 40 L 22 64 L 0.0585938 64 Z M 0.0585938 40 " />
    </clipPath>
    <clipPath
       id="clip3">
      <path
         id="path13"
         d="M 0.0585938 79 L 22 79 L 22 102 L 0.0585938 102 Z M 0.0585938 79 " />
    </clipPath>
    <clipPath
       id="clip4">
      <path
         id="path16"
         d="M 220 0.894531 L 302 0.894531 L 302 102.941406 L 220 102.941406 Z M 220 0.894531 " />
    </clipPath>
    <clipPath
       id="clip5">
      <path
         id="path19"
         d="M 316 0.894531 L 386.050781 0.894531 L 386.050781 102.941406 L 316 102.941406 Z M 316 0.894531 " />
    </clipPath>
  </defs>
  <g
     id="surface839">
    <g
       id="g22"
       clip-rule="nonzero"
       clip-path="url(#clip1)">
      <path
         id="path24"
         d="M 21.839844 13.492188 C 21.839844 19.722656 16.949219 24.777344 10.921875 24.777344 C 4.890625 24.777344 0 19.722656 0 13.492188 C 0 7.257812 4.890625 2.207031 10.921875 2.207031 C 16.949219 2.207031 21.839844 7.257812 21.839844 13.492188 "
         style=" stroke:none;fill-rule:nonzero;fill:rgb(13.618469%,18.034363%,29.017639%);fill-opacity:1;" />
    </g>
    <g
       id="g26"
       clip-rule="nonzero"
       clip-path="url(#clip2)">
      <path
         id="path28"
         d="M 21.839844 51.949219 C 21.839844 58.179688 16.949219 63.234375 10.921875 63.234375 C 4.890625 63.234375 0 58.179688 0 51.949219 C 0 45.714844 4.890625 40.664062 10.921875 40.664062 C 16.949219 40.664062 21.839844 45.714844 21.839844 51.949219 "
         style=" stroke:none;fill-rule:nonzero;fill:rgb(13.618469%,18.034363%,29.017639%);fill-opacity:1;" />
    </g>
    <g
       id="g30"
       clip-rule="nonzero"
       clip-path="url(#clip3)">
      <path
         id="path32"
         d="M 21.839844 90.40625 C 21.839844 96.636719 16.949219 101.691406 10.921875 101.691406 C 4.890625 101.691406 0 96.636719 0 90.40625 C 0 84.175781 4.890625 79.121094 10.921875 79.121094 C 16.949219 79.121094 21.839844 84.175781 21.839844 90.40625 "
         style=" stroke:none;fill-rule:nonzero;fill:rgb(13.618469%,18.034363%,29.017639%);fill-opacity:1;" />
    </g>
    <path
       id="path34"
       d="M 59.945312 51.949219 C 59.945312 58.179688 55.058594 63.234375 49.027344 63.234375 C 42.996094 63.234375 38.105469 58.179688 38.105469 51.949219 C 38.105469 45.714844 42.996094 40.664062 49.027344 40.664062 C 55.058594 40.664062 59.945312 45.714844 59.945312 51.949219 "
       style=" stroke:none;fill-rule:nonzero;fill:rgb(13.618469%,18.034363%,29.017639%);fill-opacity:1;" />
    <path
       id="path36"
       d="M 59.945312 13.492188 C 59.945312 19.722656 55.058594 24.777344 49.027344 24.777344 C 42.996094 24.777344 38.105469 19.722656 38.105469 13.492188 C 38.105469 7.257812 42.996094 2.207031 49.027344 2.207031 C 55.058594 2.207031 59.945312 7.257812 59.945312 13.492188 "
       style=" stroke:none;fill-rule:nonzero;fill:rgb(13.618469%,18.034363%,29.017639%);fill-opacity:1;" />
    <path
       id="path38"
       d="M 98.054688 51.949219 C 98.054688 58.179688 93.164062 63.234375 87.132812 63.234375 C 81.101562 63.234375 76.214844 58.179688 76.214844 51.949219 C 76.214844 45.714844 81.101562 40.664062 87.132812 40.664062 C 93.164062 40.664062 98.054688 45.714844 98.054688 51.949219 "
       style=" stroke:none;fill-rule:nonzero;fill:rgb(13.618469%,18.034363%,29.017639%);fill-opacity:1;" />
    <path
       id="path40"
       d="M 98.054688 13.492188 C 98.054688 19.722656 93.164062 24.777344 87.132812 24.777344 C 81.101562 24.777344 76.214844 19.722656 76.214844 13.492188 C 76.214844 7.257812 81.101562 2.207031 87.132812 2.207031 C 93.164062 2.207031 98.054688 7.257812 98.054688 13.492188 "
       style=" stroke:none;fill-rule:nonzero;fill:rgb(13.618469%,18.034363%,29.017639%);fill-opacity:1;" />
    <path
       id="path42"
       d="M 98.054688 90.40625 C 98.054688 96.636719 93.164062 101.691406 87.132812 101.691406 C 81.101562 101.691406 76.214844 96.636719 76.214844 90.40625 C 76.214844 84.175781 81.101562 79.121094 87.132812 79.121094 C 93.164062 79.121094 98.054688 84.175781 98.054688 90.40625 "
       style=" stroke:none;fill-rule:nonzero;fill:rgb(13.618469%,18.034363%,29.017639%);fill-opacity:1;" />
    <path
       id="path44"
       d="M 59.945312 90.40625 C 59.945312 96.636719 55.058594 101.691406 49.027344 101.691406 C 42.996094 101.691406 38.105469 96.636719 38.105469 90.40625 C 38.105469 84.175781 42.996094 79.121094 49.027344 79.121094 C 55.058594 79.121094 59.945312 84.175781 59.945312 90.40625 "
       style=" stroke:none;fill-rule:nonzero;fill:rgb(13.618469%,18.034363%,29.017639%);fill-opacity:1;" />
    <path
       id="path46"
       d="M 171.613281 16.453125 L 143.695312 16.453125 L 143.695312 48.269531 L 171.613281 48.269531 C 181.191406 48.269531 187.894531 43.179688 187.894531 32.433594 C 187.894531 22.109375 181.328125 16.453125 171.613281 16.453125 Z M 181.328125 61 L 200.894531 101.445312 L 184.339844 101.445312 L 165.316406 62.273438 L 143.695312 62.273438 L 143.695312 101.445312 L 129.601562 101.445312 L 129.601562 2.449219 L 171.613281 2.449219 C 188.308594 2.449219 202.402344 11.644531 202.402344 32.007812 C 202.402344 47.847656 194.328125 57.605469 181.328125 61 "
       style=" stroke:none;fill-rule:nonzero;fill:rgb(13.618469%,18.034363%,29.017639%);fill-opacity:1;" />
    <g
       id="g48"
       clip-rule="nonzero"
       clip-path="url(#clip4)">
      <path
         id="path50"
         d="M 260.5625 15.746094 C 243.867188 15.746094 234.699219 29.746094 234.699219 51.949219 C 234.699219 74.152344 243.867188 88.152344 260.5625 88.152344 C 277.394531 88.152344 286.5625 74.152344 286.5625 51.949219 C 286.5625 29.746094 277.394531 15.746094 260.5625 15.746094 Z M 260.5625 103 C 235.796875 103 220.058594 81.929688 220.058594 51.949219 C 220.058594 21.96875 235.796875 0.894531 260.5625 0.894531 C 285.46875 0.894531 301.203125 21.96875 301.203125 51.949219 C 301.203125 81.929688 285.46875 103 260.5625 103 "
         style=" stroke:none;fill-rule:nonzero;fill:rgb(13.618469%,18.034363%,29.017639%);fill-opacity:1;" />
    </g>
    <g
       id="g52"
       clip-rule="nonzero"
       clip-path="url(#clip5)">
      <path
         id="path54"
         d="M 350.609375 103 C 336.648438 103 324.609375 96.777344 316.535156 87.019531 L 326.796875 76.695312 C 333.230469 83.910156 342.671875 88.433594 351.703125 88.433594 C 365.113281 88.433594 371.542969 83.625 371.542969 74.007812 C 371.542969 66.371094 365.933594 62.554688 349.921875 57.605469 C 329.671875 51.382812 319.957031 46.148438 319.957031 28.472656 C 319.957031 11.359375 333.914062 0.894531 351.566406 0.894531 C 364.566406 0.894531 374.417969 5.847656 382.902344 14.332031 L 372.777344 24.9375 C 366.753906 18.574219 359.914062 15.460938 350.472656 15.460938 C 339.25 15.460938 334.460938 21.117188 334.460938 27.765625 C 334.460938 34.695312 338.839844 38.089844 355.398438 43.179688 C 374.28125 49.121094 386.050781 55.34375 386.050781 73.019531 C 386.050781 90.839844 375.101562 103 350.609375 103 "
         style=" stroke:none;fill-rule:nonzero;fill:rgb(13.618469%,18.034363%,29.017639%);fill-opacity:1;" />
    </g>
  </g>
</svg>
